%
M48
M72
T01C0.0118
T02C0.0320
T03C0.0360
T04C0.0394
T05C0.0400
T06C0.0472
T07C0.0512
T08C0.0630
T09C0.0886
T10C0.0906
%
T01
X2113Y16305
X2508Y19110
X2908Y20060
X3308Y20910
X3608Y20410
X3808Y20810
X3608Y18910
X3408Y18310
X4502Y23410
X5608Y26510
X4908Y30310
X5508Y30710
X6508Y32910
X6708Y30810
X8008Y29410
X8708Y30210
X9758Y33685
X7808Y26310
X7008Y26010
X6508Y22810
X6508Y21410
X5908Y21110
X5908Y22510
X7408Y20210
X8708Y19910
X8708Y18710
X9208Y16610
X10883Y21060
X11308Y18910
X11508Y21060
X10208Y25010
X9408Y23210
X6408Y14910
X5708Y16010
X7408Y11010
X1608Y19110
X558Y18935
X1608Y23310
X2358Y29985
X3308Y30510
X3708Y30910
X3908Y30110
X3108Y36410
X3808Y39335
X1408Y33110
X1408Y31810
X558Y31285
X658Y35885
X808Y36410
X1008Y40410
X908Y42985
T02
X1408Y37710
X1408Y34710
X2408Y34710
X3408Y34710
X3408Y37710
X2408Y37710
X4408Y37710
X5408Y37710
X5408Y34710
X4408Y34710
X6408Y34710
X7408Y34710
X7408Y37710
X6408Y37710
X6508Y27910
X5508Y27910
X5508Y24910
X6508Y24910
X7508Y24910
X7508Y27910
X9808Y22210
X9808Y19910
X9808Y17610
X10608Y17610
X10608Y19910
X10608Y22210
X7008Y17610
X6008Y17610
X5008Y17610
X4508Y24910
X3508Y24910
X3508Y27910
X4508Y27910
X2508Y27910
X1508Y27910
X1508Y24910
X2508Y24910
T03
X9308Y34710
X9308Y35710
X9308Y36710
X9308Y37710
X9308Y38710
X10308Y38710
X10308Y37710
X10308Y36710
X10308Y35710
X10308Y34710
T04
X6998Y38993
X6014Y38993
X5029Y38993
X5029Y29150
X6014Y29150
X6998Y29150
X6998Y19308
X6014Y19308
X5029Y19308
T05
X6108Y11810
X6108Y10810
X6108Y9810
T06
X9408Y27960
X9408Y31460
X11008Y31460
X11008Y27960
T07
X10817Y13481
X10817Y7969
X10817Y2457
X4911Y2457
X4911Y7969
X4911Y13481
T08
X4045Y22064
X4045Y31906
X4045Y41749
X7982Y41749
X7982Y31906
X7982Y22064
T09
X8967Y15410
X8967Y12182
X8967Y9898
X8967Y6670
X8967Y4386
X8967Y1158
X3061Y1158
X3061Y4386
X3061Y6670
X3061Y9898
X3061Y12182
X3061Y15410
T10
X1211Y2457
X1211Y7969
X1211Y13481
X7116Y13481
X7116Y7969
X7116Y2457
M30
