G75*
G70*
%OFA0B0*%
%FSLAX24Y24*%
%IPPOS*%
%LPD*%
%AMOC8*
5,1,8,0,0,1.08239X$1,22.5*
%
%ADD10C,0.0210*%
%ADD11C,0.0160*%
%ADD12C,0.0120*%
%ADD13C,0.0150*%
%ADD14C,0.0170*%
%ADD15C,0.0080*%
%ADD16R,0.0012X0.0006*%
%ADD17R,0.0024X0.0006*%
%ADD18R,0.0035X0.0006*%
%ADD19R,0.0047X0.0006*%
%ADD20R,0.0059X0.0006*%
%ADD21R,0.0071X0.0006*%
%ADD22R,0.0083X0.0006*%
%ADD23R,0.0094X0.0006*%
%ADD24R,0.0106X0.0006*%
%ADD25R,0.0118X0.0006*%
%ADD26R,0.0130X0.0006*%
%ADD27R,0.0142X0.0006*%
%ADD28R,0.0154X0.0006*%
%ADD29R,0.0165X0.0006*%
%ADD30R,0.0177X0.0006*%
%ADD31R,0.0189X0.0006*%
%ADD32R,0.0201X0.0006*%
%ADD33R,0.0213X0.0006*%
%ADD34R,0.0224X0.0006*%
%ADD35R,0.0236X0.0006*%
%ADD36R,0.0248X0.0006*%
%ADD37R,0.0260X0.0006*%
%ADD38R,0.0272X0.0006*%
%ADD39R,0.0283X0.0006*%
%ADD40R,0.0289X0.0006*%
%ADD41R,0.5067X0.0006*%
%ADD42R,0.0219X0.0006*%
%ADD43R,0.0301X0.0006*%
%ADD44R,0.0331X0.0006*%
%ADD45R,0.0390X0.0006*%
%ADD46R,0.0449X0.0006*%
%ADD47R,0.0502X0.0006*%
%ADD48R,0.0543X0.0006*%
%ADD49R,0.0585X0.0006*%
%ADD50R,0.0626X0.0006*%
%ADD51R,0.0661X0.0006*%
%ADD52R,0.0691X0.0006*%
%ADD53R,0.0726X0.0006*%
%ADD54R,0.0750X0.0006*%
%ADD55R,0.0774X0.0006*%
%ADD56R,0.0803X0.0006*%
%ADD57R,0.0833X0.0006*%
%ADD58R,0.0856X0.0006*%
%ADD59R,0.0880X0.0006*%
%ADD60R,0.0904X0.0006*%
%ADD61R,0.0921X0.0006*%
%ADD62R,0.0945X0.0006*%
%ADD63R,0.0969X0.0006*%
%ADD64R,0.0986X0.0006*%
%ADD65R,0.1004X0.0006*%
%ADD66R,0.1022X0.0006*%
%ADD67R,0.1039X0.0006*%
%ADD68R,0.1063X0.0006*%
%ADD69R,0.1075X0.0006*%
%ADD70R,0.0455X0.0006*%
%ADD71R,0.0425X0.0006*%
%ADD72R,0.0402X0.0006*%
%ADD73R,0.0396X0.0006*%
%ADD74R,0.0384X0.0006*%
%ADD75R,0.0378X0.0006*%
%ADD76R,0.0372X0.0006*%
%ADD77R,0.0360X0.0006*%
%ADD78R,0.0354X0.0006*%
%ADD79R,0.0348X0.0006*%
%ADD80R,0.0343X0.0006*%
%ADD81R,0.0337X0.0006*%
%ADD82R,0.0325X0.0006*%
%ADD83R,0.0319X0.0006*%
%ADD84R,0.0313X0.0006*%
%ADD85R,0.0307X0.0006*%
%ADD86R,0.0295X0.0006*%
%ADD87R,0.0278X0.0006*%
%ADD88R,0.0266X0.0006*%
%ADD89R,0.0254X0.0006*%
%ADD90R,0.0242X0.0006*%
%ADD91R,0.0230X0.0006*%
%ADD92R,0.1104X0.0006*%
%ADD93R,0.1110X0.0006*%
%ADD94R,0.0596X0.0006*%
%ADD95R,0.0614X0.0006*%
%ADD96R,0.0638X0.0006*%
%ADD97R,0.0685X0.0006*%
%ADD98R,0.0703X0.0006*%
%ADD99R,0.0720X0.0006*%
%ADD100R,0.0738X0.0006*%
%ADD101R,0.0756X0.0006*%
%ADD102R,0.0791X0.0006*%
%ADD103R,0.0815X0.0006*%
%ADD104R,0.0827X0.0006*%
%ADD105R,0.0844X0.0006*%
%ADD106R,0.0862X0.0006*%
%ADD107R,0.0874X0.0006*%
%ADD108R,0.0886X0.0006*%
%ADD109R,0.0898X0.0006*%
%ADD110R,0.0407X0.0006*%
%ADD111R,0.0909X0.0006*%
%ADD112R,0.0419X0.0006*%
%ADD113R,0.0915X0.0006*%
%ADD114R,0.0431X0.0006*%
%ADD115R,0.0443X0.0006*%
%ADD116R,0.0467X0.0006*%
%ADD117R,0.0366X0.0006*%
%ADD118R,0.0478X0.0006*%
%ADD119R,0.0490X0.0006*%
%ADD120R,0.0514X0.0006*%
%ADD121R,0.0526X0.0006*%
%ADD122R,0.0537X0.0006*%
%ADD123R,0.0549X0.0006*%
%ADD124R,0.0561X0.0006*%
%ADD125R,0.0573X0.0006*%
%ADD126R,0.0437X0.0006*%
%ADD127R,0.0939X0.0006*%
%ADD128R,0.0933X0.0006*%
%ADD129R,0.0927X0.0006*%
%ADD130R,0.1069X0.0006*%
%ADD131R,0.1045X0.0006*%
%ADD132R,0.1033X0.0006*%
%ADD133R,0.1016X0.0006*%
%ADD134R,0.0998X0.0006*%
%ADD135R,0.0892X0.0006*%
%ADD136R,0.0980X0.0006*%
%ADD137R,0.0963X0.0006*%
%ADD138R,0.0868X0.0006*%
%ADD139R,0.0850X0.0006*%
%ADD140R,0.0821X0.0006*%
%ADD141R,0.0797X0.0006*%
%ADD142R,0.0809X0.0006*%
%ADD143R,0.0780X0.0006*%
%ADD144R,0.0715X0.0006*%
%ADD145R,0.0768X0.0006*%
%ADD146R,0.0656X0.0006*%
%ADD147R,0.0620X0.0006*%
%ADD148R,0.0709X0.0006*%
%ADD149R,0.0679X0.0006*%
%ADD150R,0.0496X0.0006*%
%ADD151R,0.0018X0.0006*%
%ADD152R,0.0030X0.0006*%
%ADD153R,0.0053X0.0006*%
%ADD154R,0.0077X0.0006*%
%ADD155R,0.0089X0.0006*%
%ADD156R,0.0100X0.0006*%
%ADD157R,0.0112X0.0006*%
%ADD158R,0.0136X0.0006*%
%ADD159R,0.0413X0.0006*%
%ADD160R,0.0461X0.0006*%
%ADD161R,0.0472X0.0006*%
%ADD162R,0.0484X0.0006*%
%ADD163R,0.0171X0.0006*%
D10*
X005637Y005785D02*
X005852Y005570D01*
X006282Y005570D01*
X006497Y005785D01*
X006497Y006646D02*
X006282Y006861D01*
X005852Y006861D01*
X005637Y006646D01*
X005637Y006431D01*
X005852Y006216D01*
X005637Y006000D01*
X005637Y005785D01*
X005852Y006216D02*
X006067Y006216D01*
X005637Y011082D02*
X006497Y011082D01*
X005637Y011943D01*
X005637Y012158D01*
X005852Y012373D01*
X006282Y012373D01*
X006497Y012158D01*
X006497Y016594D02*
X005637Y016594D01*
X006067Y016594D02*
X006067Y017885D01*
X006497Y017454D01*
X010438Y028208D02*
X010223Y028423D01*
X010223Y028638D01*
X010438Y028853D01*
X010654Y028853D01*
X010438Y028853D02*
X010223Y029068D01*
X010223Y029284D01*
X010438Y029499D01*
X010869Y029499D01*
X011084Y029284D01*
X011084Y028423D02*
X010869Y028208D01*
X010438Y028208D01*
X010223Y038050D02*
X011084Y038050D01*
X010223Y038911D01*
X010223Y039126D01*
X010438Y039341D01*
X010869Y039341D01*
X011084Y039126D01*
X011084Y047893D02*
X010223Y047893D01*
X010654Y047893D02*
X010654Y049184D01*
X011084Y048754D01*
D11*
X001543Y004481D02*
X000559Y004481D01*
X000559Y018851D01*
X001543Y018851D01*
X001874Y023713D02*
X006071Y025445D01*
X004331Y029630D01*
X002862Y028634D02*
X004968Y026528D01*
X004516Y025445D02*
X001531Y025445D01*
X001870Y027178D02*
X006071Y025445D01*
X007811Y029650D01*
X009260Y028654D02*
X007153Y026548D01*
X007626Y025445D02*
X010610Y025445D01*
X010264Y023701D02*
X006071Y025445D01*
X010264Y027189D01*
X007153Y024343D02*
X009260Y022237D01*
X010598Y018851D02*
X011583Y018851D01*
X011583Y004481D01*
X010598Y004481D01*
X006071Y027000D02*
X006071Y030260D01*
X009260Y032079D02*
X007153Y034185D01*
X007626Y035288D02*
X010610Y035288D01*
X010264Y037032D02*
X006071Y035288D01*
X004331Y039473D01*
X002862Y038477D02*
X004968Y036370D01*
X004516Y035288D02*
X001531Y035288D01*
X001870Y037020D02*
X006071Y035288D01*
X007811Y039493D01*
X009260Y038496D02*
X007153Y036390D01*
X006071Y036843D02*
X006071Y040103D01*
X009260Y041922D02*
X007153Y044028D01*
X007626Y045130D02*
X010610Y045130D01*
X010264Y043386D02*
X006071Y045130D01*
X001874Y043398D01*
X001531Y045130D02*
X004516Y045130D01*
X004968Y044048D02*
X002862Y041941D01*
X006071Y045130D02*
X001870Y046863D01*
X002862Y048319D02*
X004968Y046213D01*
X006297Y044579D02*
X004557Y048764D01*
X007575Y048764D02*
X005835Y044559D01*
X006071Y045130D02*
X010264Y046874D01*
X009260Y048339D02*
X007153Y046233D01*
X006071Y046685D02*
X006071Y048764D01*
X006071Y035288D02*
X001874Y033556D01*
X002862Y032099D02*
X004968Y034205D01*
X006071Y035288D02*
X010264Y033544D01*
X004968Y024363D02*
X002862Y022256D01*
D12*
X002898Y023374D02*
X002900Y023389D01*
X002905Y023402D01*
X002914Y023414D01*
X002925Y023424D01*
X002939Y023430D01*
X002953Y023433D01*
X002968Y023432D01*
X002982Y023427D01*
X002995Y023419D01*
X003005Y023409D01*
X003012Y023396D01*
X003016Y023381D01*
X003016Y023367D01*
X003012Y023352D01*
X003005Y023339D01*
X002995Y023329D01*
X002982Y023321D01*
X002968Y023316D01*
X002953Y023315D01*
X002939Y023318D01*
X002925Y023324D01*
X002914Y023334D01*
X002905Y023346D01*
X002900Y023359D01*
X002898Y023374D01*
X002342Y024717D02*
X002344Y024732D01*
X002349Y024745D01*
X002358Y024757D01*
X002369Y024767D01*
X002383Y024773D01*
X002397Y024776D01*
X002412Y024775D01*
X002426Y024770D01*
X002439Y024762D01*
X002449Y024752D01*
X002456Y024739D01*
X002460Y024724D01*
X002460Y024710D01*
X002456Y024695D01*
X002449Y024682D01*
X002439Y024672D01*
X002426Y024664D01*
X002412Y024659D01*
X002397Y024658D01*
X002383Y024661D01*
X002369Y024667D01*
X002358Y024677D01*
X002349Y024689D01*
X002344Y024702D01*
X002342Y024717D01*
X002342Y026174D02*
X002344Y026189D01*
X002349Y026202D01*
X002358Y026214D01*
X002369Y026224D01*
X002383Y026230D01*
X002397Y026233D01*
X002412Y026232D01*
X002426Y026227D01*
X002439Y026219D01*
X002449Y026209D01*
X002456Y026196D01*
X002460Y026181D01*
X002460Y026167D01*
X002456Y026152D01*
X002449Y026139D01*
X002439Y026129D01*
X002426Y026121D01*
X002412Y026116D01*
X002397Y026115D01*
X002383Y026118D01*
X002369Y026124D01*
X002358Y026134D01*
X002349Y026146D01*
X002344Y026159D01*
X002342Y026174D01*
X002898Y027516D02*
X002900Y027531D01*
X002905Y027544D01*
X002914Y027556D01*
X002925Y027566D01*
X002939Y027572D01*
X002953Y027575D01*
X002968Y027574D01*
X002982Y027569D01*
X002995Y027561D01*
X003005Y027551D01*
X003012Y027538D01*
X003016Y027523D01*
X003016Y027509D01*
X003012Y027494D01*
X003005Y027481D01*
X002995Y027471D01*
X002982Y027463D01*
X002968Y027458D01*
X002953Y027457D01*
X002939Y027460D01*
X002925Y027466D01*
X002914Y027476D01*
X002905Y027488D01*
X002900Y027501D01*
X002898Y027516D01*
X003925Y028552D02*
X003927Y028567D01*
X003932Y028580D01*
X003941Y028592D01*
X003952Y028602D01*
X003966Y028608D01*
X003980Y028611D01*
X003995Y028610D01*
X004009Y028605D01*
X004022Y028597D01*
X004032Y028587D01*
X004039Y028574D01*
X004043Y028559D01*
X004043Y028545D01*
X004039Y028530D01*
X004032Y028517D01*
X004022Y028507D01*
X004009Y028499D01*
X003995Y028494D01*
X003980Y028493D01*
X003966Y028496D01*
X003952Y028502D01*
X003941Y028512D01*
X003932Y028524D01*
X003927Y028537D01*
X003925Y028552D01*
X002898Y033217D02*
X002900Y033232D01*
X002905Y033245D01*
X002914Y033257D01*
X002925Y033267D01*
X002939Y033273D01*
X002953Y033276D01*
X002968Y033275D01*
X002982Y033270D01*
X002995Y033262D01*
X003005Y033252D01*
X003012Y033239D01*
X003016Y033224D01*
X003016Y033210D01*
X003012Y033195D01*
X003005Y033182D01*
X002995Y033172D01*
X002982Y033164D01*
X002968Y033159D01*
X002953Y033158D01*
X002939Y033161D01*
X002925Y033167D01*
X002914Y033177D01*
X002905Y033189D01*
X002900Y033202D01*
X002898Y033217D01*
X002342Y034559D02*
X002344Y034574D01*
X002349Y034587D01*
X002358Y034599D01*
X002369Y034609D01*
X002383Y034615D01*
X002397Y034618D01*
X002412Y034617D01*
X002426Y034612D01*
X002439Y034604D01*
X002449Y034594D01*
X002456Y034581D01*
X002460Y034566D01*
X002460Y034552D01*
X002456Y034537D01*
X002449Y034524D01*
X002439Y034514D01*
X002426Y034506D01*
X002412Y034501D01*
X002397Y034500D01*
X002383Y034503D01*
X002369Y034509D01*
X002358Y034519D01*
X002349Y034531D01*
X002344Y034544D01*
X002342Y034559D01*
X002342Y036016D02*
X002344Y036031D01*
X002349Y036044D01*
X002358Y036056D01*
X002369Y036066D01*
X002383Y036072D01*
X002397Y036075D01*
X002412Y036074D01*
X002426Y036069D01*
X002439Y036061D01*
X002449Y036051D01*
X002456Y036038D01*
X002460Y036023D01*
X002460Y036009D01*
X002456Y035994D01*
X002449Y035981D01*
X002439Y035971D01*
X002426Y035963D01*
X002412Y035958D01*
X002397Y035957D01*
X002383Y035960D01*
X002369Y035966D01*
X002358Y035976D01*
X002349Y035988D01*
X002344Y036001D01*
X002342Y036016D01*
X002898Y037359D02*
X002900Y037374D01*
X002905Y037387D01*
X002914Y037399D01*
X002925Y037409D01*
X002939Y037415D01*
X002953Y037418D01*
X002968Y037417D01*
X002982Y037412D01*
X002995Y037404D01*
X003005Y037394D01*
X003012Y037381D01*
X003016Y037366D01*
X003016Y037352D01*
X003012Y037337D01*
X003005Y037324D01*
X002995Y037314D01*
X002982Y037306D01*
X002968Y037301D01*
X002953Y037300D01*
X002939Y037303D01*
X002925Y037309D01*
X002914Y037319D01*
X002905Y037331D01*
X002900Y037344D01*
X002898Y037359D01*
X003925Y038394D02*
X003927Y038409D01*
X003932Y038422D01*
X003941Y038434D01*
X003952Y038444D01*
X003966Y038450D01*
X003980Y038453D01*
X003995Y038452D01*
X004009Y038447D01*
X004022Y038439D01*
X004032Y038429D01*
X004039Y038416D01*
X004043Y038401D01*
X004043Y038387D01*
X004039Y038372D01*
X004032Y038359D01*
X004022Y038349D01*
X004009Y038341D01*
X003995Y038336D01*
X003980Y038335D01*
X003966Y038338D01*
X003952Y038344D01*
X003941Y038354D01*
X003932Y038366D01*
X003927Y038379D01*
X003925Y038394D01*
X002898Y043059D02*
X002900Y043074D01*
X002905Y043087D01*
X002914Y043099D01*
X002925Y043109D01*
X002939Y043115D01*
X002953Y043118D01*
X002968Y043117D01*
X002982Y043112D01*
X002995Y043104D01*
X003005Y043094D01*
X003012Y043081D01*
X003016Y043066D01*
X003016Y043052D01*
X003012Y043037D01*
X003005Y043024D01*
X002995Y043014D01*
X002982Y043006D01*
X002968Y043001D01*
X002953Y043000D01*
X002939Y043003D01*
X002925Y043009D01*
X002914Y043019D01*
X002905Y043031D01*
X002900Y043044D01*
X002898Y043059D01*
X002342Y044402D02*
X002344Y044417D01*
X002349Y044430D01*
X002358Y044442D01*
X002369Y044452D01*
X002383Y044458D01*
X002397Y044461D01*
X002412Y044460D01*
X002426Y044455D01*
X002439Y044447D01*
X002449Y044437D01*
X002456Y044424D01*
X002460Y044409D01*
X002460Y044395D01*
X002456Y044380D01*
X002449Y044367D01*
X002439Y044357D01*
X002426Y044349D01*
X002412Y044344D01*
X002397Y044343D01*
X002383Y044346D01*
X002369Y044352D01*
X002358Y044362D01*
X002349Y044374D01*
X002344Y044387D01*
X002342Y044402D01*
X002342Y045859D02*
X002344Y045874D01*
X002349Y045887D01*
X002358Y045899D01*
X002369Y045909D01*
X002383Y045915D01*
X002397Y045918D01*
X002412Y045917D01*
X002426Y045912D01*
X002439Y045904D01*
X002449Y045894D01*
X002456Y045881D01*
X002460Y045866D01*
X002460Y045852D01*
X002456Y045837D01*
X002449Y045824D01*
X002439Y045814D01*
X002426Y045806D01*
X002412Y045801D01*
X002397Y045800D01*
X002383Y045803D01*
X002369Y045809D01*
X002358Y045819D01*
X002349Y045831D01*
X002344Y045844D01*
X002342Y045859D01*
X002898Y047201D02*
X002900Y047216D01*
X002905Y047229D01*
X002914Y047241D01*
X002925Y047251D01*
X002939Y047257D01*
X002953Y047260D01*
X002968Y047259D01*
X002982Y047254D01*
X002995Y047246D01*
X003005Y047236D01*
X003012Y047223D01*
X003016Y047208D01*
X003016Y047194D01*
X003012Y047179D01*
X003005Y047166D01*
X002995Y047156D01*
X002982Y047148D01*
X002968Y047143D01*
X002953Y047142D01*
X002939Y047145D01*
X002925Y047151D01*
X002914Y047161D01*
X002905Y047173D01*
X002900Y047186D01*
X002898Y047201D01*
X003925Y048237D02*
X003927Y048252D01*
X003932Y048265D01*
X003941Y048277D01*
X003952Y048287D01*
X003966Y048293D01*
X003980Y048296D01*
X003995Y048295D01*
X004009Y048290D01*
X004022Y048282D01*
X004032Y048272D01*
X004039Y048259D01*
X004043Y048244D01*
X004043Y048230D01*
X004039Y048215D01*
X004032Y048202D01*
X004022Y048192D01*
X004009Y048184D01*
X003995Y048179D01*
X003980Y048178D01*
X003966Y048181D01*
X003952Y048187D01*
X003941Y048197D01*
X003932Y048209D01*
X003927Y048222D01*
X003925Y048237D01*
X005279Y048800D02*
X005281Y048815D01*
X005286Y048828D01*
X005295Y048840D01*
X005306Y048850D01*
X005320Y048856D01*
X005334Y048859D01*
X005349Y048858D01*
X005363Y048853D01*
X005376Y048845D01*
X005386Y048835D01*
X005393Y048822D01*
X005397Y048807D01*
X005397Y048793D01*
X005393Y048778D01*
X005386Y048765D01*
X005376Y048755D01*
X005363Y048747D01*
X005349Y048742D01*
X005334Y048741D01*
X005320Y048744D01*
X005306Y048750D01*
X005295Y048760D01*
X005286Y048772D01*
X005281Y048785D01*
X005279Y048800D01*
X006740Y048800D02*
X006742Y048815D01*
X006747Y048828D01*
X006756Y048840D01*
X006767Y048850D01*
X006781Y048856D01*
X006795Y048859D01*
X006810Y048858D01*
X006824Y048853D01*
X006837Y048845D01*
X006847Y048835D01*
X006854Y048822D01*
X006858Y048807D01*
X006858Y048793D01*
X006854Y048778D01*
X006847Y048765D01*
X006837Y048755D01*
X006824Y048747D01*
X006810Y048742D01*
X006795Y048741D01*
X006781Y048744D01*
X006767Y048750D01*
X006756Y048760D01*
X006747Y048772D01*
X006742Y048785D01*
X006740Y048800D01*
X008083Y048244D02*
X008085Y048259D01*
X008090Y048272D01*
X008099Y048284D01*
X008110Y048294D01*
X008124Y048300D01*
X008138Y048303D01*
X008153Y048302D01*
X008167Y048297D01*
X008180Y048289D01*
X008190Y048279D01*
X008197Y048266D01*
X008201Y048251D01*
X008201Y048237D01*
X008197Y048222D01*
X008190Y048209D01*
X008180Y048199D01*
X008167Y048191D01*
X008153Y048186D01*
X008138Y048185D01*
X008124Y048188D01*
X008110Y048194D01*
X008099Y048204D01*
X008090Y048216D01*
X008085Y048229D01*
X008083Y048244D01*
X009118Y047221D02*
X009120Y047236D01*
X009125Y047249D01*
X009134Y047261D01*
X009145Y047271D01*
X009159Y047277D01*
X009173Y047280D01*
X009188Y047279D01*
X009202Y047274D01*
X009215Y047266D01*
X009225Y047256D01*
X009232Y047243D01*
X009236Y047228D01*
X009236Y047214D01*
X009232Y047199D01*
X009225Y047186D01*
X009215Y047176D01*
X009202Y047168D01*
X009188Y047163D01*
X009173Y047162D01*
X009159Y047165D01*
X009145Y047171D01*
X009134Y047181D01*
X009125Y047193D01*
X009120Y047206D01*
X009118Y047221D01*
X009681Y045863D02*
X009683Y045878D01*
X009688Y045891D01*
X009697Y045903D01*
X009708Y045913D01*
X009722Y045919D01*
X009736Y045922D01*
X009751Y045921D01*
X009765Y045916D01*
X009778Y045908D01*
X009788Y045898D01*
X009795Y045885D01*
X009799Y045870D01*
X009799Y045856D01*
X009795Y045841D01*
X009788Y045828D01*
X009778Y045818D01*
X009765Y045810D01*
X009751Y045805D01*
X009736Y045804D01*
X009722Y045807D01*
X009708Y045813D01*
X009697Y045823D01*
X009688Y045835D01*
X009683Y045848D01*
X009681Y045863D01*
X009677Y044398D02*
X009679Y044413D01*
X009684Y044426D01*
X009693Y044438D01*
X009704Y044448D01*
X009718Y044454D01*
X009732Y044457D01*
X009747Y044456D01*
X009761Y044451D01*
X009774Y044443D01*
X009784Y044433D01*
X009791Y044420D01*
X009795Y044405D01*
X009795Y044391D01*
X009791Y044376D01*
X009784Y044363D01*
X009774Y044353D01*
X009761Y044345D01*
X009747Y044340D01*
X009732Y044339D01*
X009718Y044342D01*
X009704Y044348D01*
X009693Y044358D01*
X009684Y044370D01*
X009679Y044383D01*
X009677Y044398D01*
X009114Y043044D02*
X009116Y043059D01*
X009121Y043072D01*
X009130Y043084D01*
X009141Y043094D01*
X009155Y043100D01*
X009169Y043103D01*
X009184Y043102D01*
X009198Y043097D01*
X009211Y043089D01*
X009221Y043079D01*
X009228Y043066D01*
X009232Y043051D01*
X009232Y043037D01*
X009228Y043022D01*
X009221Y043009D01*
X009211Y042999D01*
X009198Y042991D01*
X009184Y042986D01*
X009169Y042985D01*
X009155Y042988D01*
X009141Y042994D01*
X009130Y043004D01*
X009121Y043016D01*
X009116Y043029D01*
X009114Y043044D01*
X008083Y038402D02*
X008085Y038417D01*
X008090Y038430D01*
X008099Y038442D01*
X008110Y038452D01*
X008124Y038458D01*
X008138Y038461D01*
X008153Y038460D01*
X008167Y038455D01*
X008180Y038447D01*
X008190Y038437D01*
X008197Y038424D01*
X008201Y038409D01*
X008201Y038395D01*
X008197Y038380D01*
X008190Y038367D01*
X008180Y038357D01*
X008167Y038349D01*
X008153Y038344D01*
X008138Y038343D01*
X008124Y038346D01*
X008110Y038352D01*
X008099Y038362D01*
X008090Y038374D01*
X008085Y038387D01*
X008083Y038402D01*
X009118Y037378D02*
X009120Y037393D01*
X009125Y037406D01*
X009134Y037418D01*
X009145Y037428D01*
X009159Y037434D01*
X009173Y037437D01*
X009188Y037436D01*
X009202Y037431D01*
X009215Y037423D01*
X009225Y037413D01*
X009232Y037400D01*
X009236Y037385D01*
X009236Y037371D01*
X009232Y037356D01*
X009225Y037343D01*
X009215Y037333D01*
X009202Y037325D01*
X009188Y037320D01*
X009173Y037319D01*
X009159Y037322D01*
X009145Y037328D01*
X009134Y037338D01*
X009125Y037350D01*
X009120Y037363D01*
X009118Y037378D01*
X009681Y036020D02*
X009683Y036035D01*
X009688Y036048D01*
X009697Y036060D01*
X009708Y036070D01*
X009722Y036076D01*
X009736Y036079D01*
X009751Y036078D01*
X009765Y036073D01*
X009778Y036065D01*
X009788Y036055D01*
X009795Y036042D01*
X009799Y036027D01*
X009799Y036013D01*
X009795Y035998D01*
X009788Y035985D01*
X009778Y035975D01*
X009765Y035967D01*
X009751Y035962D01*
X009736Y035961D01*
X009722Y035964D01*
X009708Y035970D01*
X009697Y035980D01*
X009688Y035992D01*
X009683Y036005D01*
X009681Y036020D01*
X009677Y034556D02*
X009679Y034571D01*
X009684Y034584D01*
X009693Y034596D01*
X009704Y034606D01*
X009718Y034612D01*
X009732Y034615D01*
X009747Y034614D01*
X009761Y034609D01*
X009774Y034601D01*
X009784Y034591D01*
X009791Y034578D01*
X009795Y034563D01*
X009795Y034549D01*
X009791Y034534D01*
X009784Y034521D01*
X009774Y034511D01*
X009761Y034503D01*
X009747Y034498D01*
X009732Y034497D01*
X009718Y034500D01*
X009704Y034506D01*
X009693Y034516D01*
X009684Y034528D01*
X009679Y034541D01*
X009677Y034556D01*
X009114Y033201D02*
X009116Y033216D01*
X009121Y033229D01*
X009130Y033241D01*
X009141Y033251D01*
X009155Y033257D01*
X009169Y033260D01*
X009184Y033259D01*
X009198Y033254D01*
X009211Y033246D01*
X009221Y033236D01*
X009228Y033223D01*
X009232Y033208D01*
X009232Y033194D01*
X009228Y033179D01*
X009221Y033166D01*
X009211Y033156D01*
X009198Y033148D01*
X009184Y033143D01*
X009169Y033142D01*
X009155Y033145D01*
X009141Y033151D01*
X009130Y033161D01*
X009121Y033173D01*
X009116Y033186D01*
X009114Y033201D01*
X008083Y028559D02*
X008085Y028574D01*
X008090Y028587D01*
X008099Y028599D01*
X008110Y028609D01*
X008124Y028615D01*
X008138Y028618D01*
X008153Y028617D01*
X008167Y028612D01*
X008180Y028604D01*
X008190Y028594D01*
X008197Y028581D01*
X008201Y028566D01*
X008201Y028552D01*
X008197Y028537D01*
X008190Y028524D01*
X008180Y028514D01*
X008167Y028506D01*
X008153Y028501D01*
X008138Y028500D01*
X008124Y028503D01*
X008110Y028509D01*
X008099Y028519D01*
X008090Y028531D01*
X008085Y028544D01*
X008083Y028559D01*
X009118Y027536D02*
X009120Y027551D01*
X009125Y027564D01*
X009134Y027576D01*
X009145Y027586D01*
X009159Y027592D01*
X009173Y027595D01*
X009188Y027594D01*
X009202Y027589D01*
X009215Y027581D01*
X009225Y027571D01*
X009232Y027558D01*
X009236Y027543D01*
X009236Y027529D01*
X009232Y027514D01*
X009225Y027501D01*
X009215Y027491D01*
X009202Y027483D01*
X009188Y027478D01*
X009173Y027477D01*
X009159Y027480D01*
X009145Y027486D01*
X009134Y027496D01*
X009125Y027508D01*
X009120Y027521D01*
X009118Y027536D01*
X009681Y026178D02*
X009683Y026193D01*
X009688Y026206D01*
X009697Y026218D01*
X009708Y026228D01*
X009722Y026234D01*
X009736Y026237D01*
X009751Y026236D01*
X009765Y026231D01*
X009778Y026223D01*
X009788Y026213D01*
X009795Y026200D01*
X009799Y026185D01*
X009799Y026171D01*
X009795Y026156D01*
X009788Y026143D01*
X009778Y026133D01*
X009765Y026125D01*
X009751Y026120D01*
X009736Y026119D01*
X009722Y026122D01*
X009708Y026128D01*
X009697Y026138D01*
X009688Y026150D01*
X009683Y026163D01*
X009681Y026178D01*
X009677Y024713D02*
X009679Y024728D01*
X009684Y024741D01*
X009693Y024753D01*
X009704Y024763D01*
X009718Y024769D01*
X009732Y024772D01*
X009747Y024771D01*
X009761Y024766D01*
X009774Y024758D01*
X009784Y024748D01*
X009791Y024735D01*
X009795Y024720D01*
X009795Y024706D01*
X009791Y024691D01*
X009784Y024678D01*
X009774Y024668D01*
X009761Y024660D01*
X009747Y024655D01*
X009732Y024654D01*
X009718Y024657D01*
X009704Y024663D01*
X009693Y024673D01*
X009684Y024685D01*
X009679Y024698D01*
X009677Y024713D01*
X009114Y023359D02*
X009116Y023374D01*
X009121Y023387D01*
X009130Y023399D01*
X009141Y023409D01*
X009155Y023415D01*
X009169Y023418D01*
X009184Y023417D01*
X009198Y023412D01*
X009211Y023404D01*
X009221Y023394D01*
X009228Y023381D01*
X009232Y023366D01*
X009232Y023352D01*
X009228Y023337D01*
X009221Y023324D01*
X009211Y023314D01*
X009198Y023306D01*
X009184Y023301D01*
X009169Y023300D01*
X009155Y023303D01*
X009141Y023309D01*
X009130Y023319D01*
X009121Y023331D01*
X009116Y023344D01*
X009114Y023359D01*
X006740Y029115D02*
X006742Y029130D01*
X006747Y029143D01*
X006756Y029155D01*
X006767Y029165D01*
X006781Y029171D01*
X006795Y029174D01*
X006810Y029173D01*
X006824Y029168D01*
X006837Y029160D01*
X006847Y029150D01*
X006854Y029137D01*
X006858Y029122D01*
X006858Y029108D01*
X006854Y029093D01*
X006847Y029080D01*
X006837Y029070D01*
X006824Y029062D01*
X006810Y029057D01*
X006795Y029056D01*
X006781Y029059D01*
X006767Y029065D01*
X006756Y029075D01*
X006747Y029087D01*
X006742Y029100D01*
X006740Y029115D01*
X005279Y029115D02*
X005281Y029130D01*
X005286Y029143D01*
X005295Y029155D01*
X005306Y029165D01*
X005320Y029171D01*
X005334Y029174D01*
X005349Y029173D01*
X005363Y029168D01*
X005376Y029160D01*
X005386Y029150D01*
X005393Y029137D01*
X005397Y029122D01*
X005397Y029108D01*
X005393Y029093D01*
X005386Y029080D01*
X005376Y029070D01*
X005363Y029062D01*
X005349Y029057D01*
X005334Y029056D01*
X005320Y029059D01*
X005306Y029065D01*
X005295Y029075D01*
X005286Y029087D01*
X005281Y029100D01*
X005279Y029115D01*
X005279Y038957D02*
X005281Y038972D01*
X005286Y038985D01*
X005295Y038997D01*
X005306Y039007D01*
X005320Y039013D01*
X005334Y039016D01*
X005349Y039015D01*
X005363Y039010D01*
X005376Y039002D01*
X005386Y038992D01*
X005393Y038979D01*
X005397Y038964D01*
X005397Y038950D01*
X005393Y038935D01*
X005386Y038922D01*
X005376Y038912D01*
X005363Y038904D01*
X005349Y038899D01*
X005334Y038898D01*
X005320Y038901D01*
X005306Y038907D01*
X005295Y038917D01*
X005286Y038929D01*
X005281Y038942D01*
X005279Y038957D01*
X006740Y038957D02*
X006742Y038972D01*
X006747Y038985D01*
X006756Y038997D01*
X006767Y039007D01*
X006781Y039013D01*
X006795Y039016D01*
X006810Y039015D01*
X006824Y039010D01*
X006837Y039002D01*
X006847Y038992D01*
X006854Y038979D01*
X006858Y038964D01*
X006858Y038950D01*
X006854Y038935D01*
X006847Y038922D01*
X006837Y038912D01*
X006824Y038904D01*
X006810Y038899D01*
X006795Y038898D01*
X006781Y038901D01*
X006767Y038907D01*
X006756Y038917D01*
X006747Y038929D01*
X006742Y038942D01*
X006740Y038957D01*
D13*
X009503Y041241D02*
X010071Y041241D01*
X010071Y031398D02*
X009503Y031398D01*
X009503Y021556D02*
X010071Y021556D01*
X002708Y021556D02*
X002141Y021556D01*
X002425Y021839D02*
X002425Y021272D01*
X002425Y031115D02*
X002425Y031682D01*
X002708Y031398D02*
X002141Y031398D01*
X002425Y040957D02*
X002425Y041524D01*
X002708Y041241D02*
X002141Y041241D01*
D14*
X002221Y049113D02*
X001884Y049113D01*
X002053Y049113D02*
X002053Y050125D01*
X002221Y050125D02*
X001884Y050125D01*
X001496Y050125D02*
X000822Y049113D01*
X001496Y049113D02*
X000822Y050125D01*
X002634Y050125D02*
X002634Y049113D01*
X002971Y049788D02*
X002634Y050125D01*
X002971Y049788D02*
X003309Y050125D01*
X003309Y049113D01*
X003722Y050125D02*
X004396Y050125D01*
X004059Y050125D02*
X004059Y049113D01*
X004809Y049113D02*
X005147Y049450D01*
X004978Y049450D02*
X005484Y049450D01*
X005484Y049113D02*
X005484Y050125D01*
X004978Y050125D01*
X004809Y049956D01*
X004809Y049619D01*
X004978Y049450D01*
X005897Y049113D02*
X006571Y049113D01*
X006571Y050125D01*
X005897Y050125D01*
X006234Y049619D02*
X006571Y049619D01*
X006984Y049450D02*
X006984Y050125D01*
X006984Y049450D02*
X007322Y049113D01*
X007659Y049450D01*
X007659Y050125D01*
D15*
X011129Y047099D02*
X011129Y046685D01*
X011232Y046582D01*
X011439Y046582D01*
X011543Y046685D01*
X011543Y047099D01*
X011439Y047202D01*
X011232Y047202D01*
X011129Y047099D01*
X011129Y046152D02*
X011543Y046152D01*
X011543Y045532D01*
X011543Y045842D02*
X011336Y045842D01*
X011543Y045102D02*
X011129Y045102D01*
X011336Y044792D02*
X011543Y044792D01*
X011543Y044482D02*
X011543Y045102D01*
X011439Y044052D02*
X011543Y043949D01*
X011543Y043845D01*
X011439Y043742D01*
X011232Y043742D01*
X011129Y043639D01*
X011129Y043535D01*
X011232Y043432D01*
X011439Y043432D01*
X011543Y043535D01*
X011439Y044052D02*
X011232Y044052D01*
X011129Y043949D01*
X011129Y043002D02*
X011543Y043002D01*
X011543Y042382D01*
X011129Y042382D01*
X011129Y041952D02*
X011543Y041952D01*
X011543Y042692D02*
X011336Y042692D01*
X011336Y041952D02*
X011336Y041332D01*
X010735Y020200D02*
X010529Y020200D01*
X010632Y020200D02*
X010632Y019580D01*
X010735Y019580D02*
X010529Y019580D01*
X010306Y019580D02*
X010306Y020200D01*
X009892Y019580D01*
X009892Y020200D01*
X009661Y020200D02*
X009661Y019580D01*
X009661Y019787D02*
X009351Y019787D01*
X009248Y019890D01*
X009248Y020097D01*
X009351Y020200D01*
X009661Y020200D01*
X009017Y020200D02*
X009017Y019683D01*
X008913Y019580D01*
X008706Y019580D01*
X008603Y019683D01*
X008603Y020200D01*
X008372Y020200D02*
X007958Y020200D01*
X008165Y020200D02*
X008165Y019580D01*
X007728Y019683D02*
X007624Y019580D01*
X007417Y019580D01*
X007314Y019683D01*
X007314Y019787D01*
X007417Y019890D01*
X007624Y019890D01*
X007728Y019993D01*
X007728Y020097D01*
X007624Y020200D01*
X007417Y020200D01*
X007314Y020097D01*
X005263Y020097D02*
X005263Y019683D01*
X005160Y019580D01*
X004953Y019580D01*
X004849Y019683D01*
X004849Y020097D01*
X004953Y020200D01*
X005160Y020200D01*
X005263Y020097D01*
X004618Y020200D02*
X004618Y019683D01*
X004515Y019580D01*
X004308Y019580D01*
X004205Y019683D01*
X004205Y020200D01*
X003974Y020200D02*
X003560Y020200D01*
X003767Y020200D02*
X003767Y019580D01*
X003329Y019580D02*
X003329Y020200D01*
X003019Y020200D01*
X002916Y020097D01*
X002916Y019890D01*
X003019Y019787D01*
X003329Y019787D01*
X002685Y019683D02*
X002581Y019580D01*
X002375Y019580D01*
X002271Y019683D01*
X002271Y020200D01*
X002040Y020200D02*
X001627Y020200D01*
X001833Y020200D02*
X001833Y019580D01*
X001396Y019683D02*
X001292Y019580D01*
X001085Y019580D01*
X000982Y019683D01*
X000982Y019787D01*
X001085Y019890D01*
X001292Y019890D01*
X001396Y019993D01*
X001396Y020097D01*
X001292Y020200D01*
X001085Y020200D01*
X000982Y020097D01*
X002685Y020200D02*
X002685Y019683D01*
X002791Y009177D02*
X002377Y008556D01*
X002791Y008556D02*
X002377Y009177D01*
X003014Y009177D02*
X003221Y009177D01*
X003117Y009177D02*
X003117Y008556D01*
X003014Y008556D02*
X003221Y008556D01*
X003452Y008556D02*
X003452Y009177D01*
X003659Y008970D01*
X003865Y009177D01*
X003865Y008556D01*
D16*
X002712Y003327D03*
X002954Y002737D03*
X005523Y000369D03*
D17*
X005523Y000374D03*
X002717Y003321D03*
D18*
X002723Y003315D03*
X002960Y002754D03*
X005523Y000380D03*
D19*
X005523Y000386D03*
X002960Y002760D03*
X002735Y003309D03*
D20*
X002741Y003304D03*
X002965Y002772D03*
X005523Y000392D03*
D21*
X005523Y000398D03*
X002965Y002778D03*
X002753Y003298D03*
D22*
X002759Y003292D03*
X005523Y000404D03*
D23*
X005523Y000410D03*
X002971Y002796D03*
D24*
X002776Y003280D03*
X005523Y000416D03*
D25*
X005523Y000422D03*
X002977Y002813D03*
D26*
X002977Y002819D03*
X002794Y003268D03*
X005523Y000428D03*
D27*
X005523Y000433D03*
X002983Y002831D03*
X002800Y003262D03*
D28*
X002812Y003256D03*
X005523Y000439D03*
D29*
X005523Y000445D03*
X002818Y003250D03*
D30*
X005523Y000451D03*
D31*
X005523Y000457D03*
X002836Y003239D03*
D32*
X002841Y003233D03*
X001737Y002477D03*
X001737Y002471D03*
X001737Y002465D03*
X001737Y002459D03*
X001737Y002453D03*
X001737Y002447D03*
X001737Y002441D03*
X001737Y002435D03*
X001737Y002430D03*
X001737Y002424D03*
X001737Y002418D03*
X001737Y002412D03*
X001737Y002406D03*
X001737Y002400D03*
X001737Y002394D03*
X001737Y002388D03*
X001737Y002382D03*
X001737Y002376D03*
X001737Y002370D03*
X001737Y002365D03*
X001737Y002359D03*
X001737Y002353D03*
X001737Y002347D03*
X001737Y002341D03*
X001737Y002335D03*
X001737Y002329D03*
X001737Y002323D03*
X001737Y002317D03*
X001737Y002311D03*
X001737Y002306D03*
X001737Y002300D03*
X001737Y002294D03*
X001737Y002288D03*
X001737Y002282D03*
X001737Y002276D03*
X001737Y002270D03*
X001737Y002264D03*
X001737Y002258D03*
X001737Y002252D03*
X001737Y002246D03*
X001737Y002241D03*
X001737Y002235D03*
X001737Y002229D03*
X001737Y002223D03*
X001737Y002217D03*
X001737Y002211D03*
X001737Y002205D03*
X001737Y002199D03*
X001737Y002193D03*
X001737Y002187D03*
X001737Y002181D03*
X001737Y002176D03*
X001737Y002170D03*
X001737Y002164D03*
X001737Y002158D03*
X001737Y002152D03*
X001737Y002146D03*
X001737Y002140D03*
X001737Y002134D03*
X001737Y002128D03*
X001737Y002122D03*
X001737Y002117D03*
X001737Y002111D03*
X001737Y002105D03*
X001737Y002099D03*
X001737Y002093D03*
X001737Y002087D03*
X001737Y002081D03*
X001737Y002075D03*
X001737Y002069D03*
X001737Y002063D03*
X001737Y002057D03*
X001737Y002052D03*
X001737Y002046D03*
X001737Y002040D03*
X001737Y002034D03*
X001737Y002028D03*
X001737Y002022D03*
X001737Y002016D03*
X001737Y002010D03*
X001737Y002004D03*
X001737Y001998D03*
X001737Y001993D03*
X001737Y001987D03*
X001737Y001981D03*
X001737Y001975D03*
X001737Y001969D03*
X001737Y001963D03*
X001737Y001957D03*
X001737Y001951D03*
X001737Y001945D03*
X001737Y001939D03*
X001737Y001933D03*
X001737Y001928D03*
X001737Y001922D03*
X001737Y001916D03*
X001737Y001910D03*
X001737Y001904D03*
X001737Y001898D03*
X001737Y001892D03*
X001737Y001886D03*
X001737Y001880D03*
X001737Y001874D03*
X001737Y001869D03*
X001737Y001697D03*
X001737Y001691D03*
X001737Y001685D03*
X001737Y001680D03*
X001737Y001674D03*
X001737Y001668D03*
X001737Y001662D03*
X001737Y001656D03*
X001737Y001650D03*
X001737Y001644D03*
X001737Y001638D03*
X001737Y001632D03*
X001737Y001626D03*
X001737Y001620D03*
X001737Y001615D03*
X001737Y001609D03*
X001737Y001603D03*
X001737Y001597D03*
X001737Y001591D03*
X001737Y001585D03*
X001737Y001579D03*
X001737Y001573D03*
X001737Y001567D03*
X001737Y001561D03*
X001737Y001556D03*
X001737Y001550D03*
X001737Y001544D03*
X001737Y001538D03*
X001737Y001532D03*
X001737Y001526D03*
X001737Y001520D03*
X001737Y001514D03*
X001737Y001508D03*
X001737Y001502D03*
X001737Y001496D03*
X001737Y001491D03*
X001737Y001485D03*
X001737Y001479D03*
X001737Y001473D03*
X001737Y001467D03*
X001737Y001461D03*
X001737Y001455D03*
X001737Y001449D03*
X001737Y001443D03*
X001737Y001437D03*
X001737Y001431D03*
X001737Y001426D03*
X001737Y001420D03*
X001737Y001414D03*
X001737Y001408D03*
X001737Y001402D03*
X001737Y001396D03*
X001737Y001390D03*
X001737Y001384D03*
X001737Y001378D03*
X001737Y001372D03*
X001737Y001367D03*
X001737Y001361D03*
X001737Y001355D03*
X001737Y001349D03*
X001737Y001343D03*
X001737Y001337D03*
X001737Y001331D03*
X001737Y001325D03*
X001737Y001319D03*
X001737Y001313D03*
X001737Y001307D03*
X001737Y001302D03*
X001737Y001296D03*
X001737Y001290D03*
X001737Y001284D03*
X001737Y001278D03*
X001737Y001272D03*
X001737Y001266D03*
X001737Y001260D03*
X001737Y001254D03*
X001737Y001248D03*
X001737Y001243D03*
X001737Y001237D03*
X001737Y001231D03*
X001737Y001225D03*
X001737Y001219D03*
X001737Y001213D03*
X001737Y001207D03*
X001737Y001201D03*
X001737Y001195D03*
X001737Y001189D03*
X001737Y001183D03*
X001737Y001178D03*
X001737Y001172D03*
X001737Y001166D03*
X001737Y001160D03*
X001737Y001154D03*
X001737Y001148D03*
X001737Y001142D03*
X005523Y000463D03*
X006603Y001142D03*
X006603Y001148D03*
X006603Y001154D03*
X006603Y001160D03*
X006603Y001166D03*
X006603Y001172D03*
X006603Y001178D03*
X006603Y001183D03*
X006603Y001189D03*
X006603Y001195D03*
X006603Y001201D03*
X006603Y001207D03*
X006603Y001213D03*
X006603Y001219D03*
X006603Y001225D03*
X006603Y001231D03*
X006603Y001237D03*
X006603Y001243D03*
X006603Y001248D03*
X006603Y001254D03*
X006603Y001260D03*
X006603Y001266D03*
X006603Y001272D03*
X006603Y001278D03*
X006603Y001284D03*
X006603Y001290D03*
X006603Y001296D03*
X006603Y001302D03*
X006603Y001307D03*
X006603Y001313D03*
X006603Y001319D03*
X006603Y001325D03*
X006603Y001331D03*
X006603Y001337D03*
X006603Y001343D03*
X006603Y001349D03*
X006603Y001355D03*
X006603Y001361D03*
X006603Y001367D03*
X006603Y001372D03*
X006603Y001378D03*
X006603Y001384D03*
X006603Y001390D03*
X006603Y001396D03*
X006603Y001402D03*
X006603Y001408D03*
X006603Y001414D03*
X006603Y001420D03*
X006603Y001426D03*
X006603Y001431D03*
X006603Y001437D03*
X006603Y001443D03*
X006603Y001449D03*
X006603Y001455D03*
X006603Y001461D03*
X006603Y001467D03*
X006603Y001473D03*
X006603Y001479D03*
X006603Y001485D03*
X006603Y001491D03*
X006603Y001496D03*
X006603Y001502D03*
X006603Y001508D03*
X006603Y001514D03*
X006603Y001520D03*
X006603Y001526D03*
X006603Y001532D03*
X006603Y001538D03*
X006603Y001544D03*
X006603Y001550D03*
X006603Y001556D03*
X006603Y001561D03*
X006603Y001567D03*
X006603Y001573D03*
X006603Y001579D03*
X006603Y001585D03*
X006603Y001591D03*
X006603Y001597D03*
X006603Y001603D03*
X006603Y001609D03*
X006603Y001615D03*
X006603Y001620D03*
X006603Y001626D03*
X006603Y001632D03*
X006603Y001638D03*
X006603Y001644D03*
X006603Y001650D03*
X006603Y001656D03*
X006603Y001662D03*
X006603Y001668D03*
X006603Y001674D03*
X006603Y001680D03*
X006603Y001685D03*
X006603Y001691D03*
X006603Y001697D03*
X006603Y001869D03*
X006603Y001874D03*
X006603Y001880D03*
X006603Y001886D03*
X006603Y001892D03*
X006603Y001898D03*
X006603Y001904D03*
X006603Y001910D03*
X006603Y001916D03*
X006603Y001922D03*
X006603Y001928D03*
X006603Y001933D03*
X006603Y001939D03*
X006603Y001945D03*
X006603Y001951D03*
X006603Y001957D03*
X006603Y001963D03*
X006603Y001969D03*
X006603Y001975D03*
X006603Y001981D03*
X006603Y001987D03*
X006603Y001993D03*
X006603Y001998D03*
X006603Y002004D03*
X006603Y002010D03*
X006603Y002016D03*
X006603Y002022D03*
X006603Y002028D03*
X006603Y002034D03*
X006603Y002040D03*
X006603Y002046D03*
X006603Y002052D03*
X006603Y002057D03*
X006603Y002063D03*
X006603Y002069D03*
X006603Y002075D03*
X006603Y002081D03*
X006603Y002087D03*
X006603Y002093D03*
X006603Y002099D03*
X006603Y002105D03*
X006603Y002111D03*
X006603Y002117D03*
X006603Y002122D03*
X006603Y002128D03*
X006603Y002134D03*
X006603Y002140D03*
X006603Y002146D03*
X006603Y002152D03*
X006603Y002158D03*
X006603Y002164D03*
X006603Y002170D03*
X006603Y002176D03*
X006603Y002181D03*
X006603Y002187D03*
X006603Y002193D03*
X006603Y002199D03*
X006603Y002205D03*
X006603Y002211D03*
X006603Y002217D03*
X006603Y002223D03*
X006603Y002229D03*
X006603Y002235D03*
X006603Y002241D03*
X006603Y002246D03*
X006603Y002252D03*
X006603Y002258D03*
X006603Y002264D03*
X006603Y002270D03*
X006603Y002276D03*
X006603Y002282D03*
X006603Y002288D03*
X006603Y002294D03*
X006603Y002300D03*
X006603Y002306D03*
X006603Y002311D03*
X006603Y002317D03*
X006603Y002323D03*
X006603Y002329D03*
X006603Y002335D03*
X006603Y002341D03*
X006603Y002347D03*
X006603Y002353D03*
X006603Y002359D03*
X006603Y002365D03*
X006603Y002370D03*
X006603Y002376D03*
X006603Y002382D03*
X006603Y002388D03*
X006603Y002394D03*
X006603Y002400D03*
X006603Y002406D03*
X006603Y002412D03*
X006603Y002418D03*
X006603Y002424D03*
X006603Y002430D03*
X006603Y002435D03*
X006603Y002441D03*
X006603Y002447D03*
X006603Y002453D03*
X006603Y002459D03*
X006603Y002465D03*
X006603Y002471D03*
X006603Y002477D03*
D33*
X005523Y000469D03*
X002841Y002394D03*
X002853Y003227D03*
D34*
X002859Y003221D03*
X003509Y001880D03*
X003515Y001821D03*
X003515Y001815D03*
X003515Y001809D03*
X002180Y001874D03*
X002174Y001815D03*
X002174Y001809D03*
X005523Y000475D03*
D35*
X005523Y000481D03*
X003479Y001644D03*
X003479Y001650D03*
X003485Y001662D03*
X003485Y001668D03*
X003491Y001674D03*
X003491Y001680D03*
X003497Y001691D03*
X003497Y001697D03*
X003503Y001910D03*
X003497Y001928D03*
X003497Y001933D03*
X003491Y001945D03*
X003491Y001951D03*
X003485Y001963D03*
X003485Y001969D03*
X003479Y001975D03*
X003479Y001981D03*
X002871Y003215D03*
X002221Y001998D03*
X002215Y001987D03*
X002210Y001981D03*
X002210Y001975D03*
X002204Y001963D03*
X002204Y001957D03*
X002198Y001945D03*
X002192Y001928D03*
X002192Y001697D03*
X002192Y001691D03*
X002198Y001680D03*
X002198Y001674D03*
X002204Y001668D03*
X002204Y001662D03*
X002210Y001650D03*
D36*
X002227Y001615D03*
X002233Y001603D03*
X002239Y001597D03*
X002245Y001585D03*
X002233Y002022D03*
X002239Y002028D03*
X002239Y002034D03*
X002245Y002040D03*
X002251Y002046D03*
X002877Y003209D03*
X003444Y002040D03*
X003450Y002034D03*
X003450Y002028D03*
X003456Y002022D03*
X003467Y001620D03*
X003462Y001615D03*
X003462Y001609D03*
X003456Y001603D03*
X003450Y001591D03*
X005369Y002010D03*
X005369Y002016D03*
X005369Y002022D03*
X005369Y002028D03*
X005369Y002034D03*
X005369Y002040D03*
X005369Y002046D03*
X005369Y002052D03*
X005369Y002057D03*
X005369Y002063D03*
X005369Y002069D03*
X005369Y002075D03*
X005369Y002081D03*
X005369Y002087D03*
X005375Y001998D03*
X005375Y001993D03*
X005523Y000487D03*
D37*
X005523Y000493D03*
X005393Y001957D03*
X005381Y002117D03*
X005381Y002122D03*
X005387Y002134D03*
X003426Y002063D03*
X003420Y002069D03*
X003414Y002075D03*
X003438Y001573D03*
X003432Y001567D03*
X003426Y001561D03*
X002883Y003203D03*
X002275Y002075D03*
X002269Y002069D03*
X002263Y002063D03*
X002257Y001567D03*
X002263Y001561D03*
X002269Y001556D03*
D38*
X002286Y001532D03*
X002292Y001526D03*
X002298Y001520D03*
X002298Y002105D03*
X002304Y002111D03*
X002895Y003197D03*
X003391Y002105D03*
X003397Y002099D03*
X003408Y001538D03*
X003402Y001532D03*
X003397Y001526D03*
X005404Y001933D03*
X005399Y002152D03*
X005523Y000498D03*
D39*
X005523Y000504D03*
X003391Y001520D03*
X003385Y001514D03*
X003379Y001508D03*
X003361Y002128D03*
X002900Y003191D03*
X002334Y002134D03*
X002328Y002128D03*
X002316Y001502D03*
D40*
X002325Y001496D03*
X002331Y001491D03*
X002337Y002140D03*
X003211Y002831D03*
X003216Y002825D03*
X003222Y002819D03*
X003228Y002813D03*
X003234Y002807D03*
X003240Y002802D03*
X003246Y002796D03*
X003252Y002790D03*
X003258Y002784D03*
X003264Y002778D03*
X003270Y002772D03*
X003275Y002766D03*
X003281Y002760D03*
X003287Y002754D03*
X003293Y002748D03*
X003299Y002743D03*
X003305Y002737D03*
X003311Y002731D03*
X003317Y002725D03*
X003323Y002719D03*
X003329Y002713D03*
X003335Y002707D03*
X003340Y002701D03*
X003346Y002695D03*
X003352Y002689D03*
X003358Y002683D03*
X003358Y002134D03*
X003630Y002400D03*
X003636Y002394D03*
X003642Y002388D03*
X003648Y002382D03*
X003653Y002376D03*
X003659Y002370D03*
X003665Y002365D03*
X003671Y002359D03*
X003677Y002353D03*
X003683Y002347D03*
X003689Y002341D03*
X003695Y002335D03*
X003701Y002329D03*
X003707Y002323D03*
X003712Y002317D03*
X003718Y002311D03*
X003724Y002306D03*
X003730Y002300D03*
X003736Y002294D03*
X003742Y002288D03*
X003748Y002282D03*
X003754Y002276D03*
X003760Y002270D03*
X003766Y002264D03*
X003772Y002258D03*
X003777Y002252D03*
X003783Y002246D03*
X003789Y002241D03*
X003795Y002235D03*
X003801Y002229D03*
X003807Y002223D03*
X003813Y002217D03*
X003819Y002211D03*
X003825Y002205D03*
X003831Y002199D03*
X003837Y002193D03*
X003842Y002187D03*
X003848Y002181D03*
X003854Y002176D03*
X003860Y002170D03*
X003866Y002164D03*
X003872Y002158D03*
X003878Y002152D03*
X003884Y002146D03*
X003890Y002140D03*
X003896Y002134D03*
X003901Y002128D03*
X003907Y002122D03*
X003913Y002117D03*
X003919Y002111D03*
X003925Y002105D03*
X003931Y002099D03*
X003937Y002093D03*
X003943Y002087D03*
X003949Y002081D03*
X003955Y002075D03*
X003961Y002069D03*
X003966Y002063D03*
X003972Y002057D03*
X003978Y002052D03*
X003984Y002046D03*
X003990Y002040D03*
X003996Y002034D03*
X004002Y002028D03*
X004008Y002022D03*
X004014Y002016D03*
X004020Y002010D03*
X004025Y002004D03*
X004031Y001998D03*
X004037Y001993D03*
X004043Y001987D03*
X004049Y001981D03*
X004055Y001975D03*
X004061Y001969D03*
X004067Y001963D03*
X004073Y001957D03*
X004079Y001951D03*
X004085Y001945D03*
X004090Y001939D03*
X004096Y001933D03*
X004250Y001780D03*
X004256Y001774D03*
X004262Y001768D03*
X004268Y001762D03*
X004274Y001756D03*
X004279Y001750D03*
X004285Y001744D03*
X004291Y001739D03*
X004297Y001733D03*
X004303Y001727D03*
X004309Y001721D03*
X004315Y001715D03*
X004321Y001709D03*
X004327Y001703D03*
X004333Y001697D03*
X004338Y001691D03*
X004344Y001685D03*
X004350Y001680D03*
X004356Y001674D03*
X004362Y001668D03*
X004368Y001662D03*
X004374Y001656D03*
X004380Y001650D03*
X004386Y001644D03*
X004392Y001638D03*
X004398Y001632D03*
X004403Y001626D03*
X004409Y001620D03*
X004415Y001615D03*
X004421Y001609D03*
X004427Y001603D03*
X004433Y001597D03*
X004439Y001591D03*
X004445Y001585D03*
X004451Y001579D03*
X004457Y001573D03*
X004462Y001567D03*
X004468Y001561D03*
X004474Y001556D03*
X004480Y001550D03*
X004486Y001544D03*
X004492Y001538D03*
X004498Y001532D03*
X004504Y001526D03*
X004510Y001520D03*
X004516Y001514D03*
X004522Y001508D03*
X004527Y001502D03*
X004533Y001496D03*
X004539Y001491D03*
X004545Y001485D03*
X004551Y001479D03*
X004557Y001473D03*
X004563Y001467D03*
X004569Y001461D03*
X004575Y001455D03*
X004581Y001449D03*
X004587Y001443D03*
X004592Y001437D03*
X004598Y001431D03*
X004604Y001426D03*
X004610Y001420D03*
X004616Y001414D03*
X004622Y001408D03*
X004628Y001402D03*
X004634Y001396D03*
X004640Y001390D03*
X004646Y001384D03*
X004651Y001378D03*
X004657Y001372D03*
X004663Y001367D03*
X004669Y001361D03*
X004675Y001355D03*
X004681Y001349D03*
X004687Y001343D03*
X004693Y001337D03*
X004699Y001331D03*
X004705Y001325D03*
X004711Y001319D03*
X004716Y001313D03*
X004722Y001307D03*
X004728Y001302D03*
X004734Y001296D03*
X004740Y001290D03*
X004746Y001284D03*
X004752Y001278D03*
X004758Y001272D03*
X004764Y001266D03*
X004770Y001260D03*
X004775Y001254D03*
X004781Y001248D03*
X004787Y001243D03*
X004793Y001237D03*
X004799Y001231D03*
X004805Y001225D03*
X004811Y001219D03*
X004817Y001213D03*
X004823Y001207D03*
X004829Y001201D03*
X004835Y001195D03*
X004840Y001189D03*
X004846Y001183D03*
X004852Y001178D03*
X004858Y001172D03*
X004864Y001166D03*
X004870Y001160D03*
X004876Y001154D03*
X004882Y001148D03*
X004888Y001142D03*
X005100Y000930D03*
X005106Y000924D03*
X005112Y000918D03*
X005118Y000912D03*
X005124Y000906D03*
X005130Y000900D03*
X005136Y000894D03*
X005142Y000888D03*
X005148Y000882D03*
X005153Y000876D03*
X005159Y000870D03*
X005165Y000865D03*
X005171Y000859D03*
X005177Y000853D03*
X005183Y000847D03*
X005189Y000841D03*
X005195Y000835D03*
X005201Y000829D03*
X005207Y000823D03*
X005212Y000817D03*
X005218Y000811D03*
X005224Y000806D03*
X005230Y000800D03*
X005236Y000794D03*
X005242Y000788D03*
X005248Y000782D03*
X005254Y000776D03*
X005260Y000770D03*
X005266Y000764D03*
X005272Y000758D03*
X005277Y000752D03*
X005283Y000746D03*
X005289Y000741D03*
X005295Y000735D03*
X005301Y000729D03*
X005307Y000723D03*
X005313Y000717D03*
X005319Y000711D03*
X005325Y000705D03*
X005331Y000699D03*
X005337Y000693D03*
X005342Y000687D03*
X005348Y000681D03*
X005354Y000676D03*
X005360Y000670D03*
X005366Y000664D03*
X005372Y000658D03*
X005378Y000652D03*
X005384Y000646D03*
X005390Y000640D03*
X005396Y000634D03*
X005401Y000628D03*
X005407Y000622D03*
X005413Y000617D03*
X005419Y000611D03*
X005425Y000605D03*
X005431Y000599D03*
X005437Y000593D03*
X005443Y000587D03*
X005449Y000581D03*
X005455Y000575D03*
X005461Y000569D03*
X005466Y000563D03*
X005472Y000557D03*
X005478Y000552D03*
X005484Y000546D03*
X005490Y000540D03*
X005496Y000534D03*
X005502Y000528D03*
X005508Y000522D03*
X005514Y000516D03*
X005520Y000510D03*
X005431Y001910D03*
X005425Y001916D03*
X005413Y002170D03*
X003624Y002406D03*
X003618Y002412D03*
X003612Y002418D03*
X003606Y002424D03*
X003600Y002430D03*
X003594Y002435D03*
X003588Y002441D03*
X003583Y002447D03*
X003577Y002453D03*
X003571Y002459D03*
X003565Y002465D03*
X003559Y002471D03*
X003553Y002477D03*
X003370Y001502D03*
X003364Y001496D03*
X003358Y001491D03*
D41*
X004170Y001136D03*
X004170Y001130D03*
X004170Y001124D03*
X004170Y001119D03*
X004170Y001113D03*
X004170Y001107D03*
X004170Y001101D03*
X004170Y001095D03*
X004170Y001089D03*
X004170Y001083D03*
X004170Y001077D03*
X004170Y001071D03*
X004170Y001065D03*
X004170Y001059D03*
X004170Y001054D03*
X004170Y001048D03*
X004170Y001042D03*
X004170Y001036D03*
X004170Y001030D03*
X004170Y001024D03*
X004170Y001018D03*
X004170Y001012D03*
X004170Y001006D03*
X004170Y001000D03*
X004170Y000994D03*
X004170Y000989D03*
X004170Y000983D03*
X004170Y000977D03*
X004170Y000971D03*
X004170Y000965D03*
X004170Y000959D03*
X004170Y000953D03*
X004170Y000947D03*
X004170Y000941D03*
X004170Y000935D03*
X004170Y002483D03*
X004170Y002489D03*
X004170Y002494D03*
X004170Y002500D03*
X004170Y002506D03*
X004170Y002512D03*
X004170Y002518D03*
X004170Y002524D03*
X004170Y002530D03*
X004170Y002536D03*
X004170Y002542D03*
X004170Y002548D03*
X004170Y002554D03*
X004170Y002559D03*
X004170Y002565D03*
X004170Y002571D03*
X004170Y002577D03*
X004170Y002583D03*
X004170Y002589D03*
X004170Y002595D03*
X004170Y002601D03*
X004170Y002607D03*
X004170Y002613D03*
X004170Y002619D03*
X004170Y002624D03*
X004170Y002630D03*
X004170Y002636D03*
X004170Y002642D03*
X004170Y002648D03*
X004170Y002654D03*
X004170Y002660D03*
X004170Y002666D03*
X004170Y002672D03*
X004170Y002678D03*
D42*
X002850Y001231D03*
D43*
X002354Y001473D03*
X002360Y002158D03*
X003335Y002152D03*
X003352Y001485D03*
X003346Y001479D03*
X004250Y001786D03*
X004398Y001933D03*
X004403Y001939D03*
X004409Y001945D03*
X004415Y001951D03*
X004421Y001957D03*
X004427Y001963D03*
X004433Y001969D03*
X004439Y001975D03*
X004445Y001981D03*
X004451Y001987D03*
X004457Y001993D03*
X004462Y001998D03*
X004468Y002004D03*
X004474Y002010D03*
X004480Y002016D03*
X004486Y002022D03*
X004492Y002028D03*
X004498Y002034D03*
X004504Y002040D03*
X004510Y002046D03*
X004516Y002052D03*
X004522Y002057D03*
X004527Y002063D03*
X004533Y002069D03*
X004539Y002075D03*
X004545Y002081D03*
X004551Y002087D03*
X004557Y002093D03*
X004563Y002099D03*
X004569Y002105D03*
X004575Y002111D03*
X004581Y002117D03*
X004587Y002122D03*
X004592Y002128D03*
X004598Y002134D03*
X004604Y002140D03*
X004610Y002146D03*
X004616Y002152D03*
X004622Y002158D03*
X004628Y002164D03*
X004634Y002170D03*
X004640Y002176D03*
X004646Y002181D03*
X004651Y002187D03*
X004657Y002193D03*
X004663Y002199D03*
X004669Y002205D03*
X004675Y002211D03*
X004681Y002217D03*
X004687Y002223D03*
X004693Y002229D03*
X004699Y002235D03*
X004705Y002241D03*
X004711Y002246D03*
X004716Y002252D03*
X004722Y002258D03*
X004728Y002264D03*
X004734Y002270D03*
X004740Y002276D03*
X004746Y002282D03*
X004752Y002288D03*
X004758Y002294D03*
X004764Y002300D03*
X004770Y002306D03*
X004775Y002311D03*
X004781Y002317D03*
X004787Y002323D03*
X004793Y002329D03*
X004799Y002335D03*
X004805Y002341D03*
X004811Y002347D03*
X004817Y002353D03*
X004823Y002359D03*
X004829Y002365D03*
X004835Y002370D03*
X004840Y002376D03*
X004846Y002382D03*
X004852Y002388D03*
X005425Y002181D03*
X005437Y001904D03*
X005573Y001437D03*
X005567Y001431D03*
X005561Y001426D03*
X005555Y001420D03*
X005549Y001414D03*
X005543Y001408D03*
X005537Y001402D03*
X005531Y001396D03*
X005525Y001390D03*
X005520Y001384D03*
X005514Y001378D03*
X005508Y001372D03*
X005502Y001367D03*
X005496Y001361D03*
X005490Y001355D03*
X005484Y001349D03*
X005478Y001343D03*
X005472Y001337D03*
X005466Y001331D03*
X005461Y001325D03*
X005455Y001319D03*
X005449Y001313D03*
X005443Y001307D03*
X005437Y001302D03*
X005431Y001296D03*
X005425Y001290D03*
X005419Y001284D03*
X005413Y001278D03*
X005407Y001272D03*
X005401Y001266D03*
X005396Y001260D03*
X005390Y001254D03*
X005384Y001248D03*
X005378Y001243D03*
X005372Y001237D03*
X005579Y001443D03*
X005585Y001449D03*
X005590Y001455D03*
X005596Y001461D03*
X005602Y001467D03*
X005608Y001473D03*
X005614Y001479D03*
X005620Y001485D03*
X005626Y001491D03*
X005632Y001496D03*
X005638Y001502D03*
X005644Y001508D03*
X005650Y001514D03*
X005655Y001520D03*
X005661Y001526D03*
X005667Y001532D03*
X005673Y001538D03*
X005679Y001544D03*
X005685Y001550D03*
X005691Y001556D03*
X005697Y001561D03*
X005703Y001567D03*
X005709Y001573D03*
X005714Y001579D03*
X005720Y001585D03*
X005726Y001591D03*
X005732Y001597D03*
X005738Y001603D03*
X005744Y001609D03*
X005750Y001615D03*
X005756Y001620D03*
X005762Y001626D03*
X005768Y001632D03*
X005774Y001638D03*
X005779Y001644D03*
X005785Y001650D03*
X005791Y001656D03*
X005797Y001662D03*
X005803Y001668D03*
X005809Y001674D03*
X005815Y001680D03*
X005821Y001685D03*
X005827Y001691D03*
X005833Y001697D03*
X005838Y001703D03*
D44*
X005463Y001886D03*
X005452Y002199D03*
X003278Y002187D03*
X003302Y001449D03*
X002847Y001237D03*
X002404Y001437D03*
X002936Y003168D03*
D45*
X003060Y002931D03*
X003066Y002926D03*
X002841Y002382D03*
X002847Y001243D03*
X005511Y001869D03*
X005493Y002217D03*
D46*
X002841Y002376D03*
X002847Y001248D03*
D47*
X002844Y001254D03*
X004250Y001886D03*
D48*
X002841Y002365D03*
X002847Y001260D03*
D49*
X002844Y001266D03*
X002844Y002359D03*
X004250Y001928D03*
D50*
X002847Y001272D03*
D51*
X002847Y001278D03*
X005918Y001727D03*
D52*
X002844Y001284D03*
D53*
X002844Y001290D03*
X005886Y002353D03*
D54*
X005874Y002347D03*
X002844Y002329D03*
X002844Y001296D03*
D55*
X002844Y001302D03*
X002844Y002323D03*
X005862Y001762D03*
D56*
X005847Y001774D03*
X002847Y001307D03*
D57*
X002844Y001313D03*
X005833Y001792D03*
X005833Y002311D03*
D58*
X005821Y001804D03*
X002844Y001319D03*
X002844Y002306D03*
D59*
X002844Y001325D03*
X005809Y001821D03*
X005809Y002282D03*
D60*
X005797Y002264D03*
X005797Y001839D03*
X002844Y001331D03*
D61*
X002847Y001337D03*
X005788Y001857D03*
X005788Y002246D03*
D62*
X002847Y001343D03*
D63*
X002847Y001349D03*
D64*
X002844Y001355D03*
D65*
X002847Y001361D03*
D66*
X002844Y001367D03*
D67*
X002847Y001372D03*
D68*
X002847Y001378D03*
D69*
X002847Y001384D03*
D70*
X003163Y001390D03*
X003157Y002235D03*
X003045Y003050D03*
X003022Y003109D03*
X002531Y002235D03*
X002525Y001390D03*
X004250Y001863D03*
D71*
X003184Y002229D03*
X003107Y002867D03*
X003190Y001396D03*
X002505Y001396D03*
X002505Y002229D03*
D72*
X003084Y002902D03*
X003078Y002908D03*
X003036Y003014D03*
X003202Y002223D03*
X003208Y001402D03*
D73*
X003075Y002914D03*
X003069Y002920D03*
X003033Y003008D03*
X002980Y003138D03*
X002484Y002223D03*
X002484Y001402D03*
X004250Y001833D03*
D74*
X004250Y001827D03*
X003222Y001408D03*
X003057Y002937D03*
X003033Y003002D03*
X002466Y001408D03*
D75*
X002469Y002217D03*
X003030Y002996D03*
X003048Y002949D03*
X003054Y002943D03*
X002971Y003144D03*
X003219Y002217D03*
X003237Y001414D03*
D76*
X003045Y002955D03*
X003039Y002961D03*
X003027Y002991D03*
X002962Y003150D03*
X002455Y001414D03*
X004250Y001821D03*
D77*
X004250Y001815D03*
X003252Y001420D03*
X003246Y002205D03*
X003033Y002973D03*
X003027Y002979D03*
X003027Y002985D03*
D78*
X002954Y003156D03*
X002440Y002205D03*
X002440Y001420D03*
X003261Y001426D03*
D79*
X003258Y002199D03*
X002431Y001426D03*
X004250Y001809D03*
X005478Y001880D03*
D80*
X005463Y002205D03*
X003284Y001437D03*
X003273Y001431D03*
X002942Y003162D03*
X002428Y002199D03*
X002416Y001431D03*
D81*
X002419Y002193D03*
X003270Y002193D03*
X003293Y001443D03*
X004250Y001804D03*
D82*
X004250Y001798D03*
X003293Y002181D03*
X002407Y002187D03*
X002396Y002181D03*
X002396Y001443D03*
X005443Y002193D03*
D83*
X005458Y001892D03*
X003302Y002176D03*
X003320Y001461D03*
X003314Y001455D03*
X002841Y002388D03*
X002387Y001449D03*
D84*
X002378Y001455D03*
X002390Y002176D03*
X002927Y003174D03*
X003311Y002170D03*
X003329Y001467D03*
X004250Y001792D03*
D85*
X003337Y001473D03*
X003326Y002158D03*
X003320Y002164D03*
X002918Y003180D03*
X002381Y002170D03*
X002369Y002164D03*
X002363Y001467D03*
X002369Y001461D03*
X005446Y001898D03*
X005434Y002187D03*
D86*
X005422Y002176D03*
X003349Y002140D03*
X003343Y002146D03*
X002912Y003185D03*
X002357Y002152D03*
X002345Y002146D03*
X002339Y001485D03*
X002345Y001479D03*
D87*
X002313Y001508D03*
X002307Y001514D03*
X002313Y002117D03*
X002319Y002122D03*
X003370Y002122D03*
X003376Y002117D03*
X003382Y002111D03*
X005401Y002158D03*
X005407Y002164D03*
X005413Y001928D03*
X005419Y001922D03*
D88*
X005401Y001939D03*
X005396Y001945D03*
X005396Y001951D03*
X005384Y002128D03*
X005390Y002140D03*
X005396Y002146D03*
X003411Y002081D03*
X003405Y002087D03*
X003400Y002093D03*
X003423Y001556D03*
X003417Y001550D03*
X003411Y001544D03*
X002283Y001538D03*
X002277Y001544D03*
X002272Y001550D03*
X002277Y002081D03*
X002283Y002087D03*
X002289Y002093D03*
X002295Y002099D03*
D89*
X002260Y002057D03*
X002254Y002052D03*
X002242Y001591D03*
X002248Y001579D03*
X002254Y001573D03*
X003441Y001579D03*
X003447Y001585D03*
X003453Y001597D03*
X003441Y002046D03*
X003435Y002052D03*
X003429Y002057D03*
X005372Y002093D03*
X005372Y002099D03*
X005378Y002105D03*
X005378Y002111D03*
X005372Y002004D03*
X005378Y001987D03*
X005378Y001981D03*
X005384Y001975D03*
X005384Y001969D03*
X005390Y001963D03*
D90*
X003476Y001987D03*
X003470Y001993D03*
X003470Y001998D03*
X003464Y002004D03*
X003464Y002010D03*
X003459Y002016D03*
X003482Y001656D03*
X003476Y001638D03*
X003470Y001632D03*
X003470Y001626D03*
X002230Y001609D03*
X002224Y001620D03*
X002218Y001626D03*
X002218Y001632D03*
X002212Y001638D03*
X002212Y001644D03*
X002207Y001656D03*
X002218Y001993D03*
X002224Y002004D03*
X002224Y002010D03*
X002230Y002016D03*
D91*
X002207Y001969D03*
X002201Y001951D03*
X002195Y001939D03*
X002195Y001933D03*
X002189Y001922D03*
X002189Y001916D03*
X002189Y001910D03*
X002183Y001904D03*
X002183Y001898D03*
X002183Y001892D03*
X002183Y001886D03*
X002183Y001880D03*
X002177Y001869D03*
X002177Y001863D03*
X002177Y001857D03*
X002177Y001851D03*
X002177Y001845D03*
X002177Y001839D03*
X002177Y001833D03*
X002177Y001827D03*
X002177Y001821D03*
X002177Y001804D03*
X002177Y001798D03*
X002177Y001792D03*
X002177Y001786D03*
X002177Y001780D03*
X002177Y001774D03*
X002177Y001768D03*
X002177Y001762D03*
X002177Y001756D03*
X002177Y001750D03*
X002183Y001744D03*
X002183Y001739D03*
X002183Y001733D03*
X002183Y001727D03*
X002183Y001721D03*
X002189Y001715D03*
X002189Y001709D03*
X002189Y001703D03*
X002195Y001685D03*
X003494Y001685D03*
X003500Y001703D03*
X003500Y001709D03*
X003500Y001715D03*
X003506Y001721D03*
X003506Y001727D03*
X003506Y001733D03*
X003506Y001739D03*
X003506Y001744D03*
X003512Y001750D03*
X003512Y001756D03*
X003512Y001762D03*
X003512Y001768D03*
X003512Y001774D03*
X003512Y001780D03*
X003512Y001786D03*
X003512Y001792D03*
X003512Y001798D03*
X003512Y001804D03*
X003512Y001827D03*
X003512Y001833D03*
X003512Y001839D03*
X003512Y001845D03*
X003512Y001851D03*
X003512Y001857D03*
X003512Y001863D03*
X003512Y001869D03*
X003512Y001874D03*
X003506Y001886D03*
X003506Y001892D03*
X003506Y001898D03*
X003506Y001904D03*
X003500Y001916D03*
X003500Y001922D03*
X003494Y001939D03*
X003488Y001957D03*
D92*
X007055Y001863D03*
X007055Y001857D03*
X007055Y001851D03*
X007055Y001845D03*
X007055Y001839D03*
X007055Y001833D03*
X007055Y001827D03*
X007055Y001821D03*
X007055Y001815D03*
X007055Y001809D03*
X007055Y001804D03*
X007055Y001798D03*
X007055Y001792D03*
X007055Y001786D03*
X007055Y001780D03*
X007055Y001774D03*
X007055Y001768D03*
X007055Y001762D03*
X007055Y001756D03*
X007055Y001750D03*
X007055Y001744D03*
X007055Y001739D03*
X007055Y001733D03*
X007055Y001727D03*
X007055Y001721D03*
X007055Y001715D03*
X007055Y001709D03*
X007055Y001703D03*
D93*
X001282Y001703D03*
X001282Y001709D03*
X001282Y001715D03*
X001282Y001721D03*
X001282Y001727D03*
X001282Y001733D03*
X001282Y001739D03*
X001282Y001744D03*
X001282Y001750D03*
X001282Y001756D03*
X001282Y001762D03*
X001282Y001768D03*
X001282Y001774D03*
X001282Y001780D03*
X001282Y001786D03*
X001282Y001792D03*
X001282Y001798D03*
X001282Y001804D03*
X001282Y001809D03*
X001282Y001815D03*
X001282Y001821D03*
X001282Y001827D03*
X001282Y001833D03*
X001282Y001839D03*
X001282Y001845D03*
X001282Y001851D03*
X001282Y001857D03*
X001282Y001863D03*
D94*
X005951Y001709D03*
D95*
X005942Y001715D03*
X005942Y002376D03*
D96*
X005930Y001721D03*
D97*
X005906Y001733D03*
X002841Y002341D03*
D98*
X005898Y001739D03*
D99*
X005889Y001744D03*
D100*
X005880Y001750D03*
D101*
X005871Y001756D03*
D102*
X005853Y001768D03*
D103*
X005841Y001780D03*
D104*
X005836Y001786D03*
X002841Y002311D03*
D105*
X005827Y002306D03*
X005827Y001798D03*
D106*
X005818Y001809D03*
X005818Y002294D03*
D107*
X005812Y001815D03*
X002841Y002300D03*
D108*
X005806Y002276D03*
X005806Y001827D03*
D109*
X005800Y001833D03*
X002841Y002294D03*
D110*
X003087Y002896D03*
X002986Y003132D03*
X004250Y001839D03*
D111*
X005794Y001845D03*
X005794Y002258D03*
D112*
X004250Y001845D03*
X003104Y002872D03*
X003098Y002878D03*
X003039Y003026D03*
D113*
X002844Y002288D03*
X005791Y002252D03*
X005791Y001851D03*
D114*
X005537Y001863D03*
X004250Y001851D03*
X003116Y002855D03*
X003110Y002861D03*
X003039Y003032D03*
X003004Y003120D03*
D115*
X003045Y003044D03*
X003128Y002837D03*
X004250Y001857D03*
D116*
X004250Y001869D03*
X003027Y003103D03*
D117*
X003036Y002967D03*
X003231Y002211D03*
X002458Y002211D03*
X005481Y002211D03*
X005493Y001874D03*
D118*
X004250Y001874D03*
X003051Y003067D03*
D119*
X003045Y003091D03*
X004250Y001880D03*
D120*
X004250Y001892D03*
X005992Y002388D03*
D121*
X004250Y001898D03*
D122*
X004250Y001904D03*
D123*
X004250Y001910D03*
D124*
X004250Y001916D03*
D125*
X004250Y001922D03*
X005962Y002382D03*
D126*
X005523Y002223D03*
X003125Y002843D03*
X003119Y002849D03*
X003042Y003038D03*
X003013Y003115D03*
D127*
X002844Y002282D03*
X005779Y002229D03*
D128*
X005782Y002235D03*
D129*
X005785Y002241D03*
D130*
X002844Y002241D03*
D131*
X002844Y002246D03*
D132*
X002844Y002252D03*
D133*
X002841Y002258D03*
D134*
X002844Y002264D03*
D135*
X005803Y002270D03*
D136*
X002841Y002270D03*
D137*
X002844Y002276D03*
D138*
X005815Y002288D03*
D139*
X005824Y002300D03*
D140*
X005838Y002317D03*
D141*
X005850Y002329D03*
X002844Y002317D03*
D142*
X005844Y002323D03*
D143*
X005859Y002335D03*
D144*
X002844Y002335D03*
D145*
X005865Y002341D03*
D146*
X005921Y002370D03*
X002844Y002347D03*
D147*
X002844Y002353D03*
D148*
X005895Y002359D03*
D149*
X005909Y002365D03*
D150*
X003054Y003079D03*
X003054Y003085D03*
X002841Y002370D03*
D151*
X002957Y002743D03*
D152*
X002957Y002748D03*
D153*
X002962Y002766D03*
D154*
X002968Y002784D03*
D155*
X002968Y002790D03*
X002768Y003286D03*
D156*
X002974Y002802D03*
D157*
X002974Y002807D03*
X002785Y003274D03*
D158*
X002980Y002825D03*
D159*
X003089Y002890D03*
X003095Y002884D03*
X003036Y003020D03*
X002995Y003126D03*
D160*
X003048Y003056D03*
D161*
X003048Y003061D03*
X003036Y003097D03*
D162*
X003054Y003073D03*
D163*
X002827Y003244D03*
M02*
