G75*
G70*
%OFA0B0*%
%FSLAX24Y24*%
%IPPOS*%
%LPD*%
%AMOC8*
5,1,8,0,0,1.08239X$1,22.5*
%
%ADD10C,0.0000*%
%ADD11OC8,0.0620*%
%ADD12C,0.0620*%
%ADD13C,0.0740*%
%ADD14C,0.0660*%
%ADD15OC8,0.0660*%
%ADD16C,0.1306*%
%ADD17C,0.1286*%
%ADD18C,0.0812*%
%ADD19R,0.0620X0.0620*%
%ADD20R,0.0772X0.0772*%
%ADD21C,0.0694*%
%ADD22C,0.0240*%
%ADD23C,0.0360*%
%ADD24C,0.0100*%
%ADD25C,0.0240*%
D10*
X000190Y000492D02*
X000190Y012303D01*
X043497Y012303D01*
X043497Y000492D01*
X000190Y000492D01*
D11*
X023548Y003878D03*
X024548Y003878D03*
X028903Y003878D03*
X029903Y003878D03*
X033233Y003878D03*
X034233Y003878D03*
X038588Y003878D03*
X039588Y003878D03*
X034127Y002252D03*
X034127Y001252D03*
X029009Y001094D03*
X029009Y002094D03*
X024481Y002094D03*
X024481Y001094D03*
X024362Y006134D03*
X024362Y007134D03*
X027210Y008208D03*
X028210Y008208D03*
X020336Y010846D03*
X019336Y010846D03*
X022119Y011601D03*
X023655Y011887D03*
X025190Y011601D03*
X026725Y011887D03*
X026725Y010887D03*
X023655Y010887D03*
X018552Y011846D03*
X017552Y011846D03*
X016552Y010846D03*
X017552Y009846D03*
X018552Y009846D03*
D12*
X019267Y009593D03*
X017631Y009145D03*
X016647Y009145D03*
X022119Y010801D03*
X025190Y010801D03*
X022873Y009593D03*
X022599Y008913D03*
X026205Y008913D03*
X026891Y009193D03*
X030497Y009193D03*
X031143Y009193D03*
X034749Y009193D03*
X034769Y010807D03*
X034769Y011791D03*
X031163Y011791D03*
X031163Y010807D03*
X034910Y007271D03*
X034910Y006271D03*
X034910Y005271D03*
X034910Y004271D03*
X034910Y003271D03*
X033371Y003002D03*
X034910Y002271D03*
X033371Y002037D03*
X034910Y001271D03*
X033371Y001073D03*
X029765Y001073D03*
X029765Y002037D03*
X028225Y002114D03*
X029765Y003002D03*
X028225Y003114D03*
X028225Y004114D03*
X028225Y005114D03*
X028225Y006114D03*
X028225Y007114D03*
X025225Y007114D03*
X025225Y006114D03*
X025225Y005114D03*
X025225Y004114D03*
X025225Y003114D03*
X025225Y002114D03*
X025225Y001114D03*
X023686Y001083D03*
X020143Y001712D03*
X020080Y001083D03*
X016536Y001712D03*
X016536Y002697D03*
X016536Y003681D03*
X020143Y003681D03*
X020143Y002697D03*
X017631Y005539D03*
X016647Y005539D03*
X015379Y006397D03*
X011773Y006397D03*
X009867Y006397D03*
X006261Y006397D03*
X004355Y006397D03*
X000749Y006397D03*
X037910Y006271D03*
X037910Y005271D03*
X037910Y004271D03*
X037910Y003271D03*
X037910Y002271D03*
X038864Y001279D03*
X042471Y001279D03*
X037910Y007271D03*
D13*
X030469Y010530D03*
X027469Y010530D03*
X027509Y011752D03*
X030509Y011752D03*
D14*
X041206Y010031D03*
D15*
X040206Y010031D03*
X039206Y010031D03*
X038206Y010031D03*
X037206Y010031D03*
X037206Y011031D03*
X038206Y011031D03*
X039206Y011031D03*
X040206Y011031D03*
X041206Y011031D03*
D16*
X013576Y011201D03*
X008064Y011201D03*
X002552Y011201D03*
X002552Y005295D03*
X008064Y005295D03*
X013576Y005295D03*
D17*
X012277Y003445D03*
X009993Y003445D03*
X006765Y003445D03*
X004481Y003445D03*
X001253Y003445D03*
X015505Y003445D03*
X015505Y009350D03*
X012277Y009350D03*
X009993Y009350D03*
X006765Y009350D03*
X004481Y009350D03*
X001253Y009350D03*
D18*
X002552Y007500D03*
X008064Y007500D03*
X013576Y007500D03*
X013576Y001594D03*
X008064Y001594D03*
X002552Y001594D03*
D19*
X028225Y001114D03*
X037910Y001271D03*
D20*
X041529Y004429D03*
X031686Y004429D03*
X021844Y004429D03*
X021844Y008366D03*
X031686Y008366D03*
X041529Y008366D03*
D21*
X038773Y007382D03*
X038773Y006397D03*
X038773Y005413D03*
X028930Y005413D03*
X028930Y006397D03*
X028930Y007382D03*
X019088Y007382D03*
X019088Y006397D03*
X019088Y005413D03*
D22*
X023590Y008692D02*
X023590Y010001D01*
X025190Y011601D01*
X025230Y011532D01*
X026790Y009972D01*
X031110Y009972D01*
X032550Y008532D01*
X032550Y005561D01*
X034233Y003878D01*
X037198Y010031D02*
X037198Y010807D01*
X037206Y010031D02*
X037198Y010031D01*
X041206Y010031D02*
X041214Y010031D01*
X041214Y010846D01*
D23*
X023590Y008692D03*
D24*
X023853Y008569D02*
X024841Y008569D01*
X024939Y008667D02*
X023880Y008667D01*
X023880Y008634D02*
X023880Y008750D01*
X023836Y008856D01*
X023820Y008872D01*
X023820Y009905D01*
X024745Y010831D01*
X025160Y010831D01*
X025160Y010771D01*
X024730Y010771D01*
X024730Y010764D01*
X024741Y010693D01*
X024764Y010624D01*
X024797Y010560D01*
X024839Y010501D01*
X024890Y010450D01*
X024949Y010407D01*
X025013Y010374D01*
X025082Y010352D01*
X025154Y010341D01*
X025160Y010341D01*
X025160Y010771D01*
X025220Y010771D01*
X025220Y010831D01*
X025606Y010831D01*
X026695Y009742D01*
X031015Y009742D01*
X031144Y009613D01*
X031059Y009613D01*
X030905Y009549D01*
X030820Y009464D01*
X030735Y009549D01*
X030581Y009613D01*
X030414Y009613D01*
X030259Y009549D01*
X030141Y009431D01*
X030077Y009276D01*
X030077Y009109D01*
X030141Y008955D01*
X030259Y008837D01*
X030414Y008773D01*
X030581Y008773D01*
X030735Y008837D01*
X030820Y008922D01*
X030905Y008837D01*
X031059Y008773D01*
X031150Y008773D01*
X031150Y008772D01*
X031150Y008416D01*
X031636Y008416D01*
X031636Y008316D01*
X031150Y008316D01*
X031150Y007960D01*
X031160Y007922D01*
X031180Y007888D01*
X031208Y007860D01*
X031242Y007840D01*
X031280Y007830D01*
X031636Y007830D01*
X031636Y008316D01*
X031736Y008316D01*
X031736Y007830D01*
X032092Y007830D01*
X032130Y007840D01*
X032164Y007860D01*
X032192Y007888D01*
X032212Y007922D01*
X032222Y007960D01*
X032222Y008316D01*
X031736Y008316D01*
X031736Y008416D01*
X031636Y008416D01*
X031636Y008902D01*
X031446Y008902D01*
X031499Y008955D01*
X031563Y009109D01*
X031563Y009194D01*
X031854Y008902D01*
X031736Y008902D01*
X031736Y008416D01*
X032222Y008416D01*
X032222Y008534D01*
X032320Y008437D01*
X032320Y005466D01*
X033813Y003973D01*
X033813Y003704D01*
X033925Y003592D01*
X033598Y003592D01*
X033693Y003687D01*
X033693Y003848D01*
X033263Y003848D01*
X033263Y003908D01*
X033203Y003908D01*
X033203Y003848D01*
X032773Y003848D01*
X032773Y003687D01*
X032869Y003592D01*
X030267Y003592D01*
X030363Y003687D01*
X030363Y003848D01*
X029933Y003848D01*
X029933Y003908D01*
X030363Y003908D01*
X030363Y004068D01*
X030093Y004338D01*
X029933Y004338D01*
X029933Y003908D01*
X029873Y003908D01*
X029873Y004338D01*
X029712Y004338D01*
X029443Y004068D01*
X029443Y003908D01*
X029873Y003908D01*
X029873Y003848D01*
X029443Y003848D01*
X029443Y003687D01*
X029538Y003592D01*
X029211Y003592D01*
X029323Y003704D01*
X029323Y004052D01*
X029077Y004298D01*
X028729Y004298D01*
X028640Y004210D01*
X028581Y004352D01*
X028521Y004412D01*
X030065Y004412D01*
X030135Y004342D01*
X030325Y004342D01*
X030460Y004477D01*
X030460Y004667D01*
X030325Y004802D01*
X030135Y004802D01*
X030065Y004732D01*
X028401Y004732D01*
X028463Y004758D01*
X028581Y004876D01*
X028645Y005030D01*
X028645Y005052D01*
X028671Y005026D01*
X028839Y004956D01*
X029021Y004956D01*
X029189Y005026D01*
X029317Y005154D01*
X029387Y005322D01*
X029387Y005504D01*
X029317Y005672D01*
X029257Y005732D01*
X029284Y005732D01*
X029714Y005302D01*
X031355Y005302D01*
X031425Y005232D01*
X031615Y005232D01*
X031750Y005367D01*
X031750Y005557D01*
X031615Y005692D01*
X031425Y005692D01*
X031355Y005622D01*
X029846Y005622D01*
X029510Y005958D01*
X029416Y006052D01*
X029231Y006052D01*
X029317Y006139D01*
X029387Y006307D01*
X029387Y006488D01*
X029317Y006656D01*
X029189Y006785D01*
X029021Y006854D01*
X028839Y006854D01*
X028671Y006785D01*
X028543Y006656D01*
X028473Y006488D01*
X028473Y006460D01*
X028463Y006470D01*
X028309Y006534D01*
X028142Y006534D01*
X027988Y006470D01*
X027869Y006352D01*
X027805Y006198D01*
X027805Y006030D01*
X027869Y005876D01*
X027934Y005812D01*
X027404Y005812D01*
X026364Y004772D01*
X025477Y004772D01*
X025581Y004876D01*
X025645Y005030D01*
X025645Y005198D01*
X025581Y005352D01*
X025463Y005470D01*
X025309Y005534D01*
X025142Y005534D01*
X025040Y005492D01*
X024576Y005492D01*
X024856Y005772D01*
X024856Y005772D01*
X024915Y005831D01*
X024988Y005758D01*
X025142Y005694D01*
X025309Y005694D01*
X025463Y005758D01*
X025581Y005876D01*
X025645Y006030D01*
X025645Y006198D01*
X025613Y006275D01*
X026271Y006934D01*
X026365Y007027D01*
X026365Y008524D01*
X026443Y008557D01*
X026561Y008675D01*
X026625Y008829D01*
X026625Y008864D01*
X026653Y008837D01*
X026807Y008773D01*
X026974Y008773D01*
X027129Y008837D01*
X027242Y008950D01*
X027800Y008392D01*
X027790Y008382D01*
X027790Y008035D01*
X028036Y007788D01*
X028384Y007788D01*
X028630Y008035D01*
X028630Y008382D01*
X028384Y008628D01*
X028036Y008628D01*
X028026Y008619D01*
X027385Y009259D01*
X027292Y009353D01*
X027279Y009353D01*
X027247Y009431D01*
X027129Y009549D01*
X026974Y009613D01*
X026807Y009613D01*
X026653Y009549D01*
X026636Y009532D01*
X025804Y009532D01*
X024724Y008452D01*
X024630Y008358D01*
X024630Y007460D01*
X024536Y007554D01*
X024188Y007554D01*
X024070Y007436D01*
X024070Y007718D01*
X023350Y008438D01*
X023350Y008522D01*
X023426Y008446D01*
X023532Y008402D01*
X023648Y008402D01*
X023754Y008446D01*
X023836Y008528D01*
X023880Y008634D01*
X023873Y008766D02*
X025038Y008766D01*
X025136Y008864D02*
X023828Y008864D01*
X023820Y008963D02*
X025235Y008963D01*
X025333Y009061D02*
X023820Y009061D01*
X023820Y009160D02*
X025432Y009160D01*
X025530Y009258D02*
X023820Y009258D01*
X023820Y009357D02*
X025629Y009357D01*
X025727Y009455D02*
X023820Y009455D01*
X023820Y009554D02*
X026665Y009554D01*
X026792Y009372D02*
X025870Y009372D01*
X024790Y008292D01*
X024790Y005932D01*
X024350Y005492D01*
X021470Y005492D01*
X020510Y006452D01*
X020740Y006448D02*
X020740Y006547D01*
X020605Y006682D01*
X020415Y006682D01*
X020280Y006547D01*
X020280Y006357D01*
X020415Y006222D01*
X020514Y006222D01*
X021244Y005492D01*
X020216Y005492D01*
X019503Y006206D01*
X019544Y006307D01*
X019544Y006488D01*
X019475Y006656D01*
X019346Y006785D01*
X019179Y006854D01*
X018997Y006854D01*
X018829Y006785D01*
X018700Y006656D01*
X018631Y006488D01*
X018631Y006307D01*
X018700Y006139D01*
X018829Y006010D01*
X018997Y005941D01*
X019179Y005941D01*
X019275Y005981D01*
X019924Y005332D01*
X019544Y005332D01*
X019544Y005504D01*
X019475Y005672D01*
X019346Y005801D01*
X019179Y005870D01*
X018997Y005870D01*
X018898Y005829D01*
X018547Y006180D01*
X018550Y008626D01*
X019122Y009198D01*
X019183Y009173D01*
X019350Y009173D01*
X019505Y009237D01*
X019623Y009355D01*
X019687Y009509D01*
X019687Y009676D01*
X019623Y009831D01*
X019505Y009949D01*
X019350Y010013D01*
X019183Y010013D01*
X019029Y009949D01*
X018972Y009892D01*
X018972Y010020D01*
X018726Y010266D01*
X018378Y010266D01*
X018132Y010020D01*
X018132Y009672D01*
X018378Y009426D01*
X018726Y009426D01*
X018847Y009547D01*
X018847Y009509D01*
X018886Y009414D01*
X018277Y008805D01*
X018230Y008758D01*
X018230Y008692D01*
X018228Y006854D01*
X016147Y008934D01*
X016227Y009125D01*
X016227Y009062D01*
X016291Y008908D01*
X016409Y008789D01*
X016563Y008725D01*
X016730Y008725D01*
X016885Y008789D01*
X017003Y008908D01*
X017067Y009062D01*
X017067Y009229D01*
X017003Y009383D01*
X016885Y009502D01*
X016730Y009565D01*
X016563Y009565D01*
X016409Y009502D01*
X016291Y009383D01*
X016258Y009304D01*
X016258Y009500D01*
X016143Y009777D01*
X015931Y009989D01*
X015924Y009992D01*
X016368Y010436D01*
X016378Y010426D01*
X016726Y010426D01*
X016972Y010672D01*
X016972Y010686D01*
X018916Y010686D01*
X018916Y010672D01*
X019162Y010426D01*
X019510Y010426D01*
X019756Y010672D01*
X019756Y011020D01*
X019524Y011252D01*
X020091Y011252D01*
X019876Y011037D01*
X019876Y010876D01*
X020306Y010876D01*
X020306Y010816D01*
X020366Y010816D01*
X020366Y010386D01*
X020526Y010386D01*
X020796Y010656D01*
X020796Y010780D01*
X021714Y009862D01*
X022548Y009862D01*
X022517Y009831D01*
X022453Y009676D01*
X022453Y009509D01*
X022517Y009355D01*
X022539Y009333D01*
X022515Y009333D01*
X022361Y009269D01*
X022243Y009151D01*
X022179Y008996D01*
X022179Y008902D01*
X021894Y008902D01*
X021894Y008416D01*
X022380Y008416D01*
X022380Y008549D01*
X022515Y008493D01*
X022682Y008493D01*
X022837Y008557D01*
X022955Y008675D01*
X023019Y008829D01*
X023019Y008996D01*
X023018Y008997D01*
X023030Y008986D01*
X023030Y008306D01*
X023750Y007586D01*
X023750Y006519D01*
X023844Y006426D01*
X023952Y006318D01*
X023942Y006308D01*
X023942Y005960D01*
X024188Y005714D01*
X024345Y005714D01*
X024284Y005652D01*
X021536Y005652D01*
X020740Y006448D01*
X020740Y006500D02*
X023769Y006500D01*
X023750Y006599D02*
X020688Y006599D01*
X020786Y006402D02*
X023867Y006402D01*
X023942Y006303D02*
X020885Y006303D01*
X020983Y006205D02*
X023942Y006205D01*
X023942Y006106D02*
X021082Y006106D01*
X021180Y006008D02*
X023942Y006008D01*
X023992Y005909D02*
X021279Y005909D01*
X021377Y005811D02*
X024091Y005811D01*
X024344Y005712D02*
X021476Y005712D01*
X021220Y005515D02*
X020193Y005515D01*
X020094Y005614D02*
X021122Y005614D01*
X021023Y005712D02*
X019996Y005712D01*
X019897Y005811D02*
X020925Y005811D01*
X020826Y005909D02*
X019799Y005909D01*
X019700Y006008D02*
X020728Y006008D01*
X020629Y006106D02*
X019602Y006106D01*
X019503Y006205D02*
X020531Y006205D01*
X020333Y006303D02*
X019543Y006303D01*
X019544Y006402D02*
X020280Y006402D01*
X020280Y006500D02*
X019539Y006500D01*
X019499Y006599D02*
X020332Y006599D01*
X019434Y006697D02*
X023750Y006697D01*
X023750Y006796D02*
X019319Y006796D01*
X019278Y006921D02*
X019348Y006957D01*
X019411Y007003D01*
X019467Y007058D01*
X019513Y007121D01*
X019548Y007191D01*
X019572Y007265D01*
X019583Y007333D01*
X019136Y007333D01*
X019136Y006886D01*
X019204Y006897D01*
X019278Y006921D01*
X019187Y006894D02*
X023750Y006894D01*
X023750Y006993D02*
X019398Y006993D01*
X019491Y007091D02*
X023750Y007091D01*
X023750Y007190D02*
X019548Y007190D01*
X019576Y007288D02*
X023750Y007288D01*
X023750Y007387D02*
X019136Y007387D01*
X019136Y007430D02*
X019583Y007430D01*
X019572Y007498D01*
X019548Y007572D01*
X019513Y007642D01*
X019467Y007705D01*
X019411Y007761D01*
X019348Y007807D01*
X019278Y007842D01*
X019204Y007866D01*
X019136Y007877D01*
X019136Y007430D01*
X019136Y007333D01*
X019039Y007333D01*
X019039Y006886D01*
X018971Y006897D01*
X018897Y006921D01*
X018827Y006957D01*
X018764Y007003D01*
X018709Y007058D01*
X018663Y007121D01*
X018627Y007191D01*
X018603Y007265D01*
X018592Y007333D01*
X019039Y007333D01*
X019039Y007430D01*
X018592Y007430D01*
X018603Y007498D01*
X018627Y007572D01*
X018663Y007642D01*
X018709Y007705D01*
X018764Y007761D01*
X018827Y007807D01*
X018897Y007842D01*
X018971Y007866D01*
X019039Y007877D01*
X019039Y007430D01*
X019136Y007430D01*
X019136Y007485D02*
X019039Y007485D01*
X019039Y007387D02*
X018548Y007387D01*
X018549Y007485D02*
X018601Y007485D01*
X018633Y007584D02*
X018549Y007584D01*
X018549Y007682D02*
X018692Y007682D01*
X018792Y007781D02*
X018549Y007781D01*
X018549Y007879D02*
X021345Y007879D01*
X021337Y007888D02*
X021365Y007860D01*
X021399Y007840D01*
X021438Y007830D01*
X021794Y007830D01*
X021794Y008316D01*
X021894Y008316D01*
X021894Y008416D01*
X021794Y008416D01*
X021794Y008902D01*
X021438Y008902D01*
X021399Y008892D01*
X021365Y008872D01*
X021337Y008844D01*
X021318Y008810D01*
X021307Y008772D01*
X021307Y008416D01*
X021794Y008416D01*
X021794Y008316D01*
X021307Y008316D01*
X021307Y007960D01*
X021318Y007922D01*
X021337Y007888D01*
X021307Y007978D02*
X018549Y007978D01*
X018549Y008076D02*
X021307Y008076D01*
X021307Y008175D02*
X018549Y008175D01*
X018549Y008273D02*
X021307Y008273D01*
X021794Y008273D02*
X021894Y008273D01*
X021894Y008316D02*
X021894Y007830D01*
X022250Y007830D01*
X022288Y007840D01*
X022322Y007860D01*
X022350Y007888D01*
X022370Y007922D01*
X022380Y007960D01*
X022380Y008316D01*
X021894Y008316D01*
X021894Y008372D02*
X023030Y008372D01*
X023030Y008470D02*
X022380Y008470D01*
X022849Y008569D02*
X023030Y008569D01*
X023030Y008667D02*
X022948Y008667D01*
X022993Y008766D02*
X023030Y008766D01*
X023019Y008864D02*
X023030Y008864D01*
X023019Y008963D02*
X023030Y008963D01*
X023190Y009052D02*
X023190Y008372D01*
X023910Y007652D01*
X023910Y006586D01*
X024362Y006134D01*
X024895Y005811D02*
X024934Y005811D01*
X024797Y005712D02*
X025097Y005712D01*
X025097Y005515D02*
X024600Y005515D01*
X024698Y005614D02*
X027206Y005614D01*
X027304Y005712D02*
X025354Y005712D01*
X025516Y005811D02*
X027403Y005811D01*
X027470Y005652D02*
X026430Y004612D01*
X025110Y004612D01*
X024550Y005172D01*
X019329Y005172D01*
X019088Y005413D01*
X018387Y006114D01*
X018390Y008692D01*
X019267Y009569D01*
X019267Y009593D01*
X019656Y009751D02*
X022484Y009751D01*
X022453Y009652D02*
X019687Y009652D01*
X019687Y009554D02*
X022453Y009554D01*
X022475Y009455D02*
X019665Y009455D01*
X019624Y009357D02*
X022516Y009357D01*
X022351Y009258D02*
X019527Y009258D01*
X019084Y009160D02*
X022252Y009160D01*
X022206Y009061D02*
X018986Y009061D01*
X018887Y008963D02*
X022179Y008963D01*
X021894Y008864D02*
X021794Y008864D01*
X021794Y008766D02*
X021894Y008766D01*
X021894Y008667D02*
X021794Y008667D01*
X021794Y008569D02*
X021894Y008569D01*
X021894Y008470D02*
X021794Y008470D01*
X021794Y008372D02*
X018550Y008372D01*
X018550Y008470D02*
X021307Y008470D01*
X021307Y008569D02*
X018550Y008569D01*
X018592Y008667D02*
X021307Y008667D01*
X021307Y008766D02*
X018690Y008766D01*
X018789Y008864D02*
X021357Y008864D01*
X022380Y008273D02*
X023062Y008273D01*
X023161Y008175D02*
X022380Y008175D01*
X022380Y008076D02*
X023259Y008076D01*
X023358Y007978D02*
X022380Y007978D01*
X022342Y007879D02*
X023456Y007879D01*
X023555Y007781D02*
X019383Y007781D01*
X019483Y007682D02*
X023653Y007682D01*
X023750Y007584D02*
X019542Y007584D01*
X019574Y007485D02*
X023750Y007485D01*
X024070Y007485D02*
X024120Y007485D01*
X024070Y007584D02*
X024630Y007584D01*
X024630Y007682D02*
X024070Y007682D01*
X024007Y007781D02*
X024630Y007781D01*
X024630Y007879D02*
X023909Y007879D01*
X023810Y007978D02*
X024630Y007978D01*
X024630Y008076D02*
X023712Y008076D01*
X023613Y008175D02*
X024630Y008175D01*
X024630Y008273D02*
X023515Y008273D01*
X023416Y008372D02*
X024644Y008372D01*
X024742Y008470D02*
X023779Y008470D01*
X023401Y008470D02*
X023350Y008470D01*
X021894Y008175D02*
X021794Y008175D01*
X021794Y008076D02*
X021894Y008076D01*
X021894Y007978D02*
X021794Y007978D01*
X021794Y007879D02*
X021894Y007879D01*
X024604Y007485D02*
X024630Y007485D01*
X024950Y007485D02*
X025025Y007485D01*
X024988Y007470D02*
X025142Y007534D01*
X025309Y007534D01*
X025463Y007470D01*
X025581Y007352D01*
X025645Y007198D01*
X025645Y007030D01*
X025581Y006876D01*
X025463Y006758D01*
X025309Y006694D01*
X025142Y006694D01*
X024988Y006758D01*
X024950Y006795D01*
X024950Y006433D01*
X024988Y006470D01*
X025142Y006534D01*
X025309Y006534D01*
X025387Y006502D01*
X026045Y007160D01*
X026045Y008524D01*
X025967Y008557D01*
X025849Y008675D01*
X025785Y008829D01*
X025785Y008996D01*
X025831Y009106D01*
X024950Y008226D01*
X024950Y007433D01*
X024988Y007470D01*
X024950Y007584D02*
X026045Y007584D01*
X026045Y007682D02*
X024950Y007682D01*
X024950Y007781D02*
X026045Y007781D01*
X026045Y007879D02*
X024950Y007879D01*
X024950Y007978D02*
X026045Y007978D01*
X026045Y008076D02*
X024950Y008076D01*
X024950Y008175D02*
X026045Y008175D01*
X026045Y008273D02*
X024998Y008273D01*
X025096Y008372D02*
X026045Y008372D01*
X026045Y008470D02*
X025195Y008470D01*
X025293Y008569D02*
X025955Y008569D01*
X025856Y008667D02*
X025392Y008667D01*
X025490Y008766D02*
X025811Y008766D01*
X025785Y008864D02*
X025589Y008864D01*
X025687Y008963D02*
X025785Y008963D01*
X025786Y009061D02*
X025812Y009061D01*
X026205Y008913D02*
X026205Y007094D01*
X025225Y006114D01*
X025645Y006106D02*
X027805Y006106D01*
X027815Y006008D02*
X025636Y006008D01*
X025595Y005909D02*
X027856Y005909D01*
X027470Y005652D02*
X028430Y005652D01*
X028670Y005892D01*
X029350Y005892D01*
X029780Y005462D01*
X031520Y005462D01*
X031693Y005614D02*
X032320Y005614D01*
X032320Y005712D02*
X029756Y005712D01*
X029657Y005811D02*
X032320Y005811D01*
X032320Y005909D02*
X029559Y005909D01*
X029460Y006008D02*
X032320Y006008D01*
X032320Y006106D02*
X029285Y006106D01*
X029345Y006205D02*
X032320Y006205D01*
X032320Y006303D02*
X029386Y006303D01*
X029387Y006402D02*
X032320Y006402D01*
X032320Y006500D02*
X029382Y006500D01*
X029341Y006599D02*
X032320Y006599D01*
X032320Y006697D02*
X029276Y006697D01*
X029162Y006796D02*
X032320Y006796D01*
X032320Y006894D02*
X029030Y006894D01*
X029047Y006897D02*
X029121Y006921D01*
X029191Y006957D01*
X029254Y007003D01*
X029309Y007058D01*
X029355Y007121D01*
X029391Y007191D01*
X029415Y007265D01*
X029426Y007333D01*
X028979Y007333D01*
X028979Y007430D01*
X029426Y007430D01*
X029415Y007498D01*
X029391Y007572D01*
X029355Y007642D01*
X029309Y007705D01*
X029254Y007761D01*
X029191Y007807D01*
X029121Y007842D01*
X029047Y007866D01*
X028979Y007877D01*
X028979Y007430D01*
X028882Y007430D01*
X028882Y007877D01*
X028814Y007866D01*
X028739Y007842D01*
X028670Y007807D01*
X028606Y007761D01*
X028551Y007705D01*
X028505Y007642D01*
X028470Y007572D01*
X028446Y007498D01*
X028442Y007479D01*
X028309Y007534D01*
X028142Y007534D01*
X027988Y007470D01*
X027869Y007352D01*
X027805Y007198D01*
X027805Y007030D01*
X027869Y006876D01*
X027988Y006758D01*
X028142Y006694D01*
X028309Y006694D01*
X028463Y006758D01*
X028581Y006876D01*
X028628Y006987D01*
X028670Y006957D01*
X028739Y006921D01*
X028814Y006897D01*
X028882Y006886D01*
X028882Y007333D01*
X028979Y007333D01*
X028979Y006886D01*
X029047Y006897D01*
X028979Y006894D02*
X028882Y006894D01*
X028830Y006894D02*
X028589Y006894D01*
X028501Y006796D02*
X028698Y006796D01*
X028584Y006697D02*
X028317Y006697D01*
X028134Y006697D02*
X026035Y006697D01*
X025937Y006599D02*
X028519Y006599D01*
X028478Y006500D02*
X028390Y006500D01*
X028061Y006500D02*
X025838Y006500D01*
X025740Y006402D02*
X027919Y006402D01*
X027849Y006303D02*
X025641Y006303D01*
X025642Y006205D02*
X027809Y006205D01*
X027949Y006796D02*
X026134Y006796D01*
X026232Y006894D02*
X027862Y006894D01*
X027821Y006993D02*
X026331Y006993D01*
X026365Y007091D02*
X027805Y007091D01*
X027805Y007190D02*
X026365Y007190D01*
X026365Y007288D02*
X027843Y007288D01*
X027904Y007387D02*
X026365Y007387D01*
X026365Y007485D02*
X028025Y007485D01*
X028426Y007485D02*
X028444Y007485D01*
X028476Y007584D02*
X026365Y007584D01*
X026365Y007682D02*
X028535Y007682D01*
X028634Y007781D02*
X026365Y007781D01*
X026365Y007879D02*
X026945Y007879D01*
X027036Y007788D02*
X027384Y007788D01*
X027630Y008035D01*
X027630Y008382D01*
X027384Y008628D01*
X027036Y008628D01*
X026790Y008382D01*
X026790Y008035D01*
X027036Y007788D01*
X026846Y007978D02*
X026365Y007978D01*
X026365Y008076D02*
X026790Y008076D01*
X026790Y008175D02*
X026365Y008175D01*
X026365Y008273D02*
X026790Y008273D01*
X026790Y008372D02*
X026365Y008372D01*
X026365Y008470D02*
X026878Y008470D01*
X026976Y008569D02*
X026455Y008569D01*
X026554Y008667D02*
X027524Y008667D01*
X027443Y008569D02*
X027623Y008569D01*
X027542Y008470D02*
X027721Y008470D01*
X027790Y008372D02*
X027630Y008372D01*
X027630Y008273D02*
X027790Y008273D01*
X027790Y008175D02*
X027630Y008175D01*
X027630Y008076D02*
X027790Y008076D01*
X027846Y007978D02*
X027573Y007978D01*
X027475Y007879D02*
X027945Y007879D01*
X028475Y007879D02*
X031188Y007879D01*
X031150Y007978D02*
X028573Y007978D01*
X028630Y008076D02*
X031150Y008076D01*
X031150Y008175D02*
X028630Y008175D01*
X028630Y008273D02*
X031150Y008273D01*
X031636Y008273D02*
X031736Y008273D01*
X031736Y008175D02*
X031636Y008175D01*
X031636Y008076D02*
X031736Y008076D01*
X031736Y007978D02*
X031636Y007978D01*
X031636Y007879D02*
X031736Y007879D01*
X032184Y007879D02*
X032320Y007879D01*
X032320Y007781D02*
X029226Y007781D01*
X029326Y007682D02*
X032320Y007682D01*
X032320Y007584D02*
X029385Y007584D01*
X029417Y007485D02*
X032320Y007485D01*
X032320Y007387D02*
X028979Y007387D01*
X028979Y007485D02*
X028882Y007485D01*
X028882Y007584D02*
X028979Y007584D01*
X028979Y007682D02*
X028882Y007682D01*
X028882Y007781D02*
X028979Y007781D01*
X028210Y008208D02*
X027225Y009193D01*
X026891Y009193D01*
X026792Y009372D01*
X027116Y009554D02*
X030272Y009554D01*
X030166Y009455D02*
X027222Y009455D01*
X027277Y009357D02*
X030111Y009357D01*
X030077Y009258D02*
X027386Y009258D01*
X027484Y009160D02*
X030077Y009160D01*
X030097Y009061D02*
X027583Y009061D01*
X027681Y008963D02*
X030138Y008963D01*
X030231Y008864D02*
X027780Y008864D01*
X027878Y008766D02*
X031150Y008766D01*
X031150Y008667D02*
X027977Y008667D01*
X028443Y008569D02*
X031150Y008569D01*
X031150Y008470D02*
X028542Y008470D01*
X028630Y008372D02*
X031636Y008372D01*
X031636Y008470D02*
X031736Y008470D01*
X031736Y008372D02*
X032320Y008372D01*
X032320Y008273D02*
X032222Y008273D01*
X032222Y008175D02*
X032320Y008175D01*
X032320Y008076D02*
X032222Y008076D01*
X032222Y007978D02*
X032320Y007978D01*
X032780Y007978D02*
X032910Y007978D01*
X032910Y008076D02*
X032780Y008076D01*
X032780Y008175D02*
X032910Y008175D01*
X032910Y008273D02*
X032780Y008273D01*
X032780Y008372D02*
X032910Y008372D01*
X032910Y008470D02*
X032780Y008470D01*
X032780Y008569D02*
X032910Y008569D01*
X032910Y008666D02*
X032910Y005526D01*
X032780Y005656D01*
X032780Y008627D01*
X031340Y010067D01*
X031340Y010067D01*
X031205Y010202D01*
X030820Y010202D01*
X030876Y010258D01*
X030949Y010435D01*
X030949Y010441D01*
X031079Y010387D01*
X031246Y010387D01*
X031401Y010451D01*
X031519Y010569D01*
X031583Y010723D01*
X031583Y010890D01*
X031519Y011045D01*
X031401Y011163D01*
X031246Y011227D01*
X031079Y011227D01*
X030925Y011163D01*
X030807Y011045D01*
X030756Y010922D01*
X030741Y010937D01*
X030564Y011010D01*
X030373Y011010D01*
X030197Y010937D01*
X030062Y010802D01*
X029989Y010626D01*
X029989Y010435D01*
X030062Y010258D01*
X030118Y010202D01*
X027820Y010202D01*
X027876Y010258D01*
X027949Y010435D01*
X027949Y010626D01*
X027876Y010802D01*
X027741Y010937D01*
X027564Y011010D01*
X027373Y011010D01*
X027197Y010937D01*
X027185Y010925D01*
X027185Y011078D01*
X026916Y011347D01*
X026755Y011347D01*
X026755Y010917D01*
X026695Y010917D01*
X026695Y010857D01*
X026265Y010857D01*
X026265Y010822D01*
X025610Y011477D01*
X025610Y011775D01*
X025364Y012021D01*
X025016Y012021D01*
X024770Y011775D01*
X024770Y011506D01*
X024075Y010810D01*
X024075Y011061D01*
X023829Y011307D01*
X023481Y011307D01*
X023235Y011061D01*
X023235Y010713D01*
X023320Y010628D01*
X023200Y010507D01*
X023200Y010408D01*
X022974Y010182D01*
X021846Y010182D01*
X020550Y011478D01*
X020456Y011572D01*
X018872Y011572D01*
X018972Y011672D01*
X018972Y012020D01*
X018839Y012153D01*
X023270Y012153D01*
X023195Y012078D01*
X023195Y011917D01*
X023625Y011917D01*
X023625Y011857D01*
X023685Y011857D01*
X023685Y011917D01*
X024115Y011917D01*
X024115Y012078D01*
X024040Y012153D01*
X026397Y012153D01*
X026305Y012061D01*
X026305Y011713D01*
X026551Y011467D01*
X026899Y011467D01*
X027046Y011614D01*
X027102Y011480D01*
X027237Y011345D01*
X027413Y011272D01*
X027604Y011272D01*
X027781Y011345D01*
X027916Y011480D01*
X027989Y011656D01*
X027989Y011847D01*
X027916Y012024D01*
X027787Y012153D01*
X030231Y012153D01*
X030102Y012024D01*
X030029Y011847D01*
X030029Y011656D01*
X030102Y011480D01*
X030237Y011345D01*
X030413Y011272D01*
X030604Y011272D01*
X030781Y011345D01*
X030898Y011462D01*
X030925Y011435D01*
X031079Y011371D01*
X031246Y011371D01*
X031401Y011435D01*
X031519Y011553D01*
X031583Y011708D01*
X031583Y011875D01*
X031519Y012029D01*
X031401Y012147D01*
X031387Y012153D01*
X034545Y012153D01*
X034531Y012147D01*
X034413Y012029D01*
X034349Y011875D01*
X034349Y011708D01*
X034413Y011553D01*
X034531Y011435D01*
X034686Y011371D01*
X034853Y011371D01*
X035007Y011435D01*
X035125Y011553D01*
X035189Y011708D01*
X035189Y011875D01*
X035125Y012029D01*
X035007Y012147D01*
X034993Y012153D01*
X043347Y012153D01*
X043347Y000642D01*
X037507Y000642D01*
X037717Y000851D01*
X038266Y000851D01*
X038330Y000916D01*
X038330Y001485D01*
X038447Y001369D01*
X038444Y001363D01*
X038444Y001196D01*
X038508Y001041D01*
X038626Y000923D01*
X038781Y000859D01*
X038948Y000859D01*
X039102Y000923D01*
X039220Y001041D01*
X039284Y001196D01*
X039284Y001363D01*
X039220Y001517D01*
X039102Y001635D01*
X038948Y001699D01*
X038781Y001699D01*
X038631Y001637D01*
X038470Y001798D01*
X038376Y001892D01*
X038092Y001892D01*
X038148Y001915D01*
X038267Y002034D01*
X038330Y002188D01*
X038330Y002355D01*
X038267Y002509D01*
X038148Y002628D01*
X037994Y002691D01*
X037827Y002691D01*
X037673Y002628D01*
X037554Y002509D01*
X037490Y002355D01*
X037490Y002188D01*
X037554Y002034D01*
X037673Y001915D01*
X037729Y001892D01*
X035516Y001892D01*
X035298Y002110D01*
X035330Y002188D01*
X035330Y002355D01*
X035267Y002509D01*
X035244Y002532D01*
X037397Y002532D01*
X037749Y002884D01*
X037827Y002851D01*
X037994Y002851D01*
X038148Y002915D01*
X038267Y003034D01*
X038330Y003188D01*
X038330Y003355D01*
X038267Y003509D01*
X038148Y003628D01*
X037994Y003691D01*
X037827Y003691D01*
X037673Y003628D01*
X037554Y003509D01*
X037490Y003355D01*
X037490Y003188D01*
X037523Y003110D01*
X037265Y002852D01*
X035100Y002852D01*
X035152Y002878D01*
X035210Y002921D01*
X035261Y002972D01*
X035304Y003030D01*
X035337Y003095D01*
X035359Y003164D01*
X035370Y003235D01*
X035370Y003241D01*
X034940Y003241D01*
X034940Y003301D01*
X035370Y003301D01*
X035370Y003308D01*
X035359Y003379D01*
X035337Y003448D01*
X035304Y003513D01*
X035290Y003532D01*
X036736Y003532D01*
X037490Y004286D01*
X037490Y004188D01*
X037554Y004034D01*
X037673Y003915D01*
X037827Y003851D01*
X037994Y003851D01*
X038148Y003915D01*
X038168Y003935D01*
X038168Y003704D01*
X038414Y003458D01*
X038762Y003458D01*
X039008Y003704D01*
X039008Y004052D01*
X038762Y004298D01*
X038414Y004298D01*
X038330Y004215D01*
X038330Y004355D01*
X038267Y004509D01*
X038204Y004572D01*
X039136Y004572D01*
X039516Y004952D01*
X039516Y004952D01*
X039610Y005046D01*
X039610Y005714D01*
X039610Y005780D01*
X039610Y005781D01*
X039563Y005828D01*
X039188Y006206D01*
X039230Y006307D01*
X039230Y006488D01*
X039160Y006656D01*
X039031Y006785D01*
X038864Y006854D01*
X038682Y006854D01*
X038514Y006785D01*
X038385Y006656D01*
X038316Y006488D01*
X038316Y006390D01*
X038267Y006509D01*
X038148Y006628D01*
X037994Y006691D01*
X037827Y006691D01*
X037673Y006628D01*
X037554Y006509D01*
X037490Y006355D01*
X037490Y006188D01*
X037554Y006034D01*
X037673Y005915D01*
X037827Y005851D01*
X037994Y005851D01*
X038148Y005915D01*
X038267Y006034D01*
X038330Y006188D01*
X038330Y006271D01*
X038385Y006139D01*
X038514Y006010D01*
X038682Y005941D01*
X038864Y005941D01*
X038961Y005981D01*
X039290Y005649D01*
X039290Y005178D01*
X039004Y004892D01*
X038092Y004892D01*
X038148Y004915D01*
X038267Y005034D01*
X038330Y005188D01*
X038330Y005287D01*
X038385Y005154D01*
X038514Y005026D01*
X038682Y004956D01*
X038864Y004956D01*
X039031Y005026D01*
X039160Y005154D01*
X039230Y005322D01*
X039230Y005504D01*
X039160Y005672D01*
X039031Y005801D01*
X038864Y005870D01*
X038682Y005870D01*
X038514Y005801D01*
X038385Y005672D01*
X038316Y005504D01*
X038316Y005390D01*
X038267Y005509D01*
X038148Y005628D01*
X037994Y005691D01*
X037827Y005691D01*
X037673Y005628D01*
X037554Y005509D01*
X037522Y005431D01*
X036503Y005431D01*
X035434Y004362D01*
X035335Y004362D01*
X035330Y004357D01*
X035267Y004509D01*
X035148Y004628D01*
X034994Y004691D01*
X034827Y004691D01*
X034673Y004628D01*
X034554Y004509D01*
X034490Y004355D01*
X034490Y004215D01*
X034407Y004298D01*
X034139Y004298D01*
X033325Y005111D01*
X034522Y005111D01*
X034554Y005034D01*
X034673Y004915D01*
X034827Y004851D01*
X034994Y004851D01*
X035148Y004915D01*
X035267Y005034D01*
X035330Y005188D01*
X035330Y005355D01*
X035267Y005509D01*
X035148Y005628D01*
X034994Y005691D01*
X034827Y005691D01*
X034673Y005628D01*
X034554Y005509D01*
X034522Y005431D01*
X033437Y005431D01*
X033230Y005638D01*
X033230Y008798D01*
X032380Y009648D01*
X032380Y009747D01*
X032245Y009882D01*
X032055Y009882D01*
X031920Y009747D01*
X031920Y009557D01*
X032055Y009422D01*
X032154Y009422D01*
X032910Y008666D01*
X032908Y008667D02*
X032740Y008667D01*
X032810Y008766D02*
X032641Y008766D01*
X032711Y008864D02*
X032543Y008864D01*
X032613Y008963D02*
X032444Y008963D01*
X032514Y009061D02*
X032346Y009061D01*
X032416Y009160D02*
X032247Y009160D01*
X032317Y009258D02*
X032149Y009258D01*
X032219Y009357D02*
X032050Y009357D01*
X032021Y009455D02*
X031952Y009455D01*
X031923Y009554D02*
X031853Y009554D01*
X031920Y009652D02*
X031755Y009652D01*
X031656Y009751D02*
X031924Y009751D01*
X032022Y009849D02*
X031558Y009849D01*
X031459Y009948D02*
X036766Y009948D01*
X036766Y010046D02*
X031361Y010046D01*
X031262Y010145D02*
X036766Y010145D01*
X036766Y010214D02*
X036766Y009849D01*
X037023Y009591D01*
X037388Y009591D01*
X037646Y009849D01*
X037646Y010214D01*
X037428Y010431D01*
X037428Y010631D01*
X037646Y010849D01*
X037646Y011214D01*
X037388Y011471D01*
X037023Y011471D01*
X036766Y011214D01*
X036766Y010849D01*
X036968Y010647D01*
X036968Y010416D01*
X036766Y010214D01*
X036796Y010243D02*
X030861Y010243D01*
X030911Y010342D02*
X036894Y010342D01*
X036968Y010440D02*
X034982Y010440D01*
X035007Y010451D02*
X035125Y010569D01*
X035189Y010723D01*
X035189Y010890D01*
X035125Y011045D01*
X035007Y011163D01*
X034853Y011227D01*
X034686Y011227D01*
X034531Y011163D01*
X034413Y011045D01*
X034349Y010890D01*
X034349Y010723D01*
X034413Y010569D01*
X034531Y010451D01*
X034686Y010387D01*
X034853Y010387D01*
X035007Y010451D01*
X035095Y010539D02*
X036968Y010539D01*
X036968Y010637D02*
X035153Y010637D01*
X035189Y010736D02*
X036879Y010736D01*
X036780Y010834D02*
X035189Y010834D01*
X035171Y010933D02*
X036766Y010933D01*
X036766Y011031D02*
X035131Y011031D01*
X035040Y011130D02*
X036766Y011130D01*
X036781Y011228D02*
X027035Y011228D01*
X027133Y011130D02*
X030892Y011130D01*
X030801Y011031D02*
X027185Y011031D01*
X027185Y010933D02*
X027193Y010933D01*
X026755Y010933D02*
X026695Y010933D01*
X026695Y010917D02*
X026695Y011347D01*
X026535Y011347D01*
X026265Y011078D01*
X026265Y010917D01*
X026695Y010917D01*
X026695Y010857D02*
X026755Y010857D01*
X026755Y010427D01*
X026916Y010427D01*
X026989Y010500D01*
X026989Y010435D01*
X027062Y010258D01*
X027118Y010202D01*
X026885Y010202D01*
X026660Y010427D01*
X026695Y010427D01*
X026695Y010857D01*
X026695Y010834D02*
X026755Y010834D01*
X026755Y010736D02*
X026695Y010736D01*
X026695Y010637D02*
X026755Y010637D01*
X026755Y010539D02*
X026695Y010539D01*
X026695Y010440D02*
X026755Y010440D01*
X026745Y010342D02*
X027027Y010342D01*
X026989Y010440D02*
X026929Y010440D01*
X026844Y010243D02*
X027077Y010243D01*
X027861Y010243D02*
X030077Y010243D01*
X030027Y010342D02*
X027911Y010342D01*
X027949Y010440D02*
X029989Y010440D01*
X029989Y010539D02*
X027949Y010539D01*
X027944Y010637D02*
X029994Y010637D01*
X030035Y010736D02*
X027903Y010736D01*
X027843Y010834D02*
X030094Y010834D01*
X030193Y010933D02*
X027745Y010933D01*
X026755Y011031D02*
X026695Y011031D01*
X026695Y011130D02*
X026755Y011130D01*
X026755Y011228D02*
X026695Y011228D01*
X026695Y011327D02*
X026755Y011327D01*
X026936Y011327D02*
X027280Y011327D01*
X027156Y011425D02*
X025662Y011425D01*
X025610Y011524D02*
X026495Y011524D01*
X026396Y011622D02*
X025610Y011622D01*
X025610Y011721D02*
X026305Y011721D01*
X026305Y011819D02*
X025565Y011819D01*
X025467Y011918D02*
X026305Y011918D01*
X026305Y012016D02*
X025368Y012016D01*
X025012Y012016D02*
X024115Y012016D01*
X024115Y011918D02*
X024913Y011918D01*
X024815Y011819D02*
X024115Y011819D01*
X024115Y011857D02*
X023685Y011857D01*
X023685Y011427D01*
X023845Y011427D01*
X024115Y011697D01*
X024115Y011857D01*
X024115Y011721D02*
X024770Y011721D01*
X024770Y011622D02*
X024040Y011622D01*
X023942Y011524D02*
X024770Y011524D01*
X024690Y011425D02*
X022579Y011425D01*
X022579Y011410D02*
X022335Y011166D01*
X022357Y011157D01*
X022475Y011039D01*
X022539Y010884D01*
X022539Y010717D01*
X022475Y010563D01*
X022357Y010445D01*
X022203Y010381D01*
X022036Y010381D01*
X021881Y010445D01*
X021763Y010563D01*
X021699Y010717D01*
X021699Y010884D01*
X021763Y011039D01*
X021881Y011157D01*
X021903Y011166D01*
X021659Y011410D01*
X021659Y011571D01*
X022089Y011571D01*
X022089Y011631D01*
X022089Y012061D01*
X021929Y012061D01*
X021659Y011791D01*
X021659Y011631D01*
X022089Y011631D01*
X022149Y011631D01*
X022149Y012061D01*
X022310Y012061D01*
X022579Y011791D01*
X022579Y011631D01*
X022149Y011631D01*
X022149Y011571D01*
X022579Y011571D01*
X022579Y011410D01*
X022579Y011524D02*
X023368Y011524D01*
X023464Y011427D02*
X023625Y011427D01*
X023625Y011857D01*
X023195Y011857D01*
X023195Y011697D01*
X023464Y011427D01*
X023625Y011524D02*
X023685Y011524D01*
X023685Y011622D02*
X023625Y011622D01*
X023625Y011721D02*
X023685Y011721D01*
X023685Y011819D02*
X023625Y011819D01*
X023269Y011622D02*
X022149Y011622D01*
X022089Y011622D02*
X018922Y011622D01*
X018972Y011721D02*
X021659Y011721D01*
X021687Y011819D02*
X018972Y011819D01*
X018972Y011918D02*
X021786Y011918D01*
X021884Y012016D02*
X018972Y012016D01*
X018877Y012115D02*
X023232Y012115D01*
X023195Y012016D02*
X022354Y012016D01*
X022452Y011918D02*
X023195Y011918D01*
X023195Y011819D02*
X022551Y011819D01*
X022579Y011721D02*
X023195Y011721D01*
X024078Y012115D02*
X026359Y012115D01*
X027825Y012115D02*
X030193Y012115D01*
X030099Y012016D02*
X027919Y012016D01*
X027960Y011918D02*
X030058Y011918D01*
X030029Y011819D02*
X027989Y011819D01*
X027989Y011721D02*
X030029Y011721D01*
X030043Y011622D02*
X027975Y011622D01*
X027934Y011524D02*
X030084Y011524D01*
X030156Y011425D02*
X027861Y011425D01*
X027738Y011327D02*
X030280Y011327D01*
X030738Y011327D02*
X036879Y011327D01*
X036978Y011425D02*
X034984Y011425D01*
X035096Y011524D02*
X043347Y011524D01*
X043347Y011622D02*
X035154Y011622D01*
X035189Y011721D02*
X043347Y011721D01*
X043347Y011819D02*
X035189Y011819D01*
X035171Y011918D02*
X043347Y011918D01*
X043347Y012016D02*
X035130Y012016D01*
X035039Y012115D02*
X043347Y012115D01*
X043347Y011425D02*
X041434Y011425D01*
X041388Y011471D02*
X041023Y011471D01*
X040766Y011214D01*
X040766Y010849D01*
X040984Y010631D01*
X040984Y010416D01*
X040957Y010404D01*
X040833Y010281D01*
X040766Y010119D01*
X040766Y009944D01*
X040833Y009782D01*
X040957Y009658D01*
X041118Y009591D01*
X041293Y009591D01*
X041455Y009658D01*
X041579Y009782D01*
X041646Y009944D01*
X041646Y010119D01*
X041579Y010281D01*
X041455Y010404D01*
X041444Y010409D01*
X041444Y010647D01*
X041646Y010849D01*
X041646Y011214D01*
X041388Y011471D01*
X041532Y011327D02*
X043347Y011327D01*
X043347Y011228D02*
X041631Y011228D01*
X041646Y011130D02*
X043347Y011130D01*
X043347Y011031D02*
X041646Y011031D01*
X041646Y010933D02*
X043347Y010933D01*
X043347Y010834D02*
X041631Y010834D01*
X041533Y010736D02*
X043347Y010736D01*
X043347Y010637D02*
X041444Y010637D01*
X041444Y010539D02*
X043347Y010539D01*
X043347Y010440D02*
X041444Y010440D01*
X041517Y010342D02*
X043347Y010342D01*
X043347Y010243D02*
X041594Y010243D01*
X041635Y010145D02*
X043347Y010145D01*
X043347Y010046D02*
X041646Y010046D01*
X041646Y009948D02*
X043347Y009948D01*
X043347Y009849D02*
X041607Y009849D01*
X041548Y009751D02*
X043347Y009751D01*
X043347Y009652D02*
X041441Y009652D01*
X040971Y009652D02*
X040506Y009652D01*
X040407Y009554D02*
X043347Y009554D01*
X043347Y009455D02*
X035080Y009455D01*
X035105Y009431D02*
X034987Y009549D01*
X034833Y009613D01*
X034666Y009613D01*
X034511Y009549D01*
X034393Y009431D01*
X034329Y009276D01*
X034329Y009109D01*
X034393Y008955D01*
X034511Y008837D01*
X034666Y008773D01*
X034833Y008773D01*
X034987Y008837D01*
X035105Y008955D01*
X035137Y009033D01*
X035923Y009033D01*
X037523Y007433D01*
X037490Y007355D01*
X037490Y007188D01*
X037554Y007034D01*
X037673Y006915D01*
X037827Y006851D01*
X037994Y006851D01*
X038148Y006915D01*
X038267Y007034D01*
X038323Y007170D01*
X038348Y007121D01*
X038394Y007058D01*
X038449Y007003D01*
X038512Y006957D01*
X038582Y006921D01*
X038656Y006897D01*
X038724Y006886D01*
X038724Y007333D01*
X038821Y007333D01*
X038821Y006886D01*
X038889Y006897D01*
X038963Y006921D01*
X039033Y006957D01*
X039096Y007003D01*
X039152Y007058D01*
X039198Y007121D01*
X039233Y007191D01*
X039257Y007265D01*
X039268Y007333D01*
X038821Y007333D01*
X038821Y007430D01*
X039268Y007430D01*
X039257Y007498D01*
X039233Y007572D01*
X039198Y007642D01*
X039152Y007705D01*
X039096Y007761D01*
X039033Y007807D01*
X038963Y007842D01*
X038889Y007866D01*
X038821Y007877D01*
X038821Y007430D01*
X038724Y007430D01*
X038724Y007877D01*
X038656Y007866D01*
X038582Y007842D01*
X038512Y007807D01*
X038449Y007761D01*
X038394Y007705D01*
X038348Y007642D01*
X038312Y007572D01*
X038288Y007498D01*
X038283Y007469D01*
X038267Y007509D01*
X038148Y007628D01*
X037994Y007691D01*
X037827Y007691D01*
X037749Y007659D01*
X036149Y009259D01*
X036055Y009353D01*
X035137Y009353D01*
X035105Y009431D01*
X035136Y009357D02*
X043347Y009357D01*
X043347Y009258D02*
X036150Y009258D01*
X036248Y009160D02*
X043347Y009160D01*
X043347Y009061D02*
X036347Y009061D01*
X036445Y008963D02*
X043347Y008963D01*
X043347Y008864D02*
X042015Y008864D01*
X042007Y008872D02*
X041973Y008892D01*
X041935Y008902D01*
X041579Y008902D01*
X041579Y008416D01*
X042065Y008416D01*
X042065Y008772D01*
X042055Y008810D01*
X042035Y008844D01*
X042007Y008872D01*
X042065Y008766D02*
X043347Y008766D01*
X043347Y008667D02*
X042065Y008667D01*
X042065Y008569D02*
X043347Y008569D01*
X043347Y008470D02*
X042065Y008470D01*
X041579Y008470D02*
X041479Y008470D01*
X041479Y008416D02*
X041479Y008902D01*
X041123Y008902D01*
X041084Y008892D01*
X041050Y008872D01*
X041022Y008844D01*
X041003Y008810D01*
X040992Y008772D01*
X040992Y008416D01*
X041479Y008416D01*
X041579Y008416D01*
X041579Y008316D01*
X042065Y008316D01*
X042065Y007960D01*
X042055Y007922D01*
X042035Y007888D01*
X042007Y007860D01*
X041973Y007840D01*
X041935Y007830D01*
X041579Y007830D01*
X041579Y008316D01*
X041479Y008316D01*
X041479Y007830D01*
X041123Y007830D01*
X041084Y007840D01*
X041050Y007860D01*
X041022Y007888D01*
X041003Y007922D01*
X040992Y007960D01*
X040992Y008316D01*
X041479Y008316D01*
X041479Y008416D01*
X041479Y008372D02*
X037036Y008372D01*
X036938Y008470D02*
X040992Y008470D01*
X040992Y008569D02*
X036839Y008569D01*
X036741Y008667D02*
X040992Y008667D01*
X040992Y008766D02*
X036642Y008766D01*
X036544Y008864D02*
X041043Y008864D01*
X041479Y008864D02*
X041579Y008864D01*
X041579Y008766D02*
X041479Y008766D01*
X041479Y008667D02*
X041579Y008667D01*
X041579Y008569D02*
X041479Y008569D01*
X041579Y008372D02*
X043347Y008372D01*
X043347Y008273D02*
X042065Y008273D01*
X042065Y008175D02*
X043347Y008175D01*
X043347Y008076D02*
X042065Y008076D01*
X042065Y007978D02*
X043347Y007978D01*
X043347Y007879D02*
X042027Y007879D01*
X041579Y007879D02*
X041479Y007879D01*
X041479Y007978D02*
X041579Y007978D01*
X041579Y008076D02*
X041479Y008076D01*
X041479Y008175D02*
X041579Y008175D01*
X041579Y008273D02*
X041479Y008273D01*
X040992Y008273D02*
X037135Y008273D01*
X037233Y008175D02*
X040992Y008175D01*
X040992Y008076D02*
X037332Y008076D01*
X037430Y007978D02*
X040992Y007978D01*
X041031Y007879D02*
X037529Y007879D01*
X037627Y007781D02*
X038477Y007781D01*
X038377Y007682D02*
X038016Y007682D01*
X038192Y007584D02*
X038318Y007584D01*
X038286Y007485D02*
X038276Y007485D01*
X038724Y007485D02*
X038821Y007485D01*
X038821Y007387D02*
X043347Y007387D01*
X043347Y007485D02*
X039259Y007485D01*
X039227Y007584D02*
X043347Y007584D01*
X043347Y007682D02*
X039168Y007682D01*
X039068Y007781D02*
X043347Y007781D01*
X043347Y007288D02*
X039261Y007288D01*
X039233Y007190D02*
X043347Y007190D01*
X043347Y007091D02*
X039176Y007091D01*
X039083Y006993D02*
X043347Y006993D01*
X043347Y006894D02*
X038872Y006894D01*
X038821Y006894D02*
X038724Y006894D01*
X038673Y006894D02*
X038098Y006894D01*
X038226Y006993D02*
X038462Y006993D01*
X038369Y007091D02*
X038291Y007091D01*
X037910Y007271D02*
X035989Y009193D01*
X034749Y009193D01*
X034362Y009357D02*
X032671Y009357D01*
X032573Y009455D02*
X034418Y009455D01*
X034524Y009554D02*
X032474Y009554D01*
X032380Y009652D02*
X036962Y009652D01*
X036864Y009751D02*
X032376Y009751D01*
X032278Y009849D02*
X036766Y009849D01*
X037449Y009652D02*
X037906Y009652D01*
X038004Y009554D02*
X034974Y009554D01*
X034329Y009258D02*
X032770Y009258D01*
X032868Y009160D02*
X034329Y009160D01*
X034349Y009061D02*
X032967Y009061D01*
X033065Y008963D02*
X034390Y008963D01*
X034483Y008864D02*
X033164Y008864D01*
X033230Y008766D02*
X036190Y008766D01*
X036288Y008667D02*
X033230Y008667D01*
X033230Y008569D02*
X036387Y008569D01*
X036485Y008470D02*
X033230Y008470D01*
X033230Y008372D02*
X036584Y008372D01*
X036682Y008273D02*
X033230Y008273D01*
X033230Y008175D02*
X036781Y008175D01*
X036879Y008076D02*
X033230Y008076D01*
X033230Y007978D02*
X036978Y007978D01*
X037076Y007879D02*
X033230Y007879D01*
X033230Y007781D02*
X037175Y007781D01*
X037273Y007682D02*
X035016Y007682D01*
X034994Y007691D02*
X034827Y007691D01*
X034673Y007628D01*
X034554Y007509D01*
X034490Y007355D01*
X034490Y007188D01*
X034554Y007034D01*
X034673Y006915D01*
X034827Y006851D01*
X034994Y006851D01*
X035148Y006915D01*
X035267Y007034D01*
X035330Y007188D01*
X035330Y007355D01*
X035267Y007509D01*
X035148Y007628D01*
X034994Y007691D01*
X034805Y007682D02*
X033230Y007682D01*
X033230Y007584D02*
X034629Y007584D01*
X034545Y007485D02*
X033230Y007485D01*
X033230Y007387D02*
X034504Y007387D01*
X034490Y007288D02*
X033230Y007288D01*
X033230Y007190D02*
X034490Y007190D01*
X034530Y007091D02*
X033230Y007091D01*
X033230Y006993D02*
X034595Y006993D01*
X034723Y006894D02*
X033230Y006894D01*
X033230Y006796D02*
X038541Y006796D01*
X038427Y006697D02*
X033230Y006697D01*
X033230Y006599D02*
X034644Y006599D01*
X034673Y006628D02*
X034554Y006509D01*
X034490Y006355D01*
X034490Y006188D01*
X034554Y006034D01*
X034673Y005915D01*
X034827Y005851D01*
X034994Y005851D01*
X035148Y005915D01*
X035267Y006034D01*
X035330Y006188D01*
X035330Y006355D01*
X035267Y006509D01*
X035148Y006628D01*
X034994Y006691D01*
X034827Y006691D01*
X034673Y006628D01*
X034551Y006500D02*
X033230Y006500D01*
X033230Y006402D02*
X034510Y006402D01*
X034490Y006303D02*
X033230Y006303D01*
X033230Y006205D02*
X034490Y006205D01*
X034524Y006106D02*
X033230Y006106D01*
X033230Y006008D02*
X034580Y006008D01*
X034687Y005909D02*
X033230Y005909D01*
X033230Y005811D02*
X038539Y005811D01*
X038426Y005712D02*
X033230Y005712D01*
X033254Y005614D02*
X034659Y005614D01*
X034560Y005515D02*
X033353Y005515D01*
X033370Y005271D02*
X033070Y005572D01*
X033070Y008732D01*
X032150Y009652D01*
X031104Y009652D02*
X023820Y009652D01*
X023820Y009751D02*
X026686Y009751D01*
X026587Y009849D02*
X023820Y009849D01*
X023863Y009948D02*
X026489Y009948D01*
X026390Y010046D02*
X023961Y010046D01*
X024060Y010145D02*
X026292Y010145D01*
X026193Y010243D02*
X024158Y010243D01*
X024257Y010342D02*
X025145Y010342D01*
X025160Y010342D02*
X025220Y010342D01*
X025220Y010341D02*
X025226Y010341D01*
X025298Y010352D01*
X025367Y010374D01*
X025431Y010407D01*
X025490Y010450D01*
X025541Y010501D01*
X025583Y010560D01*
X025616Y010624D01*
X025639Y010693D01*
X025650Y010764D01*
X025650Y010771D01*
X025220Y010771D01*
X025220Y010341D01*
X025235Y010342D02*
X026095Y010342D01*
X025996Y010440D02*
X025477Y010440D01*
X025569Y010539D02*
X025898Y010539D01*
X025799Y010637D02*
X025621Y010637D01*
X025645Y010736D02*
X025701Y010736D01*
X025220Y010736D02*
X025160Y010736D01*
X025160Y010637D02*
X025220Y010637D01*
X025220Y010539D02*
X025160Y010539D01*
X025160Y010440D02*
X025220Y010440D01*
X024903Y010440D02*
X024355Y010440D01*
X024454Y010539D02*
X024811Y010539D01*
X024759Y010637D02*
X024552Y010637D01*
X024651Y010736D02*
X024735Y010736D01*
X024197Y010933D02*
X024075Y010933D01*
X024075Y011031D02*
X024296Y011031D01*
X024394Y011130D02*
X024006Y011130D01*
X023908Y011228D02*
X024493Y011228D01*
X024591Y011327D02*
X022496Y011327D01*
X022398Y011228D02*
X023402Y011228D01*
X023303Y011130D02*
X022384Y011130D01*
X022478Y011031D02*
X023235Y011031D01*
X023235Y010933D02*
X022519Y010933D01*
X022539Y010834D02*
X023235Y010834D01*
X023235Y010736D02*
X022539Y010736D01*
X022506Y010637D02*
X023311Y010637D01*
X023232Y010539D02*
X022451Y010539D01*
X022347Y010440D02*
X023200Y010440D01*
X023134Y010342D02*
X021686Y010342D01*
X021588Y010440D02*
X021891Y010440D01*
X021787Y010539D02*
X021489Y010539D01*
X021391Y010637D02*
X021732Y010637D01*
X021699Y010736D02*
X021292Y010736D01*
X021194Y010834D02*
X021699Y010834D01*
X021719Y010933D02*
X021095Y010933D01*
X020997Y011031D02*
X021760Y011031D01*
X021855Y011130D02*
X020898Y011130D01*
X020800Y011228D02*
X021841Y011228D01*
X021742Y011327D02*
X020701Y011327D01*
X020603Y011425D02*
X021659Y011425D01*
X021659Y011524D02*
X020504Y011524D01*
X020390Y011412D02*
X016510Y011412D01*
X015390Y010292D01*
X005423Y010292D01*
X004481Y009350D01*
X005234Y009357D02*
X006715Y009357D01*
X006715Y009400D02*
X006715Y009300D01*
X006815Y009300D01*
X006815Y009400D01*
X007558Y009400D01*
X007558Y009402D01*
X007544Y009505D01*
X007517Y009606D01*
X007477Y009702D01*
X007425Y009792D01*
X007362Y009874D01*
X007289Y009948D01*
X007206Y010011D01*
X007116Y010063D01*
X007020Y010103D01*
X006920Y010130D01*
X006902Y010132D01*
X012832Y010132D01*
X012693Y009993D01*
X012426Y010103D01*
X012127Y010103D01*
X011850Y009989D01*
X011638Y009777D01*
X011524Y009500D01*
X011524Y009200D01*
X011638Y008924D01*
X011850Y008712D01*
X012127Y008597D01*
X012426Y008597D01*
X012703Y008712D01*
X012915Y008924D01*
X013030Y009200D01*
X013030Y009500D01*
X012919Y009766D01*
X013125Y009972D01*
X015062Y009972D01*
X014867Y009777D01*
X014752Y009500D01*
X014752Y009200D01*
X014867Y008924D01*
X015078Y008712D01*
X015355Y008597D01*
X015655Y008597D01*
X015921Y008708D01*
X018021Y006607D01*
X018021Y005694D01*
X017987Y005777D01*
X017869Y005895D01*
X017714Y005959D01*
X017547Y005959D01*
X017393Y005895D01*
X017310Y005812D01*
X017310Y005918D01*
X016779Y006449D01*
X016685Y006543D01*
X015773Y006543D01*
X015735Y006635D01*
X015617Y006754D01*
X015463Y006817D01*
X015295Y006817D01*
X015141Y006754D01*
X015023Y006635D01*
X014959Y006481D01*
X014959Y006314D01*
X015023Y006160D01*
X015141Y006041D01*
X015295Y005977D01*
X015463Y005977D01*
X015617Y006041D01*
X015735Y006160D01*
X015761Y006223D01*
X016553Y006223D01*
X016804Y005972D01*
X016754Y005988D01*
X016683Y005999D01*
X016677Y005999D01*
X016677Y005569D01*
X016617Y005569D01*
X016617Y005999D01*
X016610Y005999D01*
X016539Y005988D01*
X016470Y005965D01*
X016406Y005933D01*
X016347Y005890D01*
X016296Y005839D01*
X016253Y005780D01*
X016220Y005716D01*
X016198Y005647D01*
X016187Y005575D01*
X016187Y005569D01*
X016617Y005569D01*
X016617Y005509D01*
X016677Y005509D01*
X016677Y005079D01*
X016683Y005079D01*
X016754Y005091D01*
X016823Y005113D01*
X016888Y005146D01*
X016946Y005188D01*
X016990Y005232D01*
X016990Y004386D01*
X017084Y004292D01*
X019364Y002012D01*
X019848Y002012D01*
X019787Y001950D01*
X019723Y001796D01*
X019723Y001629D01*
X019787Y001475D01*
X019832Y001429D01*
X019724Y001320D01*
X019660Y001166D01*
X019660Y000999D01*
X019724Y000845D01*
X019842Y000726D01*
X019996Y000663D01*
X020163Y000663D01*
X020318Y000726D01*
X020436Y000845D01*
X020500Y000999D01*
X020500Y001166D01*
X020436Y001320D01*
X020390Y001366D01*
X020499Y001475D01*
X020563Y001629D01*
X020563Y001773D01*
X020924Y001412D01*
X023422Y001412D01*
X023330Y001320D01*
X023266Y001166D01*
X023266Y000999D01*
X023330Y000845D01*
X023448Y000726D01*
X023603Y000663D01*
X023770Y000663D01*
X023924Y000726D01*
X024042Y000845D01*
X024070Y000912D01*
X024307Y000674D01*
X024655Y000674D01*
X024866Y000885D01*
X024869Y000876D01*
X024988Y000758D01*
X025142Y000694D01*
X025309Y000694D01*
X025463Y000758D01*
X025581Y000876D01*
X025645Y001030D01*
X025645Y001198D01*
X025581Y001352D01*
X025521Y001412D01*
X026244Y001412D01*
X026608Y001048D01*
X026608Y001048D01*
X026702Y000954D01*
X027805Y000954D01*
X027805Y000758D01*
X027870Y000694D01*
X028581Y000694D01*
X028645Y000758D01*
X028645Y000864D01*
X028835Y000674D01*
X029183Y000674D01*
X029390Y000881D01*
X029409Y000835D01*
X029527Y000717D01*
X029681Y000653D01*
X029848Y000653D01*
X030003Y000717D01*
X030121Y000835D01*
X030185Y000990D01*
X030185Y001157D01*
X030121Y001311D01*
X030075Y001357D01*
X032917Y001357D01*
X033210Y001650D01*
X033288Y001617D01*
X033455Y001617D01*
X033609Y001681D01*
X033727Y001799D01*
X033791Y001954D01*
X033791Y001994D01*
X033953Y001832D01*
X034301Y001832D01*
X034539Y002070D01*
X034554Y002034D01*
X034673Y001915D01*
X034827Y001851D01*
X034994Y001851D01*
X035072Y001884D01*
X035384Y001572D01*
X035516Y001572D01*
X037490Y001572D01*
X037490Y001078D01*
X037225Y000812D01*
X033832Y000812D01*
X033753Y000897D01*
X033791Y000990D01*
X033791Y000994D01*
X033953Y000832D01*
X034301Y000832D01*
X034539Y001070D01*
X034554Y001034D01*
X034673Y000915D01*
X034827Y000851D01*
X034994Y000851D01*
X035148Y000915D01*
X035267Y001034D01*
X035330Y001188D01*
X035330Y001355D01*
X035267Y001509D01*
X035148Y001628D01*
X034994Y001691D01*
X034827Y001691D01*
X034673Y001628D01*
X034554Y001509D01*
X034528Y001445D01*
X034301Y001672D01*
X033953Y001672D01*
X033707Y001426D01*
X033707Y001331D01*
X033609Y001429D01*
X033455Y001493D01*
X033288Y001493D01*
X033133Y001429D01*
X033015Y001311D01*
X032951Y001157D01*
X032951Y000990D01*
X033015Y000835D01*
X033133Y000717D01*
X033288Y000653D01*
X033455Y000653D01*
X033518Y000680D01*
X033553Y000642D01*
X000340Y000642D01*
X000340Y006288D01*
X000393Y006160D01*
X000511Y006041D01*
X000666Y005977D01*
X000833Y005977D01*
X000987Y006041D01*
X001105Y006160D01*
X001169Y006314D01*
X001169Y006481D01*
X001105Y006635D01*
X000987Y006754D01*
X000833Y006817D01*
X000666Y006817D01*
X000511Y006754D01*
X000393Y006635D01*
X000340Y006507D01*
X000340Y012153D01*
X017265Y012153D01*
X017132Y012020D01*
X017132Y011672D01*
X017233Y011572D01*
X016444Y011572D01*
X015324Y010452D01*
X013866Y010452D01*
X013932Y010479D01*
X014023Y010532D01*
X014106Y010596D01*
X014181Y010670D01*
X014245Y010754D01*
X014297Y010845D01*
X014338Y010942D01*
X014365Y011044D01*
X014379Y011148D01*
X014379Y011151D01*
X013626Y011151D01*
X013626Y011251D01*
X013526Y011251D01*
X013526Y012003D01*
X013523Y012003D01*
X013419Y011990D01*
X013317Y011962D01*
X013220Y011922D01*
X013129Y011870D01*
X013045Y011805D01*
X012971Y011731D01*
X012907Y011648D01*
X012854Y011556D01*
X012814Y011459D01*
X012787Y011358D01*
X012773Y011253D01*
X012773Y011251D01*
X013526Y011251D01*
X013526Y011151D01*
X012773Y011151D01*
X012773Y011148D01*
X012787Y011044D01*
X012814Y010942D01*
X012854Y010845D01*
X012907Y010754D01*
X012971Y010670D01*
X013045Y010596D01*
X013129Y010532D01*
X013220Y010479D01*
X013286Y010452D01*
X008354Y010452D01*
X008420Y010479D01*
X008511Y010532D01*
X008594Y010596D01*
X008669Y010670D01*
X008733Y010754D01*
X008786Y010845D01*
X008826Y010942D01*
X008853Y011044D01*
X008867Y011148D01*
X008867Y011151D01*
X008114Y011151D01*
X008114Y011251D01*
X008014Y011251D01*
X008014Y012003D01*
X008011Y012003D01*
X007907Y011990D01*
X007805Y011962D01*
X007708Y011922D01*
X007617Y011870D01*
X007534Y011805D01*
X007459Y011731D01*
X007395Y011648D01*
X007343Y011556D01*
X007302Y011459D01*
X007275Y011358D01*
X007261Y011253D01*
X007261Y011251D01*
X008014Y011251D01*
X008014Y011151D01*
X007261Y011151D01*
X007261Y011148D01*
X007275Y011044D01*
X007302Y010942D01*
X007343Y010845D01*
X007395Y010754D01*
X007459Y010670D01*
X007534Y010596D01*
X007617Y010532D01*
X007708Y010479D01*
X007774Y010452D01*
X005357Y010452D01*
X004898Y009993D01*
X004631Y010103D01*
X004332Y010103D01*
X004055Y009989D01*
X003843Y009777D01*
X003728Y009500D01*
X003728Y009200D01*
X003843Y008924D01*
X004055Y008712D01*
X004332Y008597D01*
X004631Y008597D01*
X004908Y008712D01*
X005120Y008924D01*
X005234Y009200D01*
X005234Y009500D01*
X005124Y009766D01*
X005489Y010132D01*
X006628Y010132D01*
X006610Y010130D01*
X006509Y010103D01*
X006413Y010063D01*
X006323Y010011D01*
X006241Y009948D01*
X005305Y009948D01*
X005207Y009849D02*
X006148Y009849D01*
X006167Y009874D02*
X006104Y009792D01*
X006052Y009702D01*
X006012Y009606D01*
X005985Y009505D01*
X005972Y009402D01*
X005972Y009400D01*
X006715Y009400D01*
X006715Y009300D02*
X005972Y009300D01*
X005972Y009298D01*
X005985Y009195D01*
X006012Y009095D01*
X006052Y008999D01*
X006104Y008909D01*
X006167Y008826D01*
X006241Y008753D01*
X006323Y008690D01*
X006413Y008638D01*
X006509Y008598D01*
X006610Y008571D01*
X006713Y008557D01*
X006715Y008557D01*
X006715Y009300D01*
X006715Y009258D02*
X006815Y009258D01*
X006815Y009300D02*
X006815Y008557D01*
X006817Y008557D01*
X006920Y008571D01*
X007020Y008598D01*
X007116Y008638D01*
X007206Y008690D01*
X007289Y008753D01*
X007362Y008826D01*
X007425Y008909D01*
X007477Y008999D01*
X007517Y009095D01*
X007544Y009195D01*
X007558Y009298D01*
X007558Y009300D01*
X006815Y009300D01*
X006815Y009357D02*
X009240Y009357D01*
X009240Y009455D02*
X007551Y009455D01*
X007531Y009554D02*
X009263Y009554D01*
X009240Y009500D02*
X009240Y009200D01*
X009355Y008924D01*
X009567Y008712D01*
X009843Y008597D01*
X010143Y008597D01*
X010420Y008712D01*
X010631Y008924D01*
X010746Y009200D01*
X010746Y009500D01*
X010631Y009777D01*
X010420Y009989D01*
X010143Y010103D01*
X009843Y010103D01*
X009567Y009989D01*
X009355Y009777D01*
X009240Y009500D01*
X009303Y009652D02*
X007498Y009652D01*
X007449Y009751D02*
X009344Y009751D01*
X009428Y009849D02*
X007381Y009849D01*
X007288Y009948D02*
X009526Y009948D01*
X009707Y010046D02*
X007145Y010046D01*
X006385Y010046D02*
X005404Y010046D01*
X005148Y010243D02*
X000340Y010243D01*
X000340Y010145D02*
X005050Y010145D01*
X004951Y010046D02*
X004768Y010046D01*
X004195Y010046D02*
X001633Y010046D01*
X001604Y010063D02*
X001508Y010103D01*
X001408Y010130D01*
X001305Y010143D01*
X001303Y010143D01*
X001303Y009400D01*
X002046Y009400D01*
X002046Y009402D01*
X002032Y009505D01*
X002005Y009606D01*
X001966Y009702D01*
X001914Y009792D01*
X001850Y009874D01*
X001777Y009948D01*
X001694Y010011D01*
X001604Y010063D01*
X001776Y009948D02*
X004014Y009948D01*
X003916Y009849D02*
X001869Y009849D01*
X001937Y009751D02*
X003832Y009751D01*
X003792Y009652D02*
X001986Y009652D01*
X002019Y009554D02*
X003751Y009554D01*
X003728Y009455D02*
X002039Y009455D01*
X002046Y009300D02*
X001303Y009300D01*
X001303Y008557D01*
X001305Y008557D01*
X001408Y008571D01*
X001508Y008598D01*
X001604Y008638D01*
X001694Y008690D01*
X001777Y008753D01*
X001850Y008826D01*
X001914Y008909D01*
X001966Y008999D01*
X002005Y009095D01*
X002032Y009195D01*
X002046Y009298D01*
X002046Y009300D01*
X002041Y009258D02*
X003728Y009258D01*
X003728Y009357D02*
X001303Y009357D01*
X001303Y009400D02*
X001303Y009300D01*
X001203Y009300D01*
X001203Y008557D01*
X001201Y008557D01*
X001098Y008571D01*
X000998Y008598D01*
X000902Y008638D01*
X000812Y008690D01*
X000729Y008753D01*
X000656Y008826D01*
X000592Y008909D01*
X000540Y008999D01*
X000501Y009095D01*
X000474Y009195D01*
X000460Y009298D01*
X000460Y009300D01*
X001203Y009300D01*
X001203Y009400D01*
X000460Y009400D01*
X000460Y009402D01*
X000474Y009505D01*
X000501Y009606D01*
X000540Y009702D01*
X000592Y009792D01*
X000656Y009874D01*
X000729Y009948D01*
X000812Y010011D01*
X000902Y010063D01*
X000998Y010103D01*
X001098Y010130D01*
X001201Y010143D01*
X001203Y010143D01*
X001203Y009400D01*
X001303Y009400D01*
X001303Y009455D02*
X001203Y009455D01*
X001203Y009357D02*
X000340Y009357D01*
X000340Y009455D02*
X000467Y009455D01*
X000487Y009554D02*
X000340Y009554D01*
X000340Y009652D02*
X000520Y009652D01*
X000569Y009751D02*
X000340Y009751D01*
X000340Y009849D02*
X000637Y009849D01*
X000730Y009948D02*
X000340Y009948D01*
X000340Y010046D02*
X000873Y010046D01*
X001203Y010046D02*
X001303Y010046D01*
X001303Y009948D02*
X001203Y009948D01*
X001203Y009849D02*
X001303Y009849D01*
X001303Y009751D02*
X001203Y009751D01*
X001203Y009652D02*
X001303Y009652D01*
X001303Y009554D02*
X001203Y009554D01*
X001203Y009258D02*
X001303Y009258D01*
X001303Y009160D02*
X001203Y009160D01*
X001203Y009061D02*
X001303Y009061D01*
X001303Y008963D02*
X001203Y008963D01*
X001203Y008864D02*
X001303Y008864D01*
X001303Y008766D02*
X001203Y008766D01*
X001203Y008667D02*
X001303Y008667D01*
X001303Y008569D02*
X001203Y008569D01*
X001112Y008569D02*
X000340Y008569D01*
X000340Y008667D02*
X000850Y008667D01*
X000716Y008766D02*
X000340Y008766D01*
X000340Y008864D02*
X000626Y008864D01*
X000561Y008963D02*
X000340Y008963D01*
X000340Y009061D02*
X000514Y009061D01*
X000483Y009160D02*
X000340Y009160D01*
X000340Y009258D02*
X000465Y009258D01*
X001790Y008766D02*
X004001Y008766D01*
X003902Y008864D02*
X001880Y008864D01*
X001945Y008963D02*
X003827Y008963D01*
X003786Y009061D02*
X001992Y009061D01*
X002023Y009160D02*
X003745Y009160D01*
X004162Y008667D02*
X001656Y008667D01*
X001394Y008569D02*
X006624Y008569D01*
X006715Y008569D02*
X006815Y008569D01*
X006905Y008569D02*
X016060Y008569D01*
X016158Y008470D02*
X000340Y008470D01*
X000340Y008372D02*
X016257Y008372D01*
X016355Y008273D02*
X000340Y008273D01*
X000340Y008175D02*
X016454Y008175D01*
X016552Y008076D02*
X000340Y008076D01*
X000340Y007978D02*
X002266Y007978D01*
X002261Y007975D02*
X002190Y007924D01*
X002128Y007862D01*
X002077Y007791D01*
X002037Y007713D01*
X002010Y007630D01*
X001997Y007550D01*
X002502Y007550D01*
X002502Y007450D01*
X001997Y007450D01*
X002010Y007370D01*
X002037Y007286D01*
X002077Y007208D01*
X002128Y007138D01*
X002190Y007076D01*
X002261Y007024D01*
X002339Y006985D01*
X002422Y006958D01*
X002502Y006945D01*
X002502Y007450D01*
X002602Y007450D01*
X002602Y006945D01*
X002682Y006958D01*
X002766Y006985D01*
X002844Y007024D01*
X002914Y007076D01*
X002976Y007138D01*
X003028Y007208D01*
X003067Y007286D01*
X003094Y007370D01*
X003107Y007450D01*
X002602Y007450D01*
X002602Y007550D01*
X002502Y007550D01*
X002502Y008055D01*
X002422Y008042D01*
X002339Y008015D01*
X002261Y007975D01*
X002146Y007879D02*
X000340Y007879D01*
X000340Y007781D02*
X002072Y007781D01*
X002027Y007682D02*
X000340Y007682D01*
X000340Y007584D02*
X002003Y007584D01*
X002007Y007387D02*
X000340Y007387D01*
X000340Y007485D02*
X002502Y007485D01*
X002502Y007387D02*
X002602Y007387D01*
X002602Y007485D02*
X008014Y007485D01*
X008014Y007450D02*
X008014Y007550D01*
X008014Y008055D01*
X007934Y008042D01*
X007851Y008015D01*
X007773Y007975D01*
X007702Y007924D01*
X007640Y007862D01*
X007589Y007791D01*
X007549Y007713D01*
X007522Y007630D01*
X007509Y007550D01*
X008014Y007550D01*
X008114Y007550D01*
X008114Y008055D01*
X008194Y008042D01*
X008277Y008015D01*
X008355Y007975D01*
X008426Y007924D01*
X008488Y007862D01*
X008539Y007791D01*
X008579Y007713D01*
X008606Y007630D01*
X008619Y007550D01*
X008114Y007550D01*
X008114Y007450D01*
X008619Y007450D01*
X008606Y007370D01*
X008579Y007286D01*
X008539Y007208D01*
X008488Y007138D01*
X008426Y007076D01*
X008355Y007024D01*
X008277Y006985D01*
X008194Y006958D01*
X008114Y006945D01*
X008114Y007450D01*
X008014Y007450D01*
X007509Y007450D01*
X007522Y007370D01*
X007549Y007286D01*
X007589Y007208D01*
X007640Y007138D01*
X007702Y007076D01*
X007773Y007024D01*
X007851Y006985D01*
X007934Y006958D01*
X008014Y006945D01*
X008014Y007450D01*
X008014Y007387D02*
X008114Y007387D01*
X008114Y007485D02*
X013526Y007485D01*
X013526Y007450D02*
X013526Y007550D01*
X013526Y008055D01*
X013446Y008042D01*
X013362Y008015D01*
X013284Y007975D01*
X013214Y007924D01*
X013152Y007862D01*
X013100Y007791D01*
X013061Y007713D01*
X013034Y007630D01*
X013021Y007550D01*
X013526Y007550D01*
X013626Y007550D01*
X013626Y008055D01*
X013706Y008042D01*
X013789Y008015D01*
X013867Y007975D01*
X013938Y007924D01*
X014000Y007862D01*
X014051Y007791D01*
X014091Y007713D01*
X014118Y007630D01*
X014131Y007550D01*
X013626Y007550D01*
X013626Y007450D01*
X014131Y007450D01*
X014118Y007370D01*
X014091Y007286D01*
X014051Y007208D01*
X014000Y007138D01*
X013938Y007076D01*
X013867Y007024D01*
X013789Y006985D01*
X013706Y006958D01*
X013626Y006945D01*
X013626Y007450D01*
X013526Y007450D01*
X013021Y007450D01*
X013034Y007370D01*
X013061Y007286D01*
X013100Y007208D01*
X013152Y007138D01*
X013214Y007076D01*
X013284Y007024D01*
X013362Y006985D01*
X013446Y006958D01*
X013526Y006945D01*
X013526Y007450D01*
X013526Y007387D02*
X013626Y007387D01*
X013626Y007485D02*
X017143Y007485D01*
X017242Y007387D02*
X014121Y007387D01*
X014092Y007288D02*
X017340Y007288D01*
X017439Y007190D02*
X014038Y007190D01*
X013954Y007091D02*
X017537Y007091D01*
X017636Y006993D02*
X013806Y006993D01*
X013626Y006993D02*
X013526Y006993D01*
X013526Y007091D02*
X013626Y007091D01*
X013626Y007190D02*
X013526Y007190D01*
X013526Y007288D02*
X013626Y007288D01*
X013198Y007091D02*
X008442Y007091D01*
X008526Y007190D02*
X013114Y007190D01*
X013060Y007288D02*
X008580Y007288D01*
X008609Y007387D02*
X013031Y007387D01*
X013026Y007584D02*
X008614Y007584D01*
X008589Y007682D02*
X013051Y007682D01*
X013095Y007781D02*
X008545Y007781D01*
X008471Y007879D02*
X013169Y007879D01*
X013290Y007978D02*
X008350Y007978D01*
X008114Y007978D02*
X008014Y007978D01*
X008014Y007879D02*
X008114Y007879D01*
X008114Y007781D02*
X008014Y007781D01*
X008014Y007682D02*
X008114Y007682D01*
X008114Y007584D02*
X008014Y007584D01*
X007539Y007682D02*
X003077Y007682D01*
X003067Y007713D02*
X003028Y007791D01*
X002976Y007862D01*
X002914Y007924D01*
X002844Y007975D01*
X002766Y008015D01*
X002682Y008042D01*
X002602Y008055D01*
X002602Y007550D01*
X003107Y007550D01*
X003094Y007630D01*
X003067Y007713D01*
X003033Y007781D02*
X007583Y007781D01*
X007657Y007879D02*
X002959Y007879D01*
X002838Y007978D02*
X007778Y007978D01*
X007515Y007584D02*
X003102Y007584D01*
X003097Y007387D02*
X007519Y007387D01*
X007548Y007288D02*
X003068Y007288D01*
X003014Y007190D02*
X007602Y007190D01*
X007686Y007091D02*
X002930Y007091D01*
X002782Y006993D02*
X007834Y006993D01*
X008014Y006993D02*
X008114Y006993D01*
X008114Y007091D02*
X008014Y007091D01*
X008014Y007190D02*
X008114Y007190D01*
X008114Y007288D02*
X008014Y007288D01*
X008294Y006993D02*
X013346Y006993D01*
X012185Y006500D02*
X014967Y006500D01*
X014959Y006402D02*
X012193Y006402D01*
X012193Y006481D02*
X012129Y006635D01*
X012011Y006754D01*
X011856Y006817D01*
X011689Y006817D01*
X011535Y006754D01*
X011417Y006635D01*
X011353Y006481D01*
X011353Y006314D01*
X011417Y006160D01*
X011535Y006041D01*
X011689Y005977D01*
X011856Y005977D01*
X012011Y006041D01*
X012129Y006160D01*
X012193Y006314D01*
X012193Y006481D01*
X012144Y006599D02*
X015008Y006599D01*
X015085Y006697D02*
X012067Y006697D01*
X011908Y006796D02*
X015244Y006796D01*
X015514Y006796D02*
X017833Y006796D01*
X017931Y006697D02*
X015673Y006697D01*
X015750Y006599D02*
X018021Y006599D01*
X018021Y006500D02*
X016728Y006500D01*
X016826Y006402D02*
X018021Y006402D01*
X018021Y006303D02*
X016925Y006303D01*
X017023Y006205D02*
X018021Y006205D01*
X018021Y006106D02*
X017122Y006106D01*
X017220Y006008D02*
X018021Y006008D01*
X018021Y005909D02*
X017835Y005909D01*
X017953Y005811D02*
X018021Y005811D01*
X018014Y005712D02*
X018021Y005712D01*
X018341Y005712D02*
X018562Y005712D01*
X018661Y005614D02*
X018341Y005614D01*
X018341Y005515D02*
X018636Y005515D01*
X018631Y005504D02*
X018631Y005322D01*
X018700Y005154D01*
X018829Y005026D01*
X018997Y004956D01*
X019179Y004956D01*
X019313Y005012D01*
X024484Y005012D01*
X024950Y004546D01*
X025014Y004481D01*
X024988Y004470D01*
X024869Y004352D01*
X024810Y004210D01*
X024722Y004298D01*
X024374Y004298D01*
X024128Y004052D01*
X024128Y003704D01*
X024374Y003458D01*
X024650Y003458D01*
X024400Y003208D01*
X021860Y003208D01*
X020830Y004238D01*
X020736Y004332D01*
X019764Y004332D01*
X019274Y003842D01*
X019175Y003842D01*
X019040Y003707D01*
X019040Y003517D01*
X019175Y003382D01*
X019365Y003382D01*
X019500Y003517D01*
X019500Y003616D01*
X019775Y003891D01*
X019723Y003764D01*
X019723Y003597D01*
X019787Y003443D01*
X019858Y003372D01*
X018736Y003372D01*
X018341Y003767D01*
X018341Y005933D01*
X018672Y005603D01*
X018631Y005504D01*
X018631Y005417D02*
X018341Y005417D01*
X018341Y005318D02*
X018632Y005318D01*
X018673Y005220D02*
X018341Y005220D01*
X018341Y005121D02*
X018733Y005121D01*
X018836Y005023D02*
X018341Y005023D01*
X018341Y004924D02*
X021354Y004924D01*
X021365Y004935D02*
X021337Y004907D01*
X021318Y004873D01*
X021307Y004835D01*
X021307Y004479D01*
X021794Y004479D01*
X021794Y004965D01*
X021438Y004965D01*
X021399Y004955D01*
X021365Y004935D01*
X021307Y004826D02*
X018341Y004826D01*
X018341Y004727D02*
X021307Y004727D01*
X021307Y004629D02*
X018341Y004629D01*
X018341Y004530D02*
X021307Y004530D01*
X021307Y004379D02*
X021307Y004023D01*
X021318Y003985D01*
X021337Y003951D01*
X021365Y003923D01*
X021399Y003903D01*
X021438Y003893D01*
X021794Y003893D01*
X021794Y004379D01*
X021894Y004379D01*
X021894Y004479D01*
X022380Y004479D01*
X022380Y004835D01*
X022370Y004873D01*
X022350Y004907D01*
X022322Y004935D01*
X022288Y004955D01*
X022250Y004965D01*
X021894Y004965D01*
X021894Y004479D01*
X021794Y004479D01*
X021794Y004379D01*
X021307Y004379D01*
X021307Y004333D02*
X018341Y004333D01*
X018341Y004235D02*
X019667Y004235D01*
X019568Y004136D02*
X018341Y004136D01*
X018341Y004038D02*
X019470Y004038D01*
X019371Y003939D02*
X018341Y003939D01*
X018341Y003841D02*
X019174Y003841D01*
X019075Y003742D02*
X018366Y003742D01*
X018464Y003644D02*
X019040Y003644D01*
X019040Y003545D02*
X018563Y003545D01*
X018661Y003447D02*
X019110Y003447D01*
X019270Y003612D02*
X019830Y004172D01*
X020670Y004172D01*
X021794Y003048D01*
X024466Y003048D01*
X024986Y003568D01*
X026320Y003568D01*
X027324Y004572D01*
X030230Y004572D01*
X030400Y004727D02*
X031150Y004727D01*
X031150Y004629D02*
X030460Y004629D01*
X030460Y004530D02*
X031150Y004530D01*
X031150Y004479D02*
X031636Y004479D01*
X031636Y004379D01*
X031150Y004379D01*
X031150Y004023D01*
X031160Y003985D01*
X031180Y003951D01*
X031208Y003923D01*
X031242Y003903D01*
X031280Y003893D01*
X031636Y003893D01*
X031636Y004379D01*
X031736Y004379D01*
X031736Y003893D01*
X032092Y003893D01*
X032130Y003903D01*
X032164Y003923D01*
X032192Y003951D01*
X032212Y003985D01*
X032222Y004023D01*
X032222Y004379D01*
X031736Y004379D01*
X031736Y004479D01*
X031636Y004479D01*
X031636Y004965D01*
X031280Y004965D01*
X031242Y004955D01*
X031208Y004935D01*
X031180Y004907D01*
X031160Y004873D01*
X031150Y004835D01*
X031150Y004479D01*
X031150Y004333D02*
X030097Y004333D01*
X030196Y004235D02*
X031150Y004235D01*
X031150Y004136D02*
X030294Y004136D01*
X030363Y004038D02*
X031150Y004038D01*
X031191Y003939D02*
X030363Y003939D01*
X030363Y003841D02*
X032773Y003841D01*
X032773Y003908D02*
X033203Y003908D01*
X033203Y004338D01*
X033043Y004338D01*
X032773Y004068D01*
X032773Y003908D01*
X032773Y003939D02*
X032181Y003939D01*
X032222Y004038D02*
X032773Y004038D01*
X032841Y004136D02*
X032222Y004136D01*
X032222Y004235D02*
X032940Y004235D01*
X033038Y004333D02*
X032222Y004333D01*
X032222Y004479D02*
X031736Y004479D01*
X031736Y004965D01*
X032092Y004965D01*
X032130Y004955D01*
X032164Y004935D01*
X032192Y004907D01*
X032212Y004873D01*
X032222Y004835D01*
X032222Y004479D01*
X032222Y004530D02*
X033255Y004530D01*
X033354Y004432D02*
X031736Y004432D01*
X031736Y004530D02*
X031636Y004530D01*
X031636Y004432D02*
X030415Y004432D01*
X029933Y004333D02*
X029873Y004333D01*
X029873Y004235D02*
X029933Y004235D01*
X029933Y004136D02*
X029873Y004136D01*
X029873Y004038D02*
X029933Y004038D01*
X029933Y003939D02*
X029873Y003939D01*
X029443Y003939D02*
X029323Y003939D01*
X029323Y003841D02*
X029443Y003841D01*
X029443Y003742D02*
X029323Y003742D01*
X029263Y003644D02*
X029486Y003644D01*
X030319Y003644D02*
X032817Y003644D01*
X032773Y003742D02*
X030363Y003742D01*
X029443Y004038D02*
X029323Y004038D01*
X029238Y004136D02*
X029511Y004136D01*
X029609Y004235D02*
X029139Y004235D01*
X028666Y004235D02*
X028630Y004235D01*
X028589Y004333D02*
X029708Y004333D01*
X028602Y004924D02*
X031197Y004924D01*
X031150Y004826D02*
X028531Y004826D01*
X028642Y005023D02*
X028678Y005023D01*
X029182Y005023D02*
X032763Y005023D01*
X032861Y004924D02*
X032175Y004924D01*
X032222Y004826D02*
X032960Y004826D01*
X033058Y004727D02*
X032222Y004727D01*
X032222Y004629D02*
X033157Y004629D01*
X033203Y004333D02*
X033263Y004333D01*
X033263Y004338D02*
X033263Y003908D01*
X033693Y003908D01*
X033693Y004068D01*
X033424Y004338D01*
X033263Y004338D01*
X033263Y004235D02*
X033203Y004235D01*
X033203Y004136D02*
X033263Y004136D01*
X033263Y004038D02*
X033203Y004038D01*
X033203Y003939D02*
X033263Y003939D01*
X033693Y003939D02*
X033813Y003939D01*
X033813Y003841D02*
X033693Y003841D01*
X033693Y003742D02*
X033813Y003742D01*
X033873Y003644D02*
X033650Y003644D01*
X034450Y003432D02*
X034710Y003692D01*
X036670Y003692D01*
X037710Y004732D01*
X039070Y004732D01*
X039450Y005112D01*
X039450Y005715D01*
X038773Y006397D01*
X039230Y006402D02*
X043347Y006402D01*
X043347Y006500D02*
X039225Y006500D01*
X039184Y006599D02*
X043347Y006599D01*
X043347Y006697D02*
X039119Y006697D01*
X039004Y006796D02*
X043347Y006796D01*
X043347Y006303D02*
X039228Y006303D01*
X039189Y006205D02*
X043347Y006205D01*
X043347Y006106D02*
X039287Y006106D01*
X039385Y006008D02*
X043347Y006008D01*
X043347Y005909D02*
X039482Y005909D01*
X039580Y005811D02*
X043347Y005811D01*
X043347Y005712D02*
X039610Y005712D01*
X039610Y005781D02*
X039610Y005781D01*
X039227Y005712D02*
X039120Y005712D01*
X039129Y005811D02*
X039006Y005811D01*
X039031Y005909D02*
X038134Y005909D01*
X038241Y006008D02*
X038519Y006008D01*
X038418Y006106D02*
X038297Y006106D01*
X038330Y006205D02*
X038358Y006205D01*
X038316Y006402D02*
X038311Y006402D01*
X038321Y006500D02*
X038270Y006500D01*
X038177Y006599D02*
X038362Y006599D01*
X037644Y006599D02*
X035177Y006599D01*
X035270Y006500D02*
X037551Y006500D01*
X037510Y006402D02*
X035311Y006402D01*
X035330Y006303D02*
X037490Y006303D01*
X037490Y006205D02*
X035330Y006205D01*
X035297Y006106D02*
X037524Y006106D01*
X037580Y006008D02*
X035241Y006008D01*
X035134Y005909D02*
X037687Y005909D01*
X037659Y005614D02*
X035162Y005614D01*
X035260Y005515D02*
X037560Y005515D01*
X038162Y005614D02*
X038361Y005614D01*
X038321Y005515D02*
X038260Y005515D01*
X038305Y005417D02*
X038316Y005417D01*
X038330Y005220D02*
X038358Y005220D01*
X038303Y005121D02*
X038418Y005121D01*
X038521Y005023D02*
X038256Y005023D01*
X038157Y004924D02*
X039036Y004924D01*
X039024Y005023D02*
X039135Y005023D01*
X039127Y005121D02*
X039233Y005121D01*
X039187Y005220D02*
X039290Y005220D01*
X039290Y005318D02*
X039228Y005318D01*
X039230Y005417D02*
X039290Y005417D01*
X039290Y005515D02*
X039225Y005515D01*
X039184Y005614D02*
X039290Y005614D01*
X039610Y005614D02*
X043347Y005614D01*
X043347Y005515D02*
X039610Y005515D01*
X039610Y005417D02*
X043347Y005417D01*
X043347Y005318D02*
X039610Y005318D01*
X039610Y005220D02*
X043347Y005220D01*
X043347Y005121D02*
X039610Y005121D01*
X039587Y005023D02*
X043347Y005023D01*
X043347Y004924D02*
X042018Y004924D01*
X042007Y004935D02*
X042035Y004907D01*
X042055Y004873D01*
X042065Y004835D01*
X042065Y004479D01*
X041579Y004479D01*
X041579Y004379D01*
X042065Y004379D01*
X042065Y004023D01*
X042055Y003985D01*
X042035Y003951D01*
X042007Y003923D01*
X041973Y003903D01*
X041935Y003893D01*
X041579Y003893D01*
X041579Y004379D01*
X041479Y004379D01*
X041479Y003893D01*
X041123Y003893D01*
X041084Y003903D01*
X041050Y003923D01*
X041022Y003951D01*
X041003Y003985D01*
X040992Y004023D01*
X040992Y004379D01*
X041479Y004379D01*
X041479Y004479D01*
X041479Y004965D01*
X041123Y004965D01*
X041084Y004955D01*
X041050Y004935D01*
X041022Y004907D01*
X041003Y004873D01*
X040992Y004835D01*
X040992Y004479D01*
X041479Y004479D01*
X041579Y004479D01*
X041579Y004965D01*
X041935Y004965D01*
X041973Y004955D01*
X042007Y004935D01*
X042065Y004826D02*
X043347Y004826D01*
X043347Y004727D02*
X042065Y004727D01*
X042065Y004629D02*
X043347Y004629D01*
X043347Y004530D02*
X042065Y004530D01*
X041579Y004530D02*
X041479Y004530D01*
X041479Y004432D02*
X038299Y004432D01*
X038330Y004333D02*
X039393Y004333D01*
X039397Y004338D02*
X039128Y004068D01*
X039128Y003908D01*
X039558Y003908D01*
X039558Y004338D01*
X039397Y004338D01*
X039294Y004235D02*
X038824Y004235D01*
X038923Y004136D02*
X039196Y004136D01*
X039128Y004038D02*
X039008Y004038D01*
X039008Y003939D02*
X039128Y003939D01*
X039128Y003848D02*
X039128Y003687D01*
X039397Y003418D01*
X039558Y003418D01*
X039558Y003848D01*
X039618Y003848D01*
X039618Y003908D01*
X040048Y003908D01*
X040048Y004068D01*
X039778Y004338D01*
X039618Y004338D01*
X039618Y003908D01*
X039558Y003908D01*
X039558Y003848D01*
X039128Y003848D01*
X039128Y003841D02*
X039008Y003841D01*
X039008Y003742D02*
X039128Y003742D01*
X039171Y003644D02*
X038948Y003644D01*
X038849Y003545D02*
X039269Y003545D01*
X039368Y003447D02*
X038292Y003447D01*
X038326Y003545D02*
X038230Y003545D01*
X038227Y003644D02*
X038109Y003644D01*
X038168Y003742D02*
X036947Y003742D01*
X036848Y003644D02*
X037712Y003644D01*
X037590Y003545D02*
X036750Y003545D01*
X037529Y003447D02*
X035337Y003447D01*
X035364Y003348D02*
X037490Y003348D01*
X037490Y003250D02*
X034940Y003250D01*
X034880Y003250D02*
X033717Y003250D01*
X033727Y003240D02*
X033695Y003272D01*
X034516Y003272D01*
X034546Y003301D01*
X034880Y003301D01*
X034880Y003241D01*
X034450Y003241D01*
X034450Y003235D01*
X034462Y003164D01*
X034484Y003095D01*
X034517Y003030D01*
X034560Y002972D01*
X034611Y002921D01*
X034669Y002878D01*
X034721Y002852D01*
X033764Y002852D01*
X033791Y002918D01*
X033791Y003085D01*
X033727Y003240D01*
X033764Y003151D02*
X034466Y003151D01*
X034506Y003053D02*
X033791Y003053D01*
X033791Y002954D02*
X034577Y002954D01*
X034713Y002856D02*
X033765Y002856D01*
X033710Y002692D02*
X037331Y002692D01*
X037910Y003271D01*
X038330Y003250D02*
X043347Y003250D01*
X043347Y003348D02*
X038330Y003348D01*
X038315Y003151D02*
X043347Y003151D01*
X043347Y003053D02*
X038275Y003053D01*
X038187Y002954D02*
X043347Y002954D01*
X043347Y002856D02*
X038005Y002856D01*
X037816Y002856D02*
X037721Y002856D01*
X037623Y002757D02*
X043347Y002757D01*
X043347Y002659D02*
X038073Y002659D01*
X038215Y002560D02*
X043347Y002560D01*
X043347Y002462D02*
X038286Y002462D01*
X038327Y002363D02*
X043347Y002363D01*
X043347Y002265D02*
X038330Y002265D01*
X038322Y002166D02*
X043347Y002166D01*
X043347Y002068D02*
X038281Y002068D01*
X038202Y001969D02*
X043347Y001969D01*
X043347Y001871D02*
X038397Y001871D01*
X038496Y001772D02*
X043347Y001772D01*
X043347Y001674D02*
X042615Y001674D01*
X042554Y001699D02*
X042709Y001635D01*
X042827Y001517D01*
X042891Y001363D01*
X042891Y001196D01*
X042827Y001041D01*
X042709Y000923D01*
X042554Y000859D01*
X042387Y000859D01*
X042233Y000923D01*
X042115Y001041D01*
X042051Y001196D01*
X042051Y001363D01*
X042115Y001517D01*
X042233Y001635D01*
X042387Y001699D01*
X042554Y001699D01*
X042326Y001674D02*
X039009Y001674D01*
X039162Y001575D02*
X042173Y001575D01*
X042098Y001477D02*
X039237Y001477D01*
X039278Y001378D02*
X042057Y001378D01*
X042051Y001280D02*
X039284Y001280D01*
X039278Y001181D02*
X042057Y001181D01*
X042097Y001083D02*
X039238Y001083D01*
X039163Y000984D02*
X042172Y000984D01*
X042323Y000886D02*
X039012Y000886D01*
X038717Y000886D02*
X038301Y000886D01*
X038330Y000984D02*
X038565Y000984D01*
X038491Y001083D02*
X038330Y001083D01*
X038330Y001181D02*
X038450Y001181D01*
X038444Y001280D02*
X038330Y001280D01*
X038330Y001378D02*
X038437Y001378D01*
X038339Y001477D02*
X038330Y001477D01*
X038310Y001732D02*
X038710Y001332D01*
X038870Y001274D01*
X038864Y001279D01*
X038719Y001674D02*
X038594Y001674D01*
X038310Y001732D02*
X035450Y001732D01*
X034910Y002271D01*
X035330Y002265D02*
X037490Y002265D01*
X037494Y002363D02*
X035327Y002363D01*
X035286Y002462D02*
X037535Y002462D01*
X037605Y002560D02*
X037426Y002560D01*
X037524Y002659D02*
X037748Y002659D01*
X037367Y002954D02*
X035244Y002954D01*
X035315Y003053D02*
X037466Y003053D01*
X037506Y003151D02*
X035355Y003151D01*
X035108Y002856D02*
X037269Y002856D01*
X037499Y002166D02*
X035322Y002166D01*
X035340Y002068D02*
X037540Y002068D01*
X037619Y001969D02*
X035439Y001969D01*
X035183Y001772D02*
X033700Y001772D01*
X033757Y001871D02*
X033914Y001871D01*
X033815Y001969D02*
X033791Y001969D01*
X033371Y002037D02*
X032851Y001517D01*
X029431Y001517D01*
X029009Y001094D01*
X029296Y000787D02*
X029457Y000787D01*
X029595Y000689D02*
X029198Y000689D01*
X028820Y000689D02*
X024670Y000689D01*
X024768Y000787D02*
X024958Y000787D01*
X025493Y000787D02*
X027805Y000787D01*
X027805Y000886D02*
X025586Y000886D01*
X025626Y000984D02*
X026671Y000984D01*
X026573Y001083D02*
X025645Y001083D01*
X025645Y001181D02*
X026474Y001181D01*
X026376Y001280D02*
X025611Y001280D01*
X025555Y001378D02*
X026277Y001378D01*
X026470Y001638D02*
X026834Y001274D01*
X027805Y001274D01*
X027805Y001470D01*
X027870Y001534D01*
X028581Y001534D01*
X028645Y001470D01*
X028645Y001325D01*
X028835Y001514D01*
X029183Y001514D01*
X029193Y001504D01*
X029271Y001583D01*
X029365Y001677D01*
X029538Y001677D01*
X029527Y001681D01*
X029409Y001799D01*
X029379Y001871D01*
X029183Y001674D01*
X028835Y001674D01*
X028597Y001913D01*
X028581Y001876D01*
X028463Y001758D01*
X028309Y001694D01*
X028142Y001694D01*
X027988Y001758D01*
X027869Y001876D01*
X027805Y002030D01*
X027805Y002198D01*
X027869Y002352D01*
X027929Y002412D01*
X025521Y002412D01*
X025581Y002352D01*
X025645Y002198D01*
X025645Y002030D01*
X025581Y001876D01*
X025463Y001758D01*
X025401Y001732D01*
X026376Y001732D01*
X026470Y001638D01*
X026434Y001674D02*
X029362Y001674D01*
X029436Y001772D02*
X029281Y001772D01*
X029264Y001575D02*
X026533Y001575D01*
X026631Y001477D02*
X027813Y001477D01*
X027805Y001378D02*
X026730Y001378D01*
X026828Y001280D02*
X027805Y001280D01*
X028225Y001114D02*
X026768Y001114D01*
X026310Y001572D01*
X020990Y001572D01*
X020390Y002172D01*
X019430Y002172D01*
X017150Y004452D01*
X017150Y005852D01*
X016619Y006383D01*
X015539Y006383D01*
X015379Y006397D01*
X015754Y006205D02*
X016571Y006205D01*
X016669Y006106D02*
X015682Y006106D01*
X015536Y006008D02*
X016768Y006008D01*
X016677Y005909D02*
X016617Y005909D01*
X016617Y005811D02*
X016677Y005811D01*
X016677Y005712D02*
X016617Y005712D01*
X016617Y005614D02*
X016677Y005614D01*
X016617Y005515D02*
X014348Y005515D01*
X014338Y005554D02*
X014297Y005651D01*
X014245Y005742D01*
X014181Y005826D01*
X014106Y005900D01*
X014023Y005964D01*
X013932Y006017D01*
X013834Y006057D01*
X013733Y006084D01*
X013628Y006098D01*
X013626Y006098D01*
X013626Y005345D01*
X014379Y005345D01*
X014379Y005348D01*
X014365Y005452D01*
X014338Y005554D01*
X014313Y005614D02*
X016193Y005614D01*
X016219Y005712D02*
X014262Y005712D01*
X014192Y005811D02*
X016276Y005811D01*
X016374Y005909D02*
X014094Y005909D01*
X013947Y006008D02*
X015222Y006008D01*
X015076Y006106D02*
X012076Y006106D01*
X012148Y006205D02*
X015004Y006205D01*
X014963Y006303D02*
X012188Y006303D01*
X011470Y006106D02*
X010170Y006106D01*
X010223Y006160D02*
X010287Y006314D01*
X010287Y006481D01*
X010223Y006635D01*
X010105Y006754D01*
X009951Y006817D01*
X009784Y006817D01*
X009629Y006754D01*
X009511Y006635D01*
X009447Y006481D01*
X009447Y006314D01*
X009511Y006160D01*
X009629Y006041D01*
X009784Y005977D01*
X009951Y005977D01*
X010105Y006041D01*
X010223Y006160D01*
X010242Y006205D02*
X011398Y006205D01*
X011357Y006303D02*
X010283Y006303D01*
X010287Y006402D02*
X011353Y006402D01*
X011361Y006500D02*
X010279Y006500D01*
X010238Y006599D02*
X011402Y006599D01*
X011479Y006697D02*
X010161Y006697D01*
X010003Y006796D02*
X011637Y006796D01*
X009732Y006796D02*
X006396Y006796D01*
X006344Y006817D02*
X006177Y006817D01*
X006023Y006754D01*
X005905Y006635D01*
X005841Y006481D01*
X005841Y006314D01*
X005905Y006160D01*
X006023Y006041D01*
X006177Y005977D01*
X006344Y005977D01*
X006499Y006041D01*
X006617Y006160D01*
X006681Y006314D01*
X006681Y006481D01*
X006617Y006635D01*
X006499Y006754D01*
X006344Y006817D01*
X006125Y006796D02*
X004491Y006796D01*
X004439Y006817D02*
X004272Y006817D01*
X004117Y006754D01*
X003999Y006635D01*
X003935Y006481D01*
X003935Y006314D01*
X003999Y006160D01*
X004117Y006041D01*
X004272Y005977D01*
X004439Y005977D01*
X004593Y006041D01*
X004711Y006160D01*
X004775Y006314D01*
X004775Y006481D01*
X004711Y006635D01*
X004593Y006754D01*
X004439Y006817D01*
X004220Y006796D02*
X000884Y006796D01*
X001043Y006697D02*
X004061Y006697D01*
X003984Y006599D02*
X001120Y006599D01*
X001161Y006500D02*
X003943Y006500D01*
X003935Y006402D02*
X001169Y006402D01*
X001165Y006303D02*
X003940Y006303D01*
X003980Y006205D02*
X001124Y006205D01*
X001052Y006106D02*
X004052Y006106D01*
X004198Y006008D02*
X002923Y006008D01*
X002908Y006017D02*
X002811Y006057D01*
X002709Y006084D01*
X002605Y006098D01*
X002602Y006098D01*
X002602Y005345D01*
X002502Y005345D01*
X002502Y005245D01*
X001749Y005245D01*
X001749Y005242D01*
X001763Y005138D01*
X001790Y005037D01*
X001831Y004939D01*
X001883Y004848D01*
X001947Y004765D01*
X002022Y004690D01*
X002105Y004626D01*
X002196Y004574D01*
X002294Y004533D01*
X002395Y004506D01*
X002500Y004492D01*
X002502Y004492D01*
X002502Y005245D01*
X002602Y005245D01*
X002602Y004492D01*
X002605Y004492D01*
X002709Y004506D01*
X002811Y004533D01*
X002908Y004574D01*
X002999Y004626D01*
X003083Y004690D01*
X003157Y004765D01*
X003221Y004848D01*
X003274Y004939D01*
X003314Y005037D01*
X003341Y005138D01*
X003355Y005242D01*
X003355Y005245D01*
X002602Y005245D01*
X002602Y005345D01*
X003355Y005345D01*
X003355Y005348D01*
X003341Y005452D01*
X003314Y005554D01*
X003274Y005651D01*
X003221Y005742D01*
X003157Y005826D01*
X003083Y005900D01*
X002999Y005964D01*
X002908Y006017D01*
X003070Y005909D02*
X007546Y005909D01*
X007534Y005900D02*
X007459Y005826D01*
X007395Y005742D01*
X007343Y005651D01*
X007302Y005554D01*
X007275Y005452D01*
X007261Y005348D01*
X007261Y005345D01*
X008014Y005345D01*
X008014Y005245D01*
X008114Y005245D01*
X008114Y004492D01*
X008117Y004492D01*
X008221Y004506D01*
X008323Y004533D01*
X008420Y004574D01*
X008511Y004626D01*
X008594Y004690D01*
X008669Y004765D01*
X008733Y004848D01*
X008786Y004939D01*
X008826Y005037D01*
X008853Y005138D01*
X008867Y005242D01*
X008867Y005245D01*
X008114Y005245D01*
X008114Y005345D01*
X008867Y005345D01*
X008867Y005348D01*
X008853Y005452D01*
X008826Y005554D01*
X008786Y005651D01*
X008733Y005742D01*
X008669Y005826D01*
X008594Y005900D01*
X008511Y005964D01*
X008420Y006017D01*
X008323Y006057D01*
X008221Y006084D01*
X008117Y006098D01*
X008114Y006098D01*
X008114Y005345D01*
X008014Y005345D01*
X008014Y006098D01*
X008011Y006098D01*
X007907Y006084D01*
X007805Y006057D01*
X007708Y006017D01*
X007617Y005964D01*
X007534Y005900D01*
X007448Y005811D02*
X003168Y005811D01*
X003238Y005712D02*
X007378Y005712D01*
X007327Y005614D02*
X003289Y005614D01*
X003324Y005515D02*
X007292Y005515D01*
X007270Y005417D02*
X003346Y005417D01*
X003352Y005220D02*
X007264Y005220D01*
X007261Y005242D02*
X007275Y005138D01*
X007302Y005037D01*
X007343Y004939D01*
X007395Y004848D01*
X007459Y004765D01*
X007534Y004690D01*
X007617Y004626D01*
X007708Y004574D01*
X007805Y004533D01*
X007907Y004506D01*
X008011Y004492D01*
X008014Y004492D01*
X008014Y005245D01*
X007261Y005245D01*
X007261Y005242D01*
X007279Y005121D02*
X003337Y005121D01*
X003308Y005023D02*
X007308Y005023D01*
X007351Y004924D02*
X003265Y004924D01*
X003204Y004826D02*
X007412Y004826D01*
X007496Y004727D02*
X003120Y004727D01*
X003003Y004629D02*
X007613Y004629D01*
X007816Y004530D02*
X002800Y004530D01*
X002602Y004530D02*
X002502Y004530D01*
X002502Y004629D02*
X002602Y004629D01*
X002602Y004727D02*
X002502Y004727D01*
X002502Y004826D02*
X002602Y004826D01*
X002602Y004924D02*
X002502Y004924D01*
X002502Y005023D02*
X002602Y005023D01*
X002602Y005121D02*
X002502Y005121D01*
X002502Y005220D02*
X002602Y005220D01*
X002602Y005318D02*
X008014Y005318D01*
X008014Y005220D02*
X008114Y005220D01*
X008114Y005318D02*
X013526Y005318D01*
X013526Y005345D02*
X013526Y005245D01*
X013626Y005245D01*
X013626Y005345D01*
X013526Y005345D01*
X013526Y006098D01*
X013523Y006098D01*
X013419Y006084D01*
X013317Y006057D01*
X013220Y006017D01*
X013129Y005964D01*
X013045Y005900D01*
X012971Y005826D01*
X012907Y005742D01*
X012854Y005651D01*
X012814Y005554D01*
X012787Y005452D01*
X012773Y005348D01*
X012773Y005345D01*
X013526Y005345D01*
X013526Y005417D02*
X013626Y005417D01*
X013626Y005515D02*
X013526Y005515D01*
X013526Y005614D02*
X013626Y005614D01*
X013626Y005712D02*
X013526Y005712D01*
X013526Y005811D02*
X013626Y005811D01*
X013626Y005909D02*
X013526Y005909D01*
X013526Y006008D02*
X013626Y006008D01*
X013205Y006008D02*
X011930Y006008D01*
X011615Y006008D02*
X010024Y006008D01*
X009710Y006008D02*
X008435Y006008D01*
X008582Y005909D02*
X013058Y005909D01*
X012960Y005811D02*
X008680Y005811D01*
X008750Y005712D02*
X012890Y005712D01*
X012839Y005614D02*
X008801Y005614D01*
X008836Y005515D02*
X012804Y005515D01*
X012782Y005417D02*
X008858Y005417D01*
X008864Y005220D02*
X012776Y005220D01*
X012773Y005242D02*
X012787Y005138D01*
X012814Y005037D01*
X012854Y004939D01*
X012907Y004848D01*
X012971Y004765D01*
X013045Y004690D01*
X013129Y004626D01*
X013220Y004574D01*
X013317Y004533D01*
X013419Y004506D01*
X013523Y004492D01*
X013526Y004492D01*
X013526Y005245D01*
X012773Y005245D01*
X012773Y005242D01*
X012791Y005121D02*
X008849Y005121D01*
X008820Y005023D02*
X012820Y005023D01*
X012863Y004924D02*
X008777Y004924D01*
X008716Y004826D02*
X012924Y004826D01*
X013008Y004727D02*
X008632Y004727D01*
X008515Y004629D02*
X013125Y004629D01*
X013328Y004530D02*
X008312Y004530D01*
X008114Y004530D02*
X008014Y004530D01*
X008014Y004629D02*
X008114Y004629D01*
X008114Y004727D02*
X008014Y004727D01*
X008014Y004826D02*
X008114Y004826D01*
X008114Y004924D02*
X008014Y004924D01*
X008014Y005023D02*
X008114Y005023D01*
X008114Y005121D02*
X008014Y005121D01*
X008014Y005417D02*
X008114Y005417D01*
X008114Y005515D02*
X008014Y005515D01*
X008014Y005614D02*
X008114Y005614D01*
X008114Y005712D02*
X008014Y005712D01*
X008014Y005811D02*
X008114Y005811D01*
X008114Y005909D02*
X008014Y005909D01*
X008014Y006008D02*
X008114Y006008D01*
X007693Y006008D02*
X006418Y006008D01*
X006564Y006106D02*
X009564Y006106D01*
X009492Y006205D02*
X006636Y006205D01*
X006677Y006303D02*
X009451Y006303D01*
X009447Y006402D02*
X006681Y006402D01*
X006673Y006500D02*
X009455Y006500D01*
X009496Y006599D02*
X006632Y006599D01*
X006555Y006697D02*
X009573Y006697D01*
X006104Y006008D02*
X004513Y006008D01*
X004658Y006106D02*
X005958Y006106D01*
X005886Y006205D02*
X004730Y006205D01*
X004771Y006303D02*
X005845Y006303D01*
X005841Y006402D02*
X004775Y006402D01*
X004767Y006500D02*
X005849Y006500D01*
X005890Y006599D02*
X004726Y006599D01*
X004649Y006697D02*
X005967Y006697D01*
X002602Y006993D02*
X002502Y006993D01*
X002502Y007091D02*
X002602Y007091D01*
X002602Y007190D02*
X002502Y007190D01*
X002502Y007288D02*
X002602Y007288D01*
X002174Y007091D02*
X000340Y007091D01*
X000340Y006993D02*
X002322Y006993D01*
X002090Y007190D02*
X000340Y007190D01*
X000340Y007288D02*
X002036Y007288D01*
X002502Y007584D02*
X002602Y007584D01*
X002602Y007682D02*
X002502Y007682D01*
X002502Y007781D02*
X002602Y007781D01*
X002602Y007879D02*
X002502Y007879D01*
X002502Y007978D02*
X002602Y007978D01*
X004800Y008667D02*
X006362Y008667D01*
X006228Y008766D02*
X004962Y008766D01*
X005060Y008864D02*
X006138Y008864D01*
X006073Y008963D02*
X005136Y008963D01*
X005177Y009061D02*
X006026Y009061D01*
X005995Y009160D02*
X005217Y009160D01*
X005234Y009258D02*
X005977Y009258D01*
X005979Y009455D02*
X005234Y009455D01*
X005212Y009554D02*
X005999Y009554D01*
X006032Y009652D02*
X005171Y009652D01*
X005130Y009751D02*
X006081Y009751D01*
X006167Y009874D02*
X006241Y009948D01*
X005247Y010342D02*
X000340Y010342D01*
X000340Y010440D02*
X002290Y010440D01*
X002294Y010439D02*
X002395Y010412D01*
X002500Y010398D01*
X002502Y010398D01*
X002502Y011151D01*
X001749Y011151D01*
X001749Y011148D01*
X001763Y011044D01*
X001790Y010942D01*
X001831Y010845D01*
X001883Y010754D01*
X001947Y010670D01*
X002022Y010596D01*
X002105Y010532D01*
X002196Y010479D01*
X002294Y010439D01*
X002502Y010440D02*
X002602Y010440D01*
X002602Y010398D02*
X002605Y010398D01*
X002709Y010412D01*
X002811Y010439D01*
X002908Y010479D01*
X002999Y010532D01*
X003083Y010596D01*
X003157Y010670D01*
X003221Y010754D01*
X003274Y010845D01*
X003314Y010942D01*
X003341Y011044D01*
X003355Y011148D01*
X003355Y011151D01*
X002602Y011151D01*
X002602Y011251D01*
X002502Y011251D01*
X002502Y012003D01*
X002500Y012003D01*
X002395Y011990D01*
X002294Y011962D01*
X002196Y011922D01*
X002105Y011870D01*
X002022Y011805D01*
X001947Y011731D01*
X001883Y011648D01*
X001831Y011556D01*
X001790Y011459D01*
X001763Y011358D01*
X001749Y011253D01*
X001749Y011251D01*
X002502Y011251D01*
X002502Y011151D01*
X002602Y011151D01*
X002602Y010398D01*
X002602Y010539D02*
X002502Y010539D01*
X002502Y010637D02*
X002602Y010637D01*
X002602Y010736D02*
X002502Y010736D01*
X002502Y010834D02*
X002602Y010834D01*
X002602Y010933D02*
X002502Y010933D01*
X002502Y011031D02*
X002602Y011031D01*
X002602Y011130D02*
X002502Y011130D01*
X002502Y011228D02*
X000340Y011228D01*
X000340Y011130D02*
X001752Y011130D01*
X001766Y011031D02*
X000340Y011031D01*
X000340Y010933D02*
X001794Y010933D01*
X001837Y010834D02*
X000340Y010834D01*
X000340Y010736D02*
X001897Y010736D01*
X001980Y010637D02*
X000340Y010637D01*
X000340Y010539D02*
X002096Y010539D01*
X002815Y010440D02*
X005345Y010440D01*
X007278Y011031D02*
X003338Y011031D01*
X003353Y011130D02*
X007264Y011130D01*
X007306Y010933D02*
X003310Y010933D01*
X003268Y010834D02*
X007348Y010834D01*
X007409Y010736D02*
X003208Y010736D01*
X003124Y010637D02*
X007492Y010637D01*
X007608Y010539D02*
X003009Y010539D01*
X003355Y011251D02*
X002602Y011251D01*
X002602Y012003D01*
X002605Y012003D01*
X002709Y011990D01*
X002811Y011962D01*
X002908Y011922D01*
X002999Y011870D01*
X003083Y011805D01*
X003157Y011731D01*
X003221Y011648D01*
X003274Y011556D01*
X003314Y011459D01*
X003341Y011358D01*
X003355Y011253D01*
X003355Y011251D01*
X003345Y011327D02*
X007271Y011327D01*
X007293Y011425D02*
X003323Y011425D01*
X003287Y011524D02*
X007329Y011524D01*
X007381Y011622D02*
X003236Y011622D01*
X003165Y011721D02*
X007451Y011721D01*
X007552Y011819D02*
X003064Y011819D01*
X002915Y011918D02*
X007701Y011918D01*
X008014Y011918D02*
X008114Y011918D01*
X008114Y012003D02*
X008114Y011251D01*
X008867Y011251D01*
X008867Y011253D01*
X008853Y011358D01*
X008826Y011459D01*
X008786Y011556D01*
X008733Y011648D01*
X008669Y011731D01*
X008594Y011805D01*
X008511Y011870D01*
X008420Y011922D01*
X008323Y011962D01*
X008221Y011990D01*
X008117Y012003D01*
X008114Y012003D01*
X008427Y011918D02*
X013213Y011918D01*
X013064Y011819D02*
X008576Y011819D01*
X008677Y011721D02*
X012963Y011721D01*
X012892Y011622D02*
X008747Y011622D01*
X008799Y011524D02*
X012841Y011524D01*
X012805Y011425D02*
X008835Y011425D01*
X008857Y011327D02*
X012783Y011327D01*
X013526Y011327D02*
X013626Y011327D01*
X013626Y011251D02*
X013626Y012003D01*
X013628Y012003D01*
X013733Y011990D01*
X013834Y011962D01*
X013932Y011922D01*
X014023Y011870D01*
X014106Y011805D01*
X014181Y011731D01*
X014245Y011648D01*
X014297Y011556D01*
X014338Y011459D01*
X014365Y011358D01*
X014379Y011253D01*
X014379Y011251D01*
X013626Y011251D01*
X013626Y011228D02*
X016100Y011228D01*
X016002Y011130D02*
X014376Y011130D01*
X014362Y011031D02*
X015903Y011031D01*
X015805Y010933D02*
X014334Y010933D01*
X014291Y010834D02*
X015706Y010834D01*
X015608Y010736D02*
X014231Y010736D01*
X014148Y010637D02*
X015509Y010637D01*
X015411Y010539D02*
X014032Y010539D01*
X013119Y010539D02*
X008520Y010539D01*
X008636Y010637D02*
X013004Y010637D01*
X012921Y010736D02*
X008719Y010736D01*
X008780Y010834D02*
X012860Y010834D01*
X012818Y010933D02*
X008822Y010933D01*
X008850Y011031D02*
X012790Y011031D01*
X012775Y011130D02*
X008864Y011130D01*
X008114Y011228D02*
X013526Y011228D01*
X013526Y011425D02*
X013626Y011425D01*
X013626Y011524D02*
X013526Y011524D01*
X013526Y011622D02*
X013626Y011622D01*
X013626Y011721D02*
X013526Y011721D01*
X013526Y011819D02*
X013626Y011819D01*
X013626Y011918D02*
X013526Y011918D01*
X013939Y011918D02*
X017132Y011918D01*
X017132Y012016D02*
X000340Y012016D01*
X000340Y011918D02*
X002189Y011918D01*
X002040Y011819D02*
X000340Y011819D01*
X000340Y011721D02*
X001940Y011721D01*
X001869Y011622D02*
X000340Y011622D01*
X000340Y011524D02*
X001817Y011524D01*
X001781Y011425D02*
X000340Y011425D01*
X000340Y011327D02*
X001759Y011327D01*
X002502Y011327D02*
X002602Y011327D01*
X002602Y011425D02*
X002502Y011425D01*
X002502Y011524D02*
X002602Y011524D01*
X002602Y011622D02*
X002502Y011622D01*
X002502Y011721D02*
X002602Y011721D01*
X002602Y011819D02*
X002502Y011819D01*
X002502Y011918D02*
X002602Y011918D01*
X002602Y011228D02*
X008014Y011228D01*
X008014Y011327D02*
X008114Y011327D01*
X008114Y011425D02*
X008014Y011425D01*
X008014Y011524D02*
X008114Y011524D01*
X008114Y011622D02*
X008014Y011622D01*
X008014Y011721D02*
X008114Y011721D01*
X008114Y011819D02*
X008014Y011819D01*
X010280Y010046D02*
X011990Y010046D01*
X011810Y009948D02*
X010460Y009948D01*
X010559Y009849D02*
X011711Y009849D01*
X011628Y009751D02*
X010642Y009751D01*
X010683Y009652D02*
X011587Y009652D01*
X011546Y009554D02*
X010724Y009554D01*
X010746Y009455D02*
X011524Y009455D01*
X011524Y009357D02*
X010746Y009357D01*
X010746Y009258D02*
X011524Y009258D01*
X011540Y009160D02*
X010729Y009160D01*
X010688Y009061D02*
X011581Y009061D01*
X011622Y008963D02*
X010648Y008963D01*
X010572Y008864D02*
X011698Y008864D01*
X011796Y008766D02*
X010474Y008766D01*
X010312Y008667D02*
X011957Y008667D01*
X012596Y008667D02*
X015186Y008667D01*
X015024Y008766D02*
X012757Y008766D01*
X012856Y008864D02*
X014926Y008864D01*
X014850Y008963D02*
X012931Y008963D01*
X012972Y009061D02*
X014810Y009061D01*
X014769Y009160D02*
X013013Y009160D01*
X013030Y009258D02*
X014752Y009258D01*
X014752Y009357D02*
X013030Y009357D01*
X013030Y009455D02*
X014752Y009455D01*
X014774Y009554D02*
X013007Y009554D01*
X012966Y009652D02*
X014815Y009652D01*
X014856Y009751D02*
X012926Y009751D01*
X013002Y009849D02*
X014939Y009849D01*
X015038Y009948D02*
X013101Y009948D01*
X013058Y010132D02*
X015838Y010132D01*
X016552Y010846D01*
X019336Y010846D01*
X019756Y010834D02*
X020306Y010834D01*
X020306Y010816D02*
X019876Y010816D01*
X019876Y010656D01*
X020145Y010386D01*
X020306Y010386D01*
X020306Y010816D01*
X020306Y010736D02*
X020366Y010736D01*
X020366Y010637D02*
X020306Y010637D01*
X020306Y010539D02*
X020366Y010539D01*
X020366Y010440D02*
X020306Y010440D01*
X020091Y010440D02*
X019524Y010440D01*
X019622Y010539D02*
X019992Y010539D01*
X019894Y010637D02*
X019721Y010637D01*
X019756Y010736D02*
X019876Y010736D01*
X019876Y010933D02*
X019756Y010933D01*
X019744Y011031D02*
X019876Y011031D01*
X019969Y011130D02*
X019646Y011130D01*
X019547Y011228D02*
X020067Y011228D01*
X020390Y011412D02*
X021780Y010022D01*
X023040Y010022D01*
X023430Y010412D01*
X023035Y010243D02*
X021785Y010243D01*
X021529Y010046D02*
X018946Y010046D01*
X018972Y009948D02*
X019028Y009948D01*
X018847Y010145D02*
X021431Y010145D01*
X021332Y010243D02*
X018749Y010243D01*
X018355Y010243D02*
X017749Y010243D01*
X017726Y010266D02*
X017378Y010266D01*
X017132Y010020D01*
X017132Y009672D01*
X017348Y009457D01*
X017275Y009383D01*
X017211Y009229D01*
X017211Y009062D01*
X017275Y008908D01*
X017393Y008789D01*
X017547Y008725D01*
X017714Y008725D01*
X017869Y008789D01*
X017987Y008908D01*
X018051Y009062D01*
X018051Y009229D01*
X017987Y009383D01*
X017869Y009502D01*
X017821Y009521D01*
X017972Y009672D01*
X017972Y010020D01*
X017726Y010266D01*
X017847Y010145D02*
X018257Y010145D01*
X018158Y010046D02*
X017946Y010046D01*
X017972Y009948D02*
X018132Y009948D01*
X018132Y009849D02*
X017972Y009849D01*
X017972Y009751D02*
X018132Y009751D01*
X018152Y009652D02*
X017952Y009652D01*
X017854Y009554D02*
X018251Y009554D01*
X018349Y009455D02*
X017915Y009455D01*
X017998Y009357D02*
X018829Y009357D01*
X018869Y009455D02*
X018755Y009455D01*
X018730Y009258D02*
X018039Y009258D01*
X018051Y009160D02*
X018632Y009160D01*
X018533Y009061D02*
X018051Y009061D01*
X018010Y008963D02*
X018435Y008963D01*
X018336Y008864D02*
X017944Y008864D01*
X017812Y008766D02*
X018238Y008766D01*
X018230Y008758D02*
X018230Y008758D01*
X018230Y008758D01*
X018230Y008667D02*
X016414Y008667D01*
X016465Y008766D02*
X016315Y008766D01*
X016334Y008864D02*
X016217Y008864D01*
X016268Y008963D02*
X016160Y008963D01*
X016200Y009061D02*
X016227Y009061D01*
X017026Y008963D02*
X017252Y008963D01*
X017211Y009061D02*
X017066Y009061D01*
X017067Y009160D02*
X017211Y009160D01*
X017223Y009258D02*
X017054Y009258D01*
X017014Y009357D02*
X017264Y009357D01*
X017347Y009455D02*
X016931Y009455D01*
X016758Y009554D02*
X017251Y009554D01*
X017152Y009652D02*
X016195Y009652D01*
X016236Y009554D02*
X016535Y009554D01*
X016363Y009455D02*
X016258Y009455D01*
X016258Y009357D02*
X016280Y009357D01*
X015505Y009350D02*
X018181Y006674D01*
X018181Y003700D01*
X018670Y003212D01*
X020310Y003212D01*
X020950Y002572D01*
X033590Y002572D01*
X033710Y002692D01*
X034537Y002068D02*
X034540Y002068D01*
X034619Y001969D02*
X034439Y001969D01*
X034340Y001871D02*
X034780Y001871D01*
X035041Y001871D02*
X035085Y001871D01*
X035036Y001674D02*
X035282Y001674D01*
X035200Y001575D02*
X035380Y001575D01*
X035280Y001477D02*
X037490Y001477D01*
X037490Y001378D02*
X035321Y001378D01*
X035330Y001280D02*
X037490Y001280D01*
X037490Y001181D02*
X035328Y001181D01*
X035287Y001083D02*
X037490Y001083D01*
X037397Y000984D02*
X035217Y000984D01*
X035077Y000886D02*
X037299Y000886D01*
X037653Y000787D02*
X043347Y000787D01*
X043347Y000689D02*
X037554Y000689D01*
X037291Y000652D02*
X033762Y000652D01*
X033371Y001073D01*
X032951Y001083D02*
X030185Y001083D01*
X030183Y000984D02*
X032953Y000984D01*
X032994Y000886D02*
X030142Y000886D01*
X030073Y000787D02*
X033063Y000787D01*
X033201Y000689D02*
X029935Y000689D01*
X028722Y000787D02*
X028645Y000787D01*
X028645Y001378D02*
X028699Y001378D01*
X028638Y001477D02*
X028798Y001477D01*
X028737Y001772D02*
X028478Y001772D01*
X028576Y001871D02*
X028638Y001871D01*
X027973Y001772D02*
X025478Y001772D01*
X025576Y001871D02*
X027875Y001871D01*
X027831Y001969D02*
X025620Y001969D01*
X025645Y002068D02*
X027805Y002068D01*
X027805Y002166D02*
X025645Y002166D01*
X025618Y002265D02*
X027833Y002265D01*
X027881Y002363D02*
X025570Y002363D01*
X025482Y002732D02*
X025525Y002763D01*
X025576Y002814D01*
X025619Y002873D01*
X025652Y002937D01*
X025674Y003006D01*
X025685Y003078D01*
X025685Y003084D01*
X025255Y003084D01*
X025255Y003144D01*
X025685Y003144D01*
X025685Y003150D01*
X025674Y003222D01*
X025652Y003291D01*
X025619Y003355D01*
X025580Y003408D01*
X026386Y003408D01*
X027390Y004412D01*
X027929Y004412D01*
X027869Y004352D01*
X027805Y004198D01*
X027805Y004030D01*
X027869Y003876D01*
X027988Y003758D01*
X028142Y003694D01*
X028309Y003694D01*
X028463Y003758D01*
X028483Y003777D01*
X028483Y003704D01*
X028594Y003592D01*
X028477Y003592D01*
X028387Y003502D01*
X028309Y003534D01*
X028142Y003534D01*
X027988Y003470D01*
X027869Y003352D01*
X027805Y003198D01*
X027805Y003030D01*
X027869Y002876D01*
X027988Y002758D01*
X028050Y002732D01*
X025482Y002732D01*
X025517Y002757D02*
X027989Y002757D01*
X027890Y002856D02*
X025607Y002856D01*
X025657Y002954D02*
X027837Y002954D01*
X027805Y003053D02*
X025681Y003053D01*
X025685Y003151D02*
X027805Y003151D01*
X027827Y003250D02*
X025665Y003250D01*
X025622Y003348D02*
X027868Y003348D01*
X027964Y003447D02*
X026425Y003447D01*
X026524Y003545D02*
X028431Y003545D01*
X028542Y003644D02*
X026622Y003644D01*
X026721Y003742D02*
X028025Y003742D01*
X027905Y003841D02*
X026819Y003841D01*
X026918Y003939D02*
X027843Y003939D01*
X027805Y004038D02*
X027016Y004038D01*
X027115Y004136D02*
X027805Y004136D01*
X027821Y004235D02*
X027213Y004235D01*
X027312Y004333D02*
X027862Y004333D01*
X028426Y003742D02*
X028483Y003742D01*
X028543Y003432D02*
X034450Y003432D01*
X033748Y004038D02*
X033693Y004038D01*
X033649Y004136D02*
X033625Y004136D01*
X033551Y004235D02*
X033527Y004235D01*
X033452Y004333D02*
X033428Y004333D01*
X034004Y004432D02*
X034522Y004432D01*
X034490Y004333D02*
X034103Y004333D01*
X034470Y004235D02*
X034490Y004235D01*
X034575Y004530D02*
X033906Y004530D01*
X033807Y004629D02*
X034676Y004629D01*
X035145Y004629D02*
X035701Y004629D01*
X035799Y004727D02*
X033709Y004727D01*
X033610Y004826D02*
X035898Y004826D01*
X035996Y004924D02*
X035157Y004924D01*
X035256Y005023D02*
X036095Y005023D01*
X036193Y005121D02*
X035303Y005121D01*
X035330Y005220D02*
X036292Y005220D01*
X036390Y005318D02*
X035330Y005318D01*
X035305Y005417D02*
X036489Y005417D01*
X036570Y005271D02*
X035430Y004132D01*
X035504Y004432D02*
X035299Y004432D01*
X035245Y004530D02*
X035602Y004530D01*
X034664Y004924D02*
X033512Y004924D01*
X033413Y005023D02*
X034565Y005023D01*
X034910Y005271D02*
X033370Y005271D01*
X032910Y005614D02*
X032822Y005614D01*
X032780Y005712D02*
X032910Y005712D01*
X032910Y005811D02*
X032780Y005811D01*
X032780Y005909D02*
X032910Y005909D01*
X032910Y006008D02*
X032780Y006008D01*
X032780Y006106D02*
X032910Y006106D01*
X032910Y006205D02*
X032780Y006205D01*
X032780Y006303D02*
X032910Y006303D01*
X032910Y006402D02*
X032780Y006402D01*
X032780Y006500D02*
X032910Y006500D01*
X032910Y006599D02*
X032780Y006599D01*
X032780Y006697D02*
X032910Y006697D01*
X032910Y006796D02*
X032780Y006796D01*
X032780Y006894D02*
X032910Y006894D01*
X032910Y006993D02*
X032780Y006993D01*
X032780Y007091D02*
X032910Y007091D01*
X032910Y007190D02*
X032780Y007190D01*
X032780Y007288D02*
X032910Y007288D01*
X032910Y007387D02*
X032780Y007387D01*
X032780Y007485D02*
X032910Y007485D01*
X032910Y007584D02*
X032780Y007584D01*
X032780Y007682D02*
X032910Y007682D01*
X032910Y007781D02*
X032780Y007781D01*
X032780Y007879D02*
X032910Y007879D01*
X032320Y007288D02*
X029418Y007288D01*
X029390Y007190D02*
X032320Y007190D01*
X032320Y007091D02*
X029333Y007091D01*
X029240Y006993D02*
X032320Y006993D01*
X035098Y006894D02*
X037723Y006894D01*
X037595Y006993D02*
X035226Y006993D01*
X035291Y007091D02*
X037530Y007091D01*
X037490Y007190D02*
X035330Y007190D01*
X035330Y007288D02*
X037490Y007288D01*
X037504Y007387D02*
X035317Y007387D01*
X035276Y007485D02*
X037470Y007485D01*
X037372Y007584D02*
X035192Y007584D01*
X037726Y007682D02*
X037805Y007682D01*
X038724Y007682D02*
X038821Y007682D01*
X038821Y007584D02*
X038724Y007584D01*
X038724Y007781D02*
X038821Y007781D01*
X038821Y007288D02*
X038724Y007288D01*
X038724Y007190D02*
X038821Y007190D01*
X038821Y007091D02*
X038724Y007091D01*
X038724Y006993D02*
X038821Y006993D01*
X037910Y005271D02*
X036570Y005271D01*
X038245Y004530D02*
X040992Y004530D01*
X040992Y004629D02*
X039193Y004629D01*
X039292Y004727D02*
X040992Y004727D01*
X040992Y004826D02*
X039390Y004826D01*
X039489Y004924D02*
X041040Y004924D01*
X041479Y004924D02*
X041579Y004924D01*
X041579Y004826D02*
X041479Y004826D01*
X041479Y004727D02*
X041579Y004727D01*
X041579Y004629D02*
X041479Y004629D01*
X041579Y004432D02*
X043347Y004432D01*
X043347Y004333D02*
X042065Y004333D01*
X042065Y004235D02*
X043347Y004235D01*
X043347Y004136D02*
X042065Y004136D01*
X042065Y004038D02*
X043347Y004038D01*
X043347Y003939D02*
X042024Y003939D01*
X041579Y003939D02*
X041479Y003939D01*
X041479Y004038D02*
X041579Y004038D01*
X041579Y004136D02*
X041479Y004136D01*
X041479Y004235D02*
X041579Y004235D01*
X041579Y004333D02*
X041479Y004333D01*
X040992Y004333D02*
X039782Y004333D01*
X039881Y004235D02*
X040992Y004235D01*
X040992Y004136D02*
X039979Y004136D01*
X040048Y004038D02*
X040992Y004038D01*
X041034Y003939D02*
X040048Y003939D01*
X040048Y003848D02*
X039618Y003848D01*
X039618Y003418D01*
X039778Y003418D01*
X040048Y003687D01*
X040048Y003848D01*
X040048Y003841D02*
X043347Y003841D01*
X043347Y003742D02*
X040048Y003742D01*
X040004Y003644D02*
X043347Y003644D01*
X043347Y003545D02*
X039906Y003545D01*
X039807Y003447D02*
X043347Y003447D01*
X039618Y003447D02*
X039558Y003447D01*
X039558Y003545D02*
X039618Y003545D01*
X039618Y003644D02*
X039558Y003644D01*
X039558Y003742D02*
X039618Y003742D01*
X039618Y003841D02*
X039558Y003841D01*
X039558Y003939D02*
X039618Y003939D01*
X039618Y004038D02*
X039558Y004038D01*
X039558Y004136D02*
X039618Y004136D01*
X039618Y004235D02*
X039558Y004235D01*
X039558Y004333D02*
X039618Y004333D01*
X038351Y004235D02*
X038330Y004235D01*
X037553Y004038D02*
X037242Y004038D01*
X037144Y003939D02*
X037649Y003939D01*
X038168Y003841D02*
X037045Y003841D01*
X037341Y004136D02*
X037512Y004136D01*
X037490Y004235D02*
X037439Y004235D01*
X032664Y005121D02*
X029284Y005121D01*
X029345Y005220D02*
X032566Y005220D01*
X032467Y005318D02*
X031702Y005318D01*
X031750Y005417D02*
X032369Y005417D01*
X032320Y005515D02*
X031750Y005515D01*
X029697Y005318D02*
X029385Y005318D01*
X029387Y005417D02*
X029599Y005417D01*
X029500Y005515D02*
X029382Y005515D01*
X029402Y005614D02*
X029341Y005614D01*
X029303Y005712D02*
X029277Y005712D01*
X027107Y005515D02*
X025354Y005515D01*
X025516Y005417D02*
X027009Y005417D01*
X026910Y005318D02*
X025595Y005318D01*
X025636Y005220D02*
X026812Y005220D01*
X026713Y005121D02*
X025645Y005121D01*
X025642Y005023D02*
X026615Y005023D01*
X026516Y004924D02*
X025602Y004924D01*
X025531Y004826D02*
X026418Y004826D01*
X025225Y005114D02*
X025007Y005332D01*
X020150Y005332D01*
X019088Y006394D01*
X019088Y006397D01*
X018631Y006402D02*
X018547Y006402D01*
X018547Y006500D02*
X018636Y006500D01*
X018677Y006599D02*
X018547Y006599D01*
X018548Y006697D02*
X018742Y006697D01*
X018856Y006796D02*
X018548Y006796D01*
X018548Y006894D02*
X018988Y006894D01*
X019039Y006894D02*
X019136Y006894D01*
X019136Y006993D02*
X019039Y006993D01*
X019039Y007091D02*
X019136Y007091D01*
X019136Y007190D02*
X019039Y007190D01*
X019039Y007288D02*
X019136Y007288D01*
X018684Y007091D02*
X018548Y007091D01*
X018548Y006993D02*
X018777Y006993D01*
X018628Y007190D02*
X018548Y007190D01*
X018548Y007288D02*
X018599Y007288D01*
X018228Y007288D02*
X017793Y007288D01*
X017891Y007190D02*
X018228Y007190D01*
X018228Y007091D02*
X017990Y007091D01*
X018088Y006993D02*
X018228Y006993D01*
X018228Y006894D02*
X018187Y006894D01*
X017734Y006894D02*
X000340Y006894D01*
X000340Y006796D02*
X000614Y006796D01*
X000455Y006697D02*
X000340Y006697D01*
X000340Y006599D02*
X000378Y006599D01*
X000374Y006205D02*
X000340Y006205D01*
X000340Y006106D02*
X000446Y006106D01*
X000340Y006008D02*
X000592Y006008D01*
X000340Y005909D02*
X002034Y005909D01*
X002022Y005900D02*
X001947Y005826D01*
X001883Y005742D01*
X001831Y005651D01*
X001790Y005554D01*
X001763Y005452D01*
X001749Y005348D01*
X001749Y005345D01*
X002502Y005345D01*
X002502Y006098D01*
X002500Y006098D01*
X002395Y006084D01*
X002294Y006057D01*
X002196Y006017D01*
X002105Y005964D01*
X002022Y005900D01*
X001936Y005811D02*
X000340Y005811D01*
X000340Y005712D02*
X001866Y005712D01*
X001815Y005614D02*
X000340Y005614D01*
X000340Y005515D02*
X001780Y005515D01*
X001759Y005417D02*
X000340Y005417D01*
X000340Y005318D02*
X002502Y005318D01*
X002502Y005417D02*
X002602Y005417D01*
X002602Y005515D02*
X002502Y005515D01*
X002502Y005614D02*
X002602Y005614D01*
X002602Y005712D02*
X002502Y005712D01*
X002502Y005811D02*
X002602Y005811D01*
X002602Y005909D02*
X002502Y005909D01*
X002502Y006008D02*
X002602Y006008D01*
X002181Y006008D02*
X000906Y006008D01*
X000340Y005220D02*
X001752Y005220D01*
X001768Y005121D02*
X000340Y005121D01*
X000340Y005023D02*
X001796Y005023D01*
X001839Y004924D02*
X000340Y004924D01*
X000340Y004826D02*
X001900Y004826D01*
X001985Y004727D02*
X000340Y004727D01*
X000340Y004629D02*
X002102Y004629D01*
X002304Y004530D02*
X000340Y004530D01*
X000340Y004432D02*
X016990Y004432D01*
X016990Y004530D02*
X013824Y004530D01*
X013834Y004533D02*
X013932Y004574D01*
X014023Y004626D01*
X014106Y004690D01*
X014181Y004765D01*
X014245Y004848D01*
X014297Y004939D01*
X014338Y005037D01*
X014365Y005138D01*
X014379Y005242D01*
X014379Y005245D01*
X013626Y005245D01*
X013626Y004492D01*
X013628Y004492D01*
X013733Y004506D01*
X013834Y004533D01*
X013626Y004530D02*
X013526Y004530D01*
X013526Y004629D02*
X013626Y004629D01*
X013626Y004727D02*
X013526Y004727D01*
X013526Y004826D02*
X013626Y004826D01*
X013626Y004924D02*
X013526Y004924D01*
X013526Y005023D02*
X013626Y005023D01*
X013626Y005121D02*
X013526Y005121D01*
X013526Y005220D02*
X013626Y005220D01*
X013626Y005318D02*
X016243Y005318D01*
X016253Y005298D02*
X016296Y005240D01*
X016347Y005188D01*
X016406Y005146D01*
X016470Y005113D01*
X016539Y005091D01*
X016610Y005079D01*
X016617Y005079D01*
X016617Y005509D01*
X016187Y005509D01*
X016187Y005503D01*
X016198Y005431D01*
X016220Y005363D01*
X016253Y005298D01*
X016315Y005220D02*
X014376Y005220D01*
X014360Y005121D02*
X016453Y005121D01*
X016617Y005121D02*
X016677Y005121D01*
X016677Y005220D02*
X016617Y005220D01*
X016617Y005318D02*
X016677Y005318D01*
X016677Y005417D02*
X016617Y005417D01*
X016978Y005220D02*
X016990Y005220D01*
X016990Y005121D02*
X016840Y005121D01*
X016990Y005023D02*
X014332Y005023D01*
X014289Y004924D02*
X016990Y004924D01*
X016990Y004826D02*
X014228Y004826D01*
X014143Y004727D02*
X016990Y004727D01*
X016990Y004629D02*
X014026Y004629D01*
X015078Y004083D02*
X015355Y004198D01*
X015655Y004198D01*
X015931Y004083D01*
X016143Y003871D01*
X016152Y003850D01*
X016180Y003919D01*
X016299Y004037D01*
X016453Y004101D01*
X016620Y004101D01*
X016774Y004037D01*
X016893Y003919D01*
X016956Y003764D01*
X016956Y003597D01*
X016893Y003443D01*
X016774Y003325D01*
X016620Y003261D01*
X016453Y003261D01*
X016299Y003325D01*
X016258Y003366D01*
X016258Y003295D01*
X016143Y003018D01*
X015937Y002812D01*
X016130Y002812D01*
X016180Y002935D01*
X016299Y003053D01*
X016158Y003053D01*
X016198Y003151D02*
X018224Y003151D01*
X018323Y003053D02*
X016774Y003053D01*
X016620Y003117D01*
X016453Y003117D01*
X016299Y003053D01*
X016200Y002954D02*
X016079Y002954D01*
X016148Y002856D02*
X015981Y002856D01*
X016492Y002652D02*
X016536Y002697D01*
X016492Y002652D02*
X013069Y002652D01*
X012277Y003445D01*
X013030Y003447D02*
X014752Y003447D01*
X014752Y003545D02*
X013030Y003545D01*
X013030Y003594D02*
X012915Y003871D01*
X012703Y004083D01*
X012426Y004198D01*
X012127Y004198D01*
X011850Y004083D01*
X011638Y003871D01*
X011524Y003594D01*
X011524Y003295D01*
X011638Y003018D01*
X011850Y002806D01*
X012127Y002692D01*
X012426Y002692D01*
X012693Y002802D01*
X012843Y002652D01*
X007784Y002652D01*
X007407Y003028D01*
X007518Y003295D01*
X007518Y003594D01*
X007403Y003871D01*
X007191Y004083D01*
X006915Y004198D01*
X006615Y004198D01*
X006338Y004083D01*
X006127Y003871D01*
X006012Y003594D01*
X006012Y003295D01*
X006127Y003018D01*
X006338Y002806D01*
X006615Y002692D01*
X006915Y002692D01*
X007181Y002802D01*
X007651Y002332D01*
X015691Y002332D01*
X016149Y001874D01*
X016116Y001796D01*
X016116Y001629D01*
X016180Y001475D01*
X016299Y001356D01*
X016453Y001292D01*
X016620Y001292D01*
X016774Y001356D01*
X016893Y001475D01*
X016956Y001629D01*
X016956Y001796D01*
X016893Y001950D01*
X016774Y002068D01*
X016620Y002132D01*
X016453Y002132D01*
X016375Y002100D01*
X015983Y002492D01*
X016167Y002492D01*
X016180Y002459D01*
X016299Y002341D01*
X016453Y002277D01*
X016620Y002277D01*
X016774Y002341D01*
X016893Y002459D01*
X016956Y002613D01*
X016956Y002780D01*
X016893Y002935D01*
X016774Y003053D01*
X016873Y002954D02*
X018421Y002954D01*
X018520Y002856D02*
X016925Y002856D01*
X016956Y002757D02*
X018618Y002757D01*
X018717Y002659D02*
X016956Y002659D01*
X016935Y002560D02*
X018815Y002560D01*
X018914Y002462D02*
X016894Y002462D01*
X016797Y002363D02*
X019012Y002363D01*
X019111Y002265D02*
X016210Y002265D01*
X016276Y002363D02*
X016112Y002363D01*
X016179Y002462D02*
X016013Y002462D01*
X015757Y002492D02*
X007718Y002492D01*
X006765Y003445D01*
X007456Y003742D02*
X009302Y003742D01*
X009261Y003644D02*
X007497Y003644D01*
X007518Y003545D02*
X009240Y003545D01*
X009240Y003594D02*
X009240Y003295D01*
X009355Y003018D01*
X009567Y002806D01*
X009843Y002692D01*
X010143Y002692D01*
X010420Y002806D01*
X010631Y003018D01*
X010746Y003295D01*
X010746Y003594D01*
X010631Y003871D01*
X010420Y004083D01*
X010143Y004198D01*
X009843Y004198D01*
X009567Y004083D01*
X009355Y003871D01*
X009240Y003594D01*
X009240Y003447D02*
X007518Y003447D01*
X007518Y003348D02*
X009240Y003348D01*
X009259Y003250D02*
X007499Y003250D01*
X007458Y003151D02*
X009300Y003151D01*
X009340Y003053D02*
X007417Y003053D01*
X007481Y002954D02*
X009419Y002954D01*
X009517Y002856D02*
X007580Y002856D01*
X007678Y002757D02*
X009685Y002757D01*
X010301Y002757D02*
X011968Y002757D01*
X011801Y002856D02*
X010469Y002856D01*
X010568Y002954D02*
X011702Y002954D01*
X011624Y003053D02*
X010646Y003053D01*
X010687Y003151D02*
X011583Y003151D01*
X011542Y003250D02*
X010727Y003250D01*
X010746Y003348D02*
X011524Y003348D01*
X011524Y003447D02*
X010746Y003447D01*
X010746Y003545D02*
X011524Y003545D01*
X011544Y003644D02*
X010726Y003644D01*
X010685Y003742D02*
X011585Y003742D01*
X011626Y003841D02*
X010644Y003841D01*
X010563Y003939D02*
X011707Y003939D01*
X011805Y004038D02*
X010465Y004038D01*
X010291Y004136D02*
X011979Y004136D01*
X012574Y004136D02*
X015208Y004136D01*
X015078Y004083D02*
X014867Y003871D01*
X014752Y003594D01*
X014752Y003295D01*
X014867Y003018D01*
X015073Y002812D01*
X013136Y002812D01*
X012919Y003028D01*
X013030Y003295D01*
X013030Y003594D01*
X013009Y003644D02*
X014773Y003644D01*
X014813Y003742D02*
X012968Y003742D01*
X012927Y003841D02*
X014854Y003841D01*
X014935Y003939D02*
X012847Y003939D01*
X012748Y004038D02*
X015033Y004038D01*
X015802Y004136D02*
X017239Y004136D01*
X017338Y004038D02*
X016772Y004038D01*
X016872Y003939D02*
X017436Y003939D01*
X017535Y003841D02*
X016925Y003841D01*
X016956Y003742D02*
X017633Y003742D01*
X017732Y003644D02*
X016956Y003644D01*
X016935Y003545D02*
X017830Y003545D01*
X017929Y003447D02*
X016894Y003447D01*
X016798Y003348D02*
X018027Y003348D01*
X018126Y003250D02*
X016239Y003250D01*
X016258Y003348D02*
X016275Y003348D01*
X015029Y002856D02*
X013092Y002856D01*
X012993Y002954D02*
X014930Y002954D01*
X014852Y003053D02*
X012929Y003053D01*
X012970Y003151D02*
X014811Y003151D01*
X014771Y003250D02*
X013011Y003250D01*
X013030Y003348D02*
X014752Y003348D01*
X016075Y003939D02*
X016201Y003939D01*
X016301Y004038D02*
X015976Y004038D01*
X017042Y004333D02*
X000340Y004333D01*
X000340Y004235D02*
X017141Y004235D01*
X018341Y004432D02*
X021794Y004432D01*
X021794Y004530D02*
X021894Y004530D01*
X021894Y004432D02*
X024949Y004432D01*
X024965Y004530D02*
X022380Y004530D01*
X022380Y004629D02*
X024867Y004629D01*
X024768Y004727D02*
X022380Y004727D01*
X022380Y004826D02*
X024670Y004826D01*
X024571Y004924D02*
X022333Y004924D01*
X021894Y004924D02*
X021794Y004924D01*
X021794Y004826D02*
X021894Y004826D01*
X021894Y004727D02*
X021794Y004727D01*
X021794Y004629D02*
X021894Y004629D01*
X021894Y004379D02*
X022380Y004379D01*
X022380Y004023D01*
X022370Y003985D01*
X022350Y003951D01*
X022322Y003923D01*
X022288Y003903D01*
X022250Y003893D01*
X021894Y003893D01*
X021894Y004379D01*
X021894Y004333D02*
X021794Y004333D01*
X021794Y004235D02*
X021894Y004235D01*
X021894Y004136D02*
X021794Y004136D01*
X021794Y004038D02*
X021894Y004038D01*
X021894Y003939D02*
X021794Y003939D01*
X021348Y003939D02*
X021129Y003939D01*
X021227Y003841D02*
X023088Y003841D01*
X023088Y003848D02*
X023088Y003687D01*
X023358Y003418D01*
X023518Y003418D01*
X023518Y003848D01*
X023088Y003848D01*
X023088Y003908D02*
X023518Y003908D01*
X023518Y003848D01*
X023578Y003848D01*
X023578Y003418D01*
X023739Y003418D01*
X024008Y003687D01*
X024008Y003848D01*
X023578Y003848D01*
X023578Y003908D01*
X023518Y003908D01*
X023518Y004338D01*
X023358Y004338D01*
X023088Y004068D01*
X023088Y003908D01*
X023088Y003939D02*
X022339Y003939D01*
X022380Y004038D02*
X023088Y004038D01*
X023156Y004136D02*
X022380Y004136D01*
X022380Y004235D02*
X023255Y004235D01*
X023353Y004333D02*
X022380Y004333D01*
X023518Y004333D02*
X023578Y004333D01*
X023578Y004338D02*
X023739Y004338D01*
X024008Y004068D01*
X024008Y003908D01*
X023578Y003908D01*
X023578Y004338D01*
X023578Y004235D02*
X023518Y004235D01*
X023518Y004136D02*
X023578Y004136D01*
X023578Y004038D02*
X023518Y004038D01*
X023518Y003939D02*
X023578Y003939D01*
X023578Y003841D02*
X023518Y003841D01*
X023518Y003742D02*
X023578Y003742D01*
X023578Y003644D02*
X023518Y003644D01*
X023518Y003545D02*
X023578Y003545D01*
X023578Y003447D02*
X023518Y003447D01*
X023329Y003447D02*
X021621Y003447D01*
X021523Y003545D02*
X023230Y003545D01*
X023132Y003644D02*
X021424Y003644D01*
X021326Y003742D02*
X023088Y003742D01*
X023768Y003447D02*
X024639Y003447D01*
X024540Y003348D02*
X021720Y003348D01*
X021818Y003250D02*
X024442Y003250D01*
X024626Y002982D02*
X024788Y003144D01*
X025195Y003144D01*
X025195Y003084D01*
X024765Y003084D01*
X024765Y003078D01*
X024777Y003006D01*
X024799Y002937D01*
X024832Y002873D01*
X024875Y002814D01*
X024926Y002763D01*
X024969Y002732D01*
X021016Y002732D01*
X020402Y003346D01*
X020499Y003443D01*
X020563Y003597D01*
X020563Y003764D01*
X020499Y003919D01*
X020406Y004012D01*
X020604Y004012D01*
X021634Y002982D01*
X021728Y002888D01*
X024532Y002888D01*
X024626Y002982D01*
X024599Y002954D02*
X024794Y002954D01*
X024769Y003053D02*
X024697Y003053D01*
X024844Y002856D02*
X020892Y002856D01*
X020794Y002954D02*
X021661Y002954D01*
X021563Y003053D02*
X020695Y003053D01*
X020597Y003151D02*
X021464Y003151D01*
X021366Y003250D02*
X020498Y003250D01*
X020404Y003348D02*
X021267Y003348D01*
X021169Y003447D02*
X020500Y003447D01*
X020541Y003545D02*
X021070Y003545D01*
X020972Y003644D02*
X020563Y003644D01*
X020563Y003742D02*
X020873Y003742D01*
X020775Y003841D02*
X020531Y003841D01*
X020478Y003939D02*
X020676Y003939D01*
X021030Y004038D02*
X021307Y004038D01*
X021307Y004136D02*
X020932Y004136D01*
X020833Y004235D02*
X021307Y004235D01*
X019754Y003841D02*
X019725Y003841D01*
X019723Y003742D02*
X019627Y003742D01*
X019723Y003644D02*
X019528Y003644D01*
X019500Y003545D02*
X019744Y003545D01*
X019785Y003447D02*
X019430Y003447D01*
X020563Y002733D02*
X020790Y002506D01*
X020884Y002412D01*
X024205Y002412D01*
X024061Y002268D01*
X024061Y001920D01*
X024250Y001732D01*
X021056Y001732D01*
X020550Y002238D01*
X020456Y002332D01*
X020360Y002332D01*
X020381Y002341D01*
X020499Y002459D01*
X020563Y002613D01*
X020563Y002733D01*
X020563Y002659D02*
X020637Y002659D01*
X020541Y002560D02*
X020735Y002560D01*
X020834Y002462D02*
X020500Y002462D01*
X020404Y002363D02*
X024157Y002363D01*
X024061Y002265D02*
X020523Y002265D01*
X020622Y002166D02*
X024061Y002166D01*
X024061Y002068D02*
X020720Y002068D01*
X020819Y001969D02*
X024061Y001969D01*
X024111Y001871D02*
X020917Y001871D01*
X021016Y001772D02*
X024209Y001772D01*
X023388Y001378D02*
X020403Y001378D01*
X020453Y001280D02*
X023313Y001280D01*
X023272Y001181D02*
X020493Y001181D01*
X020500Y001083D02*
X023266Y001083D01*
X023272Y000984D02*
X020494Y000984D01*
X020453Y000886D02*
X023313Y000886D01*
X023387Y000787D02*
X020379Y000787D01*
X020227Y000689D02*
X023539Y000689D01*
X023833Y000689D02*
X024293Y000689D01*
X024194Y000787D02*
X023985Y000787D01*
X024059Y000886D02*
X024096Y000886D01*
X020859Y001477D02*
X020500Y001477D01*
X020541Y001575D02*
X020760Y001575D01*
X020662Y001674D02*
X020563Y001674D01*
X020563Y001772D02*
X020563Y001772D01*
X019806Y001969D02*
X016873Y001969D01*
X016925Y001871D02*
X019754Y001871D01*
X019723Y001772D02*
X016956Y001772D01*
X016956Y001674D02*
X019723Y001674D01*
X019745Y001575D02*
X016934Y001575D01*
X016894Y001477D02*
X019786Y001477D01*
X019782Y001378D02*
X016796Y001378D01*
X016276Y001378D02*
X014090Y001378D01*
X014091Y001381D02*
X014118Y001464D01*
X014131Y001544D01*
X013626Y001544D01*
X013626Y001039D01*
X013706Y001052D01*
X013789Y001079D01*
X013867Y001119D01*
X013938Y001170D01*
X014000Y001232D01*
X014051Y001303D01*
X014091Y001381D01*
X014120Y001477D02*
X016179Y001477D01*
X016139Y001575D02*
X013626Y001575D01*
X013626Y001544D02*
X013626Y001644D01*
X014131Y001644D01*
X014118Y001724D01*
X014091Y001808D01*
X014051Y001886D01*
X014000Y001956D01*
X013938Y002018D01*
X013867Y002070D01*
X013789Y002109D01*
X013706Y002137D01*
X013626Y002149D01*
X013626Y001644D01*
X013526Y001644D01*
X013526Y001544D01*
X013626Y001544D01*
X013626Y001477D02*
X013526Y001477D01*
X013526Y001544D02*
X013526Y001039D01*
X013446Y001052D01*
X013362Y001079D01*
X013284Y001119D01*
X013214Y001170D01*
X013152Y001232D01*
X013100Y001303D01*
X013061Y001381D01*
X013034Y001464D01*
X013021Y001544D01*
X013526Y001544D01*
X013526Y001575D02*
X008114Y001575D01*
X008114Y001544D02*
X008114Y001644D01*
X008619Y001644D01*
X008606Y001724D01*
X008579Y001808D01*
X008539Y001886D01*
X008488Y001956D01*
X008426Y002018D01*
X008355Y002070D01*
X008277Y002109D01*
X008194Y002137D01*
X008114Y002149D01*
X008114Y001644D01*
X008014Y001644D01*
X008014Y001544D01*
X008114Y001544D01*
X008114Y001039D01*
X008194Y001052D01*
X008277Y001079D01*
X008355Y001119D01*
X008426Y001170D01*
X008488Y001232D01*
X008539Y001303D01*
X008579Y001381D01*
X008606Y001464D01*
X008619Y001544D01*
X008114Y001544D01*
X008114Y001477D02*
X008014Y001477D01*
X008014Y001544D02*
X008014Y001039D01*
X007934Y001052D01*
X007851Y001079D01*
X007773Y001119D01*
X007702Y001170D01*
X007640Y001232D01*
X007589Y001303D01*
X007549Y001381D01*
X007522Y001464D01*
X007509Y001544D01*
X008014Y001544D01*
X008014Y001575D02*
X002602Y001575D01*
X002602Y001544D02*
X002602Y001644D01*
X003107Y001644D01*
X003094Y001724D01*
X003067Y001808D01*
X003028Y001886D01*
X002976Y001956D01*
X002914Y002018D01*
X002844Y002070D01*
X002766Y002109D01*
X002682Y002137D01*
X002602Y002149D01*
X002602Y001644D01*
X002502Y001644D01*
X002502Y001544D01*
X002602Y001544D01*
X002602Y001039D01*
X002682Y001052D01*
X002766Y001079D01*
X002844Y001119D01*
X002914Y001170D01*
X002976Y001232D01*
X003028Y001303D01*
X003067Y001381D01*
X003094Y001464D01*
X003107Y001544D01*
X002602Y001544D01*
X002602Y001477D02*
X002502Y001477D01*
X002502Y001544D02*
X002502Y001039D01*
X002422Y001052D01*
X002339Y001079D01*
X002261Y001119D01*
X002190Y001170D01*
X002128Y001232D01*
X002077Y001303D01*
X002037Y001381D01*
X002010Y001464D01*
X001997Y001544D01*
X002502Y001544D01*
X002502Y001575D02*
X000340Y001575D01*
X000340Y001477D02*
X002008Y001477D01*
X002038Y001378D02*
X000340Y001378D01*
X000340Y001280D02*
X002093Y001280D01*
X002179Y001181D02*
X000340Y001181D01*
X000340Y001083D02*
X002331Y001083D01*
X002502Y001083D02*
X002602Y001083D01*
X002602Y001181D02*
X002502Y001181D01*
X002502Y001280D02*
X002602Y001280D01*
X002602Y001378D02*
X002502Y001378D01*
X002926Y001181D02*
X007691Y001181D01*
X007605Y001280D02*
X003011Y001280D01*
X003066Y001378D02*
X007550Y001378D01*
X007520Y001477D02*
X003096Y001477D01*
X003102Y001674D02*
X007514Y001674D01*
X007509Y001644D02*
X008014Y001644D01*
X008014Y002149D01*
X007934Y002137D01*
X007851Y002109D01*
X007773Y002070D01*
X007702Y002018D01*
X007640Y001956D01*
X007589Y001886D01*
X007549Y001808D01*
X007522Y001724D01*
X007509Y001644D01*
X007537Y001772D02*
X003079Y001772D01*
X003035Y001871D02*
X007581Y001871D01*
X007653Y001969D02*
X002963Y001969D01*
X002846Y002068D02*
X007770Y002068D01*
X008014Y002068D02*
X008114Y002068D01*
X008114Y001969D02*
X008014Y001969D01*
X008014Y001871D02*
X008114Y001871D01*
X008114Y001772D02*
X008014Y001772D01*
X008014Y001674D02*
X008114Y001674D01*
X008591Y001772D02*
X013049Y001772D01*
X013061Y001808D02*
X013034Y001724D01*
X013021Y001644D01*
X013526Y001644D01*
X013526Y002149D01*
X013446Y002137D01*
X013362Y002109D01*
X013284Y002070D01*
X013214Y002018D01*
X013152Y001956D01*
X013100Y001886D01*
X013061Y001808D01*
X013093Y001871D02*
X008547Y001871D01*
X008475Y001969D02*
X013165Y001969D01*
X013282Y002068D02*
X008358Y002068D01*
X007620Y002363D02*
X000340Y002363D01*
X000340Y002265D02*
X015758Y002265D01*
X015856Y002166D02*
X000340Y002166D01*
X000340Y002068D02*
X002258Y002068D01*
X002261Y002070D02*
X002190Y002018D01*
X002128Y001956D01*
X002077Y001886D01*
X002037Y001808D01*
X002010Y001724D01*
X001997Y001644D01*
X002502Y001644D01*
X002502Y002149D01*
X002422Y002137D01*
X002339Y002109D01*
X002261Y002070D01*
X002141Y001969D02*
X000340Y001969D01*
X000340Y001871D02*
X002069Y001871D01*
X002026Y001772D02*
X000340Y001772D01*
X000340Y001674D02*
X002002Y001674D01*
X002502Y001674D02*
X002602Y001674D01*
X002602Y001772D02*
X002502Y001772D01*
X002502Y001871D02*
X002602Y001871D01*
X002602Y001969D02*
X002502Y001969D01*
X002502Y002068D02*
X002602Y002068D01*
X001679Y002806D02*
X001891Y003018D01*
X002006Y003295D01*
X002006Y003594D01*
X001891Y003871D01*
X001679Y004083D01*
X001403Y004198D01*
X001103Y004198D01*
X000827Y004083D01*
X000615Y003871D01*
X000500Y003594D01*
X000500Y003295D01*
X000615Y003018D01*
X000827Y002806D01*
X001103Y002692D01*
X001403Y002692D01*
X001679Y002806D01*
X001729Y002856D02*
X004005Y002856D01*
X004055Y002806D02*
X003843Y003018D01*
X003728Y003295D01*
X003728Y003594D01*
X003843Y003871D01*
X004055Y004083D01*
X004332Y004198D01*
X004631Y004198D01*
X004908Y004083D01*
X005120Y003871D01*
X005234Y003594D01*
X005234Y003295D01*
X005120Y003018D01*
X004908Y002806D01*
X004631Y002692D01*
X004332Y002692D01*
X004055Y002806D01*
X004173Y002757D02*
X001561Y002757D01*
X001828Y002954D02*
X003907Y002954D01*
X003829Y003053D02*
X001906Y003053D01*
X001946Y003151D02*
X003788Y003151D01*
X003747Y003250D02*
X001987Y003250D01*
X002006Y003348D02*
X003728Y003348D01*
X003728Y003447D02*
X002006Y003447D01*
X002006Y003545D02*
X003728Y003545D01*
X003749Y003644D02*
X001985Y003644D01*
X001945Y003742D02*
X003790Y003742D01*
X003831Y003841D02*
X001904Y003841D01*
X001823Y003939D02*
X003911Y003939D01*
X004010Y004038D02*
X001725Y004038D01*
X001550Y004136D02*
X004184Y004136D01*
X004779Y004136D02*
X006467Y004136D01*
X006293Y004038D02*
X004953Y004038D01*
X005051Y003939D02*
X006195Y003939D01*
X006114Y003841D02*
X005132Y003841D01*
X005173Y003742D02*
X006073Y003742D01*
X006032Y003644D02*
X005214Y003644D01*
X005234Y003545D02*
X006012Y003545D01*
X006012Y003447D02*
X005234Y003447D01*
X005234Y003348D02*
X006012Y003348D01*
X006031Y003250D02*
X005216Y003250D01*
X005175Y003151D02*
X006071Y003151D01*
X006112Y003053D02*
X005134Y003053D01*
X005056Y002954D02*
X006190Y002954D01*
X006289Y002856D02*
X004957Y002856D01*
X004790Y002757D02*
X006457Y002757D01*
X007073Y002757D02*
X007226Y002757D01*
X007324Y002659D02*
X000340Y002659D01*
X000340Y002757D02*
X000945Y002757D01*
X000777Y002856D02*
X000340Y002856D01*
X000340Y002954D02*
X000678Y002954D01*
X000600Y003053D02*
X000340Y003053D01*
X000340Y003151D02*
X000560Y003151D01*
X000519Y003250D02*
X000340Y003250D01*
X000340Y003348D02*
X000500Y003348D01*
X000500Y003447D02*
X000340Y003447D01*
X000340Y003545D02*
X000500Y003545D01*
X000521Y003644D02*
X000340Y003644D01*
X000340Y003742D02*
X000561Y003742D01*
X000602Y003841D02*
X000340Y003841D01*
X000340Y003939D02*
X000683Y003939D01*
X000781Y004038D02*
X000340Y004038D01*
X000340Y004136D02*
X000956Y004136D01*
X000340Y002560D02*
X007423Y002560D01*
X007521Y002462D02*
X000340Y002462D01*
X002773Y001083D02*
X007843Y001083D01*
X008014Y001083D02*
X008114Y001083D01*
X008114Y001181D02*
X008014Y001181D01*
X008014Y001280D02*
X008114Y001280D01*
X008114Y001378D02*
X008014Y001378D01*
X008437Y001181D02*
X013203Y001181D01*
X013117Y001280D02*
X008523Y001280D01*
X008578Y001378D02*
X013062Y001378D01*
X013032Y001477D02*
X008608Y001477D01*
X008614Y001674D02*
X013026Y001674D01*
X013526Y001674D02*
X013626Y001674D01*
X013626Y001772D02*
X013526Y001772D01*
X013526Y001871D02*
X013626Y001871D01*
X013626Y001969D02*
X013526Y001969D01*
X013526Y002068D02*
X013626Y002068D01*
X013870Y002068D02*
X015955Y002068D01*
X016053Y001969D02*
X013987Y001969D01*
X014059Y001871D02*
X016148Y001871D01*
X016116Y001772D02*
X014102Y001772D01*
X014126Y001674D02*
X016116Y001674D01*
X016536Y001712D02*
X015757Y002492D01*
X016309Y002166D02*
X019209Y002166D01*
X019308Y002068D02*
X016775Y002068D01*
X014035Y001280D02*
X019707Y001280D01*
X019666Y001181D02*
X013949Y001181D01*
X013797Y001083D02*
X019660Y001083D01*
X019666Y000984D02*
X000340Y000984D01*
X000340Y000886D02*
X019707Y000886D01*
X019781Y000787D02*
X000340Y000787D01*
X000340Y000689D02*
X019932Y000689D01*
X013626Y001083D02*
X013526Y001083D01*
X013526Y001181D02*
X013626Y001181D01*
X013626Y001280D02*
X013526Y001280D01*
X013526Y001378D02*
X013626Y001378D01*
X013355Y001083D02*
X008285Y001083D01*
X007777Y002659D02*
X012836Y002659D01*
X012738Y002757D02*
X012585Y002757D01*
X009423Y003939D02*
X007335Y003939D01*
X007416Y003841D02*
X009342Y003841D01*
X009522Y004038D02*
X007236Y004038D01*
X007062Y004136D02*
X009696Y004136D01*
X014369Y005417D02*
X016203Y005417D01*
X017310Y005909D02*
X017427Y005909D01*
X018341Y005909D02*
X018365Y005909D01*
X018341Y005811D02*
X018464Y005811D01*
X018719Y006008D02*
X018834Y006008D01*
X018818Y005909D02*
X019346Y005909D01*
X019321Y005811D02*
X019445Y005811D01*
X019434Y005712D02*
X019543Y005712D01*
X019499Y005614D02*
X019642Y005614D01*
X019740Y005515D02*
X019540Y005515D01*
X019544Y005417D02*
X019839Y005417D01*
X018733Y006106D02*
X018621Y006106D01*
X018673Y006205D02*
X018547Y006205D01*
X018547Y006303D02*
X018632Y006303D01*
X018228Y007387D02*
X017694Y007387D01*
X017596Y007485D02*
X018229Y007485D01*
X018229Y007584D02*
X017497Y007584D01*
X017399Y007682D02*
X018229Y007682D01*
X018229Y007781D02*
X017300Y007781D01*
X017202Y007879D02*
X018229Y007879D01*
X018229Y007978D02*
X017103Y007978D01*
X017005Y008076D02*
X018229Y008076D01*
X018229Y008175D02*
X016906Y008175D01*
X016808Y008273D02*
X018229Y008273D01*
X018230Y008372D02*
X016709Y008372D01*
X016611Y008470D02*
X018230Y008470D01*
X018230Y008569D02*
X016512Y008569D01*
X015961Y008667D02*
X015824Y008667D01*
X016828Y008766D02*
X017450Y008766D01*
X017318Y008864D02*
X016960Y008864D01*
X016651Y007978D02*
X013862Y007978D01*
X013982Y007879D02*
X016749Y007879D01*
X016848Y007781D02*
X014056Y007781D01*
X014101Y007682D02*
X016946Y007682D01*
X017045Y007584D02*
X014125Y007584D01*
X013626Y007584D02*
X013526Y007584D01*
X013526Y007682D02*
X013626Y007682D01*
X013626Y007781D02*
X013526Y007781D01*
X013526Y007879D02*
X013626Y007879D01*
X013626Y007978D02*
X013526Y007978D01*
X009674Y008667D02*
X007168Y008667D01*
X007302Y008766D02*
X009513Y008766D01*
X009414Y008864D02*
X007392Y008864D01*
X007457Y008963D02*
X009339Y008963D01*
X009298Y009061D02*
X007503Y009061D01*
X007535Y009160D02*
X009257Y009160D01*
X009240Y009258D02*
X007552Y009258D01*
X006815Y009160D02*
X006715Y009160D01*
X006715Y009061D02*
X006815Y009061D01*
X006815Y008963D02*
X006715Y008963D01*
X006715Y008864D02*
X006815Y008864D01*
X006815Y008766D02*
X006715Y008766D01*
X006715Y008667D02*
X006815Y008667D01*
X012277Y009350D02*
X013058Y010132D01*
X012747Y010046D02*
X012563Y010046D01*
X015972Y009948D02*
X017132Y009948D01*
X017132Y009849D02*
X016070Y009849D01*
X016154Y009751D02*
X017132Y009751D01*
X017158Y010046D02*
X015979Y010046D01*
X016077Y010145D02*
X017257Y010145D01*
X017355Y010243D02*
X016176Y010243D01*
X016274Y010342D02*
X021234Y010342D01*
X021135Y010440D02*
X020580Y010440D01*
X020679Y010539D02*
X021037Y010539D01*
X020938Y010637D02*
X020777Y010637D01*
X020796Y010736D02*
X020840Y010736D01*
X019148Y010440D02*
X016740Y010440D01*
X016839Y010539D02*
X019049Y010539D01*
X018951Y010637D02*
X016937Y010637D01*
X016199Y011327D02*
X014369Y011327D01*
X014347Y011425D02*
X016297Y011425D01*
X016396Y011524D02*
X014311Y011524D01*
X014259Y011622D02*
X017182Y011622D01*
X017132Y011721D02*
X014188Y011721D01*
X014088Y011819D02*
X017132Y011819D01*
X017227Y012115D02*
X000340Y012115D01*
X019039Y007781D02*
X019136Y007781D01*
X019136Y007682D02*
X019039Y007682D01*
X019039Y007584D02*
X019136Y007584D01*
X022870Y009372D02*
X023190Y009052D01*
X022870Y009372D02*
X022932Y009532D01*
X022873Y009593D01*
X022536Y009849D02*
X019604Y009849D01*
X019506Y009948D02*
X021628Y009948D01*
X024075Y010834D02*
X024099Y010834D01*
X025760Y011327D02*
X026514Y011327D01*
X026416Y011228D02*
X025859Y011228D01*
X025957Y011130D02*
X026317Y011130D01*
X026265Y011031D02*
X026056Y011031D01*
X026154Y010933D02*
X026265Y010933D01*
X026253Y010834D02*
X026265Y010834D01*
X026956Y011524D02*
X027084Y011524D01*
X030745Y010933D02*
X030760Y010933D01*
X031434Y011130D02*
X034498Y011130D01*
X034407Y011031D02*
X031524Y011031D01*
X031565Y010933D02*
X034367Y010933D01*
X034349Y010834D02*
X031583Y010834D01*
X031583Y010736D02*
X034349Y010736D01*
X034385Y010637D02*
X031547Y010637D01*
X031489Y010539D02*
X034443Y010539D01*
X034556Y010440D02*
X031376Y010440D01*
X030950Y010440D02*
X030949Y010440D01*
X030917Y009554D02*
X030722Y009554D01*
X031563Y009160D02*
X031597Y009160D01*
X031543Y009061D02*
X031695Y009061D01*
X031794Y008963D02*
X031502Y008963D01*
X031636Y008864D02*
X031736Y008864D01*
X031736Y008766D02*
X031636Y008766D01*
X031636Y008667D02*
X031736Y008667D01*
X031736Y008569D02*
X031636Y008569D01*
X032222Y008470D02*
X032286Y008470D01*
X030877Y008864D02*
X030763Y008864D01*
X027426Y008766D02*
X026599Y008766D01*
X027156Y008864D02*
X027327Y008864D01*
X026045Y007485D02*
X025426Y007485D01*
X025546Y007387D02*
X026045Y007387D01*
X026045Y007288D02*
X025608Y007288D01*
X025645Y007190D02*
X026045Y007190D01*
X025977Y007091D02*
X025645Y007091D01*
X025630Y006993D02*
X025878Y006993D01*
X025780Y006894D02*
X025589Y006894D01*
X025501Y006796D02*
X025681Y006796D01*
X025583Y006697D02*
X025317Y006697D01*
X025134Y006697D02*
X024950Y006697D01*
X024950Y006599D02*
X025484Y006599D01*
X025061Y006500D02*
X024950Y006500D01*
X028882Y006993D02*
X028979Y006993D01*
X028979Y007091D02*
X028882Y007091D01*
X028882Y007190D02*
X028979Y007190D01*
X028979Y007288D02*
X028882Y007288D01*
X035015Y008864D02*
X036091Y008864D01*
X035993Y008963D02*
X035108Y008963D01*
X037548Y009751D02*
X037807Y009751D01*
X037726Y009833D02*
X038007Y009551D01*
X038166Y009551D01*
X038166Y009991D01*
X038246Y009991D01*
X038246Y010071D01*
X038686Y010071D01*
X038686Y010230D01*
X038405Y010511D01*
X038246Y010511D01*
X038246Y010071D01*
X038166Y010071D01*
X038166Y009991D01*
X037726Y009991D01*
X037726Y009833D01*
X037726Y009849D02*
X037646Y009849D01*
X037646Y009948D02*
X037726Y009948D01*
X037726Y010071D02*
X038166Y010071D01*
X038166Y010511D01*
X038007Y010511D01*
X037726Y010230D01*
X037726Y010071D01*
X037726Y010145D02*
X037646Y010145D01*
X037646Y010046D02*
X038166Y010046D01*
X038246Y010046D02*
X039166Y010046D01*
X039166Y010071D02*
X039166Y009991D01*
X039246Y009991D01*
X039246Y010071D01*
X039686Y010071D01*
X039686Y010230D01*
X039405Y010511D01*
X039246Y010511D01*
X039246Y010071D01*
X039166Y010071D01*
X038726Y010071D01*
X038726Y010230D01*
X039007Y010511D01*
X039166Y010511D01*
X039166Y010071D01*
X039166Y010145D02*
X039246Y010145D01*
X039246Y010243D02*
X039166Y010243D01*
X039166Y010342D02*
X039246Y010342D01*
X039246Y010440D02*
X039166Y010440D01*
X039166Y010551D02*
X039166Y010991D01*
X039246Y010991D01*
X039246Y011071D01*
X039686Y011071D01*
X039686Y011230D01*
X039405Y011511D01*
X039246Y011511D01*
X039246Y011071D01*
X039166Y011071D01*
X039166Y010991D01*
X038726Y010991D01*
X038726Y010833D01*
X039007Y010551D01*
X039166Y010551D01*
X039246Y010551D02*
X039405Y010551D01*
X039686Y010833D01*
X039686Y010991D01*
X039246Y010991D01*
X039246Y010551D01*
X039246Y010637D02*
X039166Y010637D01*
X039166Y010736D02*
X039246Y010736D01*
X039246Y010834D02*
X039166Y010834D01*
X039166Y010933D02*
X039246Y010933D01*
X039246Y011031D02*
X040166Y011031D01*
X040166Y011071D02*
X040166Y010991D01*
X040246Y010991D01*
X040246Y011071D01*
X040686Y011071D01*
X040686Y011230D01*
X040405Y011511D01*
X040246Y011511D01*
X040246Y011071D01*
X040166Y011071D01*
X039726Y011071D01*
X039726Y011230D01*
X040007Y011511D01*
X040166Y011511D01*
X040166Y011071D01*
X040166Y011130D02*
X040246Y011130D01*
X040246Y011228D02*
X040166Y011228D01*
X040166Y011327D02*
X040246Y011327D01*
X040246Y011425D02*
X040166Y011425D01*
X039921Y011425D02*
X039490Y011425D01*
X039589Y011327D02*
X039823Y011327D01*
X039726Y011228D02*
X039686Y011228D01*
X039686Y011130D02*
X039726Y011130D01*
X039726Y010991D02*
X039726Y010833D01*
X040007Y010551D01*
X040166Y010551D01*
X040166Y010991D01*
X039726Y010991D01*
X039726Y010933D02*
X039686Y010933D01*
X039686Y010834D02*
X039726Y010834D01*
X039822Y010736D02*
X039589Y010736D01*
X039491Y010637D02*
X039921Y010637D01*
X040007Y010511D02*
X039726Y010230D01*
X039726Y010071D01*
X040166Y010071D01*
X040166Y009991D01*
X040246Y009991D01*
X040246Y010071D01*
X040686Y010071D01*
X040686Y010230D01*
X040405Y010511D01*
X040246Y010511D01*
X040246Y010071D01*
X040166Y010071D01*
X040166Y010511D01*
X040007Y010511D01*
X039936Y010440D02*
X039475Y010440D01*
X039574Y010342D02*
X039838Y010342D01*
X039739Y010243D02*
X039672Y010243D01*
X039686Y010145D02*
X039726Y010145D01*
X039726Y009991D02*
X039726Y009833D01*
X040007Y009551D01*
X040166Y009551D01*
X040166Y009991D01*
X039726Y009991D01*
X039686Y009991D02*
X039246Y009991D01*
X039246Y009551D01*
X039405Y009551D01*
X039686Y009833D01*
X039686Y009991D01*
X039686Y009948D02*
X039726Y009948D01*
X039726Y009849D02*
X039686Y009849D01*
X039604Y009751D02*
X039807Y009751D01*
X039906Y009652D02*
X039506Y009652D01*
X039407Y009554D02*
X040004Y009554D01*
X040166Y009554D02*
X040246Y009554D01*
X040246Y009551D02*
X040405Y009551D01*
X040686Y009833D01*
X040686Y009991D01*
X040246Y009991D01*
X040246Y009551D01*
X040246Y009652D02*
X040166Y009652D01*
X040166Y009751D02*
X040246Y009751D01*
X040246Y009849D02*
X040166Y009849D01*
X040166Y009948D02*
X040246Y009948D01*
X040246Y010046D02*
X040766Y010046D01*
X040766Y009948D02*
X040686Y009948D01*
X040686Y009849D02*
X040805Y009849D01*
X040864Y009751D02*
X040604Y009751D01*
X040686Y010145D02*
X040777Y010145D01*
X040817Y010243D02*
X040672Y010243D01*
X040574Y010342D02*
X040894Y010342D01*
X040984Y010440D02*
X040475Y010440D01*
X040405Y010551D02*
X040686Y010833D01*
X040686Y010991D01*
X040246Y010991D01*
X040246Y010551D01*
X040405Y010551D01*
X040491Y010637D02*
X040977Y010637D01*
X040984Y010539D02*
X037428Y010539D01*
X037428Y010440D02*
X037936Y010440D01*
X038007Y010551D02*
X038166Y010551D01*
X038166Y010991D01*
X038246Y010991D01*
X038246Y011071D01*
X038686Y011071D01*
X038686Y011230D01*
X038405Y011511D01*
X038246Y011511D01*
X038246Y011071D01*
X038166Y011071D01*
X038166Y010991D01*
X037726Y010991D01*
X037726Y010833D01*
X038007Y010551D01*
X037921Y010637D02*
X037434Y010637D01*
X037533Y010736D02*
X037822Y010736D01*
X037726Y010834D02*
X037631Y010834D01*
X037646Y010933D02*
X037726Y010933D01*
X037646Y011031D02*
X038166Y011031D01*
X038166Y011071D02*
X037726Y011071D01*
X037726Y011230D01*
X038007Y011511D01*
X038166Y011511D01*
X038166Y011071D01*
X038166Y011130D02*
X038246Y011130D01*
X038246Y011228D02*
X038166Y011228D01*
X038166Y011327D02*
X038246Y011327D01*
X038246Y011425D02*
X038166Y011425D01*
X037921Y011425D02*
X037434Y011425D01*
X037532Y011327D02*
X037823Y011327D01*
X037726Y011228D02*
X037631Y011228D01*
X037646Y011130D02*
X037726Y011130D01*
X038166Y010933D02*
X038246Y010933D01*
X038246Y010991D02*
X038246Y010551D01*
X038405Y010551D01*
X038686Y010833D01*
X038686Y010991D01*
X038246Y010991D01*
X038246Y011031D02*
X039166Y011031D01*
X039166Y011071D02*
X038726Y011071D01*
X038726Y011230D01*
X039007Y011511D01*
X039166Y011511D01*
X039166Y011071D01*
X039166Y011130D02*
X039246Y011130D01*
X039246Y011228D02*
X039166Y011228D01*
X039166Y011327D02*
X039246Y011327D01*
X039246Y011425D02*
X039166Y011425D01*
X038921Y011425D02*
X038490Y011425D01*
X038589Y011327D02*
X038823Y011327D01*
X038726Y011228D02*
X038686Y011228D01*
X038686Y011130D02*
X038726Y011130D01*
X038726Y010933D02*
X038686Y010933D01*
X038686Y010834D02*
X038726Y010834D01*
X038822Y010736D02*
X038589Y010736D01*
X038491Y010637D02*
X038921Y010637D01*
X038936Y010440D02*
X038475Y010440D01*
X038574Y010342D02*
X038838Y010342D01*
X038739Y010243D02*
X038672Y010243D01*
X038686Y010145D02*
X038726Y010145D01*
X038726Y009991D02*
X038726Y009833D01*
X039007Y009551D01*
X039166Y009551D01*
X039166Y009991D01*
X038726Y009991D01*
X038686Y009991D02*
X038246Y009991D01*
X038246Y009551D01*
X038405Y009551D01*
X038686Y009833D01*
X038686Y009991D01*
X038686Y009948D02*
X038726Y009948D01*
X038726Y009849D02*
X038686Y009849D01*
X038604Y009751D02*
X038807Y009751D01*
X038906Y009652D02*
X038506Y009652D01*
X038407Y009554D02*
X039004Y009554D01*
X039166Y009554D02*
X039246Y009554D01*
X039246Y009652D02*
X039166Y009652D01*
X039166Y009751D02*
X039246Y009751D01*
X039246Y009849D02*
X039166Y009849D01*
X039166Y009948D02*
X039246Y009948D01*
X039246Y010046D02*
X040166Y010046D01*
X040166Y010145D02*
X040246Y010145D01*
X040246Y010243D02*
X040166Y010243D01*
X040166Y010342D02*
X040246Y010342D01*
X040246Y010440D02*
X040166Y010440D01*
X040166Y010637D02*
X040246Y010637D01*
X040246Y010736D02*
X040166Y010736D01*
X040166Y010834D02*
X040246Y010834D01*
X040246Y010933D02*
X040166Y010933D01*
X040246Y011031D02*
X040766Y011031D01*
X040766Y010933D02*
X040686Y010933D01*
X040686Y010834D02*
X040780Y010834D01*
X040879Y010736D02*
X040589Y010736D01*
X040686Y011130D02*
X040766Y011130D01*
X040781Y011228D02*
X040686Y011228D01*
X040589Y011327D02*
X040879Y011327D01*
X040978Y011425D02*
X040490Y011425D01*
X038246Y010834D02*
X038166Y010834D01*
X038166Y010736D02*
X038246Y010736D01*
X038246Y010637D02*
X038166Y010637D01*
X038166Y010440D02*
X038246Y010440D01*
X038246Y010342D02*
X038166Y010342D01*
X038166Y010243D02*
X038246Y010243D01*
X038246Y010145D02*
X038166Y010145D01*
X038166Y009948D02*
X038246Y009948D01*
X038246Y009849D02*
X038166Y009849D01*
X038166Y009751D02*
X038246Y009751D01*
X038246Y009652D02*
X038166Y009652D01*
X038166Y009554D02*
X038246Y009554D01*
X037739Y010243D02*
X037616Y010243D01*
X037517Y010342D02*
X037838Y010342D01*
X034554Y011425D02*
X031377Y011425D01*
X031490Y011524D02*
X034442Y011524D01*
X034384Y011622D02*
X031547Y011622D01*
X031583Y011721D02*
X034349Y011721D01*
X034349Y011819D02*
X031583Y011819D01*
X031565Y011918D02*
X034367Y011918D01*
X034408Y012016D02*
X031524Y012016D01*
X031433Y012115D02*
X034499Y012115D01*
X030948Y011425D02*
X030861Y011425D01*
X022149Y011721D02*
X022089Y011721D01*
X022089Y011819D02*
X022149Y011819D01*
X022149Y011918D02*
X022089Y011918D01*
X022089Y012016D02*
X022149Y012016D01*
X031636Y004924D02*
X031736Y004924D01*
X031736Y004826D02*
X031636Y004826D01*
X031636Y004727D02*
X031736Y004727D01*
X031736Y004629D02*
X031636Y004629D01*
X031636Y004333D02*
X031736Y004333D01*
X031736Y004235D02*
X031636Y004235D01*
X031636Y004136D02*
X031736Y004136D01*
X031736Y004038D02*
X031636Y004038D01*
X031636Y003939D02*
X031736Y003939D01*
X028543Y003432D02*
X028225Y003114D01*
X024934Y002757D02*
X020991Y002757D01*
X023866Y003545D02*
X024287Y003545D01*
X024188Y003644D02*
X023965Y003644D01*
X024008Y003742D02*
X024128Y003742D01*
X024128Y003841D02*
X024008Y003841D01*
X024008Y003939D02*
X024128Y003939D01*
X024128Y004038D02*
X024008Y004038D01*
X023940Y004136D02*
X024213Y004136D01*
X024311Y004235D02*
X023842Y004235D01*
X023743Y004333D02*
X024862Y004333D01*
X024821Y004235D02*
X024785Y004235D01*
X033135Y001575D02*
X033857Y001575D01*
X033758Y001477D02*
X033494Y001477D01*
X033660Y001378D02*
X033707Y001378D01*
X033249Y001477D02*
X033037Y001477D01*
X033082Y001378D02*
X032938Y001378D01*
X033002Y001280D02*
X030134Y001280D01*
X030175Y001181D02*
X032961Y001181D01*
X033789Y000984D02*
X033800Y000984D01*
X033763Y000886D02*
X033899Y000886D01*
X034355Y000886D02*
X034744Y000886D01*
X034604Y000984D02*
X034454Y000984D01*
X034496Y001477D02*
X034541Y001477D01*
X034620Y001575D02*
X034397Y001575D01*
X034785Y001674D02*
X033591Y001674D01*
X037291Y000652D02*
X037910Y001271D01*
X042618Y000886D02*
X043347Y000886D01*
X043347Y000984D02*
X042770Y000984D01*
X042844Y001083D02*
X043347Y001083D01*
X043347Y001181D02*
X042885Y001181D01*
X042891Y001280D02*
X043347Y001280D01*
X043347Y001378D02*
X042884Y001378D01*
X042843Y001477D02*
X043347Y001477D01*
X043347Y001575D02*
X042768Y001575D01*
D25*
X036470Y003212D03*
X035430Y004132D03*
X031520Y005462D03*
X030230Y004572D03*
X027070Y006452D03*
X025830Y008172D03*
X020510Y006452D03*
X016590Y004532D03*
X019270Y003612D03*
X022470Y002092D03*
X026750Y002052D03*
X027550Y001572D03*
X032150Y009652D03*
X023430Y010412D03*
M02*
