%TF.GenerationSoftware,KiCad,Pcbnew,8.0.2*%
%TF.CreationDate,2024-05-21T21:49:38+01:00*%
%TF.ProjectId,3ch mix 1.6,33636820-6d69-4782-9031-2e362e6b6963,rev?*%
%TF.SameCoordinates,Original*%
%TF.FileFunction,Paste,Bot*%
%TF.FilePolarity,Positive*%
%FSLAX46Y46*%
G04 Gerber Fmt 4.6, Leading zero omitted, Abs format (unit mm)*
G04 Created by KiCad (PCBNEW 8.0.2) date 2024-05-21 21:49:38*
%MOMM*%
%LPD*%
G01*
G04 APERTURE LIST*
%ADD10R,1.300000X1.600000*%
%ADD11R,1.600000X1.300000*%
G04 APERTURE END LIST*
D10*
%TO.C,R21*%
X139073100Y-69071600D03*
X137073100Y-69071600D03*
%TD*%
%TO.C,R20*%
X137073100Y-76691600D03*
X139073100Y-76691600D03*
%TD*%
%TO.C,R17*%
X149487100Y-77453600D03*
X147487100Y-77453600D03*
%TD*%
D11*
%TO.C,R2*%
X161187100Y-94487600D03*
X161187100Y-96487600D03*
%TD*%
D10*
%TO.C,C5*%
X143137100Y-86343600D03*
X141137100Y-86343600D03*
%TD*%
%TO.C,R11*%
X143169100Y-69071600D03*
X145169100Y-69071600D03*
%TD*%
%TO.C,R23*%
X137803100Y-58149600D03*
X135803100Y-58149600D03*
%TD*%
%TO.C,C11*%
X151265100Y-58911600D03*
X149265100Y-58911600D03*
%TD*%
%TO.C,R16*%
X137327100Y-108187600D03*
X139327100Y-108187600D03*
%TD*%
%TO.C,C12*%
X137803100Y-61451600D03*
X135803100Y-61451600D03*
%TD*%
D11*
%TO.C,R1*%
X157123100Y-94487600D03*
X157123100Y-96487600D03*
%TD*%
D10*
%TO.C,R10*%
X144153100Y-93963600D03*
X142153100Y-93963600D03*
%TD*%
%TO.C,R18*%
X137073100Y-83295600D03*
X139073100Y-83295600D03*
%TD*%
%TO.C,R9*%
X149487100Y-81009600D03*
X147487100Y-81009600D03*
%TD*%
%TO.C,R7*%
X149741100Y-101583600D03*
X147741100Y-101583600D03*
%TD*%
%TO.C,R14*%
X148503100Y-69071600D03*
X150503100Y-69071600D03*
%TD*%
%TO.C,R13*%
X138819100Y-93963600D03*
X136819100Y-93963600D03*
%TD*%
%TO.C,R4*%
X145169100Y-132825600D03*
X143169100Y-132825600D03*
%TD*%
D11*
%TO.C,R3*%
X154329100Y-117315600D03*
X154329100Y-115315600D03*
%TD*%
D10*
%TO.C,R5*%
X147201100Y-144255600D03*
X145201100Y-144255600D03*
%TD*%
%TO.C,C2*%
X159679100Y-99805600D03*
X161679100Y-99805600D03*
%TD*%
%TO.C,C6*%
X142661100Y-101583600D03*
X144661100Y-101583600D03*
%TD*%
%TO.C,R6*%
X147201100Y-157971600D03*
X145201100Y-157971600D03*
%TD*%
%TO.C,R12*%
X137327100Y-101583600D03*
X139327100Y-101583600D03*
%TD*%
%TO.C,R15*%
X139327100Y-104885600D03*
X137327100Y-104885600D03*
%TD*%
%TO.C,R8*%
X149741100Y-93963600D03*
X147741100Y-93963600D03*
%TD*%
%TO.C,C10*%
X136057100Y-86343600D03*
X138057100Y-86343600D03*
%TD*%
%TO.C,C1*%
X155107100Y-99805600D03*
X157107100Y-99805600D03*
%TD*%
%TO.C,R22*%
X135803100Y-51545600D03*
X137803100Y-51545600D03*
%TD*%
%TO.C,R24*%
X137803100Y-54847600D03*
X135803100Y-54847600D03*
%TD*%
%TO.C,C7*%
X142883100Y-61451600D03*
X140883100Y-61451600D03*
%TD*%
%TO.C,C8*%
X142407100Y-76691600D03*
X144407100Y-76691600D03*
%TD*%
%TO.C,R19*%
X137073100Y-79993600D03*
X139073100Y-79993600D03*
%TD*%
M02*
