%TF.GenerationSoftware,KiCad,Pcbnew,8.0.2*%
%TF.CreationDate,2024-05-21T21:49:58+01:00*%
%TF.ProjectId,3ch mix 1.6,33636820-6d69-4782-9031-2e362e6b6963,rev?*%
%TF.SameCoordinates,Original*%
%TF.FileFunction,Drillmap*%
%TF.FilePolarity,Positive*%
%FSLAX45Y45*%
G04 Gerber Fmt 4.5, Leading zero omitted, Abs format (unit mm)*
G04 Created by KiCad (PCBNEW 8.0.2) date 2024-05-21 21:49:58*
%MOMM*%
%LPD*%
G01*
G04 APERTURE LIST*
%ADD10C,0.050000*%
%ADD11C,0.200000*%
%ADD12C,0.100000*%
%ADD13C,0.101600*%
%ADD14C,0.120000*%
%ADD15C,0.130000*%
%ADD16C,0.160000*%
%ADD17C,0.225000*%
%ADD18C,0.230000*%
G04 APERTURE END LIST*
D10*
X13400110Y-5000360D02*
X13400110Y-16000360D01*
X13400110Y-16000360D02*
X16300110Y-16000360D01*
X16300110Y-5000360D02*
X13400110Y-5000360D01*
X16300110Y-16000360D02*
X16300110Y-5000360D01*
D11*
D12*
X13449410Y-8143110D02*
X13479410Y-8173110D01*
X13479410Y-8143110D02*
X13449410Y-8173110D01*
X13449410Y-11280010D02*
X13479410Y-11310010D01*
X13479410Y-11280010D02*
X13449410Y-11310010D01*
X13474810Y-6974710D02*
X13504810Y-7004710D01*
X13504810Y-6974710D02*
X13474810Y-7004710D01*
X13512910Y-6841360D02*
X13542910Y-6871360D01*
X13542910Y-6841360D02*
X13512910Y-6871360D01*
X13538310Y-5171310D02*
X13568310Y-5201310D01*
X13568310Y-5171310D02*
X13538310Y-5201310D01*
X13563710Y-5825360D02*
X13593710Y-5855360D01*
X13593710Y-5825360D02*
X13563710Y-5855360D01*
X13665310Y-7679560D02*
X13695310Y-7709560D01*
X13695310Y-7679560D02*
X13665310Y-7709560D01*
X13665310Y-8009760D02*
X13695310Y-8039760D01*
X13695310Y-8009760D02*
X13665310Y-8039760D01*
X13716110Y-10168760D02*
X13746110Y-10198760D01*
X13746110Y-10168760D02*
X13716110Y-10198760D01*
X13716110Y-11235560D02*
X13746110Y-11265560D01*
X13746110Y-11235560D02*
X13716110Y-11265560D01*
X13844310Y-11947960D02*
X13874310Y-11977960D01*
X13874310Y-11947960D02*
X13844310Y-11977960D01*
X13906610Y-8473310D02*
X13936610Y-8503310D01*
X13936610Y-8473310D02*
X13906610Y-8503310D01*
X13944710Y-11235560D02*
X13974710Y-11265560D01*
X13974710Y-11235560D02*
X13944710Y-11265560D01*
X14046310Y-10994260D02*
X14076310Y-11024260D01*
X14076310Y-10994260D02*
X14046310Y-11024260D01*
X14097110Y-6841360D02*
X14127110Y-6871360D01*
X14127110Y-6841360D02*
X14097110Y-6871360D01*
X14147910Y-8339960D02*
X14177910Y-8369960D01*
X14177910Y-8339960D02*
X14147910Y-8369960D01*
X14147910Y-10778360D02*
X14177910Y-10808360D01*
X14177910Y-10778360D02*
X14147910Y-10808360D01*
X14173310Y-11438760D02*
X14203310Y-11468760D01*
X14203310Y-11438760D02*
X14173310Y-11468760D01*
X14224110Y-10905360D02*
X14254110Y-10935360D01*
X14254110Y-10905360D02*
X14224110Y-10935360D01*
X14224110Y-11286360D02*
X14254110Y-11316360D01*
X14254110Y-11286360D02*
X14224110Y-11316360D01*
X14249510Y-8238360D02*
X14279510Y-8268360D01*
X14279510Y-8238360D02*
X14249510Y-8268360D01*
X14274910Y-6098410D02*
X14304910Y-6128410D01*
X14304910Y-6098410D02*
X14274910Y-6128410D01*
X14274910Y-10803760D02*
X14304910Y-10833760D01*
X14304910Y-10803760D02*
X14274910Y-10833760D01*
X14300310Y-8441560D02*
X14330310Y-8471560D01*
X14330310Y-8441560D02*
X14300310Y-8471560D01*
X14451110Y-10143360D02*
X14481110Y-10173360D01*
X14481110Y-10143360D02*
X14451110Y-10173360D01*
X14554310Y-8390760D02*
X14584310Y-8420760D01*
X14584310Y-8390760D02*
X14554310Y-8420760D01*
X14706710Y-8289160D02*
X14736710Y-8319160D01*
X14736710Y-8289160D02*
X14706710Y-8319160D01*
X14732110Y-9355960D02*
X14762110Y-9385960D01*
X14762110Y-9355960D02*
X14732110Y-9385960D01*
X14757510Y-12022960D02*
X14787510Y-12052960D01*
X14787510Y-12022960D02*
X14757510Y-12052960D01*
X14808310Y-10371960D02*
X14838310Y-10401960D01*
X14838310Y-10371960D02*
X14808310Y-10401960D01*
X14808310Y-10727560D02*
X14838310Y-10757560D01*
X14838310Y-10727560D02*
X14808310Y-10757560D01*
X14935310Y-12302360D02*
X14965310Y-12332360D01*
X14965310Y-12302360D02*
X14935310Y-12332360D01*
X14960710Y-7730360D02*
X14990710Y-7760360D01*
X14990710Y-7730360D02*
X14960710Y-7760360D01*
X14960710Y-10295760D02*
X14990710Y-10325760D01*
X14990710Y-10295760D02*
X14960710Y-10325760D01*
X14960710Y-10651360D02*
X14990710Y-10681360D01*
X14990710Y-10651360D02*
X14960710Y-10681360D01*
X15011510Y-8263760D02*
X15041510Y-8293760D01*
X15041510Y-8263760D02*
X15011510Y-8293760D01*
X15087710Y-9482960D02*
X15117710Y-9512960D01*
X15117710Y-9482960D02*
X15087710Y-9512960D01*
X15189310Y-10956160D02*
X15219310Y-10986160D01*
X15219310Y-10956160D02*
X15189310Y-10986160D01*
X15189310Y-13292960D02*
X15219310Y-13322960D01*
X15219310Y-13292960D02*
X15189310Y-13322960D01*
X15290910Y-9406760D02*
X15320910Y-9436760D01*
X15320910Y-9406760D02*
X15290910Y-9436760D01*
X15341710Y-8619360D02*
X15371710Y-8649360D01*
X15371710Y-8619360D02*
X15341710Y-8649360D01*
X15519510Y-8416160D02*
X15549510Y-8446160D01*
X15549510Y-8416160D02*
X15519510Y-8446160D01*
X15519510Y-11032360D02*
X15549510Y-11062360D01*
X15549510Y-11032360D02*
X15519510Y-11062360D01*
X15519510Y-11337160D02*
X15549510Y-11367160D01*
X15549510Y-11337160D02*
X15519510Y-11367160D01*
X15646510Y-11870560D02*
X15676510Y-11900560D01*
X15676510Y-11870560D02*
X15646510Y-11900560D01*
X15697310Y-10194160D02*
X15727310Y-10224160D01*
X15727310Y-10194160D02*
X15697310Y-10224160D01*
X15786210Y-7533510D02*
X15816210Y-7563510D01*
X15816210Y-7533510D02*
X15786210Y-7563510D01*
X15900510Y-9736960D02*
X15930510Y-9766960D01*
X15930510Y-9736960D02*
X15900510Y-9766960D01*
X16071960Y-10740260D02*
X16101960Y-10770260D01*
X16101960Y-10740260D02*
X16071960Y-10770260D01*
X16179910Y-11286360D02*
X16209910Y-11316360D01*
X16209910Y-11286360D02*
X16179910Y-11316360D01*
X16230710Y-10740260D02*
X16260710Y-10770260D01*
X16260710Y-10740260D02*
X16230710Y-10770260D01*
X13720950Y-6526160D02*
G75*
G02*
X13639670Y-6526160I-40640J0D01*
G01*
X13639670Y-6526160D02*
G75*
G02*
X13720950Y-6526160I40640J0D01*
G01*
X13720950Y-7288160D02*
G75*
G02*
X13639670Y-7288160I-40640J0D01*
G01*
X13639670Y-7288160D02*
G75*
G02*
X13720950Y-7288160I40640J0D01*
G01*
X13746350Y-9015360D02*
G75*
G02*
X13665070Y-9015360I-40640J0D01*
G01*
X13665070Y-9015360D02*
G75*
G02*
X13746350Y-9015360I40640J0D01*
G01*
X13746350Y-9777360D02*
G75*
G02*
X13665070Y-9777360I-40640J0D01*
G01*
X13665070Y-9777360D02*
G75*
G02*
X13746350Y-9777360I40640J0D01*
G01*
X13974950Y-6526160D02*
G75*
G02*
X13893670Y-6526160I-40640J0D01*
G01*
X13893670Y-6526160D02*
G75*
G02*
X13974950Y-6526160I40640J0D01*
G01*
X13974950Y-7288160D02*
G75*
G02*
X13893670Y-7288160I-40640J0D01*
G01*
X13893670Y-7288160D02*
G75*
G02*
X13974950Y-7288160I40640J0D01*
G01*
X14000350Y-9015360D02*
G75*
G02*
X13919070Y-9015360I-40640J0D01*
G01*
X13919070Y-9015360D02*
G75*
G02*
X14000350Y-9015360I40640J0D01*
G01*
X14000350Y-9777360D02*
G75*
G02*
X13919070Y-9777360I-40640J0D01*
G01*
X13919070Y-9777360D02*
G75*
G02*
X14000350Y-9777360I40640J0D01*
G01*
X14228950Y-6526160D02*
G75*
G02*
X14147670Y-6526160I-40640J0D01*
G01*
X14147670Y-6526160D02*
G75*
G02*
X14228950Y-6526160I40640J0D01*
G01*
X14228950Y-7288160D02*
G75*
G02*
X14147670Y-7288160I-40640J0D01*
G01*
X14147670Y-7288160D02*
G75*
G02*
X14228950Y-7288160I40640J0D01*
G01*
X14254350Y-9015360D02*
G75*
G02*
X14173070Y-9015360I-40640J0D01*
G01*
X14173070Y-9015360D02*
G75*
G02*
X14254350Y-9015360I40640J0D01*
G01*
X14254350Y-9777360D02*
G75*
G02*
X14173070Y-9777360I-40640J0D01*
G01*
X14173070Y-9777360D02*
G75*
G02*
X14254350Y-9777360I40640J0D01*
G01*
X14482950Y-6526160D02*
G75*
G02*
X14401670Y-6526160I-40640J0D01*
G01*
X14401670Y-6526160D02*
G75*
G02*
X14482950Y-6526160I40640J0D01*
G01*
X14482950Y-7288160D02*
G75*
G02*
X14401670Y-7288160I-40640J0D01*
G01*
X14401670Y-7288160D02*
G75*
G02*
X14482950Y-7288160I40640J0D01*
G01*
X14508350Y-9015360D02*
G75*
G02*
X14427070Y-9015360I-40640J0D01*
G01*
X14427070Y-9015360D02*
G75*
G02*
X14508350Y-9015360I40640J0D01*
G01*
X14508350Y-9777360D02*
G75*
G02*
X14427070Y-9777360I-40640J0D01*
G01*
X14427070Y-9777360D02*
G75*
G02*
X14508350Y-9777360I40640J0D01*
G01*
X14635350Y-11631560D02*
G75*
G02*
X14554070Y-11631560I-40640J0D01*
G01*
X14554070Y-11631560D02*
G75*
G02*
X14635350Y-11631560I40640J0D01*
G01*
X14736950Y-6526160D02*
G75*
G02*
X14655670Y-6526160I-40640J0D01*
G01*
X14655670Y-6526160D02*
G75*
G02*
X14736950Y-6526160I40640J0D01*
G01*
X14736950Y-7288160D02*
G75*
G02*
X14655670Y-7288160I-40640J0D01*
G01*
X14655670Y-7288160D02*
G75*
G02*
X14736950Y-7288160I40640J0D01*
G01*
X14762350Y-9015360D02*
G75*
G02*
X14681070Y-9015360I-40640J0D01*
G01*
X14681070Y-9015360D02*
G75*
G02*
X14762350Y-9015360I40640J0D01*
G01*
X14762350Y-9777360D02*
G75*
G02*
X14681070Y-9777360I-40640J0D01*
G01*
X14681070Y-9777360D02*
G75*
G02*
X14762350Y-9777360I40640J0D01*
G01*
X14889350Y-11631560D02*
G75*
G02*
X14808070Y-11631560I-40640J0D01*
G01*
X14808070Y-11631560D02*
G75*
G02*
X14889350Y-11631560I40640J0D01*
G01*
X14990950Y-6526160D02*
G75*
G02*
X14909670Y-6526160I-40640J0D01*
G01*
X14909670Y-6526160D02*
G75*
G02*
X14990950Y-6526160I40640J0D01*
G01*
X14990950Y-7288160D02*
G75*
G02*
X14909670Y-7288160I-40640J0D01*
G01*
X14909670Y-7288160D02*
G75*
G02*
X14990950Y-7288160I40640J0D01*
G01*
X15016350Y-9015360D02*
G75*
G02*
X14935070Y-9015360I-40640J0D01*
G01*
X14935070Y-9015360D02*
G75*
G02*
X15016350Y-9015360I40640J0D01*
G01*
X15016350Y-9777360D02*
G75*
G02*
X14935070Y-9777360I-40640J0D01*
G01*
X14935070Y-9777360D02*
G75*
G02*
X15016350Y-9777360I40640J0D01*
G01*
X15143350Y-11631560D02*
G75*
G02*
X15062070Y-11631560I-40640J0D01*
G01*
X15062070Y-11631560D02*
G75*
G02*
X15143350Y-11631560I40640J0D01*
G01*
X15244950Y-6526160D02*
G75*
G02*
X15163670Y-6526160I-40640J0D01*
G01*
X15163670Y-6526160D02*
G75*
G02*
X15244950Y-6526160I40640J0D01*
G01*
X15244950Y-7288160D02*
G75*
G02*
X15163670Y-7288160I-40640J0D01*
G01*
X15163670Y-7288160D02*
G75*
G02*
X15244950Y-7288160I40640J0D01*
G01*
X15270350Y-9015360D02*
G75*
G02*
X15189070Y-9015360I-40640J0D01*
G01*
X15189070Y-9015360D02*
G75*
G02*
X15270350Y-9015360I40640J0D01*
G01*
X15270350Y-9777360D02*
G75*
G02*
X15189070Y-9777360I-40640J0D01*
G01*
X15189070Y-9777360D02*
G75*
G02*
X15270350Y-9777360I40640J0D01*
G01*
X15854550Y-10463160D02*
G75*
G02*
X15773270Y-10463160I-40640J0D01*
G01*
X15773270Y-10463160D02*
G75*
G02*
X15854550Y-10463160I40640J0D01*
G01*
X15854550Y-11047360D02*
G75*
G02*
X15773270Y-11047360I-40640J0D01*
G01*
X15773270Y-11047360D02*
G75*
G02*
X15854550Y-11047360I40640J0D01*
G01*
X15854550Y-11631560D02*
G75*
G02*
X15773270Y-11631560I-40640J0D01*
G01*
X15773270Y-11631560D02*
G75*
G02*
X15854550Y-11631560I40640J0D01*
G01*
X16057750Y-10463160D02*
G75*
G02*
X15976470Y-10463160I-40640J0D01*
G01*
X15976470Y-10463160D02*
G75*
G02*
X16057750Y-10463160I40640J0D01*
G01*
X16057750Y-11047360D02*
G75*
G02*
X15976470Y-11047360I-40640J0D01*
G01*
X15976470Y-11047360D02*
G75*
G02*
X16057750Y-11047360I40640J0D01*
G01*
X16057750Y-11631560D02*
G75*
G02*
X15976470Y-11631560I-40640J0D01*
G01*
X15976470Y-11631560D02*
G75*
G02*
X16057750Y-11631560I40640J0D01*
G01*
X15686910Y-6226440D02*
X15686910Y-6317880D01*
X15641190Y-6272160D02*
X15732630Y-6272160D01*
X15686910Y-6480440D02*
X15686910Y-6571880D01*
X15641190Y-6526160D02*
X15732630Y-6526160D01*
X15686910Y-6734440D02*
X15686910Y-6825880D01*
X15641190Y-6780160D02*
X15732630Y-6780160D01*
X15686910Y-6988440D02*
X15686910Y-7079880D01*
X15641190Y-7034160D02*
X15732630Y-7034160D01*
X15686910Y-7242440D02*
X15686910Y-7333880D01*
X15641190Y-7288160D02*
X15732630Y-7288160D01*
X15940910Y-6226440D02*
X15940910Y-6317880D01*
X15895190Y-6272160D02*
X15986630Y-6272160D01*
X15940910Y-6480440D02*
X15940910Y-6571880D01*
X15895190Y-6526160D02*
X15986630Y-6526160D01*
X15940910Y-6734440D02*
X15940910Y-6825880D01*
X15895190Y-6780160D02*
X15986630Y-6780160D01*
X15940910Y-6988440D02*
X15940910Y-7079880D01*
X15895190Y-7034160D02*
X15986630Y-7034160D01*
X15940910Y-7242440D02*
X15940910Y-7333880D01*
X15895190Y-7288160D02*
X15986630Y-7288160D01*
X14635466Y-6235716D02*
X14635466Y-6165004D01*
X14564754Y-6165004D01*
X14564754Y-6235716D01*
X14635466Y-6235716D01*
X14635466Y-8735716D02*
X14635466Y-8665004D01*
X14564754Y-8665004D01*
X14564754Y-8735716D01*
X14635466Y-8735716D01*
X14635466Y-11235716D02*
X14635466Y-11165004D01*
X14564754Y-11165004D01*
X14564754Y-11235716D01*
X14635466Y-11235716D01*
X14885466Y-6235716D02*
X14885466Y-6165004D01*
X14814754Y-6165004D01*
X14814754Y-6235716D01*
X14885466Y-6235716D01*
X14885466Y-8735716D02*
X14885466Y-8665004D01*
X14814754Y-8665004D01*
X14814754Y-8735716D01*
X14885466Y-8735716D01*
X14885466Y-11235716D02*
X14885466Y-11165004D01*
X14814754Y-11165004D01*
X14814754Y-11235716D01*
X14885466Y-11235716D01*
X15135466Y-6235716D02*
X15135466Y-6165004D01*
X15064754Y-6165004D01*
X15064754Y-6235716D01*
X15135466Y-6235716D01*
X15135466Y-8735716D02*
X15135466Y-8665004D01*
X15064754Y-8665004D01*
X15064754Y-8735716D01*
X15135466Y-8735716D01*
X15135466Y-11235716D02*
X15135466Y-11165004D01*
X15064754Y-11165004D01*
X15064754Y-11235716D01*
X15135466Y-11235716D01*
D13*
X14874110Y-13155560D02*
X14924910Y-13104760D01*
X14874110Y-13053960D01*
X14823310Y-13104760D01*
X14874110Y-13155560D01*
X14874110Y-13409560D02*
X14924910Y-13358760D01*
X14874110Y-13307960D01*
X14823310Y-13358760D01*
X14874110Y-13409560D01*
X14874110Y-13663560D02*
X14924910Y-13612760D01*
X14874110Y-13561960D01*
X14823310Y-13612760D01*
X14874110Y-13663560D01*
D14*
X15652310Y-8053660D02*
X15772310Y-8173660D01*
X15772310Y-8053660D02*
X15652310Y-8173660D01*
X15772310Y-8113660D02*
G75*
G02*
X15652310Y-8113660I-60000J0D01*
G01*
X15652310Y-8113660D02*
G75*
G02*
X15772310Y-8113660I60000J0D01*
G01*
X15652310Y-8942660D02*
X15772310Y-9062660D01*
X15772310Y-8942660D02*
X15652310Y-9062660D01*
X15772310Y-9002660D02*
G75*
G02*
X15652310Y-9002660I-60000J0D01*
G01*
X15652310Y-9002660D02*
G75*
G02*
X15772310Y-9002660I60000J0D01*
G01*
X16058710Y-8053660D02*
X16178710Y-8173660D01*
X16178710Y-8053660D02*
X16058710Y-8173660D01*
X16178710Y-8113660D02*
G75*
G02*
X16058710Y-8113660I-60000J0D01*
G01*
X16058710Y-8113660D02*
G75*
G02*
X16178710Y-8113660I60000J0D01*
G01*
X16058710Y-8942660D02*
X16178710Y-9062660D01*
X16178710Y-8942660D02*
X16058710Y-9062660D01*
X16178710Y-9002660D02*
G75*
G02*
X16058710Y-9002660I-60000J0D01*
G01*
X16058710Y-9002660D02*
G75*
G02*
X16178710Y-9002660I60000J0D01*
G01*
D15*
X14505110Y-12615360D02*
X14635110Y-12745360D01*
X14635110Y-12615360D02*
X14505110Y-12745360D01*
X14570110Y-12615360D02*
X14570110Y-12745360D01*
X14505110Y-12680360D02*
X14635110Y-12680360D01*
X14505110Y-14015360D02*
X14635110Y-14145360D01*
X14635110Y-14015360D02*
X14505110Y-14145360D01*
X14570110Y-14015360D02*
X14570110Y-14145360D01*
X14505110Y-14080360D02*
X14635110Y-14080360D01*
X14505110Y-15415360D02*
X14635110Y-15545360D01*
X14635110Y-15415360D02*
X14505110Y-15545360D01*
X14570110Y-15415360D02*
X14570110Y-15545360D01*
X14505110Y-15480360D02*
X14635110Y-15480360D01*
X16005110Y-12615360D02*
X16135110Y-12745360D01*
X16135110Y-12615360D02*
X16005110Y-12745360D01*
X16070110Y-12615360D02*
X16070110Y-12745360D01*
X16005110Y-12680360D02*
X16135110Y-12680360D01*
X16005110Y-14015360D02*
X16135110Y-14145360D01*
X16135110Y-14015360D02*
X16005110Y-14145360D01*
X16070110Y-14015360D02*
X16070110Y-14145360D01*
X16005110Y-14080360D02*
X16135110Y-14080360D01*
X16005110Y-15415360D02*
X16135110Y-15545360D01*
X16135110Y-15415360D02*
X16005110Y-15545360D01*
X16070110Y-15415360D02*
X16070110Y-15545360D01*
X16005110Y-15480360D02*
X16135110Y-15480360D01*
D16*
X14270110Y-5420360D02*
X14430110Y-5580360D01*
X14430110Y-5420360D02*
X14270110Y-5580360D01*
X14406679Y-5556929D02*
X14406679Y-5443791D01*
X14293541Y-5443791D01*
X14293541Y-5556929D01*
X14406679Y-5556929D01*
X14270110Y-7920360D02*
X14430110Y-8080360D01*
X14430110Y-7920360D02*
X14270110Y-8080360D01*
X14406679Y-8056929D02*
X14406679Y-7943791D01*
X14293541Y-7943791D01*
X14293541Y-8056929D01*
X14406679Y-8056929D01*
X14270110Y-10420360D02*
X14430110Y-10580360D01*
X14430110Y-10420360D02*
X14270110Y-10580360D01*
X14406679Y-10556929D02*
X14406679Y-10443791D01*
X14293541Y-10443791D01*
X14293541Y-10556929D01*
X14406679Y-10556929D01*
X15270110Y-5420360D02*
X15430110Y-5580360D01*
X15430110Y-5420360D02*
X15270110Y-5580360D01*
X15406679Y-5556929D02*
X15406679Y-5443791D01*
X15293541Y-5443791D01*
X15293541Y-5556929D01*
X15406679Y-5556929D01*
X15270110Y-7920360D02*
X15430110Y-8080360D01*
X15430110Y-7920360D02*
X15270110Y-8080360D01*
X15406679Y-8056929D02*
X15406679Y-7943791D01*
X15293541Y-7943791D01*
X15293541Y-8056929D01*
X15406679Y-8056929D01*
X15270110Y-10420360D02*
X15430110Y-10580360D01*
X15430110Y-10420360D02*
X15270110Y-10580360D01*
X15406679Y-10556929D02*
X15406679Y-10443791D01*
X15293541Y-10443791D01*
X15293541Y-10556929D01*
X15406679Y-10556929D01*
D17*
X13987610Y-12077860D02*
X14212610Y-12302860D01*
X14212610Y-12077860D02*
X13987610Y-12302860D01*
X14100110Y-12302860D02*
X14212610Y-12190360D01*
X14100110Y-12077860D01*
X13987610Y-12190360D01*
X14100110Y-12302860D01*
X13987610Y-12897860D02*
X14212610Y-13122860D01*
X14212610Y-12897860D02*
X13987610Y-13122860D01*
X14100110Y-13122860D02*
X14212610Y-13010360D01*
X14100110Y-12897860D01*
X13987610Y-13010360D01*
X14100110Y-13122860D01*
X13987610Y-13477860D02*
X14212610Y-13702860D01*
X14212610Y-13477860D02*
X13987610Y-13702860D01*
X14100110Y-13702860D02*
X14212610Y-13590360D01*
X14100110Y-13477860D01*
X13987610Y-13590360D01*
X14100110Y-13702860D01*
X13987610Y-14297860D02*
X14212610Y-14522860D01*
X14212610Y-14297860D02*
X13987610Y-14522860D01*
X14100110Y-14522860D02*
X14212610Y-14410360D01*
X14100110Y-14297860D01*
X13987610Y-14410360D01*
X14100110Y-14522860D01*
X13987610Y-14877860D02*
X14212610Y-15102860D01*
X14212610Y-14877860D02*
X13987610Y-15102860D01*
X14100110Y-15102860D02*
X14212610Y-14990360D01*
X14100110Y-14877860D01*
X13987610Y-14990360D01*
X14100110Y-15102860D01*
X13987610Y-15697860D02*
X14212610Y-15922860D01*
X14212610Y-15697860D02*
X13987610Y-15922860D01*
X14100110Y-15922860D02*
X14212610Y-15810360D01*
X14100110Y-15697860D01*
X13987610Y-15810360D01*
X14100110Y-15922860D01*
X15487610Y-12077860D02*
X15712610Y-12302860D01*
X15712610Y-12077860D02*
X15487610Y-12302860D01*
X15600110Y-12302860D02*
X15712610Y-12190360D01*
X15600110Y-12077860D01*
X15487610Y-12190360D01*
X15600110Y-12302860D01*
X15487610Y-12897860D02*
X15712610Y-13122860D01*
X15712610Y-12897860D02*
X15487610Y-13122860D01*
X15600110Y-13122860D02*
X15712610Y-13010360D01*
X15600110Y-12897860D01*
X15487610Y-13010360D01*
X15600110Y-13122860D01*
X15487610Y-13477860D02*
X15712610Y-13702860D01*
X15712610Y-13477860D02*
X15487610Y-13702860D01*
X15600110Y-13702860D02*
X15712610Y-13590360D01*
X15600110Y-13477860D01*
X15487610Y-13590360D01*
X15600110Y-13702860D01*
X15487610Y-14297860D02*
X15712610Y-14522860D01*
X15712610Y-14297860D02*
X15487610Y-14522860D01*
X15600110Y-14522860D02*
X15712610Y-14410360D01*
X15600110Y-14297860D01*
X15487610Y-14410360D01*
X15600110Y-14522860D01*
X15487610Y-14877860D02*
X15712610Y-15102860D01*
X15712610Y-14877860D02*
X15487610Y-15102860D01*
X15600110Y-15102860D02*
X15712610Y-14990360D01*
X15600110Y-14877860D01*
X15487610Y-14990360D01*
X15600110Y-15102860D01*
X15487610Y-15697860D02*
X15712610Y-15922860D01*
X15712610Y-15697860D02*
X15487610Y-15922860D01*
X15600110Y-15922860D02*
X15712610Y-15810360D01*
X15600110Y-15697860D01*
X15487610Y-15810360D01*
X15600110Y-15922860D01*
D18*
X13630110Y-12565360D02*
X13630110Y-12795360D01*
X13515110Y-12680360D02*
X13745110Y-12680360D01*
X13745110Y-12680360D02*
G75*
G02*
X13515110Y-12680360I-115000J0D01*
G01*
X13515110Y-12680360D02*
G75*
G02*
X13745110Y-12680360I115000J0D01*
G01*
X13630110Y-13965360D02*
X13630110Y-14195360D01*
X13515110Y-14080360D02*
X13745110Y-14080360D01*
X13745110Y-14080360D02*
G75*
G02*
X13515110Y-14080360I-115000J0D01*
G01*
X13515110Y-14080360D02*
G75*
G02*
X13745110Y-14080360I115000J0D01*
G01*
X13630110Y-15365360D02*
X13630110Y-15595360D01*
X13515110Y-15480360D02*
X13745110Y-15480360D01*
X13745110Y-15480360D02*
G75*
G02*
X13515110Y-15480360I-115000J0D01*
G01*
X13515110Y-15480360D02*
G75*
G02*
X13745110Y-15480360I115000J0D01*
G01*
X15130110Y-12565360D02*
X15130110Y-12795360D01*
X15015110Y-12680360D02*
X15245110Y-12680360D01*
X15245110Y-12680360D02*
G75*
G02*
X15015110Y-12680360I-115000J0D01*
G01*
X15015110Y-12680360D02*
G75*
G02*
X15245110Y-12680360I115000J0D01*
G01*
X15130110Y-13965360D02*
X15130110Y-14195360D01*
X15015110Y-14080360D02*
X15245110Y-14080360D01*
X15245110Y-14080360D02*
G75*
G02*
X15015110Y-14080360I-115000J0D01*
G01*
X15015110Y-14080360D02*
G75*
G02*
X15245110Y-14080360I115000J0D01*
G01*
X15130110Y-15365360D02*
X15130110Y-15595360D01*
X15015110Y-15480360D02*
X15245110Y-15480360D01*
X15245110Y-15480360D02*
G75*
G02*
X15015110Y-15480360I-115000J0D01*
G01*
X15015110Y-15480360D02*
G75*
G02*
X15245110Y-15480360I115000J0D01*
G01*
D11*
X13658387Y-16314344D02*
X13658387Y-16114344D01*
X13658387Y-16114344D02*
X13706006Y-16114344D01*
X13706006Y-16114344D02*
X13734577Y-16123868D01*
X13734577Y-16123868D02*
X13753625Y-16142915D01*
X13753625Y-16142915D02*
X13763149Y-16161963D01*
X13763149Y-16161963D02*
X13772672Y-16200058D01*
X13772672Y-16200058D02*
X13772672Y-16228629D01*
X13772672Y-16228629D02*
X13763149Y-16266725D01*
X13763149Y-16266725D02*
X13753625Y-16285772D01*
X13753625Y-16285772D02*
X13734577Y-16304820D01*
X13734577Y-16304820D02*
X13706006Y-16314344D01*
X13706006Y-16314344D02*
X13658387Y-16314344D01*
X13858387Y-16314344D02*
X13858387Y-16181010D01*
X13858387Y-16219106D02*
X13867911Y-16200058D01*
X13867911Y-16200058D02*
X13877434Y-16190534D01*
X13877434Y-16190534D02*
X13896482Y-16181010D01*
X13896482Y-16181010D02*
X13915530Y-16181010D01*
X13982196Y-16314344D02*
X13982196Y-16181010D01*
X13982196Y-16114344D02*
X13972672Y-16123868D01*
X13972672Y-16123868D02*
X13982196Y-16133391D01*
X13982196Y-16133391D02*
X13991720Y-16123868D01*
X13991720Y-16123868D02*
X13982196Y-16114344D01*
X13982196Y-16114344D02*
X13982196Y-16133391D01*
X14106006Y-16314344D02*
X14086958Y-16304820D01*
X14086958Y-16304820D02*
X14077434Y-16285772D01*
X14077434Y-16285772D02*
X14077434Y-16114344D01*
X14210768Y-16314344D02*
X14191720Y-16304820D01*
X14191720Y-16304820D02*
X14182196Y-16285772D01*
X14182196Y-16285772D02*
X14182196Y-16114344D01*
X14439339Y-16314344D02*
X14439339Y-16114344D01*
X14439339Y-16114344D02*
X14506006Y-16257201D01*
X14506006Y-16257201D02*
X14572672Y-16114344D01*
X14572672Y-16114344D02*
X14572672Y-16314344D01*
X14753625Y-16314344D02*
X14753625Y-16209582D01*
X14753625Y-16209582D02*
X14744101Y-16190534D01*
X14744101Y-16190534D02*
X14725053Y-16181010D01*
X14725053Y-16181010D02*
X14686958Y-16181010D01*
X14686958Y-16181010D02*
X14667911Y-16190534D01*
X14753625Y-16304820D02*
X14734577Y-16314344D01*
X14734577Y-16314344D02*
X14686958Y-16314344D01*
X14686958Y-16314344D02*
X14667911Y-16304820D01*
X14667911Y-16304820D02*
X14658387Y-16285772D01*
X14658387Y-16285772D02*
X14658387Y-16266725D01*
X14658387Y-16266725D02*
X14667911Y-16247677D01*
X14667911Y-16247677D02*
X14686958Y-16238153D01*
X14686958Y-16238153D02*
X14734577Y-16238153D01*
X14734577Y-16238153D02*
X14753625Y-16228629D01*
X14848863Y-16181010D02*
X14848863Y-16381010D01*
X14848863Y-16190534D02*
X14867911Y-16181010D01*
X14867911Y-16181010D02*
X14906006Y-16181010D01*
X14906006Y-16181010D02*
X14925053Y-16190534D01*
X14925053Y-16190534D02*
X14934577Y-16200058D01*
X14934577Y-16200058D02*
X14944101Y-16219106D01*
X14944101Y-16219106D02*
X14944101Y-16276248D01*
X14944101Y-16276248D02*
X14934577Y-16295296D01*
X14934577Y-16295296D02*
X14925053Y-16304820D01*
X14925053Y-16304820D02*
X14906006Y-16314344D01*
X14906006Y-16314344D02*
X14867911Y-16314344D01*
X14867911Y-16314344D02*
X14848863Y-16304820D01*
X15029815Y-16295296D02*
X15039339Y-16304820D01*
X15039339Y-16304820D02*
X15029815Y-16314344D01*
X15029815Y-16314344D02*
X15020292Y-16304820D01*
X15020292Y-16304820D02*
X15029815Y-16295296D01*
X15029815Y-16295296D02*
X15029815Y-16314344D01*
X15029815Y-16190534D02*
X15039339Y-16200058D01*
X15039339Y-16200058D02*
X15029815Y-16209582D01*
X15029815Y-16209582D02*
X15020292Y-16200058D01*
X15020292Y-16200058D02*
X15029815Y-16190534D01*
X15029815Y-16190534D02*
X15029815Y-16209582D01*
D12*
X13367610Y-16627860D02*
X13397610Y-16657860D01*
X13397610Y-16627860D02*
X13367610Y-16657860D01*
D11*
X13696482Y-16534344D02*
X13715530Y-16534344D01*
X13715530Y-16534344D02*
X13734577Y-16543868D01*
X13734577Y-16543868D02*
X13744101Y-16553391D01*
X13744101Y-16553391D02*
X13753625Y-16572439D01*
X13753625Y-16572439D02*
X13763149Y-16610534D01*
X13763149Y-16610534D02*
X13763149Y-16658153D01*
X13763149Y-16658153D02*
X13753625Y-16696248D01*
X13753625Y-16696248D02*
X13744101Y-16715296D01*
X13744101Y-16715296D02*
X13734577Y-16724820D01*
X13734577Y-16724820D02*
X13715530Y-16734344D01*
X13715530Y-16734344D02*
X13696482Y-16734344D01*
X13696482Y-16734344D02*
X13677434Y-16724820D01*
X13677434Y-16724820D02*
X13667911Y-16715296D01*
X13667911Y-16715296D02*
X13658387Y-16696248D01*
X13658387Y-16696248D02*
X13648863Y-16658153D01*
X13648863Y-16658153D02*
X13648863Y-16610534D01*
X13648863Y-16610534D02*
X13658387Y-16572439D01*
X13658387Y-16572439D02*
X13667911Y-16553391D01*
X13667911Y-16553391D02*
X13677434Y-16543868D01*
X13677434Y-16543868D02*
X13696482Y-16534344D01*
X13848863Y-16715296D02*
X13858387Y-16724820D01*
X13858387Y-16724820D02*
X13848863Y-16734344D01*
X13848863Y-16734344D02*
X13839339Y-16724820D01*
X13839339Y-16724820D02*
X13848863Y-16715296D01*
X13848863Y-16715296D02*
X13848863Y-16734344D01*
X13925053Y-16534344D02*
X14048863Y-16534344D01*
X14048863Y-16534344D02*
X13982196Y-16610534D01*
X13982196Y-16610534D02*
X14010768Y-16610534D01*
X14010768Y-16610534D02*
X14029815Y-16620058D01*
X14029815Y-16620058D02*
X14039339Y-16629582D01*
X14039339Y-16629582D02*
X14048863Y-16648629D01*
X14048863Y-16648629D02*
X14048863Y-16696248D01*
X14048863Y-16696248D02*
X14039339Y-16715296D01*
X14039339Y-16715296D02*
X14029815Y-16724820D01*
X14029815Y-16724820D02*
X14010768Y-16734344D01*
X14010768Y-16734344D02*
X13953625Y-16734344D01*
X13953625Y-16734344D02*
X13934577Y-16724820D01*
X13934577Y-16724820D02*
X13925053Y-16715296D01*
X14172672Y-16534344D02*
X14191720Y-16534344D01*
X14191720Y-16534344D02*
X14210768Y-16543868D01*
X14210768Y-16543868D02*
X14220292Y-16553391D01*
X14220292Y-16553391D02*
X14229815Y-16572439D01*
X14229815Y-16572439D02*
X14239339Y-16610534D01*
X14239339Y-16610534D02*
X14239339Y-16658153D01*
X14239339Y-16658153D02*
X14229815Y-16696248D01*
X14229815Y-16696248D02*
X14220292Y-16715296D01*
X14220292Y-16715296D02*
X14210768Y-16724820D01*
X14210768Y-16724820D02*
X14191720Y-16734344D01*
X14191720Y-16734344D02*
X14172672Y-16734344D01*
X14172672Y-16734344D02*
X14153625Y-16724820D01*
X14153625Y-16724820D02*
X14144101Y-16715296D01*
X14144101Y-16715296D02*
X14134577Y-16696248D01*
X14134577Y-16696248D02*
X14125053Y-16658153D01*
X14125053Y-16658153D02*
X14125053Y-16610534D01*
X14125053Y-16610534D02*
X14134577Y-16572439D01*
X14134577Y-16572439D02*
X14144101Y-16553391D01*
X14144101Y-16553391D02*
X14153625Y-16543868D01*
X14153625Y-16543868D02*
X14172672Y-16534344D01*
X14363149Y-16534344D02*
X14382196Y-16534344D01*
X14382196Y-16534344D02*
X14401244Y-16543868D01*
X14401244Y-16543868D02*
X14410768Y-16553391D01*
X14410768Y-16553391D02*
X14420292Y-16572439D01*
X14420292Y-16572439D02*
X14429815Y-16610534D01*
X14429815Y-16610534D02*
X14429815Y-16658153D01*
X14429815Y-16658153D02*
X14420292Y-16696248D01*
X14420292Y-16696248D02*
X14410768Y-16715296D01*
X14410768Y-16715296D02*
X14401244Y-16724820D01*
X14401244Y-16724820D02*
X14382196Y-16734344D01*
X14382196Y-16734344D02*
X14363149Y-16734344D01*
X14363149Y-16734344D02*
X14344101Y-16724820D01*
X14344101Y-16724820D02*
X14334577Y-16715296D01*
X14334577Y-16715296D02*
X14325053Y-16696248D01*
X14325053Y-16696248D02*
X14315530Y-16658153D01*
X14315530Y-16658153D02*
X14315530Y-16610534D01*
X14315530Y-16610534D02*
X14325053Y-16572439D01*
X14325053Y-16572439D02*
X14334577Y-16553391D01*
X14334577Y-16553391D02*
X14344101Y-16543868D01*
X14344101Y-16543868D02*
X14363149Y-16534344D01*
X14515530Y-16734344D02*
X14515530Y-16601010D01*
X14515530Y-16620058D02*
X14525053Y-16610534D01*
X14525053Y-16610534D02*
X14544101Y-16601010D01*
X14544101Y-16601010D02*
X14572673Y-16601010D01*
X14572673Y-16601010D02*
X14591720Y-16610534D01*
X14591720Y-16610534D02*
X14601244Y-16629582D01*
X14601244Y-16629582D02*
X14601244Y-16734344D01*
X14601244Y-16629582D02*
X14610768Y-16610534D01*
X14610768Y-16610534D02*
X14629815Y-16601010D01*
X14629815Y-16601010D02*
X14658387Y-16601010D01*
X14658387Y-16601010D02*
X14677434Y-16610534D01*
X14677434Y-16610534D02*
X14686958Y-16629582D01*
X14686958Y-16629582D02*
X14686958Y-16734344D01*
X14782196Y-16734344D02*
X14782196Y-16601010D01*
X14782196Y-16620058D02*
X14791720Y-16610534D01*
X14791720Y-16610534D02*
X14810768Y-16601010D01*
X14810768Y-16601010D02*
X14839339Y-16601010D01*
X14839339Y-16601010D02*
X14858387Y-16610534D01*
X14858387Y-16610534D02*
X14867911Y-16629582D01*
X14867911Y-16629582D02*
X14867911Y-16734344D01*
X14867911Y-16629582D02*
X14877434Y-16610534D01*
X14877434Y-16610534D02*
X14896482Y-16601010D01*
X14896482Y-16601010D02*
X14925053Y-16601010D01*
X14925053Y-16601010D02*
X14944101Y-16610534D01*
X14944101Y-16610534D02*
X14953625Y-16629582D01*
X14953625Y-16629582D02*
X14953625Y-16734344D01*
X15344101Y-16524820D02*
X15172673Y-16781963D01*
X15601244Y-16534344D02*
X15620292Y-16534344D01*
X15620292Y-16534344D02*
X15639339Y-16543868D01*
X15639339Y-16543868D02*
X15648863Y-16553391D01*
X15648863Y-16553391D02*
X15658387Y-16572439D01*
X15658387Y-16572439D02*
X15667911Y-16610534D01*
X15667911Y-16610534D02*
X15667911Y-16658153D01*
X15667911Y-16658153D02*
X15658387Y-16696248D01*
X15658387Y-16696248D02*
X15648863Y-16715296D01*
X15648863Y-16715296D02*
X15639339Y-16724820D01*
X15639339Y-16724820D02*
X15620292Y-16734344D01*
X15620292Y-16734344D02*
X15601244Y-16734344D01*
X15601244Y-16734344D02*
X15582196Y-16724820D01*
X15582196Y-16724820D02*
X15572673Y-16715296D01*
X15572673Y-16715296D02*
X15563149Y-16696248D01*
X15563149Y-16696248D02*
X15553625Y-16658153D01*
X15553625Y-16658153D02*
X15553625Y-16610534D01*
X15553625Y-16610534D02*
X15563149Y-16572439D01*
X15563149Y-16572439D02*
X15572673Y-16553391D01*
X15572673Y-16553391D02*
X15582196Y-16543868D01*
X15582196Y-16543868D02*
X15601244Y-16534344D01*
X15753625Y-16715296D02*
X15763149Y-16724820D01*
X15763149Y-16724820D02*
X15753625Y-16734344D01*
X15753625Y-16734344D02*
X15744101Y-16724820D01*
X15744101Y-16724820D02*
X15753625Y-16715296D01*
X15753625Y-16715296D02*
X15753625Y-16734344D01*
X15886958Y-16534344D02*
X15906006Y-16534344D01*
X15906006Y-16534344D02*
X15925054Y-16543868D01*
X15925054Y-16543868D02*
X15934577Y-16553391D01*
X15934577Y-16553391D02*
X15944101Y-16572439D01*
X15944101Y-16572439D02*
X15953625Y-16610534D01*
X15953625Y-16610534D02*
X15953625Y-16658153D01*
X15953625Y-16658153D02*
X15944101Y-16696248D01*
X15944101Y-16696248D02*
X15934577Y-16715296D01*
X15934577Y-16715296D02*
X15925054Y-16724820D01*
X15925054Y-16724820D02*
X15906006Y-16734344D01*
X15906006Y-16734344D02*
X15886958Y-16734344D01*
X15886958Y-16734344D02*
X15867911Y-16724820D01*
X15867911Y-16724820D02*
X15858387Y-16715296D01*
X15858387Y-16715296D02*
X15848863Y-16696248D01*
X15848863Y-16696248D02*
X15839339Y-16658153D01*
X15839339Y-16658153D02*
X15839339Y-16610534D01*
X15839339Y-16610534D02*
X15848863Y-16572439D01*
X15848863Y-16572439D02*
X15858387Y-16553391D01*
X15858387Y-16553391D02*
X15867911Y-16543868D01*
X15867911Y-16543868D02*
X15886958Y-16534344D01*
X16144101Y-16734344D02*
X16029816Y-16734344D01*
X16086958Y-16734344D02*
X16086958Y-16534344D01*
X16086958Y-16534344D02*
X16067911Y-16562915D01*
X16067911Y-16562915D02*
X16048863Y-16581963D01*
X16048863Y-16581963D02*
X16029816Y-16591487D01*
X16334577Y-16734344D02*
X16220292Y-16734344D01*
X16277435Y-16734344D02*
X16277435Y-16534344D01*
X16277435Y-16534344D02*
X16258387Y-16562915D01*
X16258387Y-16562915D02*
X16239339Y-16581963D01*
X16239339Y-16581963D02*
X16220292Y-16591487D01*
X16448863Y-16620058D02*
X16429816Y-16610534D01*
X16429816Y-16610534D02*
X16420292Y-16601010D01*
X16420292Y-16601010D02*
X16410768Y-16581963D01*
X16410768Y-16581963D02*
X16410768Y-16572439D01*
X16410768Y-16572439D02*
X16420292Y-16553391D01*
X16420292Y-16553391D02*
X16429816Y-16543868D01*
X16429816Y-16543868D02*
X16448863Y-16534344D01*
X16448863Y-16534344D02*
X16486958Y-16534344D01*
X16486958Y-16534344D02*
X16506006Y-16543868D01*
X16506006Y-16543868D02*
X16515530Y-16553391D01*
X16515530Y-16553391D02*
X16525054Y-16572439D01*
X16525054Y-16572439D02*
X16525054Y-16581963D01*
X16525054Y-16581963D02*
X16515530Y-16601010D01*
X16515530Y-16601010D02*
X16506006Y-16610534D01*
X16506006Y-16610534D02*
X16486958Y-16620058D01*
X16486958Y-16620058D02*
X16448863Y-16620058D01*
X16448863Y-16620058D02*
X16429816Y-16629582D01*
X16429816Y-16629582D02*
X16420292Y-16639106D01*
X16420292Y-16639106D02*
X16410768Y-16658153D01*
X16410768Y-16658153D02*
X16410768Y-16696248D01*
X16410768Y-16696248D02*
X16420292Y-16715296D01*
X16420292Y-16715296D02*
X16429816Y-16724820D01*
X16429816Y-16724820D02*
X16448863Y-16734344D01*
X16448863Y-16734344D02*
X16486958Y-16734344D01*
X16486958Y-16734344D02*
X16506006Y-16724820D01*
X16506006Y-16724820D02*
X16515530Y-16715296D01*
X16515530Y-16715296D02*
X16525054Y-16696248D01*
X16525054Y-16696248D02*
X16525054Y-16658153D01*
X16525054Y-16658153D02*
X16515530Y-16639106D01*
X16515530Y-16639106D02*
X16506006Y-16629582D01*
X16506006Y-16629582D02*
X16486958Y-16620058D01*
X16601244Y-16534344D02*
X16601244Y-16572439D01*
X16677435Y-16534344D02*
X16677435Y-16572439D01*
X16972673Y-16810534D02*
X16963149Y-16801010D01*
X16963149Y-16801010D02*
X16944101Y-16772439D01*
X16944101Y-16772439D02*
X16934578Y-16753391D01*
X16934578Y-16753391D02*
X16925054Y-16724820D01*
X16925054Y-16724820D02*
X16915530Y-16677201D01*
X16915530Y-16677201D02*
X16915530Y-16639106D01*
X16915530Y-16639106D02*
X16925054Y-16591487D01*
X16925054Y-16591487D02*
X16934578Y-16562915D01*
X16934578Y-16562915D02*
X16944101Y-16543868D01*
X16944101Y-16543868D02*
X16963149Y-16515296D01*
X16963149Y-16515296D02*
X16972673Y-16505772D01*
X17144101Y-16534344D02*
X17048863Y-16534344D01*
X17048863Y-16534344D02*
X17039340Y-16629582D01*
X17039340Y-16629582D02*
X17048863Y-16620058D01*
X17048863Y-16620058D02*
X17067911Y-16610534D01*
X17067911Y-16610534D02*
X17115530Y-16610534D01*
X17115530Y-16610534D02*
X17134578Y-16620058D01*
X17134578Y-16620058D02*
X17144101Y-16629582D01*
X17144101Y-16629582D02*
X17153625Y-16648629D01*
X17153625Y-16648629D02*
X17153625Y-16696248D01*
X17153625Y-16696248D02*
X17144101Y-16715296D01*
X17144101Y-16715296D02*
X17134578Y-16724820D01*
X17134578Y-16724820D02*
X17115530Y-16734344D01*
X17115530Y-16734344D02*
X17067911Y-16734344D01*
X17067911Y-16734344D02*
X17048863Y-16724820D01*
X17048863Y-16724820D02*
X17039340Y-16715296D01*
X17344101Y-16734344D02*
X17229816Y-16734344D01*
X17286959Y-16734344D02*
X17286959Y-16534344D01*
X17286959Y-16534344D02*
X17267911Y-16562915D01*
X17267911Y-16562915D02*
X17248863Y-16581963D01*
X17248863Y-16581963D02*
X17229816Y-16591487D01*
X17582197Y-16734344D02*
X17582197Y-16534344D01*
X17667911Y-16734344D02*
X17667911Y-16629582D01*
X17667911Y-16629582D02*
X17658387Y-16610534D01*
X17658387Y-16610534D02*
X17639340Y-16601010D01*
X17639340Y-16601010D02*
X17610768Y-16601010D01*
X17610768Y-16601010D02*
X17591721Y-16610534D01*
X17591721Y-16610534D02*
X17582197Y-16620058D01*
X17791721Y-16734344D02*
X17772673Y-16724820D01*
X17772673Y-16724820D02*
X17763149Y-16715296D01*
X17763149Y-16715296D02*
X17753625Y-16696248D01*
X17753625Y-16696248D02*
X17753625Y-16639106D01*
X17753625Y-16639106D02*
X17763149Y-16620058D01*
X17763149Y-16620058D02*
X17772673Y-16610534D01*
X17772673Y-16610534D02*
X17791721Y-16601010D01*
X17791721Y-16601010D02*
X17820292Y-16601010D01*
X17820292Y-16601010D02*
X17839340Y-16610534D01*
X17839340Y-16610534D02*
X17848863Y-16620058D01*
X17848863Y-16620058D02*
X17858387Y-16639106D01*
X17858387Y-16639106D02*
X17858387Y-16696248D01*
X17858387Y-16696248D02*
X17848863Y-16715296D01*
X17848863Y-16715296D02*
X17839340Y-16724820D01*
X17839340Y-16724820D02*
X17820292Y-16734344D01*
X17820292Y-16734344D02*
X17791721Y-16734344D01*
X17972673Y-16734344D02*
X17953625Y-16724820D01*
X17953625Y-16724820D02*
X17944102Y-16705772D01*
X17944102Y-16705772D02*
X17944102Y-16534344D01*
X18125054Y-16724820D02*
X18106006Y-16734344D01*
X18106006Y-16734344D02*
X18067911Y-16734344D01*
X18067911Y-16734344D02*
X18048863Y-16724820D01*
X18048863Y-16724820D02*
X18039340Y-16705772D01*
X18039340Y-16705772D02*
X18039340Y-16629582D01*
X18039340Y-16629582D02*
X18048863Y-16610534D01*
X18048863Y-16610534D02*
X18067911Y-16601010D01*
X18067911Y-16601010D02*
X18106006Y-16601010D01*
X18106006Y-16601010D02*
X18125054Y-16610534D01*
X18125054Y-16610534D02*
X18134578Y-16629582D01*
X18134578Y-16629582D02*
X18134578Y-16648629D01*
X18134578Y-16648629D02*
X18039340Y-16667677D01*
X18210768Y-16724820D02*
X18229816Y-16734344D01*
X18229816Y-16734344D02*
X18267911Y-16734344D01*
X18267911Y-16734344D02*
X18286959Y-16724820D01*
X18286959Y-16724820D02*
X18296483Y-16705772D01*
X18296483Y-16705772D02*
X18296483Y-16696248D01*
X18296483Y-16696248D02*
X18286959Y-16677201D01*
X18286959Y-16677201D02*
X18267911Y-16667677D01*
X18267911Y-16667677D02*
X18239340Y-16667677D01*
X18239340Y-16667677D02*
X18220292Y-16658153D01*
X18220292Y-16658153D02*
X18210768Y-16639106D01*
X18210768Y-16639106D02*
X18210768Y-16629582D01*
X18210768Y-16629582D02*
X18220292Y-16610534D01*
X18220292Y-16610534D02*
X18239340Y-16601010D01*
X18239340Y-16601010D02*
X18267911Y-16601010D01*
X18267911Y-16601010D02*
X18286959Y-16610534D01*
X18363149Y-16810534D02*
X18372673Y-16801010D01*
X18372673Y-16801010D02*
X18391721Y-16772439D01*
X18391721Y-16772439D02*
X18401244Y-16753391D01*
X18401244Y-16753391D02*
X18410768Y-16724820D01*
X18410768Y-16724820D02*
X18420292Y-16677201D01*
X18420292Y-16677201D02*
X18420292Y-16639106D01*
X18420292Y-16639106D02*
X18410768Y-16591487D01*
X18410768Y-16591487D02*
X18401244Y-16562915D01*
X18401244Y-16562915D02*
X18391721Y-16543868D01*
X18391721Y-16543868D02*
X18372673Y-16515296D01*
X18372673Y-16515296D02*
X18363149Y-16505772D01*
D12*
X13397610Y-16906860D02*
G75*
G02*
X13316330Y-16906860I-40640J0D01*
G01*
X13316330Y-16906860D02*
G75*
G02*
X13397610Y-16906860I40640J0D01*
G01*
D11*
X13696482Y-16798344D02*
X13715530Y-16798344D01*
X13715530Y-16798344D02*
X13734577Y-16807868D01*
X13734577Y-16807868D02*
X13744101Y-16817391D01*
X13744101Y-16817391D02*
X13753625Y-16836439D01*
X13753625Y-16836439D02*
X13763149Y-16874534D01*
X13763149Y-16874534D02*
X13763149Y-16922153D01*
X13763149Y-16922153D02*
X13753625Y-16960249D01*
X13753625Y-16960249D02*
X13744101Y-16979296D01*
X13744101Y-16979296D02*
X13734577Y-16988820D01*
X13734577Y-16988820D02*
X13715530Y-16998344D01*
X13715530Y-16998344D02*
X13696482Y-16998344D01*
X13696482Y-16998344D02*
X13677434Y-16988820D01*
X13677434Y-16988820D02*
X13667911Y-16979296D01*
X13667911Y-16979296D02*
X13658387Y-16960249D01*
X13658387Y-16960249D02*
X13648863Y-16922153D01*
X13648863Y-16922153D02*
X13648863Y-16874534D01*
X13648863Y-16874534D02*
X13658387Y-16836439D01*
X13658387Y-16836439D02*
X13667911Y-16817391D01*
X13667911Y-16817391D02*
X13677434Y-16807868D01*
X13677434Y-16807868D02*
X13696482Y-16798344D01*
X13848863Y-16979296D02*
X13858387Y-16988820D01*
X13858387Y-16988820D02*
X13848863Y-16998344D01*
X13848863Y-16998344D02*
X13839339Y-16988820D01*
X13839339Y-16988820D02*
X13848863Y-16979296D01*
X13848863Y-16979296D02*
X13848863Y-16998344D01*
X13972672Y-16884058D02*
X13953625Y-16874534D01*
X13953625Y-16874534D02*
X13944101Y-16865010D01*
X13944101Y-16865010D02*
X13934577Y-16845963D01*
X13934577Y-16845963D02*
X13934577Y-16836439D01*
X13934577Y-16836439D02*
X13944101Y-16817391D01*
X13944101Y-16817391D02*
X13953625Y-16807868D01*
X13953625Y-16807868D02*
X13972672Y-16798344D01*
X13972672Y-16798344D02*
X14010768Y-16798344D01*
X14010768Y-16798344D02*
X14029815Y-16807868D01*
X14029815Y-16807868D02*
X14039339Y-16817391D01*
X14039339Y-16817391D02*
X14048863Y-16836439D01*
X14048863Y-16836439D02*
X14048863Y-16845963D01*
X14048863Y-16845963D02*
X14039339Y-16865010D01*
X14039339Y-16865010D02*
X14029815Y-16874534D01*
X14029815Y-16874534D02*
X14010768Y-16884058D01*
X14010768Y-16884058D02*
X13972672Y-16884058D01*
X13972672Y-16884058D02*
X13953625Y-16893582D01*
X13953625Y-16893582D02*
X13944101Y-16903106D01*
X13944101Y-16903106D02*
X13934577Y-16922153D01*
X13934577Y-16922153D02*
X13934577Y-16960249D01*
X13934577Y-16960249D02*
X13944101Y-16979296D01*
X13944101Y-16979296D02*
X13953625Y-16988820D01*
X13953625Y-16988820D02*
X13972672Y-16998344D01*
X13972672Y-16998344D02*
X14010768Y-16998344D01*
X14010768Y-16998344D02*
X14029815Y-16988820D01*
X14029815Y-16988820D02*
X14039339Y-16979296D01*
X14039339Y-16979296D02*
X14048863Y-16960249D01*
X14048863Y-16960249D02*
X14048863Y-16922153D01*
X14048863Y-16922153D02*
X14039339Y-16903106D01*
X14039339Y-16903106D02*
X14029815Y-16893582D01*
X14029815Y-16893582D02*
X14010768Y-16884058D01*
X14239339Y-16998344D02*
X14125053Y-16998344D01*
X14182196Y-16998344D02*
X14182196Y-16798344D01*
X14182196Y-16798344D02*
X14163149Y-16826915D01*
X14163149Y-16826915D02*
X14144101Y-16845963D01*
X14144101Y-16845963D02*
X14125053Y-16855487D01*
X14306006Y-16798344D02*
X14429815Y-16798344D01*
X14429815Y-16798344D02*
X14363149Y-16874534D01*
X14363149Y-16874534D02*
X14391720Y-16874534D01*
X14391720Y-16874534D02*
X14410768Y-16884058D01*
X14410768Y-16884058D02*
X14420292Y-16893582D01*
X14420292Y-16893582D02*
X14429815Y-16912630D01*
X14429815Y-16912630D02*
X14429815Y-16960249D01*
X14429815Y-16960249D02*
X14420292Y-16979296D01*
X14420292Y-16979296D02*
X14410768Y-16988820D01*
X14410768Y-16988820D02*
X14391720Y-16998344D01*
X14391720Y-16998344D02*
X14334577Y-16998344D01*
X14334577Y-16998344D02*
X14315530Y-16988820D01*
X14315530Y-16988820D02*
X14306006Y-16979296D01*
X14515530Y-16998344D02*
X14515530Y-16865010D01*
X14515530Y-16884058D02*
X14525053Y-16874534D01*
X14525053Y-16874534D02*
X14544101Y-16865010D01*
X14544101Y-16865010D02*
X14572673Y-16865010D01*
X14572673Y-16865010D02*
X14591720Y-16874534D01*
X14591720Y-16874534D02*
X14601244Y-16893582D01*
X14601244Y-16893582D02*
X14601244Y-16998344D01*
X14601244Y-16893582D02*
X14610768Y-16874534D01*
X14610768Y-16874534D02*
X14629815Y-16865010D01*
X14629815Y-16865010D02*
X14658387Y-16865010D01*
X14658387Y-16865010D02*
X14677434Y-16874534D01*
X14677434Y-16874534D02*
X14686958Y-16893582D01*
X14686958Y-16893582D02*
X14686958Y-16998344D01*
X14782196Y-16998344D02*
X14782196Y-16865010D01*
X14782196Y-16884058D02*
X14791720Y-16874534D01*
X14791720Y-16874534D02*
X14810768Y-16865010D01*
X14810768Y-16865010D02*
X14839339Y-16865010D01*
X14839339Y-16865010D02*
X14858387Y-16874534D01*
X14858387Y-16874534D02*
X14867911Y-16893582D01*
X14867911Y-16893582D02*
X14867911Y-16998344D01*
X14867911Y-16893582D02*
X14877434Y-16874534D01*
X14877434Y-16874534D02*
X14896482Y-16865010D01*
X14896482Y-16865010D02*
X14925053Y-16865010D01*
X14925053Y-16865010D02*
X14944101Y-16874534D01*
X14944101Y-16874534D02*
X14953625Y-16893582D01*
X14953625Y-16893582D02*
X14953625Y-16998344D01*
X15344101Y-16788820D02*
X15172673Y-17045963D01*
X15601244Y-16798344D02*
X15620292Y-16798344D01*
X15620292Y-16798344D02*
X15639339Y-16807868D01*
X15639339Y-16807868D02*
X15648863Y-16817391D01*
X15648863Y-16817391D02*
X15658387Y-16836439D01*
X15658387Y-16836439D02*
X15667911Y-16874534D01*
X15667911Y-16874534D02*
X15667911Y-16922153D01*
X15667911Y-16922153D02*
X15658387Y-16960249D01*
X15658387Y-16960249D02*
X15648863Y-16979296D01*
X15648863Y-16979296D02*
X15639339Y-16988820D01*
X15639339Y-16988820D02*
X15620292Y-16998344D01*
X15620292Y-16998344D02*
X15601244Y-16998344D01*
X15601244Y-16998344D02*
X15582196Y-16988820D01*
X15582196Y-16988820D02*
X15572673Y-16979296D01*
X15572673Y-16979296D02*
X15563149Y-16960249D01*
X15563149Y-16960249D02*
X15553625Y-16922153D01*
X15553625Y-16922153D02*
X15553625Y-16874534D01*
X15553625Y-16874534D02*
X15563149Y-16836439D01*
X15563149Y-16836439D02*
X15572673Y-16817391D01*
X15572673Y-16817391D02*
X15582196Y-16807868D01*
X15582196Y-16807868D02*
X15601244Y-16798344D01*
X15753625Y-16979296D02*
X15763149Y-16988820D01*
X15763149Y-16988820D02*
X15753625Y-16998344D01*
X15753625Y-16998344D02*
X15744101Y-16988820D01*
X15744101Y-16988820D02*
X15753625Y-16979296D01*
X15753625Y-16979296D02*
X15753625Y-16998344D01*
X15886958Y-16798344D02*
X15906006Y-16798344D01*
X15906006Y-16798344D02*
X15925054Y-16807868D01*
X15925054Y-16807868D02*
X15934577Y-16817391D01*
X15934577Y-16817391D02*
X15944101Y-16836439D01*
X15944101Y-16836439D02*
X15953625Y-16874534D01*
X15953625Y-16874534D02*
X15953625Y-16922153D01*
X15953625Y-16922153D02*
X15944101Y-16960249D01*
X15944101Y-16960249D02*
X15934577Y-16979296D01*
X15934577Y-16979296D02*
X15925054Y-16988820D01*
X15925054Y-16988820D02*
X15906006Y-16998344D01*
X15906006Y-16998344D02*
X15886958Y-16998344D01*
X15886958Y-16998344D02*
X15867911Y-16988820D01*
X15867911Y-16988820D02*
X15858387Y-16979296D01*
X15858387Y-16979296D02*
X15848863Y-16960249D01*
X15848863Y-16960249D02*
X15839339Y-16922153D01*
X15839339Y-16922153D02*
X15839339Y-16874534D01*
X15839339Y-16874534D02*
X15848863Y-16836439D01*
X15848863Y-16836439D02*
X15858387Y-16817391D01*
X15858387Y-16817391D02*
X15867911Y-16807868D01*
X15867911Y-16807868D02*
X15886958Y-16798344D01*
X16020292Y-16798344D02*
X16144101Y-16798344D01*
X16144101Y-16798344D02*
X16077435Y-16874534D01*
X16077435Y-16874534D02*
X16106006Y-16874534D01*
X16106006Y-16874534D02*
X16125054Y-16884058D01*
X16125054Y-16884058D02*
X16134577Y-16893582D01*
X16134577Y-16893582D02*
X16144101Y-16912630D01*
X16144101Y-16912630D02*
X16144101Y-16960249D01*
X16144101Y-16960249D02*
X16134577Y-16979296D01*
X16134577Y-16979296D02*
X16125054Y-16988820D01*
X16125054Y-16988820D02*
X16106006Y-16998344D01*
X16106006Y-16998344D02*
X16048863Y-16998344D01*
X16048863Y-16998344D02*
X16029816Y-16988820D01*
X16029816Y-16988820D02*
X16020292Y-16979296D01*
X16220292Y-16817391D02*
X16229816Y-16807868D01*
X16229816Y-16807868D02*
X16248863Y-16798344D01*
X16248863Y-16798344D02*
X16296482Y-16798344D01*
X16296482Y-16798344D02*
X16315530Y-16807868D01*
X16315530Y-16807868D02*
X16325054Y-16817391D01*
X16325054Y-16817391D02*
X16334577Y-16836439D01*
X16334577Y-16836439D02*
X16334577Y-16855487D01*
X16334577Y-16855487D02*
X16325054Y-16884058D01*
X16325054Y-16884058D02*
X16210768Y-16998344D01*
X16210768Y-16998344D02*
X16334577Y-16998344D01*
X16458387Y-16798344D02*
X16477435Y-16798344D01*
X16477435Y-16798344D02*
X16496482Y-16807868D01*
X16496482Y-16807868D02*
X16506006Y-16817391D01*
X16506006Y-16817391D02*
X16515530Y-16836439D01*
X16515530Y-16836439D02*
X16525054Y-16874534D01*
X16525054Y-16874534D02*
X16525054Y-16922153D01*
X16525054Y-16922153D02*
X16515530Y-16960249D01*
X16515530Y-16960249D02*
X16506006Y-16979296D01*
X16506006Y-16979296D02*
X16496482Y-16988820D01*
X16496482Y-16988820D02*
X16477435Y-16998344D01*
X16477435Y-16998344D02*
X16458387Y-16998344D01*
X16458387Y-16998344D02*
X16439339Y-16988820D01*
X16439339Y-16988820D02*
X16429816Y-16979296D01*
X16429816Y-16979296D02*
X16420292Y-16960249D01*
X16420292Y-16960249D02*
X16410768Y-16922153D01*
X16410768Y-16922153D02*
X16410768Y-16874534D01*
X16410768Y-16874534D02*
X16420292Y-16836439D01*
X16420292Y-16836439D02*
X16429816Y-16817391D01*
X16429816Y-16817391D02*
X16439339Y-16807868D01*
X16439339Y-16807868D02*
X16458387Y-16798344D01*
X16601244Y-16798344D02*
X16601244Y-16836439D01*
X16677435Y-16798344D02*
X16677435Y-16836439D01*
X16972673Y-17074534D02*
X16963149Y-17065010D01*
X16963149Y-17065010D02*
X16944101Y-17036439D01*
X16944101Y-17036439D02*
X16934578Y-17017391D01*
X16934578Y-17017391D02*
X16925054Y-16988820D01*
X16925054Y-16988820D02*
X16915530Y-16941201D01*
X16915530Y-16941201D02*
X16915530Y-16903106D01*
X16915530Y-16903106D02*
X16925054Y-16855487D01*
X16925054Y-16855487D02*
X16934578Y-16826915D01*
X16934578Y-16826915D02*
X16944101Y-16807868D01*
X16944101Y-16807868D02*
X16963149Y-16779296D01*
X16963149Y-16779296D02*
X16972673Y-16769772D01*
X17029816Y-16798344D02*
X17153625Y-16798344D01*
X17153625Y-16798344D02*
X17086959Y-16874534D01*
X17086959Y-16874534D02*
X17115530Y-16874534D01*
X17115530Y-16874534D02*
X17134578Y-16884058D01*
X17134578Y-16884058D02*
X17144101Y-16893582D01*
X17144101Y-16893582D02*
X17153625Y-16912630D01*
X17153625Y-16912630D02*
X17153625Y-16960249D01*
X17153625Y-16960249D02*
X17144101Y-16979296D01*
X17144101Y-16979296D02*
X17134578Y-16988820D01*
X17134578Y-16988820D02*
X17115530Y-16998344D01*
X17115530Y-16998344D02*
X17058387Y-16998344D01*
X17058387Y-16998344D02*
X17039340Y-16988820D01*
X17039340Y-16988820D02*
X17029816Y-16979296D01*
X17220292Y-16798344D02*
X17353625Y-16798344D01*
X17353625Y-16798344D02*
X17267911Y-16998344D01*
X17582197Y-16998344D02*
X17582197Y-16798344D01*
X17667911Y-16998344D02*
X17667911Y-16893582D01*
X17667911Y-16893582D02*
X17658387Y-16874534D01*
X17658387Y-16874534D02*
X17639340Y-16865010D01*
X17639340Y-16865010D02*
X17610768Y-16865010D01*
X17610768Y-16865010D02*
X17591721Y-16874534D01*
X17591721Y-16874534D02*
X17582197Y-16884058D01*
X17791721Y-16998344D02*
X17772673Y-16988820D01*
X17772673Y-16988820D02*
X17763149Y-16979296D01*
X17763149Y-16979296D02*
X17753625Y-16960249D01*
X17753625Y-16960249D02*
X17753625Y-16903106D01*
X17753625Y-16903106D02*
X17763149Y-16884058D01*
X17763149Y-16884058D02*
X17772673Y-16874534D01*
X17772673Y-16874534D02*
X17791721Y-16865010D01*
X17791721Y-16865010D02*
X17820292Y-16865010D01*
X17820292Y-16865010D02*
X17839340Y-16874534D01*
X17839340Y-16874534D02*
X17848863Y-16884058D01*
X17848863Y-16884058D02*
X17858387Y-16903106D01*
X17858387Y-16903106D02*
X17858387Y-16960249D01*
X17858387Y-16960249D02*
X17848863Y-16979296D01*
X17848863Y-16979296D02*
X17839340Y-16988820D01*
X17839340Y-16988820D02*
X17820292Y-16998344D01*
X17820292Y-16998344D02*
X17791721Y-16998344D01*
X17972673Y-16998344D02*
X17953625Y-16988820D01*
X17953625Y-16988820D02*
X17944102Y-16969772D01*
X17944102Y-16969772D02*
X17944102Y-16798344D01*
X18125054Y-16988820D02*
X18106006Y-16998344D01*
X18106006Y-16998344D02*
X18067911Y-16998344D01*
X18067911Y-16998344D02*
X18048863Y-16988820D01*
X18048863Y-16988820D02*
X18039340Y-16969772D01*
X18039340Y-16969772D02*
X18039340Y-16893582D01*
X18039340Y-16893582D02*
X18048863Y-16874534D01*
X18048863Y-16874534D02*
X18067911Y-16865010D01*
X18067911Y-16865010D02*
X18106006Y-16865010D01*
X18106006Y-16865010D02*
X18125054Y-16874534D01*
X18125054Y-16874534D02*
X18134578Y-16893582D01*
X18134578Y-16893582D02*
X18134578Y-16912630D01*
X18134578Y-16912630D02*
X18039340Y-16931677D01*
X18210768Y-16988820D02*
X18229816Y-16998344D01*
X18229816Y-16998344D02*
X18267911Y-16998344D01*
X18267911Y-16998344D02*
X18286959Y-16988820D01*
X18286959Y-16988820D02*
X18296483Y-16969772D01*
X18296483Y-16969772D02*
X18296483Y-16960249D01*
X18296483Y-16960249D02*
X18286959Y-16941201D01*
X18286959Y-16941201D02*
X18267911Y-16931677D01*
X18267911Y-16931677D02*
X18239340Y-16931677D01*
X18239340Y-16931677D02*
X18220292Y-16922153D01*
X18220292Y-16922153D02*
X18210768Y-16903106D01*
X18210768Y-16903106D02*
X18210768Y-16893582D01*
X18210768Y-16893582D02*
X18220292Y-16874534D01*
X18220292Y-16874534D02*
X18239340Y-16865010D01*
X18239340Y-16865010D02*
X18267911Y-16865010D01*
X18267911Y-16865010D02*
X18286959Y-16874534D01*
X18363149Y-17074534D02*
X18372673Y-17065010D01*
X18372673Y-17065010D02*
X18391721Y-17036439D01*
X18391721Y-17036439D02*
X18401244Y-17017391D01*
X18401244Y-17017391D02*
X18410768Y-16988820D01*
X18410768Y-16988820D02*
X18420292Y-16941201D01*
X18420292Y-16941201D02*
X18420292Y-16903106D01*
X18420292Y-16903106D02*
X18410768Y-16855487D01*
X18410768Y-16855487D02*
X18401244Y-16826915D01*
X18401244Y-16826915D02*
X18391721Y-16807868D01*
X18391721Y-16807868D02*
X18372673Y-16779296D01*
X18372673Y-16779296D02*
X18363149Y-16769772D01*
D12*
X13351890Y-17125140D02*
X13351890Y-17216580D01*
X13306170Y-17170860D02*
X13397610Y-17170860D01*
D11*
X13696482Y-17062344D02*
X13715530Y-17062344D01*
X13715530Y-17062344D02*
X13734577Y-17071868D01*
X13734577Y-17071868D02*
X13744101Y-17081391D01*
X13744101Y-17081391D02*
X13753625Y-17100439D01*
X13753625Y-17100439D02*
X13763149Y-17138534D01*
X13763149Y-17138534D02*
X13763149Y-17186153D01*
X13763149Y-17186153D02*
X13753625Y-17224249D01*
X13753625Y-17224249D02*
X13744101Y-17243296D01*
X13744101Y-17243296D02*
X13734577Y-17252820D01*
X13734577Y-17252820D02*
X13715530Y-17262344D01*
X13715530Y-17262344D02*
X13696482Y-17262344D01*
X13696482Y-17262344D02*
X13677434Y-17252820D01*
X13677434Y-17252820D02*
X13667911Y-17243296D01*
X13667911Y-17243296D02*
X13658387Y-17224249D01*
X13658387Y-17224249D02*
X13648863Y-17186153D01*
X13648863Y-17186153D02*
X13648863Y-17138534D01*
X13648863Y-17138534D02*
X13658387Y-17100439D01*
X13658387Y-17100439D02*
X13667911Y-17081391D01*
X13667911Y-17081391D02*
X13677434Y-17071868D01*
X13677434Y-17071868D02*
X13696482Y-17062344D01*
X13848863Y-17243296D02*
X13858387Y-17252820D01*
X13858387Y-17252820D02*
X13848863Y-17262344D01*
X13848863Y-17262344D02*
X13839339Y-17252820D01*
X13839339Y-17252820D02*
X13848863Y-17243296D01*
X13848863Y-17243296D02*
X13848863Y-17262344D01*
X13953625Y-17262344D02*
X13991720Y-17262344D01*
X13991720Y-17262344D02*
X14010768Y-17252820D01*
X14010768Y-17252820D02*
X14020292Y-17243296D01*
X14020292Y-17243296D02*
X14039339Y-17214725D01*
X14039339Y-17214725D02*
X14048863Y-17176630D01*
X14048863Y-17176630D02*
X14048863Y-17100439D01*
X14048863Y-17100439D02*
X14039339Y-17081391D01*
X14039339Y-17081391D02*
X14029815Y-17071868D01*
X14029815Y-17071868D02*
X14010768Y-17062344D01*
X14010768Y-17062344D02*
X13972672Y-17062344D01*
X13972672Y-17062344D02*
X13953625Y-17071868D01*
X13953625Y-17071868D02*
X13944101Y-17081391D01*
X13944101Y-17081391D02*
X13934577Y-17100439D01*
X13934577Y-17100439D02*
X13934577Y-17148058D01*
X13934577Y-17148058D02*
X13944101Y-17167106D01*
X13944101Y-17167106D02*
X13953625Y-17176630D01*
X13953625Y-17176630D02*
X13972672Y-17186153D01*
X13972672Y-17186153D02*
X14010768Y-17186153D01*
X14010768Y-17186153D02*
X14029815Y-17176630D01*
X14029815Y-17176630D02*
X14039339Y-17167106D01*
X14039339Y-17167106D02*
X14048863Y-17148058D01*
X14239339Y-17262344D02*
X14125053Y-17262344D01*
X14182196Y-17262344D02*
X14182196Y-17062344D01*
X14182196Y-17062344D02*
X14163149Y-17090915D01*
X14163149Y-17090915D02*
X14144101Y-17109963D01*
X14144101Y-17109963D02*
X14125053Y-17119487D01*
X14410768Y-17129010D02*
X14410768Y-17262344D01*
X14363149Y-17052820D02*
X14315530Y-17195677D01*
X14315530Y-17195677D02*
X14439339Y-17195677D01*
X14515530Y-17262344D02*
X14515530Y-17129010D01*
X14515530Y-17148058D02*
X14525053Y-17138534D01*
X14525053Y-17138534D02*
X14544101Y-17129010D01*
X14544101Y-17129010D02*
X14572673Y-17129010D01*
X14572673Y-17129010D02*
X14591720Y-17138534D01*
X14591720Y-17138534D02*
X14601244Y-17157582D01*
X14601244Y-17157582D02*
X14601244Y-17262344D01*
X14601244Y-17157582D02*
X14610768Y-17138534D01*
X14610768Y-17138534D02*
X14629815Y-17129010D01*
X14629815Y-17129010D02*
X14658387Y-17129010D01*
X14658387Y-17129010D02*
X14677434Y-17138534D01*
X14677434Y-17138534D02*
X14686958Y-17157582D01*
X14686958Y-17157582D02*
X14686958Y-17262344D01*
X14782196Y-17262344D02*
X14782196Y-17129010D01*
X14782196Y-17148058D02*
X14791720Y-17138534D01*
X14791720Y-17138534D02*
X14810768Y-17129010D01*
X14810768Y-17129010D02*
X14839339Y-17129010D01*
X14839339Y-17129010D02*
X14858387Y-17138534D01*
X14858387Y-17138534D02*
X14867911Y-17157582D01*
X14867911Y-17157582D02*
X14867911Y-17262344D01*
X14867911Y-17157582D02*
X14877434Y-17138534D01*
X14877434Y-17138534D02*
X14896482Y-17129010D01*
X14896482Y-17129010D02*
X14925053Y-17129010D01*
X14925053Y-17129010D02*
X14944101Y-17138534D01*
X14944101Y-17138534D02*
X14953625Y-17157582D01*
X14953625Y-17157582D02*
X14953625Y-17262344D01*
X15344101Y-17052820D02*
X15172673Y-17309963D01*
X15601244Y-17062344D02*
X15620292Y-17062344D01*
X15620292Y-17062344D02*
X15639339Y-17071868D01*
X15639339Y-17071868D02*
X15648863Y-17081391D01*
X15648863Y-17081391D02*
X15658387Y-17100439D01*
X15658387Y-17100439D02*
X15667911Y-17138534D01*
X15667911Y-17138534D02*
X15667911Y-17186153D01*
X15667911Y-17186153D02*
X15658387Y-17224249D01*
X15658387Y-17224249D02*
X15648863Y-17243296D01*
X15648863Y-17243296D02*
X15639339Y-17252820D01*
X15639339Y-17252820D02*
X15620292Y-17262344D01*
X15620292Y-17262344D02*
X15601244Y-17262344D01*
X15601244Y-17262344D02*
X15582196Y-17252820D01*
X15582196Y-17252820D02*
X15572673Y-17243296D01*
X15572673Y-17243296D02*
X15563149Y-17224249D01*
X15563149Y-17224249D02*
X15553625Y-17186153D01*
X15553625Y-17186153D02*
X15553625Y-17138534D01*
X15553625Y-17138534D02*
X15563149Y-17100439D01*
X15563149Y-17100439D02*
X15572673Y-17081391D01*
X15572673Y-17081391D02*
X15582196Y-17071868D01*
X15582196Y-17071868D02*
X15601244Y-17062344D01*
X15753625Y-17243296D02*
X15763149Y-17252820D01*
X15763149Y-17252820D02*
X15753625Y-17262344D01*
X15753625Y-17262344D02*
X15744101Y-17252820D01*
X15744101Y-17252820D02*
X15753625Y-17243296D01*
X15753625Y-17243296D02*
X15753625Y-17262344D01*
X15886958Y-17062344D02*
X15906006Y-17062344D01*
X15906006Y-17062344D02*
X15925054Y-17071868D01*
X15925054Y-17071868D02*
X15934577Y-17081391D01*
X15934577Y-17081391D02*
X15944101Y-17100439D01*
X15944101Y-17100439D02*
X15953625Y-17138534D01*
X15953625Y-17138534D02*
X15953625Y-17186153D01*
X15953625Y-17186153D02*
X15944101Y-17224249D01*
X15944101Y-17224249D02*
X15934577Y-17243296D01*
X15934577Y-17243296D02*
X15925054Y-17252820D01*
X15925054Y-17252820D02*
X15906006Y-17262344D01*
X15906006Y-17262344D02*
X15886958Y-17262344D01*
X15886958Y-17262344D02*
X15867911Y-17252820D01*
X15867911Y-17252820D02*
X15858387Y-17243296D01*
X15858387Y-17243296D02*
X15848863Y-17224249D01*
X15848863Y-17224249D02*
X15839339Y-17186153D01*
X15839339Y-17186153D02*
X15839339Y-17138534D01*
X15839339Y-17138534D02*
X15848863Y-17100439D01*
X15848863Y-17100439D02*
X15858387Y-17081391D01*
X15858387Y-17081391D02*
X15867911Y-17071868D01*
X15867911Y-17071868D02*
X15886958Y-17062344D01*
X16020292Y-17062344D02*
X16144101Y-17062344D01*
X16144101Y-17062344D02*
X16077435Y-17138534D01*
X16077435Y-17138534D02*
X16106006Y-17138534D01*
X16106006Y-17138534D02*
X16125054Y-17148058D01*
X16125054Y-17148058D02*
X16134577Y-17157582D01*
X16134577Y-17157582D02*
X16144101Y-17176630D01*
X16144101Y-17176630D02*
X16144101Y-17224249D01*
X16144101Y-17224249D02*
X16134577Y-17243296D01*
X16134577Y-17243296D02*
X16125054Y-17252820D01*
X16125054Y-17252820D02*
X16106006Y-17262344D01*
X16106006Y-17262344D02*
X16048863Y-17262344D01*
X16048863Y-17262344D02*
X16029816Y-17252820D01*
X16029816Y-17252820D02*
X16020292Y-17243296D01*
X16315530Y-17062344D02*
X16277435Y-17062344D01*
X16277435Y-17062344D02*
X16258387Y-17071868D01*
X16258387Y-17071868D02*
X16248863Y-17081391D01*
X16248863Y-17081391D02*
X16229816Y-17109963D01*
X16229816Y-17109963D02*
X16220292Y-17148058D01*
X16220292Y-17148058D02*
X16220292Y-17224249D01*
X16220292Y-17224249D02*
X16229816Y-17243296D01*
X16229816Y-17243296D02*
X16239339Y-17252820D01*
X16239339Y-17252820D02*
X16258387Y-17262344D01*
X16258387Y-17262344D02*
X16296482Y-17262344D01*
X16296482Y-17262344D02*
X16315530Y-17252820D01*
X16315530Y-17252820D02*
X16325054Y-17243296D01*
X16325054Y-17243296D02*
X16334577Y-17224249D01*
X16334577Y-17224249D02*
X16334577Y-17176630D01*
X16334577Y-17176630D02*
X16325054Y-17157582D01*
X16325054Y-17157582D02*
X16315530Y-17148058D01*
X16315530Y-17148058D02*
X16296482Y-17138534D01*
X16296482Y-17138534D02*
X16258387Y-17138534D01*
X16258387Y-17138534D02*
X16239339Y-17148058D01*
X16239339Y-17148058D02*
X16229816Y-17157582D01*
X16229816Y-17157582D02*
X16220292Y-17176630D01*
X16458387Y-17062344D02*
X16477435Y-17062344D01*
X16477435Y-17062344D02*
X16496482Y-17071868D01*
X16496482Y-17071868D02*
X16506006Y-17081391D01*
X16506006Y-17081391D02*
X16515530Y-17100439D01*
X16515530Y-17100439D02*
X16525054Y-17138534D01*
X16525054Y-17138534D02*
X16525054Y-17186153D01*
X16525054Y-17186153D02*
X16515530Y-17224249D01*
X16515530Y-17224249D02*
X16506006Y-17243296D01*
X16506006Y-17243296D02*
X16496482Y-17252820D01*
X16496482Y-17252820D02*
X16477435Y-17262344D01*
X16477435Y-17262344D02*
X16458387Y-17262344D01*
X16458387Y-17262344D02*
X16439339Y-17252820D01*
X16439339Y-17252820D02*
X16429816Y-17243296D01*
X16429816Y-17243296D02*
X16420292Y-17224249D01*
X16420292Y-17224249D02*
X16410768Y-17186153D01*
X16410768Y-17186153D02*
X16410768Y-17138534D01*
X16410768Y-17138534D02*
X16420292Y-17100439D01*
X16420292Y-17100439D02*
X16429816Y-17081391D01*
X16429816Y-17081391D02*
X16439339Y-17071868D01*
X16439339Y-17071868D02*
X16458387Y-17062344D01*
X16601244Y-17062344D02*
X16601244Y-17100439D01*
X16677435Y-17062344D02*
X16677435Y-17100439D01*
X16972673Y-17338534D02*
X16963149Y-17329010D01*
X16963149Y-17329010D02*
X16944101Y-17300439D01*
X16944101Y-17300439D02*
X16934578Y-17281391D01*
X16934578Y-17281391D02*
X16925054Y-17252820D01*
X16925054Y-17252820D02*
X16915530Y-17205201D01*
X16915530Y-17205201D02*
X16915530Y-17167106D01*
X16915530Y-17167106D02*
X16925054Y-17119487D01*
X16925054Y-17119487D02*
X16934578Y-17090915D01*
X16934578Y-17090915D02*
X16944101Y-17071868D01*
X16944101Y-17071868D02*
X16963149Y-17043296D01*
X16963149Y-17043296D02*
X16972673Y-17033772D01*
X17153625Y-17262344D02*
X17039340Y-17262344D01*
X17096482Y-17262344D02*
X17096482Y-17062344D01*
X17096482Y-17062344D02*
X17077435Y-17090915D01*
X17077435Y-17090915D02*
X17058387Y-17109963D01*
X17058387Y-17109963D02*
X17039340Y-17119487D01*
X17277435Y-17062344D02*
X17296482Y-17062344D01*
X17296482Y-17062344D02*
X17315530Y-17071868D01*
X17315530Y-17071868D02*
X17325054Y-17081391D01*
X17325054Y-17081391D02*
X17334578Y-17100439D01*
X17334578Y-17100439D02*
X17344101Y-17138534D01*
X17344101Y-17138534D02*
X17344101Y-17186153D01*
X17344101Y-17186153D02*
X17334578Y-17224249D01*
X17334578Y-17224249D02*
X17325054Y-17243296D01*
X17325054Y-17243296D02*
X17315530Y-17252820D01*
X17315530Y-17252820D02*
X17296482Y-17262344D01*
X17296482Y-17262344D02*
X17277435Y-17262344D01*
X17277435Y-17262344D02*
X17258387Y-17252820D01*
X17258387Y-17252820D02*
X17248863Y-17243296D01*
X17248863Y-17243296D02*
X17239340Y-17224249D01*
X17239340Y-17224249D02*
X17229816Y-17186153D01*
X17229816Y-17186153D02*
X17229816Y-17138534D01*
X17229816Y-17138534D02*
X17239340Y-17100439D01*
X17239340Y-17100439D02*
X17248863Y-17081391D01*
X17248863Y-17081391D02*
X17258387Y-17071868D01*
X17258387Y-17071868D02*
X17277435Y-17062344D01*
X17582197Y-17262344D02*
X17582197Y-17062344D01*
X17667911Y-17262344D02*
X17667911Y-17157582D01*
X17667911Y-17157582D02*
X17658387Y-17138534D01*
X17658387Y-17138534D02*
X17639340Y-17129010D01*
X17639340Y-17129010D02*
X17610768Y-17129010D01*
X17610768Y-17129010D02*
X17591721Y-17138534D01*
X17591721Y-17138534D02*
X17582197Y-17148058D01*
X17791721Y-17262344D02*
X17772673Y-17252820D01*
X17772673Y-17252820D02*
X17763149Y-17243296D01*
X17763149Y-17243296D02*
X17753625Y-17224249D01*
X17753625Y-17224249D02*
X17753625Y-17167106D01*
X17753625Y-17167106D02*
X17763149Y-17148058D01*
X17763149Y-17148058D02*
X17772673Y-17138534D01*
X17772673Y-17138534D02*
X17791721Y-17129010D01*
X17791721Y-17129010D02*
X17820292Y-17129010D01*
X17820292Y-17129010D02*
X17839340Y-17138534D01*
X17839340Y-17138534D02*
X17848863Y-17148058D01*
X17848863Y-17148058D02*
X17858387Y-17167106D01*
X17858387Y-17167106D02*
X17858387Y-17224249D01*
X17858387Y-17224249D02*
X17848863Y-17243296D01*
X17848863Y-17243296D02*
X17839340Y-17252820D01*
X17839340Y-17252820D02*
X17820292Y-17262344D01*
X17820292Y-17262344D02*
X17791721Y-17262344D01*
X17972673Y-17262344D02*
X17953625Y-17252820D01*
X17953625Y-17252820D02*
X17944102Y-17233772D01*
X17944102Y-17233772D02*
X17944102Y-17062344D01*
X18125054Y-17252820D02*
X18106006Y-17262344D01*
X18106006Y-17262344D02*
X18067911Y-17262344D01*
X18067911Y-17262344D02*
X18048863Y-17252820D01*
X18048863Y-17252820D02*
X18039340Y-17233772D01*
X18039340Y-17233772D02*
X18039340Y-17157582D01*
X18039340Y-17157582D02*
X18048863Y-17138534D01*
X18048863Y-17138534D02*
X18067911Y-17129010D01*
X18067911Y-17129010D02*
X18106006Y-17129010D01*
X18106006Y-17129010D02*
X18125054Y-17138534D01*
X18125054Y-17138534D02*
X18134578Y-17157582D01*
X18134578Y-17157582D02*
X18134578Y-17176630D01*
X18134578Y-17176630D02*
X18039340Y-17195677D01*
X18210768Y-17252820D02*
X18229816Y-17262344D01*
X18229816Y-17262344D02*
X18267911Y-17262344D01*
X18267911Y-17262344D02*
X18286959Y-17252820D01*
X18286959Y-17252820D02*
X18296483Y-17233772D01*
X18296483Y-17233772D02*
X18296483Y-17224249D01*
X18296483Y-17224249D02*
X18286959Y-17205201D01*
X18286959Y-17205201D02*
X18267911Y-17195677D01*
X18267911Y-17195677D02*
X18239340Y-17195677D01*
X18239340Y-17195677D02*
X18220292Y-17186153D01*
X18220292Y-17186153D02*
X18210768Y-17167106D01*
X18210768Y-17167106D02*
X18210768Y-17157582D01*
X18210768Y-17157582D02*
X18220292Y-17138534D01*
X18220292Y-17138534D02*
X18239340Y-17129010D01*
X18239340Y-17129010D02*
X18267911Y-17129010D01*
X18267911Y-17129010D02*
X18286959Y-17138534D01*
X18363149Y-17338534D02*
X18372673Y-17329010D01*
X18372673Y-17329010D02*
X18391721Y-17300439D01*
X18391721Y-17300439D02*
X18401244Y-17281391D01*
X18401244Y-17281391D02*
X18410768Y-17252820D01*
X18410768Y-17252820D02*
X18420292Y-17205201D01*
X18420292Y-17205201D02*
X18420292Y-17167106D01*
X18420292Y-17167106D02*
X18410768Y-17119487D01*
X18410768Y-17119487D02*
X18401244Y-17090915D01*
X18401244Y-17090915D02*
X18391721Y-17071868D01*
X18391721Y-17071868D02*
X18372673Y-17043296D01*
X18372673Y-17043296D02*
X18363149Y-17033772D01*
D12*
X13382966Y-17470216D02*
X13382966Y-17399504D01*
X13312254Y-17399504D01*
X13312254Y-17470216D01*
X13382966Y-17470216D01*
D11*
X13763149Y-17526344D02*
X13648863Y-17526344D01*
X13706006Y-17526344D02*
X13706006Y-17326344D01*
X13706006Y-17326344D02*
X13686958Y-17354915D01*
X13686958Y-17354915D02*
X13667911Y-17373963D01*
X13667911Y-17373963D02*
X13648863Y-17383487D01*
X13848863Y-17507296D02*
X13858387Y-17516820D01*
X13858387Y-17516820D02*
X13848863Y-17526344D01*
X13848863Y-17526344D02*
X13839339Y-17516820D01*
X13839339Y-17516820D02*
X13848863Y-17507296D01*
X13848863Y-17507296D02*
X13848863Y-17526344D01*
X13982196Y-17326344D02*
X14001244Y-17326344D01*
X14001244Y-17326344D02*
X14020292Y-17335868D01*
X14020292Y-17335868D02*
X14029815Y-17345391D01*
X14029815Y-17345391D02*
X14039339Y-17364439D01*
X14039339Y-17364439D02*
X14048863Y-17402534D01*
X14048863Y-17402534D02*
X14048863Y-17450153D01*
X14048863Y-17450153D02*
X14039339Y-17488249D01*
X14039339Y-17488249D02*
X14029815Y-17507296D01*
X14029815Y-17507296D02*
X14020292Y-17516820D01*
X14020292Y-17516820D02*
X14001244Y-17526344D01*
X14001244Y-17526344D02*
X13982196Y-17526344D01*
X13982196Y-17526344D02*
X13963149Y-17516820D01*
X13963149Y-17516820D02*
X13953625Y-17507296D01*
X13953625Y-17507296D02*
X13944101Y-17488249D01*
X13944101Y-17488249D02*
X13934577Y-17450153D01*
X13934577Y-17450153D02*
X13934577Y-17402534D01*
X13934577Y-17402534D02*
X13944101Y-17364439D01*
X13944101Y-17364439D02*
X13953625Y-17345391D01*
X13953625Y-17345391D02*
X13963149Y-17335868D01*
X13963149Y-17335868D02*
X13982196Y-17326344D01*
X14172672Y-17326344D02*
X14191720Y-17326344D01*
X14191720Y-17326344D02*
X14210768Y-17335868D01*
X14210768Y-17335868D02*
X14220292Y-17345391D01*
X14220292Y-17345391D02*
X14229815Y-17364439D01*
X14229815Y-17364439D02*
X14239339Y-17402534D01*
X14239339Y-17402534D02*
X14239339Y-17450153D01*
X14239339Y-17450153D02*
X14229815Y-17488249D01*
X14229815Y-17488249D02*
X14220292Y-17507296D01*
X14220292Y-17507296D02*
X14210768Y-17516820D01*
X14210768Y-17516820D02*
X14191720Y-17526344D01*
X14191720Y-17526344D02*
X14172672Y-17526344D01*
X14172672Y-17526344D02*
X14153625Y-17516820D01*
X14153625Y-17516820D02*
X14144101Y-17507296D01*
X14144101Y-17507296D02*
X14134577Y-17488249D01*
X14134577Y-17488249D02*
X14125053Y-17450153D01*
X14125053Y-17450153D02*
X14125053Y-17402534D01*
X14125053Y-17402534D02*
X14134577Y-17364439D01*
X14134577Y-17364439D02*
X14144101Y-17345391D01*
X14144101Y-17345391D02*
X14153625Y-17335868D01*
X14153625Y-17335868D02*
X14172672Y-17326344D01*
X14363149Y-17326344D02*
X14382196Y-17326344D01*
X14382196Y-17326344D02*
X14401244Y-17335868D01*
X14401244Y-17335868D02*
X14410768Y-17345391D01*
X14410768Y-17345391D02*
X14420292Y-17364439D01*
X14420292Y-17364439D02*
X14429815Y-17402534D01*
X14429815Y-17402534D02*
X14429815Y-17450153D01*
X14429815Y-17450153D02*
X14420292Y-17488249D01*
X14420292Y-17488249D02*
X14410768Y-17507296D01*
X14410768Y-17507296D02*
X14401244Y-17516820D01*
X14401244Y-17516820D02*
X14382196Y-17526344D01*
X14382196Y-17526344D02*
X14363149Y-17526344D01*
X14363149Y-17526344D02*
X14344101Y-17516820D01*
X14344101Y-17516820D02*
X14334577Y-17507296D01*
X14334577Y-17507296D02*
X14325053Y-17488249D01*
X14325053Y-17488249D02*
X14315530Y-17450153D01*
X14315530Y-17450153D02*
X14315530Y-17402534D01*
X14315530Y-17402534D02*
X14325053Y-17364439D01*
X14325053Y-17364439D02*
X14334577Y-17345391D01*
X14334577Y-17345391D02*
X14344101Y-17335868D01*
X14344101Y-17335868D02*
X14363149Y-17326344D01*
X14515530Y-17526344D02*
X14515530Y-17393010D01*
X14515530Y-17412058D02*
X14525053Y-17402534D01*
X14525053Y-17402534D02*
X14544101Y-17393010D01*
X14544101Y-17393010D02*
X14572673Y-17393010D01*
X14572673Y-17393010D02*
X14591720Y-17402534D01*
X14591720Y-17402534D02*
X14601244Y-17421582D01*
X14601244Y-17421582D02*
X14601244Y-17526344D01*
X14601244Y-17421582D02*
X14610768Y-17402534D01*
X14610768Y-17402534D02*
X14629815Y-17393010D01*
X14629815Y-17393010D02*
X14658387Y-17393010D01*
X14658387Y-17393010D02*
X14677434Y-17402534D01*
X14677434Y-17402534D02*
X14686958Y-17421582D01*
X14686958Y-17421582D02*
X14686958Y-17526344D01*
X14782196Y-17526344D02*
X14782196Y-17393010D01*
X14782196Y-17412058D02*
X14791720Y-17402534D01*
X14791720Y-17402534D02*
X14810768Y-17393010D01*
X14810768Y-17393010D02*
X14839339Y-17393010D01*
X14839339Y-17393010D02*
X14858387Y-17402534D01*
X14858387Y-17402534D02*
X14867911Y-17421582D01*
X14867911Y-17421582D02*
X14867911Y-17526344D01*
X14867911Y-17421582D02*
X14877434Y-17402534D01*
X14877434Y-17402534D02*
X14896482Y-17393010D01*
X14896482Y-17393010D02*
X14925053Y-17393010D01*
X14925053Y-17393010D02*
X14944101Y-17402534D01*
X14944101Y-17402534D02*
X14953625Y-17421582D01*
X14953625Y-17421582D02*
X14953625Y-17526344D01*
X15344101Y-17316820D02*
X15172673Y-17573963D01*
X15601244Y-17326344D02*
X15620292Y-17326344D01*
X15620292Y-17326344D02*
X15639339Y-17335868D01*
X15639339Y-17335868D02*
X15648863Y-17345391D01*
X15648863Y-17345391D02*
X15658387Y-17364439D01*
X15658387Y-17364439D02*
X15667911Y-17402534D01*
X15667911Y-17402534D02*
X15667911Y-17450153D01*
X15667911Y-17450153D02*
X15658387Y-17488249D01*
X15658387Y-17488249D02*
X15648863Y-17507296D01*
X15648863Y-17507296D02*
X15639339Y-17516820D01*
X15639339Y-17516820D02*
X15620292Y-17526344D01*
X15620292Y-17526344D02*
X15601244Y-17526344D01*
X15601244Y-17526344D02*
X15582196Y-17516820D01*
X15582196Y-17516820D02*
X15572673Y-17507296D01*
X15572673Y-17507296D02*
X15563149Y-17488249D01*
X15563149Y-17488249D02*
X15553625Y-17450153D01*
X15553625Y-17450153D02*
X15553625Y-17402534D01*
X15553625Y-17402534D02*
X15563149Y-17364439D01*
X15563149Y-17364439D02*
X15572673Y-17345391D01*
X15572673Y-17345391D02*
X15582196Y-17335868D01*
X15582196Y-17335868D02*
X15601244Y-17326344D01*
X15753625Y-17507296D02*
X15763149Y-17516820D01*
X15763149Y-17516820D02*
X15753625Y-17526344D01*
X15753625Y-17526344D02*
X15744101Y-17516820D01*
X15744101Y-17516820D02*
X15753625Y-17507296D01*
X15753625Y-17507296D02*
X15753625Y-17526344D01*
X15886958Y-17326344D02*
X15906006Y-17326344D01*
X15906006Y-17326344D02*
X15925054Y-17335868D01*
X15925054Y-17335868D02*
X15934577Y-17345391D01*
X15934577Y-17345391D02*
X15944101Y-17364439D01*
X15944101Y-17364439D02*
X15953625Y-17402534D01*
X15953625Y-17402534D02*
X15953625Y-17450153D01*
X15953625Y-17450153D02*
X15944101Y-17488249D01*
X15944101Y-17488249D02*
X15934577Y-17507296D01*
X15934577Y-17507296D02*
X15925054Y-17516820D01*
X15925054Y-17516820D02*
X15906006Y-17526344D01*
X15906006Y-17526344D02*
X15886958Y-17526344D01*
X15886958Y-17526344D02*
X15867911Y-17516820D01*
X15867911Y-17516820D02*
X15858387Y-17507296D01*
X15858387Y-17507296D02*
X15848863Y-17488249D01*
X15848863Y-17488249D02*
X15839339Y-17450153D01*
X15839339Y-17450153D02*
X15839339Y-17402534D01*
X15839339Y-17402534D02*
X15848863Y-17364439D01*
X15848863Y-17364439D02*
X15858387Y-17345391D01*
X15858387Y-17345391D02*
X15867911Y-17335868D01*
X15867911Y-17335868D02*
X15886958Y-17326344D01*
X16020292Y-17326344D02*
X16144101Y-17326344D01*
X16144101Y-17326344D02*
X16077435Y-17402534D01*
X16077435Y-17402534D02*
X16106006Y-17402534D01*
X16106006Y-17402534D02*
X16125054Y-17412058D01*
X16125054Y-17412058D02*
X16134577Y-17421582D01*
X16134577Y-17421582D02*
X16144101Y-17440630D01*
X16144101Y-17440630D02*
X16144101Y-17488249D01*
X16144101Y-17488249D02*
X16134577Y-17507296D01*
X16134577Y-17507296D02*
X16125054Y-17516820D01*
X16125054Y-17516820D02*
X16106006Y-17526344D01*
X16106006Y-17526344D02*
X16048863Y-17526344D01*
X16048863Y-17526344D02*
X16029816Y-17516820D01*
X16029816Y-17516820D02*
X16020292Y-17507296D01*
X16239339Y-17526344D02*
X16277435Y-17526344D01*
X16277435Y-17526344D02*
X16296482Y-17516820D01*
X16296482Y-17516820D02*
X16306006Y-17507296D01*
X16306006Y-17507296D02*
X16325054Y-17478725D01*
X16325054Y-17478725D02*
X16334577Y-17440630D01*
X16334577Y-17440630D02*
X16334577Y-17364439D01*
X16334577Y-17364439D02*
X16325054Y-17345391D01*
X16325054Y-17345391D02*
X16315530Y-17335868D01*
X16315530Y-17335868D02*
X16296482Y-17326344D01*
X16296482Y-17326344D02*
X16258387Y-17326344D01*
X16258387Y-17326344D02*
X16239339Y-17335868D01*
X16239339Y-17335868D02*
X16229816Y-17345391D01*
X16229816Y-17345391D02*
X16220292Y-17364439D01*
X16220292Y-17364439D02*
X16220292Y-17412058D01*
X16220292Y-17412058D02*
X16229816Y-17431106D01*
X16229816Y-17431106D02*
X16239339Y-17440630D01*
X16239339Y-17440630D02*
X16258387Y-17450153D01*
X16258387Y-17450153D02*
X16296482Y-17450153D01*
X16296482Y-17450153D02*
X16315530Y-17440630D01*
X16315530Y-17440630D02*
X16325054Y-17431106D01*
X16325054Y-17431106D02*
X16334577Y-17412058D01*
X16506006Y-17393010D02*
X16506006Y-17526344D01*
X16458387Y-17316820D02*
X16410768Y-17459677D01*
X16410768Y-17459677D02*
X16534577Y-17459677D01*
X16601244Y-17326344D02*
X16601244Y-17364439D01*
X16677435Y-17326344D02*
X16677435Y-17364439D01*
X16972673Y-17602534D02*
X16963149Y-17593010D01*
X16963149Y-17593010D02*
X16944101Y-17564439D01*
X16944101Y-17564439D02*
X16934578Y-17545391D01*
X16934578Y-17545391D02*
X16925054Y-17516820D01*
X16925054Y-17516820D02*
X16915530Y-17469201D01*
X16915530Y-17469201D02*
X16915530Y-17431106D01*
X16915530Y-17431106D02*
X16925054Y-17383487D01*
X16925054Y-17383487D02*
X16934578Y-17354915D01*
X16934578Y-17354915D02*
X16944101Y-17335868D01*
X16944101Y-17335868D02*
X16963149Y-17307296D01*
X16963149Y-17307296D02*
X16972673Y-17297772D01*
X17058387Y-17526344D02*
X17096482Y-17526344D01*
X17096482Y-17526344D02*
X17115530Y-17516820D01*
X17115530Y-17516820D02*
X17125054Y-17507296D01*
X17125054Y-17507296D02*
X17144101Y-17478725D01*
X17144101Y-17478725D02*
X17153625Y-17440630D01*
X17153625Y-17440630D02*
X17153625Y-17364439D01*
X17153625Y-17364439D02*
X17144101Y-17345391D01*
X17144101Y-17345391D02*
X17134578Y-17335868D01*
X17134578Y-17335868D02*
X17115530Y-17326344D01*
X17115530Y-17326344D02*
X17077435Y-17326344D01*
X17077435Y-17326344D02*
X17058387Y-17335868D01*
X17058387Y-17335868D02*
X17048863Y-17345391D01*
X17048863Y-17345391D02*
X17039340Y-17364439D01*
X17039340Y-17364439D02*
X17039340Y-17412058D01*
X17039340Y-17412058D02*
X17048863Y-17431106D01*
X17048863Y-17431106D02*
X17058387Y-17440630D01*
X17058387Y-17440630D02*
X17077435Y-17450153D01*
X17077435Y-17450153D02*
X17115530Y-17450153D01*
X17115530Y-17450153D02*
X17134578Y-17440630D01*
X17134578Y-17440630D02*
X17144101Y-17431106D01*
X17144101Y-17431106D02*
X17153625Y-17412058D01*
X17391721Y-17526344D02*
X17391721Y-17326344D01*
X17477435Y-17526344D02*
X17477435Y-17421582D01*
X17477435Y-17421582D02*
X17467911Y-17402534D01*
X17467911Y-17402534D02*
X17448863Y-17393010D01*
X17448863Y-17393010D02*
X17420292Y-17393010D01*
X17420292Y-17393010D02*
X17401244Y-17402534D01*
X17401244Y-17402534D02*
X17391721Y-17412058D01*
X17601244Y-17526344D02*
X17582197Y-17516820D01*
X17582197Y-17516820D02*
X17572673Y-17507296D01*
X17572673Y-17507296D02*
X17563149Y-17488249D01*
X17563149Y-17488249D02*
X17563149Y-17431106D01*
X17563149Y-17431106D02*
X17572673Y-17412058D01*
X17572673Y-17412058D02*
X17582197Y-17402534D01*
X17582197Y-17402534D02*
X17601244Y-17393010D01*
X17601244Y-17393010D02*
X17629816Y-17393010D01*
X17629816Y-17393010D02*
X17648863Y-17402534D01*
X17648863Y-17402534D02*
X17658387Y-17412058D01*
X17658387Y-17412058D02*
X17667911Y-17431106D01*
X17667911Y-17431106D02*
X17667911Y-17488249D01*
X17667911Y-17488249D02*
X17658387Y-17507296D01*
X17658387Y-17507296D02*
X17648863Y-17516820D01*
X17648863Y-17516820D02*
X17629816Y-17526344D01*
X17629816Y-17526344D02*
X17601244Y-17526344D01*
X17782197Y-17526344D02*
X17763149Y-17516820D01*
X17763149Y-17516820D02*
X17753625Y-17497772D01*
X17753625Y-17497772D02*
X17753625Y-17326344D01*
X17934578Y-17516820D02*
X17915530Y-17526344D01*
X17915530Y-17526344D02*
X17877435Y-17526344D01*
X17877435Y-17526344D02*
X17858387Y-17516820D01*
X17858387Y-17516820D02*
X17848863Y-17497772D01*
X17848863Y-17497772D02*
X17848863Y-17421582D01*
X17848863Y-17421582D02*
X17858387Y-17402534D01*
X17858387Y-17402534D02*
X17877435Y-17393010D01*
X17877435Y-17393010D02*
X17915530Y-17393010D01*
X17915530Y-17393010D02*
X17934578Y-17402534D01*
X17934578Y-17402534D02*
X17944102Y-17421582D01*
X17944102Y-17421582D02*
X17944102Y-17440630D01*
X17944102Y-17440630D02*
X17848863Y-17459677D01*
X18020292Y-17516820D02*
X18039340Y-17526344D01*
X18039340Y-17526344D02*
X18077435Y-17526344D01*
X18077435Y-17526344D02*
X18096483Y-17516820D01*
X18096483Y-17516820D02*
X18106006Y-17497772D01*
X18106006Y-17497772D02*
X18106006Y-17488249D01*
X18106006Y-17488249D02*
X18096483Y-17469201D01*
X18096483Y-17469201D02*
X18077435Y-17459677D01*
X18077435Y-17459677D02*
X18048863Y-17459677D01*
X18048863Y-17459677D02*
X18029816Y-17450153D01*
X18029816Y-17450153D02*
X18020292Y-17431106D01*
X18020292Y-17431106D02*
X18020292Y-17421582D01*
X18020292Y-17421582D02*
X18029816Y-17402534D01*
X18029816Y-17402534D02*
X18048863Y-17393010D01*
X18048863Y-17393010D02*
X18077435Y-17393010D01*
X18077435Y-17393010D02*
X18096483Y-17402534D01*
X18172673Y-17602534D02*
X18182197Y-17593010D01*
X18182197Y-17593010D02*
X18201244Y-17564439D01*
X18201244Y-17564439D02*
X18210768Y-17545391D01*
X18210768Y-17545391D02*
X18220292Y-17516820D01*
X18220292Y-17516820D02*
X18229816Y-17469201D01*
X18229816Y-17469201D02*
X18229816Y-17431106D01*
X18229816Y-17431106D02*
X18220292Y-17383487D01*
X18220292Y-17383487D02*
X18210768Y-17354915D01*
X18210768Y-17354915D02*
X18201244Y-17335868D01*
X18201244Y-17335868D02*
X18182197Y-17307296D01*
X18182197Y-17307296D02*
X18172673Y-17297772D01*
D13*
X13346810Y-17749660D02*
X13397610Y-17698860D01*
X13346810Y-17648060D01*
X13296010Y-17698860D01*
X13346810Y-17749660D01*
D11*
X13763149Y-17790344D02*
X13648863Y-17790344D01*
X13706006Y-17790344D02*
X13706006Y-17590344D01*
X13706006Y-17590344D02*
X13686958Y-17618915D01*
X13686958Y-17618915D02*
X13667911Y-17637963D01*
X13667911Y-17637963D02*
X13648863Y-17647487D01*
X13848863Y-17771296D02*
X13858387Y-17780820D01*
X13858387Y-17780820D02*
X13848863Y-17790344D01*
X13848863Y-17790344D02*
X13839339Y-17780820D01*
X13839339Y-17780820D02*
X13848863Y-17771296D01*
X13848863Y-17771296D02*
X13848863Y-17790344D01*
X13982196Y-17590344D02*
X14001244Y-17590344D01*
X14001244Y-17590344D02*
X14020292Y-17599868D01*
X14020292Y-17599868D02*
X14029815Y-17609391D01*
X14029815Y-17609391D02*
X14039339Y-17628439D01*
X14039339Y-17628439D02*
X14048863Y-17666534D01*
X14048863Y-17666534D02*
X14048863Y-17714153D01*
X14048863Y-17714153D02*
X14039339Y-17752249D01*
X14039339Y-17752249D02*
X14029815Y-17771296D01*
X14029815Y-17771296D02*
X14020292Y-17780820D01*
X14020292Y-17780820D02*
X14001244Y-17790344D01*
X14001244Y-17790344D02*
X13982196Y-17790344D01*
X13982196Y-17790344D02*
X13963149Y-17780820D01*
X13963149Y-17780820D02*
X13953625Y-17771296D01*
X13953625Y-17771296D02*
X13944101Y-17752249D01*
X13944101Y-17752249D02*
X13934577Y-17714153D01*
X13934577Y-17714153D02*
X13934577Y-17666534D01*
X13934577Y-17666534D02*
X13944101Y-17628439D01*
X13944101Y-17628439D02*
X13953625Y-17609391D01*
X13953625Y-17609391D02*
X13963149Y-17599868D01*
X13963149Y-17599868D02*
X13982196Y-17590344D01*
X14239339Y-17790344D02*
X14125053Y-17790344D01*
X14182196Y-17790344D02*
X14182196Y-17590344D01*
X14182196Y-17590344D02*
X14163149Y-17618915D01*
X14163149Y-17618915D02*
X14144101Y-17637963D01*
X14144101Y-17637963D02*
X14125053Y-17647487D01*
X14410768Y-17590344D02*
X14372672Y-17590344D01*
X14372672Y-17590344D02*
X14353625Y-17599868D01*
X14353625Y-17599868D02*
X14344101Y-17609391D01*
X14344101Y-17609391D02*
X14325053Y-17637963D01*
X14325053Y-17637963D02*
X14315530Y-17676058D01*
X14315530Y-17676058D02*
X14315530Y-17752249D01*
X14315530Y-17752249D02*
X14325053Y-17771296D01*
X14325053Y-17771296D02*
X14334577Y-17780820D01*
X14334577Y-17780820D02*
X14353625Y-17790344D01*
X14353625Y-17790344D02*
X14391720Y-17790344D01*
X14391720Y-17790344D02*
X14410768Y-17780820D01*
X14410768Y-17780820D02*
X14420292Y-17771296D01*
X14420292Y-17771296D02*
X14429815Y-17752249D01*
X14429815Y-17752249D02*
X14429815Y-17704630D01*
X14429815Y-17704630D02*
X14420292Y-17685582D01*
X14420292Y-17685582D02*
X14410768Y-17676058D01*
X14410768Y-17676058D02*
X14391720Y-17666534D01*
X14391720Y-17666534D02*
X14353625Y-17666534D01*
X14353625Y-17666534D02*
X14334577Y-17676058D01*
X14334577Y-17676058D02*
X14325053Y-17685582D01*
X14325053Y-17685582D02*
X14315530Y-17704630D01*
X14515530Y-17790344D02*
X14515530Y-17657010D01*
X14515530Y-17676058D02*
X14525053Y-17666534D01*
X14525053Y-17666534D02*
X14544101Y-17657010D01*
X14544101Y-17657010D02*
X14572673Y-17657010D01*
X14572673Y-17657010D02*
X14591720Y-17666534D01*
X14591720Y-17666534D02*
X14601244Y-17685582D01*
X14601244Y-17685582D02*
X14601244Y-17790344D01*
X14601244Y-17685582D02*
X14610768Y-17666534D01*
X14610768Y-17666534D02*
X14629815Y-17657010D01*
X14629815Y-17657010D02*
X14658387Y-17657010D01*
X14658387Y-17657010D02*
X14677434Y-17666534D01*
X14677434Y-17666534D02*
X14686958Y-17685582D01*
X14686958Y-17685582D02*
X14686958Y-17790344D01*
X14782196Y-17790344D02*
X14782196Y-17657010D01*
X14782196Y-17676058D02*
X14791720Y-17666534D01*
X14791720Y-17666534D02*
X14810768Y-17657010D01*
X14810768Y-17657010D02*
X14839339Y-17657010D01*
X14839339Y-17657010D02*
X14858387Y-17666534D01*
X14858387Y-17666534D02*
X14867911Y-17685582D01*
X14867911Y-17685582D02*
X14867911Y-17790344D01*
X14867911Y-17685582D02*
X14877434Y-17666534D01*
X14877434Y-17666534D02*
X14896482Y-17657010D01*
X14896482Y-17657010D02*
X14925053Y-17657010D01*
X14925053Y-17657010D02*
X14944101Y-17666534D01*
X14944101Y-17666534D02*
X14953625Y-17685582D01*
X14953625Y-17685582D02*
X14953625Y-17790344D01*
X15344101Y-17580820D02*
X15172673Y-17837963D01*
X15601244Y-17590344D02*
X15620292Y-17590344D01*
X15620292Y-17590344D02*
X15639339Y-17599868D01*
X15639339Y-17599868D02*
X15648863Y-17609391D01*
X15648863Y-17609391D02*
X15658387Y-17628439D01*
X15658387Y-17628439D02*
X15667911Y-17666534D01*
X15667911Y-17666534D02*
X15667911Y-17714153D01*
X15667911Y-17714153D02*
X15658387Y-17752249D01*
X15658387Y-17752249D02*
X15648863Y-17771296D01*
X15648863Y-17771296D02*
X15639339Y-17780820D01*
X15639339Y-17780820D02*
X15620292Y-17790344D01*
X15620292Y-17790344D02*
X15601244Y-17790344D01*
X15601244Y-17790344D02*
X15582196Y-17780820D01*
X15582196Y-17780820D02*
X15572673Y-17771296D01*
X15572673Y-17771296D02*
X15563149Y-17752249D01*
X15563149Y-17752249D02*
X15553625Y-17714153D01*
X15553625Y-17714153D02*
X15553625Y-17666534D01*
X15553625Y-17666534D02*
X15563149Y-17628439D01*
X15563149Y-17628439D02*
X15572673Y-17609391D01*
X15572673Y-17609391D02*
X15582196Y-17599868D01*
X15582196Y-17599868D02*
X15601244Y-17590344D01*
X15753625Y-17771296D02*
X15763149Y-17780820D01*
X15763149Y-17780820D02*
X15753625Y-17790344D01*
X15753625Y-17790344D02*
X15744101Y-17780820D01*
X15744101Y-17780820D02*
X15753625Y-17771296D01*
X15753625Y-17771296D02*
X15753625Y-17790344D01*
X15886958Y-17590344D02*
X15906006Y-17590344D01*
X15906006Y-17590344D02*
X15925054Y-17599868D01*
X15925054Y-17599868D02*
X15934577Y-17609391D01*
X15934577Y-17609391D02*
X15944101Y-17628439D01*
X15944101Y-17628439D02*
X15953625Y-17666534D01*
X15953625Y-17666534D02*
X15953625Y-17714153D01*
X15953625Y-17714153D02*
X15944101Y-17752249D01*
X15944101Y-17752249D02*
X15934577Y-17771296D01*
X15934577Y-17771296D02*
X15925054Y-17780820D01*
X15925054Y-17780820D02*
X15906006Y-17790344D01*
X15906006Y-17790344D02*
X15886958Y-17790344D01*
X15886958Y-17790344D02*
X15867911Y-17780820D01*
X15867911Y-17780820D02*
X15858387Y-17771296D01*
X15858387Y-17771296D02*
X15848863Y-17752249D01*
X15848863Y-17752249D02*
X15839339Y-17714153D01*
X15839339Y-17714153D02*
X15839339Y-17666534D01*
X15839339Y-17666534D02*
X15848863Y-17628439D01*
X15848863Y-17628439D02*
X15858387Y-17609391D01*
X15858387Y-17609391D02*
X15867911Y-17599868D01*
X15867911Y-17599868D02*
X15886958Y-17590344D01*
X16125054Y-17657010D02*
X16125054Y-17790344D01*
X16077435Y-17580820D02*
X16029816Y-17723677D01*
X16029816Y-17723677D02*
X16153625Y-17723677D01*
X16267911Y-17590344D02*
X16286958Y-17590344D01*
X16286958Y-17590344D02*
X16306006Y-17599868D01*
X16306006Y-17599868D02*
X16315530Y-17609391D01*
X16315530Y-17609391D02*
X16325054Y-17628439D01*
X16325054Y-17628439D02*
X16334577Y-17666534D01*
X16334577Y-17666534D02*
X16334577Y-17714153D01*
X16334577Y-17714153D02*
X16325054Y-17752249D01*
X16325054Y-17752249D02*
X16315530Y-17771296D01*
X16315530Y-17771296D02*
X16306006Y-17780820D01*
X16306006Y-17780820D02*
X16286958Y-17790344D01*
X16286958Y-17790344D02*
X16267911Y-17790344D01*
X16267911Y-17790344D02*
X16248863Y-17780820D01*
X16248863Y-17780820D02*
X16239339Y-17771296D01*
X16239339Y-17771296D02*
X16229816Y-17752249D01*
X16229816Y-17752249D02*
X16220292Y-17714153D01*
X16220292Y-17714153D02*
X16220292Y-17666534D01*
X16220292Y-17666534D02*
X16229816Y-17628439D01*
X16229816Y-17628439D02*
X16239339Y-17609391D01*
X16239339Y-17609391D02*
X16248863Y-17599868D01*
X16248863Y-17599868D02*
X16267911Y-17590344D01*
X16458387Y-17590344D02*
X16477435Y-17590344D01*
X16477435Y-17590344D02*
X16496482Y-17599868D01*
X16496482Y-17599868D02*
X16506006Y-17609391D01*
X16506006Y-17609391D02*
X16515530Y-17628439D01*
X16515530Y-17628439D02*
X16525054Y-17666534D01*
X16525054Y-17666534D02*
X16525054Y-17714153D01*
X16525054Y-17714153D02*
X16515530Y-17752249D01*
X16515530Y-17752249D02*
X16506006Y-17771296D01*
X16506006Y-17771296D02*
X16496482Y-17780820D01*
X16496482Y-17780820D02*
X16477435Y-17790344D01*
X16477435Y-17790344D02*
X16458387Y-17790344D01*
X16458387Y-17790344D02*
X16439339Y-17780820D01*
X16439339Y-17780820D02*
X16429816Y-17771296D01*
X16429816Y-17771296D02*
X16420292Y-17752249D01*
X16420292Y-17752249D02*
X16410768Y-17714153D01*
X16410768Y-17714153D02*
X16410768Y-17666534D01*
X16410768Y-17666534D02*
X16420292Y-17628439D01*
X16420292Y-17628439D02*
X16429816Y-17609391D01*
X16429816Y-17609391D02*
X16439339Y-17599868D01*
X16439339Y-17599868D02*
X16458387Y-17590344D01*
X16601244Y-17590344D02*
X16601244Y-17628439D01*
X16677435Y-17590344D02*
X16677435Y-17628439D01*
X16972673Y-17866534D02*
X16963149Y-17857010D01*
X16963149Y-17857010D02*
X16944101Y-17828439D01*
X16944101Y-17828439D02*
X16934578Y-17809391D01*
X16934578Y-17809391D02*
X16925054Y-17780820D01*
X16925054Y-17780820D02*
X16915530Y-17733201D01*
X16915530Y-17733201D02*
X16915530Y-17695106D01*
X16915530Y-17695106D02*
X16925054Y-17647487D01*
X16925054Y-17647487D02*
X16934578Y-17618915D01*
X16934578Y-17618915D02*
X16944101Y-17599868D01*
X16944101Y-17599868D02*
X16963149Y-17571296D01*
X16963149Y-17571296D02*
X16972673Y-17561772D01*
X17029816Y-17590344D02*
X17153625Y-17590344D01*
X17153625Y-17590344D02*
X17086959Y-17666534D01*
X17086959Y-17666534D02*
X17115530Y-17666534D01*
X17115530Y-17666534D02*
X17134578Y-17676058D01*
X17134578Y-17676058D02*
X17144101Y-17685582D01*
X17144101Y-17685582D02*
X17153625Y-17704630D01*
X17153625Y-17704630D02*
X17153625Y-17752249D01*
X17153625Y-17752249D02*
X17144101Y-17771296D01*
X17144101Y-17771296D02*
X17134578Y-17780820D01*
X17134578Y-17780820D02*
X17115530Y-17790344D01*
X17115530Y-17790344D02*
X17058387Y-17790344D01*
X17058387Y-17790344D02*
X17039340Y-17780820D01*
X17039340Y-17780820D02*
X17029816Y-17771296D01*
X17391721Y-17790344D02*
X17391721Y-17590344D01*
X17477435Y-17790344D02*
X17477435Y-17685582D01*
X17477435Y-17685582D02*
X17467911Y-17666534D01*
X17467911Y-17666534D02*
X17448863Y-17657010D01*
X17448863Y-17657010D02*
X17420292Y-17657010D01*
X17420292Y-17657010D02*
X17401244Y-17666534D01*
X17401244Y-17666534D02*
X17391721Y-17676058D01*
X17601244Y-17790344D02*
X17582197Y-17780820D01*
X17582197Y-17780820D02*
X17572673Y-17771296D01*
X17572673Y-17771296D02*
X17563149Y-17752249D01*
X17563149Y-17752249D02*
X17563149Y-17695106D01*
X17563149Y-17695106D02*
X17572673Y-17676058D01*
X17572673Y-17676058D02*
X17582197Y-17666534D01*
X17582197Y-17666534D02*
X17601244Y-17657010D01*
X17601244Y-17657010D02*
X17629816Y-17657010D01*
X17629816Y-17657010D02*
X17648863Y-17666534D01*
X17648863Y-17666534D02*
X17658387Y-17676058D01*
X17658387Y-17676058D02*
X17667911Y-17695106D01*
X17667911Y-17695106D02*
X17667911Y-17752249D01*
X17667911Y-17752249D02*
X17658387Y-17771296D01*
X17658387Y-17771296D02*
X17648863Y-17780820D01*
X17648863Y-17780820D02*
X17629816Y-17790344D01*
X17629816Y-17790344D02*
X17601244Y-17790344D01*
X17782197Y-17790344D02*
X17763149Y-17780820D01*
X17763149Y-17780820D02*
X17753625Y-17761772D01*
X17753625Y-17761772D02*
X17753625Y-17590344D01*
X17934578Y-17780820D02*
X17915530Y-17790344D01*
X17915530Y-17790344D02*
X17877435Y-17790344D01*
X17877435Y-17790344D02*
X17858387Y-17780820D01*
X17858387Y-17780820D02*
X17848863Y-17761772D01*
X17848863Y-17761772D02*
X17848863Y-17685582D01*
X17848863Y-17685582D02*
X17858387Y-17666534D01*
X17858387Y-17666534D02*
X17877435Y-17657010D01*
X17877435Y-17657010D02*
X17915530Y-17657010D01*
X17915530Y-17657010D02*
X17934578Y-17666534D01*
X17934578Y-17666534D02*
X17944102Y-17685582D01*
X17944102Y-17685582D02*
X17944102Y-17704630D01*
X17944102Y-17704630D02*
X17848863Y-17723677D01*
X18020292Y-17780820D02*
X18039340Y-17790344D01*
X18039340Y-17790344D02*
X18077435Y-17790344D01*
X18077435Y-17790344D02*
X18096483Y-17780820D01*
X18096483Y-17780820D02*
X18106006Y-17761772D01*
X18106006Y-17761772D02*
X18106006Y-17752249D01*
X18106006Y-17752249D02*
X18096483Y-17733201D01*
X18096483Y-17733201D02*
X18077435Y-17723677D01*
X18077435Y-17723677D02*
X18048863Y-17723677D01*
X18048863Y-17723677D02*
X18029816Y-17714153D01*
X18029816Y-17714153D02*
X18020292Y-17695106D01*
X18020292Y-17695106D02*
X18020292Y-17685582D01*
X18020292Y-17685582D02*
X18029816Y-17666534D01*
X18029816Y-17666534D02*
X18048863Y-17657010D01*
X18048863Y-17657010D02*
X18077435Y-17657010D01*
X18077435Y-17657010D02*
X18096483Y-17666534D01*
X18172673Y-17866534D02*
X18182197Y-17857010D01*
X18182197Y-17857010D02*
X18201244Y-17828439D01*
X18201244Y-17828439D02*
X18210768Y-17809391D01*
X18210768Y-17809391D02*
X18220292Y-17780820D01*
X18220292Y-17780820D02*
X18229816Y-17733201D01*
X18229816Y-17733201D02*
X18229816Y-17695106D01*
X18229816Y-17695106D02*
X18220292Y-17647487D01*
X18220292Y-17647487D02*
X18210768Y-17618915D01*
X18210768Y-17618915D02*
X18201244Y-17599868D01*
X18201244Y-17599868D02*
X18182197Y-17571296D01*
X18182197Y-17571296D02*
X18172673Y-17561772D01*
D14*
X13277610Y-17902860D02*
X13397610Y-18022860D01*
X13397610Y-17902860D02*
X13277610Y-18022860D01*
X13397610Y-17962860D02*
G75*
G02*
X13277610Y-17962860I-60000J0D01*
G01*
X13277610Y-17962860D02*
G75*
G02*
X13397610Y-17962860I60000J0D01*
G01*
D11*
X13763149Y-18054344D02*
X13648863Y-18054344D01*
X13706006Y-18054344D02*
X13706006Y-17854344D01*
X13706006Y-17854344D02*
X13686958Y-17882915D01*
X13686958Y-17882915D02*
X13667911Y-17901963D01*
X13667911Y-17901963D02*
X13648863Y-17911487D01*
X13848863Y-18035296D02*
X13858387Y-18044820D01*
X13858387Y-18044820D02*
X13848863Y-18054344D01*
X13848863Y-18054344D02*
X13839339Y-18044820D01*
X13839339Y-18044820D02*
X13848863Y-18035296D01*
X13848863Y-18035296D02*
X13848863Y-18054344D01*
X13934577Y-17873391D02*
X13944101Y-17863868D01*
X13944101Y-17863868D02*
X13963149Y-17854344D01*
X13963149Y-17854344D02*
X14010768Y-17854344D01*
X14010768Y-17854344D02*
X14029815Y-17863868D01*
X14029815Y-17863868D02*
X14039339Y-17873391D01*
X14039339Y-17873391D02*
X14048863Y-17892439D01*
X14048863Y-17892439D02*
X14048863Y-17911487D01*
X14048863Y-17911487D02*
X14039339Y-17940058D01*
X14039339Y-17940058D02*
X13925053Y-18054344D01*
X13925053Y-18054344D02*
X14048863Y-18054344D01*
X14172672Y-17854344D02*
X14191720Y-17854344D01*
X14191720Y-17854344D02*
X14210768Y-17863868D01*
X14210768Y-17863868D02*
X14220292Y-17873391D01*
X14220292Y-17873391D02*
X14229815Y-17892439D01*
X14229815Y-17892439D02*
X14239339Y-17930534D01*
X14239339Y-17930534D02*
X14239339Y-17978153D01*
X14239339Y-17978153D02*
X14229815Y-18016249D01*
X14229815Y-18016249D02*
X14220292Y-18035296D01*
X14220292Y-18035296D02*
X14210768Y-18044820D01*
X14210768Y-18044820D02*
X14191720Y-18054344D01*
X14191720Y-18054344D02*
X14172672Y-18054344D01*
X14172672Y-18054344D02*
X14153625Y-18044820D01*
X14153625Y-18044820D02*
X14144101Y-18035296D01*
X14144101Y-18035296D02*
X14134577Y-18016249D01*
X14134577Y-18016249D02*
X14125053Y-17978153D01*
X14125053Y-17978153D02*
X14125053Y-17930534D01*
X14125053Y-17930534D02*
X14134577Y-17892439D01*
X14134577Y-17892439D02*
X14144101Y-17873391D01*
X14144101Y-17873391D02*
X14153625Y-17863868D01*
X14153625Y-17863868D02*
X14172672Y-17854344D01*
X14363149Y-17854344D02*
X14382196Y-17854344D01*
X14382196Y-17854344D02*
X14401244Y-17863868D01*
X14401244Y-17863868D02*
X14410768Y-17873391D01*
X14410768Y-17873391D02*
X14420292Y-17892439D01*
X14420292Y-17892439D02*
X14429815Y-17930534D01*
X14429815Y-17930534D02*
X14429815Y-17978153D01*
X14429815Y-17978153D02*
X14420292Y-18016249D01*
X14420292Y-18016249D02*
X14410768Y-18035296D01*
X14410768Y-18035296D02*
X14401244Y-18044820D01*
X14401244Y-18044820D02*
X14382196Y-18054344D01*
X14382196Y-18054344D02*
X14363149Y-18054344D01*
X14363149Y-18054344D02*
X14344101Y-18044820D01*
X14344101Y-18044820D02*
X14334577Y-18035296D01*
X14334577Y-18035296D02*
X14325053Y-18016249D01*
X14325053Y-18016249D02*
X14315530Y-17978153D01*
X14315530Y-17978153D02*
X14315530Y-17930534D01*
X14315530Y-17930534D02*
X14325053Y-17892439D01*
X14325053Y-17892439D02*
X14334577Y-17873391D01*
X14334577Y-17873391D02*
X14344101Y-17863868D01*
X14344101Y-17863868D02*
X14363149Y-17854344D01*
X14515530Y-18054344D02*
X14515530Y-17921010D01*
X14515530Y-17940058D02*
X14525053Y-17930534D01*
X14525053Y-17930534D02*
X14544101Y-17921010D01*
X14544101Y-17921010D02*
X14572673Y-17921010D01*
X14572673Y-17921010D02*
X14591720Y-17930534D01*
X14591720Y-17930534D02*
X14601244Y-17949582D01*
X14601244Y-17949582D02*
X14601244Y-18054344D01*
X14601244Y-17949582D02*
X14610768Y-17930534D01*
X14610768Y-17930534D02*
X14629815Y-17921010D01*
X14629815Y-17921010D02*
X14658387Y-17921010D01*
X14658387Y-17921010D02*
X14677434Y-17930534D01*
X14677434Y-17930534D02*
X14686958Y-17949582D01*
X14686958Y-17949582D02*
X14686958Y-18054344D01*
X14782196Y-18054344D02*
X14782196Y-17921010D01*
X14782196Y-17940058D02*
X14791720Y-17930534D01*
X14791720Y-17930534D02*
X14810768Y-17921010D01*
X14810768Y-17921010D02*
X14839339Y-17921010D01*
X14839339Y-17921010D02*
X14858387Y-17930534D01*
X14858387Y-17930534D02*
X14867911Y-17949582D01*
X14867911Y-17949582D02*
X14867911Y-18054344D01*
X14867911Y-17949582D02*
X14877434Y-17930534D01*
X14877434Y-17930534D02*
X14896482Y-17921010D01*
X14896482Y-17921010D02*
X14925053Y-17921010D01*
X14925053Y-17921010D02*
X14944101Y-17930534D01*
X14944101Y-17930534D02*
X14953625Y-17949582D01*
X14953625Y-17949582D02*
X14953625Y-18054344D01*
X15344101Y-17844820D02*
X15172673Y-18101963D01*
X15601244Y-17854344D02*
X15620292Y-17854344D01*
X15620292Y-17854344D02*
X15639339Y-17863868D01*
X15639339Y-17863868D02*
X15648863Y-17873391D01*
X15648863Y-17873391D02*
X15658387Y-17892439D01*
X15658387Y-17892439D02*
X15667911Y-17930534D01*
X15667911Y-17930534D02*
X15667911Y-17978153D01*
X15667911Y-17978153D02*
X15658387Y-18016249D01*
X15658387Y-18016249D02*
X15648863Y-18035296D01*
X15648863Y-18035296D02*
X15639339Y-18044820D01*
X15639339Y-18044820D02*
X15620292Y-18054344D01*
X15620292Y-18054344D02*
X15601244Y-18054344D01*
X15601244Y-18054344D02*
X15582196Y-18044820D01*
X15582196Y-18044820D02*
X15572673Y-18035296D01*
X15572673Y-18035296D02*
X15563149Y-18016249D01*
X15563149Y-18016249D02*
X15553625Y-17978153D01*
X15553625Y-17978153D02*
X15553625Y-17930534D01*
X15553625Y-17930534D02*
X15563149Y-17892439D01*
X15563149Y-17892439D02*
X15572673Y-17873391D01*
X15572673Y-17873391D02*
X15582196Y-17863868D01*
X15582196Y-17863868D02*
X15601244Y-17854344D01*
X15753625Y-18035296D02*
X15763149Y-18044820D01*
X15763149Y-18044820D02*
X15753625Y-18054344D01*
X15753625Y-18054344D02*
X15744101Y-18044820D01*
X15744101Y-18044820D02*
X15753625Y-18035296D01*
X15753625Y-18035296D02*
X15753625Y-18054344D01*
X15886958Y-17854344D02*
X15906006Y-17854344D01*
X15906006Y-17854344D02*
X15925054Y-17863868D01*
X15925054Y-17863868D02*
X15934577Y-17873391D01*
X15934577Y-17873391D02*
X15944101Y-17892439D01*
X15944101Y-17892439D02*
X15953625Y-17930534D01*
X15953625Y-17930534D02*
X15953625Y-17978153D01*
X15953625Y-17978153D02*
X15944101Y-18016249D01*
X15944101Y-18016249D02*
X15934577Y-18035296D01*
X15934577Y-18035296D02*
X15925054Y-18044820D01*
X15925054Y-18044820D02*
X15906006Y-18054344D01*
X15906006Y-18054344D02*
X15886958Y-18054344D01*
X15886958Y-18054344D02*
X15867911Y-18044820D01*
X15867911Y-18044820D02*
X15858387Y-18035296D01*
X15858387Y-18035296D02*
X15848863Y-18016249D01*
X15848863Y-18016249D02*
X15839339Y-17978153D01*
X15839339Y-17978153D02*
X15839339Y-17930534D01*
X15839339Y-17930534D02*
X15848863Y-17892439D01*
X15848863Y-17892439D02*
X15858387Y-17873391D01*
X15858387Y-17873391D02*
X15867911Y-17863868D01*
X15867911Y-17863868D02*
X15886958Y-17854344D01*
X16125054Y-17921010D02*
X16125054Y-18054344D01*
X16077435Y-17844820D02*
X16029816Y-17987677D01*
X16029816Y-17987677D02*
X16153625Y-17987677D01*
X16210768Y-17854344D02*
X16344101Y-17854344D01*
X16344101Y-17854344D02*
X16258387Y-18054344D01*
X16410768Y-17873391D02*
X16420292Y-17863868D01*
X16420292Y-17863868D02*
X16439339Y-17854344D01*
X16439339Y-17854344D02*
X16486958Y-17854344D01*
X16486958Y-17854344D02*
X16506006Y-17863868D01*
X16506006Y-17863868D02*
X16515530Y-17873391D01*
X16515530Y-17873391D02*
X16525054Y-17892439D01*
X16525054Y-17892439D02*
X16525054Y-17911487D01*
X16525054Y-17911487D02*
X16515530Y-17940058D01*
X16515530Y-17940058D02*
X16401244Y-18054344D01*
X16401244Y-18054344D02*
X16525054Y-18054344D01*
X16601244Y-17854344D02*
X16601244Y-17892439D01*
X16677435Y-17854344D02*
X16677435Y-17892439D01*
X16972673Y-18130534D02*
X16963149Y-18121010D01*
X16963149Y-18121010D02*
X16944101Y-18092439D01*
X16944101Y-18092439D02*
X16934578Y-18073391D01*
X16934578Y-18073391D02*
X16925054Y-18044820D01*
X16925054Y-18044820D02*
X16915530Y-17997201D01*
X16915530Y-17997201D02*
X16915530Y-17959106D01*
X16915530Y-17959106D02*
X16925054Y-17911487D01*
X16925054Y-17911487D02*
X16934578Y-17882915D01*
X16934578Y-17882915D02*
X16944101Y-17863868D01*
X16944101Y-17863868D02*
X16963149Y-17835296D01*
X16963149Y-17835296D02*
X16972673Y-17825772D01*
X17134578Y-17921010D02*
X17134578Y-18054344D01*
X17086959Y-17844820D02*
X17039340Y-17987677D01*
X17039340Y-17987677D02*
X17163149Y-17987677D01*
X17391721Y-18054344D02*
X17391721Y-17854344D01*
X17477435Y-18054344D02*
X17477435Y-17949582D01*
X17477435Y-17949582D02*
X17467911Y-17930534D01*
X17467911Y-17930534D02*
X17448863Y-17921010D01*
X17448863Y-17921010D02*
X17420292Y-17921010D01*
X17420292Y-17921010D02*
X17401244Y-17930534D01*
X17401244Y-17930534D02*
X17391721Y-17940058D01*
X17601244Y-18054344D02*
X17582197Y-18044820D01*
X17582197Y-18044820D02*
X17572673Y-18035296D01*
X17572673Y-18035296D02*
X17563149Y-18016249D01*
X17563149Y-18016249D02*
X17563149Y-17959106D01*
X17563149Y-17959106D02*
X17572673Y-17940058D01*
X17572673Y-17940058D02*
X17582197Y-17930534D01*
X17582197Y-17930534D02*
X17601244Y-17921010D01*
X17601244Y-17921010D02*
X17629816Y-17921010D01*
X17629816Y-17921010D02*
X17648863Y-17930534D01*
X17648863Y-17930534D02*
X17658387Y-17940058D01*
X17658387Y-17940058D02*
X17667911Y-17959106D01*
X17667911Y-17959106D02*
X17667911Y-18016249D01*
X17667911Y-18016249D02*
X17658387Y-18035296D01*
X17658387Y-18035296D02*
X17648863Y-18044820D01*
X17648863Y-18044820D02*
X17629816Y-18054344D01*
X17629816Y-18054344D02*
X17601244Y-18054344D01*
X17782197Y-18054344D02*
X17763149Y-18044820D01*
X17763149Y-18044820D02*
X17753625Y-18025772D01*
X17753625Y-18025772D02*
X17753625Y-17854344D01*
X17934578Y-18044820D02*
X17915530Y-18054344D01*
X17915530Y-18054344D02*
X17877435Y-18054344D01*
X17877435Y-18054344D02*
X17858387Y-18044820D01*
X17858387Y-18044820D02*
X17848863Y-18025772D01*
X17848863Y-18025772D02*
X17848863Y-17949582D01*
X17848863Y-17949582D02*
X17858387Y-17930534D01*
X17858387Y-17930534D02*
X17877435Y-17921010D01*
X17877435Y-17921010D02*
X17915530Y-17921010D01*
X17915530Y-17921010D02*
X17934578Y-17930534D01*
X17934578Y-17930534D02*
X17944102Y-17949582D01*
X17944102Y-17949582D02*
X17944102Y-17968630D01*
X17944102Y-17968630D02*
X17848863Y-17987677D01*
X18020292Y-18044820D02*
X18039340Y-18054344D01*
X18039340Y-18054344D02*
X18077435Y-18054344D01*
X18077435Y-18054344D02*
X18096483Y-18044820D01*
X18096483Y-18044820D02*
X18106006Y-18025772D01*
X18106006Y-18025772D02*
X18106006Y-18016249D01*
X18106006Y-18016249D02*
X18096483Y-17997201D01*
X18096483Y-17997201D02*
X18077435Y-17987677D01*
X18077435Y-17987677D02*
X18048863Y-17987677D01*
X18048863Y-17987677D02*
X18029816Y-17978153D01*
X18029816Y-17978153D02*
X18020292Y-17959106D01*
X18020292Y-17959106D02*
X18020292Y-17949582D01*
X18020292Y-17949582D02*
X18029816Y-17930534D01*
X18029816Y-17930534D02*
X18048863Y-17921010D01*
X18048863Y-17921010D02*
X18077435Y-17921010D01*
X18077435Y-17921010D02*
X18096483Y-17930534D01*
X18172673Y-18130534D02*
X18182197Y-18121010D01*
X18182197Y-18121010D02*
X18201244Y-18092439D01*
X18201244Y-18092439D02*
X18210768Y-18073391D01*
X18210768Y-18073391D02*
X18220292Y-18044820D01*
X18220292Y-18044820D02*
X18229816Y-17997201D01*
X18229816Y-17997201D02*
X18229816Y-17959106D01*
X18229816Y-17959106D02*
X18220292Y-17911487D01*
X18220292Y-17911487D02*
X18210768Y-17882915D01*
X18210768Y-17882915D02*
X18201244Y-17863868D01*
X18201244Y-17863868D02*
X18182197Y-17835296D01*
X18182197Y-17835296D02*
X18172673Y-17825772D01*
D15*
X13267610Y-18161860D02*
X13397610Y-18291860D01*
X13397610Y-18161860D02*
X13267610Y-18291860D01*
X13332610Y-18161860D02*
X13332610Y-18291860D01*
X13267610Y-18226860D02*
X13397610Y-18226860D01*
D11*
X13763149Y-18318344D02*
X13648863Y-18318344D01*
X13706006Y-18318344D02*
X13706006Y-18118344D01*
X13706006Y-18118344D02*
X13686958Y-18146915D01*
X13686958Y-18146915D02*
X13667911Y-18165963D01*
X13667911Y-18165963D02*
X13648863Y-18175487D01*
X13848863Y-18299296D02*
X13858387Y-18308820D01*
X13858387Y-18308820D02*
X13848863Y-18318344D01*
X13848863Y-18318344D02*
X13839339Y-18308820D01*
X13839339Y-18308820D02*
X13848863Y-18299296D01*
X13848863Y-18299296D02*
X13848863Y-18318344D01*
X13925053Y-18118344D02*
X14048863Y-18118344D01*
X14048863Y-18118344D02*
X13982196Y-18194534D01*
X13982196Y-18194534D02*
X14010768Y-18194534D01*
X14010768Y-18194534D02*
X14029815Y-18204058D01*
X14029815Y-18204058D02*
X14039339Y-18213582D01*
X14039339Y-18213582D02*
X14048863Y-18232630D01*
X14048863Y-18232630D02*
X14048863Y-18280249D01*
X14048863Y-18280249D02*
X14039339Y-18299296D01*
X14039339Y-18299296D02*
X14029815Y-18308820D01*
X14029815Y-18308820D02*
X14010768Y-18318344D01*
X14010768Y-18318344D02*
X13953625Y-18318344D01*
X13953625Y-18318344D02*
X13934577Y-18308820D01*
X13934577Y-18308820D02*
X13925053Y-18299296D01*
X14172672Y-18118344D02*
X14191720Y-18118344D01*
X14191720Y-18118344D02*
X14210768Y-18127868D01*
X14210768Y-18127868D02*
X14220292Y-18137391D01*
X14220292Y-18137391D02*
X14229815Y-18156439D01*
X14229815Y-18156439D02*
X14239339Y-18194534D01*
X14239339Y-18194534D02*
X14239339Y-18242153D01*
X14239339Y-18242153D02*
X14229815Y-18280249D01*
X14229815Y-18280249D02*
X14220292Y-18299296D01*
X14220292Y-18299296D02*
X14210768Y-18308820D01*
X14210768Y-18308820D02*
X14191720Y-18318344D01*
X14191720Y-18318344D02*
X14172672Y-18318344D01*
X14172672Y-18318344D02*
X14153625Y-18308820D01*
X14153625Y-18308820D02*
X14144101Y-18299296D01*
X14144101Y-18299296D02*
X14134577Y-18280249D01*
X14134577Y-18280249D02*
X14125053Y-18242153D01*
X14125053Y-18242153D02*
X14125053Y-18194534D01*
X14125053Y-18194534D02*
X14134577Y-18156439D01*
X14134577Y-18156439D02*
X14144101Y-18137391D01*
X14144101Y-18137391D02*
X14153625Y-18127868D01*
X14153625Y-18127868D02*
X14172672Y-18118344D01*
X14363149Y-18118344D02*
X14382196Y-18118344D01*
X14382196Y-18118344D02*
X14401244Y-18127868D01*
X14401244Y-18127868D02*
X14410768Y-18137391D01*
X14410768Y-18137391D02*
X14420292Y-18156439D01*
X14420292Y-18156439D02*
X14429815Y-18194534D01*
X14429815Y-18194534D02*
X14429815Y-18242153D01*
X14429815Y-18242153D02*
X14420292Y-18280249D01*
X14420292Y-18280249D02*
X14410768Y-18299296D01*
X14410768Y-18299296D02*
X14401244Y-18308820D01*
X14401244Y-18308820D02*
X14382196Y-18318344D01*
X14382196Y-18318344D02*
X14363149Y-18318344D01*
X14363149Y-18318344D02*
X14344101Y-18308820D01*
X14344101Y-18308820D02*
X14334577Y-18299296D01*
X14334577Y-18299296D02*
X14325053Y-18280249D01*
X14325053Y-18280249D02*
X14315530Y-18242153D01*
X14315530Y-18242153D02*
X14315530Y-18194534D01*
X14315530Y-18194534D02*
X14325053Y-18156439D01*
X14325053Y-18156439D02*
X14334577Y-18137391D01*
X14334577Y-18137391D02*
X14344101Y-18127868D01*
X14344101Y-18127868D02*
X14363149Y-18118344D01*
X14515530Y-18318344D02*
X14515530Y-18185010D01*
X14515530Y-18204058D02*
X14525053Y-18194534D01*
X14525053Y-18194534D02*
X14544101Y-18185010D01*
X14544101Y-18185010D02*
X14572673Y-18185010D01*
X14572673Y-18185010D02*
X14591720Y-18194534D01*
X14591720Y-18194534D02*
X14601244Y-18213582D01*
X14601244Y-18213582D02*
X14601244Y-18318344D01*
X14601244Y-18213582D02*
X14610768Y-18194534D01*
X14610768Y-18194534D02*
X14629815Y-18185010D01*
X14629815Y-18185010D02*
X14658387Y-18185010D01*
X14658387Y-18185010D02*
X14677434Y-18194534D01*
X14677434Y-18194534D02*
X14686958Y-18213582D01*
X14686958Y-18213582D02*
X14686958Y-18318344D01*
X14782196Y-18318344D02*
X14782196Y-18185010D01*
X14782196Y-18204058D02*
X14791720Y-18194534D01*
X14791720Y-18194534D02*
X14810768Y-18185010D01*
X14810768Y-18185010D02*
X14839339Y-18185010D01*
X14839339Y-18185010D02*
X14858387Y-18194534D01*
X14858387Y-18194534D02*
X14867911Y-18213582D01*
X14867911Y-18213582D02*
X14867911Y-18318344D01*
X14867911Y-18213582D02*
X14877434Y-18194534D01*
X14877434Y-18194534D02*
X14896482Y-18185010D01*
X14896482Y-18185010D02*
X14925053Y-18185010D01*
X14925053Y-18185010D02*
X14944101Y-18194534D01*
X14944101Y-18194534D02*
X14953625Y-18213582D01*
X14953625Y-18213582D02*
X14953625Y-18318344D01*
X15344101Y-18108820D02*
X15172673Y-18365963D01*
X15601244Y-18118344D02*
X15620292Y-18118344D01*
X15620292Y-18118344D02*
X15639339Y-18127868D01*
X15639339Y-18127868D02*
X15648863Y-18137391D01*
X15648863Y-18137391D02*
X15658387Y-18156439D01*
X15658387Y-18156439D02*
X15667911Y-18194534D01*
X15667911Y-18194534D02*
X15667911Y-18242153D01*
X15667911Y-18242153D02*
X15658387Y-18280249D01*
X15658387Y-18280249D02*
X15648863Y-18299296D01*
X15648863Y-18299296D02*
X15639339Y-18308820D01*
X15639339Y-18308820D02*
X15620292Y-18318344D01*
X15620292Y-18318344D02*
X15601244Y-18318344D01*
X15601244Y-18318344D02*
X15582196Y-18308820D01*
X15582196Y-18308820D02*
X15572673Y-18299296D01*
X15572673Y-18299296D02*
X15563149Y-18280249D01*
X15563149Y-18280249D02*
X15553625Y-18242153D01*
X15553625Y-18242153D02*
X15553625Y-18194534D01*
X15553625Y-18194534D02*
X15563149Y-18156439D01*
X15563149Y-18156439D02*
X15572673Y-18137391D01*
X15572673Y-18137391D02*
X15582196Y-18127868D01*
X15582196Y-18127868D02*
X15601244Y-18118344D01*
X15753625Y-18299296D02*
X15763149Y-18308820D01*
X15763149Y-18308820D02*
X15753625Y-18318344D01*
X15753625Y-18318344D02*
X15744101Y-18308820D01*
X15744101Y-18308820D02*
X15753625Y-18299296D01*
X15753625Y-18299296D02*
X15753625Y-18318344D01*
X15886958Y-18118344D02*
X15906006Y-18118344D01*
X15906006Y-18118344D02*
X15925054Y-18127868D01*
X15925054Y-18127868D02*
X15934577Y-18137391D01*
X15934577Y-18137391D02*
X15944101Y-18156439D01*
X15944101Y-18156439D02*
X15953625Y-18194534D01*
X15953625Y-18194534D02*
X15953625Y-18242153D01*
X15953625Y-18242153D02*
X15944101Y-18280249D01*
X15944101Y-18280249D02*
X15934577Y-18299296D01*
X15934577Y-18299296D02*
X15925054Y-18308820D01*
X15925054Y-18308820D02*
X15906006Y-18318344D01*
X15906006Y-18318344D02*
X15886958Y-18318344D01*
X15886958Y-18318344D02*
X15867911Y-18308820D01*
X15867911Y-18308820D02*
X15858387Y-18299296D01*
X15858387Y-18299296D02*
X15848863Y-18280249D01*
X15848863Y-18280249D02*
X15839339Y-18242153D01*
X15839339Y-18242153D02*
X15839339Y-18194534D01*
X15839339Y-18194534D02*
X15848863Y-18156439D01*
X15848863Y-18156439D02*
X15858387Y-18137391D01*
X15858387Y-18137391D02*
X15867911Y-18127868D01*
X15867911Y-18127868D02*
X15886958Y-18118344D01*
X16134577Y-18118344D02*
X16039339Y-18118344D01*
X16039339Y-18118344D02*
X16029816Y-18213582D01*
X16029816Y-18213582D02*
X16039339Y-18204058D01*
X16039339Y-18204058D02*
X16058387Y-18194534D01*
X16058387Y-18194534D02*
X16106006Y-18194534D01*
X16106006Y-18194534D02*
X16125054Y-18204058D01*
X16125054Y-18204058D02*
X16134577Y-18213582D01*
X16134577Y-18213582D02*
X16144101Y-18232630D01*
X16144101Y-18232630D02*
X16144101Y-18280249D01*
X16144101Y-18280249D02*
X16134577Y-18299296D01*
X16134577Y-18299296D02*
X16125054Y-18308820D01*
X16125054Y-18308820D02*
X16106006Y-18318344D01*
X16106006Y-18318344D02*
X16058387Y-18318344D01*
X16058387Y-18318344D02*
X16039339Y-18308820D01*
X16039339Y-18308820D02*
X16029816Y-18299296D01*
X16334577Y-18318344D02*
X16220292Y-18318344D01*
X16277435Y-18318344D02*
X16277435Y-18118344D01*
X16277435Y-18118344D02*
X16258387Y-18146915D01*
X16258387Y-18146915D02*
X16239339Y-18165963D01*
X16239339Y-18165963D02*
X16220292Y-18175487D01*
X16410768Y-18137391D02*
X16420292Y-18127868D01*
X16420292Y-18127868D02*
X16439339Y-18118344D01*
X16439339Y-18118344D02*
X16486958Y-18118344D01*
X16486958Y-18118344D02*
X16506006Y-18127868D01*
X16506006Y-18127868D02*
X16515530Y-18137391D01*
X16515530Y-18137391D02*
X16525054Y-18156439D01*
X16525054Y-18156439D02*
X16525054Y-18175487D01*
X16525054Y-18175487D02*
X16515530Y-18204058D01*
X16515530Y-18204058D02*
X16401244Y-18318344D01*
X16401244Y-18318344D02*
X16525054Y-18318344D01*
X16601244Y-18118344D02*
X16601244Y-18156439D01*
X16677435Y-18118344D02*
X16677435Y-18156439D01*
X16972673Y-18394534D02*
X16963149Y-18385010D01*
X16963149Y-18385010D02*
X16944101Y-18356439D01*
X16944101Y-18356439D02*
X16934578Y-18337391D01*
X16934578Y-18337391D02*
X16925054Y-18308820D01*
X16925054Y-18308820D02*
X16915530Y-18261201D01*
X16915530Y-18261201D02*
X16915530Y-18223106D01*
X16915530Y-18223106D02*
X16925054Y-18175487D01*
X16925054Y-18175487D02*
X16934578Y-18146915D01*
X16934578Y-18146915D02*
X16944101Y-18127868D01*
X16944101Y-18127868D02*
X16963149Y-18099296D01*
X16963149Y-18099296D02*
X16972673Y-18089772D01*
X17134578Y-18118344D02*
X17096482Y-18118344D01*
X17096482Y-18118344D02*
X17077435Y-18127868D01*
X17077435Y-18127868D02*
X17067911Y-18137391D01*
X17067911Y-18137391D02*
X17048863Y-18165963D01*
X17048863Y-18165963D02*
X17039340Y-18204058D01*
X17039340Y-18204058D02*
X17039340Y-18280249D01*
X17039340Y-18280249D02*
X17048863Y-18299296D01*
X17048863Y-18299296D02*
X17058387Y-18308820D01*
X17058387Y-18308820D02*
X17077435Y-18318344D01*
X17077435Y-18318344D02*
X17115530Y-18318344D01*
X17115530Y-18318344D02*
X17134578Y-18308820D01*
X17134578Y-18308820D02*
X17144101Y-18299296D01*
X17144101Y-18299296D02*
X17153625Y-18280249D01*
X17153625Y-18280249D02*
X17153625Y-18232630D01*
X17153625Y-18232630D02*
X17144101Y-18213582D01*
X17144101Y-18213582D02*
X17134578Y-18204058D01*
X17134578Y-18204058D02*
X17115530Y-18194534D01*
X17115530Y-18194534D02*
X17077435Y-18194534D01*
X17077435Y-18194534D02*
X17058387Y-18204058D01*
X17058387Y-18204058D02*
X17048863Y-18213582D01*
X17048863Y-18213582D02*
X17039340Y-18232630D01*
X17391721Y-18318344D02*
X17391721Y-18118344D01*
X17477435Y-18318344D02*
X17477435Y-18213582D01*
X17477435Y-18213582D02*
X17467911Y-18194534D01*
X17467911Y-18194534D02*
X17448863Y-18185010D01*
X17448863Y-18185010D02*
X17420292Y-18185010D01*
X17420292Y-18185010D02*
X17401244Y-18194534D01*
X17401244Y-18194534D02*
X17391721Y-18204058D01*
X17601244Y-18318344D02*
X17582197Y-18308820D01*
X17582197Y-18308820D02*
X17572673Y-18299296D01*
X17572673Y-18299296D02*
X17563149Y-18280249D01*
X17563149Y-18280249D02*
X17563149Y-18223106D01*
X17563149Y-18223106D02*
X17572673Y-18204058D01*
X17572673Y-18204058D02*
X17582197Y-18194534D01*
X17582197Y-18194534D02*
X17601244Y-18185010D01*
X17601244Y-18185010D02*
X17629816Y-18185010D01*
X17629816Y-18185010D02*
X17648863Y-18194534D01*
X17648863Y-18194534D02*
X17658387Y-18204058D01*
X17658387Y-18204058D02*
X17667911Y-18223106D01*
X17667911Y-18223106D02*
X17667911Y-18280249D01*
X17667911Y-18280249D02*
X17658387Y-18299296D01*
X17658387Y-18299296D02*
X17648863Y-18308820D01*
X17648863Y-18308820D02*
X17629816Y-18318344D01*
X17629816Y-18318344D02*
X17601244Y-18318344D01*
X17782197Y-18318344D02*
X17763149Y-18308820D01*
X17763149Y-18308820D02*
X17753625Y-18289772D01*
X17753625Y-18289772D02*
X17753625Y-18118344D01*
X17934578Y-18308820D02*
X17915530Y-18318344D01*
X17915530Y-18318344D02*
X17877435Y-18318344D01*
X17877435Y-18318344D02*
X17858387Y-18308820D01*
X17858387Y-18308820D02*
X17848863Y-18289772D01*
X17848863Y-18289772D02*
X17848863Y-18213582D01*
X17848863Y-18213582D02*
X17858387Y-18194534D01*
X17858387Y-18194534D02*
X17877435Y-18185010D01*
X17877435Y-18185010D02*
X17915530Y-18185010D01*
X17915530Y-18185010D02*
X17934578Y-18194534D01*
X17934578Y-18194534D02*
X17944102Y-18213582D01*
X17944102Y-18213582D02*
X17944102Y-18232630D01*
X17944102Y-18232630D02*
X17848863Y-18251677D01*
X18020292Y-18308820D02*
X18039340Y-18318344D01*
X18039340Y-18318344D02*
X18077435Y-18318344D01*
X18077435Y-18318344D02*
X18096483Y-18308820D01*
X18096483Y-18308820D02*
X18106006Y-18289772D01*
X18106006Y-18289772D02*
X18106006Y-18280249D01*
X18106006Y-18280249D02*
X18096483Y-18261201D01*
X18096483Y-18261201D02*
X18077435Y-18251677D01*
X18077435Y-18251677D02*
X18048863Y-18251677D01*
X18048863Y-18251677D02*
X18029816Y-18242153D01*
X18029816Y-18242153D02*
X18020292Y-18223106D01*
X18020292Y-18223106D02*
X18020292Y-18213582D01*
X18020292Y-18213582D02*
X18029816Y-18194534D01*
X18029816Y-18194534D02*
X18048863Y-18185010D01*
X18048863Y-18185010D02*
X18077435Y-18185010D01*
X18077435Y-18185010D02*
X18096483Y-18194534D01*
X18172673Y-18394534D02*
X18182197Y-18385010D01*
X18182197Y-18385010D02*
X18201244Y-18356439D01*
X18201244Y-18356439D02*
X18210768Y-18337391D01*
X18210768Y-18337391D02*
X18220292Y-18308820D01*
X18220292Y-18308820D02*
X18229816Y-18261201D01*
X18229816Y-18261201D02*
X18229816Y-18223106D01*
X18229816Y-18223106D02*
X18220292Y-18175487D01*
X18220292Y-18175487D02*
X18210768Y-18146915D01*
X18210768Y-18146915D02*
X18201244Y-18127868D01*
X18201244Y-18127868D02*
X18182197Y-18099296D01*
X18182197Y-18099296D02*
X18172673Y-18089772D01*
D16*
X13237610Y-18410860D02*
X13397610Y-18570860D01*
X13397610Y-18410860D02*
X13237610Y-18570860D01*
X13374179Y-18547429D02*
X13374179Y-18434291D01*
X13261041Y-18434291D01*
X13261041Y-18547429D01*
X13374179Y-18547429D01*
D11*
X13763149Y-18582344D02*
X13648863Y-18582344D01*
X13706006Y-18582344D02*
X13706006Y-18382344D01*
X13706006Y-18382344D02*
X13686958Y-18410915D01*
X13686958Y-18410915D02*
X13667911Y-18429963D01*
X13667911Y-18429963D02*
X13648863Y-18439487D01*
X13848863Y-18563296D02*
X13858387Y-18572820D01*
X13858387Y-18572820D02*
X13848863Y-18582344D01*
X13848863Y-18582344D02*
X13839339Y-18572820D01*
X13839339Y-18572820D02*
X13848863Y-18563296D01*
X13848863Y-18563296D02*
X13848863Y-18582344D01*
X14029815Y-18382344D02*
X13991720Y-18382344D01*
X13991720Y-18382344D02*
X13972672Y-18391868D01*
X13972672Y-18391868D02*
X13963149Y-18401391D01*
X13963149Y-18401391D02*
X13944101Y-18429963D01*
X13944101Y-18429963D02*
X13934577Y-18468058D01*
X13934577Y-18468058D02*
X13934577Y-18544249D01*
X13934577Y-18544249D02*
X13944101Y-18563296D01*
X13944101Y-18563296D02*
X13953625Y-18572820D01*
X13953625Y-18572820D02*
X13972672Y-18582344D01*
X13972672Y-18582344D02*
X14010768Y-18582344D01*
X14010768Y-18582344D02*
X14029815Y-18572820D01*
X14029815Y-18572820D02*
X14039339Y-18563296D01*
X14039339Y-18563296D02*
X14048863Y-18544249D01*
X14048863Y-18544249D02*
X14048863Y-18496630D01*
X14048863Y-18496630D02*
X14039339Y-18477582D01*
X14039339Y-18477582D02*
X14029815Y-18468058D01*
X14029815Y-18468058D02*
X14010768Y-18458534D01*
X14010768Y-18458534D02*
X13972672Y-18458534D01*
X13972672Y-18458534D02*
X13953625Y-18468058D01*
X13953625Y-18468058D02*
X13944101Y-18477582D01*
X13944101Y-18477582D02*
X13934577Y-18496630D01*
X14172672Y-18382344D02*
X14191720Y-18382344D01*
X14191720Y-18382344D02*
X14210768Y-18391868D01*
X14210768Y-18391868D02*
X14220292Y-18401391D01*
X14220292Y-18401391D02*
X14229815Y-18420439D01*
X14229815Y-18420439D02*
X14239339Y-18458534D01*
X14239339Y-18458534D02*
X14239339Y-18506153D01*
X14239339Y-18506153D02*
X14229815Y-18544249D01*
X14229815Y-18544249D02*
X14220292Y-18563296D01*
X14220292Y-18563296D02*
X14210768Y-18572820D01*
X14210768Y-18572820D02*
X14191720Y-18582344D01*
X14191720Y-18582344D02*
X14172672Y-18582344D01*
X14172672Y-18582344D02*
X14153625Y-18572820D01*
X14153625Y-18572820D02*
X14144101Y-18563296D01*
X14144101Y-18563296D02*
X14134577Y-18544249D01*
X14134577Y-18544249D02*
X14125053Y-18506153D01*
X14125053Y-18506153D02*
X14125053Y-18458534D01*
X14125053Y-18458534D02*
X14134577Y-18420439D01*
X14134577Y-18420439D02*
X14144101Y-18401391D01*
X14144101Y-18401391D02*
X14153625Y-18391868D01*
X14153625Y-18391868D02*
X14172672Y-18382344D01*
X14363149Y-18382344D02*
X14382196Y-18382344D01*
X14382196Y-18382344D02*
X14401244Y-18391868D01*
X14401244Y-18391868D02*
X14410768Y-18401391D01*
X14410768Y-18401391D02*
X14420292Y-18420439D01*
X14420292Y-18420439D02*
X14429815Y-18458534D01*
X14429815Y-18458534D02*
X14429815Y-18506153D01*
X14429815Y-18506153D02*
X14420292Y-18544249D01*
X14420292Y-18544249D02*
X14410768Y-18563296D01*
X14410768Y-18563296D02*
X14401244Y-18572820D01*
X14401244Y-18572820D02*
X14382196Y-18582344D01*
X14382196Y-18582344D02*
X14363149Y-18582344D01*
X14363149Y-18582344D02*
X14344101Y-18572820D01*
X14344101Y-18572820D02*
X14334577Y-18563296D01*
X14334577Y-18563296D02*
X14325053Y-18544249D01*
X14325053Y-18544249D02*
X14315530Y-18506153D01*
X14315530Y-18506153D02*
X14315530Y-18458534D01*
X14315530Y-18458534D02*
X14325053Y-18420439D01*
X14325053Y-18420439D02*
X14334577Y-18401391D01*
X14334577Y-18401391D02*
X14344101Y-18391868D01*
X14344101Y-18391868D02*
X14363149Y-18382344D01*
X14515530Y-18582344D02*
X14515530Y-18449010D01*
X14515530Y-18468058D02*
X14525053Y-18458534D01*
X14525053Y-18458534D02*
X14544101Y-18449010D01*
X14544101Y-18449010D02*
X14572673Y-18449010D01*
X14572673Y-18449010D02*
X14591720Y-18458534D01*
X14591720Y-18458534D02*
X14601244Y-18477582D01*
X14601244Y-18477582D02*
X14601244Y-18582344D01*
X14601244Y-18477582D02*
X14610768Y-18458534D01*
X14610768Y-18458534D02*
X14629815Y-18449010D01*
X14629815Y-18449010D02*
X14658387Y-18449010D01*
X14658387Y-18449010D02*
X14677434Y-18458534D01*
X14677434Y-18458534D02*
X14686958Y-18477582D01*
X14686958Y-18477582D02*
X14686958Y-18582344D01*
X14782196Y-18582344D02*
X14782196Y-18449010D01*
X14782196Y-18468058D02*
X14791720Y-18458534D01*
X14791720Y-18458534D02*
X14810768Y-18449010D01*
X14810768Y-18449010D02*
X14839339Y-18449010D01*
X14839339Y-18449010D02*
X14858387Y-18458534D01*
X14858387Y-18458534D02*
X14867911Y-18477582D01*
X14867911Y-18477582D02*
X14867911Y-18582344D01*
X14867911Y-18477582D02*
X14877434Y-18458534D01*
X14877434Y-18458534D02*
X14896482Y-18449010D01*
X14896482Y-18449010D02*
X14925053Y-18449010D01*
X14925053Y-18449010D02*
X14944101Y-18458534D01*
X14944101Y-18458534D02*
X14953625Y-18477582D01*
X14953625Y-18477582D02*
X14953625Y-18582344D01*
X15344101Y-18372820D02*
X15172673Y-18629963D01*
X15601244Y-18382344D02*
X15620292Y-18382344D01*
X15620292Y-18382344D02*
X15639339Y-18391868D01*
X15639339Y-18391868D02*
X15648863Y-18401391D01*
X15648863Y-18401391D02*
X15658387Y-18420439D01*
X15658387Y-18420439D02*
X15667911Y-18458534D01*
X15667911Y-18458534D02*
X15667911Y-18506153D01*
X15667911Y-18506153D02*
X15658387Y-18544249D01*
X15658387Y-18544249D02*
X15648863Y-18563296D01*
X15648863Y-18563296D02*
X15639339Y-18572820D01*
X15639339Y-18572820D02*
X15620292Y-18582344D01*
X15620292Y-18582344D02*
X15601244Y-18582344D01*
X15601244Y-18582344D02*
X15582196Y-18572820D01*
X15582196Y-18572820D02*
X15572673Y-18563296D01*
X15572673Y-18563296D02*
X15563149Y-18544249D01*
X15563149Y-18544249D02*
X15553625Y-18506153D01*
X15553625Y-18506153D02*
X15553625Y-18458534D01*
X15553625Y-18458534D02*
X15563149Y-18420439D01*
X15563149Y-18420439D02*
X15572673Y-18401391D01*
X15572673Y-18401391D02*
X15582196Y-18391868D01*
X15582196Y-18391868D02*
X15601244Y-18382344D01*
X15753625Y-18563296D02*
X15763149Y-18572820D01*
X15763149Y-18572820D02*
X15753625Y-18582344D01*
X15753625Y-18582344D02*
X15744101Y-18572820D01*
X15744101Y-18572820D02*
X15753625Y-18563296D01*
X15753625Y-18563296D02*
X15753625Y-18582344D01*
X15886958Y-18382344D02*
X15906006Y-18382344D01*
X15906006Y-18382344D02*
X15925054Y-18391868D01*
X15925054Y-18391868D02*
X15934577Y-18401391D01*
X15934577Y-18401391D02*
X15944101Y-18420439D01*
X15944101Y-18420439D02*
X15953625Y-18458534D01*
X15953625Y-18458534D02*
X15953625Y-18506153D01*
X15953625Y-18506153D02*
X15944101Y-18544249D01*
X15944101Y-18544249D02*
X15934577Y-18563296D01*
X15934577Y-18563296D02*
X15925054Y-18572820D01*
X15925054Y-18572820D02*
X15906006Y-18582344D01*
X15906006Y-18582344D02*
X15886958Y-18582344D01*
X15886958Y-18582344D02*
X15867911Y-18572820D01*
X15867911Y-18572820D02*
X15858387Y-18563296D01*
X15858387Y-18563296D02*
X15848863Y-18544249D01*
X15848863Y-18544249D02*
X15839339Y-18506153D01*
X15839339Y-18506153D02*
X15839339Y-18458534D01*
X15839339Y-18458534D02*
X15848863Y-18420439D01*
X15848863Y-18420439D02*
X15858387Y-18401391D01*
X15858387Y-18401391D02*
X15867911Y-18391868D01*
X15867911Y-18391868D02*
X15886958Y-18382344D01*
X16125054Y-18382344D02*
X16086958Y-18382344D01*
X16086958Y-18382344D02*
X16067911Y-18391868D01*
X16067911Y-18391868D02*
X16058387Y-18401391D01*
X16058387Y-18401391D02*
X16039339Y-18429963D01*
X16039339Y-18429963D02*
X16029816Y-18468058D01*
X16029816Y-18468058D02*
X16029816Y-18544249D01*
X16029816Y-18544249D02*
X16039339Y-18563296D01*
X16039339Y-18563296D02*
X16048863Y-18572820D01*
X16048863Y-18572820D02*
X16067911Y-18582344D01*
X16067911Y-18582344D02*
X16106006Y-18582344D01*
X16106006Y-18582344D02*
X16125054Y-18572820D01*
X16125054Y-18572820D02*
X16134577Y-18563296D01*
X16134577Y-18563296D02*
X16144101Y-18544249D01*
X16144101Y-18544249D02*
X16144101Y-18496630D01*
X16144101Y-18496630D02*
X16134577Y-18477582D01*
X16134577Y-18477582D02*
X16125054Y-18468058D01*
X16125054Y-18468058D02*
X16106006Y-18458534D01*
X16106006Y-18458534D02*
X16067911Y-18458534D01*
X16067911Y-18458534D02*
X16048863Y-18468058D01*
X16048863Y-18468058D02*
X16039339Y-18477582D01*
X16039339Y-18477582D02*
X16029816Y-18496630D01*
X16210768Y-18382344D02*
X16334577Y-18382344D01*
X16334577Y-18382344D02*
X16267911Y-18458534D01*
X16267911Y-18458534D02*
X16296482Y-18458534D01*
X16296482Y-18458534D02*
X16315530Y-18468058D01*
X16315530Y-18468058D02*
X16325054Y-18477582D01*
X16325054Y-18477582D02*
X16334577Y-18496630D01*
X16334577Y-18496630D02*
X16334577Y-18544249D01*
X16334577Y-18544249D02*
X16325054Y-18563296D01*
X16325054Y-18563296D02*
X16315530Y-18572820D01*
X16315530Y-18572820D02*
X16296482Y-18582344D01*
X16296482Y-18582344D02*
X16239339Y-18582344D01*
X16239339Y-18582344D02*
X16220292Y-18572820D01*
X16220292Y-18572820D02*
X16210768Y-18563296D01*
X16458387Y-18382344D02*
X16477435Y-18382344D01*
X16477435Y-18382344D02*
X16496482Y-18391868D01*
X16496482Y-18391868D02*
X16506006Y-18401391D01*
X16506006Y-18401391D02*
X16515530Y-18420439D01*
X16515530Y-18420439D02*
X16525054Y-18458534D01*
X16525054Y-18458534D02*
X16525054Y-18506153D01*
X16525054Y-18506153D02*
X16515530Y-18544249D01*
X16515530Y-18544249D02*
X16506006Y-18563296D01*
X16506006Y-18563296D02*
X16496482Y-18572820D01*
X16496482Y-18572820D02*
X16477435Y-18582344D01*
X16477435Y-18582344D02*
X16458387Y-18582344D01*
X16458387Y-18582344D02*
X16439339Y-18572820D01*
X16439339Y-18572820D02*
X16429816Y-18563296D01*
X16429816Y-18563296D02*
X16420292Y-18544249D01*
X16420292Y-18544249D02*
X16410768Y-18506153D01*
X16410768Y-18506153D02*
X16410768Y-18458534D01*
X16410768Y-18458534D02*
X16420292Y-18420439D01*
X16420292Y-18420439D02*
X16429816Y-18401391D01*
X16429816Y-18401391D02*
X16439339Y-18391868D01*
X16439339Y-18391868D02*
X16458387Y-18382344D01*
X16601244Y-18382344D02*
X16601244Y-18420439D01*
X16677435Y-18382344D02*
X16677435Y-18420439D01*
X16972673Y-18658534D02*
X16963149Y-18649010D01*
X16963149Y-18649010D02*
X16944101Y-18620439D01*
X16944101Y-18620439D02*
X16934578Y-18601391D01*
X16934578Y-18601391D02*
X16925054Y-18572820D01*
X16925054Y-18572820D02*
X16915530Y-18525201D01*
X16915530Y-18525201D02*
X16915530Y-18487106D01*
X16915530Y-18487106D02*
X16925054Y-18439487D01*
X16925054Y-18439487D02*
X16934578Y-18410915D01*
X16934578Y-18410915D02*
X16944101Y-18391868D01*
X16944101Y-18391868D02*
X16963149Y-18363296D01*
X16963149Y-18363296D02*
X16972673Y-18353772D01*
X17134578Y-18382344D02*
X17096482Y-18382344D01*
X17096482Y-18382344D02*
X17077435Y-18391868D01*
X17077435Y-18391868D02*
X17067911Y-18401391D01*
X17067911Y-18401391D02*
X17048863Y-18429963D01*
X17048863Y-18429963D02*
X17039340Y-18468058D01*
X17039340Y-18468058D02*
X17039340Y-18544249D01*
X17039340Y-18544249D02*
X17048863Y-18563296D01*
X17048863Y-18563296D02*
X17058387Y-18572820D01*
X17058387Y-18572820D02*
X17077435Y-18582344D01*
X17077435Y-18582344D02*
X17115530Y-18582344D01*
X17115530Y-18582344D02*
X17134578Y-18572820D01*
X17134578Y-18572820D02*
X17144101Y-18563296D01*
X17144101Y-18563296D02*
X17153625Y-18544249D01*
X17153625Y-18544249D02*
X17153625Y-18496630D01*
X17153625Y-18496630D02*
X17144101Y-18477582D01*
X17144101Y-18477582D02*
X17134578Y-18468058D01*
X17134578Y-18468058D02*
X17115530Y-18458534D01*
X17115530Y-18458534D02*
X17077435Y-18458534D01*
X17077435Y-18458534D02*
X17058387Y-18468058D01*
X17058387Y-18468058D02*
X17048863Y-18477582D01*
X17048863Y-18477582D02*
X17039340Y-18496630D01*
X17391721Y-18582344D02*
X17391721Y-18382344D01*
X17477435Y-18582344D02*
X17477435Y-18477582D01*
X17477435Y-18477582D02*
X17467911Y-18458534D01*
X17467911Y-18458534D02*
X17448863Y-18449010D01*
X17448863Y-18449010D02*
X17420292Y-18449010D01*
X17420292Y-18449010D02*
X17401244Y-18458534D01*
X17401244Y-18458534D02*
X17391721Y-18468058D01*
X17601244Y-18582344D02*
X17582197Y-18572820D01*
X17582197Y-18572820D02*
X17572673Y-18563296D01*
X17572673Y-18563296D02*
X17563149Y-18544249D01*
X17563149Y-18544249D02*
X17563149Y-18487106D01*
X17563149Y-18487106D02*
X17572673Y-18468058D01*
X17572673Y-18468058D02*
X17582197Y-18458534D01*
X17582197Y-18458534D02*
X17601244Y-18449010D01*
X17601244Y-18449010D02*
X17629816Y-18449010D01*
X17629816Y-18449010D02*
X17648863Y-18458534D01*
X17648863Y-18458534D02*
X17658387Y-18468058D01*
X17658387Y-18468058D02*
X17667911Y-18487106D01*
X17667911Y-18487106D02*
X17667911Y-18544249D01*
X17667911Y-18544249D02*
X17658387Y-18563296D01*
X17658387Y-18563296D02*
X17648863Y-18572820D01*
X17648863Y-18572820D02*
X17629816Y-18582344D01*
X17629816Y-18582344D02*
X17601244Y-18582344D01*
X17782197Y-18582344D02*
X17763149Y-18572820D01*
X17763149Y-18572820D02*
X17753625Y-18553772D01*
X17753625Y-18553772D02*
X17753625Y-18382344D01*
X17934578Y-18572820D02*
X17915530Y-18582344D01*
X17915530Y-18582344D02*
X17877435Y-18582344D01*
X17877435Y-18582344D02*
X17858387Y-18572820D01*
X17858387Y-18572820D02*
X17848863Y-18553772D01*
X17848863Y-18553772D02*
X17848863Y-18477582D01*
X17848863Y-18477582D02*
X17858387Y-18458534D01*
X17858387Y-18458534D02*
X17877435Y-18449010D01*
X17877435Y-18449010D02*
X17915530Y-18449010D01*
X17915530Y-18449010D02*
X17934578Y-18458534D01*
X17934578Y-18458534D02*
X17944102Y-18477582D01*
X17944102Y-18477582D02*
X17944102Y-18496630D01*
X17944102Y-18496630D02*
X17848863Y-18515677D01*
X18020292Y-18572820D02*
X18039340Y-18582344D01*
X18039340Y-18582344D02*
X18077435Y-18582344D01*
X18077435Y-18582344D02*
X18096483Y-18572820D01*
X18096483Y-18572820D02*
X18106006Y-18553772D01*
X18106006Y-18553772D02*
X18106006Y-18544249D01*
X18106006Y-18544249D02*
X18096483Y-18525201D01*
X18096483Y-18525201D02*
X18077435Y-18515677D01*
X18077435Y-18515677D02*
X18048863Y-18515677D01*
X18048863Y-18515677D02*
X18029816Y-18506153D01*
X18029816Y-18506153D02*
X18020292Y-18487106D01*
X18020292Y-18487106D02*
X18020292Y-18477582D01*
X18020292Y-18477582D02*
X18029816Y-18458534D01*
X18029816Y-18458534D02*
X18048863Y-18449010D01*
X18048863Y-18449010D02*
X18077435Y-18449010D01*
X18077435Y-18449010D02*
X18096483Y-18458534D01*
X18172673Y-18658534D02*
X18182197Y-18649010D01*
X18182197Y-18649010D02*
X18201244Y-18620439D01*
X18201244Y-18620439D02*
X18210768Y-18601391D01*
X18210768Y-18601391D02*
X18220292Y-18572820D01*
X18220292Y-18572820D02*
X18229816Y-18525201D01*
X18229816Y-18525201D02*
X18229816Y-18487106D01*
X18229816Y-18487106D02*
X18220292Y-18439487D01*
X18220292Y-18439487D02*
X18210768Y-18410915D01*
X18210768Y-18410915D02*
X18201244Y-18391868D01*
X18201244Y-18391868D02*
X18182197Y-18363296D01*
X18182197Y-18363296D02*
X18172673Y-18353772D01*
X13197610Y-18670860D02*
X13397610Y-18870860D01*
X13397610Y-18670860D02*
X13197610Y-18870860D01*
X13297610Y-18870860D02*
X13397610Y-18770860D01*
X13297610Y-18670860D01*
X13197610Y-18770860D01*
X13297610Y-18870860D01*
X13648863Y-18681391D02*
X13658387Y-18671868D01*
X13658387Y-18671868D02*
X13677434Y-18662344D01*
X13677434Y-18662344D02*
X13725053Y-18662344D01*
X13725053Y-18662344D02*
X13744101Y-18671868D01*
X13744101Y-18671868D02*
X13753625Y-18681391D01*
X13753625Y-18681391D02*
X13763149Y-18700439D01*
X13763149Y-18700439D02*
X13763149Y-18719487D01*
X13763149Y-18719487D02*
X13753625Y-18748058D01*
X13753625Y-18748058D02*
X13639339Y-18862344D01*
X13639339Y-18862344D02*
X13763149Y-18862344D01*
X13848863Y-18843296D02*
X13858387Y-18852820D01*
X13858387Y-18852820D02*
X13848863Y-18862344D01*
X13848863Y-18862344D02*
X13839339Y-18852820D01*
X13839339Y-18852820D02*
X13848863Y-18843296D01*
X13848863Y-18843296D02*
X13848863Y-18862344D01*
X13934577Y-18681391D02*
X13944101Y-18671868D01*
X13944101Y-18671868D02*
X13963149Y-18662344D01*
X13963149Y-18662344D02*
X14010768Y-18662344D01*
X14010768Y-18662344D02*
X14029815Y-18671868D01*
X14029815Y-18671868D02*
X14039339Y-18681391D01*
X14039339Y-18681391D02*
X14048863Y-18700439D01*
X14048863Y-18700439D02*
X14048863Y-18719487D01*
X14048863Y-18719487D02*
X14039339Y-18748058D01*
X14039339Y-18748058D02*
X13925053Y-18862344D01*
X13925053Y-18862344D02*
X14048863Y-18862344D01*
X14229815Y-18662344D02*
X14134577Y-18662344D01*
X14134577Y-18662344D02*
X14125053Y-18757582D01*
X14125053Y-18757582D02*
X14134577Y-18748058D01*
X14134577Y-18748058D02*
X14153625Y-18738534D01*
X14153625Y-18738534D02*
X14201244Y-18738534D01*
X14201244Y-18738534D02*
X14220292Y-18748058D01*
X14220292Y-18748058D02*
X14229815Y-18757582D01*
X14229815Y-18757582D02*
X14239339Y-18776630D01*
X14239339Y-18776630D02*
X14239339Y-18824249D01*
X14239339Y-18824249D02*
X14229815Y-18843296D01*
X14229815Y-18843296D02*
X14220292Y-18852820D01*
X14220292Y-18852820D02*
X14201244Y-18862344D01*
X14201244Y-18862344D02*
X14153625Y-18862344D01*
X14153625Y-18862344D02*
X14134577Y-18852820D01*
X14134577Y-18852820D02*
X14125053Y-18843296D01*
X14363149Y-18662344D02*
X14382196Y-18662344D01*
X14382196Y-18662344D02*
X14401244Y-18671868D01*
X14401244Y-18671868D02*
X14410768Y-18681391D01*
X14410768Y-18681391D02*
X14420292Y-18700439D01*
X14420292Y-18700439D02*
X14429815Y-18738534D01*
X14429815Y-18738534D02*
X14429815Y-18786153D01*
X14429815Y-18786153D02*
X14420292Y-18824249D01*
X14420292Y-18824249D02*
X14410768Y-18843296D01*
X14410768Y-18843296D02*
X14401244Y-18852820D01*
X14401244Y-18852820D02*
X14382196Y-18862344D01*
X14382196Y-18862344D02*
X14363149Y-18862344D01*
X14363149Y-18862344D02*
X14344101Y-18852820D01*
X14344101Y-18852820D02*
X14334577Y-18843296D01*
X14334577Y-18843296D02*
X14325053Y-18824249D01*
X14325053Y-18824249D02*
X14315530Y-18786153D01*
X14315530Y-18786153D02*
X14315530Y-18738534D01*
X14315530Y-18738534D02*
X14325053Y-18700439D01*
X14325053Y-18700439D02*
X14334577Y-18681391D01*
X14334577Y-18681391D02*
X14344101Y-18671868D01*
X14344101Y-18671868D02*
X14363149Y-18662344D01*
X14515530Y-18862344D02*
X14515530Y-18729010D01*
X14515530Y-18748058D02*
X14525053Y-18738534D01*
X14525053Y-18738534D02*
X14544101Y-18729010D01*
X14544101Y-18729010D02*
X14572673Y-18729010D01*
X14572673Y-18729010D02*
X14591720Y-18738534D01*
X14591720Y-18738534D02*
X14601244Y-18757582D01*
X14601244Y-18757582D02*
X14601244Y-18862344D01*
X14601244Y-18757582D02*
X14610768Y-18738534D01*
X14610768Y-18738534D02*
X14629815Y-18729010D01*
X14629815Y-18729010D02*
X14658387Y-18729010D01*
X14658387Y-18729010D02*
X14677434Y-18738534D01*
X14677434Y-18738534D02*
X14686958Y-18757582D01*
X14686958Y-18757582D02*
X14686958Y-18862344D01*
X14782196Y-18862344D02*
X14782196Y-18729010D01*
X14782196Y-18748058D02*
X14791720Y-18738534D01*
X14791720Y-18738534D02*
X14810768Y-18729010D01*
X14810768Y-18729010D02*
X14839339Y-18729010D01*
X14839339Y-18729010D02*
X14858387Y-18738534D01*
X14858387Y-18738534D02*
X14867911Y-18757582D01*
X14867911Y-18757582D02*
X14867911Y-18862344D01*
X14867911Y-18757582D02*
X14877434Y-18738534D01*
X14877434Y-18738534D02*
X14896482Y-18729010D01*
X14896482Y-18729010D02*
X14925053Y-18729010D01*
X14925053Y-18729010D02*
X14944101Y-18738534D01*
X14944101Y-18738534D02*
X14953625Y-18757582D01*
X14953625Y-18757582D02*
X14953625Y-18862344D01*
X15344101Y-18652820D02*
X15172673Y-18909963D01*
X15601244Y-18662344D02*
X15620292Y-18662344D01*
X15620292Y-18662344D02*
X15639339Y-18671868D01*
X15639339Y-18671868D02*
X15648863Y-18681391D01*
X15648863Y-18681391D02*
X15658387Y-18700439D01*
X15658387Y-18700439D02*
X15667911Y-18738534D01*
X15667911Y-18738534D02*
X15667911Y-18786153D01*
X15667911Y-18786153D02*
X15658387Y-18824249D01*
X15658387Y-18824249D02*
X15648863Y-18843296D01*
X15648863Y-18843296D02*
X15639339Y-18852820D01*
X15639339Y-18852820D02*
X15620292Y-18862344D01*
X15620292Y-18862344D02*
X15601244Y-18862344D01*
X15601244Y-18862344D02*
X15582196Y-18852820D01*
X15582196Y-18852820D02*
X15572673Y-18843296D01*
X15572673Y-18843296D02*
X15563149Y-18824249D01*
X15563149Y-18824249D02*
X15553625Y-18786153D01*
X15553625Y-18786153D02*
X15553625Y-18738534D01*
X15553625Y-18738534D02*
X15563149Y-18700439D01*
X15563149Y-18700439D02*
X15572673Y-18681391D01*
X15572673Y-18681391D02*
X15582196Y-18671868D01*
X15582196Y-18671868D02*
X15601244Y-18662344D01*
X15753625Y-18843296D02*
X15763149Y-18852820D01*
X15763149Y-18852820D02*
X15753625Y-18862344D01*
X15753625Y-18862344D02*
X15744101Y-18852820D01*
X15744101Y-18852820D02*
X15753625Y-18843296D01*
X15753625Y-18843296D02*
X15753625Y-18862344D01*
X15886958Y-18662344D02*
X15906006Y-18662344D01*
X15906006Y-18662344D02*
X15925054Y-18671868D01*
X15925054Y-18671868D02*
X15934577Y-18681391D01*
X15934577Y-18681391D02*
X15944101Y-18700439D01*
X15944101Y-18700439D02*
X15953625Y-18738534D01*
X15953625Y-18738534D02*
X15953625Y-18786153D01*
X15953625Y-18786153D02*
X15944101Y-18824249D01*
X15944101Y-18824249D02*
X15934577Y-18843296D01*
X15934577Y-18843296D02*
X15925054Y-18852820D01*
X15925054Y-18852820D02*
X15906006Y-18862344D01*
X15906006Y-18862344D02*
X15886958Y-18862344D01*
X15886958Y-18862344D02*
X15867911Y-18852820D01*
X15867911Y-18852820D02*
X15858387Y-18843296D01*
X15858387Y-18843296D02*
X15848863Y-18824249D01*
X15848863Y-18824249D02*
X15839339Y-18786153D01*
X15839339Y-18786153D02*
X15839339Y-18738534D01*
X15839339Y-18738534D02*
X15848863Y-18700439D01*
X15848863Y-18700439D02*
X15858387Y-18681391D01*
X15858387Y-18681391D02*
X15867911Y-18671868D01*
X15867911Y-18671868D02*
X15886958Y-18662344D01*
X16067911Y-18748058D02*
X16048863Y-18738534D01*
X16048863Y-18738534D02*
X16039339Y-18729010D01*
X16039339Y-18729010D02*
X16029816Y-18709963D01*
X16029816Y-18709963D02*
X16029816Y-18700439D01*
X16029816Y-18700439D02*
X16039339Y-18681391D01*
X16039339Y-18681391D02*
X16048863Y-18671868D01*
X16048863Y-18671868D02*
X16067911Y-18662344D01*
X16067911Y-18662344D02*
X16106006Y-18662344D01*
X16106006Y-18662344D02*
X16125054Y-18671868D01*
X16125054Y-18671868D02*
X16134577Y-18681391D01*
X16134577Y-18681391D02*
X16144101Y-18700439D01*
X16144101Y-18700439D02*
X16144101Y-18709963D01*
X16144101Y-18709963D02*
X16134577Y-18729010D01*
X16134577Y-18729010D02*
X16125054Y-18738534D01*
X16125054Y-18738534D02*
X16106006Y-18748058D01*
X16106006Y-18748058D02*
X16067911Y-18748058D01*
X16067911Y-18748058D02*
X16048863Y-18757582D01*
X16048863Y-18757582D02*
X16039339Y-18767106D01*
X16039339Y-18767106D02*
X16029816Y-18786153D01*
X16029816Y-18786153D02*
X16029816Y-18824249D01*
X16029816Y-18824249D02*
X16039339Y-18843296D01*
X16039339Y-18843296D02*
X16048863Y-18852820D01*
X16048863Y-18852820D02*
X16067911Y-18862344D01*
X16067911Y-18862344D02*
X16106006Y-18862344D01*
X16106006Y-18862344D02*
X16125054Y-18852820D01*
X16125054Y-18852820D02*
X16134577Y-18843296D01*
X16134577Y-18843296D02*
X16144101Y-18824249D01*
X16144101Y-18824249D02*
X16144101Y-18786153D01*
X16144101Y-18786153D02*
X16134577Y-18767106D01*
X16134577Y-18767106D02*
X16125054Y-18757582D01*
X16125054Y-18757582D02*
X16106006Y-18748058D01*
X16258387Y-18748058D02*
X16239339Y-18738534D01*
X16239339Y-18738534D02*
X16229816Y-18729010D01*
X16229816Y-18729010D02*
X16220292Y-18709963D01*
X16220292Y-18709963D02*
X16220292Y-18700439D01*
X16220292Y-18700439D02*
X16229816Y-18681391D01*
X16229816Y-18681391D02*
X16239339Y-18671868D01*
X16239339Y-18671868D02*
X16258387Y-18662344D01*
X16258387Y-18662344D02*
X16296482Y-18662344D01*
X16296482Y-18662344D02*
X16315530Y-18671868D01*
X16315530Y-18671868D02*
X16325054Y-18681391D01*
X16325054Y-18681391D02*
X16334577Y-18700439D01*
X16334577Y-18700439D02*
X16334577Y-18709963D01*
X16334577Y-18709963D02*
X16325054Y-18729010D01*
X16325054Y-18729010D02*
X16315530Y-18738534D01*
X16315530Y-18738534D02*
X16296482Y-18748058D01*
X16296482Y-18748058D02*
X16258387Y-18748058D01*
X16258387Y-18748058D02*
X16239339Y-18757582D01*
X16239339Y-18757582D02*
X16229816Y-18767106D01*
X16229816Y-18767106D02*
X16220292Y-18786153D01*
X16220292Y-18786153D02*
X16220292Y-18824249D01*
X16220292Y-18824249D02*
X16229816Y-18843296D01*
X16229816Y-18843296D02*
X16239339Y-18852820D01*
X16239339Y-18852820D02*
X16258387Y-18862344D01*
X16258387Y-18862344D02*
X16296482Y-18862344D01*
X16296482Y-18862344D02*
X16315530Y-18852820D01*
X16315530Y-18852820D02*
X16325054Y-18843296D01*
X16325054Y-18843296D02*
X16334577Y-18824249D01*
X16334577Y-18824249D02*
X16334577Y-18786153D01*
X16334577Y-18786153D02*
X16325054Y-18767106D01*
X16325054Y-18767106D02*
X16315530Y-18757582D01*
X16315530Y-18757582D02*
X16296482Y-18748058D01*
X16506006Y-18662344D02*
X16467911Y-18662344D01*
X16467911Y-18662344D02*
X16448863Y-18671868D01*
X16448863Y-18671868D02*
X16439339Y-18681391D01*
X16439339Y-18681391D02*
X16420292Y-18709963D01*
X16420292Y-18709963D02*
X16410768Y-18748058D01*
X16410768Y-18748058D02*
X16410768Y-18824249D01*
X16410768Y-18824249D02*
X16420292Y-18843296D01*
X16420292Y-18843296D02*
X16429816Y-18852820D01*
X16429816Y-18852820D02*
X16448863Y-18862344D01*
X16448863Y-18862344D02*
X16486958Y-18862344D01*
X16486958Y-18862344D02*
X16506006Y-18852820D01*
X16506006Y-18852820D02*
X16515530Y-18843296D01*
X16515530Y-18843296D02*
X16525054Y-18824249D01*
X16525054Y-18824249D02*
X16525054Y-18776630D01*
X16525054Y-18776630D02*
X16515530Y-18757582D01*
X16515530Y-18757582D02*
X16506006Y-18748058D01*
X16506006Y-18748058D02*
X16486958Y-18738534D01*
X16486958Y-18738534D02*
X16448863Y-18738534D01*
X16448863Y-18738534D02*
X16429816Y-18748058D01*
X16429816Y-18748058D02*
X16420292Y-18757582D01*
X16420292Y-18757582D02*
X16410768Y-18776630D01*
X16601244Y-18662344D02*
X16601244Y-18700439D01*
X16677435Y-18662344D02*
X16677435Y-18700439D01*
X16972673Y-18938534D02*
X16963149Y-18929010D01*
X16963149Y-18929010D02*
X16944101Y-18900439D01*
X16944101Y-18900439D02*
X16934578Y-18881391D01*
X16934578Y-18881391D02*
X16925054Y-18852820D01*
X16925054Y-18852820D02*
X16915530Y-18805201D01*
X16915530Y-18805201D02*
X16915530Y-18767106D01*
X16915530Y-18767106D02*
X16925054Y-18719487D01*
X16925054Y-18719487D02*
X16934578Y-18690915D01*
X16934578Y-18690915D02*
X16944101Y-18671868D01*
X16944101Y-18671868D02*
X16963149Y-18643296D01*
X16963149Y-18643296D02*
X16972673Y-18633772D01*
X17153625Y-18862344D02*
X17039340Y-18862344D01*
X17096482Y-18862344D02*
X17096482Y-18662344D01*
X17096482Y-18662344D02*
X17077435Y-18690915D01*
X17077435Y-18690915D02*
X17058387Y-18709963D01*
X17058387Y-18709963D02*
X17039340Y-18719487D01*
X17229816Y-18681391D02*
X17239340Y-18671868D01*
X17239340Y-18671868D02*
X17258387Y-18662344D01*
X17258387Y-18662344D02*
X17306006Y-18662344D01*
X17306006Y-18662344D02*
X17325054Y-18671868D01*
X17325054Y-18671868D02*
X17334578Y-18681391D01*
X17334578Y-18681391D02*
X17344101Y-18700439D01*
X17344101Y-18700439D02*
X17344101Y-18719487D01*
X17344101Y-18719487D02*
X17334578Y-18748058D01*
X17334578Y-18748058D02*
X17220292Y-18862344D01*
X17220292Y-18862344D02*
X17344101Y-18862344D01*
X17582197Y-18862344D02*
X17582197Y-18662344D01*
X17667911Y-18862344D02*
X17667911Y-18757582D01*
X17667911Y-18757582D02*
X17658387Y-18738534D01*
X17658387Y-18738534D02*
X17639340Y-18729010D01*
X17639340Y-18729010D02*
X17610768Y-18729010D01*
X17610768Y-18729010D02*
X17591721Y-18738534D01*
X17591721Y-18738534D02*
X17582197Y-18748058D01*
X17791721Y-18862344D02*
X17772673Y-18852820D01*
X17772673Y-18852820D02*
X17763149Y-18843296D01*
X17763149Y-18843296D02*
X17753625Y-18824249D01*
X17753625Y-18824249D02*
X17753625Y-18767106D01*
X17753625Y-18767106D02*
X17763149Y-18748058D01*
X17763149Y-18748058D02*
X17772673Y-18738534D01*
X17772673Y-18738534D02*
X17791721Y-18729010D01*
X17791721Y-18729010D02*
X17820292Y-18729010D01*
X17820292Y-18729010D02*
X17839340Y-18738534D01*
X17839340Y-18738534D02*
X17848863Y-18748058D01*
X17848863Y-18748058D02*
X17858387Y-18767106D01*
X17858387Y-18767106D02*
X17858387Y-18824249D01*
X17858387Y-18824249D02*
X17848863Y-18843296D01*
X17848863Y-18843296D02*
X17839340Y-18852820D01*
X17839340Y-18852820D02*
X17820292Y-18862344D01*
X17820292Y-18862344D02*
X17791721Y-18862344D01*
X17972673Y-18862344D02*
X17953625Y-18852820D01*
X17953625Y-18852820D02*
X17944102Y-18833772D01*
X17944102Y-18833772D02*
X17944102Y-18662344D01*
X18125054Y-18852820D02*
X18106006Y-18862344D01*
X18106006Y-18862344D02*
X18067911Y-18862344D01*
X18067911Y-18862344D02*
X18048863Y-18852820D01*
X18048863Y-18852820D02*
X18039340Y-18833772D01*
X18039340Y-18833772D02*
X18039340Y-18757582D01*
X18039340Y-18757582D02*
X18048863Y-18738534D01*
X18048863Y-18738534D02*
X18067911Y-18729010D01*
X18067911Y-18729010D02*
X18106006Y-18729010D01*
X18106006Y-18729010D02*
X18125054Y-18738534D01*
X18125054Y-18738534D02*
X18134578Y-18757582D01*
X18134578Y-18757582D02*
X18134578Y-18776630D01*
X18134578Y-18776630D02*
X18039340Y-18795677D01*
X18210768Y-18852820D02*
X18229816Y-18862344D01*
X18229816Y-18862344D02*
X18267911Y-18862344D01*
X18267911Y-18862344D02*
X18286959Y-18852820D01*
X18286959Y-18852820D02*
X18296483Y-18833772D01*
X18296483Y-18833772D02*
X18296483Y-18824249D01*
X18296483Y-18824249D02*
X18286959Y-18805201D01*
X18286959Y-18805201D02*
X18267911Y-18795677D01*
X18267911Y-18795677D02*
X18239340Y-18795677D01*
X18239340Y-18795677D02*
X18220292Y-18786153D01*
X18220292Y-18786153D02*
X18210768Y-18767106D01*
X18210768Y-18767106D02*
X18210768Y-18757582D01*
X18210768Y-18757582D02*
X18220292Y-18738534D01*
X18220292Y-18738534D02*
X18239340Y-18729010D01*
X18239340Y-18729010D02*
X18267911Y-18729010D01*
X18267911Y-18729010D02*
X18286959Y-18738534D01*
X18363149Y-18938534D02*
X18372673Y-18929010D01*
X18372673Y-18929010D02*
X18391721Y-18900439D01*
X18391721Y-18900439D02*
X18401244Y-18881391D01*
X18401244Y-18881391D02*
X18410768Y-18852820D01*
X18410768Y-18852820D02*
X18420292Y-18805201D01*
X18420292Y-18805201D02*
X18420292Y-18767106D01*
X18420292Y-18767106D02*
X18410768Y-18719487D01*
X18410768Y-18719487D02*
X18401244Y-18690915D01*
X18401244Y-18690915D02*
X18391721Y-18671868D01*
X18391721Y-18671868D02*
X18372673Y-18643296D01*
X18372673Y-18643296D02*
X18363149Y-18633772D01*
X13297610Y-18990860D02*
X13297610Y-19190860D01*
X13197610Y-19090860D02*
X13397610Y-19090860D01*
X13397610Y-19090860D02*
G75*
G02*
X13197610Y-19090860I-100000J0D01*
G01*
X13197610Y-19090860D02*
G75*
G02*
X13397610Y-19090860I100000J0D01*
G01*
X13648863Y-19001391D02*
X13658387Y-18991868D01*
X13658387Y-18991868D02*
X13677434Y-18982344D01*
X13677434Y-18982344D02*
X13725053Y-18982344D01*
X13725053Y-18982344D02*
X13744101Y-18991868D01*
X13744101Y-18991868D02*
X13753625Y-19001391D01*
X13753625Y-19001391D02*
X13763149Y-19020439D01*
X13763149Y-19020439D02*
X13763149Y-19039487D01*
X13763149Y-19039487D02*
X13753625Y-19068058D01*
X13753625Y-19068058D02*
X13639339Y-19182344D01*
X13639339Y-19182344D02*
X13763149Y-19182344D01*
X13848863Y-19163296D02*
X13858387Y-19172820D01*
X13858387Y-19172820D02*
X13848863Y-19182344D01*
X13848863Y-19182344D02*
X13839339Y-19172820D01*
X13839339Y-19172820D02*
X13848863Y-19163296D01*
X13848863Y-19163296D02*
X13848863Y-19182344D01*
X13925053Y-18982344D02*
X14048863Y-18982344D01*
X14048863Y-18982344D02*
X13982196Y-19058534D01*
X13982196Y-19058534D02*
X14010768Y-19058534D01*
X14010768Y-19058534D02*
X14029815Y-19068058D01*
X14029815Y-19068058D02*
X14039339Y-19077582D01*
X14039339Y-19077582D02*
X14048863Y-19096630D01*
X14048863Y-19096630D02*
X14048863Y-19144249D01*
X14048863Y-19144249D02*
X14039339Y-19163296D01*
X14039339Y-19163296D02*
X14029815Y-19172820D01*
X14029815Y-19172820D02*
X14010768Y-19182344D01*
X14010768Y-19182344D02*
X13953625Y-19182344D01*
X13953625Y-19182344D02*
X13934577Y-19172820D01*
X13934577Y-19172820D02*
X13925053Y-19163296D01*
X14172672Y-18982344D02*
X14191720Y-18982344D01*
X14191720Y-18982344D02*
X14210768Y-18991868D01*
X14210768Y-18991868D02*
X14220292Y-19001391D01*
X14220292Y-19001391D02*
X14229815Y-19020439D01*
X14229815Y-19020439D02*
X14239339Y-19058534D01*
X14239339Y-19058534D02*
X14239339Y-19106153D01*
X14239339Y-19106153D02*
X14229815Y-19144249D01*
X14229815Y-19144249D02*
X14220292Y-19163296D01*
X14220292Y-19163296D02*
X14210768Y-19172820D01*
X14210768Y-19172820D02*
X14191720Y-19182344D01*
X14191720Y-19182344D02*
X14172672Y-19182344D01*
X14172672Y-19182344D02*
X14153625Y-19172820D01*
X14153625Y-19172820D02*
X14144101Y-19163296D01*
X14144101Y-19163296D02*
X14134577Y-19144249D01*
X14134577Y-19144249D02*
X14125053Y-19106153D01*
X14125053Y-19106153D02*
X14125053Y-19058534D01*
X14125053Y-19058534D02*
X14134577Y-19020439D01*
X14134577Y-19020439D02*
X14144101Y-19001391D01*
X14144101Y-19001391D02*
X14153625Y-18991868D01*
X14153625Y-18991868D02*
X14172672Y-18982344D01*
X14363149Y-18982344D02*
X14382196Y-18982344D01*
X14382196Y-18982344D02*
X14401244Y-18991868D01*
X14401244Y-18991868D02*
X14410768Y-19001391D01*
X14410768Y-19001391D02*
X14420292Y-19020439D01*
X14420292Y-19020439D02*
X14429815Y-19058534D01*
X14429815Y-19058534D02*
X14429815Y-19106153D01*
X14429815Y-19106153D02*
X14420292Y-19144249D01*
X14420292Y-19144249D02*
X14410768Y-19163296D01*
X14410768Y-19163296D02*
X14401244Y-19172820D01*
X14401244Y-19172820D02*
X14382196Y-19182344D01*
X14382196Y-19182344D02*
X14363149Y-19182344D01*
X14363149Y-19182344D02*
X14344101Y-19172820D01*
X14344101Y-19172820D02*
X14334577Y-19163296D01*
X14334577Y-19163296D02*
X14325053Y-19144249D01*
X14325053Y-19144249D02*
X14315530Y-19106153D01*
X14315530Y-19106153D02*
X14315530Y-19058534D01*
X14315530Y-19058534D02*
X14325053Y-19020439D01*
X14325053Y-19020439D02*
X14334577Y-19001391D01*
X14334577Y-19001391D02*
X14344101Y-18991868D01*
X14344101Y-18991868D02*
X14363149Y-18982344D01*
X14515530Y-19182344D02*
X14515530Y-19049010D01*
X14515530Y-19068058D02*
X14525053Y-19058534D01*
X14525053Y-19058534D02*
X14544101Y-19049010D01*
X14544101Y-19049010D02*
X14572673Y-19049010D01*
X14572673Y-19049010D02*
X14591720Y-19058534D01*
X14591720Y-19058534D02*
X14601244Y-19077582D01*
X14601244Y-19077582D02*
X14601244Y-19182344D01*
X14601244Y-19077582D02*
X14610768Y-19058534D01*
X14610768Y-19058534D02*
X14629815Y-19049010D01*
X14629815Y-19049010D02*
X14658387Y-19049010D01*
X14658387Y-19049010D02*
X14677434Y-19058534D01*
X14677434Y-19058534D02*
X14686958Y-19077582D01*
X14686958Y-19077582D02*
X14686958Y-19182344D01*
X14782196Y-19182344D02*
X14782196Y-19049010D01*
X14782196Y-19068058D02*
X14791720Y-19058534D01*
X14791720Y-19058534D02*
X14810768Y-19049010D01*
X14810768Y-19049010D02*
X14839339Y-19049010D01*
X14839339Y-19049010D02*
X14858387Y-19058534D01*
X14858387Y-19058534D02*
X14867911Y-19077582D01*
X14867911Y-19077582D02*
X14867911Y-19182344D01*
X14867911Y-19077582D02*
X14877434Y-19058534D01*
X14877434Y-19058534D02*
X14896482Y-19049010D01*
X14896482Y-19049010D02*
X14925053Y-19049010D01*
X14925053Y-19049010D02*
X14944101Y-19058534D01*
X14944101Y-19058534D02*
X14953625Y-19077582D01*
X14953625Y-19077582D02*
X14953625Y-19182344D01*
X15344101Y-18972820D02*
X15172673Y-19229963D01*
X15601244Y-18982344D02*
X15620292Y-18982344D01*
X15620292Y-18982344D02*
X15639339Y-18991868D01*
X15639339Y-18991868D02*
X15648863Y-19001391D01*
X15648863Y-19001391D02*
X15658387Y-19020439D01*
X15658387Y-19020439D02*
X15667911Y-19058534D01*
X15667911Y-19058534D02*
X15667911Y-19106153D01*
X15667911Y-19106153D02*
X15658387Y-19144249D01*
X15658387Y-19144249D02*
X15648863Y-19163296D01*
X15648863Y-19163296D02*
X15639339Y-19172820D01*
X15639339Y-19172820D02*
X15620292Y-19182344D01*
X15620292Y-19182344D02*
X15601244Y-19182344D01*
X15601244Y-19182344D02*
X15582196Y-19172820D01*
X15582196Y-19172820D02*
X15572673Y-19163296D01*
X15572673Y-19163296D02*
X15563149Y-19144249D01*
X15563149Y-19144249D02*
X15553625Y-19106153D01*
X15553625Y-19106153D02*
X15553625Y-19058534D01*
X15553625Y-19058534D02*
X15563149Y-19020439D01*
X15563149Y-19020439D02*
X15572673Y-19001391D01*
X15572673Y-19001391D02*
X15582196Y-18991868D01*
X15582196Y-18991868D02*
X15601244Y-18982344D01*
X15753625Y-19163296D02*
X15763149Y-19172820D01*
X15763149Y-19172820D02*
X15753625Y-19182344D01*
X15753625Y-19182344D02*
X15744101Y-19172820D01*
X15744101Y-19172820D02*
X15753625Y-19163296D01*
X15753625Y-19163296D02*
X15753625Y-19182344D01*
X15886958Y-18982344D02*
X15906006Y-18982344D01*
X15906006Y-18982344D02*
X15925054Y-18991868D01*
X15925054Y-18991868D02*
X15934577Y-19001391D01*
X15934577Y-19001391D02*
X15944101Y-19020439D01*
X15944101Y-19020439D02*
X15953625Y-19058534D01*
X15953625Y-19058534D02*
X15953625Y-19106153D01*
X15953625Y-19106153D02*
X15944101Y-19144249D01*
X15944101Y-19144249D02*
X15934577Y-19163296D01*
X15934577Y-19163296D02*
X15925054Y-19172820D01*
X15925054Y-19172820D02*
X15906006Y-19182344D01*
X15906006Y-19182344D02*
X15886958Y-19182344D01*
X15886958Y-19182344D02*
X15867911Y-19172820D01*
X15867911Y-19172820D02*
X15858387Y-19163296D01*
X15858387Y-19163296D02*
X15848863Y-19144249D01*
X15848863Y-19144249D02*
X15839339Y-19106153D01*
X15839339Y-19106153D02*
X15839339Y-19058534D01*
X15839339Y-19058534D02*
X15848863Y-19020439D01*
X15848863Y-19020439D02*
X15858387Y-19001391D01*
X15858387Y-19001391D02*
X15867911Y-18991868D01*
X15867911Y-18991868D02*
X15886958Y-18982344D01*
X16048863Y-19182344D02*
X16086958Y-19182344D01*
X16086958Y-19182344D02*
X16106006Y-19172820D01*
X16106006Y-19172820D02*
X16115530Y-19163296D01*
X16115530Y-19163296D02*
X16134577Y-19134725D01*
X16134577Y-19134725D02*
X16144101Y-19096630D01*
X16144101Y-19096630D02*
X16144101Y-19020439D01*
X16144101Y-19020439D02*
X16134577Y-19001391D01*
X16134577Y-19001391D02*
X16125054Y-18991868D01*
X16125054Y-18991868D02*
X16106006Y-18982344D01*
X16106006Y-18982344D02*
X16067911Y-18982344D01*
X16067911Y-18982344D02*
X16048863Y-18991868D01*
X16048863Y-18991868D02*
X16039339Y-19001391D01*
X16039339Y-19001391D02*
X16029816Y-19020439D01*
X16029816Y-19020439D02*
X16029816Y-19068058D01*
X16029816Y-19068058D02*
X16039339Y-19087106D01*
X16039339Y-19087106D02*
X16048863Y-19096630D01*
X16048863Y-19096630D02*
X16067911Y-19106153D01*
X16067911Y-19106153D02*
X16106006Y-19106153D01*
X16106006Y-19106153D02*
X16125054Y-19096630D01*
X16125054Y-19096630D02*
X16134577Y-19087106D01*
X16134577Y-19087106D02*
X16144101Y-19068058D01*
X16267911Y-18982344D02*
X16286958Y-18982344D01*
X16286958Y-18982344D02*
X16306006Y-18991868D01*
X16306006Y-18991868D02*
X16315530Y-19001391D01*
X16315530Y-19001391D02*
X16325054Y-19020439D01*
X16325054Y-19020439D02*
X16334577Y-19058534D01*
X16334577Y-19058534D02*
X16334577Y-19106153D01*
X16334577Y-19106153D02*
X16325054Y-19144249D01*
X16325054Y-19144249D02*
X16315530Y-19163296D01*
X16315530Y-19163296D02*
X16306006Y-19172820D01*
X16306006Y-19172820D02*
X16286958Y-19182344D01*
X16286958Y-19182344D02*
X16267911Y-19182344D01*
X16267911Y-19182344D02*
X16248863Y-19172820D01*
X16248863Y-19172820D02*
X16239339Y-19163296D01*
X16239339Y-19163296D02*
X16229816Y-19144249D01*
X16229816Y-19144249D02*
X16220292Y-19106153D01*
X16220292Y-19106153D02*
X16220292Y-19058534D01*
X16220292Y-19058534D02*
X16229816Y-19020439D01*
X16229816Y-19020439D02*
X16239339Y-19001391D01*
X16239339Y-19001391D02*
X16248863Y-18991868D01*
X16248863Y-18991868D02*
X16267911Y-18982344D01*
X16506006Y-18982344D02*
X16467911Y-18982344D01*
X16467911Y-18982344D02*
X16448863Y-18991868D01*
X16448863Y-18991868D02*
X16439339Y-19001391D01*
X16439339Y-19001391D02*
X16420292Y-19029963D01*
X16420292Y-19029963D02*
X16410768Y-19068058D01*
X16410768Y-19068058D02*
X16410768Y-19144249D01*
X16410768Y-19144249D02*
X16420292Y-19163296D01*
X16420292Y-19163296D02*
X16429816Y-19172820D01*
X16429816Y-19172820D02*
X16448863Y-19182344D01*
X16448863Y-19182344D02*
X16486958Y-19182344D01*
X16486958Y-19182344D02*
X16506006Y-19172820D01*
X16506006Y-19172820D02*
X16515530Y-19163296D01*
X16515530Y-19163296D02*
X16525054Y-19144249D01*
X16525054Y-19144249D02*
X16525054Y-19096630D01*
X16525054Y-19096630D02*
X16515530Y-19077582D01*
X16515530Y-19077582D02*
X16506006Y-19068058D01*
X16506006Y-19068058D02*
X16486958Y-19058534D01*
X16486958Y-19058534D02*
X16448863Y-19058534D01*
X16448863Y-19058534D02*
X16429816Y-19068058D01*
X16429816Y-19068058D02*
X16420292Y-19077582D01*
X16420292Y-19077582D02*
X16410768Y-19096630D01*
X16601244Y-18982344D02*
X16601244Y-19020439D01*
X16677435Y-18982344D02*
X16677435Y-19020439D01*
X16972673Y-19258534D02*
X16963149Y-19249010D01*
X16963149Y-19249010D02*
X16944101Y-19220439D01*
X16944101Y-19220439D02*
X16934578Y-19201391D01*
X16934578Y-19201391D02*
X16925054Y-19172820D01*
X16925054Y-19172820D02*
X16915530Y-19125201D01*
X16915530Y-19125201D02*
X16915530Y-19087106D01*
X16915530Y-19087106D02*
X16925054Y-19039487D01*
X16925054Y-19039487D02*
X16934578Y-19010915D01*
X16934578Y-19010915D02*
X16944101Y-18991868D01*
X16944101Y-18991868D02*
X16963149Y-18963296D01*
X16963149Y-18963296D02*
X16972673Y-18953772D01*
X17134578Y-18982344D02*
X17096482Y-18982344D01*
X17096482Y-18982344D02*
X17077435Y-18991868D01*
X17077435Y-18991868D02*
X17067911Y-19001391D01*
X17067911Y-19001391D02*
X17048863Y-19029963D01*
X17048863Y-19029963D02*
X17039340Y-19068058D01*
X17039340Y-19068058D02*
X17039340Y-19144249D01*
X17039340Y-19144249D02*
X17048863Y-19163296D01*
X17048863Y-19163296D02*
X17058387Y-19172820D01*
X17058387Y-19172820D02*
X17077435Y-19182344D01*
X17077435Y-19182344D02*
X17115530Y-19182344D01*
X17115530Y-19182344D02*
X17134578Y-19172820D01*
X17134578Y-19172820D02*
X17144101Y-19163296D01*
X17144101Y-19163296D02*
X17153625Y-19144249D01*
X17153625Y-19144249D02*
X17153625Y-19096630D01*
X17153625Y-19096630D02*
X17144101Y-19077582D01*
X17144101Y-19077582D02*
X17134578Y-19068058D01*
X17134578Y-19068058D02*
X17115530Y-19058534D01*
X17115530Y-19058534D02*
X17077435Y-19058534D01*
X17077435Y-19058534D02*
X17058387Y-19068058D01*
X17058387Y-19068058D02*
X17048863Y-19077582D01*
X17048863Y-19077582D02*
X17039340Y-19096630D01*
X17391721Y-19182344D02*
X17391721Y-18982344D01*
X17477435Y-19182344D02*
X17477435Y-19077582D01*
X17477435Y-19077582D02*
X17467911Y-19058534D01*
X17467911Y-19058534D02*
X17448863Y-19049010D01*
X17448863Y-19049010D02*
X17420292Y-19049010D01*
X17420292Y-19049010D02*
X17401244Y-19058534D01*
X17401244Y-19058534D02*
X17391721Y-19068058D01*
X17601244Y-19182344D02*
X17582197Y-19172820D01*
X17582197Y-19172820D02*
X17572673Y-19163296D01*
X17572673Y-19163296D02*
X17563149Y-19144249D01*
X17563149Y-19144249D02*
X17563149Y-19087106D01*
X17563149Y-19087106D02*
X17572673Y-19068058D01*
X17572673Y-19068058D02*
X17582197Y-19058534D01*
X17582197Y-19058534D02*
X17601244Y-19049010D01*
X17601244Y-19049010D02*
X17629816Y-19049010D01*
X17629816Y-19049010D02*
X17648863Y-19058534D01*
X17648863Y-19058534D02*
X17658387Y-19068058D01*
X17658387Y-19068058D02*
X17667911Y-19087106D01*
X17667911Y-19087106D02*
X17667911Y-19144249D01*
X17667911Y-19144249D02*
X17658387Y-19163296D01*
X17658387Y-19163296D02*
X17648863Y-19172820D01*
X17648863Y-19172820D02*
X17629816Y-19182344D01*
X17629816Y-19182344D02*
X17601244Y-19182344D01*
X17782197Y-19182344D02*
X17763149Y-19172820D01*
X17763149Y-19172820D02*
X17753625Y-19153772D01*
X17753625Y-19153772D02*
X17753625Y-18982344D01*
X17934578Y-19172820D02*
X17915530Y-19182344D01*
X17915530Y-19182344D02*
X17877435Y-19182344D01*
X17877435Y-19182344D02*
X17858387Y-19172820D01*
X17858387Y-19172820D02*
X17848863Y-19153772D01*
X17848863Y-19153772D02*
X17848863Y-19077582D01*
X17848863Y-19077582D02*
X17858387Y-19058534D01*
X17858387Y-19058534D02*
X17877435Y-19049010D01*
X17877435Y-19049010D02*
X17915530Y-19049010D01*
X17915530Y-19049010D02*
X17934578Y-19058534D01*
X17934578Y-19058534D02*
X17944102Y-19077582D01*
X17944102Y-19077582D02*
X17944102Y-19096630D01*
X17944102Y-19096630D02*
X17848863Y-19115677D01*
X18020292Y-19172820D02*
X18039340Y-19182344D01*
X18039340Y-19182344D02*
X18077435Y-19182344D01*
X18077435Y-19182344D02*
X18096483Y-19172820D01*
X18096483Y-19172820D02*
X18106006Y-19153772D01*
X18106006Y-19153772D02*
X18106006Y-19144249D01*
X18106006Y-19144249D02*
X18096483Y-19125201D01*
X18096483Y-19125201D02*
X18077435Y-19115677D01*
X18077435Y-19115677D02*
X18048863Y-19115677D01*
X18048863Y-19115677D02*
X18029816Y-19106153D01*
X18029816Y-19106153D02*
X18020292Y-19087106D01*
X18020292Y-19087106D02*
X18020292Y-19077582D01*
X18020292Y-19077582D02*
X18029816Y-19058534D01*
X18029816Y-19058534D02*
X18048863Y-19049010D01*
X18048863Y-19049010D02*
X18077435Y-19049010D01*
X18077435Y-19049010D02*
X18096483Y-19058534D01*
X18172673Y-19258534D02*
X18182197Y-19249010D01*
X18182197Y-19249010D02*
X18201244Y-19220439D01*
X18201244Y-19220439D02*
X18210768Y-19201391D01*
X18210768Y-19201391D02*
X18220292Y-19172820D01*
X18220292Y-19172820D02*
X18229816Y-19125201D01*
X18229816Y-19125201D02*
X18229816Y-19087106D01*
X18229816Y-19087106D02*
X18220292Y-19039487D01*
X18220292Y-19039487D02*
X18210768Y-19010915D01*
X18210768Y-19010915D02*
X18201244Y-18991868D01*
X18201244Y-18991868D02*
X18182197Y-18963296D01*
X18182197Y-18963296D02*
X18172673Y-18953772D01*
M02*
