%TF.GenerationSoftware,KiCad,Pcbnew,8.0.2*%
%TF.CreationDate,2024-05-21T21:55:18+01:00*%
%TF.ProjectId,panel-vert_mx-2024-03-26,70616e65-6c2d-4766-9572-745f6d782d32,rev?*%
%TF.SameCoordinates,Original*%
%TF.FileFunction,Copper,L1,Top*%
%TF.FilePolarity,Positive*%
%FSLAX46Y46*%
G04 Gerber Fmt 4.6, Leading zero omitted, Abs format (unit mm)*
G04 Created by KiCad (PCBNEW 8.0.2) date 2024-05-21 21:55:18*
%MOMM*%
%LPD*%
G01*
G04 APERTURE LIST*
%TA.AperFunction,ViaPad*%
%ADD10C,3.504800*%
%TD*%
G04 APERTURE END LIST*
D10*
%TO.N,SHIELD*%
X141054858Y-43753600D03*
X141034562Y-166253600D03*
%TD*%
%TA.AperFunction,NonConductor*%
G36*
X162982294Y-41272406D02*
G01*
X163000600Y-41316600D01*
X163000600Y-168690600D01*
X162982294Y-168734794D01*
X162938100Y-168753100D01*
X134064100Y-168753100D01*
X134019906Y-168734794D01*
X134001600Y-168690600D01*
X134001600Y-166253600D01*
X139022536Y-166253600D01*
X139043015Y-166539933D01*
X139043016Y-166539939D01*
X139104037Y-166820452D01*
X139104038Y-166820456D01*
X139204359Y-167089426D01*
X139204360Y-167089429D01*
X139341937Y-167341382D01*
X139341942Y-167341388D01*
X139513978Y-167571202D01*
X139716959Y-167774183D01*
X139716962Y-167774185D01*
X139716965Y-167774188D01*
X139946779Y-167946224D01*
X140198736Y-168083803D01*
X140467709Y-168184125D01*
X140748221Y-168245146D01*
X141034562Y-168265626D01*
X141320903Y-168245146D01*
X141601415Y-168184125D01*
X141870388Y-168083803D01*
X142122345Y-167946224D01*
X142352159Y-167774188D01*
X142555150Y-167571197D01*
X142727186Y-167341383D01*
X142864765Y-167089426D01*
X142965087Y-166820453D01*
X143026108Y-166539941D01*
X143046588Y-166253600D01*
X143026108Y-165967259D01*
X142965087Y-165686747D01*
X142864765Y-165417774D01*
X142727186Y-165165817D01*
X142555150Y-164936003D01*
X142555147Y-164936000D01*
X142555145Y-164935997D01*
X142352164Y-164733016D01*
X142122350Y-164560980D01*
X142122344Y-164560975D01*
X141870391Y-164423398D01*
X141870388Y-164423397D01*
X141601418Y-164323076D01*
X141601417Y-164323075D01*
X141601415Y-164323075D01*
X141320903Y-164262054D01*
X141320899Y-164262053D01*
X141320895Y-164262053D01*
X141034562Y-164241574D01*
X140748228Y-164262053D01*
X140748222Y-164262053D01*
X140748221Y-164262054D01*
X140467709Y-164323075D01*
X140467705Y-164323076D01*
X140198735Y-164423397D01*
X140198732Y-164423398D01*
X139946779Y-164560975D01*
X139946773Y-164560980D01*
X139716959Y-164733016D01*
X139513978Y-164935997D01*
X139341942Y-165165811D01*
X139341937Y-165165817D01*
X139204360Y-165417770D01*
X139204359Y-165417773D01*
X139104038Y-165686743D01*
X139104037Y-165686747D01*
X139043016Y-165967260D01*
X139043015Y-165967266D01*
X139022536Y-166253600D01*
X134001600Y-166253600D01*
X134001600Y-153818016D01*
X136750600Y-153818016D01*
X136750600Y-154189183D01*
X136782949Y-154558932D01*
X136782949Y-154558934D01*
X136847398Y-154924445D01*
X136943463Y-155282960D01*
X136943466Y-155282972D01*
X137070413Y-155631755D01*
X137227263Y-155968121D01*
X137412850Y-156289568D01*
X137625722Y-156593582D01*
X137625729Y-156593590D01*
X137625739Y-156593605D01*
X137864317Y-156877932D01*
X137864323Y-156877939D01*
X138126760Y-157140376D01*
X138126766Y-157140381D01*
X138126768Y-157140383D01*
X138411095Y-157378961D01*
X138411111Y-157378972D01*
X138411117Y-157378977D01*
X138613323Y-157520562D01*
X138715132Y-157591850D01*
X139036568Y-157777431D01*
X139036574Y-157777434D01*
X139036578Y-157777436D01*
X139372944Y-157934286D01*
X139372955Y-157934291D01*
X139721732Y-158061235D01*
X140035672Y-158145355D01*
X140080254Y-158157301D01*
X140344188Y-158203839D01*
X140445770Y-158221751D01*
X140737096Y-158247238D01*
X140815517Y-158254100D01*
X140815519Y-158254100D01*
X141186683Y-158254100D01*
X141251381Y-158248439D01*
X141556430Y-158221751D01*
X141678271Y-158200267D01*
X141921945Y-158157301D01*
X141921951Y-158157299D01*
X141921953Y-158157299D01*
X142280468Y-158061235D01*
X142629245Y-157934291D01*
X142965632Y-157777431D01*
X143287068Y-157591850D01*
X143591105Y-157378961D01*
X143875432Y-157140383D01*
X144137883Y-156877932D01*
X144376461Y-156593605D01*
X144589350Y-156289568D01*
X144774931Y-155968132D01*
X144931791Y-155631745D01*
X145058735Y-155282968D01*
X145154799Y-154924453D01*
X145154799Y-154924451D01*
X145154801Y-154924445D01*
X145219250Y-154558934D01*
X145219251Y-154558930D01*
X145251600Y-154189181D01*
X145251600Y-153818019D01*
X145251600Y-153818016D01*
X151750600Y-153818016D01*
X151750600Y-154189183D01*
X151782949Y-154558932D01*
X151782949Y-154558934D01*
X151847398Y-154924445D01*
X151943463Y-155282960D01*
X151943466Y-155282972D01*
X152070413Y-155631755D01*
X152227263Y-155968121D01*
X152412850Y-156289568D01*
X152625722Y-156593582D01*
X152625729Y-156593590D01*
X152625739Y-156593605D01*
X152864317Y-156877932D01*
X152864323Y-156877939D01*
X153126760Y-157140376D01*
X153126766Y-157140381D01*
X153126768Y-157140383D01*
X153411095Y-157378961D01*
X153411111Y-157378972D01*
X153411117Y-157378977D01*
X153613323Y-157520562D01*
X153715132Y-157591850D01*
X154036568Y-157777431D01*
X154036574Y-157777434D01*
X154036578Y-157777436D01*
X154372944Y-157934286D01*
X154372955Y-157934291D01*
X154721732Y-158061235D01*
X155035672Y-158145355D01*
X155080254Y-158157301D01*
X155344188Y-158203839D01*
X155445770Y-158221751D01*
X155737096Y-158247238D01*
X155815517Y-158254100D01*
X155815519Y-158254100D01*
X156186683Y-158254100D01*
X156251381Y-158248439D01*
X156556430Y-158221751D01*
X156678271Y-158200267D01*
X156921945Y-158157301D01*
X156921951Y-158157299D01*
X156921953Y-158157299D01*
X157280468Y-158061235D01*
X157629245Y-157934291D01*
X157965632Y-157777431D01*
X158287068Y-157591850D01*
X158591105Y-157378961D01*
X158875432Y-157140383D01*
X159137883Y-156877932D01*
X159376461Y-156593605D01*
X159589350Y-156289568D01*
X159774931Y-155968132D01*
X159931791Y-155631745D01*
X160058735Y-155282968D01*
X160154799Y-154924453D01*
X160154799Y-154924451D01*
X160154801Y-154924445D01*
X160219250Y-154558934D01*
X160219251Y-154558930D01*
X160251600Y-154189181D01*
X160251600Y-153818019D01*
X160219251Y-153448270D01*
X160210621Y-153399329D01*
X160154801Y-153082754D01*
X160142855Y-153038172D01*
X160058735Y-152724232D01*
X159931791Y-152375455D01*
X159774931Y-152039068D01*
X159589350Y-151717632D01*
X159518062Y-151615823D01*
X159376477Y-151413617D01*
X159376472Y-151413611D01*
X159376461Y-151413595D01*
X159137883Y-151129268D01*
X159137881Y-151129266D01*
X159137876Y-151129260D01*
X158875439Y-150866823D01*
X158875432Y-150866817D01*
X158591105Y-150628239D01*
X158591090Y-150628229D01*
X158591082Y-150628222D01*
X158287068Y-150415350D01*
X157965632Y-150229769D01*
X157965628Y-150229767D01*
X157965621Y-150229763D01*
X157629255Y-150072913D01*
X157629248Y-150072910D01*
X157629245Y-150072909D01*
X157475282Y-150016871D01*
X157280472Y-149945966D01*
X157280468Y-149945965D01*
X157228978Y-149932168D01*
X156921945Y-149849898D01*
X156556433Y-149785449D01*
X156186683Y-149753100D01*
X156186681Y-149753100D01*
X155815519Y-149753100D01*
X155815517Y-149753100D01*
X155445767Y-149785449D01*
X155445765Y-149785449D01*
X155080254Y-149849898D01*
X154721739Y-149945963D01*
X154721727Y-149945966D01*
X154372944Y-150072913D01*
X154036578Y-150229763D01*
X153715131Y-150415350D01*
X153411117Y-150628222D01*
X153411101Y-150628234D01*
X153411095Y-150628239D01*
X153272463Y-150744564D01*
X153126760Y-150866823D01*
X152864323Y-151129260D01*
X152742064Y-151274963D01*
X152625739Y-151413595D01*
X152625738Y-151413597D01*
X152625722Y-151413617D01*
X152412850Y-151717631D01*
X152227263Y-152039078D01*
X152070413Y-152375444D01*
X151943466Y-152724227D01*
X151943463Y-152724239D01*
X151847398Y-153082754D01*
X151782949Y-153448265D01*
X151782949Y-153448267D01*
X151750600Y-153818016D01*
X145251600Y-153818016D01*
X145219251Y-153448270D01*
X145210621Y-153399329D01*
X145154801Y-153082754D01*
X145142855Y-153038172D01*
X145058735Y-152724232D01*
X144931791Y-152375455D01*
X144774931Y-152039068D01*
X144589350Y-151717632D01*
X144518062Y-151615823D01*
X144376477Y-151413617D01*
X144376472Y-151413611D01*
X144376461Y-151413595D01*
X144137883Y-151129268D01*
X144137881Y-151129266D01*
X144137876Y-151129260D01*
X143875439Y-150866823D01*
X143875432Y-150866817D01*
X143591105Y-150628239D01*
X143591090Y-150628229D01*
X143591082Y-150628222D01*
X143287068Y-150415350D01*
X142965632Y-150229769D01*
X142965628Y-150229767D01*
X142965621Y-150229763D01*
X142629255Y-150072913D01*
X142629248Y-150072910D01*
X142629245Y-150072909D01*
X142475282Y-150016871D01*
X142280472Y-149945966D01*
X142280468Y-149945965D01*
X142228978Y-149932168D01*
X141921945Y-149849898D01*
X141556433Y-149785449D01*
X141186683Y-149753100D01*
X141186681Y-149753100D01*
X140815519Y-149753100D01*
X140815517Y-149753100D01*
X140445767Y-149785449D01*
X140445765Y-149785449D01*
X140080254Y-149849898D01*
X139721739Y-149945963D01*
X139721727Y-149945966D01*
X139372944Y-150072913D01*
X139036578Y-150229763D01*
X138715131Y-150415350D01*
X138411117Y-150628222D01*
X138411101Y-150628234D01*
X138411095Y-150628239D01*
X138272463Y-150744564D01*
X138126760Y-150866823D01*
X137864323Y-151129260D01*
X137742064Y-151274963D01*
X137625739Y-151413595D01*
X137625738Y-151413597D01*
X137625722Y-151413617D01*
X137412850Y-151717631D01*
X137227263Y-152039078D01*
X137070413Y-152375444D01*
X136943466Y-152724227D01*
X136943463Y-152724239D01*
X136847398Y-153082754D01*
X136782949Y-153448265D01*
X136782949Y-153448267D01*
X136750600Y-153818016D01*
X134001600Y-153818016D01*
X134001600Y-139818016D01*
X136750600Y-139818016D01*
X136750600Y-140189183D01*
X136782949Y-140558932D01*
X136782949Y-140558934D01*
X136847398Y-140924445D01*
X136943463Y-141282960D01*
X136943466Y-141282972D01*
X137070413Y-141631755D01*
X137227263Y-141968121D01*
X137412850Y-142289568D01*
X137625722Y-142593582D01*
X137625729Y-142593590D01*
X137625739Y-142593605D01*
X137864317Y-142877932D01*
X137864323Y-142877939D01*
X138126760Y-143140376D01*
X138126766Y-143140381D01*
X138126768Y-143140383D01*
X138411095Y-143378961D01*
X138411111Y-143378972D01*
X138411117Y-143378977D01*
X138613323Y-143520562D01*
X138715132Y-143591850D01*
X139036568Y-143777431D01*
X139036574Y-143777434D01*
X139036578Y-143777436D01*
X139372944Y-143934286D01*
X139372955Y-143934291D01*
X139721732Y-144061235D01*
X140035672Y-144145355D01*
X140080254Y-144157301D01*
X140344188Y-144203839D01*
X140445770Y-144221751D01*
X140737096Y-144247238D01*
X140815517Y-144254100D01*
X140815519Y-144254100D01*
X141186683Y-144254100D01*
X141251381Y-144248439D01*
X141556430Y-144221751D01*
X141678271Y-144200267D01*
X141921945Y-144157301D01*
X141921951Y-144157299D01*
X141921953Y-144157299D01*
X142280468Y-144061235D01*
X142629245Y-143934291D01*
X142965632Y-143777431D01*
X143287068Y-143591850D01*
X143591105Y-143378961D01*
X143875432Y-143140383D01*
X144137883Y-142877932D01*
X144376461Y-142593605D01*
X144589350Y-142289568D01*
X144774931Y-141968132D01*
X144931791Y-141631745D01*
X145058735Y-141282968D01*
X145154799Y-140924453D01*
X145154799Y-140924451D01*
X145154801Y-140924445D01*
X145219250Y-140558934D01*
X145219251Y-140558930D01*
X145251600Y-140189181D01*
X145251600Y-139818019D01*
X145251600Y-139818016D01*
X151750600Y-139818016D01*
X151750600Y-140189183D01*
X151782949Y-140558932D01*
X151782949Y-140558934D01*
X151847398Y-140924445D01*
X151943463Y-141282960D01*
X151943466Y-141282972D01*
X152070413Y-141631755D01*
X152227263Y-141968121D01*
X152412850Y-142289568D01*
X152625722Y-142593582D01*
X152625729Y-142593590D01*
X152625739Y-142593605D01*
X152864317Y-142877932D01*
X152864323Y-142877939D01*
X153126760Y-143140376D01*
X153126766Y-143140381D01*
X153126768Y-143140383D01*
X153411095Y-143378961D01*
X153411111Y-143378972D01*
X153411117Y-143378977D01*
X153613323Y-143520562D01*
X153715132Y-143591850D01*
X154036568Y-143777431D01*
X154036574Y-143777434D01*
X154036578Y-143777436D01*
X154372944Y-143934286D01*
X154372955Y-143934291D01*
X154721732Y-144061235D01*
X155035672Y-144145355D01*
X155080254Y-144157301D01*
X155344188Y-144203839D01*
X155445770Y-144221751D01*
X155737096Y-144247238D01*
X155815517Y-144254100D01*
X155815519Y-144254100D01*
X156186683Y-144254100D01*
X156251381Y-144248439D01*
X156556430Y-144221751D01*
X156678271Y-144200267D01*
X156921945Y-144157301D01*
X156921951Y-144157299D01*
X156921953Y-144157299D01*
X157280468Y-144061235D01*
X157629245Y-143934291D01*
X157965632Y-143777431D01*
X158287068Y-143591850D01*
X158591105Y-143378961D01*
X158875432Y-143140383D01*
X159137883Y-142877932D01*
X159376461Y-142593605D01*
X159589350Y-142289568D01*
X159774931Y-141968132D01*
X159931791Y-141631745D01*
X160058735Y-141282968D01*
X160154799Y-140924453D01*
X160154799Y-140924451D01*
X160154801Y-140924445D01*
X160219250Y-140558934D01*
X160219251Y-140558930D01*
X160251600Y-140189181D01*
X160251600Y-139818019D01*
X160219251Y-139448270D01*
X160210621Y-139399329D01*
X160154801Y-139082754D01*
X160142855Y-139038172D01*
X160058735Y-138724232D01*
X159931791Y-138375455D01*
X159774931Y-138039068D01*
X159589350Y-137717632D01*
X159518062Y-137615823D01*
X159376477Y-137413617D01*
X159376472Y-137413611D01*
X159376461Y-137413595D01*
X159137883Y-137129268D01*
X159137881Y-137129266D01*
X159137876Y-137129260D01*
X158875439Y-136866823D01*
X158875432Y-136866817D01*
X158591105Y-136628239D01*
X158591090Y-136628229D01*
X158591082Y-136628222D01*
X158287068Y-136415350D01*
X157965632Y-136229769D01*
X157965628Y-136229767D01*
X157965621Y-136229763D01*
X157629255Y-136072913D01*
X157629248Y-136072910D01*
X157629245Y-136072909D01*
X157475282Y-136016871D01*
X157280472Y-135945966D01*
X157280468Y-135945965D01*
X157228978Y-135932168D01*
X156921945Y-135849898D01*
X156556433Y-135785449D01*
X156186683Y-135753100D01*
X156186681Y-135753100D01*
X155815519Y-135753100D01*
X155815517Y-135753100D01*
X155445767Y-135785449D01*
X155445765Y-135785449D01*
X155080254Y-135849898D01*
X154721739Y-135945963D01*
X154721727Y-135945966D01*
X154372944Y-136072913D01*
X154036578Y-136229763D01*
X153715131Y-136415350D01*
X153411117Y-136628222D01*
X153411101Y-136628234D01*
X153411095Y-136628239D01*
X153272463Y-136744564D01*
X153126760Y-136866823D01*
X152864323Y-137129260D01*
X152742064Y-137274963D01*
X152625739Y-137413595D01*
X152625738Y-137413597D01*
X152625722Y-137413617D01*
X152412850Y-137717631D01*
X152227263Y-138039078D01*
X152070413Y-138375444D01*
X151943466Y-138724227D01*
X151943463Y-138724239D01*
X151847398Y-139082754D01*
X151782949Y-139448265D01*
X151782949Y-139448267D01*
X151750600Y-139818016D01*
X145251600Y-139818016D01*
X145219251Y-139448270D01*
X145210621Y-139399329D01*
X145154801Y-139082754D01*
X145142855Y-139038172D01*
X145058735Y-138724232D01*
X144931791Y-138375455D01*
X144774931Y-138039068D01*
X144589350Y-137717632D01*
X144518062Y-137615823D01*
X144376477Y-137413617D01*
X144376472Y-137413611D01*
X144376461Y-137413595D01*
X144137883Y-137129268D01*
X144137881Y-137129266D01*
X144137876Y-137129260D01*
X143875439Y-136866823D01*
X143875432Y-136866817D01*
X143591105Y-136628239D01*
X143591090Y-136628229D01*
X143591082Y-136628222D01*
X143287068Y-136415350D01*
X142965632Y-136229769D01*
X142965628Y-136229767D01*
X142965621Y-136229763D01*
X142629255Y-136072913D01*
X142629248Y-136072910D01*
X142629245Y-136072909D01*
X142475282Y-136016871D01*
X142280472Y-135945966D01*
X142280468Y-135945965D01*
X142228978Y-135932168D01*
X141921945Y-135849898D01*
X141556433Y-135785449D01*
X141186683Y-135753100D01*
X141186681Y-135753100D01*
X140815519Y-135753100D01*
X140815517Y-135753100D01*
X140445767Y-135785449D01*
X140445765Y-135785449D01*
X140080254Y-135849898D01*
X139721739Y-135945963D01*
X139721727Y-135945966D01*
X139372944Y-136072913D01*
X139036578Y-136229763D01*
X138715131Y-136415350D01*
X138411117Y-136628222D01*
X138411101Y-136628234D01*
X138411095Y-136628239D01*
X138272463Y-136744564D01*
X138126760Y-136866823D01*
X137864323Y-137129260D01*
X137742064Y-137274963D01*
X137625739Y-137413595D01*
X137625738Y-137413597D01*
X137625722Y-137413617D01*
X137412850Y-137717631D01*
X137227263Y-138039078D01*
X137070413Y-138375444D01*
X136943466Y-138724227D01*
X136943463Y-138724239D01*
X136847398Y-139082754D01*
X136782949Y-139448265D01*
X136782949Y-139448267D01*
X136750600Y-139818016D01*
X134001600Y-139818016D01*
X134001600Y-125818016D01*
X136750600Y-125818016D01*
X136750600Y-126189183D01*
X136782949Y-126558932D01*
X136782949Y-126558934D01*
X136847398Y-126924445D01*
X136943463Y-127282960D01*
X136943466Y-127282972D01*
X137070413Y-127631755D01*
X137227263Y-127968121D01*
X137412850Y-128289568D01*
X137625722Y-128593582D01*
X137625729Y-128593590D01*
X137625739Y-128593605D01*
X137864317Y-128877932D01*
X137864323Y-128877939D01*
X138126760Y-129140376D01*
X138126766Y-129140381D01*
X138126768Y-129140383D01*
X138411095Y-129378961D01*
X138411111Y-129378972D01*
X138411117Y-129378977D01*
X138613323Y-129520562D01*
X138715132Y-129591850D01*
X139036568Y-129777431D01*
X139036574Y-129777434D01*
X139036578Y-129777436D01*
X139372944Y-129934286D01*
X139372955Y-129934291D01*
X139721732Y-130061235D01*
X140035672Y-130145355D01*
X140080254Y-130157301D01*
X140344188Y-130203839D01*
X140445770Y-130221751D01*
X140737096Y-130247238D01*
X140815517Y-130254100D01*
X140815519Y-130254100D01*
X141186683Y-130254100D01*
X141251381Y-130248439D01*
X141556430Y-130221751D01*
X141678271Y-130200267D01*
X141921945Y-130157301D01*
X141921951Y-130157299D01*
X141921953Y-130157299D01*
X142280468Y-130061235D01*
X142629245Y-129934291D01*
X142965632Y-129777431D01*
X143287068Y-129591850D01*
X143591105Y-129378961D01*
X143875432Y-129140383D01*
X144137883Y-128877932D01*
X144376461Y-128593605D01*
X144589350Y-128289568D01*
X144774931Y-127968132D01*
X144931791Y-127631745D01*
X145058735Y-127282968D01*
X145154799Y-126924453D01*
X145154799Y-126924451D01*
X145154801Y-126924445D01*
X145219250Y-126558934D01*
X145219251Y-126558930D01*
X145251600Y-126189181D01*
X145251600Y-125818019D01*
X145251600Y-125818016D01*
X151750600Y-125818016D01*
X151750600Y-126189183D01*
X151782949Y-126558932D01*
X151782949Y-126558934D01*
X151847398Y-126924445D01*
X151943463Y-127282960D01*
X151943466Y-127282972D01*
X152070413Y-127631755D01*
X152227263Y-127968121D01*
X152412850Y-128289568D01*
X152625722Y-128593582D01*
X152625729Y-128593590D01*
X152625739Y-128593605D01*
X152864317Y-128877932D01*
X152864323Y-128877939D01*
X153126760Y-129140376D01*
X153126766Y-129140381D01*
X153126768Y-129140383D01*
X153411095Y-129378961D01*
X153411111Y-129378972D01*
X153411117Y-129378977D01*
X153613323Y-129520562D01*
X153715132Y-129591850D01*
X154036568Y-129777431D01*
X154036574Y-129777434D01*
X154036578Y-129777436D01*
X154372944Y-129934286D01*
X154372955Y-129934291D01*
X154721732Y-130061235D01*
X155035672Y-130145355D01*
X155080254Y-130157301D01*
X155344188Y-130203839D01*
X155445770Y-130221751D01*
X155737096Y-130247238D01*
X155815517Y-130254100D01*
X155815519Y-130254100D01*
X156186683Y-130254100D01*
X156251381Y-130248439D01*
X156556430Y-130221751D01*
X156678271Y-130200267D01*
X156921945Y-130157301D01*
X156921951Y-130157299D01*
X156921953Y-130157299D01*
X157280468Y-130061235D01*
X157629245Y-129934291D01*
X157965632Y-129777431D01*
X158287068Y-129591850D01*
X158591105Y-129378961D01*
X158875432Y-129140383D01*
X159137883Y-128877932D01*
X159376461Y-128593605D01*
X159589350Y-128289568D01*
X159774931Y-127968132D01*
X159931791Y-127631745D01*
X160058735Y-127282968D01*
X160154799Y-126924453D01*
X160154799Y-126924451D01*
X160154801Y-126924445D01*
X160219250Y-126558934D01*
X160219251Y-126558930D01*
X160251600Y-126189181D01*
X160251600Y-125818019D01*
X160219251Y-125448270D01*
X160210621Y-125399329D01*
X160154801Y-125082754D01*
X160142855Y-125038172D01*
X160058735Y-124724232D01*
X159931791Y-124375455D01*
X159774931Y-124039068D01*
X159589350Y-123717632D01*
X159518062Y-123615823D01*
X159376477Y-123413617D01*
X159376472Y-123413611D01*
X159376461Y-123413595D01*
X159137883Y-123129268D01*
X159137881Y-123129266D01*
X159137876Y-123129260D01*
X158875439Y-122866823D01*
X158875432Y-122866817D01*
X158591105Y-122628239D01*
X158591090Y-122628229D01*
X158591082Y-122628222D01*
X158287068Y-122415350D01*
X157965632Y-122229769D01*
X157965628Y-122229767D01*
X157965621Y-122229763D01*
X157629255Y-122072913D01*
X157629248Y-122072910D01*
X157629245Y-122072909D01*
X157475282Y-122016871D01*
X157280472Y-121945966D01*
X157280468Y-121945965D01*
X157228978Y-121932168D01*
X156921945Y-121849898D01*
X156556433Y-121785449D01*
X156186683Y-121753100D01*
X156186681Y-121753100D01*
X155815519Y-121753100D01*
X155815517Y-121753100D01*
X155445767Y-121785449D01*
X155445765Y-121785449D01*
X155080254Y-121849898D01*
X154721739Y-121945963D01*
X154721727Y-121945966D01*
X154372944Y-122072913D01*
X154036578Y-122229763D01*
X153715131Y-122415350D01*
X153411117Y-122628222D01*
X153411101Y-122628234D01*
X153411095Y-122628239D01*
X153272463Y-122744564D01*
X153126760Y-122866823D01*
X152864323Y-123129260D01*
X152742064Y-123274963D01*
X152625739Y-123413595D01*
X152625738Y-123413597D01*
X152625722Y-123413617D01*
X152412850Y-123717631D01*
X152227263Y-124039078D01*
X152070413Y-124375444D01*
X151943466Y-124724227D01*
X151943463Y-124724239D01*
X151847398Y-125082754D01*
X151782949Y-125448265D01*
X151782949Y-125448267D01*
X151750600Y-125818016D01*
X145251600Y-125818016D01*
X145219251Y-125448270D01*
X145210621Y-125399329D01*
X145154801Y-125082754D01*
X145142855Y-125038172D01*
X145058735Y-124724232D01*
X144931791Y-124375455D01*
X144774931Y-124039068D01*
X144589350Y-123717632D01*
X144518062Y-123615823D01*
X144376477Y-123413617D01*
X144376472Y-123413611D01*
X144376461Y-123413595D01*
X144137883Y-123129268D01*
X144137881Y-123129266D01*
X144137876Y-123129260D01*
X143875439Y-122866823D01*
X143875432Y-122866817D01*
X143591105Y-122628239D01*
X143591090Y-122628229D01*
X143591082Y-122628222D01*
X143287068Y-122415350D01*
X142965632Y-122229769D01*
X142965628Y-122229767D01*
X142965621Y-122229763D01*
X142629255Y-122072913D01*
X142629248Y-122072910D01*
X142629245Y-122072909D01*
X142475282Y-122016871D01*
X142280472Y-121945966D01*
X142280468Y-121945965D01*
X142228978Y-121932168D01*
X141921945Y-121849898D01*
X141556433Y-121785449D01*
X141186683Y-121753100D01*
X141186681Y-121753100D01*
X140815519Y-121753100D01*
X140815517Y-121753100D01*
X140445767Y-121785449D01*
X140445765Y-121785449D01*
X140080254Y-121849898D01*
X139721739Y-121945963D01*
X139721727Y-121945966D01*
X139372944Y-122072913D01*
X139036578Y-122229763D01*
X138715131Y-122415350D01*
X138411117Y-122628222D01*
X138411101Y-122628234D01*
X138411095Y-122628239D01*
X138272463Y-122744564D01*
X138126760Y-122866823D01*
X137864323Y-123129260D01*
X137742064Y-123274963D01*
X137625739Y-123413595D01*
X137625738Y-123413597D01*
X137625722Y-123413617D01*
X137412850Y-123717631D01*
X137227263Y-124039078D01*
X137070413Y-124375444D01*
X136943466Y-124724227D01*
X136943463Y-124724239D01*
X136847398Y-125082754D01*
X136782949Y-125448265D01*
X136782949Y-125448267D01*
X136750600Y-125818016D01*
X134001600Y-125818016D01*
X134001600Y-104807071D01*
X144500600Y-104807071D01*
X144500600Y-105200128D01*
X144539125Y-105591295D01*
X144615806Y-105976800D01*
X144615810Y-105976815D01*
X144729910Y-106352953D01*
X144729912Y-106352958D01*
X144729914Y-106352964D01*
X144880328Y-106716095D01*
X145065614Y-107062743D01*
X145283996Y-107389574D01*
X145283999Y-107389577D01*
X145533345Y-107693406D01*
X145533351Y-107693413D01*
X145811286Y-107971348D01*
X145811293Y-107971354D01*
X146115122Y-108220700D01*
X146115125Y-108220703D01*
X146115131Y-108220707D01*
X146441951Y-108439082D01*
X146441953Y-108439083D01*
X146441956Y-108439085D01*
X146573643Y-108509473D01*
X146788603Y-108624371D01*
X147151735Y-108774785D01*
X147151734Y-108774785D01*
X147151737Y-108774786D01*
X147151747Y-108774790D01*
X147527885Y-108888890D01*
X147527894Y-108888891D01*
X147527899Y-108888893D01*
X147630775Y-108909356D01*
X147913397Y-108965573D01*
X147913402Y-108965573D01*
X147913405Y-108965574D01*
X147913403Y-108965574D01*
X148112661Y-108985198D01*
X148304568Y-109004100D01*
X148304572Y-109004100D01*
X148697628Y-109004100D01*
X148697632Y-109004100D01*
X148951914Y-108979055D01*
X149088795Y-108965574D01*
X149088797Y-108965573D01*
X149088803Y-108965573D01*
X149474315Y-108888890D01*
X149850453Y-108774790D01*
X150213597Y-108624371D01*
X150560249Y-108439082D01*
X150887069Y-108220707D01*
X151190912Y-107971350D01*
X151468850Y-107693412D01*
X151718207Y-107389569D01*
X151936582Y-107062749D01*
X152121871Y-106716097D01*
X152272290Y-106352953D01*
X152386390Y-105976815D01*
X152463073Y-105591303D01*
X152501600Y-105200132D01*
X152501600Y-104807068D01*
X152463073Y-104415897D01*
X152386390Y-104030385D01*
X152272290Y-103654247D01*
X152121871Y-103291103D01*
X151936582Y-102944451D01*
X151718207Y-102617631D01*
X151718203Y-102617625D01*
X151718200Y-102617622D01*
X151468854Y-102313793D01*
X151468848Y-102313786D01*
X151190913Y-102035851D01*
X151190906Y-102035845D01*
X150887077Y-101786499D01*
X150887074Y-101786496D01*
X150560243Y-101568114D01*
X150213595Y-101382828D01*
X149850464Y-101232414D01*
X149850465Y-101232414D01*
X149850456Y-101232411D01*
X149850453Y-101232410D01*
X149646367Y-101170501D01*
X149474316Y-101118310D01*
X149474300Y-101118306D01*
X149088794Y-101041625D01*
X149088796Y-101041625D01*
X148788038Y-101012004D01*
X148697632Y-101003100D01*
X148304568Y-101003100D01*
X148214161Y-101012004D01*
X147913404Y-101041625D01*
X147527899Y-101118306D01*
X147527883Y-101118310D01*
X147291776Y-101189932D01*
X147151747Y-101232410D01*
X147151743Y-101232411D01*
X147151735Y-101232414D01*
X146788604Y-101382828D01*
X146441956Y-101568114D01*
X146115125Y-101786496D01*
X146115122Y-101786499D01*
X145811293Y-102035845D01*
X145811286Y-102035851D01*
X145533351Y-102313786D01*
X145533345Y-102313793D01*
X145283999Y-102617622D01*
X145283996Y-102617625D01*
X145065614Y-102944456D01*
X144880328Y-103291104D01*
X144729914Y-103654235D01*
X144615810Y-104030383D01*
X144615806Y-104030399D01*
X144539125Y-104415904D01*
X144500600Y-104807071D01*
X134001600Y-104807071D01*
X134001600Y-79807071D01*
X144500600Y-79807071D01*
X144500600Y-80200128D01*
X144539125Y-80591295D01*
X144615806Y-80976800D01*
X144615810Y-80976815D01*
X144729910Y-81352953D01*
X144729912Y-81352958D01*
X144729914Y-81352964D01*
X144880328Y-81716095D01*
X145065614Y-82062743D01*
X145283996Y-82389574D01*
X145283999Y-82389577D01*
X145533345Y-82693406D01*
X145533351Y-82693413D01*
X145811286Y-82971348D01*
X145811293Y-82971354D01*
X146115122Y-83220700D01*
X146115125Y-83220703D01*
X146115131Y-83220707D01*
X146441951Y-83439082D01*
X146441953Y-83439083D01*
X146441956Y-83439085D01*
X146573643Y-83509473D01*
X146788603Y-83624371D01*
X147151735Y-83774785D01*
X147151734Y-83774785D01*
X147151737Y-83774786D01*
X147151747Y-83774790D01*
X147527885Y-83888890D01*
X147527894Y-83888891D01*
X147527899Y-83888893D01*
X147630775Y-83909356D01*
X147913397Y-83965573D01*
X147913402Y-83965573D01*
X147913405Y-83965574D01*
X147913403Y-83965574D01*
X148112661Y-83985198D01*
X148304568Y-84004100D01*
X148304572Y-84004100D01*
X148697628Y-84004100D01*
X148697632Y-84004100D01*
X148951914Y-83979055D01*
X149088795Y-83965574D01*
X149088797Y-83965573D01*
X149088803Y-83965573D01*
X149474315Y-83888890D01*
X149850453Y-83774790D01*
X150213597Y-83624371D01*
X150560249Y-83439082D01*
X150887069Y-83220707D01*
X151190912Y-82971350D01*
X151468850Y-82693412D01*
X151718207Y-82389569D01*
X151936582Y-82062749D01*
X152121871Y-81716097D01*
X152272290Y-81352953D01*
X152386390Y-80976815D01*
X152463073Y-80591303D01*
X152501600Y-80200132D01*
X152501600Y-79807068D01*
X152463073Y-79415897D01*
X152386390Y-79030385D01*
X152272290Y-78654247D01*
X152121871Y-78291103D01*
X151936582Y-77944451D01*
X151718207Y-77617631D01*
X151718203Y-77617625D01*
X151718200Y-77617622D01*
X151468854Y-77313793D01*
X151468848Y-77313786D01*
X151190913Y-77035851D01*
X151190906Y-77035845D01*
X150887077Y-76786499D01*
X150887074Y-76786496D01*
X150560243Y-76568114D01*
X150213595Y-76382828D01*
X149850464Y-76232414D01*
X149850465Y-76232414D01*
X149850456Y-76232411D01*
X149850453Y-76232410D01*
X149646367Y-76170501D01*
X149474316Y-76118310D01*
X149474300Y-76118306D01*
X149088794Y-76041625D01*
X149088796Y-76041625D01*
X148788038Y-76012004D01*
X148697632Y-76003100D01*
X148304568Y-76003100D01*
X148214161Y-76012004D01*
X147913404Y-76041625D01*
X147527899Y-76118306D01*
X147527883Y-76118310D01*
X147291776Y-76189932D01*
X147151747Y-76232410D01*
X147151743Y-76232411D01*
X147151735Y-76232414D01*
X146788604Y-76382828D01*
X146441956Y-76568114D01*
X146115125Y-76786496D01*
X146115122Y-76786499D01*
X145811293Y-77035845D01*
X145811286Y-77035851D01*
X145533351Y-77313786D01*
X145533345Y-77313793D01*
X145283999Y-77617622D01*
X145283996Y-77617625D01*
X145065614Y-77944456D01*
X144880328Y-78291104D01*
X144729914Y-78654235D01*
X144615810Y-79030383D01*
X144615806Y-79030399D01*
X144539125Y-79415904D01*
X144500600Y-79807071D01*
X134001600Y-79807071D01*
X134001600Y-54694886D01*
X144520817Y-54694886D01*
X144520817Y-55087943D01*
X144559342Y-55479110D01*
X144636023Y-55864615D01*
X144636027Y-55864630D01*
X144750127Y-56240768D01*
X144750129Y-56240773D01*
X144750131Y-56240779D01*
X144900545Y-56603910D01*
X145085831Y-56950558D01*
X145304213Y-57277389D01*
X145304216Y-57277392D01*
X145553562Y-57581221D01*
X145553568Y-57581228D01*
X145831503Y-57859163D01*
X145831510Y-57859169D01*
X146135339Y-58108515D01*
X146135342Y-58108518D01*
X146135348Y-58108522D01*
X146462168Y-58326897D01*
X146462170Y-58326898D01*
X146462173Y-58326900D01*
X146593860Y-58397288D01*
X146808820Y-58512186D01*
X147171952Y-58662600D01*
X147171951Y-58662600D01*
X147171954Y-58662601D01*
X147171964Y-58662605D01*
X147548102Y-58776705D01*
X147548111Y-58776706D01*
X147548116Y-58776708D01*
X147650992Y-58797171D01*
X147933614Y-58853388D01*
X147933619Y-58853388D01*
X147933622Y-58853389D01*
X147933620Y-58853389D01*
X148132878Y-58873013D01*
X148324785Y-58891915D01*
X148324789Y-58891915D01*
X148717845Y-58891915D01*
X148717849Y-58891915D01*
X148972131Y-58866870D01*
X149109012Y-58853389D01*
X149109014Y-58853388D01*
X149109020Y-58853388D01*
X149494532Y-58776705D01*
X149870670Y-58662605D01*
X150233814Y-58512186D01*
X150580466Y-58326897D01*
X150907286Y-58108522D01*
X151211129Y-57859165D01*
X151489067Y-57581227D01*
X151738424Y-57277384D01*
X151956799Y-56950564D01*
X152142088Y-56603912D01*
X152292507Y-56240768D01*
X152406607Y-55864630D01*
X152483290Y-55479118D01*
X152521817Y-55087947D01*
X152521817Y-54694883D01*
X152483290Y-54303712D01*
X152406607Y-53918200D01*
X152292507Y-53542062D01*
X152142088Y-53178918D01*
X151956799Y-52832266D01*
X151738424Y-52505446D01*
X151738420Y-52505440D01*
X151738417Y-52505437D01*
X151489071Y-52201608D01*
X151489065Y-52201601D01*
X151211130Y-51923666D01*
X151211123Y-51923660D01*
X150907294Y-51674314D01*
X150907291Y-51674311D01*
X150580460Y-51455929D01*
X150233812Y-51270643D01*
X149870681Y-51120229D01*
X149870682Y-51120229D01*
X149870673Y-51120226D01*
X149870670Y-51120225D01*
X149666584Y-51058316D01*
X149494533Y-51006125D01*
X149494517Y-51006121D01*
X149109011Y-50929440D01*
X149109013Y-50929440D01*
X148808255Y-50899819D01*
X148717849Y-50890915D01*
X148324785Y-50890915D01*
X148234378Y-50899819D01*
X147933621Y-50929440D01*
X147548116Y-51006121D01*
X147548100Y-51006125D01*
X147311993Y-51077747D01*
X147171964Y-51120225D01*
X147171960Y-51120226D01*
X147171952Y-51120229D01*
X146808821Y-51270643D01*
X146462173Y-51455929D01*
X146135342Y-51674311D01*
X146135339Y-51674314D01*
X145831510Y-51923660D01*
X145831503Y-51923666D01*
X145553568Y-52201601D01*
X145553562Y-52201608D01*
X145304216Y-52505437D01*
X145304213Y-52505440D01*
X145085831Y-52832271D01*
X144900545Y-53178919D01*
X144750131Y-53542050D01*
X144636027Y-53918198D01*
X144636023Y-53918214D01*
X144559342Y-54303719D01*
X144520817Y-54694886D01*
X134001600Y-54694886D01*
X134001600Y-43753600D01*
X139042832Y-43753600D01*
X139063311Y-44039933D01*
X139063312Y-44039939D01*
X139124333Y-44320452D01*
X139124334Y-44320456D01*
X139224655Y-44589426D01*
X139224656Y-44589429D01*
X139362233Y-44841382D01*
X139362238Y-44841388D01*
X139534274Y-45071202D01*
X139737255Y-45274183D01*
X139737258Y-45274185D01*
X139737261Y-45274188D01*
X139967075Y-45446224D01*
X140219032Y-45583803D01*
X140488005Y-45684125D01*
X140768517Y-45745146D01*
X141054858Y-45765626D01*
X141341199Y-45745146D01*
X141621711Y-45684125D01*
X141890684Y-45583803D01*
X142142641Y-45446224D01*
X142372455Y-45274188D01*
X142575446Y-45071197D01*
X142747482Y-44841383D01*
X142885061Y-44589426D01*
X142985383Y-44320453D01*
X143046404Y-44039941D01*
X143066884Y-43753600D01*
X143046404Y-43467259D01*
X142985383Y-43186747D01*
X142885061Y-42917774D01*
X142747482Y-42665817D01*
X142575446Y-42436003D01*
X142575443Y-42436000D01*
X142575441Y-42435997D01*
X142372460Y-42233016D01*
X142142646Y-42060980D01*
X142142640Y-42060975D01*
X141890687Y-41923398D01*
X141890684Y-41923397D01*
X141621714Y-41823076D01*
X141621713Y-41823075D01*
X141621711Y-41823075D01*
X141341199Y-41762054D01*
X141341195Y-41762053D01*
X141341191Y-41762053D01*
X141054858Y-41741574D01*
X140768524Y-41762053D01*
X140768518Y-41762053D01*
X140768517Y-41762054D01*
X140488005Y-41823075D01*
X140488001Y-41823076D01*
X140219031Y-41923397D01*
X140219028Y-41923398D01*
X139967075Y-42060975D01*
X139967069Y-42060980D01*
X139737255Y-42233016D01*
X139534274Y-42435997D01*
X139362238Y-42665811D01*
X139362233Y-42665817D01*
X139224656Y-42917770D01*
X139224655Y-42917773D01*
X139124334Y-43186743D01*
X139124333Y-43186747D01*
X139063312Y-43467260D01*
X139063311Y-43467266D01*
X139042832Y-43753600D01*
X134001600Y-43753600D01*
X134001600Y-41316600D01*
X134019906Y-41272406D01*
X134064100Y-41254100D01*
X162938100Y-41254100D01*
X162982294Y-41272406D01*
G37*
%TD.AperFunction*%
M02*
