%TF.GenerationSoftware,KiCad,Pcbnew,8.0.2*%
%TF.CreationDate,2024-05-21T21:55:27+01:00*%
%TF.ProjectId,panel-vert_mx-2024-03-26,70616e65-6c2d-4766-9572-745f6d782d32,rev?*%
%TF.SameCoordinates,Original*%
%TF.FileFunction,Drillmap*%
%TF.FilePolarity,Positive*%
%FSLAX45Y45*%
G04 Gerber Fmt 4.5, Leading zero omitted, Abs format (unit mm)*
G04 Created by KiCad (PCBNEW 8.0.2) date 2024-05-21 21:55:27*
%MOMM*%
%LPD*%
G01*
G04 APERTURE LIST*
%ADD10C,0.050000*%
%ADD11C,0.200000*%
%ADD12C,0.320000*%
G04 APERTURE END LIST*
D10*
X16350110Y-16925360D02*
X16350110Y-4075360D01*
X13350110Y-16925360D02*
X16350110Y-16925360D01*
X13350110Y-4075360D02*
X13350110Y-16925360D01*
X16350110Y-4075360D02*
X13350110Y-4075360D01*
D11*
D12*
X13943456Y-16465360D02*
X14263456Y-16785360D01*
X14263456Y-16465360D02*
X13943456Y-16785360D01*
X13945486Y-4215360D02*
X14265486Y-4535360D01*
X14265486Y-4215360D02*
X13945486Y-4535360D01*
D11*
X13608387Y-17239344D02*
X13608387Y-17039344D01*
X13608387Y-17039344D02*
X13656006Y-17039344D01*
X13656006Y-17039344D02*
X13684577Y-17048868D01*
X13684577Y-17048868D02*
X13703625Y-17067915D01*
X13703625Y-17067915D02*
X13713149Y-17086963D01*
X13713149Y-17086963D02*
X13722672Y-17125058D01*
X13722672Y-17125058D02*
X13722672Y-17153630D01*
X13722672Y-17153630D02*
X13713149Y-17191725D01*
X13713149Y-17191725D02*
X13703625Y-17210772D01*
X13703625Y-17210772D02*
X13684577Y-17229820D01*
X13684577Y-17229820D02*
X13656006Y-17239344D01*
X13656006Y-17239344D02*
X13608387Y-17239344D01*
X13808387Y-17239344D02*
X13808387Y-17106010D01*
X13808387Y-17144106D02*
X13817911Y-17125058D01*
X13817911Y-17125058D02*
X13827434Y-17115534D01*
X13827434Y-17115534D02*
X13846482Y-17106010D01*
X13846482Y-17106010D02*
X13865530Y-17106010D01*
X13932196Y-17239344D02*
X13932196Y-17106010D01*
X13932196Y-17039344D02*
X13922672Y-17048868D01*
X13922672Y-17048868D02*
X13932196Y-17058391D01*
X13932196Y-17058391D02*
X13941720Y-17048868D01*
X13941720Y-17048868D02*
X13932196Y-17039344D01*
X13932196Y-17039344D02*
X13932196Y-17058391D01*
X14056006Y-17239344D02*
X14036958Y-17229820D01*
X14036958Y-17229820D02*
X14027434Y-17210772D01*
X14027434Y-17210772D02*
X14027434Y-17039344D01*
X14160768Y-17239344D02*
X14141720Y-17229820D01*
X14141720Y-17229820D02*
X14132196Y-17210772D01*
X14132196Y-17210772D02*
X14132196Y-17039344D01*
X14389339Y-17239344D02*
X14389339Y-17039344D01*
X14389339Y-17039344D02*
X14456006Y-17182201D01*
X14456006Y-17182201D02*
X14522672Y-17039344D01*
X14522672Y-17039344D02*
X14522672Y-17239344D01*
X14703625Y-17239344D02*
X14703625Y-17134582D01*
X14703625Y-17134582D02*
X14694101Y-17115534D01*
X14694101Y-17115534D02*
X14675053Y-17106010D01*
X14675053Y-17106010D02*
X14636958Y-17106010D01*
X14636958Y-17106010D02*
X14617911Y-17115534D01*
X14703625Y-17229820D02*
X14684577Y-17239344D01*
X14684577Y-17239344D02*
X14636958Y-17239344D01*
X14636958Y-17239344D02*
X14617911Y-17229820D01*
X14617911Y-17229820D02*
X14608387Y-17210772D01*
X14608387Y-17210772D02*
X14608387Y-17191725D01*
X14608387Y-17191725D02*
X14617911Y-17172677D01*
X14617911Y-17172677D02*
X14636958Y-17163153D01*
X14636958Y-17163153D02*
X14684577Y-17163153D01*
X14684577Y-17163153D02*
X14703625Y-17153630D01*
X14798863Y-17106010D02*
X14798863Y-17306010D01*
X14798863Y-17115534D02*
X14817911Y-17106010D01*
X14817911Y-17106010D02*
X14856006Y-17106010D01*
X14856006Y-17106010D02*
X14875053Y-17115534D01*
X14875053Y-17115534D02*
X14884577Y-17125058D01*
X14884577Y-17125058D02*
X14894101Y-17144106D01*
X14894101Y-17144106D02*
X14894101Y-17201249D01*
X14894101Y-17201249D02*
X14884577Y-17220296D01*
X14884577Y-17220296D02*
X14875053Y-17229820D01*
X14875053Y-17229820D02*
X14856006Y-17239344D01*
X14856006Y-17239344D02*
X14817911Y-17239344D01*
X14817911Y-17239344D02*
X14798863Y-17229820D01*
X14979815Y-17220296D02*
X14989339Y-17229820D01*
X14989339Y-17229820D02*
X14979815Y-17239344D01*
X14979815Y-17239344D02*
X14970292Y-17229820D01*
X14970292Y-17229820D02*
X14979815Y-17220296D01*
X14979815Y-17220296D02*
X14979815Y-17239344D01*
X14979815Y-17115534D02*
X14989339Y-17125058D01*
X14989339Y-17125058D02*
X14979815Y-17134582D01*
X14979815Y-17134582D02*
X14970292Y-17125058D01*
X14970292Y-17125058D02*
X14979815Y-17115534D01*
X14979815Y-17115534D02*
X14979815Y-17134582D01*
X13147610Y-17467860D02*
X13347610Y-17667860D01*
X13347610Y-17467860D02*
X13147610Y-17667860D01*
X13589339Y-17459344D02*
X13713149Y-17459344D01*
X13713149Y-17459344D02*
X13646482Y-17535534D01*
X13646482Y-17535534D02*
X13675053Y-17535534D01*
X13675053Y-17535534D02*
X13694101Y-17545058D01*
X13694101Y-17545058D02*
X13703625Y-17554582D01*
X13703625Y-17554582D02*
X13713149Y-17573630D01*
X13713149Y-17573630D02*
X13713149Y-17621249D01*
X13713149Y-17621249D02*
X13703625Y-17640296D01*
X13703625Y-17640296D02*
X13694101Y-17649820D01*
X13694101Y-17649820D02*
X13675053Y-17659344D01*
X13675053Y-17659344D02*
X13617911Y-17659344D01*
X13617911Y-17659344D02*
X13598863Y-17649820D01*
X13598863Y-17649820D02*
X13589339Y-17640296D01*
X13798863Y-17640296D02*
X13808387Y-17649820D01*
X13808387Y-17649820D02*
X13798863Y-17659344D01*
X13798863Y-17659344D02*
X13789339Y-17649820D01*
X13789339Y-17649820D02*
X13798863Y-17640296D01*
X13798863Y-17640296D02*
X13798863Y-17659344D01*
X13884577Y-17478391D02*
X13894101Y-17468868D01*
X13894101Y-17468868D02*
X13913149Y-17459344D01*
X13913149Y-17459344D02*
X13960768Y-17459344D01*
X13960768Y-17459344D02*
X13979815Y-17468868D01*
X13979815Y-17468868D02*
X13989339Y-17478391D01*
X13989339Y-17478391D02*
X13998863Y-17497439D01*
X13998863Y-17497439D02*
X13998863Y-17516487D01*
X13998863Y-17516487D02*
X13989339Y-17545058D01*
X13989339Y-17545058D02*
X13875053Y-17659344D01*
X13875053Y-17659344D02*
X13998863Y-17659344D01*
X14122672Y-17459344D02*
X14141720Y-17459344D01*
X14141720Y-17459344D02*
X14160768Y-17468868D01*
X14160768Y-17468868D02*
X14170292Y-17478391D01*
X14170292Y-17478391D02*
X14179815Y-17497439D01*
X14179815Y-17497439D02*
X14189339Y-17535534D01*
X14189339Y-17535534D02*
X14189339Y-17583153D01*
X14189339Y-17583153D02*
X14179815Y-17621249D01*
X14179815Y-17621249D02*
X14170292Y-17640296D01*
X14170292Y-17640296D02*
X14160768Y-17649820D01*
X14160768Y-17649820D02*
X14141720Y-17659344D01*
X14141720Y-17659344D02*
X14122672Y-17659344D01*
X14122672Y-17659344D02*
X14103625Y-17649820D01*
X14103625Y-17649820D02*
X14094101Y-17640296D01*
X14094101Y-17640296D02*
X14084577Y-17621249D01*
X14084577Y-17621249D02*
X14075053Y-17583153D01*
X14075053Y-17583153D02*
X14075053Y-17535534D01*
X14075053Y-17535534D02*
X14084577Y-17497439D01*
X14084577Y-17497439D02*
X14094101Y-17478391D01*
X14094101Y-17478391D02*
X14103625Y-17468868D01*
X14103625Y-17468868D02*
X14122672Y-17459344D01*
X14313149Y-17459344D02*
X14332196Y-17459344D01*
X14332196Y-17459344D02*
X14351244Y-17468868D01*
X14351244Y-17468868D02*
X14360768Y-17478391D01*
X14360768Y-17478391D02*
X14370292Y-17497439D01*
X14370292Y-17497439D02*
X14379815Y-17535534D01*
X14379815Y-17535534D02*
X14379815Y-17583153D01*
X14379815Y-17583153D02*
X14370292Y-17621249D01*
X14370292Y-17621249D02*
X14360768Y-17640296D01*
X14360768Y-17640296D02*
X14351244Y-17649820D01*
X14351244Y-17649820D02*
X14332196Y-17659344D01*
X14332196Y-17659344D02*
X14313149Y-17659344D01*
X14313149Y-17659344D02*
X14294101Y-17649820D01*
X14294101Y-17649820D02*
X14284577Y-17640296D01*
X14284577Y-17640296D02*
X14275053Y-17621249D01*
X14275053Y-17621249D02*
X14265530Y-17583153D01*
X14265530Y-17583153D02*
X14265530Y-17535534D01*
X14265530Y-17535534D02*
X14275053Y-17497439D01*
X14275053Y-17497439D02*
X14284577Y-17478391D01*
X14284577Y-17478391D02*
X14294101Y-17468868D01*
X14294101Y-17468868D02*
X14313149Y-17459344D01*
X14465530Y-17659344D02*
X14465530Y-17526010D01*
X14465530Y-17545058D02*
X14475053Y-17535534D01*
X14475053Y-17535534D02*
X14494101Y-17526010D01*
X14494101Y-17526010D02*
X14522673Y-17526010D01*
X14522673Y-17526010D02*
X14541720Y-17535534D01*
X14541720Y-17535534D02*
X14551244Y-17554582D01*
X14551244Y-17554582D02*
X14551244Y-17659344D01*
X14551244Y-17554582D02*
X14560768Y-17535534D01*
X14560768Y-17535534D02*
X14579815Y-17526010D01*
X14579815Y-17526010D02*
X14608387Y-17526010D01*
X14608387Y-17526010D02*
X14627434Y-17535534D01*
X14627434Y-17535534D02*
X14636958Y-17554582D01*
X14636958Y-17554582D02*
X14636958Y-17659344D01*
X14732196Y-17659344D02*
X14732196Y-17526010D01*
X14732196Y-17545058D02*
X14741720Y-17535534D01*
X14741720Y-17535534D02*
X14760768Y-17526010D01*
X14760768Y-17526010D02*
X14789339Y-17526010D01*
X14789339Y-17526010D02*
X14808387Y-17535534D01*
X14808387Y-17535534D02*
X14817911Y-17554582D01*
X14817911Y-17554582D02*
X14817911Y-17659344D01*
X14817911Y-17554582D02*
X14827434Y-17535534D01*
X14827434Y-17535534D02*
X14846482Y-17526010D01*
X14846482Y-17526010D02*
X14875053Y-17526010D01*
X14875053Y-17526010D02*
X14894101Y-17535534D01*
X14894101Y-17535534D02*
X14903625Y-17554582D01*
X14903625Y-17554582D02*
X14903625Y-17659344D01*
X15294101Y-17449820D02*
X15122673Y-17706963D01*
X15551244Y-17459344D02*
X15570292Y-17459344D01*
X15570292Y-17459344D02*
X15589339Y-17468868D01*
X15589339Y-17468868D02*
X15598863Y-17478391D01*
X15598863Y-17478391D02*
X15608387Y-17497439D01*
X15608387Y-17497439D02*
X15617911Y-17535534D01*
X15617911Y-17535534D02*
X15617911Y-17583153D01*
X15617911Y-17583153D02*
X15608387Y-17621249D01*
X15608387Y-17621249D02*
X15598863Y-17640296D01*
X15598863Y-17640296D02*
X15589339Y-17649820D01*
X15589339Y-17649820D02*
X15570292Y-17659344D01*
X15570292Y-17659344D02*
X15551244Y-17659344D01*
X15551244Y-17659344D02*
X15532196Y-17649820D01*
X15532196Y-17649820D02*
X15522673Y-17640296D01*
X15522673Y-17640296D02*
X15513149Y-17621249D01*
X15513149Y-17621249D02*
X15503625Y-17583153D01*
X15503625Y-17583153D02*
X15503625Y-17535534D01*
X15503625Y-17535534D02*
X15513149Y-17497439D01*
X15513149Y-17497439D02*
X15522673Y-17478391D01*
X15522673Y-17478391D02*
X15532196Y-17468868D01*
X15532196Y-17468868D02*
X15551244Y-17459344D01*
X15703625Y-17640296D02*
X15713149Y-17649820D01*
X15713149Y-17649820D02*
X15703625Y-17659344D01*
X15703625Y-17659344D02*
X15694101Y-17649820D01*
X15694101Y-17649820D02*
X15703625Y-17640296D01*
X15703625Y-17640296D02*
X15703625Y-17659344D01*
X15903625Y-17659344D02*
X15789339Y-17659344D01*
X15846482Y-17659344D02*
X15846482Y-17459344D01*
X15846482Y-17459344D02*
X15827435Y-17487915D01*
X15827435Y-17487915D02*
X15808387Y-17506963D01*
X15808387Y-17506963D02*
X15789339Y-17516487D01*
X15979816Y-17478391D02*
X15989339Y-17468868D01*
X15989339Y-17468868D02*
X16008387Y-17459344D01*
X16008387Y-17459344D02*
X16056006Y-17459344D01*
X16056006Y-17459344D02*
X16075054Y-17468868D01*
X16075054Y-17468868D02*
X16084577Y-17478391D01*
X16084577Y-17478391D02*
X16094101Y-17497439D01*
X16094101Y-17497439D02*
X16094101Y-17516487D01*
X16094101Y-17516487D02*
X16084577Y-17545058D01*
X16084577Y-17545058D02*
X15970292Y-17659344D01*
X15970292Y-17659344D02*
X16094101Y-17659344D01*
X16265530Y-17459344D02*
X16227435Y-17459344D01*
X16227435Y-17459344D02*
X16208387Y-17468868D01*
X16208387Y-17468868D02*
X16198863Y-17478391D01*
X16198863Y-17478391D02*
X16179816Y-17506963D01*
X16179816Y-17506963D02*
X16170292Y-17545058D01*
X16170292Y-17545058D02*
X16170292Y-17621249D01*
X16170292Y-17621249D02*
X16179816Y-17640296D01*
X16179816Y-17640296D02*
X16189339Y-17649820D01*
X16189339Y-17649820D02*
X16208387Y-17659344D01*
X16208387Y-17659344D02*
X16246482Y-17659344D01*
X16246482Y-17659344D02*
X16265530Y-17649820D01*
X16265530Y-17649820D02*
X16275054Y-17640296D01*
X16275054Y-17640296D02*
X16284577Y-17621249D01*
X16284577Y-17621249D02*
X16284577Y-17573630D01*
X16284577Y-17573630D02*
X16275054Y-17554582D01*
X16275054Y-17554582D02*
X16265530Y-17545058D01*
X16265530Y-17545058D02*
X16246482Y-17535534D01*
X16246482Y-17535534D02*
X16208387Y-17535534D01*
X16208387Y-17535534D02*
X16189339Y-17545058D01*
X16189339Y-17545058D02*
X16179816Y-17554582D01*
X16179816Y-17554582D02*
X16170292Y-17573630D01*
X16408387Y-17459344D02*
X16427435Y-17459344D01*
X16427435Y-17459344D02*
X16446482Y-17468868D01*
X16446482Y-17468868D02*
X16456006Y-17478391D01*
X16456006Y-17478391D02*
X16465530Y-17497439D01*
X16465530Y-17497439D02*
X16475054Y-17535534D01*
X16475054Y-17535534D02*
X16475054Y-17583153D01*
X16475054Y-17583153D02*
X16465530Y-17621249D01*
X16465530Y-17621249D02*
X16456006Y-17640296D01*
X16456006Y-17640296D02*
X16446482Y-17649820D01*
X16446482Y-17649820D02*
X16427435Y-17659344D01*
X16427435Y-17659344D02*
X16408387Y-17659344D01*
X16408387Y-17659344D02*
X16389339Y-17649820D01*
X16389339Y-17649820D02*
X16379816Y-17640296D01*
X16379816Y-17640296D02*
X16370292Y-17621249D01*
X16370292Y-17621249D02*
X16360768Y-17583153D01*
X16360768Y-17583153D02*
X16360768Y-17535534D01*
X16360768Y-17535534D02*
X16370292Y-17497439D01*
X16370292Y-17497439D02*
X16379816Y-17478391D01*
X16379816Y-17478391D02*
X16389339Y-17468868D01*
X16389339Y-17468868D02*
X16408387Y-17459344D01*
X16551244Y-17459344D02*
X16551244Y-17497439D01*
X16627435Y-17459344D02*
X16627435Y-17497439D01*
X16922673Y-17735534D02*
X16913149Y-17726010D01*
X16913149Y-17726010D02*
X16894101Y-17697439D01*
X16894101Y-17697439D02*
X16884578Y-17678391D01*
X16884578Y-17678391D02*
X16875054Y-17649820D01*
X16875054Y-17649820D02*
X16865530Y-17602201D01*
X16865530Y-17602201D02*
X16865530Y-17564106D01*
X16865530Y-17564106D02*
X16875054Y-17516487D01*
X16875054Y-17516487D02*
X16884578Y-17487915D01*
X16884578Y-17487915D02*
X16894101Y-17468868D01*
X16894101Y-17468868D02*
X16913149Y-17440296D01*
X16913149Y-17440296D02*
X16922673Y-17430772D01*
X16989340Y-17478391D02*
X16998863Y-17468868D01*
X16998863Y-17468868D02*
X17017911Y-17459344D01*
X17017911Y-17459344D02*
X17065530Y-17459344D01*
X17065530Y-17459344D02*
X17084578Y-17468868D01*
X17084578Y-17468868D02*
X17094101Y-17478391D01*
X17094101Y-17478391D02*
X17103625Y-17497439D01*
X17103625Y-17497439D02*
X17103625Y-17516487D01*
X17103625Y-17516487D02*
X17094101Y-17545058D01*
X17094101Y-17545058D02*
X16979816Y-17659344D01*
X16979816Y-17659344D02*
X17103625Y-17659344D01*
X17341721Y-17659344D02*
X17341721Y-17459344D01*
X17427435Y-17659344D02*
X17427435Y-17554582D01*
X17427435Y-17554582D02*
X17417911Y-17535534D01*
X17417911Y-17535534D02*
X17398863Y-17526010D01*
X17398863Y-17526010D02*
X17370292Y-17526010D01*
X17370292Y-17526010D02*
X17351244Y-17535534D01*
X17351244Y-17535534D02*
X17341721Y-17545058D01*
X17551244Y-17659344D02*
X17532197Y-17649820D01*
X17532197Y-17649820D02*
X17522673Y-17640296D01*
X17522673Y-17640296D02*
X17513149Y-17621249D01*
X17513149Y-17621249D02*
X17513149Y-17564106D01*
X17513149Y-17564106D02*
X17522673Y-17545058D01*
X17522673Y-17545058D02*
X17532197Y-17535534D01*
X17532197Y-17535534D02*
X17551244Y-17526010D01*
X17551244Y-17526010D02*
X17579816Y-17526010D01*
X17579816Y-17526010D02*
X17598863Y-17535534D01*
X17598863Y-17535534D02*
X17608387Y-17545058D01*
X17608387Y-17545058D02*
X17617911Y-17564106D01*
X17617911Y-17564106D02*
X17617911Y-17621249D01*
X17617911Y-17621249D02*
X17608387Y-17640296D01*
X17608387Y-17640296D02*
X17598863Y-17649820D01*
X17598863Y-17649820D02*
X17579816Y-17659344D01*
X17579816Y-17659344D02*
X17551244Y-17659344D01*
X17732197Y-17659344D02*
X17713149Y-17649820D01*
X17713149Y-17649820D02*
X17703625Y-17630772D01*
X17703625Y-17630772D02*
X17703625Y-17459344D01*
X17884578Y-17649820D02*
X17865530Y-17659344D01*
X17865530Y-17659344D02*
X17827435Y-17659344D01*
X17827435Y-17659344D02*
X17808387Y-17649820D01*
X17808387Y-17649820D02*
X17798863Y-17630772D01*
X17798863Y-17630772D02*
X17798863Y-17554582D01*
X17798863Y-17554582D02*
X17808387Y-17535534D01*
X17808387Y-17535534D02*
X17827435Y-17526010D01*
X17827435Y-17526010D02*
X17865530Y-17526010D01*
X17865530Y-17526010D02*
X17884578Y-17535534D01*
X17884578Y-17535534D02*
X17894102Y-17554582D01*
X17894102Y-17554582D02*
X17894102Y-17573630D01*
X17894102Y-17573630D02*
X17798863Y-17592677D01*
X17970292Y-17649820D02*
X17989340Y-17659344D01*
X17989340Y-17659344D02*
X18027435Y-17659344D01*
X18027435Y-17659344D02*
X18046483Y-17649820D01*
X18046483Y-17649820D02*
X18056006Y-17630772D01*
X18056006Y-17630772D02*
X18056006Y-17621249D01*
X18056006Y-17621249D02*
X18046483Y-17602201D01*
X18046483Y-17602201D02*
X18027435Y-17592677D01*
X18027435Y-17592677D02*
X17998863Y-17592677D01*
X17998863Y-17592677D02*
X17979816Y-17583153D01*
X17979816Y-17583153D02*
X17970292Y-17564106D01*
X17970292Y-17564106D02*
X17970292Y-17554582D01*
X17970292Y-17554582D02*
X17979816Y-17535534D01*
X17979816Y-17535534D02*
X17998863Y-17526010D01*
X17998863Y-17526010D02*
X18027435Y-17526010D01*
X18027435Y-17526010D02*
X18046483Y-17535534D01*
X18122673Y-17735534D02*
X18132197Y-17726010D01*
X18132197Y-17726010D02*
X18151244Y-17697439D01*
X18151244Y-17697439D02*
X18160768Y-17678391D01*
X18160768Y-17678391D02*
X18170292Y-17649820D01*
X18170292Y-17649820D02*
X18179816Y-17602201D01*
X18179816Y-17602201D02*
X18179816Y-17564106D01*
X18179816Y-17564106D02*
X18170292Y-17516487D01*
X18170292Y-17516487D02*
X18160768Y-17487915D01*
X18160768Y-17487915D02*
X18151244Y-17468868D01*
X18151244Y-17468868D02*
X18132197Y-17440296D01*
X18132197Y-17440296D02*
X18122673Y-17430772D01*
M02*
