%
M48
M72
T01C0.0120
T02C0.0240
T03C0.0320
T04C0.0360
T05C0.0394
T06C0.0440
T07C0.0472
T08C0.0512
T09C0.0886
T10C0.0906
%
T01
X35430Y4132
X32310Y2532
X19270Y3092
X32230Y9572
X23390Y10452
X28830Y4732
X20510Y6452
T02
X23590Y8932
T03
X22119Y11601
X22119Y10801
X25190Y11601
X25190Y10801
X23655Y10897
X23655Y11897
X26725Y10897
X26725Y11897
X34749Y10807
X31143Y10807
X34749Y11791
X31143Y11791
X17631Y9145
X17631Y5539
X16647Y5539
X16647Y9145
X17552Y11846
X17552Y9846
X16552Y10846
X18552Y11846
X18552Y9846
X19336Y10846
X20336Y10846
X37910Y1271
X37910Y2271
X37910Y7271
X34910Y7271
X37910Y3271
X37910Y4271
X37910Y6271
X37910Y5271
X34910Y6271
X34910Y5271
X34910Y4271
X34910Y3271
X34910Y2271
X34910Y1271
X28225Y1114
X28225Y2114
X28225Y7114
X25225Y7114
X28225Y3114
X28225Y4114
X28225Y6114
X28225Y5114
X25225Y6114
X25225Y5114
X25225Y4114
X25225Y3114
X25225Y2114
X25225Y1114
X33371Y1043
X29765Y1043
X34749Y9193
X31143Y9193
X18387Y9193
X21993Y9193
X29009Y2094
X29009Y1094
X27210Y8208
X28210Y8208
X24442Y6134
X24442Y7134
X29765Y2027
X33371Y2027
X30497Y9193
X26891Y9193
X26245Y9193
X22639Y9193
X15379Y6397
X11773Y6397
X9867Y6397
X6261Y6397
X4355Y6397
X749Y6397
X16536Y2697
X20143Y2697
X16536Y1712
X20143Y1712
X16536Y3681
X20143Y3681
X20080Y1083
X23686Y1083
X24481Y1094
X24481Y2094
X34127Y1252
X34127Y2252
X29765Y3012
X33371Y3012
X38544Y1279
X42151Y1279
X38588Y3878
X39588Y3878
X33233Y3878
X34233Y3878
X28903Y3878
X29903Y3878
X23548Y3878
X24548Y3878
T04
X41206Y10031
X41206Y11031
X40206Y10031
X40206Y11031
X39206Y10031
X39206Y11031
X38206Y10031
X38206Y11031
X37206Y10031
X37206Y11031
T05
X38773Y6397
X38773Y7382
X38773Y5413
X28930Y6397
X28930Y7382
X28930Y5413
X19088Y6397
X19088Y7382
X19088Y5413
T06
X30509Y10610
X27509Y10610
X30509Y11752
X27509Y11752
T07
X41529Y8366
X41529Y4429
X31686Y8366
X31686Y4429
X21844Y8366
X21844Y4429
T08
X13576Y7500
X8064Y7500
X2552Y7500
X13576Y1594
X8064Y1594
X2552Y1594
T09
X15505Y9350
X12277Y9350
X9993Y9350
X6765Y9350
X4481Y9350
X1253Y9350
X15505Y3445
X12277Y3445
X9993Y3445
X6765Y3445
X4481Y3445
X1253Y3445
T10
X13576Y11201
X8064Y11201
X2552Y11201
X13576Y5295
X8064Y5295
X2552Y5295
M30
