G75*
G70*
%OFA0B0*%
%FSLAX24Y24*%
%IPPOS*%
%LPD*%
%AMOC8*
5,1,8,0,0,1.08239X$1,22.5*
%
%ADD10C,0.0000*%
%ADD11C,0.0040*%
%ADD12C,0.0060*%
%ADD13R,0.0200X0.0100*%
%ADD14R,0.0150X0.0050*%
%ADD15R,0.0100X0.0100*%
%ADD16C,0.0070*%
%ADD17C,0.0120*%
%ADD18C,0.0050*%
D10*
X000190Y000492D02*
X000190Y012303D01*
X043497Y012303D01*
X043497Y000492D01*
X000190Y000492D01*
D11*
X040616Y007280D02*
X040616Y007587D01*
X040616Y007434D02*
X041076Y007434D01*
X040922Y007280D01*
X040846Y007127D02*
X040846Y006820D01*
X040999Y007741D02*
X041076Y007818D01*
X041076Y007971D01*
X040999Y008048D01*
X040922Y008048D01*
X040616Y007741D01*
X040616Y008048D01*
X040769Y008201D02*
X040616Y008355D01*
X040769Y008508D01*
X041076Y008508D01*
X041076Y008201D02*
X040769Y008201D01*
D12*
X040956Y008681D02*
X041706Y008391D01*
X041706Y009151D01*
X042356Y009151D01*
X042356Y009681D01*
X042696Y009681D01*
X042696Y010281D01*
X042696Y010781D01*
X042356Y010781D01*
X042356Y010281D01*
X042696Y010281D01*
X042228Y010072D02*
X042048Y010252D01*
X042048Y009711D01*
X042228Y009711D02*
X041868Y009711D01*
X041376Y009611D02*
X041206Y009281D01*
X041206Y009381D01*
X041206Y009281D02*
X041036Y009611D01*
X041376Y009611D01*
X042696Y009681D02*
X042696Y009151D01*
X042356Y009151D01*
X041706Y009151D02*
X036706Y009151D01*
X036056Y009151D01*
X035706Y009151D01*
X035706Y009681D01*
X035706Y010281D01*
X035706Y010781D01*
X035706Y011381D01*
X035706Y011901D01*
X036056Y011901D01*
X036706Y011901D01*
X041706Y011901D01*
X042356Y011901D01*
X042696Y011901D01*
X042696Y011381D01*
X042696Y010781D01*
X042696Y011381D02*
X042356Y011381D01*
X042356Y011901D01*
X041706Y011901D02*
X041706Y012271D01*
X036706Y012271D01*
X036706Y011901D01*
X036056Y011901D02*
X036056Y011381D01*
X035706Y011381D01*
X035706Y010781D02*
X036056Y010781D01*
X036056Y010281D01*
X035706Y010281D01*
X035706Y009681D02*
X036056Y009681D01*
X036056Y009151D01*
X036706Y009151D02*
X036706Y008391D01*
X038206Y008681D01*
X039706Y008391D01*
X040956Y008681D01*
X021407Y007413D02*
X021301Y007413D01*
X021087Y007413D02*
X020660Y007413D01*
X020660Y007519D02*
X020660Y007306D01*
X020660Y007088D02*
X020980Y007088D01*
X021087Y006981D01*
X020980Y006875D01*
X020660Y006875D01*
X020660Y006661D02*
X021087Y006661D01*
X021087Y006768D01*
X020980Y006875D01*
X021087Y007306D02*
X021087Y007413D01*
X021087Y007735D02*
X020660Y008163D01*
X021087Y008163D02*
X020660Y007735D01*
X020767Y008380D02*
X020980Y008380D01*
X021087Y008487D01*
X021087Y008700D01*
X020980Y008807D01*
X020874Y008807D01*
X020874Y008380D01*
X020767Y008380D02*
X020660Y008487D01*
X020660Y008700D01*
X020660Y009025D02*
X021087Y009025D01*
X021087Y009238D02*
X021087Y009345D01*
X021087Y009238D02*
X020874Y009025D01*
X020660Y009562D02*
X021301Y009989D01*
X020874Y010313D02*
X020767Y010206D01*
X020660Y010313D01*
X020660Y010633D01*
X020980Y010633D01*
X021087Y010527D01*
X021087Y010313D01*
X020874Y010313D02*
X020874Y010633D01*
X021087Y010851D02*
X021087Y011064D01*
X021194Y010958D02*
X020767Y010958D01*
X020660Y011064D01*
X020767Y011387D02*
X020660Y011494D01*
X020767Y011387D02*
X021194Y011387D01*
X021087Y011280D02*
X021087Y011494D01*
X018902Y011846D02*
X018902Y011096D01*
X018902Y010596D01*
X018902Y009846D01*
X018902Y009596D01*
X018802Y009496D01*
X018152Y009496D01*
X017652Y009496D01*
X016302Y009496D01*
X016202Y009596D01*
X016202Y012096D01*
X016302Y012196D01*
X017652Y012196D01*
X018152Y012196D01*
X018802Y012196D01*
X018902Y012096D01*
X018902Y011846D01*
X018752Y011846D01*
X018752Y011246D01*
X018752Y010446D01*
X018752Y009846D01*
X018902Y009846D01*
X017552Y010246D02*
X017252Y010246D01*
X017252Y010546D01*
X017102Y010696D01*
X016952Y010696D01*
X016652Y010696D01*
X016652Y010996D01*
X016952Y010996D01*
X017102Y010996D01*
X017252Y011146D01*
X017252Y011446D01*
X017552Y011446D01*
X017552Y011146D01*
X017702Y010996D01*
X017852Y010996D01*
X018152Y010996D01*
X018152Y010696D01*
X017852Y010696D01*
X017702Y010696D01*
X017552Y010546D01*
X017552Y010246D01*
X017852Y010696D02*
X017852Y010996D01*
X016602Y010846D02*
X016604Y010902D01*
X016610Y010959D01*
X016620Y011014D01*
X016634Y011069D01*
X016651Y011123D01*
X016673Y011175D01*
X016698Y011225D01*
X016726Y011274D01*
X016758Y011321D01*
X016793Y011365D01*
X016831Y011407D01*
X016872Y011446D01*
X016916Y011481D01*
X016962Y011514D01*
X017010Y011543D01*
X017060Y011569D01*
X017112Y011592D01*
X017166Y011610D01*
X017220Y011625D01*
X017275Y011636D01*
X017331Y011643D01*
X017388Y011646D01*
X017444Y011645D01*
X017501Y011640D01*
X017556Y011631D01*
X017611Y011618D01*
X017665Y011601D01*
X017718Y011581D01*
X017769Y011557D01*
X017818Y011529D01*
X017865Y011498D01*
X017910Y011464D01*
X017953Y011426D01*
X017992Y011386D01*
X018029Y011343D01*
X018062Y011298D01*
X018092Y011250D01*
X018119Y011200D01*
X018142Y011149D01*
X018162Y011096D01*
X018178Y011042D01*
X018190Y010986D01*
X018198Y010931D01*
X018202Y010874D01*
X018202Y010818D01*
X018198Y010761D01*
X018190Y010706D01*
X018178Y010650D01*
X018162Y010596D01*
X018142Y010543D01*
X018119Y010492D01*
X018092Y010442D01*
X018062Y010394D01*
X018029Y010349D01*
X017992Y010306D01*
X017953Y010266D01*
X017910Y010228D01*
X017865Y010194D01*
X017818Y010163D01*
X017769Y010135D01*
X017718Y010111D01*
X017665Y010091D01*
X017611Y010074D01*
X017556Y010061D01*
X017501Y010052D01*
X017444Y010047D01*
X017388Y010046D01*
X017331Y010049D01*
X017275Y010056D01*
X017220Y010067D01*
X017166Y010082D01*
X017112Y010100D01*
X017060Y010123D01*
X017010Y010149D01*
X016962Y010178D01*
X016916Y010211D01*
X016872Y010246D01*
X016831Y010285D01*
X016793Y010327D01*
X016758Y010371D01*
X016726Y010418D01*
X016698Y010467D01*
X016673Y010517D01*
X016651Y010569D01*
X016634Y010623D01*
X016620Y010678D01*
X016610Y010733D01*
X016604Y010790D01*
X016602Y010846D01*
X016952Y010696D02*
X016952Y010996D01*
X020660Y012355D02*
X020660Y012782D01*
X020660Y012568D02*
X021301Y012568D01*
X021087Y012355D01*
X020767Y012999D02*
X020767Y013106D01*
X020660Y013106D01*
X020660Y012999D01*
X020767Y012999D01*
X020767Y013322D02*
X021194Y013749D01*
X020767Y013749D01*
X020660Y013642D01*
X020660Y013428D01*
X020767Y013322D01*
X021194Y013322D01*
X021301Y013428D01*
X021301Y013642D01*
X021194Y013749D01*
X011501Y013520D02*
X010860Y013520D01*
X010860Y013307D02*
X010860Y013734D01*
X010967Y013951D02*
X010860Y014058D01*
X010860Y014272D01*
X010967Y014378D01*
X011074Y014378D01*
X011180Y014272D01*
X011180Y014165D01*
X011180Y014272D02*
X011287Y014378D01*
X011394Y014378D01*
X011501Y014272D01*
X011501Y014058D01*
X011394Y013951D01*
X011501Y013520D02*
X011287Y013307D01*
X011394Y013089D02*
X010967Y013089D01*
X010860Y012982D01*
X010860Y012769D01*
X010967Y012662D01*
X011394Y013089D01*
X011501Y012982D01*
X011501Y012769D01*
X011394Y012662D01*
X010967Y012662D01*
X010860Y012445D02*
X010860Y012018D01*
X011287Y012445D01*
X011394Y012445D01*
X011501Y012338D01*
X011501Y012124D01*
X011394Y012018D01*
X011180Y011156D02*
X011287Y011049D01*
X011287Y010835D01*
X011180Y010729D01*
X010967Y010729D01*
X010860Y010835D01*
X010860Y011049D01*
X010967Y011156D01*
X011180Y011156D01*
X010860Y010512D02*
X010860Y010299D01*
X010860Y010406D02*
X011287Y010406D01*
X011287Y010299D01*
X011501Y010406D02*
X011607Y010406D01*
X011501Y010081D02*
X010860Y010081D01*
X010860Y009761D01*
X010967Y009654D01*
X011180Y009654D01*
X011287Y009761D01*
X011287Y010081D01*
X011287Y009437D02*
X010860Y009437D01*
X010860Y009116D01*
X010967Y009010D01*
X011287Y009010D01*
X011287Y008792D02*
X010860Y008792D01*
X011180Y008792D02*
X011180Y008365D01*
X011287Y008365D02*
X011501Y008579D01*
X011287Y008792D01*
X011287Y008365D02*
X010860Y008365D01*
X010860Y007503D02*
X011180Y007503D01*
X011287Y007396D01*
X011287Y007076D01*
X010860Y007076D01*
X011074Y006859D02*
X011074Y006432D01*
X011180Y006432D02*
X011287Y006538D01*
X011287Y006752D01*
X011180Y006859D01*
X011074Y006859D01*
X010860Y006752D02*
X010860Y006538D01*
X010967Y006432D01*
X011180Y006432D01*
X011287Y006215D02*
X011287Y006108D01*
X011074Y005894D01*
X011287Y005894D02*
X010860Y005894D01*
X010860Y005677D02*
X010860Y005357D01*
X010967Y005250D01*
X011180Y005250D01*
X011287Y005357D01*
X011287Y005677D01*
X010753Y005677D01*
X010646Y005570D01*
X010646Y005463D01*
X010753Y005032D02*
X011287Y005032D01*
X011287Y004712D01*
X011180Y004605D01*
X010967Y004605D01*
X010860Y004712D01*
X010860Y005032D01*
X010753Y005032D02*
X010646Y004926D01*
X010646Y004819D01*
X010860Y004388D02*
X011180Y004388D01*
X011287Y004281D01*
X011287Y003961D01*
X010860Y003961D01*
X010860Y003743D02*
X011287Y003743D01*
X010860Y003743D02*
X010860Y003423D01*
X010967Y003316D01*
X011287Y003316D01*
X011287Y003100D02*
X010753Y003100D01*
X010646Y002993D01*
X010646Y002887D01*
X010860Y002669D02*
X010860Y002242D01*
X011501Y002242D01*
X011501Y003100D02*
X011607Y003100D01*
X005941Y003322D02*
X005941Y003642D01*
X005834Y003749D01*
X005620Y003749D01*
X005514Y003642D01*
X005514Y003322D01*
X005300Y003322D02*
X005941Y003322D01*
X005514Y003535D02*
X005300Y003749D01*
X005407Y003967D02*
X005300Y004073D01*
X005300Y004287D01*
X005407Y004394D01*
X005620Y004394D01*
X005727Y004287D01*
X005727Y004073D01*
X005620Y003967D01*
X005407Y003967D01*
X005300Y004611D02*
X005300Y004825D01*
X005300Y004718D02*
X005941Y004718D01*
X005941Y004611D01*
X005941Y005041D02*
X005941Y005148D01*
X005300Y005148D01*
X005300Y005254D02*
X005300Y005041D01*
X005834Y006115D02*
X005620Y006329D01*
X005300Y006329D01*
X005620Y006329D02*
X005834Y006542D01*
X005941Y006542D01*
X005620Y006760D02*
X005407Y006760D01*
X005300Y006866D01*
X005300Y007080D01*
X005407Y007187D01*
X005620Y007187D01*
X005727Y007080D01*
X005727Y006866D01*
X005620Y006760D01*
X005834Y006115D02*
X005941Y006115D01*
X005727Y007404D02*
X005407Y007404D01*
X005300Y007511D01*
X005300Y007831D01*
X005727Y007831D01*
X005727Y008049D02*
X005300Y008049D01*
X005514Y008049D02*
X005727Y008262D01*
X005727Y008369D01*
X005834Y009230D02*
X005407Y009230D01*
X005300Y009337D01*
X005300Y009551D01*
X005407Y009657D01*
X005834Y009657D01*
X005941Y009551D01*
X005941Y009337D01*
X005834Y009230D01*
X005727Y009875D02*
X005407Y009875D01*
X005300Y009982D01*
X005407Y010088D01*
X005300Y010195D01*
X005407Y010302D01*
X005727Y010302D01*
X005727Y010519D02*
X005300Y010519D01*
X005727Y010519D02*
X005727Y010840D01*
X005620Y010946D01*
X005300Y010946D01*
X021087Y005800D02*
X021087Y005693D01*
X020874Y005480D01*
X021087Y005480D02*
X020660Y005480D01*
X020660Y005262D02*
X020660Y004942D01*
X020767Y004835D01*
X020874Y004942D01*
X020874Y005262D01*
X020980Y005262D02*
X020660Y005262D01*
X020980Y005262D02*
X021087Y005155D01*
X021087Y004942D01*
X021301Y004512D02*
X020660Y004512D01*
X020660Y004405D02*
X020660Y004619D01*
X021301Y004512D02*
X021301Y004405D01*
X020980Y004188D02*
X020767Y004188D01*
X020660Y004081D01*
X020660Y003868D01*
X020767Y003761D01*
X020980Y003761D01*
X021087Y003868D01*
X021087Y004081D01*
X020980Y004188D01*
X020980Y003543D02*
X020767Y003543D01*
X020660Y003436D01*
X020660Y003116D01*
X020446Y003116D02*
X021087Y003116D01*
X021087Y003436D01*
X020980Y003543D01*
X020660Y002900D02*
X020660Y002687D01*
X020660Y002793D02*
X021087Y002793D01*
X021087Y002687D01*
X021301Y002793D02*
X021407Y002793D01*
X021194Y002469D02*
X021087Y002469D01*
X020980Y002362D01*
X020980Y002042D01*
X020660Y002042D02*
X021301Y002042D01*
X021301Y002362D01*
X021194Y002469D01*
X020980Y002362D02*
X020874Y002469D01*
X020767Y002469D01*
X020660Y002362D01*
X020660Y002042D01*
D13*
X041206Y009491D03*
D14*
X041281Y009566D03*
X041131Y009566D03*
D15*
X041206Y009411D03*
D16*
X039559Y008528D02*
X039244Y008528D01*
X039138Y008423D01*
X039138Y008213D01*
X039244Y008108D01*
X039559Y008108D01*
X039559Y007898D02*
X039559Y008528D01*
X038914Y008423D02*
X038914Y008003D01*
X038809Y007898D01*
X038599Y007898D01*
X038494Y008003D01*
X038494Y008423D01*
X038599Y008528D01*
X038809Y008528D01*
X038914Y008423D01*
X038270Y008528D02*
X038270Y007898D01*
X038060Y008108D01*
X037849Y007898D01*
X037849Y008528D01*
X037625Y008528D02*
X037625Y007898D01*
X037205Y007898D01*
X036981Y007898D02*
X036981Y008528D01*
X036665Y008528D01*
X036560Y008423D01*
X036560Y008213D01*
X036665Y008108D01*
X036981Y008108D01*
X036770Y008108D02*
X036560Y007898D01*
X037415Y008213D02*
X037625Y008213D01*
X037625Y008528D02*
X037205Y008528D01*
D17*
X018202Y010046D02*
X018102Y010146D01*
X017402Y009906D02*
X017402Y009756D01*
X016752Y010146D02*
X016652Y010046D01*
X016482Y010846D02*
X016332Y010846D01*
X018102Y011546D02*
X018202Y011646D01*
X017402Y011786D02*
X017402Y011936D01*
X016752Y011596D02*
X016652Y011696D01*
D18*
X016028Y011811D02*
X015877Y011661D01*
X016028Y011811D02*
X015577Y011811D01*
X015577Y011661D02*
X015577Y011961D01*
X015577Y011501D02*
X016028Y011501D01*
X015877Y011351D01*
X016028Y011200D01*
X015577Y011200D01*
X015577Y011044D02*
X015577Y010894D01*
X015577Y010969D02*
X016028Y010969D01*
X016028Y010894D02*
X016028Y011044D01*
X015953Y010733D02*
X015802Y010733D01*
X015727Y010658D01*
X015727Y010433D01*
X015577Y010433D02*
X016028Y010433D01*
X016028Y010658D01*
X015953Y010733D01*
X015727Y010583D02*
X015577Y010733D01*
X016028Y010273D02*
X016028Y009973D01*
X016028Y010123D02*
X015577Y010123D01*
M02*
