G75*
%MOIN*%
%OFA0B0*%
%FSLAX24Y24*%
%IPPOS*%
%LPD*%
%AMOC8*
5,1,8,0,0,1.08239X$1,22.5*
%
%ADD10C,0.0090*%
%ADD11C,0.0070*%
%ADD12C,0.0100*%
%ADD13C,0.0050*%
%ADD14C,0.0079*%
%ADD15C,0.0080*%
%ADD16C,0.0059*%
%ADD17C,0.0069*%
%ADD18C,0.0060*%
%ADD19C,0.0040*%
%ADD20R,0.1000X0.0200*%
%ADD21R,0.0300X0.0250*%
%ADD22R,0.0100X0.0200*%
%ADD23R,0.0050X0.0150*%
%ADD24R,0.0100X0.0100*%
D10*
X005781Y033395D02*
X005591Y033585D01*
X005591Y033965D01*
X005971Y033585D02*
X005781Y033395D01*
X005971Y033585D02*
X005971Y033965D01*
X006198Y033870D02*
X006198Y033775D01*
X006579Y033395D01*
X006198Y033395D01*
X006198Y033870D02*
X006293Y033965D01*
X006484Y033965D01*
X006579Y033870D01*
X006806Y033395D02*
X007186Y033395D01*
X006996Y033395D02*
X006996Y033965D01*
X007186Y033775D01*
X007414Y033680D02*
X007794Y033680D01*
X008666Y040895D02*
X008856Y041085D01*
X008761Y041085D02*
X009046Y041085D01*
X009046Y040895D02*
X009046Y041465D01*
X008761Y041465D01*
X008666Y041370D01*
X008666Y041180D01*
X008761Y041085D01*
X009273Y040895D02*
X009654Y040895D01*
X009654Y041465D01*
X009273Y041465D01*
X009464Y041180D02*
X009654Y041180D01*
X009881Y040895D02*
X009881Y041465D01*
X010071Y041085D02*
X009881Y040895D01*
X010071Y041085D02*
X010261Y040895D01*
X010261Y041465D01*
X010489Y041370D02*
X010489Y040990D01*
X010584Y040895D01*
X010774Y040895D01*
X010869Y040990D01*
X010869Y041370D01*
X010774Y041465D01*
X010584Y041465D01*
X010489Y041370D01*
X011097Y041370D02*
X011097Y041180D01*
X011192Y041085D01*
X011477Y041085D01*
X011477Y040895D02*
X011477Y041465D01*
X011192Y041465D01*
X011097Y041370D01*
D11*
X009963Y014882D02*
X009963Y014800D01*
X009963Y014637D02*
X009963Y014228D01*
X010045Y014147D01*
X010127Y014147D01*
X010307Y014310D02*
X010470Y014310D01*
X010389Y014310D02*
X010389Y014800D01*
X010470Y014800D01*
X009783Y014637D02*
X009783Y014392D01*
X009701Y014310D01*
X009456Y014310D01*
X009456Y014637D01*
X009267Y014637D02*
X009267Y014310D01*
X009267Y014637D02*
X009022Y014637D01*
X008940Y014555D01*
X008940Y014310D01*
X008752Y014392D02*
X008670Y014310D01*
X008425Y014310D01*
X008425Y014228D02*
X008425Y014637D01*
X008670Y014637D01*
X008752Y014555D01*
X008752Y014392D01*
X008588Y014147D02*
X008506Y014147D01*
X008425Y014228D01*
X008236Y014392D02*
X008154Y014310D01*
X007909Y014310D01*
X007909Y014228D02*
X007909Y014637D01*
X008154Y014637D01*
X008236Y014555D01*
X008236Y014392D01*
X008072Y014147D02*
X007991Y014147D01*
X007909Y014228D01*
X007720Y014310D02*
X007720Y014637D01*
X007557Y014637D02*
X007720Y014473D01*
X007557Y014637D02*
X007475Y014637D01*
X007291Y014555D02*
X007291Y014392D01*
X007209Y014310D01*
X007045Y014310D01*
X006964Y014473D02*
X007291Y014473D01*
X007291Y014555D02*
X007209Y014637D01*
X007045Y014637D01*
X006964Y014555D01*
X006964Y014473D01*
X006775Y014310D02*
X006775Y014637D01*
X006530Y014637D01*
X006448Y014555D01*
X006448Y014310D01*
X006259Y014392D02*
X006178Y014473D01*
X005932Y014473D01*
X005932Y014555D02*
X005932Y014310D01*
X006178Y014310D01*
X006259Y014392D01*
X006178Y014637D02*
X006014Y014637D01*
X005932Y014555D01*
X005744Y014637D02*
X005744Y014392D01*
X005662Y014310D01*
X005417Y014310D01*
X005417Y014637D01*
X005228Y014555D02*
X005228Y014392D01*
X005146Y014310D01*
X004901Y014310D01*
X004901Y014800D01*
X004901Y014637D02*
X005146Y014637D01*
X005228Y014555D01*
X004712Y014637D02*
X004631Y014637D01*
X004631Y014310D01*
X004712Y014310D02*
X004549Y014310D01*
X004631Y014800D02*
X004631Y014882D01*
X004369Y014555D02*
X004369Y014392D01*
X004287Y014310D01*
X004123Y014310D01*
X004042Y014392D01*
X004042Y014555D01*
X004123Y014637D01*
X004287Y014637D01*
X004369Y014555D01*
X004029Y013960D02*
X004111Y013879D01*
X004029Y013960D02*
X003866Y013960D01*
X003784Y013879D01*
X003784Y013797D01*
X004111Y013470D01*
X003784Y013470D01*
X003595Y013552D02*
X003268Y013879D01*
X003268Y013552D01*
X003350Y013470D01*
X003513Y013470D01*
X003595Y013552D01*
X003595Y013879D01*
X003513Y013960D01*
X003350Y013960D01*
X003268Y013879D01*
X003080Y013797D02*
X002916Y013960D01*
X002916Y013470D01*
X002753Y013470D02*
X003080Y013470D01*
X002998Y014310D02*
X002834Y014310D01*
X002753Y014392D01*
X002753Y014555D01*
X002834Y014637D01*
X002998Y014637D01*
X003080Y014555D01*
X003080Y014392D01*
X002998Y014310D01*
X003268Y014310D02*
X003513Y014310D01*
X003595Y014392D01*
X003595Y014555D01*
X003513Y014637D01*
X003268Y014637D01*
X003771Y014392D02*
X003771Y014310D01*
X003853Y014310D01*
X003853Y014392D01*
X003771Y014392D01*
X002564Y014310D02*
X002564Y014637D01*
X002482Y014637D01*
X002400Y014555D01*
X002319Y014637D01*
X002237Y014555D01*
X002237Y014310D01*
X002237Y013960D02*
X002400Y013879D01*
X002564Y013715D01*
X002319Y013715D01*
X002237Y013633D01*
X002237Y013552D01*
X002319Y013470D01*
X002482Y013470D01*
X002564Y013552D01*
X002564Y013715D01*
X002400Y014310D02*
X002400Y014555D01*
D12*
X000763Y003512D02*
X000890Y003385D01*
X001144Y003385D01*
X001270Y003512D01*
X001270Y003765D01*
X000890Y003765D01*
X000763Y003639D01*
X000763Y003512D01*
X001017Y004019D02*
X000763Y004146D01*
X001017Y004019D02*
X001270Y003765D01*
X001540Y003512D02*
X001540Y003385D01*
X001666Y003385D01*
X001666Y003512D01*
X001540Y003512D01*
X001951Y003385D02*
X002458Y003385D01*
X002458Y003892D02*
X002205Y004146D01*
X002205Y003385D01*
X002227Y005160D02*
X002100Y005287D01*
X002100Y005667D01*
X002354Y005287D02*
X002227Y005160D01*
X002354Y005287D02*
X002481Y005160D01*
X002607Y005287D01*
X002607Y005667D01*
X002892Y005794D02*
X002892Y005287D01*
X003019Y005160D01*
X003273Y005160D01*
X003399Y005287D01*
X003399Y005794D01*
X003273Y005921D01*
X003019Y005921D01*
X002892Y005794D01*
X003635Y003892D02*
X004142Y003385D01*
X004142Y003892D02*
X003635Y003385D01*
X004416Y003385D02*
X004670Y003385D01*
X004543Y003385D02*
X004543Y003892D01*
X004670Y003892D01*
X004543Y004146D02*
X004543Y004272D01*
X004851Y005160D02*
X004851Y005667D01*
X004851Y005414D02*
X004598Y005667D01*
X004471Y005667D01*
X005081Y003892D02*
X004955Y003765D01*
X004955Y003385D01*
X005208Y003765D02*
X005081Y003892D01*
X005208Y003765D02*
X005208Y003385D01*
X005208Y003765D02*
X005335Y003892D01*
X005462Y003892D01*
X005462Y003385D01*
X005736Y003385D02*
X005863Y003512D01*
X005863Y004019D01*
X005990Y003892D02*
X005736Y003892D01*
X005516Y005160D02*
X005136Y005160D01*
X005136Y005667D01*
X005643Y005287D02*
X005516Y005160D01*
X005643Y005287D02*
X005643Y005667D01*
X005928Y005540D02*
X006055Y005667D01*
X006308Y005667D01*
X006435Y005540D01*
X006435Y005287D01*
X006308Y005160D01*
X006055Y005160D01*
X005928Y005287D01*
X005928Y005540D01*
X006269Y003892D02*
X006396Y003892D01*
X006649Y003639D01*
X006649Y003892D02*
X006649Y003385D01*
X006934Y003639D02*
X007441Y003639D01*
X007441Y003765D02*
X007315Y003892D01*
X007061Y003892D01*
X006934Y003765D01*
X006934Y003639D01*
X007061Y003385D02*
X007315Y003385D01*
X007441Y003512D01*
X007441Y003765D01*
X007726Y003639D02*
X007726Y004146D01*
X007726Y003639D02*
X007980Y003385D01*
X008233Y003639D01*
X008233Y004146D01*
X008293Y005160D02*
X008547Y005160D01*
X008420Y005160D02*
X008420Y005921D01*
X008547Y005921D01*
X008821Y005160D02*
X009074Y005160D01*
X008948Y005160D02*
X008948Y005921D01*
X009074Y005921D01*
X009359Y005540D02*
X009486Y005667D01*
X009740Y005667D01*
X009866Y005540D01*
X009866Y005287D01*
X009740Y005160D01*
X009486Y005160D01*
X009359Y005287D01*
X009359Y005540D01*
X010151Y005540D02*
X010278Y005414D01*
X010658Y005414D01*
X010658Y005160D02*
X010658Y005921D01*
X010278Y005921D01*
X010151Y005794D01*
X010151Y005540D01*
X010405Y005414D02*
X010151Y005160D01*
X007227Y005794D02*
X006973Y005540D01*
X006973Y005160D01*
X006973Y005540D02*
X006720Y005794D01*
X006720Y005921D01*
X007227Y005921D02*
X007227Y005794D01*
X001816Y005667D02*
X001816Y005160D01*
X001816Y005667D02*
X001435Y005667D01*
X001309Y005540D01*
X001309Y005160D01*
D13*
X003981Y010542D02*
X004211Y010542D01*
X004039Y010714D01*
X004039Y010370D01*
X004344Y010370D02*
X004459Y010485D01*
X004401Y010485D02*
X004573Y010485D01*
X004573Y010370D02*
X004573Y010714D01*
X004401Y010714D01*
X004344Y010657D01*
X004344Y010542D01*
X004401Y010485D01*
X005098Y009168D02*
X005034Y009104D01*
X005034Y009041D01*
X005098Y008977D01*
X005034Y008913D01*
X005034Y008849D01*
X005098Y008785D01*
X005226Y008785D01*
X005289Y008849D01*
X005433Y008913D02*
X005560Y008785D01*
X005624Y008785D01*
X005688Y008849D01*
X005688Y008913D01*
X005560Y009041D01*
X005560Y009104D01*
X005624Y009168D01*
X005688Y009104D01*
X005688Y009041D01*
X005433Y008785D01*
X005289Y009104D02*
X005226Y009168D01*
X005098Y009168D01*
X005098Y008977D02*
X005162Y008977D01*
X005164Y009891D02*
X005100Y009955D01*
X005100Y010083D01*
X005164Y010147D01*
X005420Y010147D01*
X005484Y010083D01*
X005484Y009955D01*
X005420Y009891D01*
X005164Y009891D01*
X005292Y010290D02*
X005292Y010418D01*
X005292Y010556D02*
X005292Y010684D01*
X005292Y010822D02*
X005356Y010886D01*
X005356Y011077D01*
X005228Y011013D02*
X005228Y010886D01*
X005292Y010822D01*
X005100Y010822D02*
X005100Y011013D01*
X005164Y011077D01*
X005228Y011013D01*
X005228Y011220D02*
X005228Y011476D01*
X005292Y011476D01*
X005356Y011412D01*
X005356Y011284D01*
X005292Y011220D01*
X005164Y011220D01*
X005100Y011284D01*
X005100Y011412D01*
X005164Y011683D02*
X005100Y011747D01*
X005164Y011683D02*
X005420Y011683D01*
X005356Y011619D02*
X005356Y011747D01*
X005484Y010684D02*
X005420Y010620D01*
X005100Y010620D01*
X005100Y010354D02*
X005420Y010354D01*
X005484Y010418D01*
X005895Y009168D02*
X005831Y009104D01*
X005831Y009041D01*
X006087Y008785D01*
X005831Y008785D01*
X005895Y009168D02*
X006023Y009168D01*
X006087Y009104D01*
X006629Y008977D02*
X006629Y008785D01*
X006629Y008977D02*
X006693Y009041D01*
X006821Y009041D01*
X006884Y008977D01*
X006884Y009168D02*
X006884Y008785D01*
X007028Y008849D02*
X007092Y008785D01*
X007219Y008785D01*
X007283Y008849D01*
X007283Y009104D01*
X007219Y009168D01*
X007092Y009168D01*
X007028Y009104D01*
X007025Y009810D02*
X006792Y009810D01*
X006733Y009868D01*
X006733Y009985D01*
X006792Y010044D01*
X007025Y010044D01*
X007084Y009985D01*
X007084Y009868D01*
X007025Y009810D01*
X006908Y010178D02*
X006908Y010295D01*
X006908Y010424D02*
X006908Y010541D01*
X007025Y010482D02*
X006733Y010482D01*
X006733Y010237D02*
X007025Y010237D01*
X007084Y010295D01*
X007025Y010482D02*
X007084Y010541D01*
X007025Y011110D02*
X006792Y011110D01*
X006733Y011168D01*
X006733Y011285D01*
X006792Y011344D01*
X007025Y011344D01*
X007084Y011285D01*
X007084Y011168D01*
X007025Y011110D01*
X006967Y011478D02*
X006967Y011653D01*
X006908Y011712D01*
X006733Y011712D01*
X006733Y011478D02*
X006967Y011478D01*
X005398Y006239D02*
X005226Y006239D01*
X005169Y006182D01*
X005169Y006067D01*
X005226Y006010D01*
X005398Y006010D01*
X005284Y006010D02*
X005169Y005895D01*
X005036Y005952D02*
X004978Y005895D01*
X004864Y005895D01*
X004806Y005952D01*
X004806Y006067D01*
X004864Y006124D01*
X004921Y006124D01*
X005036Y006067D01*
X005036Y006239D01*
X004806Y006239D01*
X005398Y006239D02*
X005398Y005895D01*
X005398Y000839D02*
X005226Y000839D01*
X005169Y000782D01*
X005169Y000667D01*
X005226Y000610D01*
X005398Y000610D01*
X005284Y000610D02*
X005169Y000495D01*
X005036Y000552D02*
X004978Y000495D01*
X004864Y000495D01*
X004806Y000552D01*
X004806Y000610D01*
X004864Y000667D01*
X005036Y000667D01*
X005036Y000552D01*
X005036Y000667D02*
X004921Y000782D01*
X004806Y000839D01*
X005398Y000839D02*
X005398Y000495D01*
X005279Y016260D02*
X005054Y016260D01*
X004979Y016335D01*
X004979Y016635D01*
X005054Y016710D01*
X005279Y016710D01*
X005279Y016260D01*
X004819Y016335D02*
X004744Y016260D01*
X004593Y016260D01*
X004518Y016335D01*
X004518Y016410D01*
X004593Y016485D01*
X004669Y016485D01*
X004593Y016485D02*
X004518Y016560D01*
X004518Y016635D01*
X004593Y016710D01*
X004744Y016710D01*
X004819Y016635D01*
X004351Y023810D02*
X004236Y023810D01*
X004179Y023867D01*
X004046Y023867D02*
X003988Y023810D01*
X003874Y023810D01*
X003816Y023867D01*
X003816Y023925D01*
X003874Y023982D01*
X004046Y023982D01*
X004046Y023867D01*
X004046Y023982D02*
X003931Y024097D01*
X003816Y024154D01*
X004179Y024097D02*
X004236Y024154D01*
X004351Y024154D01*
X004408Y024097D01*
X004408Y023867D01*
X004351Y023810D01*
X004281Y026783D02*
X004396Y026898D01*
X004338Y026898D02*
X004510Y026898D01*
X004510Y026783D02*
X004510Y027127D01*
X004338Y027127D01*
X004281Y027070D01*
X004281Y026955D01*
X004338Y026898D01*
X004148Y027013D02*
X004033Y027127D01*
X004033Y026783D01*
X004148Y026783D02*
X003918Y026783D01*
X003785Y026841D02*
X003556Y027070D01*
X003556Y026841D01*
X003613Y026783D01*
X003728Y026783D01*
X003785Y026841D01*
X003785Y027070D01*
X003728Y027127D01*
X003613Y027127D01*
X003556Y027070D01*
X003661Y028666D02*
X003604Y028724D01*
X003661Y028666D02*
X003776Y028666D01*
X003833Y028724D01*
X003833Y028953D01*
X003776Y029010D01*
X003661Y029010D01*
X003604Y028953D01*
X003471Y029010D02*
X003471Y028838D01*
X003356Y028896D01*
X003299Y028896D01*
X003241Y028838D01*
X003241Y028724D01*
X003299Y028666D01*
X003413Y028666D01*
X003471Y028724D01*
X003471Y029010D02*
X003241Y029010D01*
X002471Y031016D02*
X002471Y031360D01*
X002299Y031360D01*
X002241Y031303D01*
X002241Y031188D01*
X002299Y031131D01*
X002471Y031131D01*
X002356Y031131D02*
X002241Y031016D01*
X002108Y031016D02*
X001879Y031016D01*
X001994Y031016D02*
X001994Y031360D01*
X002108Y031246D01*
X001746Y031246D02*
X001746Y031303D01*
X001688Y031360D01*
X001574Y031360D01*
X001516Y031303D01*
X001516Y031246D01*
X001574Y031188D01*
X001688Y031188D01*
X001746Y031246D01*
X001688Y031188D02*
X001746Y031131D01*
X001746Y031074D01*
X001688Y031016D01*
X001574Y031016D01*
X001516Y031074D01*
X001516Y031131D01*
X001574Y031188D01*
X001574Y032316D02*
X001516Y032374D01*
X001516Y032603D01*
X001574Y032660D01*
X001688Y032660D01*
X001746Y032603D01*
X001746Y032546D01*
X001688Y032488D01*
X001516Y032488D01*
X001574Y032316D02*
X001688Y032316D01*
X001746Y032374D01*
X001879Y032316D02*
X002108Y032316D01*
X001994Y032316D02*
X001994Y032660D01*
X002108Y032546D01*
X002241Y032603D02*
X002241Y032488D01*
X002299Y032431D01*
X002471Y032431D01*
X002471Y032316D02*
X002471Y032660D01*
X002299Y032660D01*
X002241Y032603D01*
X002356Y032431D02*
X002241Y032316D01*
X002266Y033616D02*
X002381Y033731D01*
X002324Y033731D02*
X002496Y033731D01*
X002496Y033616D02*
X002496Y033960D01*
X002324Y033960D01*
X002266Y033903D01*
X002266Y033788D01*
X002324Y033731D01*
X002133Y033616D02*
X001904Y033846D01*
X001904Y033903D01*
X001961Y033960D01*
X002076Y033960D01*
X002133Y033903D01*
X002133Y033616D02*
X001904Y033616D01*
X001771Y033674D02*
X001771Y033903D01*
X001713Y033960D01*
X001599Y033960D01*
X001541Y033903D01*
X001771Y033674D01*
X001713Y033616D01*
X001599Y033616D01*
X001541Y033674D01*
X001541Y033903D01*
X001556Y035466D02*
X001556Y035810D01*
X001671Y035696D01*
X001804Y035696D02*
X001804Y035753D01*
X001861Y035810D01*
X001976Y035810D01*
X002033Y035753D01*
X002166Y035753D02*
X002166Y035638D01*
X002224Y035581D01*
X002396Y035581D01*
X002396Y035466D02*
X002396Y035810D01*
X002224Y035810D01*
X002166Y035753D01*
X002281Y035581D02*
X002166Y035466D01*
X002033Y035466D02*
X001804Y035696D01*
X001804Y035466D02*
X002033Y035466D01*
X001671Y035466D02*
X001441Y035466D01*
X001419Y038466D02*
X001419Y038810D01*
X001533Y038696D01*
X001666Y038753D02*
X001724Y038810D01*
X001838Y038810D01*
X001896Y038753D01*
X001896Y038524D01*
X001838Y038466D01*
X001724Y038466D01*
X001666Y038524D01*
X001533Y038466D02*
X001304Y038466D01*
X001171Y038466D02*
X000941Y038696D01*
X000941Y038753D01*
X000999Y038810D01*
X001113Y038810D01*
X001171Y038753D01*
X001171Y038466D02*
X000941Y038466D01*
X000986Y039760D02*
X000929Y039817D01*
X000929Y039875D01*
X000986Y039932D01*
X001044Y039932D01*
X000986Y039932D02*
X000929Y039989D01*
X000929Y040047D01*
X000986Y040104D01*
X001101Y040104D01*
X001158Y040047D01*
X001291Y040047D02*
X001291Y039989D01*
X001521Y039760D01*
X001291Y039760D01*
X001158Y039817D02*
X001101Y039760D01*
X000986Y039760D01*
X001291Y040047D02*
X001349Y040104D01*
X001463Y040104D01*
X001521Y040047D01*
X001654Y040047D02*
X001654Y039932D01*
X001711Y039875D01*
X001883Y039875D01*
X001769Y039875D02*
X001654Y039760D01*
X001654Y040047D02*
X001711Y040104D01*
X001883Y040104D01*
X001883Y039760D01*
X001868Y041058D02*
X001868Y041402D01*
X001696Y041402D01*
X001638Y041345D01*
X001638Y041230D01*
X001696Y041173D01*
X001868Y041173D01*
X001753Y041173D02*
X001638Y041058D01*
X001505Y041058D02*
X001276Y041288D01*
X001276Y041345D01*
X001333Y041402D01*
X001448Y041402D01*
X001505Y041345D01*
X001505Y041058D02*
X001276Y041058D01*
X001143Y041230D02*
X000913Y041230D01*
X000971Y041058D02*
X000971Y041402D01*
X001143Y041230D01*
X001161Y042368D02*
X000932Y042597D01*
X000932Y042655D01*
X000989Y042712D01*
X001104Y042712D01*
X001161Y042655D01*
X001294Y042655D02*
X001294Y042597D01*
X001524Y042368D01*
X001294Y042368D01*
X001161Y042368D02*
X000932Y042368D01*
X001294Y042655D02*
X001352Y042712D01*
X001466Y042712D01*
X001524Y042655D01*
X001657Y042655D02*
X001657Y042540D01*
X001714Y042483D01*
X001886Y042483D01*
X001772Y042483D02*
X001657Y042368D01*
X001657Y042655D02*
X001714Y042712D01*
X001886Y042712D01*
X001886Y042368D01*
X003116Y038835D02*
X003116Y038778D01*
X003346Y038549D01*
X003346Y038491D01*
X003479Y038549D02*
X003536Y038491D01*
X003651Y038491D01*
X003708Y038549D01*
X003708Y038778D01*
X003651Y038835D01*
X003536Y038835D01*
X003479Y038778D01*
X003346Y038835D02*
X003116Y038835D01*
X003931Y035810D02*
X003931Y035466D01*
X004046Y035466D02*
X003816Y035466D01*
X004046Y035696D02*
X003931Y035810D01*
X004179Y035466D02*
X004408Y035466D01*
X004294Y035466D02*
X004294Y035810D01*
X004408Y035696D01*
X004541Y035753D02*
X004541Y035638D01*
X004599Y035581D01*
X004771Y035581D01*
X004771Y035466D02*
X004771Y035810D01*
X004599Y035810D01*
X004541Y035753D01*
X004656Y035581D02*
X004541Y035466D01*
X004251Y033935D02*
X004308Y033878D01*
X004308Y033649D01*
X004251Y033591D01*
X004136Y033591D01*
X004079Y033649D01*
X003946Y033649D02*
X003946Y033706D01*
X003888Y033763D01*
X003774Y033763D01*
X003716Y033706D01*
X003716Y033649D01*
X003774Y033591D01*
X003888Y033591D01*
X003946Y033649D01*
X003888Y033763D02*
X003946Y033821D01*
X003946Y033878D01*
X003888Y033935D01*
X003774Y033935D01*
X003716Y033878D01*
X003716Y033821D01*
X003774Y033763D01*
X004079Y033878D02*
X004136Y033935D01*
X004251Y033935D01*
X005529Y032504D02*
X005529Y032447D01*
X005758Y032217D01*
X005758Y032160D01*
X005891Y032160D02*
X006121Y032160D01*
X006006Y032160D02*
X006006Y032504D01*
X006121Y032389D01*
X006254Y032332D02*
X006311Y032275D01*
X006483Y032275D01*
X006369Y032275D02*
X006254Y032160D01*
X006254Y032332D02*
X006254Y032447D01*
X006311Y032504D01*
X006483Y032504D01*
X006483Y032160D01*
X006308Y031110D02*
X006136Y031110D01*
X006079Y031053D01*
X006079Y030938D01*
X006136Y030881D01*
X006308Y030881D01*
X006194Y030881D02*
X006079Y030766D01*
X005946Y030824D02*
X005888Y030766D01*
X005774Y030766D01*
X005716Y030824D01*
X005716Y031053D01*
X005774Y031110D01*
X005888Y031110D01*
X005946Y031053D01*
X005946Y030996D01*
X005888Y030938D01*
X005716Y030938D01*
X005758Y032504D02*
X005529Y032504D01*
X006308Y031110D02*
X006308Y030766D01*
X006311Y027154D02*
X006254Y027097D01*
X006254Y026982D01*
X006311Y026925D01*
X006483Y026925D01*
X006369Y026925D02*
X006254Y026810D01*
X006121Y026867D02*
X006121Y026925D01*
X006063Y026982D01*
X005949Y026982D01*
X005891Y026925D01*
X005891Y026867D01*
X005949Y026810D01*
X006063Y026810D01*
X006121Y026867D01*
X006063Y026982D02*
X006121Y027039D01*
X006121Y027097D01*
X006063Y027154D01*
X005949Y027154D01*
X005891Y027097D01*
X005891Y027039D01*
X005949Y026982D01*
X006311Y027154D02*
X006483Y027154D01*
X006483Y026810D01*
X006383Y024129D02*
X006211Y024129D01*
X006154Y024072D01*
X006154Y023957D01*
X006211Y023900D01*
X006383Y023900D01*
X006269Y023900D02*
X006154Y023785D01*
X006021Y023785D02*
X006021Y023842D01*
X005791Y024072D01*
X005791Y024129D01*
X006021Y024129D01*
X006383Y024129D02*
X006383Y023785D01*
X008716Y023385D02*
X008946Y023385D01*
X008831Y023385D02*
X008831Y023729D01*
X008946Y023614D01*
X009079Y023672D02*
X009136Y023729D01*
X009251Y023729D01*
X009308Y023672D01*
X009308Y023442D01*
X009251Y023385D01*
X009136Y023385D01*
X009079Y023442D01*
X009027Y025535D02*
X008683Y025535D01*
X008798Y025535D02*
X008798Y025707D01*
X008855Y025764D01*
X008970Y025764D01*
X009027Y025707D01*
X009027Y025535D01*
X008798Y025650D02*
X008683Y025764D01*
X008683Y025898D02*
X008683Y026127D01*
X008683Y026012D02*
X009027Y026012D01*
X008913Y025898D01*
X010283Y025898D02*
X010513Y026127D01*
X010570Y026127D01*
X010627Y026070D01*
X010627Y025955D01*
X010570Y025898D01*
X010570Y025764D02*
X010455Y025764D01*
X010398Y025707D01*
X010398Y025535D01*
X010398Y025650D02*
X010283Y025764D01*
X010283Y025898D02*
X010283Y026127D01*
X010283Y025535D02*
X010627Y025535D01*
X010627Y025707D01*
X010570Y025764D01*
X010549Y023735D02*
X010491Y023678D01*
X010491Y023621D01*
X010721Y023391D01*
X010491Y023391D01*
X010549Y023735D02*
X010663Y023735D01*
X010721Y023678D01*
X010854Y023678D02*
X010911Y023735D01*
X011026Y023735D01*
X011083Y023678D01*
X011083Y023449D01*
X011026Y023391D01*
X010911Y023391D01*
X010854Y023449D01*
X008970Y017927D02*
X008913Y017927D01*
X008855Y017870D01*
X008798Y017927D01*
X008741Y017927D01*
X008683Y017870D01*
X008683Y017755D01*
X008741Y017698D01*
X008683Y017564D02*
X008798Y017450D01*
X008798Y017507D02*
X008798Y017335D01*
X008683Y017335D02*
X009027Y017335D01*
X009027Y017507D01*
X008970Y017564D01*
X008855Y017564D01*
X008798Y017507D01*
X008970Y017698D02*
X009027Y017755D01*
X009027Y017870D01*
X008970Y017927D01*
X008855Y017870D02*
X008855Y017812D01*
X006869Y035457D02*
X006869Y035801D01*
X006697Y035801D01*
X006639Y035744D01*
X006639Y035629D01*
X006697Y035572D01*
X006869Y035572D01*
X006754Y035572D02*
X006639Y035457D01*
X006506Y035457D02*
X006277Y035457D01*
X006392Y035457D02*
X006392Y035801D01*
X006506Y035687D01*
X006144Y035629D02*
X005914Y035629D01*
X005972Y035457D02*
X005972Y035801D01*
X006144Y035629D01*
X006216Y039466D02*
X006446Y039466D01*
X006331Y039466D02*
X006331Y039810D01*
X006446Y039696D01*
X006579Y039466D02*
X006808Y039466D01*
X006694Y039466D02*
X006694Y039810D01*
X006808Y039696D01*
X006941Y039753D02*
X006999Y039810D01*
X007113Y039810D01*
X007171Y039753D01*
X007171Y039524D01*
X007113Y039466D01*
X006999Y039466D01*
X006941Y039524D01*
X002292Y027168D02*
X002120Y027168D01*
X002063Y027110D01*
X002063Y026996D01*
X002120Y026938D01*
X002292Y026938D01*
X002178Y026938D02*
X002063Y026824D01*
X001930Y026824D02*
X001701Y026824D01*
X001815Y026824D02*
X001815Y027168D01*
X001930Y027053D01*
X001567Y027110D02*
X001510Y027168D01*
X001395Y027168D01*
X001338Y027110D01*
X001338Y027053D01*
X001395Y026996D01*
X001338Y026938D01*
X001338Y026881D01*
X001395Y026824D01*
X001510Y026824D01*
X001567Y026881D01*
X001453Y026996D02*
X001395Y026996D01*
X001391Y028685D02*
X001621Y028685D01*
X001506Y028685D02*
X001506Y029029D01*
X001621Y028914D01*
X001754Y028972D02*
X001811Y029029D01*
X001926Y029029D01*
X001983Y028972D01*
X001983Y028742D01*
X001926Y028685D01*
X001811Y028685D01*
X001754Y028742D01*
X001258Y028742D02*
X001029Y028972D01*
X001029Y028742D01*
X001086Y028685D01*
X001201Y028685D01*
X001258Y028742D01*
X001258Y028972D01*
X001201Y029029D01*
X001086Y029029D01*
X001029Y028972D01*
X002292Y027168D02*
X002292Y026824D01*
X002299Y024160D02*
X002241Y024103D01*
X002241Y023988D01*
X002299Y023931D01*
X002471Y023931D01*
X002471Y023816D02*
X002471Y024160D01*
X002299Y024160D01*
X002356Y023931D02*
X002241Y023816D01*
X002108Y023816D02*
X001879Y023816D01*
X001994Y023816D02*
X001994Y024160D01*
X002108Y024046D01*
X001746Y024103D02*
X001688Y024160D01*
X001574Y024160D01*
X001516Y024103D01*
X001516Y024046D01*
X001746Y023816D01*
X001516Y023816D01*
X001529Y022854D02*
X001758Y022854D01*
X001758Y022682D01*
X001644Y022739D01*
X001586Y022739D01*
X001529Y022682D01*
X001529Y022567D01*
X001586Y022510D01*
X001701Y022510D01*
X001758Y022567D01*
X001891Y022510D02*
X002121Y022510D01*
X002006Y022510D02*
X002006Y022854D01*
X002121Y022739D01*
X002254Y022682D02*
X002311Y022625D01*
X002483Y022625D01*
X002369Y022625D02*
X002254Y022510D01*
X002254Y022682D02*
X002254Y022797D01*
X002311Y022854D01*
X002483Y022854D01*
X002483Y022510D01*
X002471Y021560D02*
X002299Y021560D01*
X002241Y021503D01*
X002241Y021388D01*
X002299Y021331D01*
X002471Y021331D01*
X002471Y021216D02*
X002471Y021560D01*
X002356Y021331D02*
X002241Y021216D01*
X002108Y021216D02*
X001879Y021216D01*
X001994Y021216D02*
X001994Y021560D01*
X002108Y021446D01*
X001746Y021388D02*
X001574Y021388D01*
X001516Y021331D01*
X001516Y021274D01*
X001574Y021216D01*
X001688Y021216D01*
X001746Y021274D01*
X001746Y021388D01*
X001631Y021503D01*
X001516Y021560D01*
D14*
X006633Y012060D02*
X007208Y012060D01*
X007208Y010810D01*
X007208Y009560D01*
X006633Y009560D01*
X006633Y010810D02*
X007208Y010810D01*
X005183Y041760D02*
X005185Y041817D01*
X005191Y041874D01*
X005201Y041930D01*
X005214Y041985D01*
X005232Y042039D01*
X005253Y042092D01*
X005277Y042143D01*
X005306Y042193D01*
X005337Y042240D01*
X005372Y042285D01*
X005410Y042328D01*
X005450Y042368D01*
X005494Y042405D01*
X005539Y042439D01*
X005587Y042470D01*
X005637Y042497D01*
X005689Y042521D01*
X005742Y042541D01*
X005797Y042557D01*
X005852Y042570D01*
X005909Y042579D01*
X005965Y042584D01*
X006022Y042585D01*
X006079Y042582D01*
X006136Y042575D01*
X006192Y042564D01*
X006247Y042550D01*
X006301Y042531D01*
X006353Y042509D01*
X006404Y042484D01*
X006453Y042455D01*
X006500Y042422D01*
X006544Y042387D01*
X006586Y042348D01*
X006626Y042307D01*
X006662Y042263D01*
X006695Y042217D01*
X006725Y042168D01*
X006751Y042118D01*
X006774Y042066D01*
X006793Y042012D01*
X006809Y041957D01*
X006821Y041902D01*
X006829Y041845D01*
X006833Y041788D01*
X006833Y041732D01*
X006829Y041675D01*
X006821Y041618D01*
X006809Y041563D01*
X006793Y041508D01*
X006774Y041454D01*
X006751Y041402D01*
X006725Y041352D01*
X006695Y041303D01*
X006662Y041257D01*
X006626Y041213D01*
X006586Y041172D01*
X006544Y041133D01*
X006500Y041098D01*
X006453Y041065D01*
X006404Y041036D01*
X006353Y041011D01*
X006301Y040989D01*
X006247Y040970D01*
X006192Y040956D01*
X006136Y040945D01*
X006079Y040938D01*
X006022Y040935D01*
X005965Y040936D01*
X005909Y040941D01*
X005852Y040950D01*
X005797Y040963D01*
X005742Y040979D01*
X005689Y040999D01*
X005637Y041023D01*
X005587Y041050D01*
X005539Y041081D01*
X005494Y041115D01*
X005450Y041152D01*
X005410Y041192D01*
X005372Y041235D01*
X005337Y041280D01*
X005306Y041327D01*
X005277Y041377D01*
X005253Y041428D01*
X005232Y041481D01*
X005214Y041535D01*
X005201Y041590D01*
X005191Y041646D01*
X005185Y041703D01*
X005183Y041760D01*
D15*
X005435Y041785D02*
X005435Y041578D01*
X005538Y041475D01*
X005849Y041475D01*
X005849Y042096D01*
X005849Y041889D02*
X005538Y041889D01*
X005435Y041785D01*
X006080Y041785D02*
X006183Y041682D01*
X006493Y041682D01*
X006493Y041475D02*
X006493Y042096D01*
X006183Y042096D01*
X006080Y041992D01*
X006080Y041785D01*
D16*
X006583Y042335D02*
X005433Y041185D01*
D17*
X009933Y021816D02*
X009933Y021344D01*
X010169Y021580D02*
X009696Y021580D01*
X009933Y019516D02*
X009933Y019044D01*
X010169Y019280D02*
X009696Y019280D01*
X009933Y017216D02*
X009933Y016744D01*
X010169Y016980D02*
X009696Y016980D01*
D18*
X009208Y017610D02*
X009210Y017673D01*
X009216Y017735D01*
X009226Y017797D01*
X009239Y017859D01*
X009257Y017919D01*
X009278Y017978D01*
X009303Y018036D01*
X009332Y018092D01*
X009364Y018146D01*
X009399Y018198D01*
X009437Y018247D01*
X009479Y018295D01*
X009523Y018339D01*
X009571Y018381D01*
X009620Y018419D01*
X009672Y018454D01*
X009726Y018486D01*
X009782Y018515D01*
X009840Y018540D01*
X009899Y018561D01*
X009959Y018579D01*
X010021Y018592D01*
X010083Y018602D01*
X010145Y018608D01*
X010208Y018610D01*
X010271Y018608D01*
X010333Y018602D01*
X010395Y018592D01*
X010457Y018579D01*
X010517Y018561D01*
X010576Y018540D01*
X010634Y018515D01*
X010690Y018486D01*
X010744Y018454D01*
X010796Y018419D01*
X010845Y018381D01*
X010893Y018339D01*
X010937Y018295D01*
X010979Y018247D01*
X011017Y018198D01*
X011052Y018146D01*
X011084Y018092D01*
X011113Y018036D01*
X011138Y017978D01*
X011159Y017919D01*
X011177Y017859D01*
X011190Y017797D01*
X011200Y017735D01*
X011206Y017673D01*
X011208Y017610D01*
X011206Y017547D01*
X011200Y017485D01*
X011190Y017423D01*
X011177Y017361D01*
X011159Y017301D01*
X011138Y017242D01*
X011113Y017184D01*
X011084Y017128D01*
X011052Y017074D01*
X011017Y017022D01*
X010979Y016973D01*
X010937Y016925D01*
X010893Y016881D01*
X010845Y016839D01*
X010796Y016801D01*
X010744Y016766D01*
X010690Y016734D01*
X010634Y016705D01*
X010576Y016680D01*
X010517Y016659D01*
X010457Y016641D01*
X010395Y016628D01*
X010333Y016618D01*
X010271Y016612D01*
X010208Y016610D01*
X010145Y016612D01*
X010083Y016618D01*
X010021Y016628D01*
X009959Y016641D01*
X009899Y016659D01*
X009840Y016680D01*
X009782Y016705D01*
X009726Y016734D01*
X009672Y016766D01*
X009620Y016801D01*
X009571Y016839D01*
X009523Y016881D01*
X009479Y016925D01*
X009437Y016973D01*
X009399Y017022D01*
X009364Y017074D01*
X009332Y017128D01*
X009303Y017184D01*
X009278Y017242D01*
X009257Y017301D01*
X009239Y017361D01*
X009226Y017423D01*
X009216Y017485D01*
X009210Y017547D01*
X009208Y017610D01*
X009208Y019910D02*
X009210Y019973D01*
X009216Y020035D01*
X009226Y020097D01*
X009239Y020159D01*
X009257Y020219D01*
X009278Y020278D01*
X009303Y020336D01*
X009332Y020392D01*
X009364Y020446D01*
X009399Y020498D01*
X009437Y020547D01*
X009479Y020595D01*
X009523Y020639D01*
X009571Y020681D01*
X009620Y020719D01*
X009672Y020754D01*
X009726Y020786D01*
X009782Y020815D01*
X009840Y020840D01*
X009899Y020861D01*
X009959Y020879D01*
X010021Y020892D01*
X010083Y020902D01*
X010145Y020908D01*
X010208Y020910D01*
X010271Y020908D01*
X010333Y020902D01*
X010395Y020892D01*
X010457Y020879D01*
X010517Y020861D01*
X010576Y020840D01*
X010634Y020815D01*
X010690Y020786D01*
X010744Y020754D01*
X010796Y020719D01*
X010845Y020681D01*
X010893Y020639D01*
X010937Y020595D01*
X010979Y020547D01*
X011017Y020498D01*
X011052Y020446D01*
X011084Y020392D01*
X011113Y020336D01*
X011138Y020278D01*
X011159Y020219D01*
X011177Y020159D01*
X011190Y020097D01*
X011200Y020035D01*
X011206Y019973D01*
X011208Y019910D01*
X011206Y019847D01*
X011200Y019785D01*
X011190Y019723D01*
X011177Y019661D01*
X011159Y019601D01*
X011138Y019542D01*
X011113Y019484D01*
X011084Y019428D01*
X011052Y019374D01*
X011017Y019322D01*
X010979Y019273D01*
X010937Y019225D01*
X010893Y019181D01*
X010845Y019139D01*
X010796Y019101D01*
X010744Y019066D01*
X010690Y019034D01*
X010634Y019005D01*
X010576Y018980D01*
X010517Y018959D01*
X010457Y018941D01*
X010395Y018928D01*
X010333Y018918D01*
X010271Y018912D01*
X010208Y018910D01*
X010145Y018912D01*
X010083Y018918D01*
X010021Y018928D01*
X009959Y018941D01*
X009899Y018959D01*
X009840Y018980D01*
X009782Y019005D01*
X009726Y019034D01*
X009672Y019066D01*
X009620Y019101D01*
X009571Y019139D01*
X009523Y019181D01*
X009479Y019225D01*
X009437Y019273D01*
X009399Y019322D01*
X009364Y019374D01*
X009332Y019428D01*
X009303Y019484D01*
X009278Y019542D01*
X009257Y019601D01*
X009239Y019661D01*
X009226Y019723D01*
X009216Y019785D01*
X009210Y019847D01*
X009208Y019910D01*
X009208Y022210D02*
X009210Y022273D01*
X009216Y022335D01*
X009226Y022397D01*
X009239Y022459D01*
X009257Y022519D01*
X009278Y022578D01*
X009303Y022636D01*
X009332Y022692D01*
X009364Y022746D01*
X009399Y022798D01*
X009437Y022847D01*
X009479Y022895D01*
X009523Y022939D01*
X009571Y022981D01*
X009620Y023019D01*
X009672Y023054D01*
X009726Y023086D01*
X009782Y023115D01*
X009840Y023140D01*
X009899Y023161D01*
X009959Y023179D01*
X010021Y023192D01*
X010083Y023202D01*
X010145Y023208D01*
X010208Y023210D01*
X010271Y023208D01*
X010333Y023202D01*
X010395Y023192D01*
X010457Y023179D01*
X010517Y023161D01*
X010576Y023140D01*
X010634Y023115D01*
X010690Y023086D01*
X010744Y023054D01*
X010796Y023019D01*
X010845Y022981D01*
X010893Y022939D01*
X010937Y022895D01*
X010979Y022847D01*
X011017Y022798D01*
X011052Y022746D01*
X011084Y022692D01*
X011113Y022636D01*
X011138Y022578D01*
X011159Y022519D01*
X011177Y022459D01*
X011190Y022397D01*
X011200Y022335D01*
X011206Y022273D01*
X011208Y022210D01*
X011206Y022147D01*
X011200Y022085D01*
X011190Y022023D01*
X011177Y021961D01*
X011159Y021901D01*
X011138Y021842D01*
X011113Y021784D01*
X011084Y021728D01*
X011052Y021674D01*
X011017Y021622D01*
X010979Y021573D01*
X010937Y021525D01*
X010893Y021481D01*
X010845Y021439D01*
X010796Y021401D01*
X010744Y021366D01*
X010690Y021334D01*
X010634Y021305D01*
X010576Y021280D01*
X010517Y021259D01*
X010457Y021241D01*
X010395Y021228D01*
X010333Y021218D01*
X010271Y021212D01*
X010208Y021210D01*
X010145Y021212D01*
X010083Y021218D01*
X010021Y021228D01*
X009959Y021241D01*
X009899Y021259D01*
X009840Y021280D01*
X009782Y021305D01*
X009726Y021334D01*
X009672Y021366D01*
X009620Y021401D01*
X009571Y021439D01*
X009523Y021481D01*
X009479Y021525D01*
X009437Y021573D01*
X009399Y021622D01*
X009364Y021674D01*
X009332Y021728D01*
X009303Y021784D01*
X009278Y021842D01*
X009257Y021901D01*
X009239Y021961D01*
X009226Y022023D01*
X009216Y022085D01*
X009210Y022147D01*
X009208Y022210D01*
X008908Y028910D02*
X009908Y028910D01*
X009908Y030510D01*
X008908Y030510D01*
X008908Y028910D01*
X009188Y029461D02*
X009188Y029681D01*
X009261Y029754D01*
X009555Y029754D01*
X009628Y029681D01*
X009628Y029461D01*
X009188Y029461D01*
X009188Y029921D02*
X009188Y030215D01*
X009188Y030068D02*
X009628Y030068D01*
X009481Y029921D01*
X009558Y032734D02*
X008958Y032734D01*
X008037Y032734D01*
X008037Y033364D01*
X008958Y033364D01*
X008958Y032734D01*
X008988Y033688D02*
X008988Y034048D01*
X008988Y033868D02*
X009529Y033868D01*
X009349Y033688D01*
X009558Y033364D02*
X010058Y033364D01*
X010058Y032734D01*
X009558Y032734D01*
X009558Y033364D01*
X010058Y032734D02*
X010658Y032734D01*
X010658Y033364D01*
X011580Y033364D01*
X011580Y032734D01*
X010658Y032734D01*
X010508Y030510D02*
X011508Y030510D01*
X011508Y028910D01*
X010508Y028910D01*
X010508Y030510D01*
X010798Y030226D02*
X010798Y029933D01*
X011092Y030226D01*
X011165Y030226D01*
X011238Y030153D01*
X011238Y030006D01*
X011165Y029933D01*
X011165Y029766D02*
X011238Y029693D01*
X011238Y029472D01*
X010798Y029472D01*
X010798Y029693D01*
X010871Y029766D01*
X011165Y029766D01*
X011580Y033364D02*
X011580Y040056D01*
X010658Y040056D01*
X010658Y040686D01*
X011580Y040686D01*
X011580Y040056D01*
X010658Y040686D02*
X010058Y040686D01*
X009558Y040686D01*
X008958Y040686D01*
X008958Y040056D01*
X008037Y040056D01*
X008037Y040686D01*
X008958Y040686D01*
X009558Y040686D02*
X009558Y040056D01*
X010058Y040056D01*
X010058Y040686D01*
X008888Y034880D02*
X008558Y034710D01*
X008658Y034710D01*
X008558Y034710D02*
X008888Y034540D01*
X008888Y034880D01*
X008233Y035923D02*
X008194Y035923D01*
X008194Y037497D01*
X008233Y037497D01*
X008233Y035923D01*
X008194Y035923D02*
X008155Y035923D01*
X008155Y037497D01*
X008194Y037497D01*
X008155Y037497D02*
X008115Y037497D01*
X008115Y035962D01*
X008076Y035962D01*
X008076Y037458D01*
X008037Y037497D02*
X008115Y037497D01*
X008037Y037497D02*
X008037Y040056D01*
X008037Y037497D02*
X008037Y035923D01*
X008155Y035923D01*
X008037Y035923D02*
X008037Y033364D01*
X006833Y018260D02*
X005183Y018260D01*
X005455Y017660D02*
X005561Y017660D01*
X005058Y018057D02*
X005085Y018111D01*
X005115Y018162D01*
X005148Y018212D01*
X005183Y018260D01*
X005058Y017163D02*
X005087Y017106D01*
X005120Y017050D01*
X005155Y016997D01*
X005195Y016946D01*
X005237Y016898D01*
X005282Y016852D01*
X005329Y016809D01*
X005379Y016769D01*
X005432Y016732D01*
X005487Y016699D01*
X005543Y016668D01*
X005602Y016642D01*
X005662Y016619D01*
X005723Y016599D01*
X005785Y016584D01*
X005848Y016572D01*
X005912Y016564D01*
X005976Y016560D01*
X006040Y016560D01*
X006104Y016564D01*
X006168Y016572D01*
X006231Y016584D01*
X006293Y016599D01*
X006354Y016619D01*
X006414Y016642D01*
X006473Y016668D01*
X006529Y016699D01*
X006584Y016732D01*
X006637Y016769D01*
X006687Y016809D01*
X006734Y016852D01*
X006779Y016898D01*
X006821Y016946D01*
X006861Y016997D01*
X006896Y017050D01*
X006929Y017106D01*
X006958Y017163D01*
X006561Y017660D02*
X006455Y017660D01*
X006962Y018048D02*
X006935Y018104D01*
X006904Y018158D01*
X006870Y018210D01*
X006833Y018260D01*
X006358Y012310D02*
X005858Y012310D01*
X005608Y012060D01*
X005608Y011560D01*
X005858Y011310D01*
X005608Y011060D01*
X005608Y010560D01*
X005858Y010310D01*
X005608Y010060D01*
X005608Y009560D01*
X005858Y009310D01*
X006358Y009310D01*
X006608Y009560D01*
X006608Y010060D01*
X006358Y010310D01*
X006608Y010560D01*
X006608Y011060D01*
X006358Y011310D01*
X006608Y011560D01*
X006608Y012060D01*
X006358Y012310D01*
D19*
X011344Y017280D02*
X011278Y017346D01*
X011278Y017477D01*
X011344Y017542D01*
X011344Y017679D02*
X011278Y017744D01*
X011278Y017875D01*
X011344Y017941D01*
X011606Y017941D01*
X011672Y017875D01*
X011672Y017744D01*
X011606Y017679D01*
X011541Y017679D01*
X011475Y017744D01*
X011475Y017941D01*
X011606Y017542D02*
X011672Y017477D01*
X011672Y017346D01*
X011606Y017280D01*
X011344Y017280D01*
X011339Y019566D02*
X011273Y019632D01*
X011273Y019763D01*
X011339Y019829D01*
X011470Y019965D02*
X011470Y020227D01*
X011667Y020162D02*
X011470Y019965D01*
X011601Y019829D02*
X011667Y019763D01*
X011667Y019632D01*
X011601Y019566D01*
X011339Y019566D01*
X011273Y020162D02*
X011667Y020162D01*
X011595Y021866D02*
X011333Y021866D01*
X011267Y021932D01*
X011267Y022063D01*
X011333Y022129D01*
X011333Y022265D02*
X011267Y022331D01*
X011267Y022462D01*
X011333Y022527D01*
X011399Y022527D01*
X011464Y022462D01*
X011464Y022396D01*
X011464Y022462D02*
X011530Y022527D01*
X011595Y022527D01*
X011661Y022462D01*
X011661Y022331D01*
X011595Y022265D01*
X011595Y022129D02*
X011661Y022063D01*
X011661Y021932D01*
X011595Y021866D01*
D20*
X011008Y029160D03*
X009408Y029160D03*
D21*
X009408Y028785D03*
X009408Y030635D03*
X011008Y030635D03*
X011008Y028785D03*
D22*
X008768Y034710D03*
D23*
X008843Y034785D03*
X008843Y034635D03*
D24*
X008688Y034710D03*
M02*
