G75*
G70*
%OFA0B0*%
%FSLAX24Y24*%
%IPPOS*%
%LPD*%
%AMOC8*
5,1,8,0,0,1.08239X$1,22.5*
%
%ADD10C,0.0000*%
%ADD11OC8,0.0620*%
%ADD12C,0.0620*%
%ADD13C,0.0740*%
%ADD14C,0.0660*%
%ADD15OC8,0.0660*%
%ADD16C,0.1306*%
%ADD17C,0.1286*%
%ADD18C,0.0812*%
%ADD19R,0.0620X0.0620*%
%ADD20R,0.0772X0.0772*%
%ADD21C,0.0694*%
%ADD22C,0.0240*%
%ADD23C,0.0160*%
%ADD24C,0.0360*%
%ADD25C,0.0100*%
%ADD26C,0.0240*%
D10*
X000190Y000492D02*
X000190Y012303D01*
X043497Y012303D01*
X043497Y000492D01*
X000190Y000492D01*
D11*
X023548Y003878D03*
X024548Y003878D03*
X028903Y003878D03*
X029903Y003878D03*
X033233Y003878D03*
X034233Y003878D03*
X038588Y003878D03*
X039588Y003878D03*
X034127Y002252D03*
X034127Y001252D03*
X029009Y001094D03*
X029009Y002094D03*
X024481Y002094D03*
X024481Y001094D03*
X024362Y006134D03*
X024362Y007134D03*
X027210Y008208D03*
X028210Y008208D03*
X020336Y010846D03*
X019336Y010846D03*
X022119Y011601D03*
X023655Y011887D03*
X025190Y011601D03*
X026725Y011887D03*
X026725Y010887D03*
X023655Y010887D03*
X018552Y011846D03*
X017552Y011846D03*
X016552Y010846D03*
X017552Y009846D03*
X018552Y009846D03*
D12*
X019267Y009593D03*
X017631Y009145D03*
X016647Y009145D03*
X022119Y010801D03*
X025190Y010801D03*
X022873Y009593D03*
X022599Y008913D03*
X026205Y008913D03*
X026891Y009193D03*
X030497Y009193D03*
X031143Y009193D03*
X034749Y009193D03*
X034769Y010807D03*
X034769Y011791D03*
X031163Y011791D03*
X031163Y010807D03*
X034910Y007271D03*
X034910Y006271D03*
X034910Y005271D03*
X034910Y004271D03*
X034910Y003271D03*
X033371Y003002D03*
X034910Y002271D03*
X033371Y002037D03*
X034910Y001271D03*
X033371Y001073D03*
X029765Y001073D03*
X029765Y002037D03*
X028225Y002114D03*
X029765Y003002D03*
X028225Y003114D03*
X028225Y004114D03*
X028225Y005114D03*
X028225Y006114D03*
X028225Y007114D03*
X025225Y007114D03*
X025225Y006114D03*
X025225Y005114D03*
X025225Y004114D03*
X025225Y003114D03*
X025225Y002114D03*
X025225Y001114D03*
X023686Y001083D03*
X020143Y001712D03*
X020080Y001083D03*
X016536Y001712D03*
X016536Y002697D03*
X016536Y003681D03*
X020143Y003681D03*
X020143Y002697D03*
X017631Y005539D03*
X016647Y005539D03*
X015379Y006397D03*
X011773Y006397D03*
X009867Y006397D03*
X006261Y006397D03*
X004355Y006397D03*
X000749Y006397D03*
X037910Y006271D03*
X037910Y005271D03*
X037910Y004271D03*
X037910Y003271D03*
X037910Y002271D03*
X038864Y001279D03*
X042471Y001279D03*
X037910Y007271D03*
D13*
X030469Y010530D03*
X027469Y010530D03*
X027509Y011752D03*
X030509Y011752D03*
D14*
X041206Y010031D03*
D15*
X040206Y010031D03*
X039206Y010031D03*
X038206Y010031D03*
X037206Y010031D03*
X037206Y011031D03*
X038206Y011031D03*
X039206Y011031D03*
X040206Y011031D03*
X041206Y011031D03*
D16*
X013576Y011201D03*
X008064Y011201D03*
X002552Y011201D03*
X002552Y005295D03*
X008064Y005295D03*
X013576Y005295D03*
D17*
X012277Y003445D03*
X009993Y003445D03*
X006765Y003445D03*
X004481Y003445D03*
X001253Y003445D03*
X015505Y003445D03*
X015505Y009350D03*
X012277Y009350D03*
X009993Y009350D03*
X006765Y009350D03*
X004481Y009350D03*
X001253Y009350D03*
D18*
X002552Y007500D03*
X008064Y007500D03*
X013576Y007500D03*
X013576Y001594D03*
X008064Y001594D03*
X002552Y001594D03*
D19*
X028225Y001114D03*
X037910Y001271D03*
D20*
X041529Y004429D03*
X031686Y004429D03*
X021844Y004429D03*
X021844Y008366D03*
X031686Y008366D03*
X041529Y008366D03*
D21*
X038773Y007382D03*
X038773Y006397D03*
X038773Y005413D03*
X028930Y005413D03*
X028930Y006397D03*
X028930Y007382D03*
X019088Y007382D03*
X019088Y006397D03*
X019088Y005413D03*
D22*
X023590Y004836D02*
X024548Y003878D01*
X024989Y003878D01*
X025225Y004114D01*
X023590Y004836D02*
X023590Y008692D01*
X024563Y009979D02*
X023655Y010887D01*
X023655Y010907D01*
X023390Y011172D01*
X022476Y011167D01*
X022119Y010801D01*
X022121Y010801D01*
X022500Y010422D01*
X022820Y010422D01*
X023070Y010172D01*
X026470Y006732D01*
X026470Y005869D01*
X028225Y004114D01*
X028462Y003878D01*
X028903Y003878D01*
X030077Y005052D01*
X032510Y005052D01*
X032790Y004772D01*
X035350Y004772D01*
X035850Y004271D01*
X037910Y004271D01*
X038304Y003878D01*
X038588Y003878D01*
X034910Y004271D02*
X034517Y003878D01*
X034233Y003878D01*
X029918Y009979D02*
X024563Y009979D01*
X027469Y010530D02*
X028061Y011122D01*
X030828Y011122D01*
X031163Y010807D01*
X030469Y010530D02*
X029918Y009979D01*
X034769Y010807D02*
X035013Y011031D01*
X037206Y011031D01*
X037206Y010031D01*
X040446Y011791D02*
X041206Y011031D01*
X041206Y010031D01*
X040446Y011791D02*
X034769Y011791D01*
X031163Y011791D02*
X031103Y011752D01*
X030509Y011752D01*
X027509Y011752D02*
X027373Y011887D01*
X026725Y011887D01*
X026439Y011601D01*
X025190Y011601D01*
D23*
X022119Y010801D02*
X021779Y010801D01*
X017631Y006653D01*
X017631Y005539D01*
D24*
X023590Y008692D03*
D25*
X023853Y008569D02*
X023967Y008569D01*
X023880Y008634D02*
X023836Y008528D01*
X023820Y008512D01*
X023820Y004931D01*
X024454Y004298D01*
X024722Y004298D01*
X024810Y004210D01*
X024869Y004352D01*
X024988Y004470D01*
X025142Y004534D01*
X025309Y004534D01*
X025463Y004470D01*
X025581Y004352D01*
X025645Y004198D01*
X025645Y004030D01*
X025581Y003876D01*
X025463Y003758D01*
X025309Y003694D01*
X025142Y003694D01*
X025134Y003697D01*
X025084Y003648D01*
X024912Y003648D01*
X024722Y003458D01*
X024374Y003458D01*
X024128Y003704D01*
X024128Y003973D01*
X023360Y004741D01*
X023360Y008512D01*
X023344Y008528D01*
X023300Y008634D01*
X023300Y008750D01*
X023342Y008852D01*
X023019Y008852D01*
X023019Y008829D01*
X022955Y008675D01*
X022837Y008557D01*
X022759Y008524D01*
X022759Y008114D01*
X022665Y008021D01*
X018165Y003521D01*
X016925Y003521D01*
X016893Y003443D01*
X016774Y003325D01*
X016695Y003292D01*
X018764Y003292D01*
X019040Y003568D01*
X019040Y003707D01*
X019175Y003842D01*
X019365Y003842D01*
X019500Y003707D01*
X019500Y003517D01*
X019365Y003382D01*
X019306Y003382D01*
X018990Y003066D01*
X018896Y002972D01*
X016855Y002972D01*
X016893Y002935D01*
X016956Y002780D01*
X016956Y002613D01*
X016893Y002459D01*
X016817Y002383D01*
X017885Y002383D01*
X017979Y002289D01*
X019456Y000812D01*
X019756Y000812D01*
X019724Y000845D01*
X019660Y000999D01*
X019660Y001166D01*
X019724Y001320D01*
X019832Y001429D01*
X019787Y001475D01*
X019723Y001629D01*
X019723Y001796D01*
X019787Y001950D01*
X019905Y002068D01*
X019983Y002101D01*
X019983Y002308D01*
X019905Y002341D01*
X019787Y002459D01*
X019723Y002613D01*
X019723Y002780D01*
X019787Y002935D01*
X019905Y003053D01*
X019983Y003085D01*
X019983Y003293D01*
X019905Y003325D01*
X019787Y003443D01*
X019723Y003597D01*
X019723Y003764D01*
X019787Y003919D01*
X019905Y004037D01*
X020059Y004101D01*
X020226Y004101D01*
X020381Y004037D01*
X020499Y003919D01*
X020563Y003764D01*
X020563Y003597D01*
X020499Y003443D01*
X020381Y003325D01*
X020303Y003293D01*
X020303Y003085D01*
X020381Y003053D01*
X020499Y002935D01*
X020563Y002780D01*
X020563Y002613D01*
X020499Y002459D01*
X020381Y002341D01*
X020303Y002308D01*
X020303Y002101D01*
X020381Y002068D01*
X024061Y002068D01*
X024061Y002166D02*
X020303Y002166D01*
X020303Y002265D02*
X024061Y002265D01*
X024061Y002268D02*
X024061Y001920D01*
X024071Y001910D01*
X024033Y001872D01*
X020531Y001872D01*
X020499Y001950D01*
X020381Y002068D01*
X020480Y001969D02*
X024061Y001969D01*
X024099Y001712D02*
X020143Y001712D01*
X020143Y002697D01*
X020143Y003681D01*
X020531Y003841D02*
X023088Y003841D01*
X023088Y003848D02*
X023088Y003687D01*
X023358Y003418D01*
X023518Y003418D01*
X023518Y003848D01*
X023088Y003848D01*
X023088Y003908D02*
X023518Y003908D01*
X023518Y003848D01*
X023578Y003848D01*
X023578Y003418D01*
X023739Y003418D01*
X024008Y003687D01*
X024008Y003848D01*
X023578Y003848D01*
X023578Y003908D01*
X023518Y003908D01*
X023518Y004338D01*
X023358Y004338D01*
X023088Y004068D01*
X023088Y003908D01*
X023088Y003939D02*
X022339Y003939D01*
X022350Y003951D02*
X022322Y003923D01*
X022288Y003903D01*
X022250Y003893D01*
X021894Y003893D01*
X021894Y004379D01*
X021894Y004479D01*
X022380Y004479D01*
X022380Y004835D01*
X022370Y004873D01*
X022350Y004907D01*
X022322Y004935D01*
X022288Y004955D01*
X022250Y004965D01*
X021894Y004965D01*
X021894Y004479D01*
X021794Y004479D01*
X021794Y004965D01*
X021438Y004965D01*
X021399Y004955D01*
X021365Y004935D01*
X021337Y004907D01*
X021318Y004873D01*
X021307Y004835D01*
X021307Y004479D01*
X021794Y004479D01*
X021794Y004379D01*
X021894Y004379D01*
X022380Y004379D01*
X022380Y004023D01*
X022370Y003985D01*
X022350Y003951D01*
X022380Y004038D02*
X023088Y004038D01*
X023156Y004136D02*
X022380Y004136D01*
X022380Y004235D02*
X023255Y004235D01*
X023353Y004333D02*
X022380Y004333D01*
X021894Y004333D02*
X021794Y004333D01*
X021794Y004379D02*
X021794Y003893D01*
X021438Y003893D01*
X021399Y003903D01*
X021365Y003923D01*
X021337Y003951D01*
X021318Y003985D01*
X021307Y004023D01*
X021307Y004379D01*
X021794Y004379D01*
X021794Y004432D02*
X019076Y004432D01*
X018978Y004333D02*
X021307Y004333D01*
X021307Y004235D02*
X018879Y004235D01*
X018781Y004136D02*
X021307Y004136D01*
X021307Y004038D02*
X020378Y004038D01*
X020478Y003939D02*
X021348Y003939D01*
X021794Y003939D02*
X021894Y003939D01*
X021894Y004038D02*
X021794Y004038D01*
X021794Y004136D02*
X021894Y004136D01*
X021894Y004235D02*
X021794Y004235D01*
X021894Y004432D02*
X023669Y004432D01*
X023739Y004338D02*
X023578Y004338D01*
X023578Y003908D01*
X024008Y003908D01*
X024008Y004068D01*
X023739Y004338D01*
X023743Y004333D02*
X023767Y004333D01*
X023842Y004235D02*
X023866Y004235D01*
X023940Y004136D02*
X023964Y004136D01*
X024008Y004038D02*
X024063Y004038D01*
X024008Y003939D02*
X024128Y003939D01*
X024128Y003841D02*
X024008Y003841D01*
X024008Y003742D02*
X024128Y003742D01*
X024188Y003644D02*
X023965Y003644D01*
X023866Y003545D02*
X024287Y003545D01*
X024810Y003545D02*
X025065Y003545D01*
X025049Y003540D02*
X024984Y003507D01*
X024926Y003465D01*
X024875Y003414D01*
X024832Y003355D01*
X024799Y003291D01*
X024777Y003222D01*
X024765Y003150D01*
X024765Y003144D01*
X025195Y003144D01*
X025195Y003084D01*
X024765Y003084D01*
X024765Y003078D01*
X024777Y003006D01*
X024799Y002937D01*
X024832Y002873D01*
X024875Y002814D01*
X024926Y002763D01*
X024984Y002721D01*
X025049Y002688D01*
X025118Y002665D01*
X025189Y002654D01*
X025195Y002654D01*
X025195Y003084D01*
X025255Y003084D01*
X025255Y002654D01*
X025262Y002654D01*
X025333Y002665D01*
X025402Y002688D01*
X025467Y002721D01*
X025525Y002763D01*
X025576Y002814D01*
X025619Y002873D01*
X025652Y002937D01*
X025674Y003006D01*
X025685Y003078D01*
X025685Y003084D01*
X025255Y003084D01*
X025255Y003144D01*
X025195Y003144D01*
X025195Y003574D01*
X025189Y003574D01*
X025118Y003563D01*
X025049Y003540D01*
X025195Y003545D02*
X025255Y003545D01*
X025262Y003574D02*
X025255Y003574D01*
X025255Y003144D01*
X025685Y003144D01*
X025685Y003150D01*
X025674Y003222D01*
X025652Y003291D01*
X025619Y003355D01*
X025576Y003414D01*
X025525Y003465D01*
X025467Y003507D01*
X025402Y003540D01*
X025333Y003563D01*
X025262Y003574D01*
X025255Y003447D02*
X025195Y003447D01*
X025195Y003348D02*
X025255Y003348D01*
X025255Y003250D02*
X025195Y003250D01*
X025195Y003151D02*
X025255Y003151D01*
X025255Y003053D02*
X025195Y003053D01*
X025195Y002954D02*
X025255Y002954D01*
X025255Y002856D02*
X025195Y002856D01*
X025195Y002757D02*
X025255Y002757D01*
X025255Y002659D02*
X025195Y002659D01*
X025158Y002659D02*
X020563Y002659D01*
X020563Y002757D02*
X024934Y002757D01*
X024844Y002856D02*
X020531Y002856D01*
X020479Y002954D02*
X024794Y002954D01*
X024769Y003053D02*
X020380Y003053D01*
X020303Y003151D02*
X024766Y003151D01*
X024786Y003250D02*
X020303Y003250D01*
X020404Y003348D02*
X024829Y003348D01*
X024908Y003447D02*
X023768Y003447D01*
X023578Y003447D02*
X023518Y003447D01*
X023518Y003545D02*
X023578Y003545D01*
X023578Y003644D02*
X023518Y003644D01*
X023518Y003742D02*
X023578Y003742D01*
X023578Y003841D02*
X023518Y003841D01*
X023518Y003939D02*
X023578Y003939D01*
X023578Y004038D02*
X023518Y004038D01*
X023518Y004136D02*
X023578Y004136D01*
X023578Y004235D02*
X023518Y004235D01*
X023518Y004333D02*
X023578Y004333D01*
X024319Y004432D02*
X024949Y004432D01*
X024862Y004333D02*
X024418Y004333D01*
X024785Y004235D02*
X024821Y004235D01*
X025133Y004530D02*
X024221Y004530D01*
X024122Y004629D02*
X027385Y004629D01*
X027287Y004727D02*
X025390Y004727D01*
X025463Y004758D02*
X025581Y004876D01*
X025645Y005030D01*
X025645Y005198D01*
X025581Y005352D01*
X025463Y005470D01*
X025309Y005534D01*
X025142Y005534D01*
X024988Y005470D01*
X024869Y005352D01*
X024805Y005198D01*
X024805Y005030D01*
X024869Y004876D01*
X024988Y004758D01*
X025142Y004694D01*
X025309Y004694D01*
X025463Y004758D01*
X025531Y004826D02*
X027188Y004826D01*
X027090Y004924D02*
X025602Y004924D01*
X025642Y005023D02*
X026991Y005023D01*
X026893Y005121D02*
X025645Y005121D01*
X025636Y005220D02*
X026794Y005220D01*
X026696Y005318D02*
X025595Y005318D01*
X025516Y005417D02*
X026597Y005417D01*
X026499Y005515D02*
X025354Y005515D01*
X025309Y005694D02*
X025463Y005758D01*
X025581Y005876D01*
X025645Y006030D01*
X025645Y006198D01*
X025581Y006352D01*
X025463Y006470D01*
X025309Y006534D01*
X025142Y006534D01*
X024988Y006470D01*
X024869Y006352D01*
X024845Y006294D01*
X024782Y006294D01*
X024782Y006308D01*
X024536Y006554D01*
X024188Y006554D01*
X023942Y006308D01*
X023942Y005960D01*
X024188Y005714D01*
X024536Y005714D01*
X024782Y005960D01*
X024782Y005974D01*
X024829Y005974D01*
X024869Y005876D01*
X024988Y005758D01*
X025142Y005694D01*
X025309Y005694D01*
X025354Y005712D02*
X026302Y005712D01*
X026240Y005774D02*
X027809Y004205D01*
X027805Y004198D01*
X027805Y004030D01*
X027869Y003876D01*
X027988Y003758D01*
X028142Y003694D01*
X028309Y003694D01*
X028317Y003697D01*
X028366Y003648D01*
X028539Y003648D01*
X028729Y003458D01*
X029077Y003458D01*
X029323Y003704D01*
X029323Y003973D01*
X030000Y004650D01*
X030000Y004477D01*
X030135Y004342D01*
X030234Y004342D01*
X033143Y001433D01*
X033133Y001429D01*
X033015Y001311D01*
X032951Y001157D01*
X032951Y000990D01*
X033015Y000835D01*
X033038Y000812D01*
X030098Y000812D01*
X030121Y000835D01*
X030185Y000990D01*
X030185Y001157D01*
X030121Y001311D01*
X030003Y001429D01*
X029925Y001461D01*
X029925Y001649D01*
X030003Y001681D01*
X030121Y001799D01*
X030185Y001954D01*
X030185Y002121D01*
X030121Y002275D01*
X030003Y002393D01*
X029848Y002457D01*
X029681Y002457D01*
X029527Y002393D01*
X029415Y002282D01*
X029285Y002412D01*
X029391Y002412D01*
X029596Y002617D01*
X029681Y002582D01*
X029848Y002582D01*
X030003Y002646D01*
X030121Y002764D01*
X030185Y002918D01*
X030185Y003085D01*
X030121Y003240D01*
X030003Y003358D01*
X029858Y003418D01*
X029873Y003418D01*
X029873Y003848D01*
X029933Y003848D01*
X029933Y003908D01*
X030363Y003908D01*
X030363Y004068D01*
X030093Y004338D01*
X029933Y004338D01*
X029933Y003908D01*
X029873Y003908D01*
X029873Y004338D01*
X029712Y004338D01*
X029443Y004068D01*
X029443Y003908D01*
X029873Y003908D01*
X029873Y003848D01*
X029443Y003848D01*
X029443Y003687D01*
X029708Y003422D01*
X029681Y003422D01*
X029527Y003358D01*
X029409Y003240D01*
X029345Y003085D01*
X029345Y002918D01*
X029374Y002847D01*
X029259Y002732D01*
X028401Y002732D01*
X028463Y002758D01*
X028581Y002876D01*
X028645Y003030D01*
X028645Y003198D01*
X028581Y003352D01*
X028463Y003470D01*
X028309Y003534D01*
X028142Y003534D01*
X027988Y003470D01*
X027869Y003352D01*
X027805Y003198D01*
X027805Y003030D01*
X027869Y002876D01*
X027988Y002758D01*
X028050Y002732D01*
X028004Y002732D01*
X026546Y001274D01*
X025614Y001274D01*
X025581Y001352D01*
X025463Y001470D01*
X025309Y001534D01*
X025142Y001534D01*
X024988Y001470D01*
X024869Y001352D01*
X024854Y001315D01*
X024655Y001514D01*
X024307Y001514D01*
X024063Y001270D01*
X024042Y001320D01*
X023924Y001439D01*
X023770Y001503D01*
X023603Y001503D01*
X023448Y001439D01*
X023330Y001320D01*
X023266Y001166D01*
X023266Y000999D01*
X023330Y000845D01*
X023363Y000812D01*
X020403Y000812D01*
X020436Y000845D01*
X020500Y000999D01*
X020500Y001166D01*
X020436Y001320D01*
X020390Y001366D01*
X020499Y001475D01*
X020531Y001552D01*
X024166Y001552D01*
X024259Y001646D01*
X024297Y001684D01*
X024307Y001674D01*
X024655Y001674D01*
X024866Y001885D01*
X024869Y001876D01*
X024988Y001758D01*
X025142Y001694D01*
X025309Y001694D01*
X025463Y001758D01*
X025581Y001876D01*
X025645Y002030D01*
X025645Y002198D01*
X025581Y002352D01*
X025463Y002470D01*
X025309Y002534D01*
X025142Y002534D01*
X024988Y002470D01*
X024869Y002352D01*
X024854Y002315D01*
X024655Y002514D01*
X024307Y002514D01*
X024061Y002268D01*
X024157Y002363D02*
X020404Y002363D01*
X020500Y002462D02*
X024255Y002462D01*
X024708Y002462D02*
X024979Y002462D01*
X024881Y002363D02*
X024806Y002363D01*
X024501Y002114D02*
X024481Y002094D01*
X024099Y001712D01*
X024189Y001575D02*
X026847Y001575D01*
X026749Y001477D02*
X025447Y001477D01*
X025555Y001378D02*
X026650Y001378D01*
X026552Y001280D02*
X025611Y001280D01*
X025004Y001477D02*
X024693Y001477D01*
X024791Y001378D02*
X024896Y001378D01*
X025225Y001114D02*
X024501Y001114D01*
X024481Y001094D01*
X023698Y001094D01*
X023686Y001083D01*
X023266Y001083D02*
X020500Y001083D01*
X020493Y001181D02*
X023272Y001181D01*
X023313Y001280D02*
X020453Y001280D01*
X020403Y001378D02*
X023388Y001378D01*
X023541Y001477D02*
X020500Y001477D01*
X020143Y001712D02*
X020080Y001649D01*
X020080Y001083D01*
X019660Y001083D02*
X019185Y001083D01*
X019087Y001181D02*
X019666Y001181D01*
X019707Y001280D02*
X018988Y001280D01*
X018890Y001378D02*
X019782Y001378D01*
X019786Y001477D02*
X018791Y001477D01*
X018693Y001575D02*
X019745Y001575D01*
X019723Y001674D02*
X018594Y001674D01*
X018496Y001772D02*
X019723Y001772D01*
X019754Y001871D02*
X018397Y001871D01*
X018299Y001969D02*
X019806Y001969D01*
X019904Y002068D02*
X018200Y002068D01*
X018102Y002166D02*
X019983Y002166D01*
X019983Y002265D02*
X018003Y002265D01*
X017905Y002363D02*
X019882Y002363D01*
X019785Y002462D02*
X016894Y002462D01*
X016935Y002560D02*
X019745Y002560D01*
X019723Y002659D02*
X016956Y002659D01*
X016956Y002757D02*
X019723Y002757D01*
X019754Y002856D02*
X016925Y002856D01*
X016873Y002954D02*
X019807Y002954D01*
X019905Y003053D02*
X018977Y003053D01*
X019076Y003151D02*
X019983Y003151D01*
X019983Y003250D02*
X019174Y003250D01*
X019273Y003348D02*
X019881Y003348D01*
X019785Y003447D02*
X019430Y003447D01*
X019500Y003545D02*
X019744Y003545D01*
X019723Y003644D02*
X019500Y003644D01*
X019465Y003742D02*
X019723Y003742D01*
X019754Y003841D02*
X019366Y003841D01*
X019174Y003841D02*
X018485Y003841D01*
X018387Y003742D02*
X019075Y003742D01*
X019040Y003644D02*
X018288Y003644D01*
X018190Y003545D02*
X019017Y003545D01*
X018919Y003447D02*
X016894Y003447D01*
X016798Y003348D02*
X018820Y003348D01*
X018830Y003132D02*
X016310Y003132D01*
X015830Y002652D01*
X015190Y002652D01*
X013630Y004212D01*
X011030Y004212D01*
X009350Y005892D01*
X009350Y008707D01*
X009993Y009350D01*
X009240Y009357D02*
X006815Y009357D01*
X006815Y009400D02*
X007558Y009400D01*
X007558Y009402D01*
X007544Y009505D01*
X007517Y009606D01*
X007477Y009702D01*
X007425Y009792D01*
X007362Y009874D01*
X007289Y009948D01*
X007206Y010011D01*
X007116Y010063D01*
X007020Y010103D01*
X006920Y010130D01*
X006817Y010143D01*
X006815Y010143D01*
X006815Y009400D01*
X006815Y009300D01*
X007558Y009300D01*
X007558Y009298D01*
X007544Y009195D01*
X007517Y009095D01*
X007477Y008999D01*
X007425Y008909D01*
X007362Y008826D01*
X007289Y008753D01*
X007206Y008690D01*
X007116Y008638D01*
X007020Y008598D01*
X006920Y008571D01*
X006817Y008557D01*
X006815Y008557D01*
X006815Y009300D01*
X006715Y009300D01*
X006715Y008557D01*
X006713Y008557D01*
X006610Y008571D01*
X006509Y008598D01*
X006413Y008638D01*
X006323Y008690D01*
X006241Y008753D01*
X006167Y008826D01*
X006104Y008909D01*
X006052Y008999D01*
X006012Y009095D01*
X005985Y009195D01*
X005972Y009298D01*
X005972Y009300D01*
X006715Y009300D01*
X006715Y009400D01*
X005972Y009400D01*
X005972Y009402D01*
X005985Y009505D01*
X006012Y009606D01*
X006052Y009702D01*
X006104Y009792D01*
X006167Y009874D01*
X006241Y009948D01*
X004948Y009948D01*
X004908Y009989D02*
X004631Y010103D01*
X004332Y010103D01*
X004055Y009989D01*
X003843Y009777D01*
X003728Y009500D01*
X003728Y009200D01*
X003843Y008924D01*
X004055Y008712D01*
X004332Y008597D01*
X004631Y008597D01*
X004908Y008712D01*
X005120Y008924D01*
X005234Y009200D01*
X005234Y009500D01*
X005120Y009777D01*
X004908Y009989D01*
X004768Y010046D02*
X006385Y010046D01*
X006413Y010063D02*
X006323Y010011D01*
X006241Y009948D01*
X006148Y009849D02*
X005047Y009849D01*
X005130Y009751D02*
X006081Y009751D01*
X006032Y009652D02*
X005171Y009652D01*
X005212Y009554D02*
X005999Y009554D01*
X005979Y009455D02*
X005234Y009455D01*
X005234Y009357D02*
X006715Y009357D01*
X006715Y009400D02*
X006715Y010143D01*
X006713Y010143D01*
X006610Y010130D01*
X006509Y010103D01*
X006413Y010063D01*
X006715Y010046D02*
X006815Y010046D01*
X006815Y009948D02*
X006715Y009948D01*
X006715Y009849D02*
X006815Y009849D01*
X006815Y009751D02*
X006715Y009751D01*
X006715Y009652D02*
X006815Y009652D01*
X006815Y009554D02*
X006715Y009554D01*
X006715Y009455D02*
X006815Y009455D01*
X006815Y009400D02*
X006715Y009400D01*
X006715Y009258D02*
X006815Y009258D01*
X006815Y009160D02*
X006715Y009160D01*
X006715Y009061D02*
X006815Y009061D01*
X006815Y008963D02*
X006715Y008963D01*
X006715Y008864D02*
X006815Y008864D01*
X006815Y008766D02*
X006715Y008766D01*
X006715Y008667D02*
X006815Y008667D01*
X006815Y008569D02*
X006715Y008569D01*
X006624Y008569D02*
X001394Y008569D01*
X001408Y008571D02*
X001508Y008598D01*
X001604Y008638D01*
X001694Y008690D01*
X001777Y008753D01*
X001850Y008826D01*
X001914Y008909D01*
X001966Y008999D01*
X002005Y009095D01*
X002032Y009195D01*
X002046Y009298D01*
X002046Y009300D01*
X001303Y009300D01*
X001303Y008557D01*
X001305Y008557D01*
X001408Y008571D01*
X001303Y008569D02*
X001203Y008569D01*
X001203Y008557D02*
X001203Y009300D01*
X001303Y009300D01*
X001303Y009400D01*
X002046Y009400D01*
X002046Y009402D01*
X002032Y009505D01*
X002005Y009606D01*
X001966Y009702D01*
X001914Y009792D01*
X001850Y009874D01*
X001777Y009948D01*
X001694Y010011D01*
X001604Y010063D01*
X001508Y010103D01*
X001408Y010130D01*
X001305Y010143D01*
X001303Y010143D01*
X001303Y009400D01*
X001203Y009400D01*
X001203Y009300D01*
X000460Y009300D01*
X000460Y009298D01*
X000474Y009195D01*
X000501Y009095D01*
X000540Y008999D01*
X000592Y008909D01*
X000656Y008826D01*
X000729Y008753D01*
X000812Y008690D01*
X000902Y008638D01*
X000998Y008598D01*
X001098Y008571D01*
X001201Y008557D01*
X001203Y008557D01*
X001112Y008569D02*
X000340Y008569D01*
X000340Y008667D02*
X000850Y008667D01*
X000716Y008766D02*
X000340Y008766D01*
X000340Y008864D02*
X000626Y008864D01*
X000561Y008963D02*
X000340Y008963D01*
X000340Y009061D02*
X000514Y009061D01*
X000483Y009160D02*
X000340Y009160D01*
X000340Y009258D02*
X000465Y009258D01*
X000460Y009400D02*
X001203Y009400D01*
X001203Y010143D01*
X001201Y010143D01*
X001098Y010130D01*
X000998Y010103D01*
X000902Y010063D01*
X000812Y010011D01*
X000729Y009948D01*
X000656Y009874D01*
X000592Y009792D01*
X000540Y009702D01*
X000501Y009606D01*
X000474Y009505D01*
X000460Y009402D01*
X000460Y009400D01*
X000467Y009455D02*
X000340Y009455D01*
X000340Y009357D02*
X001203Y009357D01*
X001203Y009455D02*
X001303Y009455D01*
X001303Y009357D02*
X003728Y009357D01*
X003728Y009455D02*
X002039Y009455D01*
X002019Y009554D02*
X003751Y009554D01*
X003792Y009652D02*
X001986Y009652D01*
X001937Y009751D02*
X003832Y009751D01*
X003916Y009849D02*
X001869Y009849D01*
X001776Y009948D02*
X004014Y009948D01*
X004195Y010046D02*
X001633Y010046D01*
X001303Y010046D02*
X001203Y010046D01*
X001203Y009948D02*
X001303Y009948D01*
X001303Y009849D02*
X001203Y009849D01*
X001203Y009751D02*
X001303Y009751D01*
X001303Y009652D02*
X001203Y009652D01*
X001203Y009554D02*
X001303Y009554D01*
X000520Y009652D02*
X000340Y009652D01*
X000340Y009554D02*
X000487Y009554D01*
X000569Y009751D02*
X000340Y009751D01*
X000340Y009849D02*
X000637Y009849D01*
X000730Y009948D02*
X000340Y009948D01*
X000340Y010046D02*
X000873Y010046D01*
X000340Y010145D02*
X016830Y010145D01*
X016830Y010243D02*
X000340Y010243D01*
X000340Y010342D02*
X016830Y010342D01*
X016830Y010440D02*
X016740Y010440D01*
X016726Y010426D02*
X016830Y010530D01*
X016830Y009555D01*
X016808Y009533D01*
X016730Y009565D01*
X016563Y009565D01*
X016409Y009502D01*
X016291Y009383D01*
X016258Y009304D01*
X016258Y009500D01*
X016143Y009777D01*
X015931Y009989D01*
X015655Y010103D01*
X015355Y010103D01*
X015078Y009989D01*
X014867Y009777D01*
X014752Y009500D01*
X014752Y009200D01*
X014867Y008924D01*
X015078Y008712D01*
X015355Y008597D01*
X015655Y008597D01*
X015931Y008712D01*
X016143Y008924D01*
X016227Y009125D01*
X016227Y009062D01*
X016291Y008908D01*
X016409Y008789D01*
X016563Y008725D01*
X016730Y008725D01*
X016885Y008789D01*
X017003Y008908D01*
X017067Y009062D01*
X017067Y009229D01*
X017034Y009307D01*
X017056Y009329D01*
X017150Y009423D01*
X017150Y009655D01*
X017348Y009457D01*
X017275Y009383D01*
X017211Y009229D01*
X017211Y009062D01*
X017275Y008908D01*
X017393Y008789D01*
X017547Y008725D01*
X017714Y008725D01*
X017869Y008789D01*
X017987Y008908D01*
X018051Y009062D01*
X018051Y009229D01*
X017987Y009383D01*
X017869Y009502D01*
X017821Y009521D01*
X017972Y009672D01*
X017972Y009686D01*
X018132Y009686D01*
X018132Y009672D01*
X018378Y009426D01*
X018726Y009426D01*
X018847Y009547D01*
X018847Y009509D01*
X018911Y009355D01*
X019029Y009237D01*
X019183Y009173D01*
X019350Y009173D01*
X019505Y009237D01*
X019623Y009355D01*
X019687Y009509D01*
X019687Y009676D01*
X019623Y009831D01*
X019505Y009949D01*
X019350Y010013D01*
X019183Y010013D01*
X019029Y009949D01*
X018972Y009892D01*
X018972Y010020D01*
X018726Y010266D01*
X018378Y010266D01*
X018132Y010020D01*
X018132Y010006D01*
X017972Y010006D01*
X017972Y010020D01*
X017726Y010266D01*
X017378Y010266D01*
X017150Y010038D01*
X017150Y011218D01*
X017368Y011436D01*
X017378Y011426D01*
X017726Y011426D01*
X017972Y011672D01*
X017972Y011686D01*
X018132Y011686D01*
X018132Y011672D01*
X018378Y011426D01*
X018726Y011426D01*
X018972Y011672D01*
X018972Y012020D01*
X018839Y012153D01*
X023270Y012153D01*
X023195Y012078D01*
X023195Y011917D01*
X023625Y011917D01*
X023625Y011857D01*
X023685Y011857D01*
X023685Y011917D01*
X024115Y011917D01*
X024115Y012078D01*
X024040Y012153D01*
X026397Y012153D01*
X026305Y012061D01*
X026305Y011831D01*
X025554Y011831D01*
X025364Y012021D01*
X025016Y012021D01*
X024770Y011775D01*
X024770Y011427D01*
X024984Y011212D01*
X024949Y011194D01*
X024890Y011151D01*
X024839Y011100D01*
X024797Y011042D01*
X024764Y010977D01*
X024741Y010908D01*
X024730Y010837D01*
X024730Y010831D01*
X025160Y010831D01*
X025160Y010771D01*
X024730Y010771D01*
X024730Y010764D01*
X024741Y010693D01*
X024764Y010624D01*
X024797Y010560D01*
X024839Y010501D01*
X024890Y010450D01*
X024949Y010407D01*
X025013Y010374D01*
X025082Y010352D01*
X025154Y010341D01*
X025160Y010341D01*
X025160Y010771D01*
X025220Y010771D01*
X025220Y010831D01*
X025650Y010831D01*
X025650Y010837D01*
X025639Y010908D01*
X025616Y010977D01*
X025583Y011042D01*
X025541Y011100D01*
X025490Y011151D01*
X025431Y011194D01*
X025396Y011212D01*
X025554Y011371D01*
X026534Y011371D01*
X026631Y011467D01*
X026899Y011467D01*
X027046Y011614D01*
X027102Y011480D01*
X027237Y011345D01*
X027413Y011272D01*
X027604Y011272D01*
X027781Y011345D01*
X027916Y011480D01*
X027989Y011656D01*
X027989Y011847D01*
X027916Y012024D01*
X027787Y012153D01*
X030231Y012153D01*
X030102Y012024D01*
X030029Y011847D01*
X030029Y011656D01*
X030102Y011480D01*
X030230Y011352D01*
X027965Y011352D01*
X027606Y010993D01*
X027564Y011010D01*
X027373Y011010D01*
X027197Y010937D01*
X027185Y010925D01*
X027185Y011078D01*
X026916Y011347D01*
X026755Y011347D01*
X026755Y010917D01*
X026695Y010917D01*
X026695Y010857D01*
X026755Y010857D01*
X026755Y010427D01*
X026916Y010427D01*
X026989Y010500D01*
X026989Y010435D01*
X027062Y010258D01*
X027111Y010209D01*
X024658Y010209D01*
X024075Y010793D01*
X024075Y011061D01*
X023829Y011307D01*
X023580Y011307D01*
X023552Y011335D01*
X023485Y011402D01*
X023485Y011402D01*
X023484Y011402D01*
X023389Y011402D01*
X023295Y011402D01*
X023294Y011401D01*
X022569Y011398D01*
X022568Y011399D01*
X022568Y011399D01*
X022579Y011410D01*
X022579Y011571D01*
X022149Y011571D01*
X022149Y011631D01*
X022089Y011631D01*
X022089Y012061D01*
X021929Y012061D01*
X021659Y011791D01*
X021659Y011631D01*
X022089Y011631D01*
X022089Y011571D01*
X021659Y011571D01*
X021659Y011410D01*
X021903Y011166D01*
X021881Y011157D01*
X021763Y011039D01*
X021743Y010991D01*
X021700Y010991D01*
X021589Y010879D01*
X017441Y006732D01*
X017441Y005915D01*
X017393Y005895D01*
X017275Y005777D01*
X017211Y005623D01*
X017211Y005456D01*
X017275Y005301D01*
X017393Y005183D01*
X017547Y005119D01*
X017591Y005119D01*
X017524Y005052D01*
X015416Y005052D01*
X013550Y006918D01*
X013550Y006918D01*
X013523Y006945D01*
X013526Y006945D01*
X013526Y007450D01*
X013021Y007450D01*
X013034Y007370D01*
X013061Y007286D01*
X013100Y007208D01*
X013152Y007138D01*
X013214Y007076D01*
X013284Y007024D01*
X013309Y007012D01*
X010255Y007012D01*
X010029Y006785D01*
X009951Y006817D01*
X009784Y006817D01*
X009629Y006754D01*
X009511Y006635D01*
X009510Y006633D01*
X009510Y008641D01*
X009577Y008708D01*
X009843Y008597D01*
X010143Y008597D01*
X010420Y008712D01*
X010631Y008924D01*
X010746Y009200D01*
X010746Y009500D01*
X010631Y009777D01*
X010420Y009989D01*
X010143Y010103D01*
X009843Y010103D01*
X009567Y009989D01*
X009355Y009777D01*
X009240Y009500D01*
X009240Y009200D01*
X009351Y008934D01*
X009190Y008773D01*
X009190Y005826D01*
X009284Y005732D01*
X010964Y004052D01*
X011819Y004052D01*
X011638Y003871D01*
X011524Y003594D01*
X011524Y003295D01*
X011638Y003018D01*
X011850Y002806D01*
X012127Y002692D01*
X012426Y002692D01*
X012703Y002806D01*
X012915Y003018D01*
X013030Y003295D01*
X013030Y003594D01*
X012915Y003871D01*
X012734Y004052D01*
X013564Y004052D01*
X015124Y002492D01*
X015896Y002492D01*
X015990Y002586D01*
X016116Y002712D01*
X016116Y002613D01*
X016180Y002459D01*
X016256Y002383D01*
X006965Y002383D01*
X006656Y002692D01*
X006915Y002692D01*
X007191Y002806D01*
X007403Y003018D01*
X007518Y003295D01*
X007518Y003594D01*
X007403Y003871D01*
X007191Y004083D01*
X006915Y004198D01*
X006615Y004198D01*
X006338Y004083D01*
X006127Y003871D01*
X006012Y003594D01*
X006012Y003336D01*
X004515Y004833D01*
X004515Y006009D01*
X004593Y006041D01*
X004711Y006160D01*
X004775Y006314D01*
X004775Y006481D01*
X004711Y006635D01*
X004593Y006754D01*
X004439Y006817D01*
X004272Y006817D01*
X004117Y006754D01*
X003999Y006635D01*
X003935Y006481D01*
X003935Y006314D01*
X003999Y006160D01*
X004117Y006041D01*
X004195Y006009D01*
X004195Y004700D01*
X004289Y004607D01*
X004745Y004150D01*
X004631Y004198D01*
X004332Y004198D01*
X004055Y004083D01*
X003843Y003871D01*
X003733Y003605D01*
X002002Y003605D01*
X001891Y003871D01*
X001679Y004083D01*
X001413Y004193D01*
X001413Y005960D01*
X001319Y006054D01*
X001137Y006236D01*
X001169Y006314D01*
X001169Y006481D01*
X001105Y006635D01*
X000987Y006754D01*
X000833Y006817D01*
X000666Y006817D01*
X000511Y006754D01*
X000393Y006635D01*
X000340Y006507D01*
X000340Y012153D01*
X017265Y012153D01*
X017132Y012020D01*
X017132Y011672D01*
X017142Y011662D01*
X016830Y011350D01*
X016830Y011162D01*
X016726Y011266D01*
X016378Y011266D01*
X016132Y011020D01*
X016132Y010672D01*
X016378Y010426D01*
X016726Y010426D01*
X016364Y010440D02*
X013838Y010440D01*
X013834Y010439D02*
X013932Y010479D01*
X014023Y010532D01*
X014106Y010596D01*
X014181Y010670D01*
X014245Y010754D01*
X014297Y010845D01*
X014338Y010942D01*
X014365Y011044D01*
X014379Y011148D01*
X014379Y011151D01*
X013626Y011151D01*
X013626Y011251D01*
X013526Y011251D01*
X013526Y012003D01*
X013523Y012003D01*
X013419Y011990D01*
X013317Y011962D01*
X013220Y011922D01*
X013129Y011870D01*
X013045Y011805D01*
X012971Y011731D01*
X012907Y011648D01*
X012854Y011556D01*
X012814Y011459D01*
X012787Y011358D01*
X012773Y011253D01*
X012773Y011251D01*
X013526Y011251D01*
X013526Y011151D01*
X012773Y011151D01*
X012773Y011148D01*
X012787Y011044D01*
X012814Y010942D01*
X012854Y010845D01*
X012907Y010754D01*
X012971Y010670D01*
X013045Y010596D01*
X013129Y010532D01*
X013220Y010479D01*
X013317Y010439D01*
X013419Y010412D01*
X013523Y010398D01*
X013526Y010398D01*
X013526Y011151D01*
X013626Y011151D01*
X013626Y010398D01*
X013628Y010398D01*
X013733Y010412D01*
X013834Y010439D01*
X013626Y010440D02*
X013526Y010440D01*
X013526Y010539D02*
X013626Y010539D01*
X013626Y010637D02*
X013526Y010637D01*
X013526Y010736D02*
X013626Y010736D01*
X013626Y010834D02*
X013526Y010834D01*
X013526Y010933D02*
X013626Y010933D01*
X013626Y011031D02*
X013526Y011031D01*
X013526Y011130D02*
X013626Y011130D01*
X013626Y011228D02*
X016340Y011228D01*
X016242Y011130D02*
X014376Y011130D01*
X014362Y011031D02*
X016143Y011031D01*
X016132Y010933D02*
X014334Y010933D01*
X014291Y010834D02*
X016132Y010834D01*
X016132Y010736D02*
X014231Y010736D01*
X014148Y010637D02*
X016167Y010637D01*
X016266Y010539D02*
X014032Y010539D01*
X013313Y010440D02*
X008327Y010440D01*
X008323Y010439D02*
X008420Y010479D01*
X008511Y010532D01*
X008594Y010596D01*
X008669Y010670D01*
X008733Y010754D01*
X008786Y010845D01*
X008826Y010942D01*
X008853Y011044D01*
X008867Y011148D01*
X008867Y011151D01*
X008114Y011151D01*
X008114Y011251D01*
X008014Y011251D01*
X008014Y012003D01*
X008011Y012003D01*
X007907Y011990D01*
X007805Y011962D01*
X007708Y011922D01*
X007617Y011870D01*
X007534Y011805D01*
X007459Y011731D01*
X007395Y011648D01*
X007343Y011556D01*
X007302Y011459D01*
X007275Y011358D01*
X007261Y011253D01*
X007261Y011251D01*
X008014Y011251D01*
X008014Y011151D01*
X007261Y011151D01*
X007261Y011148D01*
X007275Y011044D01*
X007302Y010942D01*
X007343Y010845D01*
X007395Y010754D01*
X007459Y010670D01*
X007534Y010596D01*
X007617Y010532D01*
X007708Y010479D01*
X007805Y010439D01*
X007907Y010412D01*
X008011Y010398D01*
X008014Y010398D01*
X008014Y011151D01*
X008114Y011151D01*
X008114Y010398D01*
X008117Y010398D01*
X008221Y010412D01*
X008323Y010439D01*
X008114Y010440D02*
X008014Y010440D01*
X008014Y010539D02*
X008114Y010539D01*
X008114Y010637D02*
X008014Y010637D01*
X008014Y010736D02*
X008114Y010736D01*
X008114Y010834D02*
X008014Y010834D01*
X008014Y010933D02*
X008114Y010933D01*
X008114Y011031D02*
X008014Y011031D01*
X008014Y011130D02*
X008114Y011130D01*
X008114Y011228D02*
X013526Y011228D01*
X013526Y011327D02*
X013626Y011327D01*
X013626Y011251D02*
X013626Y012003D01*
X013628Y012003D01*
X013733Y011990D01*
X013834Y011962D01*
X013932Y011922D01*
X014023Y011870D01*
X014106Y011805D01*
X014181Y011731D01*
X014245Y011648D01*
X014297Y011556D01*
X014338Y011459D01*
X014365Y011358D01*
X014379Y011253D01*
X014379Y011251D01*
X013626Y011251D01*
X014369Y011327D02*
X016830Y011327D01*
X016830Y011228D02*
X016764Y011228D01*
X016990Y011284D02*
X017552Y011846D01*
X018552Y011846D01*
X018972Y011819D02*
X021687Y011819D01*
X021659Y011721D02*
X018972Y011721D01*
X018922Y011622D02*
X022089Y011622D01*
X022149Y011622D02*
X023269Y011622D01*
X023195Y011697D02*
X023464Y011427D01*
X023625Y011427D01*
X023625Y011857D01*
X023195Y011857D01*
X023195Y011697D01*
X023195Y011721D02*
X022579Y011721D01*
X022579Y011791D02*
X022310Y012061D01*
X022149Y012061D01*
X022149Y011631D01*
X022579Y011631D01*
X022579Y011791D01*
X022551Y011819D02*
X023195Y011819D01*
X023195Y011918D02*
X022452Y011918D01*
X022354Y012016D02*
X023195Y012016D01*
X023232Y012115D02*
X018877Y012115D01*
X018972Y012016D02*
X021884Y012016D01*
X021786Y011918D02*
X018972Y011918D01*
X018182Y011622D02*
X017922Y011622D01*
X017824Y011524D02*
X018281Y011524D01*
X018824Y011524D02*
X021659Y011524D01*
X021659Y011425D02*
X017358Y011425D01*
X017259Y011327D02*
X021742Y011327D01*
X021841Y011228D02*
X020604Y011228D01*
X020526Y011306D02*
X020366Y011306D01*
X020366Y010876D01*
X020796Y010876D01*
X020796Y011037D01*
X020526Y011306D01*
X020366Y011228D02*
X020306Y011228D01*
X020306Y011306D02*
X020145Y011306D01*
X019876Y011037D01*
X019876Y010876D01*
X020306Y010876D01*
X020306Y010816D01*
X020366Y010816D01*
X020366Y010876D01*
X020306Y010876D01*
X020306Y011306D01*
X020067Y011228D02*
X019547Y011228D01*
X019510Y011266D02*
X019162Y011266D01*
X018916Y011020D01*
X018916Y010672D01*
X019162Y010426D01*
X019510Y010426D01*
X019756Y010672D01*
X019756Y011020D01*
X019510Y011266D01*
X019646Y011130D02*
X019969Y011130D01*
X019876Y011031D02*
X019744Y011031D01*
X019756Y010933D02*
X019876Y010933D01*
X019876Y010816D02*
X019876Y010656D01*
X020145Y010386D01*
X020306Y010386D01*
X020306Y010816D01*
X019876Y010816D01*
X019876Y010736D02*
X019756Y010736D01*
X019756Y010834D02*
X020306Y010834D01*
X020366Y010834D02*
X021544Y010834D01*
X021445Y010736D02*
X020796Y010736D01*
X020796Y010656D02*
X020796Y010816D01*
X020366Y010816D01*
X020366Y010386D01*
X020526Y010386D01*
X020796Y010656D01*
X020777Y010637D02*
X021347Y010637D01*
X021248Y010539D02*
X020679Y010539D01*
X020580Y010440D02*
X021150Y010440D01*
X021051Y010342D02*
X017150Y010342D01*
X017150Y010440D02*
X019148Y010440D01*
X019049Y010539D02*
X017150Y010539D01*
X017150Y010637D02*
X018951Y010637D01*
X018916Y010736D02*
X017150Y010736D01*
X017150Y010834D02*
X018916Y010834D01*
X018916Y010933D02*
X017150Y010933D01*
X017150Y011031D02*
X018927Y011031D01*
X019025Y011130D02*
X017150Y011130D01*
X017161Y011228D02*
X019124Y011228D01*
X020306Y011130D02*
X020366Y011130D01*
X020366Y011031D02*
X020306Y011031D01*
X020306Y010933D02*
X020366Y010933D01*
X020366Y010736D02*
X020306Y010736D01*
X020306Y010637D02*
X020366Y010637D01*
X020366Y010539D02*
X020306Y010539D01*
X020306Y010440D02*
X020366Y010440D01*
X020091Y010440D02*
X019524Y010440D01*
X019622Y010539D02*
X019992Y010539D01*
X019894Y010637D02*
X019721Y010637D01*
X020796Y010933D02*
X021642Y010933D01*
X021760Y011031D02*
X020796Y011031D01*
X020703Y011130D02*
X021855Y011130D01*
X022579Y011425D02*
X024771Y011425D01*
X024770Y011524D02*
X023942Y011524D01*
X023845Y011427D02*
X024115Y011697D01*
X024115Y011857D01*
X023685Y011857D01*
X023685Y011427D01*
X023845Y011427D01*
X023685Y011524D02*
X023625Y011524D01*
X023625Y011622D02*
X023685Y011622D01*
X023685Y011721D02*
X023625Y011721D01*
X023625Y011819D02*
X023685Y011819D01*
X024040Y011622D02*
X024770Y011622D01*
X024770Y011721D02*
X024115Y011721D01*
X024115Y011819D02*
X024815Y011819D01*
X024913Y011918D02*
X024115Y011918D01*
X024115Y012016D02*
X025012Y012016D01*
X025368Y012016D02*
X026305Y012016D01*
X026305Y011918D02*
X025467Y011918D01*
X026359Y012115D02*
X024078Y012115D01*
X023368Y011524D02*
X022579Y011524D01*
X022149Y011721D02*
X022089Y011721D01*
X022089Y011819D02*
X022149Y011819D01*
X022149Y011918D02*
X022089Y011918D01*
X022089Y012016D02*
X022149Y012016D01*
X023560Y011327D02*
X024870Y011327D01*
X024968Y011228D02*
X023908Y011228D01*
X024006Y011130D02*
X024869Y011130D01*
X024791Y011031D02*
X024075Y011031D01*
X024075Y010933D02*
X024749Y010933D01*
X024730Y010834D02*
X024075Y010834D01*
X024131Y010736D02*
X024735Y010736D01*
X024759Y010637D02*
X024230Y010637D01*
X024328Y010539D02*
X024811Y010539D01*
X024903Y010440D02*
X024427Y010440D01*
X024525Y010342D02*
X025145Y010342D01*
X025160Y010342D02*
X025220Y010342D01*
X025220Y010341D02*
X025226Y010341D01*
X025298Y010352D01*
X025367Y010374D01*
X025431Y010407D01*
X025490Y010450D01*
X025541Y010501D01*
X025583Y010560D01*
X025616Y010624D01*
X025639Y010693D01*
X025650Y010764D01*
X025650Y010771D01*
X025220Y010771D01*
X025220Y010341D01*
X025235Y010342D02*
X027027Y010342D01*
X026989Y010440D02*
X026929Y010440D01*
X026755Y010440D02*
X026695Y010440D01*
X026695Y010427D02*
X026535Y010427D01*
X026265Y010697D01*
X026265Y010857D01*
X026695Y010857D01*
X026695Y010427D01*
X026695Y010539D02*
X026755Y010539D01*
X026755Y010637D02*
X026695Y010637D01*
X026695Y010736D02*
X026755Y010736D01*
X026755Y010834D02*
X026695Y010834D01*
X026695Y010917D02*
X026265Y010917D01*
X026265Y011078D01*
X026535Y011347D01*
X026695Y011347D01*
X026695Y010917D01*
X026695Y010933D02*
X026755Y010933D01*
X026755Y011031D02*
X026695Y011031D01*
X026695Y011130D02*
X026755Y011130D01*
X026755Y011228D02*
X026695Y011228D01*
X026695Y011327D02*
X026755Y011327D01*
X026936Y011327D02*
X027280Y011327D01*
X027156Y011425D02*
X026589Y011425D01*
X026514Y011327D02*
X025510Y011327D01*
X025412Y011228D02*
X026416Y011228D01*
X026317Y011130D02*
X025511Y011130D01*
X025589Y011031D02*
X026265Y011031D01*
X026265Y010933D02*
X025631Y010933D01*
X025650Y010834D02*
X026265Y010834D01*
X026265Y010736D02*
X025645Y010736D01*
X025621Y010637D02*
X026325Y010637D01*
X026423Y010539D02*
X025569Y010539D01*
X025477Y010440D02*
X026522Y010440D01*
X027077Y010243D02*
X024624Y010243D01*
X025160Y010440D02*
X025220Y010440D01*
X025220Y010539D02*
X025160Y010539D01*
X025160Y010637D02*
X025220Y010637D01*
X025220Y010736D02*
X025160Y010736D01*
X024190Y009652D02*
X023430Y010412D01*
X023434Y010182D02*
X024030Y009586D01*
X024030Y009586D01*
X024124Y009492D01*
X026596Y009492D01*
X026535Y009431D01*
X026471Y009276D01*
X026471Y009241D01*
X026443Y009269D01*
X026289Y009333D01*
X026122Y009333D01*
X025967Y009269D01*
X025849Y009151D01*
X025785Y008996D01*
X025785Y008829D01*
X025849Y008675D01*
X025967Y008557D01*
X026122Y008493D01*
X026289Y008493D01*
X026443Y008557D01*
X026561Y008675D01*
X026625Y008829D01*
X026625Y008864D01*
X026653Y008837D01*
X026807Y008773D01*
X026974Y008773D01*
X027129Y008837D01*
X027247Y008955D01*
X027311Y009109D01*
X027311Y009276D01*
X027247Y009431D01*
X027186Y009492D01*
X030202Y009492D01*
X030141Y009431D01*
X030109Y009353D01*
X028128Y009353D01*
X028034Y009259D01*
X027394Y008619D01*
X027384Y008628D01*
X027036Y008628D01*
X026790Y008382D01*
X026790Y008035D01*
X027036Y007788D01*
X027050Y007788D01*
X027050Y007063D01*
X027143Y006970D01*
X027838Y006275D01*
X027805Y006198D01*
X027805Y006030D01*
X027869Y005876D01*
X027988Y005758D01*
X028142Y005694D01*
X028309Y005694D01*
X028338Y005706D01*
X028166Y005534D01*
X028142Y005534D01*
X027988Y005470D01*
X027869Y005352D01*
X027805Y005198D01*
X027805Y005030D01*
X027869Y004876D01*
X027988Y004758D01*
X028142Y004694D01*
X028309Y004694D01*
X028463Y004758D01*
X028581Y004876D01*
X028645Y005030D01*
X028645Y005052D01*
X028671Y005026D01*
X028839Y004956D01*
X029021Y004956D01*
X029189Y005026D01*
X029317Y005154D01*
X029358Y005253D01*
X029953Y005253D01*
X028997Y004298D01*
X028729Y004298D01*
X028640Y004210D01*
X028581Y004352D01*
X028463Y004470D01*
X028309Y004534D01*
X028142Y004534D01*
X028134Y004531D01*
X026700Y005965D01*
X026700Y006731D01*
X026701Y006826D01*
X026700Y006826D01*
X026700Y006827D01*
X026633Y006894D01*
X023383Y010182D01*
X023434Y010182D01*
X023420Y010145D02*
X023471Y010145D01*
X023517Y010046D02*
X023569Y010046D01*
X023615Y009948D02*
X023668Y009948D01*
X023712Y009849D02*
X023766Y009849D01*
X023809Y009751D02*
X023865Y009751D01*
X023907Y009652D02*
X023963Y009652D01*
X024004Y009554D02*
X024062Y009554D01*
X024102Y009455D02*
X026560Y009455D01*
X026504Y009357D02*
X024199Y009357D01*
X024296Y009258D02*
X025957Y009258D01*
X025858Y009160D02*
X024394Y009160D01*
X024491Y009061D02*
X025812Y009061D01*
X025785Y008963D02*
X024588Y008963D01*
X024686Y008864D02*
X025785Y008864D01*
X025811Y008766D02*
X024783Y008766D01*
X024880Y008667D02*
X025856Y008667D01*
X025955Y008569D02*
X024978Y008569D01*
X025075Y008470D02*
X026878Y008470D01*
X026790Y008372D02*
X025172Y008372D01*
X025270Y008273D02*
X026790Y008273D01*
X026790Y008175D02*
X025367Y008175D01*
X025464Y008076D02*
X026790Y008076D01*
X026846Y007978D02*
X025562Y007978D01*
X025659Y007879D02*
X026945Y007879D01*
X027050Y007781D02*
X025757Y007781D01*
X025854Y007682D02*
X027050Y007682D01*
X027050Y007584D02*
X025951Y007584D01*
X026049Y007485D02*
X027050Y007485D01*
X027050Y007387D02*
X026146Y007387D01*
X026243Y007288D02*
X027050Y007288D01*
X027050Y007190D02*
X026341Y007190D01*
X026438Y007091D02*
X027050Y007091D01*
X027120Y006993D02*
X026535Y006993D01*
X026633Y006894D02*
X027219Y006894D01*
X027317Y006796D02*
X026700Y006796D01*
X026700Y006697D02*
X027416Y006697D01*
X027514Y006599D02*
X026700Y006599D01*
X026700Y006500D02*
X027613Y006500D01*
X027711Y006402D02*
X026700Y006402D01*
X026700Y006303D02*
X027810Y006303D01*
X027809Y006205D02*
X026700Y006205D01*
X026700Y006106D02*
X027805Y006106D01*
X027815Y006008D02*
X026700Y006008D01*
X026755Y005909D02*
X027856Y005909D01*
X027934Y005811D02*
X026854Y005811D01*
X026952Y005712D02*
X028097Y005712D01*
X028246Y005614D02*
X027051Y005614D01*
X027149Y005515D02*
X028097Y005515D01*
X027934Y005417D02*
X027248Y005417D01*
X027346Y005318D02*
X027856Y005318D01*
X027815Y005220D02*
X027445Y005220D01*
X027543Y005121D02*
X027805Y005121D01*
X027809Y005023D02*
X027642Y005023D01*
X027740Y004924D02*
X027849Y004924D01*
X027839Y004826D02*
X027919Y004826D01*
X027937Y004727D02*
X028061Y004727D01*
X028036Y004629D02*
X029329Y004629D01*
X029427Y004727D02*
X028390Y004727D01*
X028531Y004826D02*
X029526Y004826D01*
X029624Y004924D02*
X028602Y004924D01*
X028642Y005023D02*
X028678Y005023D01*
X028225Y005114D02*
X028225Y005367D01*
X028930Y006072D01*
X028930Y006397D01*
X029387Y006402D02*
X031732Y006402D01*
X031831Y006500D02*
X029382Y006500D01*
X029387Y006488D02*
X029317Y006656D01*
X029189Y006785D01*
X029021Y006854D01*
X028839Y006854D01*
X028671Y006785D01*
X028543Y006656D01*
X028473Y006488D01*
X028473Y006460D01*
X028463Y006470D01*
X028309Y006534D01*
X028142Y006534D01*
X028064Y006502D01*
X027370Y007196D01*
X027370Y007788D01*
X027384Y007788D01*
X027630Y008035D01*
X027630Y008382D01*
X027620Y008392D01*
X028260Y009033D01*
X030109Y009033D01*
X030141Y008955D01*
X030259Y008837D01*
X030414Y008773D01*
X030581Y008773D01*
X030735Y008837D01*
X030820Y008922D01*
X030905Y008837D01*
X031059Y008773D01*
X031150Y008773D01*
X031150Y008772D01*
X031150Y008416D01*
X031636Y008416D01*
X031636Y008316D01*
X031150Y008316D01*
X031150Y007960D01*
X031160Y007922D01*
X031180Y007888D01*
X031208Y007860D01*
X031242Y007840D01*
X031280Y007830D01*
X031636Y007830D01*
X031636Y008316D01*
X031736Y008316D01*
X031736Y007830D01*
X032092Y007830D01*
X032130Y007840D01*
X032164Y007860D01*
X032192Y007888D01*
X032212Y007922D01*
X032222Y007960D01*
X032222Y008316D01*
X031736Y008316D01*
X031736Y008416D01*
X031636Y008416D01*
X031636Y008902D01*
X031446Y008902D01*
X031499Y008955D01*
X031563Y009109D01*
X031563Y009276D01*
X031499Y009431D01*
X031438Y009492D01*
X031985Y009492D01*
X032055Y009422D01*
X032245Y009422D01*
X032380Y009557D01*
X032380Y009747D01*
X032245Y009882D01*
X032055Y009882D01*
X031985Y009812D01*
X030076Y009812D01*
X030332Y010067D01*
X030373Y010050D01*
X030564Y010050D01*
X030741Y010123D01*
X030876Y010258D01*
X030949Y010435D01*
X030949Y010441D01*
X031079Y010387D01*
X031246Y010387D01*
X031401Y010451D01*
X031519Y010569D01*
X031583Y010723D01*
X031583Y010890D01*
X031519Y011045D01*
X031401Y011163D01*
X031246Y011227D01*
X031079Y011227D01*
X031060Y011219D01*
X030988Y011287D01*
X030923Y011352D01*
X030919Y011352D01*
X030916Y011355D01*
X030824Y011352D01*
X030788Y011352D01*
X030898Y011462D01*
X030925Y011435D01*
X031079Y011371D01*
X031246Y011371D01*
X031401Y011435D01*
X031519Y011553D01*
X031583Y011708D01*
X031583Y011875D01*
X031519Y012029D01*
X031401Y012147D01*
X031387Y012153D01*
X034545Y012153D01*
X034531Y012147D01*
X034413Y012029D01*
X034349Y011875D01*
X034349Y011708D01*
X034413Y011553D01*
X034531Y011435D01*
X034686Y011371D01*
X034853Y011371D01*
X035007Y011435D01*
X035125Y011553D01*
X035128Y011561D01*
X040351Y011561D01*
X040400Y011511D01*
X040246Y011511D01*
X040246Y011071D01*
X040686Y011071D01*
X040686Y011226D01*
X040766Y011146D01*
X040766Y010849D01*
X040976Y010639D01*
X040976Y010412D01*
X040957Y010404D01*
X040833Y010281D01*
X040766Y010119D01*
X040766Y009944D01*
X040833Y009782D01*
X040957Y009658D01*
X041118Y009591D01*
X041293Y009591D01*
X041455Y009658D01*
X041579Y009782D01*
X041646Y009944D01*
X041646Y010119D01*
X041579Y010281D01*
X041455Y010404D01*
X041436Y010412D01*
X041436Y010639D01*
X041646Y010849D01*
X041646Y011214D01*
X041388Y011471D01*
X041091Y011471D01*
X040541Y012021D01*
X035128Y012021D01*
X035125Y012029D01*
X035007Y012147D01*
X034993Y012153D01*
X043347Y012153D01*
X043347Y000642D01*
X034126Y000642D01*
X034193Y000709D01*
X034287Y000803D01*
X034287Y000832D01*
X034301Y000832D01*
X034539Y001070D01*
X034554Y001034D01*
X034673Y000915D01*
X034827Y000851D01*
X034994Y000851D01*
X035072Y000884D01*
X035210Y000746D01*
X035304Y000652D01*
X042070Y000652D01*
X042309Y000892D01*
X042387Y000859D01*
X042554Y000859D01*
X042709Y000923D01*
X042827Y001041D01*
X042891Y001196D01*
X042891Y001363D01*
X042827Y001517D01*
X042709Y001635D01*
X042554Y001699D01*
X042387Y001699D01*
X042233Y001635D01*
X042115Y001517D01*
X042051Y001363D01*
X042051Y001196D01*
X042083Y001118D01*
X041937Y000972D01*
X039151Y000972D01*
X039220Y001041D01*
X039284Y001196D01*
X039284Y001363D01*
X039220Y001517D01*
X039102Y001635D01*
X038948Y001699D01*
X038781Y001699D01*
X038626Y001635D01*
X038508Y001517D01*
X038444Y001363D01*
X038444Y001196D01*
X038508Y001041D01*
X038578Y000972D01*
X038330Y000972D01*
X038330Y001627D01*
X038266Y001691D01*
X038070Y001691D01*
X038070Y001883D01*
X038148Y001915D01*
X038267Y002034D01*
X038330Y002188D01*
X038330Y002355D01*
X038298Y002433D01*
X039216Y003351D01*
X039310Y003445D01*
X039310Y003505D01*
X039397Y003418D01*
X039558Y003418D01*
X039558Y003848D01*
X039618Y003848D01*
X039618Y003908D01*
X040048Y003908D01*
X040048Y004068D01*
X039778Y004338D01*
X039618Y004338D01*
X039618Y003908D01*
X039558Y003908D01*
X039558Y004338D01*
X039397Y004338D01*
X039310Y004251D01*
X039310Y005102D01*
X039189Y005224D01*
X039230Y005322D01*
X039230Y005504D01*
X039160Y005672D01*
X039031Y005801D01*
X038864Y005870D01*
X038682Y005870D01*
X038514Y005801D01*
X038385Y005672D01*
X038316Y005504D01*
X038316Y005390D01*
X038267Y005509D01*
X038148Y005628D01*
X037994Y005691D01*
X037827Y005691D01*
X037673Y005628D01*
X037554Y005509D01*
X037490Y005355D01*
X037490Y005188D01*
X037554Y005034D01*
X037673Y004915D01*
X037827Y004851D01*
X037994Y004851D01*
X038148Y004915D01*
X038267Y005034D01*
X038330Y005188D01*
X038330Y005287D01*
X038385Y005154D01*
X038514Y005026D01*
X038682Y004956D01*
X038864Y004956D01*
X038962Y004997D01*
X038990Y004970D01*
X038990Y004069D01*
X038762Y004298D01*
X038414Y004298D01*
X038330Y004215D01*
X038330Y004355D01*
X038267Y004509D01*
X038148Y004628D01*
X037994Y004691D01*
X037827Y004691D01*
X037673Y004628D01*
X037554Y004509D01*
X037551Y004501D01*
X035946Y004501D01*
X035580Y004867D01*
X035445Y005002D01*
X035235Y005002D01*
X035267Y005034D01*
X035330Y005188D01*
X035330Y005355D01*
X035267Y005509D01*
X035148Y005628D01*
X034994Y005691D01*
X034827Y005691D01*
X034673Y005628D01*
X034554Y005509D01*
X034490Y005355D01*
X034490Y005188D01*
X034554Y005034D01*
X034586Y005002D01*
X032885Y005002D01*
X032740Y005147D01*
X032605Y005282D01*
X031665Y005282D01*
X031685Y005302D01*
X034167Y005302D01*
X034261Y005396D01*
X034749Y005884D01*
X034827Y005851D01*
X034994Y005851D01*
X035148Y005915D01*
X035267Y006034D01*
X035330Y006188D01*
X035330Y006355D01*
X035267Y006509D01*
X035148Y006628D01*
X035070Y006660D01*
X035070Y006883D01*
X035148Y006915D01*
X035267Y007034D01*
X035330Y007188D01*
X035330Y007355D01*
X035267Y007509D01*
X035148Y007628D01*
X034994Y007691D01*
X034827Y007691D01*
X034673Y007628D01*
X034554Y007509D01*
X034490Y007355D01*
X034490Y007188D01*
X034554Y007034D01*
X034673Y006915D01*
X034750Y006883D01*
X034750Y006660D01*
X034673Y006628D01*
X034554Y006509D01*
X034490Y006355D01*
X034490Y006188D01*
X034523Y006110D01*
X034035Y005622D01*
X031685Y005622D01*
X031615Y005692D01*
X031475Y005692D01*
X034588Y008805D01*
X034666Y008773D01*
X034833Y008773D01*
X034987Y008837D01*
X035105Y008955D01*
X035169Y009109D01*
X035169Y009276D01*
X035105Y009431D01*
X034987Y009549D01*
X034833Y009613D01*
X034666Y009613D01*
X034511Y009549D01*
X034393Y009431D01*
X034329Y009276D01*
X034329Y009109D01*
X034361Y009031D01*
X030903Y005573D01*
X029358Y005573D01*
X029317Y005672D01*
X029189Y005801D01*
X029021Y005870D01*
X028954Y005870D01*
X028996Y005912D01*
X029028Y005943D01*
X029189Y006010D01*
X029317Y006139D01*
X029387Y006307D01*
X029387Y006488D01*
X029341Y006599D02*
X031929Y006599D01*
X032028Y006697D02*
X029276Y006697D01*
X029162Y006796D02*
X032126Y006796D01*
X032225Y006894D02*
X029030Y006894D01*
X029047Y006897D02*
X029121Y006921D01*
X029191Y006957D01*
X029254Y007003D01*
X029309Y007058D01*
X029355Y007121D01*
X029391Y007191D01*
X029415Y007265D01*
X029426Y007333D01*
X028979Y007333D01*
X028979Y007430D01*
X029426Y007430D01*
X029415Y007498D01*
X029391Y007572D01*
X029355Y007642D01*
X029309Y007705D01*
X029254Y007761D01*
X029191Y007807D01*
X029121Y007842D01*
X029047Y007866D01*
X028979Y007877D01*
X028979Y007430D01*
X028882Y007430D01*
X028882Y007877D01*
X028814Y007866D01*
X028739Y007842D01*
X028670Y007807D01*
X028606Y007761D01*
X028551Y007705D01*
X028505Y007642D01*
X028470Y007572D01*
X028446Y007498D01*
X028442Y007479D01*
X028370Y007509D01*
X028370Y007788D01*
X028384Y007788D01*
X028630Y008035D01*
X028630Y008382D01*
X028384Y008628D01*
X028036Y008628D01*
X027790Y008382D01*
X027790Y008035D01*
X028036Y007788D01*
X028050Y007788D01*
X028050Y007496D01*
X027988Y007470D01*
X027869Y007352D01*
X027805Y007198D01*
X027805Y007030D01*
X027869Y006876D01*
X027988Y006758D01*
X028142Y006694D01*
X028309Y006694D01*
X028463Y006758D01*
X028581Y006876D01*
X028628Y006987D01*
X028670Y006957D01*
X028739Y006921D01*
X028814Y006897D01*
X028882Y006886D01*
X028882Y007333D01*
X028979Y007333D01*
X028979Y006886D01*
X029047Y006897D01*
X028979Y006894D02*
X028882Y006894D01*
X028830Y006894D02*
X028589Y006894D01*
X028501Y006796D02*
X028698Y006796D01*
X028584Y006697D02*
X028317Y006697D01*
X028134Y006697D02*
X027868Y006697D01*
X027949Y006796D02*
X027770Y006796D01*
X027862Y006894D02*
X027671Y006894D01*
X027573Y006993D02*
X027821Y006993D01*
X027805Y007091D02*
X027474Y007091D01*
X027376Y007190D02*
X027805Y007190D01*
X027843Y007288D02*
X027370Y007288D01*
X027370Y007387D02*
X027904Y007387D01*
X028025Y007485D02*
X027370Y007485D01*
X027370Y007584D02*
X028050Y007584D01*
X028050Y007682D02*
X027370Y007682D01*
X027370Y007781D02*
X028050Y007781D01*
X027945Y007879D02*
X027475Y007879D01*
X027573Y007978D02*
X027846Y007978D01*
X027790Y008076D02*
X027630Y008076D01*
X027630Y008175D02*
X027790Y008175D01*
X027790Y008273D02*
X027630Y008273D01*
X027630Y008372D02*
X027790Y008372D01*
X027878Y008470D02*
X027698Y008470D01*
X027796Y008569D02*
X027976Y008569D01*
X027895Y008667D02*
X031150Y008667D01*
X031150Y008569D02*
X028443Y008569D01*
X028542Y008470D02*
X031150Y008470D01*
X031636Y008470D02*
X031736Y008470D01*
X031736Y008416D02*
X031736Y008902D01*
X032092Y008902D01*
X032130Y008892D01*
X032164Y008872D01*
X032192Y008844D01*
X032212Y008810D01*
X032222Y008772D01*
X032222Y008416D01*
X031736Y008416D01*
X031736Y008372D02*
X033702Y008372D01*
X033801Y008470D02*
X032222Y008470D01*
X032222Y008569D02*
X033899Y008569D01*
X033998Y008667D02*
X032222Y008667D01*
X032222Y008766D02*
X034096Y008766D01*
X034195Y008864D02*
X032172Y008864D01*
X031736Y008864D02*
X031636Y008864D01*
X031636Y008766D02*
X031736Y008766D01*
X031736Y008667D02*
X031636Y008667D01*
X031636Y008569D02*
X031736Y008569D01*
X031636Y008372D02*
X028630Y008372D01*
X028630Y008273D02*
X031150Y008273D01*
X031150Y008175D02*
X028630Y008175D01*
X028630Y008076D02*
X031150Y008076D01*
X031150Y007978D02*
X028573Y007978D01*
X028475Y007879D02*
X031188Y007879D01*
X031636Y007879D02*
X031736Y007879D01*
X031736Y007978D02*
X031636Y007978D01*
X031636Y008076D02*
X031736Y008076D01*
X031736Y008175D02*
X031636Y008175D01*
X031636Y008273D02*
X031736Y008273D01*
X032222Y008273D02*
X033604Y008273D01*
X033505Y008175D02*
X032222Y008175D01*
X032222Y008076D02*
X033407Y008076D01*
X033308Y007978D02*
X032222Y007978D01*
X032184Y007879D02*
X033210Y007879D01*
X033111Y007781D02*
X029226Y007781D01*
X029326Y007682D02*
X033013Y007682D01*
X032914Y007584D02*
X029385Y007584D01*
X029417Y007485D02*
X032816Y007485D01*
X032717Y007387D02*
X028979Y007387D01*
X028979Y007485D02*
X028882Y007485D01*
X028882Y007584D02*
X028979Y007584D01*
X028979Y007682D02*
X028882Y007682D01*
X028882Y007781D02*
X028979Y007781D01*
X028634Y007781D02*
X028370Y007781D01*
X028370Y007682D02*
X028535Y007682D01*
X028476Y007584D02*
X028370Y007584D01*
X028426Y007485D02*
X028444Y007485D01*
X028882Y007288D02*
X028979Y007288D01*
X028979Y007190D02*
X028882Y007190D01*
X028882Y007091D02*
X028979Y007091D01*
X028979Y006993D02*
X028882Y006993D01*
X029240Y006993D02*
X032323Y006993D01*
X032422Y007091D02*
X029333Y007091D01*
X029390Y007190D02*
X032520Y007190D01*
X032619Y007288D02*
X029418Y007288D01*
X028225Y007114D02*
X028210Y007130D01*
X028210Y008208D01*
X028194Y009193D02*
X027210Y008208D01*
X027210Y007130D01*
X028225Y006114D01*
X028994Y005909D02*
X031240Y005909D01*
X031338Y006008D02*
X029184Y006008D01*
X029285Y006106D02*
X031437Y006106D01*
X031535Y006205D02*
X029345Y006205D01*
X029386Y006303D02*
X031634Y006303D01*
X031889Y006106D02*
X034519Y006106D01*
X034490Y006205D02*
X031988Y006205D01*
X032086Y006303D02*
X034490Y006303D01*
X034510Y006402D02*
X032185Y006402D01*
X032283Y006500D02*
X034551Y006500D01*
X034644Y006599D02*
X032382Y006599D01*
X032480Y006697D02*
X034750Y006697D01*
X034750Y006796D02*
X032579Y006796D01*
X032677Y006894D02*
X034723Y006894D01*
X034595Y006993D02*
X032776Y006993D01*
X032874Y007091D02*
X034530Y007091D01*
X034490Y007190D02*
X032973Y007190D01*
X033071Y007288D02*
X034490Y007288D01*
X034504Y007387D02*
X033170Y007387D01*
X033268Y007485D02*
X034545Y007485D01*
X034629Y007584D02*
X033367Y007584D01*
X033465Y007682D02*
X034805Y007682D01*
X035016Y007682D02*
X037805Y007682D01*
X037827Y007691D02*
X037673Y007628D01*
X037554Y007509D01*
X037490Y007355D01*
X037490Y007188D01*
X037554Y007034D01*
X037673Y006915D01*
X037750Y006883D01*
X037750Y006660D01*
X037673Y006628D01*
X037554Y006509D01*
X037490Y006355D01*
X037490Y006188D01*
X037554Y006034D01*
X037673Y005915D01*
X037827Y005851D01*
X037994Y005851D01*
X038148Y005915D01*
X038267Y006034D01*
X038330Y006188D01*
X038330Y006271D01*
X038385Y006139D01*
X038514Y006010D01*
X038682Y005941D01*
X038864Y005941D01*
X039031Y006010D01*
X039160Y006139D01*
X039230Y006307D01*
X039230Y006488D01*
X039160Y006656D01*
X039031Y006785D01*
X038864Y006854D01*
X038682Y006854D01*
X038514Y006785D01*
X038385Y006656D01*
X038316Y006488D01*
X038316Y006390D01*
X038267Y006509D01*
X038148Y006628D01*
X038070Y006660D01*
X038070Y006883D01*
X038148Y006915D01*
X038267Y007034D01*
X038323Y007170D01*
X038348Y007121D01*
X038394Y007058D01*
X038449Y007003D01*
X038512Y006957D01*
X038582Y006921D01*
X038656Y006897D01*
X038724Y006886D01*
X038724Y007333D01*
X038821Y007333D01*
X038821Y006886D01*
X038889Y006897D01*
X038963Y006921D01*
X039033Y006957D01*
X039096Y007003D01*
X039152Y007058D01*
X039198Y007121D01*
X039233Y007191D01*
X039257Y007265D01*
X039268Y007333D01*
X038821Y007333D01*
X038821Y007430D01*
X039268Y007430D01*
X039257Y007498D01*
X039233Y007572D01*
X039198Y007642D01*
X039152Y007705D01*
X039096Y007761D01*
X039033Y007807D01*
X038963Y007842D01*
X038889Y007866D01*
X038821Y007877D01*
X038821Y007430D01*
X038724Y007430D01*
X038724Y007877D01*
X038656Y007866D01*
X038582Y007842D01*
X038512Y007807D01*
X038449Y007761D01*
X038394Y007705D01*
X038348Y007642D01*
X038312Y007572D01*
X038288Y007498D01*
X038283Y007469D01*
X038267Y007509D01*
X038148Y007628D01*
X037994Y007691D01*
X037827Y007691D01*
X038016Y007682D02*
X038377Y007682D01*
X038318Y007584D02*
X038192Y007584D01*
X038276Y007485D02*
X038286Y007485D01*
X038724Y007485D02*
X038821Y007485D01*
X038821Y007387D02*
X043347Y007387D01*
X043347Y007485D02*
X039259Y007485D01*
X039227Y007584D02*
X043347Y007584D01*
X043347Y007682D02*
X039168Y007682D01*
X039068Y007781D02*
X043347Y007781D01*
X043347Y007879D02*
X042027Y007879D01*
X042035Y007888D02*
X042055Y007922D01*
X042065Y007960D01*
X042065Y008316D01*
X041579Y008316D01*
X041579Y008416D01*
X042065Y008416D01*
X042065Y008772D01*
X042055Y008810D01*
X042035Y008844D01*
X042007Y008872D01*
X041973Y008892D01*
X041935Y008902D01*
X041579Y008902D01*
X041579Y008416D01*
X041479Y008416D01*
X041479Y008902D01*
X041123Y008902D01*
X041084Y008892D01*
X041050Y008872D01*
X041022Y008844D01*
X041003Y008810D01*
X040992Y008772D01*
X040992Y008416D01*
X041479Y008416D01*
X041479Y008316D01*
X041579Y008316D01*
X041579Y007830D01*
X041935Y007830D01*
X041973Y007840D01*
X042007Y007860D01*
X042035Y007888D01*
X042065Y007978D02*
X043347Y007978D01*
X043347Y008076D02*
X042065Y008076D01*
X042065Y008175D02*
X043347Y008175D01*
X043347Y008273D02*
X042065Y008273D01*
X041579Y008273D02*
X041479Y008273D01*
X041479Y008316D02*
X041479Y007830D01*
X041123Y007830D01*
X041084Y007840D01*
X041050Y007860D01*
X041022Y007888D01*
X041003Y007922D01*
X040992Y007960D01*
X040992Y008316D01*
X041479Y008316D01*
X041479Y008372D02*
X034155Y008372D01*
X034253Y008470D02*
X040992Y008470D01*
X040992Y008569D02*
X034352Y008569D01*
X034450Y008667D02*
X040992Y008667D01*
X040992Y008766D02*
X034549Y008766D01*
X034293Y008963D02*
X031502Y008963D01*
X031543Y009061D02*
X034349Y009061D01*
X034329Y009160D02*
X031563Y009160D01*
X031563Y009258D02*
X034329Y009258D01*
X034362Y009357D02*
X031529Y009357D01*
X031474Y009455D02*
X032021Y009455D01*
X032150Y009652D02*
X024190Y009652D01*
X022904Y010013D02*
X022790Y010013D01*
X022635Y009949D01*
X022517Y009831D01*
X022453Y009676D01*
X022453Y009509D01*
X022517Y009355D01*
X022539Y009333D01*
X022515Y009333D01*
X022361Y009269D01*
X022243Y009151D01*
X022179Y008996D01*
X022179Y008902D01*
X021894Y008902D01*
X021894Y008416D01*
X022380Y008416D01*
X022380Y008549D01*
X022439Y008524D01*
X022439Y008247D01*
X022380Y008188D01*
X022380Y008316D01*
X021894Y008316D01*
X021894Y008416D01*
X021794Y008416D01*
X021794Y008902D01*
X021438Y008902D01*
X021399Y008892D01*
X021365Y008872D01*
X021337Y008844D01*
X021318Y008810D01*
X021307Y008772D01*
X021307Y008416D01*
X021794Y008416D01*
X021794Y008316D01*
X021894Y008316D01*
X021894Y007830D01*
X022022Y007830D01*
X020739Y006548D01*
X020605Y006682D01*
X020415Y006682D01*
X020280Y006547D01*
X020280Y006448D01*
X019884Y006052D01*
X019388Y006052D01*
X019475Y006139D01*
X019544Y006307D01*
X019544Y006488D01*
X019475Y006656D01*
X019346Y006785D01*
X019179Y006854D01*
X018997Y006854D01*
X018829Y006785D01*
X018700Y006656D01*
X018631Y006488D01*
X018631Y006307D01*
X018700Y006139D01*
X018787Y006052D01*
X018524Y006052D01*
X018051Y005579D01*
X018051Y005623D01*
X017987Y005777D01*
X017869Y005895D01*
X017821Y005915D01*
X017821Y006574D01*
X018677Y007430D01*
X019039Y007430D01*
X019039Y007333D01*
X019136Y007333D01*
X019136Y006886D01*
X019204Y006897D01*
X019278Y006921D01*
X019348Y006957D01*
X019411Y007003D01*
X019467Y007058D01*
X019513Y007121D01*
X019548Y007191D01*
X019572Y007265D01*
X019583Y007333D01*
X019136Y007333D01*
X019136Y007430D01*
X019583Y007430D01*
X019572Y007498D01*
X019548Y007572D01*
X019513Y007642D01*
X019467Y007705D01*
X019411Y007761D01*
X019348Y007807D01*
X019278Y007842D01*
X019204Y007866D01*
X019136Y007877D01*
X019136Y007430D01*
X019039Y007430D01*
X019039Y007792D01*
X021786Y010540D01*
X021881Y010445D01*
X022036Y010381D01*
X022203Y010381D01*
X022212Y010385D01*
X022270Y010327D01*
X022405Y010192D01*
X022725Y010192D01*
X022904Y010013D01*
X022870Y010046D02*
X021293Y010046D01*
X021195Y009948D02*
X022634Y009948D01*
X022536Y009849D02*
X021096Y009849D01*
X020998Y009751D02*
X022484Y009751D01*
X022453Y009652D02*
X020899Y009652D01*
X020801Y009554D02*
X022453Y009554D01*
X022475Y009455D02*
X020702Y009455D01*
X020604Y009357D02*
X022516Y009357D01*
X022351Y009258D02*
X020505Y009258D01*
X020407Y009160D02*
X022252Y009160D01*
X022206Y009061D02*
X020308Y009061D01*
X020210Y008963D02*
X022179Y008963D01*
X021894Y008864D02*
X021794Y008864D01*
X021794Y008766D02*
X021894Y008766D01*
X021894Y008667D02*
X021794Y008667D01*
X021794Y008569D02*
X021894Y008569D01*
X021894Y008470D02*
X021794Y008470D01*
X021794Y008372D02*
X019619Y008372D01*
X019717Y008470D02*
X021307Y008470D01*
X021307Y008569D02*
X019816Y008569D01*
X019914Y008667D02*
X021307Y008667D01*
X021307Y008766D02*
X020013Y008766D01*
X020111Y008864D02*
X021357Y008864D01*
X021894Y008372D02*
X022439Y008372D01*
X022439Y008470D02*
X022380Y008470D01*
X022759Y008470D02*
X023360Y008470D01*
X023360Y008372D02*
X022759Y008372D01*
X022759Y008273D02*
X023360Y008273D01*
X023360Y008175D02*
X022759Y008175D01*
X022721Y008076D02*
X023360Y008076D01*
X023360Y007978D02*
X022622Y007978D01*
X022524Y007879D02*
X023360Y007879D01*
X023360Y007781D02*
X022425Y007781D01*
X022327Y007682D02*
X023360Y007682D01*
X023360Y007584D02*
X022228Y007584D01*
X022130Y007485D02*
X023360Y007485D01*
X023360Y007387D02*
X022031Y007387D01*
X021933Y007288D02*
X023360Y007288D01*
X023360Y007190D02*
X021834Y007190D01*
X021736Y007091D02*
X023360Y007091D01*
X023360Y006993D02*
X021637Y006993D01*
X021539Y006894D02*
X023360Y006894D01*
X023360Y006796D02*
X021440Y006796D01*
X021342Y006697D02*
X023360Y006697D01*
X023360Y006599D02*
X021243Y006599D01*
X021145Y006500D02*
X023360Y006500D01*
X023360Y006402D02*
X021046Y006402D01*
X020948Y006303D02*
X023360Y006303D01*
X023360Y006205D02*
X020849Y006205D01*
X020751Y006106D02*
X023360Y006106D01*
X023360Y006008D02*
X020652Y006008D01*
X020554Y005909D02*
X023360Y005909D01*
X023360Y005811D02*
X020455Y005811D01*
X020357Y005712D02*
X023360Y005712D01*
X023360Y005614D02*
X020258Y005614D01*
X020160Y005515D02*
X023360Y005515D01*
X023360Y005417D02*
X020061Y005417D01*
X019963Y005318D02*
X023360Y005318D01*
X023360Y005220D02*
X019864Y005220D01*
X019766Y005121D02*
X023360Y005121D01*
X023360Y005023D02*
X019667Y005023D01*
X019569Y004924D02*
X021354Y004924D01*
X021307Y004826D02*
X019470Y004826D01*
X019372Y004727D02*
X021307Y004727D01*
X021307Y004629D02*
X019273Y004629D01*
X019175Y004530D02*
X021307Y004530D01*
X021794Y004530D02*
X021894Y004530D01*
X021894Y004629D02*
X021794Y004629D01*
X021794Y004727D02*
X021894Y004727D01*
X021894Y004826D02*
X021794Y004826D01*
X021794Y004924D02*
X021894Y004924D01*
X022333Y004924D02*
X023360Y004924D01*
X023360Y004826D02*
X022380Y004826D01*
X022380Y004727D02*
X023373Y004727D01*
X023472Y004629D02*
X022380Y004629D01*
X022380Y004530D02*
X023570Y004530D01*
X023925Y004826D02*
X024919Y004826D01*
X024849Y004924D02*
X023827Y004924D01*
X023820Y005023D02*
X024809Y005023D01*
X024805Y005121D02*
X023820Y005121D01*
X023820Y005220D02*
X024815Y005220D01*
X024856Y005318D02*
X023820Y005318D01*
X023820Y005417D02*
X024934Y005417D01*
X025097Y005515D02*
X023820Y005515D01*
X023820Y005614D02*
X026400Y005614D01*
X026240Y005774D02*
X026240Y006637D01*
X025616Y007269D01*
X025645Y007198D01*
X025645Y007030D01*
X025581Y006876D01*
X025463Y006758D01*
X025309Y006694D01*
X025142Y006694D01*
X024988Y006758D01*
X024869Y006876D01*
X024837Y006954D01*
X024776Y006954D01*
X024536Y006714D01*
X024188Y006714D01*
X023942Y006960D01*
X023942Y007308D01*
X024188Y007554D01*
X024202Y007554D01*
X024202Y008334D01*
X023880Y008656D01*
X023880Y008634D01*
X023820Y008470D02*
X024065Y008470D01*
X024164Y008372D02*
X023820Y008372D01*
X023820Y008273D02*
X024202Y008273D01*
X024202Y008175D02*
X023820Y008175D01*
X023820Y008076D02*
X024202Y008076D01*
X024202Y007978D02*
X023820Y007978D01*
X023820Y007879D02*
X024202Y007879D01*
X024202Y007781D02*
X023820Y007781D01*
X023820Y007682D02*
X024202Y007682D01*
X024202Y007584D02*
X023820Y007584D01*
X023820Y007485D02*
X024120Y007485D01*
X024021Y007387D02*
X023820Y007387D01*
X023820Y007288D02*
X023942Y007288D01*
X023942Y007190D02*
X023820Y007190D01*
X023820Y007091D02*
X023942Y007091D01*
X023942Y006993D02*
X023820Y006993D01*
X023820Y006894D02*
X024007Y006894D01*
X024106Y006796D02*
X023820Y006796D01*
X023820Y006697D02*
X025134Y006697D01*
X025317Y006697D02*
X026181Y006697D01*
X026240Y006599D02*
X023820Y006599D01*
X023820Y006500D02*
X024135Y006500D01*
X024036Y006402D02*
X023820Y006402D01*
X023820Y006303D02*
X023942Y006303D01*
X023942Y006205D02*
X023820Y006205D01*
X023820Y006106D02*
X023942Y006106D01*
X023942Y006008D02*
X023820Y006008D01*
X023820Y005909D02*
X023992Y005909D01*
X024091Y005811D02*
X023820Y005811D01*
X023820Y005712D02*
X025097Y005712D01*
X024934Y005811D02*
X024633Y005811D01*
X024732Y005909D02*
X024856Y005909D01*
X025206Y006134D02*
X024362Y006134D01*
X024782Y006303D02*
X024849Y006303D01*
X024919Y006402D02*
X024688Y006402D01*
X024589Y006500D02*
X025061Y006500D01*
X025390Y006500D02*
X026240Y006500D01*
X026240Y006402D02*
X025531Y006402D01*
X025602Y006303D02*
X026240Y006303D01*
X026240Y006205D02*
X025642Y006205D01*
X025645Y006106D02*
X026240Y006106D01*
X026240Y006008D02*
X025636Y006008D01*
X025595Y005909D02*
X026240Y005909D01*
X026240Y005811D02*
X025516Y005811D01*
X025225Y006114D02*
X025206Y006134D01*
X024949Y006796D02*
X024618Y006796D01*
X024717Y006894D02*
X024862Y006894D01*
X025225Y007114D02*
X024462Y007114D01*
X024362Y007134D01*
X024362Y008400D01*
X023750Y009012D01*
X022738Y009012D01*
X022599Y008913D01*
X022599Y008181D01*
X018099Y003681D01*
X016536Y003681D01*
X016152Y003850D02*
X016143Y003871D01*
X015931Y004083D01*
X015665Y004193D01*
X015665Y004574D01*
X015507Y004732D01*
X017524Y004732D01*
X017656Y004732D01*
X018656Y005732D01*
X018760Y005732D01*
X018700Y005672D01*
X018631Y005504D01*
X018631Y005322D01*
X018700Y005154D01*
X018829Y005026D01*
X018997Y004956D01*
X019148Y004956D01*
X018033Y003841D01*
X016925Y003841D01*
X016893Y003919D01*
X016774Y004037D01*
X016620Y004101D01*
X016453Y004101D01*
X016299Y004037D01*
X016180Y003919D01*
X016152Y003850D01*
X016201Y003939D02*
X016075Y003939D01*
X015976Y004038D02*
X016301Y004038D01*
X016772Y004038D02*
X018230Y004038D01*
X018328Y004136D02*
X015802Y004136D01*
X015665Y004235D02*
X018427Y004235D01*
X018525Y004333D02*
X015665Y004333D01*
X015665Y004432D02*
X018624Y004432D01*
X018722Y004530D02*
X015665Y004530D01*
X015610Y004629D02*
X018821Y004629D01*
X018919Y004727D02*
X015511Y004727D01*
X015350Y004892D02*
X013390Y006852D01*
X010322Y006852D01*
X009867Y006397D01*
X010287Y006402D02*
X011353Y006402D01*
X011353Y006481D02*
X011353Y006314D01*
X011417Y006160D01*
X011535Y006041D01*
X011689Y005977D01*
X011856Y005977D01*
X012011Y006041D01*
X012129Y006160D01*
X012161Y006237D01*
X013549Y006237D01*
X013698Y006089D01*
X013628Y006098D01*
X013626Y006098D01*
X013626Y005345D01*
X014379Y005345D01*
X014379Y005348D01*
X014369Y005417D01*
X015345Y004441D01*
X015345Y004193D01*
X015078Y004083D01*
X014867Y003871D01*
X014752Y003594D01*
X014752Y003316D01*
X013790Y004278D01*
X013696Y004372D01*
X011096Y004372D01*
X009510Y005958D01*
X009510Y006162D01*
X009511Y006160D01*
X009629Y006041D01*
X009784Y005977D01*
X009951Y005977D01*
X010105Y006041D01*
X010223Y006160D01*
X010287Y006314D01*
X010287Y006481D01*
X010255Y006559D01*
X010388Y006692D01*
X011473Y006692D01*
X011417Y006635D01*
X011353Y006481D01*
X011361Y006500D02*
X010279Y006500D01*
X010295Y006599D02*
X011402Y006599D01*
X011773Y006397D02*
X013615Y006397D01*
X015505Y004508D01*
X015505Y003445D01*
X014813Y003742D02*
X014326Y003742D01*
X014424Y003644D02*
X014773Y003644D01*
X014752Y003545D02*
X014523Y003545D01*
X014621Y003447D02*
X014752Y003447D01*
X014752Y003348D02*
X014720Y003348D01*
X014464Y003151D02*
X012970Y003151D01*
X012929Y003053D02*
X014563Y003053D01*
X014661Y002954D02*
X012851Y002954D01*
X012753Y002856D02*
X014760Y002856D01*
X014858Y002757D02*
X012585Y002757D01*
X011968Y002757D02*
X010301Y002757D01*
X010420Y002806D02*
X010631Y003018D01*
X010746Y003295D01*
X010746Y003594D01*
X010631Y003871D01*
X010420Y004083D01*
X010153Y004193D01*
X010153Y004574D01*
X008263Y006464D01*
X008170Y006557D01*
X006649Y006557D01*
X006617Y006635D01*
X006499Y006754D01*
X006344Y006817D01*
X006177Y006817D01*
X006023Y006754D01*
X005905Y006635D01*
X005841Y006481D01*
X005841Y006314D01*
X005905Y006160D01*
X006023Y006041D01*
X006177Y005977D01*
X006344Y005977D01*
X006499Y006041D01*
X006617Y006160D01*
X006649Y006237D01*
X008037Y006237D01*
X008186Y006089D01*
X008117Y006098D01*
X008114Y006098D01*
X008114Y005345D01*
X008867Y005345D01*
X008867Y005348D01*
X008858Y005417D01*
X009833Y004441D01*
X009833Y004193D01*
X009567Y004083D01*
X009355Y003871D01*
X009240Y003594D01*
X009240Y003295D01*
X009355Y003018D01*
X009567Y002806D01*
X009843Y002692D01*
X010143Y002692D01*
X010420Y002806D01*
X010469Y002856D02*
X011801Y002856D01*
X011702Y002954D02*
X010568Y002954D01*
X010646Y003053D02*
X011624Y003053D01*
X011583Y003151D02*
X010687Y003151D01*
X010727Y003250D02*
X011542Y003250D01*
X011524Y003348D02*
X010746Y003348D01*
X010746Y003447D02*
X011524Y003447D01*
X011524Y003545D02*
X010746Y003545D01*
X010726Y003644D02*
X011544Y003644D01*
X011585Y003742D02*
X010685Y003742D01*
X010644Y003841D02*
X011626Y003841D01*
X011707Y003939D02*
X010563Y003939D01*
X010465Y004038D02*
X011805Y004038D01*
X012748Y004038D02*
X013578Y004038D01*
X013676Y003939D02*
X012847Y003939D01*
X012927Y003841D02*
X013775Y003841D01*
X013873Y003742D02*
X012968Y003742D01*
X013009Y003644D02*
X013972Y003644D01*
X014070Y003545D02*
X013030Y003545D01*
X013030Y003447D02*
X014169Y003447D01*
X014267Y003348D02*
X013030Y003348D01*
X013011Y003250D02*
X014366Y003250D01*
X014227Y003841D02*
X014854Y003841D01*
X014935Y003939D02*
X014129Y003939D01*
X014030Y004038D02*
X015033Y004038D01*
X015208Y004136D02*
X013932Y004136D01*
X013833Y004235D02*
X015345Y004235D01*
X015345Y004333D02*
X013735Y004333D01*
X013733Y004506D02*
X013834Y004533D01*
X013932Y004574D01*
X014023Y004626D01*
X014106Y004690D01*
X014181Y004765D01*
X014245Y004848D01*
X014297Y004939D01*
X014338Y005037D01*
X014365Y005138D01*
X014379Y005242D01*
X014379Y005245D01*
X013626Y005245D01*
X013626Y005345D01*
X013526Y005345D01*
X013526Y006098D01*
X013523Y006098D01*
X013419Y006084D01*
X013317Y006057D01*
X013220Y006017D01*
X013129Y005964D01*
X013045Y005900D01*
X012971Y005826D01*
X012907Y005742D01*
X012854Y005651D01*
X012814Y005554D01*
X012787Y005452D01*
X012773Y005348D01*
X012773Y005345D01*
X013526Y005345D01*
X013526Y005245D01*
X013626Y005245D01*
X013626Y004492D01*
X013628Y004492D01*
X013733Y004506D01*
X013824Y004530D02*
X015256Y004530D01*
X015345Y004432D02*
X011036Y004432D01*
X010938Y004530D02*
X013328Y004530D01*
X013317Y004533D02*
X013419Y004506D01*
X013523Y004492D01*
X013526Y004492D01*
X013526Y005245D01*
X012773Y005245D01*
X012773Y005242D01*
X012787Y005138D01*
X012814Y005037D01*
X012854Y004939D01*
X012907Y004848D01*
X012971Y004765D01*
X013045Y004690D01*
X013129Y004626D01*
X013220Y004574D01*
X013317Y004533D01*
X013526Y004530D02*
X013626Y004530D01*
X013626Y004629D02*
X013526Y004629D01*
X013526Y004727D02*
X013626Y004727D01*
X013626Y004826D02*
X013526Y004826D01*
X013526Y004924D02*
X013626Y004924D01*
X013626Y005023D02*
X013526Y005023D01*
X013526Y005121D02*
X013626Y005121D01*
X013626Y005220D02*
X013526Y005220D01*
X013526Y005318D02*
X010150Y005318D01*
X010248Y005220D02*
X012776Y005220D01*
X012791Y005121D02*
X010347Y005121D01*
X010445Y005023D02*
X012820Y005023D01*
X012863Y004924D02*
X010544Y004924D01*
X010642Y004826D02*
X012924Y004826D01*
X013008Y004727D02*
X010741Y004727D01*
X010839Y004629D02*
X013125Y004629D01*
X014026Y004629D02*
X015157Y004629D01*
X015059Y004727D02*
X014143Y004727D01*
X014228Y004826D02*
X014960Y004826D01*
X014862Y004924D02*
X014289Y004924D01*
X014332Y005023D02*
X014763Y005023D01*
X014665Y005121D02*
X014360Y005121D01*
X014376Y005220D02*
X014566Y005220D01*
X014468Y005318D02*
X013626Y005318D01*
X013626Y005417D02*
X013526Y005417D01*
X013526Y005515D02*
X013626Y005515D01*
X013626Y005614D02*
X013526Y005614D01*
X013526Y005712D02*
X013626Y005712D01*
X013626Y005811D02*
X013526Y005811D01*
X013526Y005909D02*
X013626Y005909D01*
X013626Y006008D02*
X013526Y006008D01*
X013680Y006106D02*
X012076Y006106D01*
X012148Y006205D02*
X013581Y006205D01*
X014066Y006402D02*
X014959Y006402D01*
X014959Y006481D02*
X014959Y006314D01*
X015023Y006160D01*
X015141Y006041D01*
X015295Y005977D01*
X015463Y005977D01*
X015617Y006041D01*
X015735Y006160D01*
X015799Y006314D01*
X015799Y006481D01*
X015735Y006635D01*
X015617Y006754D01*
X015463Y006817D01*
X015295Y006817D01*
X015141Y006754D01*
X015023Y006635D01*
X014959Y006481D01*
X014967Y006500D02*
X013968Y006500D01*
X013869Y006599D02*
X015008Y006599D01*
X015085Y006697D02*
X013771Y006697D01*
X013672Y006796D02*
X015244Y006796D01*
X015514Y006796D02*
X017505Y006796D01*
X017441Y006697D02*
X015673Y006697D01*
X015750Y006599D02*
X017441Y006599D01*
X017441Y006500D02*
X015791Y006500D01*
X015799Y006402D02*
X017441Y006402D01*
X017441Y006303D02*
X015795Y006303D01*
X015754Y006205D02*
X017441Y006205D01*
X017441Y006106D02*
X015682Y006106D01*
X015536Y006008D02*
X017441Y006008D01*
X017427Y005909D02*
X016920Y005909D01*
X016946Y005890D02*
X016888Y005933D01*
X016823Y005965D01*
X016754Y005988D01*
X016683Y005999D01*
X016677Y005999D01*
X016677Y005569D01*
X017107Y005569D01*
X017107Y005575D01*
X017095Y005647D01*
X017073Y005716D01*
X017040Y005780D01*
X016998Y005839D01*
X016946Y005890D01*
X017018Y005811D02*
X017309Y005811D01*
X017248Y005712D02*
X017074Y005712D01*
X017101Y005614D02*
X017211Y005614D01*
X017211Y005515D02*
X016677Y005515D01*
X016677Y005509D02*
X016677Y005569D01*
X016617Y005569D01*
X016617Y005999D01*
X016610Y005999D01*
X016539Y005988D01*
X016470Y005965D01*
X016406Y005933D01*
X016347Y005890D01*
X016296Y005839D01*
X016253Y005780D01*
X016220Y005716D01*
X016198Y005647D01*
X016187Y005575D01*
X016187Y005569D01*
X016617Y005569D01*
X016617Y005509D01*
X016677Y005509D01*
X017107Y005509D01*
X017107Y005503D01*
X017095Y005431D01*
X017073Y005363D01*
X017040Y005298D01*
X016998Y005240D01*
X016946Y005188D01*
X016888Y005146D01*
X016823Y005113D01*
X016754Y005091D01*
X016683Y005079D01*
X016677Y005079D01*
X016677Y005509D01*
X016617Y005509D02*
X016617Y005079D01*
X016610Y005079D01*
X016539Y005091D01*
X016470Y005113D01*
X016406Y005146D01*
X016347Y005188D01*
X016296Y005240D01*
X016253Y005298D01*
X016220Y005363D01*
X016198Y005431D01*
X016187Y005503D01*
X016187Y005509D01*
X016617Y005509D01*
X016617Y005515D02*
X014953Y005515D01*
X015051Y005417D02*
X016203Y005417D01*
X016243Y005318D02*
X015150Y005318D01*
X015248Y005220D02*
X016315Y005220D01*
X016453Y005121D02*
X015347Y005121D01*
X015350Y004892D02*
X017590Y004892D01*
X018590Y005892D01*
X019950Y005892D01*
X020510Y006452D01*
X020332Y006599D02*
X019499Y006599D01*
X019539Y006500D02*
X020280Y006500D01*
X020234Y006402D02*
X019544Y006402D01*
X019543Y006303D02*
X020135Y006303D01*
X020037Y006205D02*
X019502Y006205D01*
X019443Y006106D02*
X019938Y006106D01*
X020688Y006599D02*
X020791Y006599D01*
X020889Y006697D02*
X019434Y006697D01*
X019319Y006796D02*
X020988Y006796D01*
X021086Y006894D02*
X019187Y006894D01*
X019136Y006894D02*
X019039Y006894D01*
X019039Y006886D02*
X019039Y007333D01*
X018592Y007333D01*
X018603Y007265D01*
X018627Y007191D01*
X018663Y007121D01*
X018709Y007058D01*
X018764Y007003D01*
X018827Y006957D01*
X018897Y006921D01*
X018971Y006897D01*
X019039Y006886D01*
X018988Y006894D02*
X018141Y006894D01*
X018043Y006796D02*
X018856Y006796D01*
X018742Y006697D02*
X017944Y006697D01*
X017846Y006599D02*
X018677Y006599D01*
X018636Y006500D02*
X017821Y006500D01*
X017821Y006402D02*
X018631Y006402D01*
X018632Y006303D02*
X017821Y006303D01*
X017821Y006205D02*
X018673Y006205D01*
X018733Y006106D02*
X017821Y006106D01*
X017821Y006008D02*
X018480Y006008D01*
X018381Y005909D02*
X017835Y005909D01*
X017953Y005811D02*
X018283Y005811D01*
X018184Y005712D02*
X018014Y005712D01*
X018051Y005614D02*
X018086Y005614D01*
X018341Y005417D02*
X018631Y005417D01*
X018632Y005318D02*
X018243Y005318D01*
X018144Y005220D02*
X018673Y005220D01*
X018733Y005121D02*
X018046Y005121D01*
X017947Y005023D02*
X018836Y005023D01*
X019018Y004826D02*
X017750Y004826D01*
X017849Y004924D02*
X019116Y004924D01*
X017542Y005121D02*
X016840Y005121D01*
X016677Y005121D02*
X016617Y005121D01*
X016617Y005220D02*
X016677Y005220D01*
X016677Y005318D02*
X016617Y005318D01*
X016617Y005417D02*
X016677Y005417D01*
X016677Y005614D02*
X016617Y005614D01*
X016617Y005712D02*
X016677Y005712D01*
X016677Y005811D02*
X016617Y005811D01*
X016617Y005909D02*
X016677Y005909D01*
X016374Y005909D02*
X014559Y005909D01*
X014657Y005811D02*
X016276Y005811D01*
X016219Y005712D02*
X014756Y005712D01*
X014854Y005614D02*
X016193Y005614D01*
X016978Y005220D02*
X017356Y005220D01*
X017268Y005318D02*
X017050Y005318D01*
X017091Y005417D02*
X017227Y005417D01*
X018440Y005515D02*
X018636Y005515D01*
X018676Y005614D02*
X018538Y005614D01*
X018637Y005712D02*
X018741Y005712D01*
X017604Y006894D02*
X013574Y006894D01*
X013626Y006945D02*
X013706Y006958D01*
X013789Y006985D01*
X013867Y007024D01*
X013938Y007076D01*
X014000Y007138D01*
X014051Y007208D01*
X014091Y007286D01*
X014118Y007370D01*
X014131Y007450D01*
X013626Y007450D01*
X013626Y007550D01*
X013526Y007550D01*
X013526Y008055D01*
X013446Y008042D01*
X013362Y008015D01*
X013284Y007975D01*
X013214Y007924D01*
X013152Y007862D01*
X013100Y007791D01*
X013061Y007713D01*
X013034Y007630D01*
X013021Y007550D01*
X013526Y007550D01*
X013526Y007450D01*
X013626Y007450D01*
X013626Y006945D01*
X013626Y006993D02*
X013526Y006993D01*
X013526Y007091D02*
X013626Y007091D01*
X013626Y007190D02*
X013526Y007190D01*
X013526Y007288D02*
X013626Y007288D01*
X013626Y007387D02*
X013526Y007387D01*
X013526Y007485D02*
X009510Y007485D01*
X009510Y007387D02*
X013031Y007387D01*
X013060Y007288D02*
X009510Y007288D01*
X009510Y007190D02*
X013114Y007190D01*
X013198Y007091D02*
X009510Y007091D01*
X009510Y006993D02*
X010236Y006993D01*
X010138Y006894D02*
X009510Y006894D01*
X009510Y006796D02*
X009732Y006796D01*
X009573Y006697D02*
X009510Y006697D01*
X009190Y006697D02*
X006555Y006697D01*
X006632Y006599D02*
X009190Y006599D01*
X009190Y006500D02*
X008227Y006500D01*
X008325Y006402D02*
X009190Y006402D01*
X009190Y006303D02*
X008424Y006303D01*
X008522Y006205D02*
X009190Y006205D01*
X009190Y006106D02*
X008621Y006106D01*
X008719Y006008D02*
X009190Y006008D01*
X009190Y005909D02*
X008818Y005909D01*
X008916Y005811D02*
X009205Y005811D01*
X009303Y005712D02*
X009015Y005712D01*
X009113Y005614D02*
X009402Y005614D01*
X009500Y005515D02*
X009212Y005515D01*
X009310Y005417D02*
X009599Y005417D01*
X009697Y005318D02*
X009409Y005318D01*
X009507Y005220D02*
X009796Y005220D01*
X009894Y005121D02*
X009606Y005121D01*
X009704Y005023D02*
X009993Y005023D01*
X010091Y004924D02*
X009803Y004924D01*
X009901Y004826D02*
X010190Y004826D01*
X010288Y004727D02*
X010000Y004727D01*
X010098Y004629D02*
X010387Y004629D01*
X010485Y004530D02*
X010153Y004530D01*
X010153Y004432D02*
X010584Y004432D01*
X010682Y004333D02*
X010153Y004333D01*
X010153Y004235D02*
X010781Y004235D01*
X010879Y004136D02*
X010291Y004136D01*
X009833Y004235D02*
X005113Y004235D01*
X005015Y004333D02*
X009833Y004333D01*
X009833Y004432D02*
X004916Y004432D01*
X004818Y004530D02*
X007816Y004530D01*
X007805Y004533D02*
X007907Y004506D01*
X008011Y004492D01*
X008014Y004492D01*
X008014Y005245D01*
X008114Y005245D01*
X008114Y004492D01*
X008117Y004492D01*
X008221Y004506D01*
X008323Y004533D01*
X008420Y004574D01*
X008511Y004626D01*
X008594Y004690D01*
X008669Y004765D01*
X008733Y004848D01*
X008786Y004939D01*
X008826Y005037D01*
X008853Y005138D01*
X008867Y005242D01*
X008867Y005245D01*
X008114Y005245D01*
X008114Y005345D01*
X008014Y005345D01*
X008014Y005245D01*
X007261Y005245D01*
X007261Y005242D01*
X007275Y005138D01*
X007302Y005037D01*
X007343Y004939D01*
X007395Y004848D01*
X007459Y004765D01*
X007534Y004690D01*
X007617Y004626D01*
X007708Y004574D01*
X007805Y004533D01*
X008014Y004530D02*
X008114Y004530D01*
X008114Y004629D02*
X008014Y004629D01*
X008014Y004727D02*
X008114Y004727D01*
X008114Y004826D02*
X008014Y004826D01*
X008014Y004924D02*
X008114Y004924D01*
X008114Y005023D02*
X008014Y005023D01*
X008014Y005121D02*
X008114Y005121D01*
X008114Y005220D02*
X008014Y005220D01*
X008014Y005318D02*
X004515Y005318D01*
X004515Y005220D02*
X007264Y005220D01*
X007279Y005121D02*
X004515Y005121D01*
X004515Y005023D02*
X007308Y005023D01*
X007351Y004924D02*
X004515Y004924D01*
X004522Y004826D02*
X007412Y004826D01*
X007496Y004727D02*
X004621Y004727D01*
X004719Y004629D02*
X007613Y004629D01*
X008312Y004530D02*
X009744Y004530D01*
X009646Y004629D02*
X008515Y004629D01*
X008632Y004727D02*
X009547Y004727D01*
X009449Y004826D02*
X008716Y004826D01*
X008777Y004924D02*
X009350Y004924D01*
X009252Y005023D02*
X008820Y005023D01*
X008849Y005121D02*
X009153Y005121D01*
X009055Y005220D02*
X008864Y005220D01*
X008956Y005318D02*
X008114Y005318D01*
X008114Y005417D02*
X008014Y005417D01*
X008014Y005345D02*
X008014Y006098D01*
X008011Y006098D01*
X007907Y006084D01*
X007805Y006057D01*
X007708Y006017D01*
X007617Y005964D01*
X007534Y005900D01*
X007459Y005826D01*
X007395Y005742D01*
X007343Y005651D01*
X007302Y005554D01*
X007275Y005452D01*
X007261Y005348D01*
X007261Y005345D01*
X008014Y005345D01*
X008014Y005515D02*
X008114Y005515D01*
X008114Y005614D02*
X008014Y005614D01*
X008014Y005712D02*
X008114Y005712D01*
X008114Y005811D02*
X008014Y005811D01*
X008014Y005909D02*
X008114Y005909D01*
X008114Y006008D02*
X008014Y006008D01*
X008168Y006106D02*
X006564Y006106D01*
X006636Y006205D02*
X008070Y006205D01*
X008103Y006397D02*
X006261Y006397D01*
X005841Y006402D02*
X004775Y006402D01*
X004771Y006303D02*
X005845Y006303D01*
X005886Y006205D02*
X004730Y006205D01*
X004658Y006106D02*
X005958Y006106D01*
X006104Y006008D02*
X004515Y006008D01*
X004515Y005909D02*
X007546Y005909D01*
X007448Y005811D02*
X004515Y005811D01*
X004515Y005712D02*
X007378Y005712D01*
X007327Y005614D02*
X004515Y005614D01*
X004515Y005515D02*
X007292Y005515D01*
X007270Y005417D02*
X004515Y005417D01*
X004195Y005417D02*
X003346Y005417D01*
X003341Y005452D02*
X003314Y005554D01*
X003274Y005651D01*
X003221Y005742D01*
X003157Y005826D01*
X003083Y005900D01*
X002999Y005964D01*
X002908Y006017D01*
X002811Y006057D01*
X002709Y006084D01*
X002605Y006098D01*
X002602Y006098D01*
X002602Y005345D01*
X002502Y005345D01*
X002502Y005245D01*
X001749Y005245D01*
X001749Y005242D01*
X001763Y005138D01*
X001790Y005037D01*
X001831Y004939D01*
X001883Y004848D01*
X001947Y004765D01*
X002022Y004690D01*
X002105Y004626D01*
X002196Y004574D01*
X002294Y004533D01*
X002395Y004506D01*
X002500Y004492D01*
X002502Y004492D01*
X002502Y005245D01*
X002602Y005245D01*
X002602Y004492D01*
X002605Y004492D01*
X002709Y004506D01*
X002811Y004533D01*
X002908Y004574D01*
X002999Y004626D01*
X003083Y004690D01*
X003157Y004765D01*
X003221Y004848D01*
X003274Y004939D01*
X003314Y005037D01*
X003341Y005138D01*
X003355Y005242D01*
X003355Y005245D01*
X002602Y005245D01*
X002602Y005345D01*
X003355Y005345D01*
X003355Y005348D01*
X003341Y005452D01*
X003324Y005515D02*
X004195Y005515D01*
X004195Y005614D02*
X003289Y005614D01*
X003238Y005712D02*
X004195Y005712D01*
X004195Y005811D02*
X003168Y005811D01*
X003070Y005909D02*
X004195Y005909D01*
X004195Y006008D02*
X002923Y006008D01*
X002602Y006008D02*
X002502Y006008D01*
X002502Y006098D02*
X002500Y006098D01*
X002395Y006084D01*
X002294Y006057D01*
X002196Y006017D01*
X002105Y005964D01*
X002022Y005900D01*
X001947Y005826D01*
X001883Y005742D01*
X001831Y005651D01*
X001790Y005554D01*
X001763Y005452D01*
X001749Y005348D01*
X001749Y005345D01*
X002502Y005345D01*
X002502Y006098D01*
X002181Y006008D02*
X001365Y006008D01*
X001413Y005909D02*
X002034Y005909D01*
X001936Y005811D02*
X001413Y005811D01*
X001413Y005712D02*
X001866Y005712D01*
X001815Y005614D02*
X001413Y005614D01*
X001413Y005515D02*
X001780Y005515D01*
X001759Y005417D02*
X001413Y005417D01*
X001413Y005318D02*
X002502Y005318D01*
X002502Y005220D02*
X002602Y005220D01*
X002602Y005318D02*
X004195Y005318D01*
X004195Y005220D02*
X003352Y005220D01*
X003337Y005121D02*
X004195Y005121D01*
X004195Y005023D02*
X003308Y005023D01*
X003265Y004924D02*
X004195Y004924D01*
X004195Y004826D02*
X003204Y004826D01*
X003120Y004727D02*
X004195Y004727D01*
X004267Y004629D02*
X003003Y004629D01*
X002800Y004530D02*
X004365Y004530D01*
X004464Y004432D02*
X001413Y004432D01*
X001413Y004530D02*
X002304Y004530D01*
X002502Y004530D02*
X002602Y004530D01*
X002602Y004629D02*
X002502Y004629D01*
X002502Y004727D02*
X002602Y004727D01*
X002602Y004826D02*
X002502Y004826D01*
X002502Y004924D02*
X002602Y004924D01*
X002602Y005023D02*
X002502Y005023D01*
X002502Y005121D02*
X002602Y005121D01*
X001796Y005023D02*
X001413Y005023D01*
X001413Y005121D02*
X001768Y005121D01*
X001752Y005220D02*
X001413Y005220D01*
X001093Y005220D02*
X000340Y005220D01*
X000340Y005318D02*
X001093Y005318D01*
X001093Y005417D02*
X000340Y005417D01*
X000340Y005515D02*
X001093Y005515D01*
X001093Y005614D02*
X000340Y005614D01*
X000340Y005712D02*
X001093Y005712D01*
X001093Y005811D02*
X000340Y005811D01*
X000340Y005909D02*
X001011Y005909D01*
X001093Y005827D02*
X001093Y004193D01*
X000827Y004083D01*
X000615Y003871D01*
X000500Y003594D01*
X000500Y003295D01*
X000615Y003018D01*
X000827Y002806D01*
X001103Y002692D01*
X001403Y002692D01*
X001679Y002806D01*
X001891Y003018D01*
X002002Y003285D01*
X003733Y003285D01*
X003843Y003018D01*
X004055Y002806D01*
X004332Y002692D01*
X004631Y002692D01*
X004908Y002806D01*
X005120Y003018D01*
X005234Y003295D01*
X005234Y003594D01*
X005187Y003709D01*
X006833Y002063D01*
X007763Y002063D01*
X007702Y002018D01*
X007640Y001956D01*
X007589Y001886D01*
X007549Y001808D01*
X007522Y001724D01*
X007509Y001644D01*
X008014Y001644D01*
X008014Y001544D01*
X008114Y001544D01*
X008114Y001039D01*
X008194Y001052D01*
X008277Y001079D01*
X008355Y001119D01*
X008426Y001170D01*
X008488Y001232D01*
X008539Y001303D01*
X008579Y001381D01*
X008606Y001464D01*
X008619Y001544D01*
X008114Y001544D01*
X008114Y001644D01*
X008619Y001644D01*
X008606Y001724D01*
X008579Y001808D01*
X008539Y001886D01*
X008488Y001956D01*
X008426Y002018D01*
X008365Y002063D01*
X013275Y002063D01*
X013214Y002018D01*
X013152Y001956D01*
X013100Y001886D01*
X013061Y001808D01*
X013034Y001724D01*
X013021Y001644D01*
X013526Y001644D01*
X013526Y001544D01*
X013626Y001544D01*
X013626Y001039D01*
X013706Y001052D01*
X013789Y001079D01*
X013867Y001119D01*
X013938Y001170D01*
X014000Y001232D01*
X014051Y001303D01*
X014091Y001381D01*
X014118Y001464D01*
X014131Y001544D01*
X013626Y001544D01*
X013626Y001644D01*
X014131Y001644D01*
X014118Y001724D01*
X014091Y001808D01*
X014051Y001886D01*
X014000Y001956D01*
X013938Y002018D01*
X013877Y002063D01*
X016293Y002063D01*
X016180Y001950D01*
X016116Y001796D01*
X016116Y001629D01*
X016180Y001475D01*
X016299Y001356D01*
X016453Y001292D01*
X016620Y001292D01*
X016774Y001356D01*
X016893Y001475D01*
X016956Y001629D01*
X016956Y001796D01*
X016893Y001950D01*
X016780Y002063D01*
X017753Y002063D01*
X019174Y000642D01*
X000340Y000642D01*
X000340Y006288D01*
X000393Y006160D01*
X000511Y006041D01*
X000666Y005977D01*
X000833Y005977D01*
X000911Y006010D01*
X001093Y005827D01*
X001253Y005894D02*
X001253Y003445D01*
X004481Y003445D01*
X005234Y003447D02*
X005449Y003447D01*
X005547Y003348D02*
X005234Y003348D01*
X005216Y003250D02*
X005646Y003250D01*
X005744Y003151D02*
X005175Y003151D01*
X005134Y003053D02*
X005843Y003053D01*
X005941Y002954D02*
X005056Y002954D01*
X004957Y002856D02*
X006040Y002856D01*
X006138Y002757D02*
X004790Y002757D01*
X004173Y002757D02*
X001561Y002757D01*
X001729Y002856D02*
X004005Y002856D01*
X003907Y002954D02*
X001828Y002954D01*
X001906Y003053D02*
X003829Y003053D01*
X003788Y003151D02*
X001946Y003151D01*
X001987Y003250D02*
X003747Y003250D01*
X003749Y003644D02*
X001985Y003644D01*
X001945Y003742D02*
X003790Y003742D01*
X003831Y003841D02*
X001904Y003841D01*
X001823Y003939D02*
X003911Y003939D01*
X004010Y004038D02*
X001725Y004038D01*
X001550Y004136D02*
X004184Y004136D01*
X004562Y004333D02*
X001413Y004333D01*
X001413Y004235D02*
X004661Y004235D01*
X005212Y004136D02*
X006467Y004136D01*
X006293Y004038D02*
X005310Y004038D01*
X005409Y003939D02*
X006195Y003939D01*
X006114Y003841D02*
X005507Y003841D01*
X005606Y003742D02*
X006073Y003742D01*
X006032Y003644D02*
X005704Y003644D01*
X005803Y003545D02*
X006012Y003545D01*
X006012Y003447D02*
X005901Y003447D01*
X006000Y003348D02*
X006012Y003348D01*
X005350Y003545D02*
X005234Y003545D01*
X005252Y003644D02*
X005214Y003644D01*
X007062Y004136D02*
X009696Y004136D01*
X009522Y004038D02*
X007236Y004038D01*
X007335Y003939D02*
X009423Y003939D01*
X009342Y003841D02*
X007416Y003841D01*
X007456Y003742D02*
X009302Y003742D01*
X009261Y003644D02*
X007497Y003644D01*
X007518Y003545D02*
X009240Y003545D01*
X009240Y003447D02*
X007518Y003447D01*
X007518Y003348D02*
X009240Y003348D01*
X009259Y003250D02*
X007499Y003250D01*
X007458Y003151D02*
X009300Y003151D01*
X009340Y003053D02*
X007417Y003053D01*
X007339Y002954D02*
X009419Y002954D01*
X009517Y002856D02*
X007241Y002856D01*
X007073Y002757D02*
X009685Y002757D01*
X009993Y003445D02*
X009993Y004508D01*
X008103Y006397D01*
X007693Y006008D02*
X006418Y006008D01*
X005849Y006500D02*
X004767Y006500D01*
X004726Y006599D02*
X005890Y006599D01*
X005967Y006697D02*
X004649Y006697D01*
X004491Y006796D02*
X006125Y006796D01*
X006396Y006796D02*
X009190Y006796D01*
X009190Y006894D02*
X000340Y006894D01*
X000340Y006796D02*
X000614Y006796D01*
X000455Y006697D02*
X000340Y006697D01*
X000340Y006599D02*
X000378Y006599D01*
X000749Y006397D02*
X001253Y005894D01*
X000912Y006008D02*
X000906Y006008D01*
X000592Y006008D02*
X000340Y006008D01*
X000340Y006106D02*
X000446Y006106D01*
X000374Y006205D02*
X000340Y006205D01*
X001168Y006205D02*
X003980Y006205D01*
X003940Y006303D02*
X001165Y006303D01*
X001169Y006402D02*
X003935Y006402D01*
X003943Y006500D02*
X001161Y006500D01*
X001120Y006599D02*
X003984Y006599D01*
X004061Y006697D02*
X001043Y006697D01*
X000884Y006796D02*
X004220Y006796D01*
X004355Y006397D02*
X004355Y004767D01*
X006899Y002223D01*
X017819Y002223D01*
X019390Y000652D01*
X033910Y000652D01*
X034127Y000869D01*
X034127Y001252D01*
X034147Y001271D01*
X034910Y001271D01*
X035370Y000812D01*
X042003Y000812D01*
X042471Y001279D01*
X042891Y001280D02*
X043347Y001280D01*
X043347Y001378D02*
X042884Y001378D01*
X042843Y001477D02*
X043347Y001477D01*
X043347Y001575D02*
X042768Y001575D01*
X042615Y001674D02*
X043347Y001674D01*
X043347Y001772D02*
X038070Y001772D01*
X038070Y001871D02*
X043347Y001871D01*
X043347Y001969D02*
X038202Y001969D01*
X038281Y002068D02*
X043347Y002068D01*
X043347Y002166D02*
X038322Y002166D01*
X038330Y002265D02*
X043347Y002265D01*
X043347Y002363D02*
X038327Y002363D01*
X038327Y002462D02*
X043347Y002462D01*
X043347Y002560D02*
X038426Y002560D01*
X038524Y002659D02*
X043347Y002659D01*
X043347Y002757D02*
X038623Y002757D01*
X038721Y002856D02*
X043347Y002856D01*
X043347Y002954D02*
X038820Y002954D01*
X038918Y003053D02*
X043347Y003053D01*
X043347Y003151D02*
X039017Y003151D01*
X039115Y003250D02*
X043347Y003250D01*
X043347Y003348D02*
X039214Y003348D01*
X039310Y003447D02*
X039368Y003447D01*
X039558Y003447D02*
X039618Y003447D01*
X039618Y003418D02*
X039778Y003418D01*
X040048Y003687D01*
X040048Y003848D01*
X039618Y003848D01*
X039618Y003418D01*
X039618Y003545D02*
X039558Y003545D01*
X039558Y003644D02*
X039618Y003644D01*
X039618Y003742D02*
X039558Y003742D01*
X039558Y003841D02*
X039618Y003841D01*
X039618Y003939D02*
X039558Y003939D01*
X039558Y004038D02*
X039618Y004038D01*
X039618Y004136D02*
X039558Y004136D01*
X039558Y004235D02*
X039618Y004235D01*
X039618Y004333D02*
X039558Y004333D01*
X039393Y004333D02*
X039310Y004333D01*
X039310Y004432D02*
X041479Y004432D01*
X041479Y004479D02*
X041479Y004379D01*
X041579Y004379D01*
X041579Y004479D01*
X042065Y004479D01*
X042065Y004835D01*
X042055Y004873D01*
X042035Y004907D01*
X042007Y004935D01*
X041973Y004955D01*
X041935Y004965D01*
X041579Y004965D01*
X041579Y004479D01*
X041479Y004479D01*
X041479Y004965D01*
X041123Y004965D01*
X041084Y004955D01*
X041050Y004935D01*
X041022Y004907D01*
X041003Y004873D01*
X040992Y004835D01*
X040992Y004479D01*
X041479Y004479D01*
X041479Y004530D02*
X041579Y004530D01*
X041579Y004432D02*
X043347Y004432D01*
X043347Y004530D02*
X042065Y004530D01*
X042065Y004629D02*
X043347Y004629D01*
X043347Y004727D02*
X042065Y004727D01*
X042065Y004826D02*
X043347Y004826D01*
X043347Y004924D02*
X042018Y004924D01*
X041579Y004924D02*
X041479Y004924D01*
X041479Y004826D02*
X041579Y004826D01*
X041579Y004727D02*
X041479Y004727D01*
X041479Y004629D02*
X041579Y004629D01*
X041579Y004379D02*
X042065Y004379D01*
X042065Y004023D01*
X042055Y003985D01*
X042035Y003951D01*
X042007Y003923D01*
X041973Y003903D01*
X041935Y003893D01*
X041579Y003893D01*
X041579Y004379D01*
X041579Y004333D02*
X041479Y004333D01*
X041479Y004379D02*
X041479Y003893D01*
X041123Y003893D01*
X041084Y003903D01*
X041050Y003923D01*
X041022Y003951D01*
X041003Y003985D01*
X040992Y004023D01*
X040992Y004379D01*
X041479Y004379D01*
X041479Y004235D02*
X041579Y004235D01*
X041579Y004136D02*
X041479Y004136D01*
X041479Y004038D02*
X041579Y004038D01*
X041579Y003939D02*
X041479Y003939D01*
X042024Y003939D02*
X043347Y003939D01*
X043347Y003841D02*
X040048Y003841D01*
X040048Y003939D02*
X041034Y003939D01*
X040992Y004038D02*
X040048Y004038D01*
X039979Y004136D02*
X040992Y004136D01*
X040992Y004235D02*
X039881Y004235D01*
X039782Y004333D02*
X040992Y004333D01*
X040992Y004530D02*
X039310Y004530D01*
X039310Y004629D02*
X040992Y004629D01*
X040992Y004727D02*
X039310Y004727D01*
X039310Y004826D02*
X040992Y004826D01*
X041040Y004924D02*
X039310Y004924D01*
X039310Y005023D02*
X043347Y005023D01*
X043347Y005121D02*
X039291Y005121D01*
X039192Y005220D02*
X043347Y005220D01*
X043347Y005318D02*
X039228Y005318D01*
X039230Y005417D02*
X043347Y005417D01*
X043347Y005515D02*
X039225Y005515D01*
X039184Y005614D02*
X043347Y005614D01*
X043347Y005712D02*
X039120Y005712D01*
X039006Y005811D02*
X043347Y005811D01*
X043347Y005909D02*
X038134Y005909D01*
X038241Y006008D02*
X038519Y006008D01*
X038418Y006106D02*
X038297Y006106D01*
X038330Y006205D02*
X038358Y006205D01*
X038316Y006402D02*
X038311Y006402D01*
X038321Y006500D02*
X038270Y006500D01*
X038177Y006599D02*
X038362Y006599D01*
X038427Y006697D02*
X038070Y006697D01*
X038070Y006796D02*
X038541Y006796D01*
X038673Y006894D02*
X038098Y006894D01*
X038226Y006993D02*
X038462Y006993D01*
X038369Y007091D02*
X038291Y007091D01*
X037910Y007271D02*
X037910Y006271D01*
X037524Y006106D02*
X035297Y006106D01*
X035330Y006205D02*
X037490Y006205D01*
X037490Y006303D02*
X035330Y006303D01*
X035311Y006402D02*
X037510Y006402D01*
X037551Y006500D02*
X035270Y006500D01*
X035177Y006599D02*
X037644Y006599D01*
X037750Y006697D02*
X035070Y006697D01*
X035070Y006796D02*
X037750Y006796D01*
X037723Y006894D02*
X035098Y006894D01*
X035226Y006993D02*
X037595Y006993D01*
X037530Y007091D02*
X035291Y007091D01*
X035330Y007190D02*
X037490Y007190D01*
X037490Y007288D02*
X035330Y007288D01*
X035317Y007387D02*
X037504Y007387D01*
X037545Y007485D02*
X035276Y007485D01*
X035192Y007584D02*
X037629Y007584D01*
X038477Y007781D02*
X033564Y007781D01*
X033662Y007879D02*
X041031Y007879D01*
X040992Y007978D02*
X033761Y007978D01*
X033859Y008076D02*
X040992Y008076D01*
X040992Y008175D02*
X033958Y008175D01*
X034056Y008273D02*
X040992Y008273D01*
X041479Y008175D02*
X041579Y008175D01*
X041579Y008076D02*
X041479Y008076D01*
X041479Y007978D02*
X041579Y007978D01*
X041579Y007879D02*
X041479Y007879D01*
X041579Y008372D02*
X043347Y008372D01*
X043347Y008470D02*
X042065Y008470D01*
X042065Y008569D02*
X043347Y008569D01*
X043347Y008667D02*
X042065Y008667D01*
X042065Y008766D02*
X043347Y008766D01*
X043347Y008864D02*
X042015Y008864D01*
X041579Y008864D02*
X041479Y008864D01*
X041479Y008766D02*
X041579Y008766D01*
X041579Y008667D02*
X041479Y008667D01*
X041479Y008569D02*
X041579Y008569D01*
X041579Y008470D02*
X041479Y008470D01*
X041043Y008864D02*
X035015Y008864D01*
X035108Y008963D02*
X043347Y008963D01*
X043347Y009061D02*
X035149Y009061D01*
X035169Y009160D02*
X043347Y009160D01*
X043347Y009258D02*
X035169Y009258D01*
X035136Y009357D02*
X043347Y009357D01*
X043347Y009455D02*
X035080Y009455D01*
X034974Y009554D02*
X038004Y009554D01*
X038007Y009551D02*
X038166Y009551D01*
X038166Y009991D01*
X038246Y009991D01*
X038246Y010071D01*
X038686Y010071D01*
X038686Y010230D01*
X038405Y010511D01*
X038246Y010511D01*
X038246Y010071D01*
X038166Y010071D01*
X038166Y009991D01*
X037726Y009991D01*
X037726Y009833D01*
X038007Y009551D01*
X037906Y009652D02*
X037449Y009652D01*
X037388Y009591D02*
X037646Y009849D01*
X037646Y010214D01*
X037436Y010424D01*
X037436Y010639D01*
X037646Y010849D01*
X037646Y011214D01*
X037388Y011471D01*
X037023Y011471D01*
X036813Y011261D01*
X035018Y011261D01*
X034928Y011265D01*
X034924Y011261D01*
X034918Y011261D01*
X034875Y011218D01*
X034853Y011227D01*
X034686Y011227D01*
X034531Y011163D01*
X034413Y011045D01*
X034349Y010890D01*
X034349Y010723D01*
X034413Y010569D01*
X034531Y010451D01*
X034686Y010387D01*
X034853Y010387D01*
X035007Y010451D01*
X035125Y010569D01*
X035189Y010723D01*
X035189Y010801D01*
X036813Y010801D01*
X036976Y010639D01*
X036976Y010424D01*
X036766Y010214D01*
X036766Y009849D01*
X037023Y009591D01*
X037388Y009591D01*
X037548Y009751D02*
X037807Y009751D01*
X037726Y009849D02*
X037646Y009849D01*
X037646Y009948D02*
X037726Y009948D01*
X037726Y010071D02*
X038166Y010071D01*
X038166Y010511D01*
X038007Y010511D01*
X037726Y010230D01*
X037726Y010071D01*
X037726Y010145D02*
X037646Y010145D01*
X037646Y010046D02*
X038166Y010046D01*
X038246Y010046D02*
X039166Y010046D01*
X039166Y010071D02*
X039166Y009991D01*
X039246Y009991D01*
X039246Y010071D01*
X039686Y010071D01*
X039686Y010230D01*
X039405Y010511D01*
X039246Y010511D01*
X039246Y010071D01*
X039166Y010071D01*
X038726Y010071D01*
X038726Y010230D01*
X039007Y010511D01*
X039166Y010511D01*
X039166Y010071D01*
X039166Y010145D02*
X039246Y010145D01*
X039246Y010243D02*
X039166Y010243D01*
X039166Y010342D02*
X039246Y010342D01*
X039246Y010440D02*
X039166Y010440D01*
X039166Y010551D02*
X039166Y010991D01*
X039246Y010991D01*
X039246Y011071D01*
X039686Y011071D01*
X039686Y011230D01*
X039405Y011511D01*
X039246Y011511D01*
X039246Y011071D01*
X039166Y011071D01*
X039166Y010991D01*
X038726Y010991D01*
X038726Y010833D01*
X039007Y010551D01*
X039166Y010551D01*
X039246Y010551D02*
X039405Y010551D01*
X039686Y010833D01*
X039686Y010991D01*
X039246Y010991D01*
X039246Y010551D01*
X039246Y010637D02*
X039166Y010637D01*
X039166Y010736D02*
X039246Y010736D01*
X039246Y010834D02*
X039166Y010834D01*
X039166Y010933D02*
X039246Y010933D01*
X039246Y011031D02*
X040166Y011031D01*
X040166Y011071D02*
X040166Y010991D01*
X040246Y010991D01*
X040246Y011071D01*
X040166Y011071D01*
X039726Y011071D01*
X039726Y011230D01*
X040007Y011511D01*
X040166Y011511D01*
X040166Y011071D01*
X040166Y011130D02*
X040246Y011130D01*
X040246Y011228D02*
X040166Y011228D01*
X040166Y011327D02*
X040246Y011327D01*
X040246Y011425D02*
X040166Y011425D01*
X040388Y011524D02*
X035096Y011524D01*
X034984Y011425D02*
X036978Y011425D01*
X036879Y011327D02*
X030948Y011327D01*
X030948Y011425D02*
X030861Y011425D01*
X031377Y011425D02*
X034554Y011425D01*
X034442Y011524D02*
X031490Y011524D01*
X031547Y011622D02*
X034384Y011622D01*
X034349Y011721D02*
X031583Y011721D01*
X031583Y011819D02*
X034349Y011819D01*
X034367Y011918D02*
X031565Y011918D01*
X031524Y012016D02*
X034408Y012016D01*
X034499Y012115D02*
X031433Y012115D01*
X030193Y012115D02*
X027825Y012115D01*
X027919Y012016D02*
X030099Y012016D01*
X030058Y011918D02*
X027960Y011918D01*
X027989Y011819D02*
X030029Y011819D01*
X030029Y011721D02*
X027989Y011721D01*
X027975Y011622D02*
X030043Y011622D01*
X030084Y011524D02*
X027934Y011524D01*
X027861Y011425D02*
X030156Y011425D01*
X031050Y011228D02*
X034885Y011228D01*
X034498Y011130D02*
X031434Y011130D01*
X031524Y011031D02*
X034407Y011031D01*
X034367Y010933D02*
X031565Y010933D01*
X031583Y010834D02*
X034349Y010834D01*
X034349Y010736D02*
X031583Y010736D01*
X031547Y010637D02*
X034385Y010637D01*
X034443Y010539D02*
X031489Y010539D01*
X031376Y010440D02*
X034556Y010440D01*
X034982Y010440D02*
X036976Y010440D01*
X036976Y010539D02*
X035095Y010539D01*
X035153Y010637D02*
X036976Y010637D01*
X036879Y010736D02*
X035189Y010736D01*
X036796Y010243D02*
X030861Y010243D01*
X030911Y010342D02*
X036894Y010342D01*
X037436Y010440D02*
X037936Y010440D01*
X038007Y010551D02*
X038166Y010551D01*
X038166Y010991D01*
X038246Y010991D01*
X038246Y011071D01*
X038686Y011071D01*
X038686Y011230D01*
X038405Y011511D01*
X038246Y011511D01*
X038246Y011071D01*
X038166Y011071D01*
X038166Y010991D01*
X037726Y010991D01*
X037726Y010833D01*
X038007Y010551D01*
X037921Y010637D02*
X037436Y010637D01*
X037436Y010539D02*
X040976Y010539D01*
X040976Y010637D02*
X040491Y010637D01*
X040405Y010551D02*
X040686Y010833D01*
X040686Y010991D01*
X040246Y010991D01*
X040246Y010551D01*
X040405Y010551D01*
X040405Y010511D02*
X040246Y010511D01*
X040246Y010071D01*
X040686Y010071D01*
X040686Y010230D01*
X040405Y010511D01*
X040475Y010440D02*
X040976Y010440D01*
X040894Y010342D02*
X040574Y010342D01*
X040672Y010243D02*
X040817Y010243D01*
X040777Y010145D02*
X040686Y010145D01*
X040766Y010046D02*
X040246Y010046D01*
X040246Y010071D02*
X040246Y009991D01*
X040686Y009991D01*
X040686Y009833D01*
X040405Y009551D01*
X040246Y009551D01*
X040246Y009991D01*
X040166Y009991D01*
X040166Y009551D01*
X040007Y009551D01*
X039726Y009833D01*
X039726Y009991D01*
X040166Y009991D01*
X040166Y010071D01*
X039726Y010071D01*
X039726Y010230D01*
X040007Y010511D01*
X040166Y010511D01*
X040166Y010071D01*
X040246Y010071D01*
X040246Y010145D02*
X040166Y010145D01*
X040166Y010243D02*
X040246Y010243D01*
X040246Y010342D02*
X040166Y010342D01*
X040166Y010440D02*
X040246Y010440D01*
X040166Y010551D02*
X040166Y010991D01*
X039726Y010991D01*
X039726Y010833D01*
X040007Y010551D01*
X040166Y010551D01*
X040166Y010637D02*
X040246Y010637D01*
X040246Y010736D02*
X040166Y010736D01*
X040166Y010834D02*
X040246Y010834D01*
X040246Y010933D02*
X040166Y010933D01*
X040246Y011031D02*
X040766Y011031D01*
X040766Y010933D02*
X040686Y010933D01*
X040686Y010834D02*
X040780Y010834D01*
X040879Y010736D02*
X040589Y010736D01*
X039921Y010637D02*
X039491Y010637D01*
X039589Y010736D02*
X039822Y010736D01*
X039726Y010834D02*
X039686Y010834D01*
X039686Y010933D02*
X039726Y010933D01*
X039726Y011130D02*
X039686Y011130D01*
X039686Y011228D02*
X039726Y011228D01*
X039823Y011327D02*
X039589Y011327D01*
X039490Y011425D02*
X039921Y011425D01*
X039246Y011425D02*
X039166Y011425D01*
X039166Y011511D02*
X039007Y011511D01*
X038726Y011230D01*
X038726Y011071D01*
X039166Y011071D01*
X039166Y011511D01*
X039166Y011327D02*
X039246Y011327D01*
X039246Y011228D02*
X039166Y011228D01*
X039166Y011130D02*
X039246Y011130D01*
X039166Y011031D02*
X038246Y011031D01*
X038246Y010991D02*
X038686Y010991D01*
X038686Y010833D01*
X038405Y010551D01*
X038246Y010551D01*
X038246Y010991D01*
X038246Y010933D02*
X038166Y010933D01*
X038166Y011031D02*
X037646Y011031D01*
X037726Y011071D02*
X038166Y011071D01*
X038166Y011511D01*
X038007Y011511D01*
X037726Y011230D01*
X037726Y011071D01*
X037726Y011130D02*
X037646Y011130D01*
X037631Y011228D02*
X037726Y011228D01*
X037823Y011327D02*
X037532Y011327D01*
X037434Y011425D02*
X037921Y011425D01*
X038166Y011425D02*
X038246Y011425D01*
X038246Y011327D02*
X038166Y011327D01*
X038166Y011228D02*
X038246Y011228D01*
X038246Y011130D02*
X038166Y011130D01*
X037726Y010933D02*
X037646Y010933D01*
X037631Y010834D02*
X037726Y010834D01*
X037822Y010736D02*
X037533Y010736D01*
X038166Y010736D02*
X038246Y010736D01*
X038246Y010834D02*
X038166Y010834D01*
X038166Y010637D02*
X038246Y010637D01*
X038246Y010440D02*
X038166Y010440D01*
X038166Y010342D02*
X038246Y010342D01*
X038246Y010243D02*
X038166Y010243D01*
X038166Y010145D02*
X038246Y010145D01*
X038246Y009991D02*
X038686Y009991D01*
X038686Y009833D01*
X038405Y009551D01*
X038246Y009551D01*
X038246Y009991D01*
X038246Y009948D02*
X038166Y009948D01*
X038166Y009849D02*
X038246Y009849D01*
X038246Y009751D02*
X038166Y009751D01*
X038166Y009652D02*
X038246Y009652D01*
X038246Y009554D02*
X038166Y009554D01*
X038407Y009554D02*
X039004Y009554D01*
X039007Y009551D02*
X039166Y009551D01*
X039166Y009991D01*
X038726Y009991D01*
X038726Y009833D01*
X039007Y009551D01*
X038906Y009652D02*
X038506Y009652D01*
X038604Y009751D02*
X038807Y009751D01*
X038726Y009849D02*
X038686Y009849D01*
X038686Y009948D02*
X038726Y009948D01*
X038726Y010145D02*
X038686Y010145D01*
X038672Y010243D02*
X038739Y010243D01*
X038838Y010342D02*
X038574Y010342D01*
X038475Y010440D02*
X038936Y010440D01*
X038921Y010637D02*
X038491Y010637D01*
X038589Y010736D02*
X038822Y010736D01*
X038726Y010834D02*
X038686Y010834D01*
X038686Y010933D02*
X038726Y010933D01*
X038726Y011130D02*
X038686Y011130D01*
X038686Y011228D02*
X038726Y011228D01*
X038823Y011327D02*
X038589Y011327D01*
X038490Y011425D02*
X038921Y011425D01*
X040546Y012016D02*
X043347Y012016D01*
X043347Y011918D02*
X040644Y011918D01*
X040743Y011819D02*
X043347Y011819D01*
X043347Y011721D02*
X040841Y011721D01*
X040940Y011622D02*
X043347Y011622D01*
X043347Y011524D02*
X041038Y011524D01*
X041434Y011425D02*
X043347Y011425D01*
X043347Y011327D02*
X041532Y011327D01*
X041631Y011228D02*
X043347Y011228D01*
X043347Y011130D02*
X041646Y011130D01*
X041646Y011031D02*
X043347Y011031D01*
X043347Y010933D02*
X041646Y010933D01*
X041631Y010834D02*
X043347Y010834D01*
X043347Y010736D02*
X041533Y010736D01*
X041436Y010637D02*
X043347Y010637D01*
X043347Y010539D02*
X041436Y010539D01*
X041436Y010440D02*
X043347Y010440D01*
X043347Y010342D02*
X041517Y010342D01*
X041594Y010243D02*
X043347Y010243D01*
X043347Y010145D02*
X041635Y010145D01*
X041646Y010046D02*
X043347Y010046D01*
X043347Y009948D02*
X041646Y009948D01*
X041607Y009849D02*
X043347Y009849D01*
X043347Y009751D02*
X041548Y009751D01*
X041441Y009652D02*
X043347Y009652D01*
X043347Y009554D02*
X040407Y009554D01*
X040506Y009652D02*
X040971Y009652D01*
X040864Y009751D02*
X040604Y009751D01*
X040686Y009849D02*
X040805Y009849D01*
X040766Y009948D02*
X040686Y009948D01*
X040246Y009948D02*
X040166Y009948D01*
X040166Y010046D02*
X039246Y010046D01*
X039246Y009991D02*
X039686Y009991D01*
X039686Y009833D01*
X039405Y009551D01*
X039246Y009551D01*
X039246Y009991D01*
X039246Y009948D02*
X039166Y009948D01*
X039166Y009849D02*
X039246Y009849D01*
X039246Y009751D02*
X039166Y009751D01*
X039166Y009652D02*
X039246Y009652D01*
X039246Y009554D02*
X039166Y009554D01*
X039407Y009554D02*
X040004Y009554D01*
X039906Y009652D02*
X039506Y009652D01*
X039604Y009751D02*
X039807Y009751D01*
X039726Y009849D02*
X039686Y009849D01*
X039686Y009948D02*
X039726Y009948D01*
X039726Y010145D02*
X039686Y010145D01*
X039672Y010243D02*
X039739Y010243D01*
X039838Y010342D02*
X039574Y010342D01*
X039475Y010440D02*
X039936Y010440D01*
X040686Y011130D02*
X040766Y011130D01*
X043347Y012115D02*
X035039Y012115D01*
X030950Y010440D02*
X030949Y010440D01*
X030763Y010145D02*
X036766Y010145D01*
X036766Y010046D02*
X030311Y010046D01*
X030212Y009948D02*
X036766Y009948D01*
X036766Y009849D02*
X032278Y009849D01*
X032376Y009751D02*
X036864Y009751D01*
X036962Y009652D02*
X032380Y009652D01*
X032377Y009554D02*
X034524Y009554D01*
X034418Y009455D02*
X032279Y009455D01*
X032022Y009849D02*
X030114Y009849D01*
X030166Y009455D02*
X027222Y009455D01*
X027277Y009357D02*
X030111Y009357D01*
X030497Y009193D02*
X028194Y009193D01*
X028033Y009258D02*
X027311Y009258D01*
X027311Y009160D02*
X027935Y009160D01*
X027836Y009061D02*
X027291Y009061D01*
X027250Y008963D02*
X027738Y008963D01*
X027639Y008864D02*
X027156Y008864D01*
X027442Y008667D02*
X026554Y008667D01*
X026599Y008766D02*
X027541Y008766D01*
X027993Y008766D02*
X031150Y008766D01*
X030877Y008864D02*
X030763Y008864D01*
X030231Y008864D02*
X028092Y008864D01*
X028190Y008963D02*
X030138Y008963D01*
X030497Y009193D02*
X031143Y009193D01*
X034749Y009193D02*
X030970Y005413D01*
X028930Y005413D01*
X029345Y005220D02*
X029920Y005220D01*
X029821Y005121D02*
X029284Y005121D01*
X029182Y005023D02*
X029723Y005023D01*
X030152Y004802D02*
X030172Y004822D01*
X031150Y004822D01*
X031150Y004479D01*
X031636Y004479D01*
X031636Y004379D01*
X031150Y004379D01*
X031150Y004023D01*
X031160Y003985D01*
X031180Y003951D01*
X031208Y003923D01*
X031242Y003903D01*
X031280Y003893D01*
X031636Y003893D01*
X031636Y004379D01*
X031736Y004379D01*
X031736Y003893D01*
X032092Y003893D01*
X032130Y003903D01*
X032164Y003923D01*
X032192Y003951D01*
X032212Y003985D01*
X032222Y004023D01*
X032222Y004379D01*
X031736Y004379D01*
X031736Y004479D01*
X032222Y004479D01*
X032222Y004822D01*
X032415Y004822D01*
X032695Y004542D01*
X034587Y004542D01*
X034554Y004509D01*
X034490Y004355D01*
X034490Y004215D01*
X034407Y004298D01*
X034059Y004298D01*
X033813Y004052D01*
X033813Y003704D01*
X034059Y003458D01*
X034407Y003458D01*
X034597Y003648D01*
X034612Y003648D01*
X034747Y003783D01*
X034819Y003855D01*
X034827Y003851D01*
X034994Y003851D01*
X035148Y003915D01*
X035235Y004002D01*
X035270Y003967D01*
X035270Y003559D01*
X035261Y003571D01*
X035210Y003622D01*
X035152Y003665D01*
X035087Y003698D01*
X035018Y003720D01*
X034947Y003731D01*
X034940Y003731D01*
X034940Y003301D01*
X034880Y003301D01*
X034880Y003241D01*
X034940Y003241D01*
X034940Y002811D01*
X034947Y002811D01*
X035018Y002823D01*
X035087Y002845D01*
X035152Y002878D01*
X035210Y002921D01*
X035261Y002972D01*
X035270Y002984D01*
X035270Y002501D01*
X035267Y002509D01*
X035148Y002628D01*
X034994Y002691D01*
X034827Y002691D01*
X034673Y002628D01*
X034554Y002509D01*
X034528Y002445D01*
X034301Y002672D01*
X033953Y002672D01*
X033946Y002665D01*
X033761Y002845D01*
X033791Y002918D01*
X033791Y003085D01*
X033727Y003240D01*
X033609Y003358D01*
X033455Y003422D01*
X033428Y003422D01*
X033693Y003687D01*
X033693Y003848D01*
X033263Y003848D01*
X033263Y003418D01*
X033278Y003418D01*
X033133Y003358D01*
X033015Y003240D01*
X032951Y003085D01*
X032951Y002918D01*
X033015Y002764D01*
X033133Y002646D01*
X033288Y002582D01*
X033455Y002582D01*
X033538Y002616D01*
X033720Y002439D01*
X033707Y002426D01*
X033707Y002295D01*
X033609Y002393D01*
X033455Y002457D01*
X033288Y002457D01*
X033133Y002393D01*
X033015Y002275D01*
X032951Y002121D01*
X032951Y002077D01*
X030460Y004568D01*
X030460Y004667D01*
X030325Y004802D01*
X030152Y004802D01*
X030400Y004727D02*
X031150Y004727D01*
X031150Y004629D02*
X030460Y004629D01*
X030498Y004530D02*
X031150Y004530D01*
X031636Y004432D02*
X030596Y004432D01*
X030695Y004333D02*
X031150Y004333D01*
X031150Y004235D02*
X030793Y004235D01*
X030892Y004136D02*
X031150Y004136D01*
X031150Y004038D02*
X030990Y004038D01*
X031089Y003939D02*
X031191Y003939D01*
X031187Y003841D02*
X032773Y003841D01*
X032773Y003848D02*
X032773Y003687D01*
X033043Y003418D01*
X033203Y003418D01*
X033203Y003848D01*
X032773Y003848D01*
X032773Y003908D02*
X033203Y003908D01*
X033203Y003848D01*
X033263Y003848D01*
X033263Y003908D01*
X033203Y003908D01*
X033203Y004338D01*
X033043Y004338D01*
X032773Y004068D01*
X032773Y003908D01*
X032773Y003939D02*
X032181Y003939D01*
X032222Y004038D02*
X032773Y004038D01*
X032841Y004136D02*
X032222Y004136D01*
X032222Y004235D02*
X032940Y004235D01*
X033038Y004333D02*
X032222Y004333D01*
X031736Y004333D02*
X031636Y004333D01*
X031636Y004235D02*
X031736Y004235D01*
X031736Y004136D02*
X031636Y004136D01*
X031636Y004038D02*
X031736Y004038D01*
X031736Y003939D02*
X031636Y003939D01*
X031286Y003742D02*
X032773Y003742D01*
X032817Y003644D02*
X031384Y003644D01*
X031483Y003545D02*
X032915Y003545D01*
X033014Y003447D02*
X031581Y003447D01*
X031680Y003348D02*
X033124Y003348D01*
X033203Y003447D02*
X033263Y003447D01*
X033263Y003545D02*
X033203Y003545D01*
X033203Y003644D02*
X033263Y003644D01*
X033263Y003742D02*
X033203Y003742D01*
X033203Y003841D02*
X033263Y003841D01*
X033263Y003908D02*
X033693Y003908D01*
X033693Y004068D01*
X033424Y004338D01*
X033263Y004338D01*
X033263Y003908D01*
X033263Y003939D02*
X033203Y003939D01*
X033203Y004038D02*
X033263Y004038D01*
X033263Y004136D02*
X033203Y004136D01*
X033203Y004235D02*
X033263Y004235D01*
X033263Y004333D02*
X033203Y004333D01*
X033428Y004333D02*
X034490Y004333D01*
X034490Y004235D02*
X034470Y004235D01*
X034522Y004432D02*
X031736Y004432D01*
X032222Y004530D02*
X034575Y004530D01*
X033997Y004235D02*
X033527Y004235D01*
X033625Y004136D02*
X033898Y004136D01*
X033813Y004038D02*
X033693Y004038D01*
X033693Y003939D02*
X033813Y003939D01*
X033813Y003841D02*
X033693Y003841D01*
X033693Y003742D02*
X033813Y003742D01*
X033873Y003644D02*
X033650Y003644D01*
X033552Y003545D02*
X033972Y003545D01*
X034462Y003379D02*
X034484Y003448D01*
X034517Y003513D01*
X034560Y003571D01*
X034611Y003622D01*
X034669Y003665D01*
X034734Y003698D01*
X034803Y003720D01*
X034874Y003731D01*
X034880Y003731D01*
X034880Y003301D01*
X034450Y003301D01*
X034450Y003308D01*
X034462Y003379D01*
X034457Y003348D02*
X033618Y003348D01*
X033717Y003250D02*
X034880Y003250D01*
X034880Y003241D02*
X034450Y003241D01*
X034450Y003235D01*
X034462Y003164D01*
X034484Y003095D01*
X034517Y003030D01*
X034560Y002972D01*
X034611Y002921D01*
X034669Y002878D01*
X034734Y002845D01*
X034803Y002823D01*
X034874Y002811D01*
X034880Y002811D01*
X034880Y003241D01*
X034880Y003151D02*
X034940Y003151D01*
X034940Y003053D02*
X034880Y003053D01*
X034880Y002954D02*
X034940Y002954D01*
X034940Y002856D02*
X034880Y002856D01*
X034713Y002856D02*
X033765Y002856D01*
X033791Y002954D02*
X034577Y002954D01*
X034506Y003053D02*
X033791Y003053D01*
X033764Y003151D02*
X034466Y003151D01*
X034880Y003348D02*
X034940Y003348D01*
X034940Y003447D02*
X034880Y003447D01*
X034880Y003545D02*
X034940Y003545D01*
X034940Y003644D02*
X034880Y003644D01*
X034747Y003783D02*
X034747Y003783D01*
X034707Y003742D02*
X035270Y003742D01*
X035270Y003644D02*
X035180Y003644D01*
X035590Y003644D02*
X037712Y003644D01*
X037673Y003628D02*
X037554Y003509D01*
X037490Y003355D01*
X037490Y003188D01*
X037554Y003034D01*
X037673Y002915D01*
X037827Y002851D01*
X037994Y002851D01*
X038148Y002915D01*
X038267Y003034D01*
X038330Y003188D01*
X038330Y003355D01*
X038267Y003509D01*
X038148Y003628D01*
X037994Y003691D01*
X037827Y003691D01*
X037673Y003628D01*
X037590Y003545D02*
X035590Y003545D01*
X035590Y003447D02*
X037529Y003447D01*
X037490Y003348D02*
X035590Y003348D01*
X035590Y003250D02*
X037490Y003250D01*
X037506Y003151D02*
X035590Y003151D01*
X035590Y003053D02*
X037546Y003053D01*
X037634Y002954D02*
X035590Y002954D01*
X035590Y002856D02*
X037816Y002856D01*
X037827Y002691D02*
X037673Y002628D01*
X037554Y002509D01*
X037490Y002355D01*
X037490Y002188D01*
X037554Y002034D01*
X037673Y001915D01*
X037750Y001883D01*
X037750Y001691D01*
X037555Y001691D01*
X037490Y001627D01*
X037490Y000972D01*
X035436Y000972D01*
X035298Y001110D01*
X035330Y001188D01*
X035330Y001355D01*
X035267Y001509D01*
X035148Y001628D01*
X035123Y001638D01*
X035150Y001666D01*
X035590Y002106D01*
X035590Y003967D01*
X035660Y004037D01*
X035660Y004137D01*
X035755Y004041D01*
X037551Y004041D01*
X037554Y004034D01*
X037673Y003915D01*
X037827Y003851D01*
X037994Y003851D01*
X038002Y003855D01*
X038209Y003648D01*
X038224Y003648D01*
X038414Y003458D01*
X038762Y003458D01*
X038990Y003686D01*
X038990Y003577D01*
X038072Y002659D01*
X037994Y002691D01*
X037827Y002691D01*
X037748Y002659D02*
X035590Y002659D01*
X035590Y002757D02*
X038170Y002757D01*
X038269Y002856D02*
X038005Y002856D01*
X038187Y002954D02*
X038367Y002954D01*
X038275Y003053D02*
X038466Y003053D01*
X038564Y003151D02*
X038315Y003151D01*
X038330Y003250D02*
X038663Y003250D01*
X038761Y003348D02*
X038330Y003348D01*
X038292Y003447D02*
X038860Y003447D01*
X038849Y003545D02*
X038958Y003545D01*
X038948Y003644D02*
X038990Y003644D01*
X039150Y003511D02*
X039150Y005036D01*
X038773Y005413D01*
X038316Y005417D02*
X038305Y005417D01*
X038321Y005515D02*
X038260Y005515D01*
X038162Y005614D02*
X038361Y005614D01*
X038426Y005712D02*
X034578Y005712D01*
X034659Y005614D02*
X034479Y005614D01*
X034560Y005515D02*
X034381Y005515D01*
X034282Y005417D02*
X034516Y005417D01*
X034490Y005318D02*
X034184Y005318D01*
X034101Y005462D02*
X031520Y005462D01*
X031495Y005712D02*
X034125Y005712D01*
X034224Y005811D02*
X031594Y005811D01*
X031692Y005909D02*
X034322Y005909D01*
X034421Y006008D02*
X031791Y006008D01*
X031141Y005811D02*
X029164Y005811D01*
X029277Y005712D02*
X031043Y005712D01*
X030944Y005614D02*
X029341Y005614D01*
X032222Y004727D02*
X032509Y004727D01*
X032608Y004629D02*
X032222Y004629D01*
X032864Y005023D02*
X034565Y005023D01*
X034518Y005121D02*
X032766Y005121D01*
X032667Y005220D02*
X034490Y005220D01*
X034101Y005462D02*
X034910Y006271D01*
X034910Y007271D01*
X035241Y006008D02*
X037580Y006008D01*
X037687Y005909D02*
X035134Y005909D01*
X034676Y005811D02*
X038539Y005811D01*
X039026Y006008D02*
X043347Y006008D01*
X043347Y006106D02*
X039128Y006106D01*
X039187Y006205D02*
X043347Y006205D01*
X043347Y006303D02*
X039228Y006303D01*
X039230Y006402D02*
X043347Y006402D01*
X043347Y006500D02*
X039225Y006500D01*
X039184Y006599D02*
X043347Y006599D01*
X043347Y006697D02*
X039119Y006697D01*
X039004Y006796D02*
X043347Y006796D01*
X043347Y006894D02*
X038872Y006894D01*
X038821Y006894D02*
X038724Y006894D01*
X038724Y006993D02*
X038821Y006993D01*
X038821Y007091D02*
X038724Y007091D01*
X038724Y007190D02*
X038821Y007190D01*
X038821Y007288D02*
X038724Y007288D01*
X039176Y007091D02*
X043347Y007091D01*
X043347Y006993D02*
X039083Y006993D01*
X039233Y007190D02*
X043347Y007190D01*
X043347Y007288D02*
X039261Y007288D01*
X038821Y007584D02*
X038724Y007584D01*
X038724Y007682D02*
X038821Y007682D01*
X038821Y007781D02*
X038724Y007781D01*
X040166Y009554D02*
X040246Y009554D01*
X040246Y009652D02*
X040166Y009652D01*
X040166Y009751D02*
X040246Y009751D01*
X040246Y009849D02*
X040166Y009849D01*
X037838Y010342D02*
X037517Y010342D01*
X037616Y010243D02*
X037739Y010243D01*
X027941Y011327D02*
X027738Y011327D01*
X027842Y011228D02*
X027035Y011228D01*
X027133Y011130D02*
X027744Y011130D01*
X027645Y011031D02*
X027185Y011031D01*
X027185Y010933D02*
X027193Y010933D01*
X027084Y011524D02*
X026956Y011524D01*
X022772Y010145D02*
X021392Y010145D01*
X021490Y010243D02*
X022353Y010243D01*
X022255Y010342D02*
X021589Y010342D01*
X021687Y010440D02*
X021891Y010440D01*
X021787Y010539D02*
X021786Y010539D01*
X020953Y010243D02*
X018749Y010243D01*
X018847Y010145D02*
X020854Y010145D01*
X020756Y010046D02*
X018946Y010046D01*
X018972Y009948D02*
X019028Y009948D01*
X019506Y009948D02*
X020657Y009948D01*
X020559Y009849D02*
X019604Y009849D01*
X019656Y009751D02*
X020460Y009751D01*
X020362Y009652D02*
X019687Y009652D01*
X019687Y009554D02*
X020263Y009554D01*
X020165Y009455D02*
X019665Y009455D01*
X019624Y009357D02*
X020066Y009357D01*
X019968Y009258D02*
X019527Y009258D01*
X019771Y009061D02*
X018051Y009061D01*
X018051Y009160D02*
X019869Y009160D01*
X019672Y008963D02*
X018010Y008963D01*
X017944Y008864D02*
X019574Y008864D01*
X019475Y008766D02*
X017812Y008766D01*
X017450Y008766D02*
X016828Y008766D01*
X016960Y008864D02*
X017318Y008864D01*
X017252Y008963D02*
X017026Y008963D01*
X017066Y009061D02*
X017211Y009061D01*
X017211Y009160D02*
X017067Y009160D01*
X017054Y009258D02*
X017223Y009258D01*
X017264Y009357D02*
X017084Y009357D01*
X017150Y009455D02*
X017347Y009455D01*
X017251Y009554D02*
X017150Y009554D01*
X017150Y009652D02*
X017152Y009652D01*
X016990Y009489D02*
X016990Y011284D01*
X016905Y011425D02*
X014347Y011425D01*
X014311Y011524D02*
X017004Y011524D01*
X017102Y011622D02*
X014259Y011622D01*
X014188Y011721D02*
X017132Y011721D01*
X017132Y011819D02*
X014088Y011819D01*
X013939Y011918D02*
X017132Y011918D01*
X017132Y012016D02*
X000340Y012016D01*
X000340Y011918D02*
X002189Y011918D01*
X002196Y011922D02*
X002105Y011870D01*
X002022Y011805D01*
X001947Y011731D01*
X001883Y011648D01*
X001831Y011556D01*
X001790Y011459D01*
X001763Y011358D01*
X001749Y011253D01*
X001749Y011251D01*
X002502Y011251D01*
X002502Y012003D01*
X002500Y012003D01*
X002395Y011990D01*
X002294Y011962D01*
X002196Y011922D01*
X002040Y011819D02*
X000340Y011819D01*
X000340Y011721D02*
X001940Y011721D01*
X001869Y011622D02*
X000340Y011622D01*
X000340Y011524D02*
X001817Y011524D01*
X001781Y011425D02*
X000340Y011425D01*
X000340Y011327D02*
X001759Y011327D01*
X001749Y011151D02*
X001749Y011148D01*
X001763Y011044D01*
X001790Y010942D01*
X001831Y010845D01*
X001883Y010754D01*
X001947Y010670D01*
X002022Y010596D01*
X002105Y010532D01*
X002196Y010479D01*
X002294Y010439D01*
X002395Y010412D01*
X002500Y010398D01*
X002502Y010398D01*
X002502Y011151D01*
X001749Y011151D01*
X001752Y011130D02*
X000340Y011130D01*
X000340Y011228D02*
X002502Y011228D01*
X002502Y011251D02*
X002502Y011151D01*
X002602Y011151D01*
X002602Y011251D01*
X002502Y011251D01*
X002502Y011327D02*
X002602Y011327D01*
X002602Y011251D02*
X002602Y012003D01*
X002605Y012003D01*
X002709Y011990D01*
X002811Y011962D01*
X002908Y011922D01*
X002999Y011870D01*
X003083Y011805D01*
X003157Y011731D01*
X003221Y011648D01*
X003274Y011556D01*
X003314Y011459D01*
X003341Y011358D01*
X003355Y011253D01*
X003355Y011251D01*
X002602Y011251D01*
X002602Y011228D02*
X008014Y011228D01*
X008014Y011327D02*
X008114Y011327D01*
X008114Y011251D02*
X008114Y012003D01*
X008117Y012003D01*
X008221Y011990D01*
X008323Y011962D01*
X008420Y011922D01*
X008511Y011870D01*
X008594Y011805D01*
X008669Y011731D01*
X008733Y011648D01*
X008786Y011556D01*
X008826Y011459D01*
X008853Y011358D01*
X008867Y011253D01*
X008867Y011251D01*
X008114Y011251D01*
X008114Y011425D02*
X008014Y011425D01*
X008014Y011524D02*
X008114Y011524D01*
X008114Y011622D02*
X008014Y011622D01*
X008014Y011721D02*
X008114Y011721D01*
X008114Y011819D02*
X008014Y011819D01*
X008014Y011918D02*
X008114Y011918D01*
X008427Y011918D02*
X013213Y011918D01*
X013064Y011819D02*
X008576Y011819D01*
X008677Y011721D02*
X012963Y011721D01*
X012892Y011622D02*
X008747Y011622D01*
X008799Y011524D02*
X012841Y011524D01*
X012805Y011425D02*
X008835Y011425D01*
X008857Y011327D02*
X012783Y011327D01*
X013526Y011425D02*
X013626Y011425D01*
X013626Y011524D02*
X013526Y011524D01*
X013526Y011622D02*
X013626Y011622D01*
X013626Y011721D02*
X013526Y011721D01*
X013526Y011819D02*
X013626Y011819D01*
X013626Y011918D02*
X013526Y011918D01*
X012775Y011130D02*
X008864Y011130D01*
X008850Y011031D02*
X012790Y011031D01*
X012818Y010933D02*
X008822Y010933D01*
X008780Y010834D02*
X012860Y010834D01*
X012921Y010736D02*
X008719Y010736D01*
X008636Y010637D02*
X013004Y010637D01*
X013119Y010539D02*
X008520Y010539D01*
X007801Y010440D02*
X002815Y010440D01*
X002811Y010439D02*
X002908Y010479D01*
X002999Y010532D01*
X003083Y010596D01*
X003157Y010670D01*
X003221Y010754D01*
X003274Y010845D01*
X003314Y010942D01*
X003341Y011044D01*
X003355Y011148D01*
X003355Y011151D01*
X002602Y011151D01*
X002602Y010398D01*
X002605Y010398D01*
X002709Y010412D01*
X002811Y010439D01*
X002602Y010440D02*
X002502Y010440D01*
X002502Y010539D02*
X002602Y010539D01*
X002602Y010637D02*
X002502Y010637D01*
X002502Y010736D02*
X002602Y010736D01*
X002602Y010834D02*
X002502Y010834D01*
X002502Y010933D02*
X002602Y010933D01*
X002602Y011031D02*
X002502Y011031D01*
X002502Y011130D02*
X002602Y011130D01*
X001794Y010933D02*
X000340Y010933D01*
X000340Y011031D02*
X001766Y011031D01*
X001837Y010834D02*
X000340Y010834D01*
X000340Y010736D02*
X001897Y010736D01*
X001980Y010637D02*
X000340Y010637D01*
X000340Y010539D02*
X002096Y010539D01*
X002290Y010440D02*
X000340Y010440D01*
X003009Y010539D02*
X007608Y010539D01*
X007492Y010637D02*
X003124Y010637D01*
X003208Y010736D02*
X007409Y010736D01*
X007348Y010834D02*
X003268Y010834D01*
X003310Y010933D02*
X007306Y010933D01*
X007278Y011031D02*
X003338Y011031D01*
X003353Y011130D02*
X007264Y011130D01*
X007271Y011327D02*
X003345Y011327D01*
X003323Y011425D02*
X007293Y011425D01*
X007329Y011524D02*
X003287Y011524D01*
X003236Y011622D02*
X007381Y011622D01*
X007451Y011721D02*
X003165Y011721D01*
X003064Y011819D02*
X007552Y011819D01*
X007701Y011918D02*
X002915Y011918D01*
X002602Y011918D02*
X002502Y011918D01*
X002502Y011819D02*
X002602Y011819D01*
X002602Y011721D02*
X002502Y011721D01*
X002502Y011622D02*
X002602Y011622D01*
X002602Y011524D02*
X002502Y011524D01*
X002502Y011425D02*
X002602Y011425D01*
X000340Y012115D02*
X017227Y012115D01*
X017150Y010243D02*
X017355Y010243D01*
X017257Y010145D02*
X017150Y010145D01*
X017150Y010046D02*
X017158Y010046D01*
X016830Y010046D02*
X015792Y010046D01*
X015972Y009948D02*
X016830Y009948D01*
X016830Y009849D02*
X016070Y009849D01*
X016154Y009751D02*
X016830Y009751D01*
X016830Y009652D02*
X016195Y009652D01*
X016236Y009554D02*
X016535Y009554D01*
X016363Y009455D02*
X016258Y009455D01*
X016258Y009357D02*
X016280Y009357D01*
X016647Y009145D02*
X016990Y009489D01*
X016829Y009554D02*
X016758Y009554D01*
X017552Y009846D02*
X017552Y009224D01*
X017631Y009145D01*
X018039Y009258D02*
X019007Y009258D01*
X018910Y009357D02*
X017998Y009357D01*
X017915Y009455D02*
X018349Y009455D01*
X018251Y009554D02*
X017854Y009554D01*
X017952Y009652D02*
X018152Y009652D01*
X018552Y009846D02*
X017552Y009846D01*
X017847Y010145D02*
X018257Y010145D01*
X018355Y010243D02*
X017749Y010243D01*
X017946Y010046D02*
X018158Y010046D01*
X018755Y009455D02*
X018869Y009455D01*
X019377Y008667D02*
X015824Y008667D01*
X015985Y008766D02*
X016465Y008766D01*
X016334Y008864D02*
X016084Y008864D01*
X016160Y008963D02*
X016268Y008963D01*
X016227Y009061D02*
X016200Y009061D01*
X015186Y008667D02*
X012596Y008667D01*
X012703Y008712D02*
X012426Y008597D01*
X012127Y008597D01*
X011850Y008712D01*
X011638Y008924D01*
X011524Y009200D01*
X011524Y009500D01*
X011638Y009777D01*
X011850Y009989D01*
X012127Y010103D01*
X012426Y010103D01*
X012703Y009989D01*
X012915Y009777D01*
X013030Y009500D01*
X013030Y009200D01*
X012915Y008924D01*
X012703Y008712D01*
X012757Y008766D02*
X015024Y008766D01*
X014926Y008864D02*
X012856Y008864D01*
X012931Y008963D02*
X014850Y008963D01*
X014810Y009061D02*
X012972Y009061D01*
X013013Y009160D02*
X014769Y009160D01*
X014752Y009258D02*
X013030Y009258D01*
X013030Y009357D02*
X014752Y009357D01*
X014752Y009455D02*
X013030Y009455D01*
X013007Y009554D02*
X014774Y009554D01*
X014815Y009652D02*
X012966Y009652D01*
X012926Y009751D02*
X014856Y009751D01*
X014939Y009849D02*
X012842Y009849D01*
X012744Y009948D02*
X015038Y009948D01*
X015218Y010046D02*
X012563Y010046D01*
X011990Y010046D02*
X010280Y010046D01*
X010460Y009948D02*
X011810Y009948D01*
X011711Y009849D02*
X010559Y009849D01*
X010642Y009751D02*
X011628Y009751D01*
X011587Y009652D02*
X010683Y009652D01*
X010724Y009554D02*
X011546Y009554D01*
X011524Y009455D02*
X010746Y009455D01*
X010746Y009357D02*
X011524Y009357D01*
X011524Y009258D02*
X010746Y009258D01*
X010729Y009160D02*
X011540Y009160D01*
X011581Y009061D02*
X010688Y009061D01*
X010648Y008963D02*
X011622Y008963D01*
X011698Y008864D02*
X010572Y008864D01*
X010474Y008766D02*
X011796Y008766D01*
X011957Y008667D02*
X010312Y008667D01*
X009674Y008667D02*
X009537Y008667D01*
X009510Y008569D02*
X019278Y008569D01*
X019180Y008470D02*
X009510Y008470D01*
X009510Y008372D02*
X019081Y008372D01*
X018983Y008273D02*
X009510Y008273D01*
X009510Y008175D02*
X018884Y008175D01*
X018786Y008076D02*
X009510Y008076D01*
X009510Y007978D02*
X013290Y007978D01*
X013169Y007879D02*
X009510Y007879D01*
X009510Y007781D02*
X013095Y007781D01*
X013051Y007682D02*
X009510Y007682D01*
X009510Y007584D02*
X013026Y007584D01*
X013526Y007584D02*
X013626Y007584D01*
X013626Y007550D02*
X013626Y008055D01*
X013706Y008042D01*
X013789Y008015D01*
X013867Y007975D01*
X013938Y007924D01*
X014000Y007862D01*
X014051Y007791D01*
X014091Y007713D01*
X014118Y007630D01*
X014131Y007550D01*
X013626Y007550D01*
X013626Y007485D02*
X018195Y007485D01*
X018096Y007387D02*
X014121Y007387D01*
X014092Y007288D02*
X017998Y007288D01*
X017899Y007190D02*
X014038Y007190D01*
X013954Y007091D02*
X017801Y007091D01*
X017702Y006993D02*
X013806Y006993D01*
X014125Y007584D02*
X018293Y007584D01*
X018392Y007682D02*
X014101Y007682D01*
X014056Y007781D02*
X018490Y007781D01*
X018589Y007879D02*
X013982Y007879D01*
X013862Y007978D02*
X018687Y007978D01*
X019039Y007781D02*
X019136Y007781D01*
X019136Y007682D02*
X019039Y007682D01*
X019039Y007584D02*
X019136Y007584D01*
X019136Y007485D02*
X019039Y007485D01*
X019039Y007387D02*
X018634Y007387D01*
X018599Y007288D02*
X018535Y007288D01*
X018628Y007190D02*
X018437Y007190D01*
X018338Y007091D02*
X018684Y007091D01*
X018777Y006993D02*
X018240Y006993D01*
X019039Y006993D02*
X019136Y006993D01*
X019136Y007091D02*
X019039Y007091D01*
X019039Y007190D02*
X019136Y007190D01*
X019136Y007288D02*
X019039Y007288D01*
X019136Y007387D02*
X021579Y007387D01*
X021677Y007485D02*
X019574Y007485D01*
X019542Y007584D02*
X021776Y007584D01*
X021874Y007682D02*
X019483Y007682D01*
X019383Y007781D02*
X021973Y007781D01*
X021894Y007879D02*
X021794Y007879D01*
X021794Y007830D02*
X021794Y008316D01*
X021307Y008316D01*
X021307Y007960D01*
X021318Y007922D01*
X021337Y007888D01*
X021365Y007860D01*
X021399Y007840D01*
X021438Y007830D01*
X021794Y007830D01*
X021794Y007978D02*
X021894Y007978D01*
X021894Y008076D02*
X021794Y008076D01*
X021794Y008175D02*
X021894Y008175D01*
X021894Y008273D02*
X021794Y008273D01*
X021307Y008273D02*
X019520Y008273D01*
X019422Y008175D02*
X021307Y008175D01*
X021307Y008076D02*
X019323Y008076D01*
X019225Y007978D02*
X021307Y007978D01*
X021345Y007879D02*
X019126Y007879D01*
X019576Y007288D02*
X021480Y007288D01*
X021382Y007190D02*
X019548Y007190D01*
X019491Y007091D02*
X021283Y007091D01*
X021185Y006993D02*
X019398Y006993D01*
X022380Y008273D02*
X022439Y008273D01*
X022849Y008569D02*
X023327Y008569D01*
X023300Y008667D02*
X022948Y008667D01*
X022993Y008766D02*
X023307Y008766D01*
X026455Y008569D02*
X026976Y008569D01*
X026471Y009258D02*
X026453Y009258D01*
X025694Y007190D02*
X025645Y007190D01*
X025645Y007091D02*
X025791Y007091D01*
X025889Y006993D02*
X025630Y006993D01*
X025589Y006894D02*
X025986Y006894D01*
X026083Y006796D02*
X025501Y006796D01*
X027967Y006599D02*
X028519Y006599D01*
X028478Y006500D02*
X028390Y006500D01*
X025061Y004727D02*
X024024Y004727D01*
X025318Y004530D02*
X027484Y004530D01*
X027582Y004432D02*
X025501Y004432D01*
X025589Y004333D02*
X027681Y004333D01*
X027779Y004235D02*
X025630Y004235D01*
X025645Y004136D02*
X027805Y004136D01*
X027805Y004038D02*
X025645Y004038D01*
X025608Y003939D02*
X027843Y003939D01*
X027905Y003841D02*
X025546Y003841D01*
X025426Y003742D02*
X028025Y003742D01*
X028542Y003644D02*
X024908Y003644D01*
X025386Y003545D02*
X028641Y003545D01*
X028486Y003447D02*
X029683Y003447D01*
X029584Y003545D02*
X029164Y003545D01*
X029263Y003644D02*
X029486Y003644D01*
X029443Y003742D02*
X029323Y003742D01*
X029323Y003841D02*
X029443Y003841D01*
X029443Y003939D02*
X029323Y003939D01*
X029388Y004038D02*
X029443Y004038D01*
X029487Y004136D02*
X029511Y004136D01*
X029585Y004235D02*
X029609Y004235D01*
X029684Y004333D02*
X029708Y004333D01*
X029782Y004432D02*
X030045Y004432D01*
X030000Y004530D02*
X029881Y004530D01*
X029979Y004629D02*
X030000Y004629D01*
X030230Y004572D02*
X033230Y001572D01*
X033670Y001572D01*
X033830Y001732D01*
X034990Y001732D01*
X035430Y002172D01*
X035430Y004132D01*
X035660Y004136D02*
X035660Y004136D01*
X035660Y004038D02*
X037553Y004038D01*
X037649Y003939D02*
X035590Y003939D01*
X035590Y003841D02*
X038016Y003841D01*
X038114Y003742D02*
X035590Y003742D01*
X035270Y003841D02*
X034805Y003841D01*
X035172Y003939D02*
X035270Y003939D01*
X034641Y003644D02*
X034593Y003644D01*
X034541Y003545D02*
X034495Y003545D01*
X034484Y003447D02*
X033453Y003447D01*
X033025Y003250D02*
X031778Y003250D01*
X031877Y003151D02*
X032979Y003151D01*
X032951Y003053D02*
X031975Y003053D01*
X032074Y002954D02*
X032951Y002954D01*
X032977Y002856D02*
X032172Y002856D01*
X032271Y002757D02*
X033021Y002757D01*
X033120Y002659D02*
X032369Y002659D01*
X032468Y002560D02*
X033595Y002560D01*
X033696Y002462D02*
X032566Y002462D01*
X032665Y002363D02*
X033103Y002363D01*
X033011Y002265D02*
X032763Y002265D01*
X032862Y002166D02*
X032970Y002166D01*
X032508Y002068D02*
X030185Y002068D01*
X030185Y001969D02*
X032606Y001969D01*
X032705Y001871D02*
X030150Y001871D01*
X030094Y001772D02*
X032803Y001772D01*
X032902Y001674D02*
X029985Y001674D01*
X029925Y001575D02*
X033000Y001575D01*
X033099Y001477D02*
X029925Y001477D01*
X030053Y001378D02*
X033082Y001378D01*
X033002Y001280D02*
X030134Y001280D01*
X030175Y001181D02*
X032961Y001181D01*
X032951Y001083D02*
X030185Y001083D01*
X030183Y000984D02*
X032953Y000984D01*
X032994Y000886D02*
X030142Y000886D01*
X029765Y001073D02*
X029765Y002037D01*
X029698Y002094D01*
X029009Y002094D01*
X028989Y002114D01*
X028225Y002114D01*
X027831Y001969D02*
X027694Y001969D01*
X027805Y002030D02*
X027869Y001876D01*
X027988Y001758D01*
X028142Y001694D01*
X028309Y001694D01*
X028463Y001758D01*
X028581Y001876D01*
X028597Y001913D01*
X028835Y001674D01*
X029183Y001674D01*
X029379Y001871D01*
X029409Y001799D01*
X029527Y001681D01*
X029605Y001649D01*
X029605Y001461D01*
X029527Y001429D01*
X029409Y001311D01*
X029402Y001295D01*
X029183Y001514D01*
X028835Y001514D01*
X028645Y001325D01*
X028645Y001470D01*
X028581Y001534D01*
X027870Y001534D01*
X027805Y001470D01*
X027805Y000812D01*
X025517Y000812D01*
X025581Y000876D01*
X025614Y000954D01*
X026678Y000954D01*
X026772Y001048D01*
X027805Y002081D01*
X027805Y002030D01*
X027805Y002068D02*
X027792Y002068D01*
X027875Y001871D02*
X027595Y001871D01*
X027497Y001772D02*
X027973Y001772D01*
X028478Y001772D02*
X028737Y001772D01*
X028638Y001871D02*
X028576Y001871D01*
X029281Y001772D02*
X029436Y001772D01*
X029545Y001674D02*
X027398Y001674D01*
X027300Y001575D02*
X029605Y001575D01*
X029605Y001477D02*
X029220Y001477D01*
X029319Y001378D02*
X029476Y001378D01*
X029009Y001094D02*
X028245Y001094D01*
X028225Y001114D01*
X027805Y001083D02*
X026807Y001083D01*
X026709Y000984D02*
X027805Y000984D01*
X027805Y000886D02*
X025586Y000886D01*
X025225Y001114D02*
X026612Y001114D01*
X028070Y002572D01*
X029325Y002572D01*
X029685Y002932D01*
X029765Y003002D01*
X030157Y003151D02*
X031424Y003151D01*
X031523Y003053D02*
X030185Y003053D01*
X030185Y002954D02*
X031621Y002954D01*
X031720Y002856D02*
X030159Y002856D01*
X030115Y002757D02*
X031818Y002757D01*
X031917Y002659D02*
X030016Y002659D01*
X029540Y002560D02*
X032015Y002560D01*
X032114Y002462D02*
X029441Y002462D01*
X029497Y002363D02*
X029334Y002363D01*
X030033Y002363D02*
X032212Y002363D01*
X032311Y002265D02*
X030125Y002265D01*
X030166Y002166D02*
X032409Y002166D01*
X033639Y002363D02*
X033707Y002363D01*
X034127Y002266D02*
X034127Y002252D01*
X034891Y002252D01*
X034910Y002271D01*
X034535Y002462D02*
X034511Y002462D01*
X034605Y002560D02*
X034412Y002560D01*
X034314Y002659D02*
X034748Y002659D01*
X035073Y002659D02*
X035270Y002659D01*
X035270Y002757D02*
X033851Y002757D01*
X033371Y003002D02*
X034127Y002266D01*
X035215Y002560D02*
X035270Y002560D01*
X035590Y002560D02*
X037605Y002560D01*
X037535Y002462D02*
X035590Y002462D01*
X035590Y002363D02*
X037494Y002363D01*
X037490Y002265D02*
X035590Y002265D01*
X035590Y002166D02*
X037499Y002166D01*
X037540Y002068D02*
X035552Y002068D01*
X035454Y001969D02*
X037619Y001969D01*
X037750Y001871D02*
X035355Y001871D01*
X035257Y001772D02*
X037750Y001772D01*
X037537Y001674D02*
X035158Y001674D01*
X035200Y001575D02*
X037490Y001575D01*
X037490Y001477D02*
X035280Y001477D01*
X035321Y001378D02*
X037490Y001378D01*
X037490Y001280D02*
X035330Y001280D01*
X035328Y001181D02*
X037490Y001181D01*
X037490Y001083D02*
X035325Y001083D01*
X035424Y000984D02*
X037490Y000984D01*
X038330Y000984D02*
X038565Y000984D01*
X038491Y001083D02*
X038330Y001083D01*
X038330Y001181D02*
X038450Y001181D01*
X038444Y001280D02*
X038330Y001280D01*
X038330Y001378D02*
X038451Y001378D01*
X038492Y001477D02*
X038330Y001477D01*
X038330Y001575D02*
X038566Y001575D01*
X038719Y001674D02*
X038284Y001674D01*
X037910Y001271D02*
X037910Y002271D01*
X039150Y003511D01*
X039807Y003447D02*
X043347Y003447D01*
X043347Y003545D02*
X039906Y003545D01*
X040004Y003644D02*
X043347Y003644D01*
X043347Y003742D02*
X040048Y003742D01*
X038990Y004136D02*
X038923Y004136D01*
X038990Y004235D02*
X038824Y004235D01*
X038990Y004333D02*
X038330Y004333D01*
X038330Y004235D02*
X038351Y004235D01*
X038299Y004432D02*
X038990Y004432D01*
X038990Y004530D02*
X038245Y004530D01*
X038145Y004629D02*
X038990Y004629D01*
X038990Y004727D02*
X035720Y004727D01*
X035818Y004629D02*
X037676Y004629D01*
X037575Y004530D02*
X035917Y004530D01*
X035621Y004826D02*
X038990Y004826D01*
X038990Y004924D02*
X038157Y004924D01*
X038256Y005023D02*
X038521Y005023D01*
X038418Y005121D02*
X038303Y005121D01*
X038330Y005220D02*
X038358Y005220D01*
X037659Y005614D02*
X035162Y005614D01*
X035260Y005515D02*
X037560Y005515D01*
X037516Y005417D02*
X035305Y005417D01*
X035330Y005318D02*
X037490Y005318D01*
X037490Y005220D02*
X035330Y005220D01*
X035303Y005121D02*
X037518Y005121D01*
X037565Y005023D02*
X035256Y005023D01*
X035523Y004924D02*
X037664Y004924D01*
X038109Y003644D02*
X038227Y003644D01*
X038230Y003545D02*
X038326Y003545D01*
X035270Y002954D02*
X035244Y002954D01*
X035270Y002856D02*
X035108Y002856D01*
X031326Y003250D02*
X030110Y003250D01*
X030012Y003348D02*
X031227Y003348D01*
X031129Y003447D02*
X030122Y003447D01*
X030093Y003418D02*
X030363Y003687D01*
X030363Y003848D01*
X029933Y003848D01*
X029933Y003418D01*
X030093Y003418D01*
X029933Y003447D02*
X029873Y003447D01*
X029873Y003545D02*
X029933Y003545D01*
X029933Y003644D02*
X029873Y003644D01*
X029873Y003742D02*
X029933Y003742D01*
X029933Y003841D02*
X029873Y003841D01*
X029873Y003939D02*
X029933Y003939D01*
X029933Y004038D02*
X029873Y004038D01*
X029873Y004136D02*
X029933Y004136D01*
X029933Y004235D02*
X029873Y004235D01*
X029873Y004333D02*
X029933Y004333D01*
X030097Y004333D02*
X030242Y004333D01*
X030196Y004235D02*
X030341Y004235D01*
X030294Y004136D02*
X030439Y004136D01*
X030363Y004038D02*
X030538Y004038D01*
X030636Y003939D02*
X030363Y003939D01*
X030363Y003841D02*
X030735Y003841D01*
X030833Y003742D02*
X030363Y003742D01*
X030319Y003644D02*
X030932Y003644D01*
X031030Y003545D02*
X030221Y003545D01*
X029518Y003348D02*
X028583Y003348D01*
X028624Y003250D02*
X029419Y003250D01*
X029372Y003151D02*
X028645Y003151D01*
X028645Y003053D02*
X029345Y003053D01*
X029345Y002954D02*
X028614Y002954D01*
X028561Y002856D02*
X029371Y002856D01*
X029284Y002757D02*
X028462Y002757D01*
X027989Y002757D02*
X025517Y002757D01*
X025607Y002856D02*
X027890Y002856D01*
X027837Y002954D02*
X025657Y002954D01*
X025681Y003053D02*
X027805Y003053D01*
X027805Y003151D02*
X025685Y003151D01*
X025665Y003250D02*
X027827Y003250D01*
X027868Y003348D02*
X025622Y003348D01*
X025543Y003447D02*
X027964Y003447D01*
X027931Y002659D02*
X025293Y002659D01*
X025471Y002462D02*
X027734Y002462D01*
X027832Y002560D02*
X020541Y002560D01*
X019270Y003572D02*
X018830Y003132D01*
X019270Y003572D02*
X019270Y003612D01*
X019807Y003939D02*
X018584Y003939D01*
X018682Y004038D02*
X019907Y004038D01*
X020563Y003742D02*
X023088Y003742D01*
X023132Y003644D02*
X020563Y003644D01*
X020541Y003545D02*
X023230Y003545D01*
X023329Y003447D02*
X020500Y003447D01*
X018131Y003939D02*
X016872Y003939D01*
X016925Y003841D02*
X018033Y003841D01*
X016116Y002659D02*
X016063Y002659D01*
X016138Y002560D02*
X015965Y002560D01*
X016179Y002462D02*
X006886Y002462D01*
X006788Y002560D02*
X015055Y002560D01*
X014957Y002659D02*
X006689Y002659D01*
X006434Y002462D02*
X000340Y002462D01*
X000340Y002560D02*
X006335Y002560D01*
X006237Y002659D02*
X000340Y002659D01*
X000340Y002757D02*
X000945Y002757D01*
X000777Y002856D02*
X000340Y002856D01*
X000340Y002954D02*
X000678Y002954D01*
X000600Y003053D02*
X000340Y003053D01*
X000340Y003151D02*
X000560Y003151D01*
X000519Y003250D02*
X000340Y003250D01*
X000340Y003348D02*
X000500Y003348D01*
X000500Y003447D02*
X000340Y003447D01*
X000340Y003545D02*
X000500Y003545D01*
X000521Y003644D02*
X000340Y003644D01*
X000340Y003742D02*
X000561Y003742D01*
X000602Y003841D02*
X000340Y003841D01*
X000340Y003939D02*
X000683Y003939D01*
X000781Y004038D02*
X000340Y004038D01*
X000340Y004136D02*
X000956Y004136D01*
X001093Y004235D02*
X000340Y004235D01*
X000340Y004333D02*
X001093Y004333D01*
X001093Y004432D02*
X000340Y004432D01*
X000340Y004530D02*
X001093Y004530D01*
X001093Y004629D02*
X000340Y004629D01*
X000340Y004727D02*
X001093Y004727D01*
X001093Y004826D02*
X000340Y004826D01*
X000340Y004924D02*
X001093Y004924D01*
X001093Y005023D02*
X000340Y005023D01*
X000340Y005121D02*
X001093Y005121D01*
X001413Y004924D02*
X001839Y004924D01*
X001900Y004826D02*
X001413Y004826D01*
X001413Y004727D02*
X001985Y004727D01*
X002102Y004629D02*
X001413Y004629D01*
X002502Y005417D02*
X002602Y005417D01*
X002602Y005515D02*
X002502Y005515D01*
X002502Y005614D02*
X002602Y005614D01*
X002602Y005712D02*
X002502Y005712D01*
X002502Y005811D02*
X002602Y005811D01*
X002602Y005909D02*
X002502Y005909D01*
X001266Y006106D02*
X004052Y006106D01*
X002914Y007076D02*
X002844Y007024D01*
X002766Y006985D01*
X002682Y006958D01*
X002602Y006945D01*
X002602Y007450D01*
X002502Y007450D01*
X001997Y007450D01*
X002010Y007370D01*
X002037Y007286D01*
X002077Y007208D01*
X002128Y007138D01*
X002190Y007076D01*
X002261Y007024D01*
X002339Y006985D01*
X002422Y006958D01*
X002502Y006945D01*
X002502Y007450D01*
X002502Y007550D01*
X001997Y007550D01*
X002010Y007630D01*
X002037Y007713D01*
X002077Y007791D01*
X002128Y007862D01*
X002190Y007924D01*
X002261Y007975D01*
X002339Y008015D01*
X002422Y008042D01*
X002502Y008055D01*
X002502Y007550D01*
X002602Y007550D01*
X002602Y008055D01*
X002682Y008042D01*
X002766Y008015D01*
X002844Y007975D01*
X002914Y007924D01*
X002976Y007862D01*
X003028Y007791D01*
X003067Y007713D01*
X003094Y007630D01*
X003107Y007550D01*
X002602Y007550D01*
X002602Y007450D01*
X003107Y007450D01*
X003094Y007370D01*
X003067Y007286D01*
X003028Y007208D01*
X002976Y007138D01*
X002914Y007076D01*
X002930Y007091D02*
X007686Y007091D01*
X007702Y007076D02*
X007773Y007024D01*
X007851Y006985D01*
X007934Y006958D01*
X008014Y006945D01*
X008014Y007450D01*
X007509Y007450D01*
X007522Y007370D01*
X007549Y007286D01*
X007589Y007208D01*
X007640Y007138D01*
X007702Y007076D01*
X007602Y007190D02*
X003014Y007190D01*
X003068Y007288D02*
X007548Y007288D01*
X007519Y007387D02*
X003097Y007387D01*
X003102Y007584D02*
X007515Y007584D01*
X007509Y007550D02*
X008014Y007550D01*
X008014Y008055D01*
X007934Y008042D01*
X007851Y008015D01*
X007773Y007975D01*
X007702Y007924D01*
X007640Y007862D01*
X007589Y007791D01*
X007549Y007713D01*
X007522Y007630D01*
X007509Y007550D01*
X007539Y007682D02*
X003077Y007682D01*
X003033Y007781D02*
X007583Y007781D01*
X007657Y007879D02*
X002959Y007879D01*
X002838Y007978D02*
X007778Y007978D01*
X008014Y007978D02*
X008114Y007978D01*
X008114Y008055D02*
X008114Y007550D01*
X008014Y007550D01*
X008014Y007450D01*
X008114Y007450D01*
X008114Y007550D01*
X008619Y007550D01*
X008606Y007630D01*
X008579Y007713D01*
X008539Y007791D01*
X008488Y007862D01*
X008426Y007924D01*
X008355Y007975D01*
X008277Y008015D01*
X008194Y008042D01*
X008114Y008055D01*
X008350Y007978D02*
X009190Y007978D01*
X009190Y008076D02*
X000340Y008076D01*
X000340Y007978D02*
X002266Y007978D01*
X002146Y007879D02*
X000340Y007879D01*
X000340Y007781D02*
X002072Y007781D01*
X002027Y007682D02*
X000340Y007682D01*
X000340Y007584D02*
X002003Y007584D01*
X002007Y007387D02*
X000340Y007387D01*
X000340Y007485D02*
X002502Y007485D01*
X002502Y007387D02*
X002602Y007387D01*
X002602Y007485D02*
X008014Y007485D01*
X008014Y007387D02*
X008114Y007387D01*
X008114Y007450D02*
X008114Y006945D01*
X008194Y006958D01*
X008277Y006985D01*
X008355Y007024D01*
X008426Y007076D01*
X008488Y007138D01*
X008539Y007208D01*
X008579Y007286D01*
X008606Y007370D01*
X008619Y007450D01*
X008114Y007450D01*
X008114Y007485D02*
X009190Y007485D01*
X009190Y007387D02*
X008609Y007387D01*
X008580Y007288D02*
X009190Y007288D01*
X009190Y007190D02*
X008526Y007190D01*
X008442Y007091D02*
X009190Y007091D01*
X009190Y006993D02*
X008294Y006993D01*
X008114Y006993D02*
X008014Y006993D01*
X008014Y007091D02*
X008114Y007091D01*
X008114Y007190D02*
X008014Y007190D01*
X008014Y007288D02*
X008114Y007288D01*
X008114Y007584D02*
X008014Y007584D01*
X008014Y007682D02*
X008114Y007682D01*
X008114Y007781D02*
X008014Y007781D01*
X008014Y007879D02*
X008114Y007879D01*
X008471Y007879D02*
X009190Y007879D01*
X009190Y007781D02*
X008545Y007781D01*
X008589Y007682D02*
X009190Y007682D01*
X009190Y007584D02*
X008614Y007584D01*
X009190Y008175D02*
X000340Y008175D01*
X000340Y008273D02*
X009190Y008273D01*
X009190Y008372D02*
X000340Y008372D01*
X000340Y008470D02*
X009190Y008470D01*
X009190Y008569D02*
X006905Y008569D01*
X007168Y008667D02*
X009190Y008667D01*
X009190Y008766D02*
X007302Y008766D01*
X007392Y008864D02*
X009281Y008864D01*
X009339Y008963D02*
X007457Y008963D01*
X007503Y009061D02*
X009298Y009061D01*
X009257Y009160D02*
X007535Y009160D01*
X007552Y009258D02*
X009240Y009258D01*
X009240Y009455D02*
X007551Y009455D01*
X007531Y009554D02*
X009263Y009554D01*
X009303Y009652D02*
X007498Y009652D01*
X007449Y009751D02*
X009344Y009751D01*
X009428Y009849D02*
X007381Y009849D01*
X007288Y009948D02*
X009526Y009948D01*
X009707Y010046D02*
X007145Y010046D01*
X005977Y009258D02*
X005234Y009258D01*
X005217Y009160D02*
X005995Y009160D01*
X006026Y009061D02*
X005177Y009061D01*
X005136Y008963D02*
X006073Y008963D01*
X006138Y008864D02*
X005060Y008864D01*
X004962Y008766D02*
X006228Y008766D01*
X006362Y008667D02*
X004800Y008667D01*
X004162Y008667D02*
X001656Y008667D01*
X001790Y008766D02*
X004001Y008766D01*
X003902Y008864D02*
X001880Y008864D01*
X001945Y008963D02*
X003827Y008963D01*
X003786Y009061D02*
X001992Y009061D01*
X002023Y009160D02*
X003745Y009160D01*
X003728Y009258D02*
X002041Y009258D01*
X001303Y009258D02*
X001203Y009258D01*
X001203Y009160D02*
X001303Y009160D01*
X001303Y009061D02*
X001203Y009061D01*
X001203Y008963D02*
X001303Y008963D01*
X001303Y008864D02*
X001203Y008864D01*
X001203Y008766D02*
X001303Y008766D01*
X001303Y008667D02*
X001203Y008667D01*
X002502Y007978D02*
X002602Y007978D01*
X002602Y007879D02*
X002502Y007879D01*
X002502Y007781D02*
X002602Y007781D01*
X002602Y007682D02*
X002502Y007682D01*
X002502Y007584D02*
X002602Y007584D01*
X002602Y007288D02*
X002502Y007288D01*
X002502Y007190D02*
X002602Y007190D01*
X002602Y007091D02*
X002502Y007091D01*
X002502Y006993D02*
X002602Y006993D01*
X002782Y006993D02*
X007834Y006993D01*
X010003Y006796D02*
X010039Y006796D01*
X010283Y006303D02*
X011357Y006303D01*
X011398Y006205D02*
X010242Y006205D01*
X010170Y006106D02*
X011470Y006106D01*
X011615Y006008D02*
X010024Y006008D01*
X009710Y006008D02*
X009510Y006008D01*
X009510Y006106D02*
X009564Y006106D01*
X009559Y005909D02*
X013058Y005909D01*
X012960Y005811D02*
X009657Y005811D01*
X009756Y005712D02*
X012890Y005712D01*
X012839Y005614D02*
X009854Y005614D01*
X009953Y005515D02*
X012804Y005515D01*
X012782Y005417D02*
X010051Y005417D01*
X011930Y006008D02*
X013205Y006008D01*
X014165Y006303D02*
X014963Y006303D01*
X015004Y006205D02*
X014263Y006205D01*
X014362Y006106D02*
X015076Y006106D01*
X015222Y006008D02*
X014460Y006008D01*
X013626Y007682D02*
X013526Y007682D01*
X013526Y007781D02*
X013626Y007781D01*
X013626Y007879D02*
X013526Y007879D01*
X013526Y007978D02*
X013626Y007978D01*
X002322Y006993D02*
X000340Y006993D01*
X000340Y007091D02*
X002174Y007091D01*
X002090Y007190D02*
X000340Y007190D01*
X000340Y007288D02*
X002036Y007288D01*
X000340Y002363D02*
X006532Y002363D01*
X006631Y002265D02*
X000340Y002265D01*
X000340Y002166D02*
X006729Y002166D01*
X006828Y002068D02*
X002846Y002068D01*
X002844Y002070D02*
X002766Y002109D01*
X002682Y002137D01*
X002602Y002149D01*
X002602Y001644D01*
X003107Y001644D01*
X003094Y001724D01*
X003067Y001808D01*
X003028Y001886D01*
X002976Y001956D01*
X002914Y002018D01*
X002844Y002070D01*
X002963Y001969D02*
X007653Y001969D01*
X007581Y001871D02*
X003035Y001871D01*
X003079Y001772D02*
X007537Y001772D01*
X007514Y001674D02*
X003102Y001674D01*
X003107Y001544D02*
X002602Y001544D01*
X002602Y001039D01*
X002682Y001052D01*
X002766Y001079D01*
X002844Y001119D01*
X002914Y001170D01*
X002976Y001232D01*
X003028Y001303D01*
X003067Y001381D01*
X003094Y001464D01*
X003107Y001544D01*
X003096Y001477D02*
X007520Y001477D01*
X007522Y001464D02*
X007549Y001381D01*
X007589Y001303D01*
X007640Y001232D01*
X007702Y001170D01*
X007773Y001119D01*
X007851Y001079D01*
X007934Y001052D01*
X008014Y001039D01*
X008014Y001544D01*
X007509Y001544D01*
X007522Y001464D01*
X007550Y001378D02*
X003066Y001378D01*
X003011Y001280D02*
X007605Y001280D01*
X007691Y001181D02*
X002926Y001181D01*
X002773Y001083D02*
X007843Y001083D01*
X008014Y001083D02*
X008114Y001083D01*
X008114Y001181D02*
X008014Y001181D01*
X008014Y001280D02*
X008114Y001280D01*
X008114Y001378D02*
X008014Y001378D01*
X008014Y001477D02*
X008114Y001477D01*
X008114Y001575D02*
X013526Y001575D01*
X013526Y001544D02*
X013021Y001544D01*
X013034Y001464D01*
X013061Y001381D01*
X013100Y001303D01*
X013152Y001232D01*
X013214Y001170D01*
X013284Y001119D01*
X013362Y001079D01*
X013446Y001052D01*
X013526Y001039D01*
X013526Y001544D01*
X013526Y001477D02*
X013626Y001477D01*
X013626Y001575D02*
X016139Y001575D01*
X016116Y001674D02*
X014126Y001674D01*
X014102Y001772D02*
X016116Y001772D01*
X016148Y001871D02*
X014059Y001871D01*
X013987Y001969D02*
X016200Y001969D01*
X016873Y001969D02*
X017846Y001969D01*
X017945Y001871D02*
X016925Y001871D01*
X016956Y001772D02*
X018043Y001772D01*
X018142Y001674D02*
X016956Y001674D01*
X016934Y001575D02*
X018240Y001575D01*
X018339Y001477D02*
X016894Y001477D01*
X016796Y001378D02*
X018437Y001378D01*
X018536Y001280D02*
X014035Y001280D01*
X014090Y001378D02*
X016276Y001378D01*
X016179Y001477D02*
X014120Y001477D01*
X013626Y001378D02*
X013526Y001378D01*
X013526Y001280D02*
X013626Y001280D01*
X013626Y001181D02*
X013526Y001181D01*
X013526Y001083D02*
X013626Y001083D01*
X013797Y001083D02*
X018733Y001083D01*
X018831Y000984D02*
X000340Y000984D01*
X000340Y000886D02*
X018930Y000886D01*
X019028Y000787D02*
X000340Y000787D01*
X000340Y000689D02*
X019127Y000689D01*
X019382Y000886D02*
X019707Y000886D01*
X019666Y000984D02*
X019284Y000984D01*
X018634Y001181D02*
X013949Y001181D01*
X013355Y001083D02*
X008285Y001083D01*
X008437Y001181D02*
X013203Y001181D01*
X013117Y001280D02*
X008523Y001280D01*
X008578Y001378D02*
X013062Y001378D01*
X013032Y001477D02*
X008608Y001477D01*
X008614Y001674D02*
X013026Y001674D01*
X013049Y001772D02*
X008591Y001772D01*
X008547Y001871D02*
X013093Y001871D01*
X013165Y001969D02*
X008475Y001969D01*
X008014Y001575D02*
X002602Y001575D01*
X002602Y001544D02*
X002602Y001644D01*
X002502Y001644D01*
X002502Y001544D01*
X002602Y001544D01*
X002602Y001477D02*
X002502Y001477D01*
X002502Y001544D02*
X002502Y001039D01*
X002422Y001052D01*
X002339Y001079D01*
X002261Y001119D01*
X002190Y001170D01*
X002128Y001232D01*
X002077Y001303D01*
X002037Y001381D01*
X002010Y001464D01*
X001997Y001544D01*
X002502Y001544D01*
X002502Y001575D02*
X000340Y001575D01*
X000340Y001477D02*
X002008Y001477D01*
X002038Y001378D02*
X000340Y001378D01*
X000340Y001280D02*
X002093Y001280D01*
X002179Y001181D02*
X000340Y001181D01*
X000340Y001083D02*
X002331Y001083D01*
X002502Y001083D02*
X002602Y001083D01*
X002602Y001181D02*
X002502Y001181D01*
X002502Y001280D02*
X002602Y001280D01*
X002602Y001378D02*
X002502Y001378D01*
X002502Y001644D02*
X001997Y001644D01*
X002010Y001724D01*
X002037Y001808D01*
X002077Y001886D01*
X002128Y001956D01*
X002190Y002018D01*
X002261Y002070D01*
X002339Y002109D01*
X002422Y002137D01*
X002502Y002149D01*
X002502Y001644D01*
X002502Y001674D02*
X002602Y001674D01*
X002602Y001772D02*
X002502Y001772D01*
X002502Y001871D02*
X002602Y001871D01*
X002602Y001969D02*
X002502Y001969D01*
X002502Y002068D02*
X002602Y002068D01*
X002258Y002068D02*
X000340Y002068D01*
X000340Y001969D02*
X002141Y001969D01*
X002069Y001871D02*
X000340Y001871D01*
X000340Y001772D02*
X002026Y001772D01*
X002002Y001674D02*
X000340Y001674D01*
X020453Y000886D02*
X023313Y000886D01*
X023272Y000984D02*
X020494Y000984D01*
X023831Y001477D02*
X024270Y001477D01*
X024172Y001378D02*
X023984Y001378D01*
X024059Y001280D02*
X024073Y001280D01*
X024287Y001674D02*
X026946Y001674D01*
X027044Y001772D02*
X025478Y001772D01*
X025576Y001871D02*
X027143Y001871D01*
X027241Y001969D02*
X025620Y001969D01*
X025645Y002068D02*
X027340Y002068D01*
X027438Y002166D02*
X025645Y002166D01*
X025618Y002265D02*
X027537Y002265D01*
X027635Y002363D02*
X025570Y002363D01*
X025225Y002114D02*
X024501Y002114D01*
X024852Y001871D02*
X024875Y001871D01*
X024973Y001772D02*
X024753Y001772D01*
X026906Y001181D02*
X027805Y001181D01*
X027805Y001280D02*
X027004Y001280D01*
X027103Y001378D02*
X027805Y001378D01*
X027813Y001477D02*
X027201Y001477D01*
X028638Y001477D02*
X028798Y001477D01*
X028699Y001378D02*
X028645Y001378D01*
X034173Y000689D02*
X035267Y000689D01*
X035168Y000787D02*
X034272Y000787D01*
X034355Y000886D02*
X034744Y000886D01*
X034604Y000984D02*
X034454Y000984D01*
X039009Y001674D02*
X042326Y001674D01*
X042173Y001575D02*
X039162Y001575D01*
X039237Y001477D02*
X042098Y001477D01*
X042057Y001378D02*
X039278Y001378D01*
X039284Y001280D02*
X042051Y001280D01*
X042057Y001181D02*
X039278Y001181D01*
X039238Y001083D02*
X042048Y001083D01*
X041949Y000984D02*
X039163Y000984D01*
X042107Y000689D02*
X043347Y000689D01*
X043347Y000787D02*
X042205Y000787D01*
X042304Y000886D02*
X042323Y000886D01*
X042618Y000886D02*
X043347Y000886D01*
X043347Y000984D02*
X042770Y000984D01*
X042844Y001083D02*
X043347Y001083D01*
X043347Y001181D02*
X042885Y001181D01*
X043347Y004038D02*
X042065Y004038D01*
X042065Y004136D02*
X043347Y004136D01*
X043347Y004235D02*
X042065Y004235D01*
X042065Y004333D02*
X043347Y004333D01*
X029230Y004530D02*
X028318Y004530D01*
X028501Y004432D02*
X029132Y004432D01*
X029033Y004333D02*
X028589Y004333D01*
X028630Y004235D02*
X028666Y004235D01*
D26*
X030230Y004572D03*
X031520Y005462D03*
X035430Y004132D03*
X036470Y003212D03*
X027550Y001572D03*
X026750Y002052D03*
X022470Y002092D03*
X019270Y003612D03*
X016590Y004532D03*
X020510Y006452D03*
X025830Y008172D03*
X027070Y006452D03*
X032150Y009652D03*
X023430Y010412D03*
M02*
