G75*
%MOIN*%
%OFA0B0*%
%FSLAX24Y24*%
%IPPOS*%
%LPD*%
%AMOC8*
5,1,8,0,0,1.08239X$1,22.5*
%
%ADD10C,0.1024*%
%ADD11C,0.1300*%
%ADD12OC8,0.0600*%
%ADD13C,0.0600*%
%ADD14R,0.0552X0.0670*%
%ADD15C,0.0752*%
%ADD16R,0.0670X0.0552*%
%ADD17OC8,0.0740*%
%ADD18R,0.0740X0.0740*%
%ADD19R,0.1346X0.1346*%
%ADD20C,0.1326*%
%ADD21R,0.0808X0.0808*%
%ADD22C,0.0600*%
%ADD23R,0.0985X0.0985*%
%ADD24C,0.0674*%
%ADD25R,0.0680X0.0680*%
D10*
X003058Y002760D03*
X008983Y002760D03*
D11*
X001708Y017510D03*
X010408Y042510D03*
D12*
X010608Y022210D03*
X010608Y019910D03*
X010608Y017610D03*
D13*
X009808Y017610D03*
X009808Y019910D03*
X009808Y022210D03*
D14*
X009402Y024110D03*
X008615Y024110D03*
X010415Y024110D03*
X011202Y024110D03*
X006802Y036210D03*
X006015Y036210D03*
X006402Y032910D03*
X006402Y031510D03*
X005615Y031510D03*
X005615Y032910D03*
X004702Y036210D03*
X003915Y036210D03*
X003802Y039210D03*
X003015Y039210D03*
X002302Y036210D03*
X001515Y036210D03*
X001515Y033210D03*
X001515Y031910D03*
X001515Y030610D03*
X001902Y029410D03*
X002302Y030610D03*
X002302Y031910D03*
X002302Y033210D03*
X003115Y029410D03*
X003902Y029410D03*
X003515Y026410D03*
X004302Y026410D03*
X004502Y023410D03*
X003715Y023410D03*
X002402Y023410D03*
X002402Y022110D03*
X002402Y020810D03*
X001615Y020810D03*
X001615Y022110D03*
X001615Y023410D03*
X001415Y026410D03*
X002202Y026410D03*
X001115Y029410D03*
X003615Y033210D03*
X004402Y033210D03*
X005715Y026410D03*
X006502Y026410D03*
X006502Y023410D03*
X005715Y023410D03*
X004702Y011110D03*
X003915Y011110D03*
X004715Y006610D03*
X005502Y006610D03*
X005502Y001210D03*
X004715Y001210D03*
X001802Y039210D03*
X001802Y040510D03*
X001802Y041810D03*
X001802Y043110D03*
X001015Y043110D03*
X001015Y041810D03*
X001015Y040510D03*
X001015Y039210D03*
X006315Y040210D03*
X007102Y040210D03*
D15*
X009408Y031816D02*
X009408Y031104D01*
X009408Y028316D02*
X009408Y027604D01*
X011008Y027604D02*
X011008Y028316D01*
X011008Y031104D02*
X011008Y031816D01*
D16*
X011008Y026204D03*
X011008Y025416D03*
X009408Y025416D03*
X009408Y026204D03*
X008308Y018004D03*
X008308Y017216D03*
D17*
X009308Y034710D03*
D18*
X009308Y035710D03*
X009308Y036710D03*
X009308Y037710D03*
X009308Y038710D03*
X010308Y038710D03*
X010308Y037710D03*
X010308Y036710D03*
X010308Y035710D03*
X010308Y034710D03*
D19*
X001211Y002457D03*
X001211Y007969D03*
X001211Y013481D03*
X007116Y013481D03*
X007116Y007969D03*
X007116Y002457D03*
D20*
X008967Y001158D03*
X008967Y004386D03*
X008967Y006670D03*
X008967Y009898D03*
X008967Y012182D03*
X008967Y015410D03*
X003061Y015410D03*
X003061Y012182D03*
X003061Y009898D03*
X003061Y006670D03*
X003061Y004386D03*
X003061Y001158D03*
D21*
X004911Y002457D03*
X004911Y007969D03*
X004911Y013481D03*
X010817Y013481D03*
X010817Y007969D03*
X010817Y002457D03*
D22*
X007008Y017330D02*
X007008Y017890D01*
X006008Y017890D02*
X006008Y017330D01*
X005008Y017330D02*
X005008Y017890D01*
X004508Y024630D02*
X004508Y025190D01*
X004508Y027630D02*
X004508Y028190D01*
X003508Y028190D02*
X003508Y027630D01*
X003508Y025190D02*
X003508Y024630D01*
X002508Y024630D02*
X002508Y025190D01*
X002508Y027630D02*
X002508Y028190D01*
X001508Y028190D02*
X001508Y027630D01*
X001508Y025190D02*
X001508Y024630D01*
X001408Y034430D02*
X001408Y034990D01*
X001408Y037430D02*
X001408Y037990D01*
X002408Y037990D02*
X002408Y037430D01*
X002408Y034990D02*
X002408Y034430D01*
X003408Y034430D02*
X003408Y034990D01*
X003408Y037430D02*
X003408Y037990D01*
X004408Y037990D02*
X004408Y037430D01*
X004408Y034990D02*
X004408Y034430D01*
X005408Y034430D02*
X005408Y034990D01*
X005408Y037430D02*
X005408Y037990D01*
X006408Y037990D02*
X006408Y037430D01*
X006408Y034990D02*
X006408Y034430D01*
X007408Y034430D02*
X007408Y034990D01*
X007408Y037430D02*
X007408Y037990D01*
X007508Y028190D02*
X007508Y027630D01*
X007508Y025190D02*
X007508Y024630D01*
X006508Y024630D02*
X006508Y025190D01*
X006508Y027630D02*
X006508Y028190D01*
X005508Y028190D02*
X005508Y027630D01*
X005508Y025190D02*
X005508Y024630D01*
D23*
X004045Y022064D03*
X004045Y031906D03*
X004045Y041749D03*
X007982Y041749D03*
X007982Y031906D03*
X007982Y022064D03*
D24*
X006998Y019308D03*
X006014Y019308D03*
X005029Y019308D03*
X005029Y029150D03*
X006014Y029150D03*
X006998Y029150D03*
X006998Y038993D03*
X006014Y038993D03*
X005029Y038993D03*
D25*
X006108Y011810D03*
X006108Y010810D03*
X006108Y009810D03*
M02*
