M48
; DRILL file {KiCad 8.0.2} date 2024-05-21T21:49:56+0100
; FORMAT={-:-/ absolute / inch / decimal}
; #@! TF.CreationDate,2024-05-21T21:49:56+01:00
; #@! TF.GenerationSoftware,Kicad,Pcbnew,8.0.2
; #@! TF.FileFunction,Plated,1,2,PTH
FMAT,2
INCH
; #@! TA.AperFunction,Plated,PTH,ViaDrill
T1C0.0118
; #@! TA.AperFunction,Plated,PTH,ComponentDrill
T2C0.0320
; #@! TA.AperFunction,Plated,PTH,ComponentDrill
T3C0.0360
; #@! TA.AperFunction,Plated,PTH,ComponentDrill
T4C0.0394
; #@! TA.AperFunction,Plated,PTH,ComponentDrill
T5C0.0400
; #@! TA.AperFunction,Plated,PTH,ComponentDrill
T6C0.0472
; #@! TA.AperFunction,Plated,PTH,ComponentDrill
T7C0.0512
; #@! TA.AperFunction,Plated,PTH,ComponentDrill
T8C0.0630
; #@! TA.AperFunction,Plated,PTH,ComponentDrill
T9C0.0886
; #@! TA.AperFunction,Plated,PTH,ComponentDrill
T10C0.0906
%
G90
G05
T1
X5.3009Y-3.2119
X5.3009Y-4.4469
X5.3109Y-2.7519
X5.3259Y-2.6994
X5.3359Y-2.0419
X5.3459Y-2.2994
X5.3859Y-3.0294
X5.3859Y-3.1594
X5.4059Y-4.0094
X5.4059Y-4.4294
X5.4564Y-4.7098
X5.4809Y-3.3419
X5.4959Y-4.4294
X5.5359Y-4.3344
X5.5559Y-2.6994
X5.5759Y-3.2894
X5.5759Y-4.2494
X5.5859Y-4.5094
X5.6059Y-4.2994
X5.6059Y-4.4494
X5.6159Y-3.2494
X5.6259Y-2.4069
X5.6259Y-4.2594
X5.6359Y-3.3294
X5.6953Y-3.9994
X5.7359Y-3.3094
X5.7959Y-3.2694
X5.8059Y-3.6894
X5.8159Y-4.7394
X5.8359Y-4.0894
X5.8359Y-4.2294
X5.8859Y-4.8494
X5.8959Y-3.0494
X5.8959Y-4.0594
X5.8959Y-4.1994
X5.9159Y-3.2594
X5.9459Y-3.7394
X5.9859Y-4.3194
X5.9859Y-5.2394
X6.0259Y-3.7094
X6.0459Y-3.3994
X6.1159Y-3.3194
X6.1159Y-4.3494
X6.1159Y-4.4694
X6.1659Y-4.6794
X6.1859Y-4.0194
X6.2209Y-2.9719
X6.2659Y-3.8394
X6.3334Y-4.2344
X6.3759Y-4.4494
X6.3959Y-4.2344
T2
X5.3859Y-2.5694
X5.3859Y-2.8694
X5.3959Y-3.5494
X5.3959Y-3.8494
X5.4859Y-2.5694
X5.4859Y-2.8694
X5.4959Y-3.5494
X5.4959Y-3.8494
X5.5859Y-2.5694
X5.5859Y-2.8694
X5.5959Y-3.5494
X5.5959Y-3.8494
X5.6859Y-2.5694
X5.6859Y-2.8694
X5.6959Y-3.5494
X5.6959Y-3.8494
X5.7459Y-4.5794
X5.7859Y-2.5694
X5.7859Y-2.8694
X5.7959Y-3.5494
X5.7959Y-3.8494
X5.8459Y-4.5794
X5.8859Y-2.5694
X5.8859Y-2.8694
X5.8959Y-3.5494
X5.8959Y-3.8494
X5.9459Y-4.5794
X5.9859Y-2.5694
X5.9859Y-2.8694
X5.9959Y-3.5494
X5.9959Y-3.8494
X6.2259Y-4.1194
X6.2259Y-4.3494
X6.2259Y-4.5794
X6.3059Y-4.1194
X6.3059Y-4.3494
X6.3059Y-4.5794
T3
X6.1759Y-2.4694
X6.1759Y-2.5694
X6.1759Y-2.6694
X6.1759Y-2.7694
X6.1759Y-2.8694
X6.2759Y-2.4694
X6.2759Y-2.5694
X6.2759Y-2.6694
X6.2759Y-2.7694
X6.2759Y-2.8694
T4
X5.7481Y-2.4411
X5.7481Y-3.4253
X5.7481Y-4.4096
X5.8465Y-2.4411
X5.8465Y-3.4253
X5.8465Y-4.4096
X5.9449Y-2.4411
X5.9449Y-3.4253
X5.9449Y-4.4096
T5
X5.8559Y-5.1594
X5.8559Y-5.2594
X5.8559Y-5.3594
T6
X6.1859Y-3.1944
X6.1859Y-3.5444
X6.3459Y-3.1944
X6.3459Y-3.5444
T7
X5.7363Y-4.9923
X5.7363Y-5.5434
X5.7363Y-6.0946
X6.3268Y-4.9923
X6.3268Y-5.5434
X6.3268Y-6.0946
T8
X5.6496Y-2.1655
X5.6496Y-3.1497
X5.6496Y-4.134
X6.0434Y-2.1655
X6.0434Y-3.1497
X6.0434Y-4.134
T9
X5.5512Y-4.7994
X5.5512Y-5.1222
X5.5512Y-5.3505
X5.5512Y-5.6734
X5.5512Y-5.9017
X5.5512Y-6.2246
X6.1418Y-4.7994
X6.1418Y-5.1222
X6.1418Y-5.3505
X6.1418Y-5.6734
X6.1418Y-5.9017
X6.1418Y-6.2246
T10
X5.3662Y-4.9923
X5.3662Y-5.5434
X5.3662Y-6.0946
X5.9567Y-4.9923
X5.9567Y-5.5434
X5.9567Y-6.0946
M30
