%TF.GenerationSoftware,KiCad,Pcbnew,8.0.2*%
%TF.CreationDate,2024-05-21T21:49:58+01:00*%
%TF.ProjectId,3ch mix 1.6,33636820-6d69-4782-9031-2e362e6b6963,rev?*%
%TF.SameCoordinates,Original*%
%TF.FileFunction,Drillmap*%
%TF.FilePolarity,Positive*%
%FSLAX45Y45*%
G04 Gerber Fmt 4.5, Leading zero omitted, Abs format (unit mm)*
G04 Created by KiCad (PCBNEW 8.0.2) date 2024-05-21 21:49:58*
%MOMM*%
%LPD*%
G01*
G04 APERTURE LIST*
%ADD10C,0.050000*%
%ADD11C,0.200000*%
%ADD12C,0.250000*%
%ADD13C,0.320000*%
G04 APERTURE END LIST*
D10*
X13400110Y-5000360D02*
X13400110Y-16000360D01*
X13400110Y-16000360D02*
X16300110Y-16000360D01*
X16300110Y-5000360D02*
X13400110Y-5000360D01*
X16300110Y-16000360D02*
X16300110Y-5000360D01*
D11*
D12*
X13974410Y-15278460D02*
X14224410Y-15528460D01*
X14224410Y-15278460D02*
X13974410Y-15528460D01*
X15479360Y-15278460D02*
X15729360Y-15528460D01*
X15729360Y-15278460D02*
X15479360Y-15528460D01*
D13*
X13916510Y-11656960D02*
G75*
G02*
X13596510Y-11656960I-160000J0D01*
G01*
X13596510Y-11656960D02*
G75*
G02*
X13916510Y-11656960I160000J0D01*
G01*
X16126310Y-5306960D02*
G75*
G02*
X15806310Y-5306960I-160000J0D01*
G01*
X15806310Y-5306960D02*
G75*
G02*
X16126310Y-5306960I160000J0D01*
G01*
D11*
X13658387Y-16314344D02*
X13658387Y-16114344D01*
X13658387Y-16114344D02*
X13706006Y-16114344D01*
X13706006Y-16114344D02*
X13734577Y-16123868D01*
X13734577Y-16123868D02*
X13753625Y-16142915D01*
X13753625Y-16142915D02*
X13763149Y-16161963D01*
X13763149Y-16161963D02*
X13772672Y-16200058D01*
X13772672Y-16200058D02*
X13772672Y-16228629D01*
X13772672Y-16228629D02*
X13763149Y-16266725D01*
X13763149Y-16266725D02*
X13753625Y-16285772D01*
X13753625Y-16285772D02*
X13734577Y-16304820D01*
X13734577Y-16304820D02*
X13706006Y-16314344D01*
X13706006Y-16314344D02*
X13658387Y-16314344D01*
X13858387Y-16314344D02*
X13858387Y-16181010D01*
X13858387Y-16219106D02*
X13867911Y-16200058D01*
X13867911Y-16200058D02*
X13877434Y-16190534D01*
X13877434Y-16190534D02*
X13896482Y-16181010D01*
X13896482Y-16181010D02*
X13915530Y-16181010D01*
X13982196Y-16314344D02*
X13982196Y-16181010D01*
X13982196Y-16114344D02*
X13972672Y-16123868D01*
X13972672Y-16123868D02*
X13982196Y-16133391D01*
X13982196Y-16133391D02*
X13991720Y-16123868D01*
X13991720Y-16123868D02*
X13982196Y-16114344D01*
X13982196Y-16114344D02*
X13982196Y-16133391D01*
X14106006Y-16314344D02*
X14086958Y-16304820D01*
X14086958Y-16304820D02*
X14077434Y-16285772D01*
X14077434Y-16285772D02*
X14077434Y-16114344D01*
X14210768Y-16314344D02*
X14191720Y-16304820D01*
X14191720Y-16304820D02*
X14182196Y-16285772D01*
X14182196Y-16285772D02*
X14182196Y-16114344D01*
X14439339Y-16314344D02*
X14439339Y-16114344D01*
X14439339Y-16114344D02*
X14506006Y-16257201D01*
X14506006Y-16257201D02*
X14572672Y-16114344D01*
X14572672Y-16114344D02*
X14572672Y-16314344D01*
X14753625Y-16314344D02*
X14753625Y-16209582D01*
X14753625Y-16209582D02*
X14744101Y-16190534D01*
X14744101Y-16190534D02*
X14725053Y-16181010D01*
X14725053Y-16181010D02*
X14686958Y-16181010D01*
X14686958Y-16181010D02*
X14667911Y-16190534D01*
X14753625Y-16304820D02*
X14734577Y-16314344D01*
X14734577Y-16314344D02*
X14686958Y-16314344D01*
X14686958Y-16314344D02*
X14667911Y-16304820D01*
X14667911Y-16304820D02*
X14658387Y-16285772D01*
X14658387Y-16285772D02*
X14658387Y-16266725D01*
X14658387Y-16266725D02*
X14667911Y-16247677D01*
X14667911Y-16247677D02*
X14686958Y-16238153D01*
X14686958Y-16238153D02*
X14734577Y-16238153D01*
X14734577Y-16238153D02*
X14753625Y-16228629D01*
X14848863Y-16181010D02*
X14848863Y-16381010D01*
X14848863Y-16190534D02*
X14867911Y-16181010D01*
X14867911Y-16181010D02*
X14906006Y-16181010D01*
X14906006Y-16181010D02*
X14925053Y-16190534D01*
X14925053Y-16190534D02*
X14934577Y-16200058D01*
X14934577Y-16200058D02*
X14944101Y-16219106D01*
X14944101Y-16219106D02*
X14944101Y-16276248D01*
X14944101Y-16276248D02*
X14934577Y-16295296D01*
X14934577Y-16295296D02*
X14925053Y-16304820D01*
X14925053Y-16304820D02*
X14906006Y-16314344D01*
X14906006Y-16314344D02*
X14867911Y-16314344D01*
X14867911Y-16314344D02*
X14848863Y-16304820D01*
X15029815Y-16295296D02*
X15039339Y-16304820D01*
X15039339Y-16304820D02*
X15029815Y-16314344D01*
X15029815Y-16314344D02*
X15020292Y-16304820D01*
X15020292Y-16304820D02*
X15029815Y-16295296D01*
X15029815Y-16295296D02*
X15029815Y-16314344D01*
X15029815Y-16190534D02*
X15039339Y-16200058D01*
X15039339Y-16200058D02*
X15029815Y-16209582D01*
X15029815Y-16209582D02*
X15020292Y-16200058D01*
X15020292Y-16200058D02*
X15029815Y-16190534D01*
X15029815Y-16190534D02*
X15029815Y-16209582D01*
X13197610Y-16542860D02*
X13397610Y-16742860D01*
X13397610Y-16542860D02*
X13197610Y-16742860D01*
X13648863Y-16553391D02*
X13658387Y-16543868D01*
X13658387Y-16543868D02*
X13677434Y-16534344D01*
X13677434Y-16534344D02*
X13725053Y-16534344D01*
X13725053Y-16534344D02*
X13744101Y-16543868D01*
X13744101Y-16543868D02*
X13753625Y-16553391D01*
X13753625Y-16553391D02*
X13763149Y-16572439D01*
X13763149Y-16572439D02*
X13763149Y-16591487D01*
X13763149Y-16591487D02*
X13753625Y-16620058D01*
X13753625Y-16620058D02*
X13639339Y-16734344D01*
X13639339Y-16734344D02*
X13763149Y-16734344D01*
X13848863Y-16715296D02*
X13858387Y-16724820D01*
X13858387Y-16724820D02*
X13848863Y-16734344D01*
X13848863Y-16734344D02*
X13839339Y-16724820D01*
X13839339Y-16724820D02*
X13848863Y-16715296D01*
X13848863Y-16715296D02*
X13848863Y-16734344D01*
X14039339Y-16534344D02*
X13944101Y-16534344D01*
X13944101Y-16534344D02*
X13934577Y-16629582D01*
X13934577Y-16629582D02*
X13944101Y-16620058D01*
X13944101Y-16620058D02*
X13963149Y-16610534D01*
X13963149Y-16610534D02*
X14010768Y-16610534D01*
X14010768Y-16610534D02*
X14029815Y-16620058D01*
X14029815Y-16620058D02*
X14039339Y-16629582D01*
X14039339Y-16629582D02*
X14048863Y-16648629D01*
X14048863Y-16648629D02*
X14048863Y-16696248D01*
X14048863Y-16696248D02*
X14039339Y-16715296D01*
X14039339Y-16715296D02*
X14029815Y-16724820D01*
X14029815Y-16724820D02*
X14010768Y-16734344D01*
X14010768Y-16734344D02*
X13963149Y-16734344D01*
X13963149Y-16734344D02*
X13944101Y-16724820D01*
X13944101Y-16724820D02*
X13934577Y-16715296D01*
X14172672Y-16534344D02*
X14191720Y-16534344D01*
X14191720Y-16534344D02*
X14210768Y-16543868D01*
X14210768Y-16543868D02*
X14220292Y-16553391D01*
X14220292Y-16553391D02*
X14229815Y-16572439D01*
X14229815Y-16572439D02*
X14239339Y-16610534D01*
X14239339Y-16610534D02*
X14239339Y-16658153D01*
X14239339Y-16658153D02*
X14229815Y-16696248D01*
X14229815Y-16696248D02*
X14220292Y-16715296D01*
X14220292Y-16715296D02*
X14210768Y-16724820D01*
X14210768Y-16724820D02*
X14191720Y-16734344D01*
X14191720Y-16734344D02*
X14172672Y-16734344D01*
X14172672Y-16734344D02*
X14153625Y-16724820D01*
X14153625Y-16724820D02*
X14144101Y-16715296D01*
X14144101Y-16715296D02*
X14134577Y-16696248D01*
X14134577Y-16696248D02*
X14125053Y-16658153D01*
X14125053Y-16658153D02*
X14125053Y-16610534D01*
X14125053Y-16610534D02*
X14134577Y-16572439D01*
X14134577Y-16572439D02*
X14144101Y-16553391D01*
X14144101Y-16553391D02*
X14153625Y-16543868D01*
X14153625Y-16543868D02*
X14172672Y-16534344D01*
X14363149Y-16534344D02*
X14382196Y-16534344D01*
X14382196Y-16534344D02*
X14401244Y-16543868D01*
X14401244Y-16543868D02*
X14410768Y-16553391D01*
X14410768Y-16553391D02*
X14420292Y-16572439D01*
X14420292Y-16572439D02*
X14429815Y-16610534D01*
X14429815Y-16610534D02*
X14429815Y-16658153D01*
X14429815Y-16658153D02*
X14420292Y-16696248D01*
X14420292Y-16696248D02*
X14410768Y-16715296D01*
X14410768Y-16715296D02*
X14401244Y-16724820D01*
X14401244Y-16724820D02*
X14382196Y-16734344D01*
X14382196Y-16734344D02*
X14363149Y-16734344D01*
X14363149Y-16734344D02*
X14344101Y-16724820D01*
X14344101Y-16724820D02*
X14334577Y-16715296D01*
X14334577Y-16715296D02*
X14325053Y-16696248D01*
X14325053Y-16696248D02*
X14315530Y-16658153D01*
X14315530Y-16658153D02*
X14315530Y-16610534D01*
X14315530Y-16610534D02*
X14325053Y-16572439D01*
X14325053Y-16572439D02*
X14334577Y-16553391D01*
X14334577Y-16553391D02*
X14344101Y-16543868D01*
X14344101Y-16543868D02*
X14363149Y-16534344D01*
X14515530Y-16734344D02*
X14515530Y-16601010D01*
X14515530Y-16620058D02*
X14525053Y-16610534D01*
X14525053Y-16610534D02*
X14544101Y-16601010D01*
X14544101Y-16601010D02*
X14572673Y-16601010D01*
X14572673Y-16601010D02*
X14591720Y-16610534D01*
X14591720Y-16610534D02*
X14601244Y-16629582D01*
X14601244Y-16629582D02*
X14601244Y-16734344D01*
X14601244Y-16629582D02*
X14610768Y-16610534D01*
X14610768Y-16610534D02*
X14629815Y-16601010D01*
X14629815Y-16601010D02*
X14658387Y-16601010D01*
X14658387Y-16601010D02*
X14677434Y-16610534D01*
X14677434Y-16610534D02*
X14686958Y-16629582D01*
X14686958Y-16629582D02*
X14686958Y-16734344D01*
X14782196Y-16734344D02*
X14782196Y-16601010D01*
X14782196Y-16620058D02*
X14791720Y-16610534D01*
X14791720Y-16610534D02*
X14810768Y-16601010D01*
X14810768Y-16601010D02*
X14839339Y-16601010D01*
X14839339Y-16601010D02*
X14858387Y-16610534D01*
X14858387Y-16610534D02*
X14867911Y-16629582D01*
X14867911Y-16629582D02*
X14867911Y-16734344D01*
X14867911Y-16629582D02*
X14877434Y-16610534D01*
X14877434Y-16610534D02*
X14896482Y-16601010D01*
X14896482Y-16601010D02*
X14925053Y-16601010D01*
X14925053Y-16601010D02*
X14944101Y-16610534D01*
X14944101Y-16610534D02*
X14953625Y-16629582D01*
X14953625Y-16629582D02*
X14953625Y-16734344D01*
X15344101Y-16524820D02*
X15172673Y-16781963D01*
X15601244Y-16534344D02*
X15620292Y-16534344D01*
X15620292Y-16534344D02*
X15639339Y-16543868D01*
X15639339Y-16543868D02*
X15648863Y-16553391D01*
X15648863Y-16553391D02*
X15658387Y-16572439D01*
X15658387Y-16572439D02*
X15667911Y-16610534D01*
X15667911Y-16610534D02*
X15667911Y-16658153D01*
X15667911Y-16658153D02*
X15658387Y-16696248D01*
X15658387Y-16696248D02*
X15648863Y-16715296D01*
X15648863Y-16715296D02*
X15639339Y-16724820D01*
X15639339Y-16724820D02*
X15620292Y-16734344D01*
X15620292Y-16734344D02*
X15601244Y-16734344D01*
X15601244Y-16734344D02*
X15582196Y-16724820D01*
X15582196Y-16724820D02*
X15572673Y-16715296D01*
X15572673Y-16715296D02*
X15563149Y-16696248D01*
X15563149Y-16696248D02*
X15553625Y-16658153D01*
X15553625Y-16658153D02*
X15553625Y-16610534D01*
X15553625Y-16610534D02*
X15563149Y-16572439D01*
X15563149Y-16572439D02*
X15572673Y-16553391D01*
X15572673Y-16553391D02*
X15582196Y-16543868D01*
X15582196Y-16543868D02*
X15601244Y-16534344D01*
X15753625Y-16715296D02*
X15763149Y-16724820D01*
X15763149Y-16724820D02*
X15753625Y-16734344D01*
X15753625Y-16734344D02*
X15744101Y-16724820D01*
X15744101Y-16724820D02*
X15753625Y-16715296D01*
X15753625Y-16715296D02*
X15753625Y-16734344D01*
X15886958Y-16534344D02*
X15906006Y-16534344D01*
X15906006Y-16534344D02*
X15925054Y-16543868D01*
X15925054Y-16543868D02*
X15934577Y-16553391D01*
X15934577Y-16553391D02*
X15944101Y-16572439D01*
X15944101Y-16572439D02*
X15953625Y-16610534D01*
X15953625Y-16610534D02*
X15953625Y-16658153D01*
X15953625Y-16658153D02*
X15944101Y-16696248D01*
X15944101Y-16696248D02*
X15934577Y-16715296D01*
X15934577Y-16715296D02*
X15925054Y-16724820D01*
X15925054Y-16724820D02*
X15906006Y-16734344D01*
X15906006Y-16734344D02*
X15886958Y-16734344D01*
X15886958Y-16734344D02*
X15867911Y-16724820D01*
X15867911Y-16724820D02*
X15858387Y-16715296D01*
X15858387Y-16715296D02*
X15848863Y-16696248D01*
X15848863Y-16696248D02*
X15839339Y-16658153D01*
X15839339Y-16658153D02*
X15839339Y-16610534D01*
X15839339Y-16610534D02*
X15848863Y-16572439D01*
X15848863Y-16572439D02*
X15858387Y-16553391D01*
X15858387Y-16553391D02*
X15867911Y-16543868D01*
X15867911Y-16543868D02*
X15886958Y-16534344D01*
X16048863Y-16734344D02*
X16086958Y-16734344D01*
X16086958Y-16734344D02*
X16106006Y-16724820D01*
X16106006Y-16724820D02*
X16115530Y-16715296D01*
X16115530Y-16715296D02*
X16134577Y-16686725D01*
X16134577Y-16686725D02*
X16144101Y-16648629D01*
X16144101Y-16648629D02*
X16144101Y-16572439D01*
X16144101Y-16572439D02*
X16134577Y-16553391D01*
X16134577Y-16553391D02*
X16125054Y-16543868D01*
X16125054Y-16543868D02*
X16106006Y-16534344D01*
X16106006Y-16534344D02*
X16067911Y-16534344D01*
X16067911Y-16534344D02*
X16048863Y-16543868D01*
X16048863Y-16543868D02*
X16039339Y-16553391D01*
X16039339Y-16553391D02*
X16029816Y-16572439D01*
X16029816Y-16572439D02*
X16029816Y-16620058D01*
X16029816Y-16620058D02*
X16039339Y-16639106D01*
X16039339Y-16639106D02*
X16048863Y-16648629D01*
X16048863Y-16648629D02*
X16067911Y-16658153D01*
X16067911Y-16658153D02*
X16106006Y-16658153D01*
X16106006Y-16658153D02*
X16125054Y-16648629D01*
X16125054Y-16648629D02*
X16134577Y-16639106D01*
X16134577Y-16639106D02*
X16144101Y-16620058D01*
X16258387Y-16620058D02*
X16239339Y-16610534D01*
X16239339Y-16610534D02*
X16229816Y-16601010D01*
X16229816Y-16601010D02*
X16220292Y-16581963D01*
X16220292Y-16581963D02*
X16220292Y-16572439D01*
X16220292Y-16572439D02*
X16229816Y-16553391D01*
X16229816Y-16553391D02*
X16239339Y-16543868D01*
X16239339Y-16543868D02*
X16258387Y-16534344D01*
X16258387Y-16534344D02*
X16296482Y-16534344D01*
X16296482Y-16534344D02*
X16315530Y-16543868D01*
X16315530Y-16543868D02*
X16325054Y-16553391D01*
X16325054Y-16553391D02*
X16334577Y-16572439D01*
X16334577Y-16572439D02*
X16334577Y-16581963D01*
X16334577Y-16581963D02*
X16325054Y-16601010D01*
X16325054Y-16601010D02*
X16315530Y-16610534D01*
X16315530Y-16610534D02*
X16296482Y-16620058D01*
X16296482Y-16620058D02*
X16258387Y-16620058D01*
X16258387Y-16620058D02*
X16239339Y-16629582D01*
X16239339Y-16629582D02*
X16229816Y-16639106D01*
X16229816Y-16639106D02*
X16220292Y-16658153D01*
X16220292Y-16658153D02*
X16220292Y-16696248D01*
X16220292Y-16696248D02*
X16229816Y-16715296D01*
X16229816Y-16715296D02*
X16239339Y-16724820D01*
X16239339Y-16724820D02*
X16258387Y-16734344D01*
X16258387Y-16734344D02*
X16296482Y-16734344D01*
X16296482Y-16734344D02*
X16315530Y-16724820D01*
X16315530Y-16724820D02*
X16325054Y-16715296D01*
X16325054Y-16715296D02*
X16334577Y-16696248D01*
X16334577Y-16696248D02*
X16334577Y-16658153D01*
X16334577Y-16658153D02*
X16325054Y-16639106D01*
X16325054Y-16639106D02*
X16315530Y-16629582D01*
X16315530Y-16629582D02*
X16296482Y-16620058D01*
X16506006Y-16601010D02*
X16506006Y-16734344D01*
X16458387Y-16524820D02*
X16410768Y-16667677D01*
X16410768Y-16667677D02*
X16534577Y-16667677D01*
X16601244Y-16534344D02*
X16601244Y-16572439D01*
X16677435Y-16534344D02*
X16677435Y-16572439D01*
X16972673Y-16810534D02*
X16963149Y-16801010D01*
X16963149Y-16801010D02*
X16944101Y-16772439D01*
X16944101Y-16772439D02*
X16934578Y-16753391D01*
X16934578Y-16753391D02*
X16925054Y-16724820D01*
X16925054Y-16724820D02*
X16915530Y-16677201D01*
X16915530Y-16677201D02*
X16915530Y-16639106D01*
X16915530Y-16639106D02*
X16925054Y-16591487D01*
X16925054Y-16591487D02*
X16934578Y-16562915D01*
X16934578Y-16562915D02*
X16944101Y-16543868D01*
X16944101Y-16543868D02*
X16963149Y-16515296D01*
X16963149Y-16515296D02*
X16972673Y-16505772D01*
X17039340Y-16553391D02*
X17048863Y-16543868D01*
X17048863Y-16543868D02*
X17067911Y-16534344D01*
X17067911Y-16534344D02*
X17115530Y-16534344D01*
X17115530Y-16534344D02*
X17134578Y-16543868D01*
X17134578Y-16543868D02*
X17144101Y-16553391D01*
X17144101Y-16553391D02*
X17153625Y-16572439D01*
X17153625Y-16572439D02*
X17153625Y-16591487D01*
X17153625Y-16591487D02*
X17144101Y-16620058D01*
X17144101Y-16620058D02*
X17029816Y-16734344D01*
X17029816Y-16734344D02*
X17153625Y-16734344D01*
X17391721Y-16734344D02*
X17391721Y-16534344D01*
X17477435Y-16734344D02*
X17477435Y-16629582D01*
X17477435Y-16629582D02*
X17467911Y-16610534D01*
X17467911Y-16610534D02*
X17448863Y-16601010D01*
X17448863Y-16601010D02*
X17420292Y-16601010D01*
X17420292Y-16601010D02*
X17401244Y-16610534D01*
X17401244Y-16610534D02*
X17391721Y-16620058D01*
X17601244Y-16734344D02*
X17582197Y-16724820D01*
X17582197Y-16724820D02*
X17572673Y-16715296D01*
X17572673Y-16715296D02*
X17563149Y-16696248D01*
X17563149Y-16696248D02*
X17563149Y-16639106D01*
X17563149Y-16639106D02*
X17572673Y-16620058D01*
X17572673Y-16620058D02*
X17582197Y-16610534D01*
X17582197Y-16610534D02*
X17601244Y-16601010D01*
X17601244Y-16601010D02*
X17629816Y-16601010D01*
X17629816Y-16601010D02*
X17648863Y-16610534D01*
X17648863Y-16610534D02*
X17658387Y-16620058D01*
X17658387Y-16620058D02*
X17667911Y-16639106D01*
X17667911Y-16639106D02*
X17667911Y-16696248D01*
X17667911Y-16696248D02*
X17658387Y-16715296D01*
X17658387Y-16715296D02*
X17648863Y-16724820D01*
X17648863Y-16724820D02*
X17629816Y-16734344D01*
X17629816Y-16734344D02*
X17601244Y-16734344D01*
X17782197Y-16734344D02*
X17763149Y-16724820D01*
X17763149Y-16724820D02*
X17753625Y-16705772D01*
X17753625Y-16705772D02*
X17753625Y-16534344D01*
X17934578Y-16724820D02*
X17915530Y-16734344D01*
X17915530Y-16734344D02*
X17877435Y-16734344D01*
X17877435Y-16734344D02*
X17858387Y-16724820D01*
X17858387Y-16724820D02*
X17848863Y-16705772D01*
X17848863Y-16705772D02*
X17848863Y-16629582D01*
X17848863Y-16629582D02*
X17858387Y-16610534D01*
X17858387Y-16610534D02*
X17877435Y-16601010D01*
X17877435Y-16601010D02*
X17915530Y-16601010D01*
X17915530Y-16601010D02*
X17934578Y-16610534D01*
X17934578Y-16610534D02*
X17944102Y-16629582D01*
X17944102Y-16629582D02*
X17944102Y-16648629D01*
X17944102Y-16648629D02*
X17848863Y-16667677D01*
X18020292Y-16724820D02*
X18039340Y-16734344D01*
X18039340Y-16734344D02*
X18077435Y-16734344D01*
X18077435Y-16734344D02*
X18096483Y-16724820D01*
X18096483Y-16724820D02*
X18106006Y-16705772D01*
X18106006Y-16705772D02*
X18106006Y-16696248D01*
X18106006Y-16696248D02*
X18096483Y-16677201D01*
X18096483Y-16677201D02*
X18077435Y-16667677D01*
X18077435Y-16667677D02*
X18048863Y-16667677D01*
X18048863Y-16667677D02*
X18029816Y-16658153D01*
X18029816Y-16658153D02*
X18020292Y-16639106D01*
X18020292Y-16639106D02*
X18020292Y-16629582D01*
X18020292Y-16629582D02*
X18029816Y-16610534D01*
X18029816Y-16610534D02*
X18048863Y-16601010D01*
X18048863Y-16601010D02*
X18077435Y-16601010D01*
X18077435Y-16601010D02*
X18096483Y-16610534D01*
X18172673Y-16810534D02*
X18182197Y-16801010D01*
X18182197Y-16801010D02*
X18201244Y-16772439D01*
X18201244Y-16772439D02*
X18210768Y-16753391D01*
X18210768Y-16753391D02*
X18220292Y-16724820D01*
X18220292Y-16724820D02*
X18229816Y-16677201D01*
X18229816Y-16677201D02*
X18229816Y-16639106D01*
X18229816Y-16639106D02*
X18220292Y-16591487D01*
X18220292Y-16591487D02*
X18210768Y-16562915D01*
X18210768Y-16562915D02*
X18201244Y-16543868D01*
X18201244Y-16543868D02*
X18182197Y-16515296D01*
X18182197Y-16515296D02*
X18172673Y-16505772D01*
X18534578Y-16810534D02*
X18525054Y-16801010D01*
X18525054Y-16801010D02*
X18506006Y-16772439D01*
X18506006Y-16772439D02*
X18496483Y-16753391D01*
X18496483Y-16753391D02*
X18486959Y-16724820D01*
X18486959Y-16724820D02*
X18477435Y-16677201D01*
X18477435Y-16677201D02*
X18477435Y-16639106D01*
X18477435Y-16639106D02*
X18486959Y-16591487D01*
X18486959Y-16591487D02*
X18496483Y-16562915D01*
X18496483Y-16562915D02*
X18506006Y-16543868D01*
X18506006Y-16543868D02*
X18525054Y-16515296D01*
X18525054Y-16515296D02*
X18534578Y-16505772D01*
X18610768Y-16601010D02*
X18610768Y-16734344D01*
X18610768Y-16620058D02*
X18620292Y-16610534D01*
X18620292Y-16610534D02*
X18639340Y-16601010D01*
X18639340Y-16601010D02*
X18667911Y-16601010D01*
X18667911Y-16601010D02*
X18686959Y-16610534D01*
X18686959Y-16610534D02*
X18696483Y-16629582D01*
X18696483Y-16629582D02*
X18696483Y-16734344D01*
X18820292Y-16734344D02*
X18801244Y-16724820D01*
X18801244Y-16724820D02*
X18791721Y-16715296D01*
X18791721Y-16715296D02*
X18782197Y-16696248D01*
X18782197Y-16696248D02*
X18782197Y-16639106D01*
X18782197Y-16639106D02*
X18791721Y-16620058D01*
X18791721Y-16620058D02*
X18801244Y-16610534D01*
X18801244Y-16610534D02*
X18820292Y-16601010D01*
X18820292Y-16601010D02*
X18848864Y-16601010D01*
X18848864Y-16601010D02*
X18867911Y-16610534D01*
X18867911Y-16610534D02*
X18877435Y-16620058D01*
X18877435Y-16620058D02*
X18886959Y-16639106D01*
X18886959Y-16639106D02*
X18886959Y-16696248D01*
X18886959Y-16696248D02*
X18877435Y-16715296D01*
X18877435Y-16715296D02*
X18867911Y-16724820D01*
X18867911Y-16724820D02*
X18848864Y-16734344D01*
X18848864Y-16734344D02*
X18820292Y-16734344D01*
X18944102Y-16601010D02*
X19020292Y-16601010D01*
X18972673Y-16534344D02*
X18972673Y-16705772D01*
X18972673Y-16705772D02*
X18982197Y-16724820D01*
X18982197Y-16724820D02*
X19001244Y-16734344D01*
X19001244Y-16734344D02*
X19020292Y-16734344D01*
X19239340Y-16601010D02*
X19239340Y-16801010D01*
X19239340Y-16610534D02*
X19258387Y-16601010D01*
X19258387Y-16601010D02*
X19296483Y-16601010D01*
X19296483Y-16601010D02*
X19315530Y-16610534D01*
X19315530Y-16610534D02*
X19325054Y-16620058D01*
X19325054Y-16620058D02*
X19334578Y-16639106D01*
X19334578Y-16639106D02*
X19334578Y-16696248D01*
X19334578Y-16696248D02*
X19325054Y-16715296D01*
X19325054Y-16715296D02*
X19315530Y-16724820D01*
X19315530Y-16724820D02*
X19296483Y-16734344D01*
X19296483Y-16734344D02*
X19258387Y-16734344D01*
X19258387Y-16734344D02*
X19239340Y-16724820D01*
X19448864Y-16734344D02*
X19429816Y-16724820D01*
X19429816Y-16724820D02*
X19420292Y-16705772D01*
X19420292Y-16705772D02*
X19420292Y-16534344D01*
X19610768Y-16734344D02*
X19610768Y-16629582D01*
X19610768Y-16629582D02*
X19601245Y-16610534D01*
X19601245Y-16610534D02*
X19582197Y-16601010D01*
X19582197Y-16601010D02*
X19544102Y-16601010D01*
X19544102Y-16601010D02*
X19525054Y-16610534D01*
X19610768Y-16724820D02*
X19591721Y-16734344D01*
X19591721Y-16734344D02*
X19544102Y-16734344D01*
X19544102Y-16734344D02*
X19525054Y-16724820D01*
X19525054Y-16724820D02*
X19515530Y-16705772D01*
X19515530Y-16705772D02*
X19515530Y-16686725D01*
X19515530Y-16686725D02*
X19525054Y-16667677D01*
X19525054Y-16667677D02*
X19544102Y-16658153D01*
X19544102Y-16658153D02*
X19591721Y-16658153D01*
X19591721Y-16658153D02*
X19610768Y-16648629D01*
X19677435Y-16601010D02*
X19753625Y-16601010D01*
X19706006Y-16534344D02*
X19706006Y-16705772D01*
X19706006Y-16705772D02*
X19715530Y-16724820D01*
X19715530Y-16724820D02*
X19734578Y-16734344D01*
X19734578Y-16734344D02*
X19753625Y-16734344D01*
X19896483Y-16724820D02*
X19877435Y-16734344D01*
X19877435Y-16734344D02*
X19839340Y-16734344D01*
X19839340Y-16734344D02*
X19820292Y-16724820D01*
X19820292Y-16724820D02*
X19810768Y-16705772D01*
X19810768Y-16705772D02*
X19810768Y-16629582D01*
X19810768Y-16629582D02*
X19820292Y-16610534D01*
X19820292Y-16610534D02*
X19839340Y-16601010D01*
X19839340Y-16601010D02*
X19877435Y-16601010D01*
X19877435Y-16601010D02*
X19896483Y-16610534D01*
X19896483Y-16610534D02*
X19906006Y-16629582D01*
X19906006Y-16629582D02*
X19906006Y-16648629D01*
X19906006Y-16648629D02*
X19810768Y-16667677D01*
X20077435Y-16734344D02*
X20077435Y-16534344D01*
X20077435Y-16724820D02*
X20058387Y-16734344D01*
X20058387Y-16734344D02*
X20020292Y-16734344D01*
X20020292Y-16734344D02*
X20001245Y-16724820D01*
X20001245Y-16724820D02*
X19991721Y-16715296D01*
X19991721Y-16715296D02*
X19982197Y-16696248D01*
X19982197Y-16696248D02*
X19982197Y-16639106D01*
X19982197Y-16639106D02*
X19991721Y-16620058D01*
X19991721Y-16620058D02*
X20001245Y-16610534D01*
X20001245Y-16610534D02*
X20020292Y-16601010D01*
X20020292Y-16601010D02*
X20058387Y-16601010D01*
X20058387Y-16601010D02*
X20077435Y-16610534D01*
X20153626Y-16810534D02*
X20163149Y-16801010D01*
X20163149Y-16801010D02*
X20182197Y-16772439D01*
X20182197Y-16772439D02*
X20191721Y-16753391D01*
X20191721Y-16753391D02*
X20201245Y-16724820D01*
X20201245Y-16724820D02*
X20210768Y-16677201D01*
X20210768Y-16677201D02*
X20210768Y-16639106D01*
X20210768Y-16639106D02*
X20201245Y-16591487D01*
X20201245Y-16591487D02*
X20191721Y-16562915D01*
X20191721Y-16562915D02*
X20182197Y-16543868D01*
X20182197Y-16543868D02*
X20163149Y-16515296D01*
X20163149Y-16515296D02*
X20153626Y-16505772D01*
X13397610Y-16962860D02*
G75*
G02*
X13197610Y-16962860I-100000J0D01*
G01*
X13197610Y-16962860D02*
G75*
G02*
X13397610Y-16962860I100000J0D01*
G01*
X13639339Y-16854344D02*
X13763149Y-16854344D01*
X13763149Y-16854344D02*
X13696482Y-16930534D01*
X13696482Y-16930534D02*
X13725053Y-16930534D01*
X13725053Y-16930534D02*
X13744101Y-16940058D01*
X13744101Y-16940058D02*
X13753625Y-16949582D01*
X13753625Y-16949582D02*
X13763149Y-16968630D01*
X13763149Y-16968630D02*
X13763149Y-17016249D01*
X13763149Y-17016249D02*
X13753625Y-17035296D01*
X13753625Y-17035296D02*
X13744101Y-17044820D01*
X13744101Y-17044820D02*
X13725053Y-17054344D01*
X13725053Y-17054344D02*
X13667911Y-17054344D01*
X13667911Y-17054344D02*
X13648863Y-17044820D01*
X13648863Y-17044820D02*
X13639339Y-17035296D01*
X13848863Y-17035296D02*
X13858387Y-17044820D01*
X13858387Y-17044820D02*
X13848863Y-17054344D01*
X13848863Y-17054344D02*
X13839339Y-17044820D01*
X13839339Y-17044820D02*
X13848863Y-17035296D01*
X13848863Y-17035296D02*
X13848863Y-17054344D01*
X13934577Y-16873391D02*
X13944101Y-16863868D01*
X13944101Y-16863868D02*
X13963149Y-16854344D01*
X13963149Y-16854344D02*
X14010768Y-16854344D01*
X14010768Y-16854344D02*
X14029815Y-16863868D01*
X14029815Y-16863868D02*
X14039339Y-16873391D01*
X14039339Y-16873391D02*
X14048863Y-16892439D01*
X14048863Y-16892439D02*
X14048863Y-16911487D01*
X14048863Y-16911487D02*
X14039339Y-16940058D01*
X14039339Y-16940058D02*
X13925053Y-17054344D01*
X13925053Y-17054344D02*
X14048863Y-17054344D01*
X14172672Y-16854344D02*
X14191720Y-16854344D01*
X14191720Y-16854344D02*
X14210768Y-16863868D01*
X14210768Y-16863868D02*
X14220292Y-16873391D01*
X14220292Y-16873391D02*
X14229815Y-16892439D01*
X14229815Y-16892439D02*
X14239339Y-16930534D01*
X14239339Y-16930534D02*
X14239339Y-16978153D01*
X14239339Y-16978153D02*
X14229815Y-17016249D01*
X14229815Y-17016249D02*
X14220292Y-17035296D01*
X14220292Y-17035296D02*
X14210768Y-17044820D01*
X14210768Y-17044820D02*
X14191720Y-17054344D01*
X14191720Y-17054344D02*
X14172672Y-17054344D01*
X14172672Y-17054344D02*
X14153625Y-17044820D01*
X14153625Y-17044820D02*
X14144101Y-17035296D01*
X14144101Y-17035296D02*
X14134577Y-17016249D01*
X14134577Y-17016249D02*
X14125053Y-16978153D01*
X14125053Y-16978153D02*
X14125053Y-16930534D01*
X14125053Y-16930534D02*
X14134577Y-16892439D01*
X14134577Y-16892439D02*
X14144101Y-16873391D01*
X14144101Y-16873391D02*
X14153625Y-16863868D01*
X14153625Y-16863868D02*
X14172672Y-16854344D01*
X14363149Y-16854344D02*
X14382196Y-16854344D01*
X14382196Y-16854344D02*
X14401244Y-16863868D01*
X14401244Y-16863868D02*
X14410768Y-16873391D01*
X14410768Y-16873391D02*
X14420292Y-16892439D01*
X14420292Y-16892439D02*
X14429815Y-16930534D01*
X14429815Y-16930534D02*
X14429815Y-16978153D01*
X14429815Y-16978153D02*
X14420292Y-17016249D01*
X14420292Y-17016249D02*
X14410768Y-17035296D01*
X14410768Y-17035296D02*
X14401244Y-17044820D01*
X14401244Y-17044820D02*
X14382196Y-17054344D01*
X14382196Y-17054344D02*
X14363149Y-17054344D01*
X14363149Y-17054344D02*
X14344101Y-17044820D01*
X14344101Y-17044820D02*
X14334577Y-17035296D01*
X14334577Y-17035296D02*
X14325053Y-17016249D01*
X14325053Y-17016249D02*
X14315530Y-16978153D01*
X14315530Y-16978153D02*
X14315530Y-16930534D01*
X14315530Y-16930534D02*
X14325053Y-16892439D01*
X14325053Y-16892439D02*
X14334577Y-16873391D01*
X14334577Y-16873391D02*
X14344101Y-16863868D01*
X14344101Y-16863868D02*
X14363149Y-16854344D01*
X14515530Y-17054344D02*
X14515530Y-16921010D01*
X14515530Y-16940058D02*
X14525053Y-16930534D01*
X14525053Y-16930534D02*
X14544101Y-16921010D01*
X14544101Y-16921010D02*
X14572673Y-16921010D01*
X14572673Y-16921010D02*
X14591720Y-16930534D01*
X14591720Y-16930534D02*
X14601244Y-16949582D01*
X14601244Y-16949582D02*
X14601244Y-17054344D01*
X14601244Y-16949582D02*
X14610768Y-16930534D01*
X14610768Y-16930534D02*
X14629815Y-16921010D01*
X14629815Y-16921010D02*
X14658387Y-16921010D01*
X14658387Y-16921010D02*
X14677434Y-16930534D01*
X14677434Y-16930534D02*
X14686958Y-16949582D01*
X14686958Y-16949582D02*
X14686958Y-17054344D01*
X14782196Y-17054344D02*
X14782196Y-16921010D01*
X14782196Y-16940058D02*
X14791720Y-16930534D01*
X14791720Y-16930534D02*
X14810768Y-16921010D01*
X14810768Y-16921010D02*
X14839339Y-16921010D01*
X14839339Y-16921010D02*
X14858387Y-16930534D01*
X14858387Y-16930534D02*
X14867911Y-16949582D01*
X14867911Y-16949582D02*
X14867911Y-17054344D01*
X14867911Y-16949582D02*
X14877434Y-16930534D01*
X14877434Y-16930534D02*
X14896482Y-16921010D01*
X14896482Y-16921010D02*
X14925053Y-16921010D01*
X14925053Y-16921010D02*
X14944101Y-16930534D01*
X14944101Y-16930534D02*
X14953625Y-16949582D01*
X14953625Y-16949582D02*
X14953625Y-17054344D01*
X15344101Y-16844820D02*
X15172673Y-17101963D01*
X15601244Y-16854344D02*
X15620292Y-16854344D01*
X15620292Y-16854344D02*
X15639339Y-16863868D01*
X15639339Y-16863868D02*
X15648863Y-16873391D01*
X15648863Y-16873391D02*
X15658387Y-16892439D01*
X15658387Y-16892439D02*
X15667911Y-16930534D01*
X15667911Y-16930534D02*
X15667911Y-16978153D01*
X15667911Y-16978153D02*
X15658387Y-17016249D01*
X15658387Y-17016249D02*
X15648863Y-17035296D01*
X15648863Y-17035296D02*
X15639339Y-17044820D01*
X15639339Y-17044820D02*
X15620292Y-17054344D01*
X15620292Y-17054344D02*
X15601244Y-17054344D01*
X15601244Y-17054344D02*
X15582196Y-17044820D01*
X15582196Y-17044820D02*
X15572673Y-17035296D01*
X15572673Y-17035296D02*
X15563149Y-17016249D01*
X15563149Y-17016249D02*
X15553625Y-16978153D01*
X15553625Y-16978153D02*
X15553625Y-16930534D01*
X15553625Y-16930534D02*
X15563149Y-16892439D01*
X15563149Y-16892439D02*
X15572673Y-16873391D01*
X15572673Y-16873391D02*
X15582196Y-16863868D01*
X15582196Y-16863868D02*
X15601244Y-16854344D01*
X15753625Y-17035296D02*
X15763149Y-17044820D01*
X15763149Y-17044820D02*
X15753625Y-17054344D01*
X15753625Y-17054344D02*
X15744101Y-17044820D01*
X15744101Y-17044820D02*
X15753625Y-17035296D01*
X15753625Y-17035296D02*
X15753625Y-17054344D01*
X15953625Y-17054344D02*
X15839339Y-17054344D01*
X15896482Y-17054344D02*
X15896482Y-16854344D01*
X15896482Y-16854344D02*
X15877435Y-16882915D01*
X15877435Y-16882915D02*
X15858387Y-16901963D01*
X15858387Y-16901963D02*
X15839339Y-16911487D01*
X16029816Y-16873391D02*
X16039339Y-16863868D01*
X16039339Y-16863868D02*
X16058387Y-16854344D01*
X16058387Y-16854344D02*
X16106006Y-16854344D01*
X16106006Y-16854344D02*
X16125054Y-16863868D01*
X16125054Y-16863868D02*
X16134577Y-16873391D01*
X16134577Y-16873391D02*
X16144101Y-16892439D01*
X16144101Y-16892439D02*
X16144101Y-16911487D01*
X16144101Y-16911487D02*
X16134577Y-16940058D01*
X16134577Y-16940058D02*
X16020292Y-17054344D01*
X16020292Y-17054344D02*
X16144101Y-17054344D01*
X16315530Y-16854344D02*
X16277435Y-16854344D01*
X16277435Y-16854344D02*
X16258387Y-16863868D01*
X16258387Y-16863868D02*
X16248863Y-16873391D01*
X16248863Y-16873391D02*
X16229816Y-16901963D01*
X16229816Y-16901963D02*
X16220292Y-16940058D01*
X16220292Y-16940058D02*
X16220292Y-17016249D01*
X16220292Y-17016249D02*
X16229816Y-17035296D01*
X16229816Y-17035296D02*
X16239339Y-17044820D01*
X16239339Y-17044820D02*
X16258387Y-17054344D01*
X16258387Y-17054344D02*
X16296482Y-17054344D01*
X16296482Y-17054344D02*
X16315530Y-17044820D01*
X16315530Y-17044820D02*
X16325054Y-17035296D01*
X16325054Y-17035296D02*
X16334577Y-17016249D01*
X16334577Y-17016249D02*
X16334577Y-16968630D01*
X16334577Y-16968630D02*
X16325054Y-16949582D01*
X16325054Y-16949582D02*
X16315530Y-16940058D01*
X16315530Y-16940058D02*
X16296482Y-16930534D01*
X16296482Y-16930534D02*
X16258387Y-16930534D01*
X16258387Y-16930534D02*
X16239339Y-16940058D01*
X16239339Y-16940058D02*
X16229816Y-16949582D01*
X16229816Y-16949582D02*
X16220292Y-16968630D01*
X16458387Y-16854344D02*
X16477435Y-16854344D01*
X16477435Y-16854344D02*
X16496482Y-16863868D01*
X16496482Y-16863868D02*
X16506006Y-16873391D01*
X16506006Y-16873391D02*
X16515530Y-16892439D01*
X16515530Y-16892439D02*
X16525054Y-16930534D01*
X16525054Y-16930534D02*
X16525054Y-16978153D01*
X16525054Y-16978153D02*
X16515530Y-17016249D01*
X16515530Y-17016249D02*
X16506006Y-17035296D01*
X16506006Y-17035296D02*
X16496482Y-17044820D01*
X16496482Y-17044820D02*
X16477435Y-17054344D01*
X16477435Y-17054344D02*
X16458387Y-17054344D01*
X16458387Y-17054344D02*
X16439339Y-17044820D01*
X16439339Y-17044820D02*
X16429816Y-17035296D01*
X16429816Y-17035296D02*
X16420292Y-17016249D01*
X16420292Y-17016249D02*
X16410768Y-16978153D01*
X16410768Y-16978153D02*
X16410768Y-16930534D01*
X16410768Y-16930534D02*
X16420292Y-16892439D01*
X16420292Y-16892439D02*
X16429816Y-16873391D01*
X16429816Y-16873391D02*
X16439339Y-16863868D01*
X16439339Y-16863868D02*
X16458387Y-16854344D01*
X16601244Y-16854344D02*
X16601244Y-16892439D01*
X16677435Y-16854344D02*
X16677435Y-16892439D01*
X16972673Y-17130534D02*
X16963149Y-17121010D01*
X16963149Y-17121010D02*
X16944101Y-17092439D01*
X16944101Y-17092439D02*
X16934578Y-17073391D01*
X16934578Y-17073391D02*
X16925054Y-17044820D01*
X16925054Y-17044820D02*
X16915530Y-16997201D01*
X16915530Y-16997201D02*
X16915530Y-16959106D01*
X16915530Y-16959106D02*
X16925054Y-16911487D01*
X16925054Y-16911487D02*
X16934578Y-16882915D01*
X16934578Y-16882915D02*
X16944101Y-16863868D01*
X16944101Y-16863868D02*
X16963149Y-16835296D01*
X16963149Y-16835296D02*
X16972673Y-16825772D01*
X17039340Y-16873391D02*
X17048863Y-16863868D01*
X17048863Y-16863868D02*
X17067911Y-16854344D01*
X17067911Y-16854344D02*
X17115530Y-16854344D01*
X17115530Y-16854344D02*
X17134578Y-16863868D01*
X17134578Y-16863868D02*
X17144101Y-16873391D01*
X17144101Y-16873391D02*
X17153625Y-16892439D01*
X17153625Y-16892439D02*
X17153625Y-16911487D01*
X17153625Y-16911487D02*
X17144101Y-16940058D01*
X17144101Y-16940058D02*
X17029816Y-17054344D01*
X17029816Y-17054344D02*
X17153625Y-17054344D01*
X17391721Y-17054344D02*
X17391721Y-16854344D01*
X17477435Y-17054344D02*
X17477435Y-16949582D01*
X17477435Y-16949582D02*
X17467911Y-16930534D01*
X17467911Y-16930534D02*
X17448863Y-16921010D01*
X17448863Y-16921010D02*
X17420292Y-16921010D01*
X17420292Y-16921010D02*
X17401244Y-16930534D01*
X17401244Y-16930534D02*
X17391721Y-16940058D01*
X17601244Y-17054344D02*
X17582197Y-17044820D01*
X17582197Y-17044820D02*
X17572673Y-17035296D01*
X17572673Y-17035296D02*
X17563149Y-17016249D01*
X17563149Y-17016249D02*
X17563149Y-16959106D01*
X17563149Y-16959106D02*
X17572673Y-16940058D01*
X17572673Y-16940058D02*
X17582197Y-16930534D01*
X17582197Y-16930534D02*
X17601244Y-16921010D01*
X17601244Y-16921010D02*
X17629816Y-16921010D01*
X17629816Y-16921010D02*
X17648863Y-16930534D01*
X17648863Y-16930534D02*
X17658387Y-16940058D01*
X17658387Y-16940058D02*
X17667911Y-16959106D01*
X17667911Y-16959106D02*
X17667911Y-17016249D01*
X17667911Y-17016249D02*
X17658387Y-17035296D01*
X17658387Y-17035296D02*
X17648863Y-17044820D01*
X17648863Y-17044820D02*
X17629816Y-17054344D01*
X17629816Y-17054344D02*
X17601244Y-17054344D01*
X17782197Y-17054344D02*
X17763149Y-17044820D01*
X17763149Y-17044820D02*
X17753625Y-17025772D01*
X17753625Y-17025772D02*
X17753625Y-16854344D01*
X17934578Y-17044820D02*
X17915530Y-17054344D01*
X17915530Y-17054344D02*
X17877435Y-17054344D01*
X17877435Y-17054344D02*
X17858387Y-17044820D01*
X17858387Y-17044820D02*
X17848863Y-17025772D01*
X17848863Y-17025772D02*
X17848863Y-16949582D01*
X17848863Y-16949582D02*
X17858387Y-16930534D01*
X17858387Y-16930534D02*
X17877435Y-16921010D01*
X17877435Y-16921010D02*
X17915530Y-16921010D01*
X17915530Y-16921010D02*
X17934578Y-16930534D01*
X17934578Y-16930534D02*
X17944102Y-16949582D01*
X17944102Y-16949582D02*
X17944102Y-16968630D01*
X17944102Y-16968630D02*
X17848863Y-16987677D01*
X18020292Y-17044820D02*
X18039340Y-17054344D01*
X18039340Y-17054344D02*
X18077435Y-17054344D01*
X18077435Y-17054344D02*
X18096483Y-17044820D01*
X18096483Y-17044820D02*
X18106006Y-17025772D01*
X18106006Y-17025772D02*
X18106006Y-17016249D01*
X18106006Y-17016249D02*
X18096483Y-16997201D01*
X18096483Y-16997201D02*
X18077435Y-16987677D01*
X18077435Y-16987677D02*
X18048863Y-16987677D01*
X18048863Y-16987677D02*
X18029816Y-16978153D01*
X18029816Y-16978153D02*
X18020292Y-16959106D01*
X18020292Y-16959106D02*
X18020292Y-16949582D01*
X18020292Y-16949582D02*
X18029816Y-16930534D01*
X18029816Y-16930534D02*
X18048863Y-16921010D01*
X18048863Y-16921010D02*
X18077435Y-16921010D01*
X18077435Y-16921010D02*
X18096483Y-16930534D01*
X18172673Y-17130534D02*
X18182197Y-17121010D01*
X18182197Y-17121010D02*
X18201244Y-17092439D01*
X18201244Y-17092439D02*
X18210768Y-17073391D01*
X18210768Y-17073391D02*
X18220292Y-17044820D01*
X18220292Y-17044820D02*
X18229816Y-16997201D01*
X18229816Y-16997201D02*
X18229816Y-16959106D01*
X18229816Y-16959106D02*
X18220292Y-16911487D01*
X18220292Y-16911487D02*
X18210768Y-16882915D01*
X18210768Y-16882915D02*
X18201244Y-16863868D01*
X18201244Y-16863868D02*
X18182197Y-16835296D01*
X18182197Y-16835296D02*
X18172673Y-16825772D01*
X18534578Y-17130534D02*
X18525054Y-17121010D01*
X18525054Y-17121010D02*
X18506006Y-17092439D01*
X18506006Y-17092439D02*
X18496483Y-17073391D01*
X18496483Y-17073391D02*
X18486959Y-17044820D01*
X18486959Y-17044820D02*
X18477435Y-16997201D01*
X18477435Y-16997201D02*
X18477435Y-16959106D01*
X18477435Y-16959106D02*
X18486959Y-16911487D01*
X18486959Y-16911487D02*
X18496483Y-16882915D01*
X18496483Y-16882915D02*
X18506006Y-16863868D01*
X18506006Y-16863868D02*
X18525054Y-16835296D01*
X18525054Y-16835296D02*
X18534578Y-16825772D01*
X18610768Y-16921010D02*
X18610768Y-17054344D01*
X18610768Y-16940058D02*
X18620292Y-16930534D01*
X18620292Y-16930534D02*
X18639340Y-16921010D01*
X18639340Y-16921010D02*
X18667911Y-16921010D01*
X18667911Y-16921010D02*
X18686959Y-16930534D01*
X18686959Y-16930534D02*
X18696483Y-16949582D01*
X18696483Y-16949582D02*
X18696483Y-17054344D01*
X18820292Y-17054344D02*
X18801244Y-17044820D01*
X18801244Y-17044820D02*
X18791721Y-17035296D01*
X18791721Y-17035296D02*
X18782197Y-17016249D01*
X18782197Y-17016249D02*
X18782197Y-16959106D01*
X18782197Y-16959106D02*
X18791721Y-16940058D01*
X18791721Y-16940058D02*
X18801244Y-16930534D01*
X18801244Y-16930534D02*
X18820292Y-16921010D01*
X18820292Y-16921010D02*
X18848864Y-16921010D01*
X18848864Y-16921010D02*
X18867911Y-16930534D01*
X18867911Y-16930534D02*
X18877435Y-16940058D01*
X18877435Y-16940058D02*
X18886959Y-16959106D01*
X18886959Y-16959106D02*
X18886959Y-17016249D01*
X18886959Y-17016249D02*
X18877435Y-17035296D01*
X18877435Y-17035296D02*
X18867911Y-17044820D01*
X18867911Y-17044820D02*
X18848864Y-17054344D01*
X18848864Y-17054344D02*
X18820292Y-17054344D01*
X18944102Y-16921010D02*
X19020292Y-16921010D01*
X18972673Y-16854344D02*
X18972673Y-17025772D01*
X18972673Y-17025772D02*
X18982197Y-17044820D01*
X18982197Y-17044820D02*
X19001244Y-17054344D01*
X19001244Y-17054344D02*
X19020292Y-17054344D01*
X19239340Y-16921010D02*
X19239340Y-17121010D01*
X19239340Y-16930534D02*
X19258387Y-16921010D01*
X19258387Y-16921010D02*
X19296483Y-16921010D01*
X19296483Y-16921010D02*
X19315530Y-16930534D01*
X19315530Y-16930534D02*
X19325054Y-16940058D01*
X19325054Y-16940058D02*
X19334578Y-16959106D01*
X19334578Y-16959106D02*
X19334578Y-17016249D01*
X19334578Y-17016249D02*
X19325054Y-17035296D01*
X19325054Y-17035296D02*
X19315530Y-17044820D01*
X19315530Y-17044820D02*
X19296483Y-17054344D01*
X19296483Y-17054344D02*
X19258387Y-17054344D01*
X19258387Y-17054344D02*
X19239340Y-17044820D01*
X19448864Y-17054344D02*
X19429816Y-17044820D01*
X19429816Y-17044820D02*
X19420292Y-17025772D01*
X19420292Y-17025772D02*
X19420292Y-16854344D01*
X19610768Y-17054344D02*
X19610768Y-16949582D01*
X19610768Y-16949582D02*
X19601245Y-16930534D01*
X19601245Y-16930534D02*
X19582197Y-16921010D01*
X19582197Y-16921010D02*
X19544102Y-16921010D01*
X19544102Y-16921010D02*
X19525054Y-16930534D01*
X19610768Y-17044820D02*
X19591721Y-17054344D01*
X19591721Y-17054344D02*
X19544102Y-17054344D01*
X19544102Y-17054344D02*
X19525054Y-17044820D01*
X19525054Y-17044820D02*
X19515530Y-17025772D01*
X19515530Y-17025772D02*
X19515530Y-17006725D01*
X19515530Y-17006725D02*
X19525054Y-16987677D01*
X19525054Y-16987677D02*
X19544102Y-16978153D01*
X19544102Y-16978153D02*
X19591721Y-16978153D01*
X19591721Y-16978153D02*
X19610768Y-16968630D01*
X19677435Y-16921010D02*
X19753625Y-16921010D01*
X19706006Y-16854344D02*
X19706006Y-17025772D01*
X19706006Y-17025772D02*
X19715530Y-17044820D01*
X19715530Y-17044820D02*
X19734578Y-17054344D01*
X19734578Y-17054344D02*
X19753625Y-17054344D01*
X19896483Y-17044820D02*
X19877435Y-17054344D01*
X19877435Y-17054344D02*
X19839340Y-17054344D01*
X19839340Y-17054344D02*
X19820292Y-17044820D01*
X19820292Y-17044820D02*
X19810768Y-17025772D01*
X19810768Y-17025772D02*
X19810768Y-16949582D01*
X19810768Y-16949582D02*
X19820292Y-16930534D01*
X19820292Y-16930534D02*
X19839340Y-16921010D01*
X19839340Y-16921010D02*
X19877435Y-16921010D01*
X19877435Y-16921010D02*
X19896483Y-16930534D01*
X19896483Y-16930534D02*
X19906006Y-16949582D01*
X19906006Y-16949582D02*
X19906006Y-16968630D01*
X19906006Y-16968630D02*
X19810768Y-16987677D01*
X20077435Y-17054344D02*
X20077435Y-16854344D01*
X20077435Y-17044820D02*
X20058387Y-17054344D01*
X20058387Y-17054344D02*
X20020292Y-17054344D01*
X20020292Y-17054344D02*
X20001245Y-17044820D01*
X20001245Y-17044820D02*
X19991721Y-17035296D01*
X19991721Y-17035296D02*
X19982197Y-17016249D01*
X19982197Y-17016249D02*
X19982197Y-16959106D01*
X19982197Y-16959106D02*
X19991721Y-16940058D01*
X19991721Y-16940058D02*
X20001245Y-16930534D01*
X20001245Y-16930534D02*
X20020292Y-16921010D01*
X20020292Y-16921010D02*
X20058387Y-16921010D01*
X20058387Y-16921010D02*
X20077435Y-16930534D01*
X20153626Y-17130534D02*
X20163149Y-17121010D01*
X20163149Y-17121010D02*
X20182197Y-17092439D01*
X20182197Y-17092439D02*
X20191721Y-17073391D01*
X20191721Y-17073391D02*
X20201245Y-17044820D01*
X20201245Y-17044820D02*
X20210768Y-16997201D01*
X20210768Y-16997201D02*
X20210768Y-16959106D01*
X20210768Y-16959106D02*
X20201245Y-16911487D01*
X20201245Y-16911487D02*
X20191721Y-16882915D01*
X20191721Y-16882915D02*
X20182197Y-16863868D01*
X20182197Y-16863868D02*
X20163149Y-16835296D01*
X20163149Y-16835296D02*
X20153626Y-16825772D01*
M02*
