%TF.GenerationSoftware,KiCad,Pcbnew,8.0.2*%
%TF.CreationDate,2024-05-21T21:49:38+01:00*%
%TF.ProjectId,3ch mix 1.6,33636820-6d69-4782-9031-2e362e6b6963,rev?*%
%TF.SameCoordinates,Original*%
%TF.FileFunction,Soldermask,Bot*%
%TF.FilePolarity,Negative*%
%FSLAX46Y46*%
G04 Gerber Fmt 4.6, Leading zero omitted, Abs format (unit mm)*
G04 Created by KiCad (PCBNEW 8.0.2) date 2024-05-21 21:49:38*
%MOMM*%
%LPD*%
G01*
G04 APERTURE LIST*
G04 Aperture macros list*
%AMRoundRect*
0 Rectangle with rounded corners*
0 $1 Rounding radius*
0 $2 $3 $4 $5 $6 $7 $8 $9 X,Y pos of 4 corners*
0 Add a 4 corners polygon primitive as box body*
4,1,4,$2,$3,$4,$5,$6,$7,$8,$9,$2,$3,0*
0 Add four circle primitives for the rounded corners*
1,1,$1+$1,$2,$3*
1,1,$1+$1,$4,$5*
1,1,$1+$1,$6,$7*
1,1,$1+$1,$8,$9*
0 Add four rect primitives between the rounded corners*
20,1,$1+$1,$2,$3,$4,$5,0*
20,1,$1+$1,$4,$5,$6,$7,0*
20,1,$1+$1,$6,$7,$8,$9,0*
20,1,$1+$1,$8,$9,$2,$3,0*%
%AMFreePoly0*
4,1,17,0.298947,0.670921,0.670921,0.298947,0.685800,0.263026,0.685800,-0.263026,0.670921,-0.298947,0.298947,-0.670921,0.263026,-0.685800,-0.263026,-0.685800,-0.298947,-0.670921,-0.670921,-0.298947,-0.685800,-0.263026,-0.685800,0.263026,-0.670921,0.298947,-0.298947,0.670921,-0.263026,0.685800,0.263026,0.685800,0.298947,0.670921,0.298947,0.670921,$1*%
%AMFreePoly1*
4,1,17,0.404157,0.924921,0.924921,0.404157,0.939800,0.368236,0.939800,-0.368236,0.924921,-0.404157,0.404157,-0.924921,0.368236,-0.939800,-0.368236,-0.939800,-0.404157,-0.924921,-0.924921,-0.404157,-0.939800,-0.368236,-0.939800,0.368236,-0.924921,0.404157,-0.404157,0.924921,-0.368236,0.939800,0.368236,0.939800,0.404157,0.924921,0.404157,0.924921,$1*%
G04 Aperture macros list end*
%ADD10RoundRect,0.050800X-1.500000X-1.500000X1.500000X-1.500000X1.500000X1.500000X-1.500000X1.500000X0*%
%ADD11RoundRect,0.050800X-0.889000X-0.889000X0.889000X-0.889000X0.889000X0.889000X-0.889000X0.889000X0*%
%ADD12C,3.101600*%
%ADD13RoundRect,0.050800X1.092200X-1.092200X1.092200X1.092200X-1.092200X1.092200X-1.092200X-1.092200X0*%
%ADD14RoundRect,0.050800X-1.092200X-1.092200X1.092200X-1.092200X1.092200X1.092200X-1.092200X1.092200X0*%
%ADD15C,1.711200*%
%ADD16C,3.200000*%
%ADD17C,2.500000*%
%ADD18O,1.524000X2.946400*%
%ADD19RoundRect,0.050800X0.650000X0.800000X-0.650000X0.800000X-0.650000X-0.800000X0.650000X-0.800000X0*%
%ADD20RoundRect,0.050800X-0.650000X-0.800000X0.650000X-0.800000X0.650000X0.800000X-0.650000X0.800000X0*%
%ADD21RoundRect,0.050800X-0.800000X0.650000X-0.800000X-0.650000X0.800000X-0.650000X0.800000X0.650000X0*%
%ADD22O,1.701600X3.301600*%
%ADD23C,1.371600*%
%ADD24FreePoly0,0.000000*%
%ADD25RoundRect,0.050800X-0.812800X-0.812800X0.812800X-0.812800X0.812800X0.812800X-0.812800X0.812800X0*%
%ADD26RoundRect,0.050800X0.800000X-0.650000X0.800000X0.650000X-0.800000X0.650000X-0.800000X-0.650000X0*%
%ADD27FreePoly1,180.000000*%
%ADD28RoundRect,0.050800X0.889000X0.889000X-0.889000X0.889000X-0.889000X-0.889000X0.889000X-0.889000X0*%
G04 APERTURE END LIST*
D10*
%TO.C,IN1*%
X136301100Y-126803600D03*
D11*
X145701100Y-126803600D03*
D12*
X141001100Y-130103600D03*
X141001100Y-121903600D03*
%TD*%
D13*
%TO.C,POT3*%
X143501100Y-105003600D03*
D14*
X153501100Y-105003600D03*
D15*
X146001100Y-112003600D03*
X148501100Y-112003600D03*
X151001100Y-112003600D03*
%TD*%
D13*
%TO.C,POT2*%
X143501100Y-80003600D03*
D14*
X153501100Y-80003600D03*
D15*
X146001100Y-87003600D03*
X148501100Y-87003600D03*
X151001100Y-87003600D03*
%TD*%
D16*
%TO.C,@HOLE3*%
X137565100Y-116569600D03*
%TD*%
D10*
%TO.C,IN3*%
X136301100Y-154803600D03*
D11*
X145701100Y-154803600D03*
D12*
X141001100Y-158103600D03*
X141001100Y-149903600D03*
%TD*%
D10*
%TO.C,OUT1*%
X151301100Y-126803600D03*
D11*
X160701100Y-126803600D03*
D12*
X156001100Y-130103600D03*
X156001100Y-121903600D03*
%TD*%
D17*
%TO.C,@HOLE0*%
X156043600Y-154034600D03*
%TD*%
D13*
%TO.C,POT1*%
X143501100Y-55003600D03*
D14*
X153501100Y-55003600D03*
D15*
X146001100Y-62003600D03*
X148501100Y-62003600D03*
X151001100Y-62003600D03*
%TD*%
D10*
%TO.C,OUT3*%
X151301100Y-154803600D03*
D11*
X160701100Y-154803600D03*
D12*
X156001100Y-158103600D03*
X156001100Y-149903600D03*
%TD*%
D17*
%TO.C,@HOLE1*%
X140994100Y-154034600D03*
%TD*%
D18*
%TO.C,IC2*%
X152043100Y-65261600D03*
X149503100Y-65261600D03*
X146963100Y-65261600D03*
X144423100Y-65261600D03*
X141883100Y-65261600D03*
X139343100Y-65261600D03*
X136803100Y-65261600D03*
X136803100Y-72881600D03*
X139343100Y-72881600D03*
X141883100Y-72881600D03*
X144423100Y-72881600D03*
X146963100Y-72881600D03*
X149503100Y-72881600D03*
X152043100Y-72881600D03*
%TD*%
D10*
%TO.C,IN2*%
X136301100Y-140803600D03*
D11*
X145701100Y-140803600D03*
D12*
X141001100Y-144103600D03*
X141001100Y-135903600D03*
%TD*%
D10*
%TO.C,OUT2*%
X151301100Y-140803600D03*
D11*
X160701100Y-140803600D03*
D12*
X156001100Y-144103600D03*
X156001100Y-135903600D03*
%TD*%
D18*
%TO.C,IC1*%
X152297100Y-90153600D03*
X149757100Y-90153600D03*
X147217100Y-90153600D03*
X144677100Y-90153600D03*
X142137100Y-90153600D03*
X139597100Y-90153600D03*
X137057100Y-90153600D03*
X137057100Y-97773600D03*
X139597100Y-97773600D03*
X142137100Y-97773600D03*
X144677100Y-97773600D03*
X147217100Y-97773600D03*
X149757100Y-97773600D03*
X152297100Y-97773600D03*
%TD*%
D16*
%TO.C,@HOLE2*%
X159663100Y-53069600D03*
%TD*%
D19*
%TO.C,R21*%
X139073100Y-69071600D03*
X137073100Y-69071600D03*
%TD*%
D20*
%TO.C,R20*%
X137073100Y-76691600D03*
X139073100Y-76691600D03*
%TD*%
D19*
%TO.C,R17*%
X149487100Y-77453600D03*
X147487100Y-77453600D03*
%TD*%
D21*
%TO.C,R2*%
X161187100Y-94487600D03*
X161187100Y-96487600D03*
%TD*%
D19*
%TO.C,C5*%
X143137100Y-86343600D03*
X141137100Y-86343600D03*
%TD*%
D22*
%TO.C,D1*%
X157123100Y-81136600D03*
X157123100Y-90026600D03*
%TD*%
D20*
%TO.C,R11*%
X143169100Y-69071600D03*
X145169100Y-69071600D03*
%TD*%
D19*
%TO.C,R23*%
X137803100Y-58149600D03*
X135803100Y-58149600D03*
%TD*%
%TO.C,C11*%
X151265100Y-58911600D03*
X149265100Y-58911600D03*
%TD*%
D20*
%TO.C,R16*%
X137327100Y-108187600D03*
X139327100Y-108187600D03*
%TD*%
D19*
%TO.C,C12*%
X137803100Y-61451600D03*
X135803100Y-61451600D03*
%TD*%
D23*
%TO.C,C4*%
X158139100Y-110473600D03*
D24*
X160171100Y-110473600D03*
%TD*%
D21*
%TO.C,R1*%
X157123100Y-94487600D03*
X157123100Y-96487600D03*
%TD*%
D19*
%TO.C,R10*%
X144153100Y-93963600D03*
X142153100Y-93963600D03*
%TD*%
D20*
%TO.C,R18*%
X137073100Y-83295600D03*
X139073100Y-83295600D03*
%TD*%
D22*
%TO.C,D2*%
X161187100Y-81136600D03*
X161187100Y-90026600D03*
%TD*%
D19*
%TO.C,R9*%
X149487100Y-81009600D03*
X147487100Y-81009600D03*
%TD*%
%TO.C,R7*%
X149741100Y-101583600D03*
X147741100Y-101583600D03*
%TD*%
D20*
%TO.C,R14*%
X148503100Y-69071600D03*
X150503100Y-69071600D03*
%TD*%
D19*
%TO.C,R13*%
X138819100Y-93963600D03*
X136819100Y-93963600D03*
%TD*%
D25*
%TO.C,JP1*%
X148741100Y-136127600D03*
X148741100Y-133587600D03*
X148741100Y-131047600D03*
%TD*%
D19*
%TO.C,R4*%
X145169100Y-132825600D03*
X143169100Y-132825600D03*
%TD*%
D26*
%TO.C,R3*%
X154329100Y-117315600D03*
X154329100Y-115315600D03*
%TD*%
D18*
%TO.C,D3*%
X151027100Y-116315600D03*
X148487100Y-116315600D03*
X145947100Y-116315600D03*
%TD*%
D19*
%TO.C,R5*%
X147201100Y-144255600D03*
X145201100Y-144255600D03*
%TD*%
D20*
%TO.C,C2*%
X159679100Y-99805600D03*
X161679100Y-99805600D03*
%TD*%
D23*
%TO.C,C9*%
X158139100Y-116315600D03*
D24*
X160171100Y-116315600D03*
%TD*%
D20*
%TO.C,C6*%
X142661100Y-101583600D03*
X144661100Y-101583600D03*
%TD*%
D19*
%TO.C,R6*%
X147201100Y-157971600D03*
X145201100Y-157971600D03*
%TD*%
D20*
%TO.C,R12*%
X137327100Y-101583600D03*
X139327100Y-101583600D03*
%TD*%
D19*
%TO.C,R15*%
X139327100Y-104885600D03*
X137327100Y-104885600D03*
%TD*%
%TO.C,R8*%
X149741100Y-93963600D03*
X147741100Y-93963600D03*
%TD*%
D20*
%TO.C,C10*%
X136057100Y-86343600D03*
X138057100Y-86343600D03*
%TD*%
%TO.C,C1*%
X155107100Y-99805600D03*
X157107100Y-99805600D03*
%TD*%
%TO.C,R22*%
X135803100Y-51545600D03*
X137803100Y-51545600D03*
%TD*%
D19*
%TO.C,R24*%
X137803100Y-54847600D03*
X135803100Y-54847600D03*
%TD*%
D23*
%TO.C,C3*%
X158139100Y-104631600D03*
D24*
X160171100Y-104631600D03*
%TD*%
D19*
%TO.C,C7*%
X142883100Y-61451600D03*
X140883100Y-61451600D03*
%TD*%
D20*
%TO.C,C8*%
X142407100Y-76691600D03*
X144407100Y-76691600D03*
%TD*%
D27*
%TO.C,POWER0*%
X156869100Y-72881600D03*
D28*
X159409100Y-72881600D03*
X156869100Y-70341600D03*
X159409100Y-70341600D03*
X156869100Y-67801600D03*
X159409100Y-67801600D03*
X156869100Y-65261600D03*
D11*
X159409100Y-65261600D03*
D28*
X156869100Y-62721600D03*
D11*
X159409100Y-62721600D03*
%TD*%
D20*
%TO.C,R19*%
X137073100Y-79993600D03*
X139073100Y-79993600D03*
%TD*%
M02*
