%TF.GenerationSoftware,KiCad,Pcbnew,8.0.2*%
%TF.CreationDate,2024-05-21T21:55:18+01:00*%
%TF.ProjectId,panel-vert_mx-2024-03-26,70616e65-6c2d-4766-9572-745f6d782d32,rev?*%
%TF.SameCoordinates,Original*%
%TF.FileFunction,Legend,Bot*%
%TF.FilePolarity,Positive*%
%FSLAX46Y46*%
G04 Gerber Fmt 4.6, Leading zero omitted, Abs format (unit mm)*
G04 Created by KiCad (PCBNEW 8.0.2) date 2024-05-21 21:55:18*
%MOMM*%
%LPD*%
G01*
G04 APERTURE LIST*
%ADD10C,0.254000*%
%ADD11C,0.406400*%
%ADD12C,0.304800*%
%ADD13C,0.262128*%
G04 APERTURE END LIST*
D10*
X159806015Y-62691339D02*
X154906015Y-67591339D01*
D11*
X161106650Y-65253600D02*
G75*
G02*
X153895550Y-65253600I-3605550J0D01*
G01*
X153895550Y-65253600D02*
G75*
G02*
X161106650Y-65253600I3605550J0D01*
G01*
D12*
X159287283Y-66064204D02*
X159287283Y-63829004D01*
X159287283Y-63829004D02*
X158435778Y-63829004D01*
X158435778Y-63829004D02*
X158222902Y-63935442D01*
X158222902Y-63935442D02*
X158116464Y-64041880D01*
X158116464Y-64041880D02*
X158010026Y-64254756D01*
X158010026Y-64254756D02*
X158010026Y-64574070D01*
X158010026Y-64574070D02*
X158116464Y-64786946D01*
X158116464Y-64786946D02*
X158222902Y-64893385D01*
X158222902Y-64893385D02*
X158435778Y-64999823D01*
X158435778Y-64999823D02*
X159287283Y-64999823D01*
X157052083Y-66064204D02*
X157052083Y-63829004D01*
X157052083Y-64680508D02*
X156839207Y-64574070D01*
X156839207Y-64574070D02*
X156413454Y-64574070D01*
X156413454Y-64574070D02*
X156200578Y-64680508D01*
X156200578Y-64680508D02*
X156094140Y-64786946D01*
X156094140Y-64786946D02*
X155987702Y-64999823D01*
X155987702Y-64999823D02*
X155987702Y-65638451D01*
X155987702Y-65638451D02*
X156094140Y-65851327D01*
X156094140Y-65851327D02*
X156200578Y-65957766D01*
X156200578Y-65957766D02*
X156413454Y-66064204D01*
X156413454Y-66064204D02*
X156839207Y-66064204D01*
X156839207Y-66064204D02*
X157052083Y-65957766D01*
X162270604Y-79472716D02*
X160780470Y-79472716D01*
X161206223Y-79472716D02*
X160993346Y-79579154D01*
X160993346Y-79579154D02*
X160886908Y-79685592D01*
X160886908Y-79685592D02*
X160780470Y-79898468D01*
X160780470Y-79898468D02*
X160780470Y-80111345D01*
X160780470Y-80643535D02*
X162270604Y-81175725D01*
X160780470Y-81707916D02*
X162270604Y-81175725D01*
X162270604Y-81175725D02*
X162802794Y-80962849D01*
X162802794Y-80962849D02*
X162909232Y-80856411D01*
X162909232Y-80856411D02*
X163015670Y-80643535D01*
X162270604Y-82878735D02*
X162164166Y-82665859D01*
X162164166Y-82665859D02*
X162057727Y-82559421D01*
X162057727Y-82559421D02*
X161844851Y-82452983D01*
X161844851Y-82452983D02*
X161206223Y-82452983D01*
X161206223Y-82452983D02*
X160993346Y-82559421D01*
X160993346Y-82559421D02*
X160886908Y-82665859D01*
X160886908Y-82665859D02*
X160780470Y-82878735D01*
X160780470Y-82878735D02*
X160780470Y-83198050D01*
X160780470Y-83198050D02*
X160886908Y-83410926D01*
X160886908Y-83410926D02*
X160993346Y-83517364D01*
X160993346Y-83517364D02*
X161206223Y-83623802D01*
X161206223Y-83623802D02*
X161844851Y-83623802D01*
X161844851Y-83623802D02*
X162057727Y-83517364D01*
X162057727Y-83517364D02*
X162164166Y-83410926D01*
X162164166Y-83410926D02*
X162270604Y-83198050D01*
X162270604Y-83198050D02*
X162270604Y-82878735D01*
X162270604Y-84581745D02*
X160780470Y-84581745D01*
X160993346Y-84581745D02*
X160886908Y-84688183D01*
X160886908Y-84688183D02*
X160780470Y-84901059D01*
X160780470Y-84901059D02*
X160780470Y-85220374D01*
X160780470Y-85220374D02*
X160886908Y-85433250D01*
X160886908Y-85433250D02*
X161099785Y-85539688D01*
X161099785Y-85539688D02*
X162270604Y-85539688D01*
X161099785Y-85539688D02*
X160886908Y-85646126D01*
X160886908Y-85646126D02*
X160780470Y-85859002D01*
X160780470Y-85859002D02*
X160780470Y-86178316D01*
X160780470Y-86178316D02*
X160886908Y-86391193D01*
X160886908Y-86391193D02*
X161099785Y-86497631D01*
X161099785Y-86497631D02*
X162270604Y-86497631D01*
X162270604Y-87881326D02*
X162164166Y-87668450D01*
X162164166Y-87668450D02*
X162057727Y-87562012D01*
X162057727Y-87562012D02*
X161844851Y-87455574D01*
X161844851Y-87455574D02*
X161206223Y-87455574D01*
X161206223Y-87455574D02*
X160993346Y-87562012D01*
X160993346Y-87562012D02*
X160886908Y-87668450D01*
X160886908Y-87668450D02*
X160780470Y-87881326D01*
X160780470Y-87881326D02*
X160780470Y-88200641D01*
X160780470Y-88200641D02*
X160886908Y-88413517D01*
X160886908Y-88413517D02*
X160993346Y-88519955D01*
X160993346Y-88519955D02*
X161206223Y-88626393D01*
X161206223Y-88626393D02*
X161844851Y-88626393D01*
X161844851Y-88626393D02*
X162057727Y-88519955D01*
X162057727Y-88519955D02*
X162164166Y-88413517D01*
X162164166Y-88413517D02*
X162270604Y-88200641D01*
X162270604Y-88200641D02*
X162270604Y-87881326D01*
X162270604Y-90542279D02*
X160035404Y-90542279D01*
X162164166Y-90542279D02*
X162270604Y-90329403D01*
X162270604Y-90329403D02*
X162270604Y-89903650D01*
X162270604Y-89903650D02*
X162164166Y-89690774D01*
X162164166Y-89690774D02*
X162057727Y-89584336D01*
X162057727Y-89584336D02*
X161844851Y-89477898D01*
X161844851Y-89477898D02*
X161206223Y-89477898D01*
X161206223Y-89477898D02*
X160993346Y-89584336D01*
X160993346Y-89584336D02*
X160886908Y-89690774D01*
X160886908Y-89690774D02*
X160780470Y-89903650D01*
X160780470Y-89903650D02*
X160780470Y-90329403D01*
X160780470Y-90329403D02*
X160886908Y-90542279D01*
X160780470Y-92564603D02*
X162270604Y-92564603D01*
X160780470Y-91606660D02*
X161951289Y-91606660D01*
X161951289Y-91606660D02*
X162164166Y-91713098D01*
X162164166Y-91713098D02*
X162270604Y-91925974D01*
X162270604Y-91925974D02*
X162270604Y-92245289D01*
X162270604Y-92245289D02*
X162164166Y-92458165D01*
X162164166Y-92458165D02*
X162057727Y-92564603D01*
X162270604Y-93948298D02*
X162164166Y-93735422D01*
X162164166Y-93735422D02*
X161951289Y-93628984D01*
X161951289Y-93628984D02*
X160035404Y-93628984D01*
X162270604Y-95757746D02*
X161099785Y-95757746D01*
X161099785Y-95757746D02*
X160886908Y-95651308D01*
X160886908Y-95651308D02*
X160780470Y-95438432D01*
X160780470Y-95438432D02*
X160780470Y-95012679D01*
X160780470Y-95012679D02*
X160886908Y-94799803D01*
X162164166Y-95757746D02*
X162270604Y-95544870D01*
X162270604Y-95544870D02*
X162270604Y-95012679D01*
X162270604Y-95012679D02*
X162164166Y-94799803D01*
X162164166Y-94799803D02*
X161951289Y-94693365D01*
X161951289Y-94693365D02*
X161738413Y-94693365D01*
X161738413Y-94693365D02*
X161525537Y-94799803D01*
X161525537Y-94799803D02*
X161419099Y-95012679D01*
X161419099Y-95012679D02*
X161419099Y-95544870D01*
X161419099Y-95544870D02*
X161312661Y-95757746D01*
X162270604Y-96822127D02*
X160780470Y-96822127D01*
X161206223Y-96822127D02*
X160993346Y-96928565D01*
X160993346Y-96928565D02*
X160886908Y-97035003D01*
X160886908Y-97035003D02*
X160780470Y-97247879D01*
X160780470Y-97247879D02*
X160780470Y-97460756D01*
X162057727Y-98205822D02*
X162164166Y-98312260D01*
X162164166Y-98312260D02*
X162270604Y-98205822D01*
X162270604Y-98205822D02*
X162164166Y-98099384D01*
X162164166Y-98099384D02*
X162057727Y-98205822D01*
X162057727Y-98205822D02*
X162270604Y-98205822D01*
X162164166Y-100228146D02*
X162270604Y-100015270D01*
X162270604Y-100015270D02*
X162270604Y-99589517D01*
X162270604Y-99589517D02*
X162164166Y-99376641D01*
X162164166Y-99376641D02*
X162057727Y-99270203D01*
X162057727Y-99270203D02*
X161844851Y-99163765D01*
X161844851Y-99163765D02*
X161206223Y-99163765D01*
X161206223Y-99163765D02*
X160993346Y-99270203D01*
X160993346Y-99270203D02*
X160886908Y-99376641D01*
X160886908Y-99376641D02*
X160780470Y-99589517D01*
X160780470Y-99589517D02*
X160780470Y-100015270D01*
X160780470Y-100015270D02*
X160886908Y-100228146D01*
X162270604Y-101505403D02*
X162164166Y-101292527D01*
X162164166Y-101292527D02*
X162057727Y-101186089D01*
X162057727Y-101186089D02*
X161844851Y-101079651D01*
X161844851Y-101079651D02*
X161206223Y-101079651D01*
X161206223Y-101079651D02*
X160993346Y-101186089D01*
X160993346Y-101186089D02*
X160886908Y-101292527D01*
X160886908Y-101292527D02*
X160780470Y-101505403D01*
X160780470Y-101505403D02*
X160780470Y-101824718D01*
X160780470Y-101824718D02*
X160886908Y-102037594D01*
X160886908Y-102037594D02*
X160993346Y-102144032D01*
X160993346Y-102144032D02*
X161206223Y-102250470D01*
X161206223Y-102250470D02*
X161844851Y-102250470D01*
X161844851Y-102250470D02*
X162057727Y-102144032D01*
X162057727Y-102144032D02*
X162164166Y-102037594D01*
X162164166Y-102037594D02*
X162270604Y-101824718D01*
X162270604Y-101824718D02*
X162270604Y-101505403D01*
X162270604Y-103208413D02*
X160780470Y-103208413D01*
X160993346Y-103208413D02*
X160886908Y-103314851D01*
X160886908Y-103314851D02*
X160780470Y-103527727D01*
X160780470Y-103527727D02*
X160780470Y-103847042D01*
X160780470Y-103847042D02*
X160886908Y-104059918D01*
X160886908Y-104059918D02*
X161099785Y-104166356D01*
X161099785Y-104166356D02*
X162270604Y-104166356D01*
X161099785Y-104166356D02*
X160886908Y-104272794D01*
X160886908Y-104272794D02*
X160780470Y-104485670D01*
X160780470Y-104485670D02*
X160780470Y-104804984D01*
X160780470Y-104804984D02*
X160886908Y-105017861D01*
X160886908Y-105017861D02*
X161099785Y-105124299D01*
X161099785Y-105124299D02*
X162270604Y-105124299D01*
X160248280Y-107785252D02*
X160141842Y-107891690D01*
X160141842Y-107891690D02*
X160035404Y-108104566D01*
X160035404Y-108104566D02*
X160035404Y-108636757D01*
X160035404Y-108636757D02*
X160141842Y-108849633D01*
X160141842Y-108849633D02*
X160248280Y-108956071D01*
X160248280Y-108956071D02*
X160461156Y-109062509D01*
X160461156Y-109062509D02*
X160674032Y-109062509D01*
X160674032Y-109062509D02*
X160993346Y-108956071D01*
X160993346Y-108956071D02*
X162270604Y-107678814D01*
X162270604Y-107678814D02*
X162270604Y-109062509D01*
X160035404Y-110446204D02*
X160035404Y-110659081D01*
X160035404Y-110659081D02*
X160141842Y-110871957D01*
X160141842Y-110871957D02*
X160248280Y-110978395D01*
X160248280Y-110978395D02*
X160461156Y-111084833D01*
X160461156Y-111084833D02*
X160886908Y-111191271D01*
X160886908Y-111191271D02*
X161419099Y-111191271D01*
X161419099Y-111191271D02*
X161844851Y-111084833D01*
X161844851Y-111084833D02*
X162057727Y-110978395D01*
X162057727Y-110978395D02*
X162164166Y-110871957D01*
X162164166Y-110871957D02*
X162270604Y-110659081D01*
X162270604Y-110659081D02*
X162270604Y-110446204D01*
X162270604Y-110446204D02*
X162164166Y-110233328D01*
X162164166Y-110233328D02*
X162057727Y-110126890D01*
X162057727Y-110126890D02*
X161844851Y-110020452D01*
X161844851Y-110020452D02*
X161419099Y-109914014D01*
X161419099Y-109914014D02*
X160886908Y-109914014D01*
X160886908Y-109914014D02*
X160461156Y-110020452D01*
X160461156Y-110020452D02*
X160248280Y-110126890D01*
X160248280Y-110126890D02*
X160141842Y-110233328D01*
X160141842Y-110233328D02*
X160035404Y-110446204D01*
X160248280Y-112042776D02*
X160141842Y-112149214D01*
X160141842Y-112149214D02*
X160035404Y-112362090D01*
X160035404Y-112362090D02*
X160035404Y-112894281D01*
X160035404Y-112894281D02*
X160141842Y-113107157D01*
X160141842Y-113107157D02*
X160248280Y-113213595D01*
X160248280Y-113213595D02*
X160461156Y-113320033D01*
X160461156Y-113320033D02*
X160674032Y-113320033D01*
X160674032Y-113320033D02*
X160993346Y-113213595D01*
X160993346Y-113213595D02*
X162270604Y-111936338D01*
X162270604Y-111936338D02*
X162270604Y-113320033D01*
X160780470Y-115235919D02*
X162270604Y-115235919D01*
X159928966Y-114703728D02*
X161525537Y-114171538D01*
X161525537Y-114171538D02*
X161525537Y-115555233D01*
D13*
X161029605Y-56327062D02*
X162311119Y-56784746D01*
X162311119Y-56784746D02*
X161029605Y-57242429D01*
X162311119Y-58981628D02*
X162311119Y-57883187D01*
X162311119Y-58432407D02*
X160388847Y-58432407D01*
X160388847Y-58432407D02*
X160663458Y-58249334D01*
X160663458Y-58249334D02*
X160846531Y-58066260D01*
X160846531Y-58066260D02*
X160938068Y-57883187D01*
X162128046Y-59805458D02*
X162219583Y-59896995D01*
X162219583Y-59896995D02*
X162311119Y-59805458D01*
X162311119Y-59805458D02*
X162219583Y-59713922D01*
X162219583Y-59713922D02*
X162128046Y-59805458D01*
X162128046Y-59805458D02*
X162311119Y-59805458D01*
X160388847Y-61544657D02*
X160388847Y-61178510D01*
X160388847Y-61178510D02*
X160480384Y-60995437D01*
X160480384Y-60995437D02*
X160571921Y-60903900D01*
X160571921Y-60903900D02*
X160846531Y-60720826D01*
X160846531Y-60720826D02*
X161212678Y-60629290D01*
X161212678Y-60629290D02*
X161944972Y-60629290D01*
X161944972Y-60629290D02*
X162128046Y-60720826D01*
X162128046Y-60720826D02*
X162219583Y-60812363D01*
X162219583Y-60812363D02*
X162311119Y-60995437D01*
X162311119Y-60995437D02*
X162311119Y-61361584D01*
X162311119Y-61361584D02*
X162219583Y-61544657D01*
X162219583Y-61544657D02*
X162128046Y-61636194D01*
X162128046Y-61636194D02*
X161944972Y-61727731D01*
X161944972Y-61727731D02*
X161487288Y-61727731D01*
X161487288Y-61727731D02*
X161304215Y-61636194D01*
X161304215Y-61636194D02*
X161212678Y-61544657D01*
X161212678Y-61544657D02*
X161121141Y-61361584D01*
X161121141Y-61361584D02*
X161121141Y-60995437D01*
X161121141Y-60995437D02*
X161212678Y-60812363D01*
X161212678Y-60812363D02*
X161304215Y-60720826D01*
X161304215Y-60720826D02*
X161487288Y-60629290D01*
M02*
