G75*
G70*
%OFA0B0*%
%FSLAX24Y24*%
%IPPOS*%
%LPD*%
%AMOC8*
5,1,8,0,0,1.08239X$1,22.5*
%
%ADD10C,0.0000*%
%ADD11OC8,0.0560*%
%ADD12C,0.0560*%
%ADD13C,0.0700*%
%ADD14C,0.0600*%
%ADD15OC8,0.0600*%
%ADD16C,0.1346*%
%ADD17C,0.1326*%
%ADD18C,0.0808*%
%ADD19R,0.0560X0.0560*%
%ADD20R,0.0749X0.0749*%
%ADD21C,0.0634*%
D10*
X000190Y000492D02*
X000190Y012303D01*
X043497Y012303D01*
X043497Y000492D01*
X000190Y000492D01*
D11*
X023548Y003878D03*
X024548Y003878D03*
X028903Y003878D03*
X029903Y003878D03*
X033233Y003878D03*
X034233Y003878D03*
X038588Y003878D03*
X039588Y003878D03*
X034127Y002252D03*
X034127Y001252D03*
X029009Y001094D03*
X029009Y002094D03*
X024481Y002094D03*
X024481Y001094D03*
X024442Y006134D03*
X024442Y007134D03*
X027210Y008208D03*
X028210Y008208D03*
X020336Y010846D03*
X019336Y010846D03*
X022119Y011601D03*
X023655Y011897D03*
X025190Y011601D03*
X026725Y011897D03*
X026725Y010897D03*
X023655Y010897D03*
X018552Y011846D03*
X017552Y011846D03*
X016552Y010846D03*
X017552Y009846D03*
X018552Y009846D03*
D12*
X018387Y009193D03*
X017631Y009145D03*
X016647Y009145D03*
X021993Y009193D03*
X022639Y009193D03*
X026245Y009193D03*
X026891Y009193D03*
X030497Y009193D03*
X031143Y009193D03*
X034749Y009193D03*
X034749Y010807D03*
X034749Y011791D03*
X031143Y011791D03*
X031143Y010807D03*
X025190Y010801D03*
X022119Y010801D03*
X025225Y007114D03*
X025225Y006114D03*
X025225Y005114D03*
X025225Y004114D03*
X025225Y003114D03*
X028225Y003114D03*
X029765Y003012D03*
X029765Y002027D03*
X028225Y002114D03*
X029765Y001043D03*
X033371Y001043D03*
X034910Y001271D03*
X033371Y002027D03*
X034910Y002271D03*
X033371Y003012D03*
X034910Y003271D03*
X034910Y004271D03*
X034910Y005271D03*
X034910Y006271D03*
X034910Y007271D03*
X037910Y007271D03*
X037910Y006271D03*
X037910Y005271D03*
X037910Y004271D03*
X037910Y003271D03*
X037910Y002271D03*
X038544Y001279D03*
X042151Y001279D03*
X028225Y004114D03*
X028225Y005114D03*
X028225Y006114D03*
X028225Y007114D03*
X020143Y003681D03*
X020143Y002697D03*
X020143Y001712D03*
X020080Y001083D03*
X016536Y001712D03*
X016536Y002697D03*
X016536Y003681D03*
X016647Y005539D03*
X017631Y005539D03*
X015379Y006397D03*
X011773Y006397D03*
X009867Y006397D03*
X006261Y006397D03*
X004355Y006397D03*
X000749Y006397D03*
X023686Y001083D03*
X025225Y001114D03*
X025225Y002114D03*
D13*
X027509Y010610D03*
X030509Y010610D03*
X030509Y011752D03*
X027509Y011752D03*
D14*
X041206Y010031D03*
D15*
X040206Y010031D03*
X039206Y010031D03*
X038206Y010031D03*
X037206Y010031D03*
X037206Y011031D03*
X038206Y011031D03*
X039206Y011031D03*
X040206Y011031D03*
X041206Y011031D03*
D16*
X013576Y011201D03*
X008064Y011201D03*
X002552Y011201D03*
X002552Y005295D03*
X008064Y005295D03*
X013576Y005295D03*
D17*
X012277Y003445D03*
X009993Y003445D03*
X006765Y003445D03*
X004481Y003445D03*
X001253Y003445D03*
X015505Y003445D03*
X015505Y009350D03*
X012277Y009350D03*
X009993Y009350D03*
X006765Y009350D03*
X004481Y009350D03*
X001253Y009350D03*
D18*
X002552Y007500D03*
X008064Y007500D03*
X013576Y007500D03*
X013576Y001594D03*
X008064Y001594D03*
X002552Y001594D03*
D19*
X028225Y001114D03*
X037910Y001271D03*
D20*
X041529Y004429D03*
X031686Y004429D03*
X021844Y004429D03*
X021844Y008366D03*
X031686Y008366D03*
X041529Y008366D03*
D21*
X038773Y007382D03*
X038773Y006397D03*
X038773Y005413D03*
X028930Y005413D03*
X028930Y006397D03*
X028930Y007382D03*
X019088Y007382D03*
X019088Y006397D03*
X019088Y005413D03*
M02*
