G75*
%MOIN*%
%OFA0B0*%
%FSLAX24Y24*%
%IPPOS*%
%LPD*%
%AMOC8*
5,1,8,0,0,1.08239X$1,22.5*
%
%ADD10C,0.0000*%
D10*
X000305Y000410D02*
X011722Y000410D01*
X011722Y043717D01*
X000305Y043717D01*
X000305Y000410D01*
X002566Y002760D02*
X002568Y002804D01*
X002574Y002848D01*
X002584Y002891D01*
X002597Y002933D01*
X002615Y002973D01*
X002636Y003012D01*
X002660Y003049D01*
X002687Y003084D01*
X002718Y003116D01*
X002751Y003145D01*
X002787Y003171D01*
X002825Y003193D01*
X002865Y003212D01*
X002906Y003228D01*
X002949Y003240D01*
X002992Y003248D01*
X003036Y003252D01*
X003080Y003252D01*
X003124Y003248D01*
X003167Y003240D01*
X003210Y003228D01*
X003251Y003212D01*
X003291Y003193D01*
X003329Y003171D01*
X003365Y003145D01*
X003398Y003116D01*
X003429Y003084D01*
X003456Y003049D01*
X003480Y003012D01*
X003501Y002973D01*
X003519Y002933D01*
X003532Y002891D01*
X003542Y002848D01*
X003548Y002804D01*
X003550Y002760D01*
X003548Y002716D01*
X003542Y002672D01*
X003532Y002629D01*
X003519Y002587D01*
X003501Y002547D01*
X003480Y002508D01*
X003456Y002471D01*
X003429Y002436D01*
X003398Y002404D01*
X003365Y002375D01*
X003329Y002349D01*
X003291Y002327D01*
X003251Y002308D01*
X003210Y002292D01*
X003167Y002280D01*
X003124Y002272D01*
X003080Y002268D01*
X003036Y002268D01*
X002992Y002272D01*
X002949Y002280D01*
X002906Y002292D01*
X002865Y002308D01*
X002825Y002327D01*
X002787Y002349D01*
X002751Y002375D01*
X002718Y002404D01*
X002687Y002436D01*
X002660Y002471D01*
X002636Y002508D01*
X002615Y002547D01*
X002597Y002587D01*
X002584Y002629D01*
X002574Y002672D01*
X002568Y002716D01*
X002566Y002760D01*
X001078Y017510D02*
X001080Y017560D01*
X001086Y017610D01*
X001096Y017659D01*
X001110Y017707D01*
X001127Y017754D01*
X001148Y017799D01*
X001173Y017843D01*
X001201Y017884D01*
X001233Y017923D01*
X001267Y017960D01*
X001304Y017994D01*
X001344Y018024D01*
X001386Y018051D01*
X001430Y018075D01*
X001476Y018096D01*
X001523Y018112D01*
X001571Y018125D01*
X001621Y018134D01*
X001670Y018139D01*
X001721Y018140D01*
X001771Y018137D01*
X001820Y018130D01*
X001869Y018119D01*
X001917Y018104D01*
X001963Y018086D01*
X002008Y018064D01*
X002051Y018038D01*
X002092Y018009D01*
X002131Y017977D01*
X002167Y017942D01*
X002199Y017904D01*
X002229Y017864D01*
X002256Y017821D01*
X002279Y017777D01*
X002298Y017731D01*
X002314Y017683D01*
X002326Y017634D01*
X002334Y017585D01*
X002338Y017535D01*
X002338Y017485D01*
X002334Y017435D01*
X002326Y017386D01*
X002314Y017337D01*
X002298Y017289D01*
X002279Y017243D01*
X002256Y017199D01*
X002229Y017156D01*
X002199Y017116D01*
X002167Y017078D01*
X002131Y017043D01*
X002092Y017011D01*
X002051Y016982D01*
X002008Y016956D01*
X001963Y016934D01*
X001917Y016916D01*
X001869Y016901D01*
X001820Y016890D01*
X001771Y016883D01*
X001721Y016880D01*
X001670Y016881D01*
X001621Y016886D01*
X001571Y016895D01*
X001523Y016908D01*
X001476Y016924D01*
X001430Y016945D01*
X001386Y016969D01*
X001344Y016996D01*
X001304Y017026D01*
X001267Y017060D01*
X001233Y017097D01*
X001201Y017136D01*
X001173Y017177D01*
X001148Y017221D01*
X001127Y017266D01*
X001110Y017313D01*
X001096Y017361D01*
X001086Y017410D01*
X001080Y017460D01*
X001078Y017510D01*
X008491Y002760D02*
X008493Y002804D01*
X008499Y002848D01*
X008509Y002891D01*
X008522Y002933D01*
X008540Y002973D01*
X008561Y003012D01*
X008585Y003049D01*
X008612Y003084D01*
X008643Y003116D01*
X008676Y003145D01*
X008712Y003171D01*
X008750Y003193D01*
X008790Y003212D01*
X008831Y003228D01*
X008874Y003240D01*
X008917Y003248D01*
X008961Y003252D01*
X009005Y003252D01*
X009049Y003248D01*
X009092Y003240D01*
X009135Y003228D01*
X009176Y003212D01*
X009216Y003193D01*
X009254Y003171D01*
X009290Y003145D01*
X009323Y003116D01*
X009354Y003084D01*
X009381Y003049D01*
X009405Y003012D01*
X009426Y002973D01*
X009444Y002933D01*
X009457Y002891D01*
X009467Y002848D01*
X009473Y002804D01*
X009475Y002760D01*
X009473Y002716D01*
X009467Y002672D01*
X009457Y002629D01*
X009444Y002587D01*
X009426Y002547D01*
X009405Y002508D01*
X009381Y002471D01*
X009354Y002436D01*
X009323Y002404D01*
X009290Y002375D01*
X009254Y002349D01*
X009216Y002327D01*
X009176Y002308D01*
X009135Y002292D01*
X009092Y002280D01*
X009049Y002272D01*
X009005Y002268D01*
X008961Y002268D01*
X008917Y002272D01*
X008874Y002280D01*
X008831Y002292D01*
X008790Y002308D01*
X008750Y002327D01*
X008712Y002349D01*
X008676Y002375D01*
X008643Y002404D01*
X008612Y002436D01*
X008585Y002471D01*
X008561Y002508D01*
X008540Y002547D01*
X008522Y002587D01*
X008509Y002629D01*
X008499Y002672D01*
X008493Y002716D01*
X008491Y002760D01*
X009778Y042510D02*
X009780Y042560D01*
X009786Y042610D01*
X009796Y042659D01*
X009810Y042707D01*
X009827Y042754D01*
X009848Y042799D01*
X009873Y042843D01*
X009901Y042884D01*
X009933Y042923D01*
X009967Y042960D01*
X010004Y042994D01*
X010044Y043024D01*
X010086Y043051D01*
X010130Y043075D01*
X010176Y043096D01*
X010223Y043112D01*
X010271Y043125D01*
X010321Y043134D01*
X010370Y043139D01*
X010421Y043140D01*
X010471Y043137D01*
X010520Y043130D01*
X010569Y043119D01*
X010617Y043104D01*
X010663Y043086D01*
X010708Y043064D01*
X010751Y043038D01*
X010792Y043009D01*
X010831Y042977D01*
X010867Y042942D01*
X010899Y042904D01*
X010929Y042864D01*
X010956Y042821D01*
X010979Y042777D01*
X010998Y042731D01*
X011014Y042683D01*
X011026Y042634D01*
X011034Y042585D01*
X011038Y042535D01*
X011038Y042485D01*
X011034Y042435D01*
X011026Y042386D01*
X011014Y042337D01*
X010998Y042289D01*
X010979Y042243D01*
X010956Y042199D01*
X010929Y042156D01*
X010899Y042116D01*
X010867Y042078D01*
X010831Y042043D01*
X010792Y042011D01*
X010751Y041982D01*
X010708Y041956D01*
X010663Y041934D01*
X010617Y041916D01*
X010569Y041901D01*
X010520Y041890D01*
X010471Y041883D01*
X010421Y041880D01*
X010370Y041881D01*
X010321Y041886D01*
X010271Y041895D01*
X010223Y041908D01*
X010176Y041924D01*
X010130Y041945D01*
X010086Y041969D01*
X010044Y041996D01*
X010004Y042026D01*
X009967Y042060D01*
X009933Y042097D01*
X009901Y042136D01*
X009873Y042177D01*
X009848Y042221D01*
X009827Y042266D01*
X009810Y042313D01*
X009796Y042361D01*
X009786Y042410D01*
X009780Y042460D01*
X009778Y042510D01*
M02*
