G75*
G70*
%OFA0B0*%
%FSLAX24Y24*%
%IPPOS*%
%LPD*%
%AMOC8*
5,1,8,0,0,1.08239X$1,22.5*
%
%ADD10C,0.0000*%
%ADD11OC8,0.0520*%
%ADD12C,0.0520*%
%ADD13C,0.0660*%
%ADD14C,0.0560*%
%ADD15OC8,0.0560*%
%ADD16C,0.1306*%
%ADD17C,0.1286*%
%ADD18C,0.0768*%
%ADD19R,0.0520X0.0520*%
%ADD20R,0.0709X0.0709*%
%ADD21C,0.0594*%
%ADD22C,0.0240*%
%ADD23C,0.0360*%
%ADD24C,0.0100*%
%ADD25C,0.0240*%
D10*
X000190Y000492D02*
X000190Y012303D01*
X043497Y012303D01*
X043497Y000492D01*
X000190Y000492D01*
D11*
X023548Y003878D03*
X024548Y003878D03*
X028903Y003878D03*
X029903Y003878D03*
X033233Y003878D03*
X034233Y003878D03*
X038588Y003878D03*
X039588Y003878D03*
X034127Y002252D03*
X034127Y001252D03*
X029009Y001094D03*
X029009Y002094D03*
X024481Y002094D03*
X024481Y001094D03*
X024442Y006134D03*
X024442Y007134D03*
X027210Y008208D03*
X028210Y008208D03*
X020336Y010846D03*
X019336Y010846D03*
X022119Y011601D03*
X023655Y011897D03*
X025190Y011601D03*
X026725Y011897D03*
X026725Y010897D03*
X023655Y010897D03*
X018552Y011846D03*
X017552Y011846D03*
X016552Y010846D03*
X017552Y009846D03*
X018552Y009846D03*
D12*
X018387Y009193D03*
X017631Y009145D03*
X016647Y009145D03*
X021993Y009193D03*
X022639Y009193D03*
X026245Y009193D03*
X026891Y009193D03*
X030497Y009193D03*
X031143Y009193D03*
X034749Y009193D03*
X034749Y010807D03*
X034749Y011791D03*
X031143Y011791D03*
X031143Y010807D03*
X025190Y010801D03*
X022119Y010801D03*
X025225Y007114D03*
X025225Y006114D03*
X025225Y005114D03*
X025225Y004114D03*
X025225Y003114D03*
X028225Y003114D03*
X029765Y003012D03*
X029765Y002027D03*
X028225Y002114D03*
X029765Y001043D03*
X033371Y001043D03*
X034910Y001271D03*
X033371Y002027D03*
X034910Y002271D03*
X033371Y003012D03*
X034910Y003271D03*
X034910Y004271D03*
X034910Y005271D03*
X034910Y006271D03*
X034910Y007271D03*
X037910Y007271D03*
X037910Y006271D03*
X037910Y005271D03*
X037910Y004271D03*
X037910Y003271D03*
X037910Y002271D03*
X038544Y001279D03*
X042151Y001279D03*
X028225Y004114D03*
X028225Y005114D03*
X028225Y006114D03*
X028225Y007114D03*
X020143Y003681D03*
X020143Y002697D03*
X020143Y001712D03*
X020080Y001083D03*
X016536Y001712D03*
X016536Y002697D03*
X016536Y003681D03*
X016647Y005539D03*
X017631Y005539D03*
X015379Y006397D03*
X011773Y006397D03*
X009867Y006397D03*
X006261Y006397D03*
X004355Y006397D03*
X000749Y006397D03*
X023686Y001083D03*
X025225Y001114D03*
X025225Y002114D03*
D13*
X027509Y010610D03*
X030509Y010610D03*
X030509Y011752D03*
X027509Y011752D03*
D14*
X041206Y010031D03*
D15*
X040206Y010031D03*
X039206Y010031D03*
X038206Y010031D03*
X037206Y010031D03*
X037206Y011031D03*
X038206Y011031D03*
X039206Y011031D03*
X040206Y011031D03*
X041206Y011031D03*
D16*
X013576Y011201D03*
X008064Y011201D03*
X002552Y011201D03*
X002552Y005295D03*
X008064Y005295D03*
X013576Y005295D03*
D17*
X012277Y003445D03*
X009993Y003445D03*
X006765Y003445D03*
X004481Y003445D03*
X001253Y003445D03*
X015505Y003445D03*
X015505Y009350D03*
X012277Y009350D03*
X009993Y009350D03*
X006765Y009350D03*
X004481Y009350D03*
X001253Y009350D03*
D18*
X002552Y007500D03*
X008064Y007500D03*
X013576Y007500D03*
X013576Y001594D03*
X008064Y001594D03*
X002552Y001594D03*
D19*
X028225Y001114D03*
X037910Y001271D03*
D20*
X041529Y004429D03*
X031686Y004429D03*
X021844Y004429D03*
X021844Y008366D03*
X031686Y008366D03*
X041529Y008366D03*
D21*
X038773Y007382D03*
X038773Y006397D03*
X038773Y005413D03*
X028930Y005413D03*
X028930Y006397D03*
X028930Y007382D03*
X019088Y007382D03*
X019088Y006397D03*
X019088Y005413D03*
D22*
X023590Y008932D02*
X023590Y010001D01*
X025190Y011601D01*
X025190Y011492D01*
X026630Y010052D01*
X031030Y010052D01*
X032550Y008532D01*
X032550Y005561D01*
X034233Y003878D01*
X037198Y010031D02*
X037198Y010768D01*
X037198Y010807D01*
X037206Y010031D02*
X037198Y010031D01*
X041206Y010031D02*
X041214Y010031D01*
X041214Y010846D01*
D23*
X023590Y008932D03*
D24*
X023330Y009061D02*
X022985Y009061D01*
X023009Y009119D02*
X023009Y009266D01*
X022952Y009402D01*
X022848Y009506D01*
X022712Y009563D01*
X022565Y009563D01*
X022429Y009506D01*
X022325Y009402D01*
X022316Y009380D01*
X022307Y009402D01*
X022203Y009506D01*
X022067Y009563D01*
X021920Y009563D01*
X021784Y009506D01*
X021679Y009402D01*
X021623Y009266D01*
X021623Y009119D01*
X021679Y008983D01*
X021784Y008879D01*
X021894Y008834D01*
X021894Y008416D01*
X022348Y008416D01*
X022348Y008612D01*
X023910Y007050D01*
X023910Y006439D01*
X024072Y006277D01*
X024072Y005980D01*
X024289Y005764D01*
X024395Y005764D01*
X024284Y005652D01*
X021536Y005652D01*
X020740Y006448D01*
X020740Y006547D01*
X020605Y006682D01*
X020415Y006682D01*
X020280Y006547D01*
X020280Y006357D01*
X020415Y006222D01*
X020514Y006222D01*
X021244Y005492D01*
X020216Y005492D01*
X019464Y006244D01*
X019494Y006317D01*
X019494Y006478D01*
X019433Y006628D01*
X019318Y006742D01*
X019169Y006804D01*
X019007Y006804D01*
X018857Y006742D01*
X018743Y006628D01*
X018681Y006478D01*
X018681Y006317D01*
X018743Y006167D01*
X018857Y006053D01*
X019007Y005991D01*
X019169Y005991D01*
X019237Y006019D01*
X019924Y005332D01*
X019494Y005332D01*
X019494Y005332D01*
X019494Y005494D01*
X019433Y005644D01*
X019318Y005758D01*
X019169Y005820D01*
X019007Y005820D01*
X018936Y005791D01*
X018547Y006180D01*
X018547Y008859D01*
X018596Y008879D01*
X018701Y008983D01*
X018757Y009119D01*
X018757Y009266D01*
X018701Y009402D01*
X018627Y009476D01*
X018705Y009476D01*
X018922Y009693D01*
X018922Y010000D01*
X018705Y010216D01*
X018399Y010216D01*
X018182Y010000D01*
X018182Y009693D01*
X018313Y009563D01*
X018177Y009506D01*
X018073Y009402D01*
X018017Y009266D01*
X018017Y009119D01*
X018073Y008983D01*
X018177Y008879D01*
X018227Y008859D01*
X018227Y006855D01*
X016147Y008934D01*
X016258Y009200D01*
X016258Y009500D01*
X016143Y009777D01*
X015931Y009989D01*
X015924Y009992D01*
X016408Y010476D01*
X016705Y010476D01*
X016915Y010686D01*
X018972Y010686D01*
X019182Y010476D01*
X019489Y010476D01*
X019706Y010693D01*
X019706Y011000D01*
X019489Y011216D01*
X019182Y011216D01*
X018972Y011006D01*
X016915Y011006D01*
X016705Y011216D01*
X016581Y011216D01*
X016656Y011292D01*
X020244Y011292D01*
X020279Y011256D01*
X020166Y011256D01*
X019926Y011016D01*
X019926Y010876D01*
X020306Y010876D01*
X020306Y010816D01*
X020366Y010816D01*
X020366Y010436D01*
X020505Y010436D01*
X020746Y010676D01*
X020746Y010790D01*
X021764Y009772D01*
X022936Y009772D01*
X023030Y009866D01*
X023386Y010222D01*
X023485Y010222D01*
X023620Y010357D01*
X023620Y010527D01*
X023792Y010527D01*
X023360Y010096D01*
X023360Y009112D01*
X023344Y009096D01*
X023300Y008990D01*
X023300Y008874D01*
X023344Y008768D01*
X023426Y008686D01*
X023532Y008642D01*
X023648Y008642D01*
X023754Y008686D01*
X023836Y008768D01*
X023880Y008874D01*
X023880Y008990D01*
X023836Y009096D01*
X023820Y009112D01*
X023820Y009905D01*
X024786Y010871D01*
X024780Y010833D01*
X024780Y010831D01*
X025160Y010831D01*
X025160Y010771D01*
X024780Y010771D01*
X024780Y010768D01*
X024790Y010705D01*
X024810Y010643D01*
X024839Y010586D01*
X024877Y010534D01*
X024923Y010488D01*
X024975Y010450D01*
X025033Y010421D01*
X025094Y010401D01*
X025158Y010391D01*
X025160Y010391D01*
X025160Y010771D01*
X025220Y010771D01*
X025220Y010391D01*
X025222Y010391D01*
X025286Y010401D01*
X025347Y010421D01*
X025405Y010450D01*
X025457Y010488D01*
X025503Y010534D01*
X025541Y010586D01*
X025570Y010643D01*
X025590Y010705D01*
X025598Y010758D01*
X026535Y009822D01*
X030935Y009822D01*
X031194Y009563D01*
X031069Y009563D01*
X030933Y009506D01*
X030829Y009402D01*
X030820Y009380D01*
X030811Y009402D01*
X030707Y009506D01*
X030571Y009563D01*
X030423Y009563D01*
X030287Y009506D01*
X030183Y009402D01*
X030127Y009266D01*
X030127Y009119D01*
X030183Y008983D01*
X030287Y008879D01*
X030423Y008823D01*
X030571Y008823D01*
X030707Y008879D01*
X030811Y008983D01*
X030820Y009005D01*
X030829Y008983D01*
X030933Y008879D01*
X031069Y008823D01*
X031216Y008823D01*
X031226Y008827D01*
X031212Y008812D01*
X031192Y008778D01*
X031182Y008740D01*
X031182Y008416D01*
X031636Y008416D01*
X031636Y008316D01*
X031182Y008316D01*
X031182Y007992D01*
X031192Y007954D01*
X031212Y007920D01*
X031240Y007892D01*
X031274Y007872D01*
X031312Y007862D01*
X031636Y007862D01*
X031636Y008316D01*
X031736Y008316D01*
X031736Y007862D01*
X032060Y007862D01*
X032098Y007872D01*
X032132Y007892D01*
X032160Y007920D01*
X032180Y007954D01*
X032190Y007992D01*
X032190Y008316D01*
X031736Y008316D01*
X031736Y008416D01*
X031636Y008416D01*
X031636Y008870D01*
X031331Y008870D01*
X031352Y008879D01*
X031456Y008983D01*
X031513Y009119D01*
X031513Y009244D01*
X031886Y008870D01*
X031736Y008870D01*
X031736Y008416D01*
X032190Y008416D01*
X032190Y008566D01*
X032320Y008437D01*
X032320Y005466D01*
X032455Y005331D01*
X033863Y003923D01*
X033863Y003725D01*
X033936Y003652D01*
X033587Y003652D01*
X033643Y003708D01*
X033643Y003848D01*
X033263Y003848D01*
X033263Y003908D01*
X033203Y003908D01*
X033203Y003848D01*
X032823Y003848D01*
X032823Y003708D01*
X032879Y003652D01*
X030257Y003652D01*
X030313Y003708D01*
X030313Y003848D01*
X029933Y003848D01*
X029933Y003908D01*
X030313Y003908D01*
X030313Y004048D01*
X030072Y004288D01*
X029933Y004288D01*
X029933Y003908D01*
X029873Y003908D01*
X029873Y004288D01*
X029733Y004288D01*
X029493Y004048D01*
X029493Y003908D01*
X029873Y003908D01*
X029873Y003848D01*
X029493Y003848D01*
X029493Y003708D01*
X029549Y003652D01*
X029200Y003652D01*
X029273Y003725D01*
X029273Y004031D01*
X029056Y004248D01*
X028749Y004248D01*
X028595Y004094D01*
X028595Y004188D01*
X028539Y004324D01*
X028435Y004428D01*
X028299Y004484D01*
X028152Y004484D01*
X028016Y004428D01*
X027912Y004324D01*
X027855Y004188D01*
X027855Y004040D01*
X027912Y003904D01*
X028016Y003800D01*
X028152Y003744D01*
X028299Y003744D01*
X028435Y003800D01*
X028533Y003898D01*
X028533Y003725D01*
X028605Y003652D01*
X028537Y003652D01*
X028443Y003558D01*
X028349Y003463D01*
X028299Y003484D01*
X028152Y003484D01*
X028016Y003428D01*
X027912Y003324D01*
X027855Y003188D01*
X027855Y003040D01*
X027912Y002904D01*
X028016Y002800D01*
X028070Y002778D01*
X025460Y002778D01*
X025493Y002801D01*
X025538Y002847D01*
X025576Y002899D01*
X025605Y002957D01*
X025625Y003018D01*
X025635Y003082D01*
X025635Y003084D01*
X025255Y003084D01*
X025255Y003144D01*
X025195Y003144D01*
X025195Y003084D01*
X024815Y003084D01*
X024815Y003082D01*
X024826Y003018D01*
X024845Y002957D01*
X024875Y002899D01*
X024913Y002847D01*
X024958Y002801D01*
X024990Y002778D01*
X021810Y002778D01*
X021430Y003158D01*
X021336Y003252D01*
X019435Y003252D01*
X019365Y003322D01*
X019175Y003322D01*
X019040Y003187D01*
X019040Y003028D01*
X018381Y003687D01*
X018381Y005893D01*
X018710Y005565D01*
X018681Y005494D01*
X018681Y005332D01*
X018743Y005183D01*
X018857Y005068D01*
X019007Y005006D01*
X019169Y005006D01*
X019239Y005036D01*
X019263Y005012D01*
X024564Y005012D01*
X025004Y004572D01*
X028665Y004572D01*
X028735Y004502D01*
X028925Y004502D01*
X029060Y004637D01*
X029060Y004827D01*
X028925Y004962D01*
X028735Y004962D01*
X028665Y004892D01*
X028527Y004892D01*
X028539Y004904D01*
X028595Y005040D01*
X028595Y005173D01*
X028700Y005068D01*
X028849Y005006D01*
X029011Y005006D01*
X029161Y005068D01*
X029275Y005183D01*
X029337Y005332D01*
X029337Y005494D01*
X029275Y005644D01*
X029161Y005758D01*
X029011Y005820D01*
X028849Y005820D01*
X028700Y005758D01*
X028585Y005644D01*
X028523Y005494D01*
X028523Y005339D01*
X028435Y005428D01*
X028299Y005484D01*
X028152Y005484D01*
X028016Y005428D01*
X027912Y005324D01*
X027855Y005188D01*
X027855Y005040D01*
X027912Y004904D01*
X027924Y004892D01*
X025527Y004892D01*
X025539Y004904D01*
X025595Y005040D01*
X025595Y005188D01*
X025539Y005324D01*
X025435Y005428D01*
X025299Y005484D01*
X025152Y005484D01*
X025102Y005463D01*
X025074Y005492D01*
X024576Y005492D01*
X024950Y005866D01*
X025016Y005800D01*
X025152Y005744D01*
X025299Y005744D01*
X025435Y005800D01*
X025539Y005904D01*
X025595Y006040D01*
X025595Y006188D01*
X025575Y006237D01*
X026311Y006974D01*
X026405Y007067D01*
X026405Y008859D01*
X026455Y008879D01*
X026559Y008983D01*
X026568Y009005D01*
X026577Y008983D01*
X026681Y008879D01*
X026817Y008823D01*
X026964Y008823D01*
X027100Y008879D01*
X027204Y008983D01*
X027206Y008986D01*
X027840Y008352D01*
X027840Y008055D01*
X028056Y007838D01*
X028363Y007838D01*
X028580Y008055D01*
X028580Y008362D01*
X028363Y008578D01*
X028066Y008578D01*
X027385Y009259D01*
X027292Y009353D01*
X027225Y009353D01*
X027204Y009402D01*
X027100Y009506D01*
X026964Y009563D01*
X026817Y009563D01*
X026768Y009542D01*
X026672Y009638D01*
X026578Y009732D01*
X026004Y009732D01*
X024764Y008492D01*
X024670Y008398D01*
X024670Y007429D01*
X024595Y007504D01*
X024298Y007504D01*
X022886Y008916D01*
X022952Y008983D01*
X023009Y009119D01*
X023009Y009160D02*
X023360Y009160D01*
X023360Y009258D02*
X023009Y009258D01*
X022971Y009357D02*
X023360Y009357D01*
X023360Y009455D02*
X022899Y009455D01*
X022734Y009554D02*
X023360Y009554D01*
X023360Y009652D02*
X018882Y009652D01*
X018922Y009751D02*
X023360Y009751D01*
X023360Y009849D02*
X023014Y009849D01*
X023030Y009866D02*
X023030Y009866D01*
X023112Y009948D02*
X023360Y009948D01*
X023360Y010046D02*
X023211Y010046D01*
X023309Y010145D02*
X023409Y010145D01*
X023507Y010243D02*
X023508Y010243D01*
X023605Y010342D02*
X023606Y010342D01*
X023620Y010440D02*
X023705Y010440D01*
X023390Y010452D02*
X022870Y009932D01*
X021830Y009932D01*
X020310Y011452D01*
X016590Y011452D01*
X015430Y010292D01*
X005423Y010292D01*
X004481Y009350D01*
X005234Y009357D02*
X006715Y009357D01*
X006715Y009400D02*
X006715Y009300D01*
X006815Y009300D01*
X006815Y009400D01*
X007558Y009400D01*
X007558Y009402D01*
X007544Y009505D01*
X007517Y009606D01*
X007477Y009702D01*
X007425Y009792D01*
X007362Y009874D01*
X007289Y009948D01*
X007206Y010011D01*
X007116Y010063D01*
X007020Y010103D01*
X006920Y010130D01*
X006902Y010132D01*
X012832Y010132D01*
X012693Y009993D01*
X012426Y010103D01*
X012127Y010103D01*
X011850Y009989D01*
X011638Y009777D01*
X011524Y009500D01*
X011524Y009200D01*
X011638Y008924D01*
X011850Y008712D01*
X012127Y008597D01*
X012426Y008597D01*
X012703Y008712D01*
X012915Y008924D01*
X013030Y009200D01*
X013030Y009500D01*
X012919Y009766D01*
X013125Y009972D01*
X015062Y009972D01*
X014867Y009777D01*
X014752Y009500D01*
X014752Y009200D01*
X014867Y008924D01*
X015078Y008712D01*
X015355Y008597D01*
X015655Y008597D01*
X015921Y008708D01*
X018061Y006567D01*
X018061Y003767D01*
X016696Y005132D01*
X016743Y005139D01*
X016804Y005159D01*
X016862Y005189D01*
X016914Y005226D01*
X016959Y005272D01*
X016997Y005324D01*
X017027Y005382D01*
X017047Y005443D01*
X017057Y005507D01*
X017057Y005509D01*
X016677Y005509D01*
X016677Y005569D01*
X017057Y005569D01*
X017057Y005571D01*
X017047Y005635D01*
X017027Y005697D01*
X016997Y005754D01*
X016959Y005806D01*
X016914Y005852D01*
X016862Y005890D01*
X016804Y005919D01*
X016743Y005939D01*
X016679Y005949D01*
X016677Y005949D01*
X016677Y005569D01*
X016617Y005569D01*
X016617Y005949D01*
X016614Y005949D01*
X016551Y005939D01*
X016489Y005919D01*
X016432Y005890D01*
X016380Y005852D01*
X016334Y005806D01*
X016296Y005754D01*
X016267Y005697D01*
X016247Y005635D01*
X016239Y005589D01*
X015666Y006162D01*
X015693Y006188D01*
X015749Y006324D01*
X015749Y006471D01*
X015693Y006607D01*
X015589Y006711D01*
X015453Y006767D01*
X015305Y006767D01*
X015169Y006711D01*
X015065Y006607D01*
X015009Y006471D01*
X015009Y006324D01*
X015065Y006188D01*
X015169Y006084D01*
X015305Y006027D01*
X015348Y006027D01*
X019444Y001932D01*
X019839Y001932D01*
X019829Y001922D01*
X019773Y001786D01*
X019773Y001639D01*
X019829Y001503D01*
X019917Y001415D01*
X019870Y001396D01*
X019766Y001292D01*
X019710Y001156D01*
X019710Y001009D01*
X019766Y000873D01*
X019870Y000769D01*
X020006Y000713D01*
X020153Y000713D01*
X020289Y000769D01*
X020393Y000873D01*
X020450Y001009D01*
X020450Y001156D01*
X020393Y001292D01*
X020306Y001380D01*
X020352Y001399D01*
X020456Y001503D01*
X020513Y001639D01*
X020513Y001663D01*
X020844Y001332D01*
X023412Y001332D01*
X023372Y001292D01*
X023316Y001156D01*
X023316Y001009D01*
X023372Y000873D01*
X023476Y000769D01*
X023612Y000713D01*
X023760Y000713D01*
X023896Y000769D01*
X024000Y000873D01*
X024056Y001009D01*
X024056Y001156D01*
X024000Y001292D01*
X023960Y001332D01*
X024196Y001332D01*
X024111Y001248D01*
X024111Y000941D01*
X024328Y000724D01*
X024635Y000724D01*
X024851Y000941D01*
X024851Y001248D01*
X024767Y001332D01*
X024920Y001332D01*
X024912Y001324D01*
X024855Y001188D01*
X024855Y001040D01*
X024912Y000904D01*
X025016Y000800D01*
X025152Y000744D01*
X025299Y000744D01*
X025435Y000800D01*
X025539Y000904D01*
X025595Y001040D01*
X025595Y001188D01*
X025539Y001324D01*
X025531Y001332D01*
X027781Y001332D01*
X027855Y001258D01*
X027855Y000808D01*
X027920Y000744D01*
X028531Y000744D01*
X028595Y000808D01*
X028595Y001420D01*
X028531Y001484D01*
X028082Y001484D01*
X028074Y001492D01*
X029180Y001492D01*
X029153Y001464D01*
X028856Y001464D01*
X028639Y001248D01*
X028639Y000941D01*
X028856Y000724D01*
X029162Y000724D01*
X029379Y000941D01*
X029379Y001238D01*
X029418Y001277D01*
X029475Y001277D01*
X029451Y001253D01*
X029395Y001117D01*
X029395Y000970D01*
X029451Y000834D01*
X029555Y000729D01*
X029691Y000673D01*
X029838Y000673D01*
X029974Y000729D01*
X030078Y000834D01*
X030135Y000970D01*
X030135Y001117D01*
X030078Y001253D01*
X030054Y001277D01*
X032847Y001277D01*
X033248Y001678D01*
X033298Y001657D01*
X033445Y001657D01*
X033581Y001714D01*
X033685Y001818D01*
X033741Y001954D01*
X033741Y002101D01*
X033685Y002237D01*
X033581Y002341D01*
X033445Y002397D01*
X033442Y002397D01*
X033536Y002492D01*
X033844Y002492D01*
X033757Y002405D01*
X033757Y002099D01*
X033974Y001882D01*
X034280Y001882D01*
X034497Y002099D01*
X034497Y002405D01*
X034410Y002492D01*
X034608Y002492D01*
X034597Y002481D01*
X034540Y002345D01*
X034540Y002198D01*
X034597Y002062D01*
X034701Y001958D01*
X034837Y001901D01*
X034984Y001901D01*
X035034Y001922D01*
X035464Y001492D01*
X037540Y001492D01*
X037540Y001128D01*
X037225Y000812D01*
X033829Y000812D01*
X033721Y000920D01*
X033741Y000970D01*
X033741Y001117D01*
X033685Y001253D01*
X033581Y001357D01*
X033445Y001413D01*
X033298Y001413D01*
X033162Y001357D01*
X033057Y001253D01*
X033001Y001117D01*
X033001Y000970D01*
X033057Y000834D01*
X033162Y000729D01*
X033298Y000673D01*
X033445Y000673D01*
X033494Y000694D01*
X033546Y000642D01*
X000340Y000642D01*
X000340Y012153D01*
X017336Y012153D01*
X017182Y012000D01*
X017182Y011693D01*
X017263Y011612D01*
X016524Y011612D01*
X015364Y010452D01*
X013866Y010452D01*
X013932Y010479D01*
X014023Y010532D01*
X014106Y010596D01*
X014181Y010670D01*
X014245Y010754D01*
X014297Y010845D01*
X014338Y010942D01*
X014365Y011044D01*
X014379Y011148D01*
X014379Y011151D01*
X013626Y011151D01*
X013626Y011251D01*
X013526Y011251D01*
X013526Y012003D01*
X013523Y012003D01*
X013419Y011990D01*
X013317Y011962D01*
X013220Y011922D01*
X013129Y011870D01*
X013045Y011805D01*
X012971Y011731D01*
X012907Y011648D01*
X012854Y011556D01*
X012814Y011459D01*
X012787Y011358D01*
X012773Y011253D01*
X012773Y011251D01*
X013526Y011251D01*
X013526Y011151D01*
X012773Y011151D01*
X012773Y011148D01*
X012787Y011044D01*
X012814Y010942D01*
X012854Y010845D01*
X012907Y010754D01*
X012971Y010670D01*
X013045Y010596D01*
X013129Y010532D01*
X013220Y010479D01*
X013286Y010452D01*
X008354Y010452D01*
X008420Y010479D01*
X008511Y010532D01*
X008594Y010596D01*
X008669Y010670D01*
X008733Y010754D01*
X008786Y010845D01*
X008826Y010942D01*
X008853Y011044D01*
X008867Y011148D01*
X008867Y011151D01*
X008114Y011151D01*
X008114Y011251D01*
X008014Y011251D01*
X008014Y012003D01*
X008011Y012003D01*
X007907Y011990D01*
X007805Y011962D01*
X007708Y011922D01*
X007617Y011870D01*
X007534Y011805D01*
X007459Y011731D01*
X007395Y011648D01*
X007343Y011556D01*
X007302Y011459D01*
X007275Y011358D01*
X007261Y011253D01*
X007261Y011251D01*
X008014Y011251D01*
X008014Y011151D01*
X007261Y011151D01*
X007261Y011148D01*
X007275Y011044D01*
X007302Y010942D01*
X007343Y010845D01*
X007395Y010754D01*
X007459Y010670D01*
X007534Y010596D01*
X007617Y010532D01*
X007708Y010479D01*
X007774Y010452D01*
X005357Y010452D01*
X004898Y009993D01*
X004631Y010103D01*
X004332Y010103D01*
X004055Y009989D01*
X003843Y009777D01*
X003728Y009500D01*
X003728Y009200D01*
X003843Y008924D01*
X004055Y008712D01*
X004332Y008597D01*
X004631Y008597D01*
X004908Y008712D01*
X005120Y008924D01*
X005234Y009200D01*
X005234Y009500D01*
X005124Y009766D01*
X005489Y010132D01*
X006628Y010132D01*
X006610Y010130D01*
X006509Y010103D01*
X006413Y010063D01*
X006323Y010011D01*
X006241Y009948D01*
X005305Y009948D01*
X005207Y009849D02*
X006148Y009849D01*
X006167Y009874D02*
X006104Y009792D01*
X006052Y009702D01*
X006012Y009606D01*
X005985Y009505D01*
X005972Y009402D01*
X005972Y009400D01*
X006715Y009400D01*
X006715Y009300D02*
X005972Y009300D01*
X005972Y009298D01*
X005985Y009195D01*
X006012Y009095D01*
X006052Y008999D01*
X006104Y008909D01*
X006167Y008826D01*
X006241Y008753D01*
X006323Y008690D01*
X006413Y008638D01*
X006509Y008598D01*
X006610Y008571D01*
X006713Y008557D01*
X006715Y008557D01*
X006715Y009300D01*
X006715Y009258D02*
X006815Y009258D01*
X006815Y009300D02*
X006815Y008557D01*
X006817Y008557D01*
X006920Y008571D01*
X007020Y008598D01*
X007116Y008638D01*
X007206Y008690D01*
X007289Y008753D01*
X007362Y008826D01*
X007425Y008909D01*
X007477Y008999D01*
X007517Y009095D01*
X007544Y009195D01*
X007558Y009298D01*
X007558Y009300D01*
X006815Y009300D01*
X006815Y009357D02*
X009240Y009357D01*
X009240Y009455D02*
X007551Y009455D01*
X007531Y009554D02*
X009263Y009554D01*
X009240Y009500D02*
X009240Y009200D01*
X009355Y008924D01*
X009567Y008712D01*
X009843Y008597D01*
X010143Y008597D01*
X010420Y008712D01*
X010631Y008924D01*
X010746Y009200D01*
X010746Y009500D01*
X010631Y009777D01*
X010420Y009989D01*
X010143Y010103D01*
X009843Y010103D01*
X009567Y009989D01*
X009355Y009777D01*
X009240Y009500D01*
X009303Y009652D02*
X007498Y009652D01*
X007449Y009751D02*
X009344Y009751D01*
X009428Y009849D02*
X007381Y009849D01*
X007288Y009948D02*
X009526Y009948D01*
X009707Y010046D02*
X007145Y010046D01*
X006385Y010046D02*
X005404Y010046D01*
X005148Y010243D02*
X000340Y010243D01*
X000340Y010145D02*
X005050Y010145D01*
X004951Y010046D02*
X004768Y010046D01*
X004195Y010046D02*
X001633Y010046D01*
X001604Y010063D02*
X001508Y010103D01*
X001408Y010130D01*
X001305Y010143D01*
X001303Y010143D01*
X001303Y009400D01*
X002046Y009400D01*
X002046Y009402D01*
X002032Y009505D01*
X002005Y009606D01*
X001966Y009702D01*
X001914Y009792D01*
X001850Y009874D01*
X001777Y009948D01*
X001694Y010011D01*
X001604Y010063D01*
X001776Y009948D02*
X004014Y009948D01*
X003916Y009849D02*
X001869Y009849D01*
X001937Y009751D02*
X003832Y009751D01*
X003792Y009652D02*
X001986Y009652D01*
X002019Y009554D02*
X003751Y009554D01*
X003728Y009455D02*
X002039Y009455D01*
X002046Y009300D02*
X001303Y009300D01*
X001303Y008557D01*
X001305Y008557D01*
X001408Y008571D01*
X001508Y008598D01*
X001604Y008638D01*
X001694Y008690D01*
X001777Y008753D01*
X001850Y008826D01*
X001914Y008909D01*
X001966Y008999D01*
X002005Y009095D01*
X002032Y009195D01*
X002046Y009298D01*
X002046Y009300D01*
X002041Y009258D02*
X003728Y009258D01*
X003728Y009357D02*
X001303Y009357D01*
X001303Y009400D02*
X001303Y009300D01*
X001203Y009300D01*
X001203Y008557D01*
X001201Y008557D01*
X001098Y008571D01*
X000998Y008598D01*
X000902Y008638D01*
X000812Y008690D01*
X000729Y008753D01*
X000656Y008826D01*
X000592Y008909D01*
X000540Y008999D01*
X000501Y009095D01*
X000474Y009195D01*
X000460Y009298D01*
X000460Y009300D01*
X001203Y009300D01*
X001203Y009400D01*
X000460Y009400D01*
X000460Y009402D01*
X000474Y009505D01*
X000501Y009606D01*
X000540Y009702D01*
X000592Y009792D01*
X000656Y009874D01*
X000729Y009948D01*
X000812Y010011D01*
X000902Y010063D01*
X000998Y010103D01*
X001098Y010130D01*
X001201Y010143D01*
X001203Y010143D01*
X001203Y009400D01*
X001303Y009400D01*
X001303Y009455D02*
X001203Y009455D01*
X001203Y009357D02*
X000340Y009357D01*
X000340Y009455D02*
X000467Y009455D01*
X000487Y009554D02*
X000340Y009554D01*
X000340Y009652D02*
X000520Y009652D01*
X000569Y009751D02*
X000340Y009751D01*
X000340Y009849D02*
X000637Y009849D01*
X000730Y009948D02*
X000340Y009948D01*
X000340Y010046D02*
X000873Y010046D01*
X001203Y010046D02*
X001303Y010046D01*
X001303Y009948D02*
X001203Y009948D01*
X001203Y009849D02*
X001303Y009849D01*
X001303Y009751D02*
X001203Y009751D01*
X001203Y009652D02*
X001303Y009652D01*
X001303Y009554D02*
X001203Y009554D01*
X001203Y009258D02*
X001303Y009258D01*
X001303Y009160D02*
X001203Y009160D01*
X001203Y009061D02*
X001303Y009061D01*
X001303Y008963D02*
X001203Y008963D01*
X001203Y008864D02*
X001303Y008864D01*
X001303Y008766D02*
X001203Y008766D01*
X001203Y008667D02*
X001303Y008667D01*
X001303Y008569D02*
X001203Y008569D01*
X001112Y008569D02*
X000340Y008569D01*
X000340Y008667D02*
X000850Y008667D01*
X000716Y008766D02*
X000340Y008766D01*
X000340Y008864D02*
X000626Y008864D01*
X000561Y008963D02*
X000340Y008963D01*
X000340Y009061D02*
X000514Y009061D01*
X000483Y009160D02*
X000340Y009160D01*
X000340Y009258D02*
X000465Y009258D01*
X001790Y008766D02*
X004001Y008766D01*
X003902Y008864D02*
X001880Y008864D01*
X001945Y008963D02*
X003827Y008963D01*
X003786Y009061D02*
X001992Y009061D01*
X002023Y009160D02*
X003745Y009160D01*
X004162Y008667D02*
X001656Y008667D01*
X001394Y008569D02*
X006624Y008569D01*
X006715Y008569D02*
X006815Y008569D01*
X006905Y008569D02*
X016060Y008569D01*
X016158Y008470D02*
X000340Y008470D01*
X000340Y008372D02*
X016257Y008372D01*
X016355Y008273D02*
X000340Y008273D01*
X000340Y008175D02*
X016454Y008175D01*
X016552Y008076D02*
X000340Y008076D01*
X000340Y007978D02*
X002315Y007978D01*
X002347Y007995D02*
X002272Y007956D01*
X002204Y007907D01*
X002145Y007848D01*
X002096Y007780D01*
X002057Y007705D01*
X002031Y007625D01*
X002020Y007550D01*
X002502Y007550D01*
X002502Y007450D01*
X002020Y007450D01*
X002031Y007375D01*
X002057Y007295D01*
X002096Y007220D01*
X002145Y007152D01*
X002204Y007093D01*
X002272Y007043D01*
X002347Y007005D01*
X002427Y006979D01*
X002502Y006967D01*
X002502Y007450D01*
X002602Y007450D01*
X002602Y006967D01*
X002677Y006979D01*
X002757Y007005D01*
X002832Y007043D01*
X002900Y007093D01*
X002959Y007152D01*
X003009Y007220D01*
X003047Y007295D01*
X003073Y007375D01*
X003085Y007450D01*
X002602Y007450D01*
X002602Y007550D01*
X002502Y007550D01*
X002502Y008032D01*
X002427Y008021D01*
X002347Y007995D01*
X002502Y007978D02*
X002602Y007978D01*
X002602Y008032D02*
X002602Y007550D01*
X003085Y007550D01*
X003073Y007625D01*
X003047Y007705D01*
X003009Y007780D01*
X002959Y007848D01*
X002900Y007907D01*
X002832Y007956D01*
X002757Y007995D01*
X002677Y008021D01*
X002602Y008032D01*
X002602Y007879D02*
X002502Y007879D01*
X002502Y007781D02*
X002602Y007781D01*
X002602Y007682D02*
X002502Y007682D01*
X002502Y007584D02*
X002602Y007584D01*
X002602Y007485D02*
X008014Y007485D01*
X008014Y007450D02*
X008014Y007550D01*
X008014Y008032D01*
X007939Y008021D01*
X007859Y007995D01*
X007784Y007956D01*
X007716Y007907D01*
X007657Y007848D01*
X007607Y007780D01*
X007569Y007705D01*
X007543Y007625D01*
X007531Y007550D01*
X008014Y007550D01*
X008114Y007550D01*
X008114Y008032D01*
X008189Y008021D01*
X008269Y007995D01*
X008344Y007956D01*
X008412Y007907D01*
X008471Y007848D01*
X008521Y007780D01*
X008559Y007705D01*
X008585Y007625D01*
X008597Y007550D01*
X008114Y007550D01*
X008114Y007450D01*
X008597Y007450D01*
X008585Y007375D01*
X008559Y007295D01*
X008521Y007220D01*
X008471Y007152D01*
X008412Y007093D01*
X008344Y007043D01*
X008269Y007005D01*
X008189Y006979D01*
X008114Y006967D01*
X008114Y007450D01*
X008014Y007450D01*
X007531Y007450D01*
X007543Y007375D01*
X007569Y007295D01*
X007607Y007220D01*
X007657Y007152D01*
X007716Y007093D01*
X007784Y007043D01*
X007859Y007005D01*
X007939Y006979D01*
X008014Y006967D01*
X008014Y007450D01*
X008014Y007387D02*
X008114Y007387D01*
X008114Y007485D02*
X013526Y007485D01*
X013526Y007450D02*
X013526Y007550D01*
X013526Y008032D01*
X013451Y008021D01*
X013371Y007995D01*
X013296Y007956D01*
X013228Y007907D01*
X013169Y007848D01*
X013119Y007780D01*
X013081Y007705D01*
X013055Y007625D01*
X013043Y007550D01*
X013526Y007550D01*
X013626Y007550D01*
X013626Y008032D01*
X013701Y008021D01*
X013781Y007995D01*
X013856Y007956D01*
X013924Y007907D01*
X013983Y007848D01*
X014032Y007780D01*
X014071Y007705D01*
X014097Y007625D01*
X014108Y007550D01*
X013626Y007550D01*
X013626Y007450D01*
X014108Y007450D01*
X014097Y007375D01*
X014071Y007295D01*
X014032Y007220D01*
X013983Y007152D01*
X013924Y007093D01*
X013856Y007043D01*
X013781Y007005D01*
X013701Y006979D01*
X013626Y006967D01*
X013626Y007450D01*
X013526Y007450D01*
X013043Y007450D01*
X013055Y007375D01*
X013081Y007295D01*
X013119Y007220D01*
X013169Y007152D01*
X013228Y007093D01*
X013296Y007043D01*
X013371Y007005D01*
X013451Y006979D01*
X013526Y006967D01*
X013526Y007450D01*
X013526Y007387D02*
X013626Y007387D01*
X013626Y007485D02*
X017143Y007485D01*
X017242Y007387D02*
X014098Y007387D01*
X014067Y007288D02*
X017340Y007288D01*
X017439Y007190D02*
X014011Y007190D01*
X013922Y007091D02*
X017537Y007091D01*
X017636Y006993D02*
X013743Y006993D01*
X013626Y006993D02*
X013526Y006993D01*
X013526Y007091D02*
X013626Y007091D01*
X013626Y007190D02*
X013526Y007190D01*
X013526Y007288D02*
X013626Y007288D01*
X013230Y007091D02*
X008410Y007091D01*
X008499Y007190D02*
X013141Y007190D01*
X013084Y007288D02*
X008555Y007288D01*
X008587Y007387D02*
X013053Y007387D01*
X013049Y007584D02*
X008591Y007584D01*
X008566Y007682D02*
X013074Y007682D01*
X013120Y007781D02*
X008520Y007781D01*
X008439Y007879D02*
X013200Y007879D01*
X013338Y007978D02*
X008302Y007978D01*
X008114Y007978D02*
X008014Y007978D01*
X008014Y007879D02*
X008114Y007879D01*
X008114Y007781D02*
X008014Y007781D01*
X008014Y007682D02*
X008114Y007682D01*
X008114Y007584D02*
X008014Y007584D01*
X007562Y007682D02*
X003054Y007682D01*
X003079Y007584D02*
X007537Y007584D01*
X007541Y007387D02*
X003075Y007387D01*
X003044Y007288D02*
X007573Y007288D01*
X007629Y007190D02*
X002987Y007190D01*
X002898Y007091D02*
X007718Y007091D01*
X007896Y006993D02*
X002720Y006993D01*
X002602Y006993D02*
X002502Y006993D01*
X002502Y007091D02*
X002602Y007091D01*
X002602Y007190D02*
X002502Y007190D01*
X002502Y007288D02*
X002602Y007288D01*
X002602Y007387D02*
X002502Y007387D01*
X002502Y007485D02*
X000340Y007485D01*
X000340Y007387D02*
X002030Y007387D01*
X002061Y007288D02*
X000340Y007288D01*
X000340Y007190D02*
X002117Y007190D01*
X002206Y007091D02*
X000340Y007091D01*
X000340Y006993D02*
X002385Y006993D01*
X001119Y006471D02*
X001063Y006607D01*
X000959Y006711D01*
X000823Y006767D01*
X000675Y006767D01*
X000539Y006711D01*
X000435Y006607D01*
X000379Y006471D01*
X000379Y006324D01*
X000435Y006188D01*
X000539Y006084D01*
X000675Y006027D01*
X000823Y006027D01*
X000959Y006084D01*
X001063Y006188D01*
X001119Y006324D01*
X001119Y006471D01*
X001107Y006500D02*
X003998Y006500D01*
X003985Y006471D02*
X004042Y006607D01*
X004146Y006711D01*
X004282Y006767D01*
X004429Y006767D01*
X004565Y006711D01*
X004669Y006607D01*
X004725Y006471D01*
X004725Y006324D01*
X004669Y006188D01*
X004565Y006084D01*
X004429Y006027D01*
X004282Y006027D01*
X004146Y006084D01*
X004042Y006188D01*
X003985Y006324D01*
X003985Y006471D01*
X003985Y006402D02*
X001119Y006402D01*
X001111Y006303D02*
X003994Y006303D01*
X004035Y006205D02*
X001070Y006205D01*
X000981Y006106D02*
X004123Y006106D01*
X004588Y006106D02*
X006029Y006106D01*
X006051Y006084D02*
X006187Y006027D01*
X006334Y006027D01*
X006470Y006084D01*
X006575Y006188D01*
X006631Y006324D01*
X006631Y006471D01*
X006575Y006607D01*
X006470Y006711D01*
X006334Y006767D01*
X006187Y006767D01*
X006051Y006711D01*
X005947Y006607D01*
X005891Y006471D01*
X005891Y006324D01*
X005947Y006188D01*
X006051Y006084D01*
X005940Y006205D02*
X004676Y006205D01*
X004717Y006303D02*
X005899Y006303D01*
X005891Y006402D02*
X004725Y006402D01*
X004713Y006500D02*
X005903Y006500D01*
X005944Y006599D02*
X004672Y006599D01*
X004579Y006697D02*
X006038Y006697D01*
X006484Y006697D02*
X009644Y006697D01*
X009658Y006711D02*
X009553Y006607D01*
X009497Y006471D01*
X009497Y006324D01*
X009553Y006188D01*
X009658Y006084D01*
X009794Y006027D01*
X009941Y006027D01*
X010077Y006084D01*
X010181Y006188D01*
X010237Y006324D01*
X010237Y006471D01*
X010181Y006607D01*
X010077Y006711D01*
X009941Y006767D01*
X009794Y006767D01*
X009658Y006711D01*
X009550Y006599D02*
X006578Y006599D01*
X006619Y006500D02*
X009509Y006500D01*
X009497Y006402D02*
X006631Y006402D01*
X006622Y006303D02*
X009506Y006303D01*
X009546Y006205D02*
X006582Y006205D01*
X006493Y006106D02*
X009635Y006106D01*
X010099Y006106D02*
X011540Y006106D01*
X011563Y006084D02*
X011699Y006027D01*
X011846Y006027D01*
X011982Y006084D01*
X012086Y006188D01*
X012143Y006324D01*
X012143Y006471D01*
X012086Y006607D01*
X011982Y006711D01*
X011846Y006767D01*
X011699Y006767D01*
X011563Y006711D01*
X011459Y006607D01*
X011403Y006471D01*
X011403Y006324D01*
X011459Y006188D01*
X011563Y006084D01*
X011452Y006205D02*
X010188Y006205D01*
X010229Y006303D02*
X011411Y006303D01*
X011403Y006402D02*
X010237Y006402D01*
X010225Y006500D02*
X011415Y006500D01*
X011456Y006599D02*
X010184Y006599D01*
X010090Y006697D02*
X011549Y006697D01*
X011996Y006697D02*
X015156Y006697D01*
X015062Y006599D02*
X012090Y006599D01*
X012130Y006500D02*
X015021Y006500D01*
X015009Y006402D02*
X012143Y006402D01*
X012134Y006303D02*
X015017Y006303D01*
X015058Y006205D02*
X012093Y006205D01*
X012005Y006106D02*
X015147Y006106D01*
X015368Y006008D02*
X013947Y006008D01*
X013932Y006017D02*
X013834Y006057D01*
X013733Y006084D01*
X013628Y006098D01*
X013626Y006098D01*
X013626Y005345D01*
X014379Y005345D01*
X014379Y005348D01*
X014365Y005452D01*
X014338Y005554D01*
X014297Y005651D01*
X014245Y005742D01*
X014181Y005826D01*
X014106Y005900D01*
X014023Y005964D01*
X013932Y006017D01*
X014094Y005909D02*
X015466Y005909D01*
X015565Y005811D02*
X014192Y005811D01*
X014262Y005712D02*
X015663Y005712D01*
X015762Y005614D02*
X014313Y005614D01*
X014348Y005515D02*
X015860Y005515D01*
X015959Y005417D02*
X014369Y005417D01*
X014379Y005245D02*
X013626Y005245D01*
X013626Y005345D01*
X013526Y005345D01*
X013526Y006098D01*
X013523Y006098D01*
X013419Y006084D01*
X013317Y006057D01*
X013220Y006017D01*
X013129Y005964D01*
X013045Y005900D01*
X012971Y005826D01*
X012907Y005742D01*
X012854Y005651D01*
X012814Y005554D01*
X012787Y005452D01*
X012773Y005348D01*
X012773Y005345D01*
X013526Y005345D01*
X013526Y005245D01*
X013626Y005245D01*
X013626Y004492D01*
X013628Y004492D01*
X013733Y004506D01*
X013834Y004533D01*
X013932Y004574D01*
X014023Y004626D01*
X014106Y004690D01*
X014181Y004765D01*
X014245Y004848D01*
X014297Y004939D01*
X014338Y005037D01*
X014365Y005138D01*
X014379Y005242D01*
X014379Y005245D01*
X014376Y005220D02*
X016156Y005220D01*
X016254Y005121D02*
X014360Y005121D01*
X014332Y005023D02*
X016353Y005023D01*
X016451Y004924D02*
X014289Y004924D01*
X014228Y004826D02*
X016550Y004826D01*
X016648Y004727D02*
X014143Y004727D01*
X014026Y004629D02*
X016747Y004629D01*
X016845Y004530D02*
X013824Y004530D01*
X013626Y004530D02*
X013526Y004530D01*
X013526Y004492D02*
X013526Y005245D01*
X012773Y005245D01*
X012773Y005242D01*
X012787Y005138D01*
X012814Y005037D01*
X012854Y004939D01*
X012907Y004848D01*
X012971Y004765D01*
X013045Y004690D01*
X013129Y004626D01*
X013220Y004574D01*
X013317Y004533D01*
X013419Y004506D01*
X013523Y004492D01*
X013526Y004492D01*
X013526Y004629D02*
X013626Y004629D01*
X013626Y004727D02*
X013526Y004727D01*
X013526Y004826D02*
X013626Y004826D01*
X013626Y004924D02*
X013526Y004924D01*
X013526Y005023D02*
X013626Y005023D01*
X013626Y005121D02*
X013526Y005121D01*
X013526Y005220D02*
X013626Y005220D01*
X013626Y005318D02*
X016057Y005318D01*
X016214Y005614D02*
X016243Y005614D01*
X016275Y005712D02*
X016116Y005712D01*
X016017Y005811D02*
X016339Y005811D01*
X016470Y005909D02*
X015919Y005909D01*
X015820Y006008D02*
X018061Y006008D01*
X018061Y006106D02*
X015722Y006106D01*
X015700Y006205D02*
X018061Y006205D01*
X018061Y006303D02*
X015741Y006303D01*
X015749Y006402D02*
X018061Y006402D01*
X018061Y006500D02*
X015737Y006500D01*
X015696Y006599D02*
X018030Y006599D01*
X017931Y006697D02*
X015602Y006697D01*
X015379Y006397D02*
X015379Y006223D01*
X019510Y002092D01*
X020310Y002092D01*
X020910Y001492D01*
X027847Y001492D01*
X028225Y001114D01*
X027855Y001083D02*
X025595Y001083D01*
X025595Y001181D02*
X027855Y001181D01*
X027833Y001280D02*
X025557Y001280D01*
X024894Y001280D02*
X024819Y001280D01*
X024851Y001181D02*
X024855Y001181D01*
X024851Y001083D02*
X024855Y001083D01*
X024851Y000984D02*
X024879Y000984D01*
X024930Y000886D02*
X024796Y000886D01*
X024698Y000787D02*
X025047Y000787D01*
X025404Y000787D02*
X027876Y000787D01*
X027855Y000886D02*
X025521Y000886D01*
X025572Y000984D02*
X027855Y000984D01*
X028595Y000984D02*
X028639Y000984D01*
X028639Y001083D02*
X028595Y001083D01*
X028595Y001181D02*
X028639Y001181D01*
X028671Y001280D02*
X028595Y001280D01*
X028595Y001378D02*
X028770Y001378D01*
X028538Y001477D02*
X029165Y001477D01*
X029351Y001437D02*
X032781Y001437D01*
X033371Y002027D01*
X033714Y002166D02*
X033757Y002166D01*
X033757Y002265D02*
X033657Y002265D01*
X033757Y002363D02*
X033527Y002363D01*
X033506Y002462D02*
X033814Y002462D01*
X033470Y002652D02*
X037291Y002652D01*
X037910Y003271D01*
X037561Y003148D02*
X037540Y003198D01*
X037540Y003345D01*
X037597Y003481D01*
X037701Y003585D01*
X037837Y003641D01*
X037984Y003641D01*
X038120Y003585D01*
X038224Y003481D01*
X038280Y003345D01*
X038280Y003198D01*
X038224Y003062D01*
X038120Y002958D01*
X037984Y002901D01*
X037837Y002901D01*
X037787Y002922D01*
X037357Y002492D01*
X035213Y002492D01*
X035224Y002481D01*
X035280Y002345D01*
X035280Y002198D01*
X035260Y002148D01*
X035596Y001812D01*
X038296Y001812D01*
X038390Y001718D01*
X038462Y001646D01*
X038471Y001649D01*
X038618Y001649D01*
X038754Y001593D01*
X038858Y001489D01*
X038914Y001353D01*
X038914Y001206D01*
X038858Y001070D01*
X038754Y000966D01*
X038618Y000909D01*
X038471Y000909D01*
X038335Y000966D01*
X038280Y001020D01*
X038280Y000966D01*
X038216Y000901D01*
X037767Y000901D01*
X037507Y000642D01*
X043347Y000642D01*
X043347Y012153D01*
X034842Y012153D01*
X034959Y012105D01*
X035063Y012001D01*
X035119Y011865D01*
X035119Y011718D01*
X035063Y011582D01*
X034959Y011477D01*
X034823Y011421D01*
X034675Y011421D01*
X034539Y011477D01*
X034435Y011582D01*
X034379Y011718D01*
X034379Y011865D01*
X034435Y012001D01*
X034539Y012105D01*
X034656Y012153D01*
X031236Y012153D01*
X031352Y012105D01*
X031456Y012001D01*
X031513Y011865D01*
X031513Y011718D01*
X031456Y011582D01*
X031352Y011477D01*
X031216Y011421D01*
X031069Y011421D01*
X030933Y011477D01*
X030890Y011521D01*
X030882Y011503D01*
X030758Y011379D01*
X030596Y011312D01*
X030421Y011312D01*
X030260Y011379D01*
X030136Y011503D01*
X030069Y011664D01*
X030069Y011839D01*
X030136Y012001D01*
X030260Y012125D01*
X030328Y012153D01*
X027690Y012153D01*
X027758Y012125D01*
X027882Y012001D01*
X027949Y011839D01*
X027949Y011664D01*
X027882Y011503D01*
X027758Y011379D01*
X027596Y011312D01*
X027421Y011312D01*
X027260Y011379D01*
X027136Y011503D01*
X027069Y011664D01*
X027069Y011718D01*
X026879Y011527D01*
X026572Y011527D01*
X026355Y011744D01*
X026355Y012051D01*
X026458Y012153D01*
X023979Y012153D01*
X024065Y012067D01*
X024065Y011927D01*
X023685Y011927D01*
X023685Y011867D01*
X024065Y011867D01*
X024065Y011728D01*
X023824Y011487D01*
X023685Y011487D01*
X023685Y011867D01*
X023625Y011867D01*
X023625Y011487D01*
X023485Y011487D01*
X023245Y011728D01*
X023245Y011867D01*
X023625Y011867D01*
X023625Y011927D01*
X023245Y011927D01*
X023245Y012067D01*
X023330Y012153D01*
X018769Y012153D01*
X018922Y012000D01*
X018922Y011693D01*
X018841Y011612D01*
X020376Y011612D01*
X020470Y011518D01*
X021896Y010092D01*
X022804Y010092D01*
X023160Y010448D01*
X023160Y010547D01*
X023295Y010682D01*
X023347Y010682D01*
X023285Y010744D01*
X023285Y011051D01*
X023501Y011267D01*
X023808Y011267D01*
X024025Y011051D01*
X024025Y010760D01*
X024820Y011556D01*
X024820Y011754D01*
X025037Y011971D01*
X025343Y011971D01*
X025560Y011754D01*
X025560Y011447D01*
X025560Y011447D01*
X026725Y010282D01*
X027215Y010282D01*
X027136Y010361D01*
X027069Y010523D01*
X027069Y010661D01*
X026895Y010487D01*
X026755Y010487D01*
X026755Y010867D01*
X026695Y010867D01*
X026695Y010487D01*
X026556Y010487D01*
X026315Y010728D01*
X026315Y010867D01*
X026695Y010867D01*
X026695Y010927D01*
X026315Y010927D01*
X026315Y011067D01*
X026556Y011307D01*
X026695Y011307D01*
X026695Y010927D01*
X026755Y010927D01*
X027135Y010927D01*
X027135Y011067D01*
X026895Y011307D01*
X026755Y011307D01*
X026755Y010927D01*
X026755Y010867D01*
X027135Y010867D01*
X027135Y010858D01*
X027136Y010859D01*
X027260Y010983D01*
X027421Y011050D01*
X027596Y011050D01*
X027758Y010983D01*
X027882Y010859D01*
X027949Y010698D01*
X027949Y010523D01*
X027882Y010361D01*
X027803Y010282D01*
X030215Y010282D01*
X030136Y010361D01*
X030069Y010523D01*
X030069Y010698D01*
X030136Y010859D01*
X030260Y010983D01*
X030421Y011050D01*
X030596Y011050D01*
X030758Y010983D01*
X030799Y010943D01*
X030829Y011017D01*
X030933Y011121D01*
X031069Y011177D01*
X031216Y011177D01*
X031352Y011121D01*
X031456Y011017D01*
X031513Y010881D01*
X031513Y010733D01*
X031456Y010597D01*
X031352Y010493D01*
X031216Y010437D01*
X031069Y010437D01*
X030936Y010492D01*
X030882Y010361D01*
X030803Y010282D01*
X031125Y010282D01*
X031260Y010147D01*
X032780Y008627D01*
X032780Y005656D01*
X032910Y005526D01*
X032910Y008666D01*
X032234Y009342D01*
X032135Y009342D01*
X032000Y009477D01*
X032000Y009667D01*
X032135Y009802D01*
X032325Y009802D01*
X032460Y009667D01*
X032460Y009568D01*
X033230Y008798D01*
X033230Y005638D01*
X033437Y005431D01*
X034576Y005431D01*
X034597Y005481D01*
X034701Y005585D01*
X034837Y005641D01*
X034984Y005641D01*
X035120Y005585D01*
X035224Y005481D01*
X035280Y005345D01*
X035280Y005198D01*
X035224Y005062D01*
X035120Y004958D01*
X034984Y004901D01*
X034837Y004901D01*
X034701Y004958D01*
X034597Y005062D01*
X034576Y005111D01*
X033325Y005111D01*
X034189Y004248D01*
X034387Y004248D01*
X034603Y004031D01*
X034603Y003772D01*
X034684Y003852D01*
X036724Y003852D01*
X037590Y004718D01*
X037684Y004812D01*
X038004Y004812D01*
X038190Y004998D01*
X038190Y005028D01*
X038120Y004958D01*
X037984Y004901D01*
X037837Y004901D01*
X037701Y004958D01*
X037597Y005062D01*
X037576Y005111D01*
X036636Y005111D01*
X035660Y004136D01*
X035660Y004037D01*
X035525Y003902D01*
X035335Y003902D01*
X035200Y004037D01*
X035200Y004038D01*
X035120Y003958D01*
X034984Y003901D01*
X034837Y003901D01*
X034701Y003958D01*
X034597Y004062D01*
X034540Y004198D01*
X034540Y004345D01*
X034597Y004481D01*
X034701Y004585D01*
X034837Y004641D01*
X034984Y004641D01*
X035120Y004585D01*
X035224Y004481D01*
X035280Y004345D01*
X035280Y004308D01*
X035335Y004362D01*
X035434Y004362D01*
X036503Y005431D01*
X037576Y005431D01*
X037597Y005481D01*
X037701Y005585D01*
X037837Y005641D01*
X037984Y005641D01*
X038120Y005585D01*
X038190Y005515D01*
X038190Y006028D01*
X038120Y005958D01*
X037984Y005901D01*
X037837Y005901D01*
X037701Y005958D01*
X037597Y006062D01*
X037540Y006198D01*
X037540Y006345D01*
X037597Y006481D01*
X037701Y006585D01*
X037837Y006641D01*
X037984Y006641D01*
X038120Y006585D01*
X038224Y006481D01*
X038280Y006345D01*
X038280Y006198D01*
X038234Y006085D01*
X038395Y006246D01*
X038366Y006317D01*
X038366Y006478D01*
X038428Y006628D01*
X038542Y006742D01*
X038692Y006804D01*
X038854Y006804D01*
X039003Y006742D01*
X039118Y006628D01*
X039180Y006478D01*
X039180Y006317D01*
X039118Y006167D01*
X039003Y006053D01*
X038854Y005991D01*
X038692Y005991D01*
X038621Y006020D01*
X038510Y005909D01*
X038510Y005726D01*
X038542Y005758D01*
X038692Y005820D01*
X038854Y005820D01*
X039003Y005758D01*
X039118Y005644D01*
X039180Y005494D01*
X039180Y005332D01*
X039118Y005183D01*
X039003Y005068D01*
X038854Y005006D01*
X038692Y005006D01*
X038542Y005068D01*
X038510Y005101D01*
X038510Y004866D01*
X038416Y004772D01*
X038175Y004530D01*
X038224Y004481D01*
X038280Y004345D01*
X038280Y004198D01*
X038224Y004062D01*
X038120Y003958D01*
X037984Y003901D01*
X037837Y003901D01*
X037701Y003958D01*
X037597Y004062D01*
X037540Y004198D01*
X037540Y004216D01*
X036856Y003532D01*
X035228Y003532D01*
X035261Y003486D01*
X035290Y003429D01*
X035310Y003367D01*
X035320Y003304D01*
X035320Y003301D01*
X034940Y003301D01*
X034940Y003241D01*
X034940Y002861D01*
X034943Y002861D01*
X035006Y002872D01*
X035068Y002892D01*
X035125Y002921D01*
X035178Y002959D01*
X035223Y003004D01*
X035261Y003057D01*
X035290Y003114D01*
X035310Y003175D01*
X035320Y003239D01*
X035320Y003241D01*
X034940Y003241D01*
X034880Y003241D01*
X034880Y002861D01*
X034878Y002861D01*
X034814Y002872D01*
X034753Y002892D01*
X034696Y002921D01*
X034643Y002959D01*
X034598Y003004D01*
X034560Y003057D01*
X034531Y003114D01*
X034511Y003175D01*
X034500Y003239D01*
X034500Y003241D01*
X034880Y003241D01*
X034880Y003301D01*
X034500Y003301D01*
X034500Y003304D01*
X034505Y003332D01*
X033565Y003332D01*
X033581Y003325D01*
X033685Y003221D01*
X033741Y003085D01*
X033741Y002938D01*
X033689Y002812D01*
X037225Y002812D01*
X037561Y003148D01*
X037560Y003151D02*
X035303Y003151D01*
X035258Y003053D02*
X037466Y003053D01*
X037367Y002954D02*
X035172Y002954D01*
X034940Y002954D02*
X034880Y002954D01*
X034880Y003053D02*
X034940Y003053D01*
X034940Y003151D02*
X034880Y003151D01*
X034880Y003250D02*
X033656Y003250D01*
X033714Y003151D02*
X034518Y003151D01*
X034562Y003053D02*
X033741Y003053D01*
X033741Y002954D02*
X034649Y002954D01*
X033707Y002856D02*
X037269Y002856D01*
X037623Y002757D02*
X043347Y002757D01*
X043347Y002659D02*
X037524Y002659D01*
X037426Y002560D02*
X037676Y002560D01*
X037701Y002585D02*
X037597Y002481D01*
X037540Y002345D01*
X037540Y002198D01*
X037597Y002062D01*
X037701Y001958D01*
X037837Y001901D01*
X037984Y001901D01*
X038120Y001958D01*
X038224Y002062D01*
X038280Y002198D01*
X038280Y002345D01*
X038224Y002481D01*
X038120Y002585D01*
X037984Y002641D01*
X037837Y002641D01*
X037701Y002585D01*
X037589Y002462D02*
X035232Y002462D01*
X035273Y002363D02*
X037548Y002363D01*
X037540Y002265D02*
X035280Y002265D01*
X035267Y002166D02*
X037553Y002166D01*
X037594Y002068D02*
X035340Y002068D01*
X035439Y001969D02*
X037689Y001969D01*
X038132Y001969D02*
X043347Y001969D01*
X043347Y001871D02*
X035537Y001871D01*
X035183Y001772D02*
X033639Y001772D01*
X033707Y001871D02*
X035085Y001871D01*
X034689Y001969D02*
X034368Y001969D01*
X034466Y002068D02*
X034594Y002068D01*
X034553Y002166D02*
X034497Y002166D01*
X034497Y002265D02*
X034540Y002265D01*
X034548Y002363D02*
X034497Y002363D01*
X034440Y002462D02*
X034589Y002462D01*
X034910Y002271D02*
X035530Y001652D01*
X038230Y001652D01*
X038510Y001372D01*
X038510Y001314D01*
X038544Y001279D01*
X038914Y001280D02*
X041781Y001280D01*
X041781Y001353D02*
X041781Y001206D01*
X041837Y001070D01*
X041941Y000966D01*
X042077Y000909D01*
X042224Y000909D01*
X042360Y000966D01*
X042464Y001070D01*
X042521Y001206D01*
X042521Y001353D01*
X042464Y001489D01*
X042360Y001593D01*
X042224Y001649D01*
X042077Y001649D01*
X041941Y001593D01*
X041837Y001489D01*
X041781Y001353D01*
X041791Y001378D02*
X038904Y001378D01*
X038863Y001477D02*
X041832Y001477D01*
X041923Y001575D02*
X038771Y001575D01*
X038434Y001674D02*
X043347Y001674D01*
X043347Y001772D02*
X038336Y001772D01*
X038227Y002068D02*
X043347Y002068D01*
X043347Y002166D02*
X038267Y002166D01*
X038280Y002265D02*
X043347Y002265D01*
X043347Y002363D02*
X038273Y002363D01*
X038232Y002462D02*
X043347Y002462D01*
X043347Y002560D02*
X038145Y002560D01*
X038112Y002954D02*
X043347Y002954D01*
X043347Y002856D02*
X037721Y002856D01*
X038215Y003053D02*
X043347Y003053D01*
X043347Y003151D02*
X038261Y003151D01*
X038280Y003250D02*
X043347Y003250D01*
X043347Y003348D02*
X038279Y003348D01*
X038238Y003447D02*
X043347Y003447D01*
X043347Y003545D02*
X039835Y003545D01*
X039757Y003468D02*
X039618Y003468D01*
X039618Y003848D01*
X039618Y003908D01*
X039998Y003908D01*
X039998Y004048D01*
X039757Y004288D01*
X039618Y004288D01*
X039618Y003908D01*
X039558Y003908D01*
X039558Y004288D01*
X039418Y004288D01*
X039178Y004048D01*
X039178Y003908D01*
X039558Y003908D01*
X039558Y003848D01*
X039618Y003848D01*
X039998Y003848D01*
X039998Y003708D01*
X039757Y003468D01*
X039618Y003545D02*
X039558Y003545D01*
X039558Y003468D02*
X039558Y003848D01*
X039178Y003848D01*
X039178Y003708D01*
X039418Y003468D01*
X039558Y003468D01*
X039558Y003644D02*
X039618Y003644D01*
X039618Y003742D02*
X039558Y003742D01*
X039558Y003841D02*
X039618Y003841D01*
X039618Y003939D02*
X039558Y003939D01*
X039558Y004038D02*
X039618Y004038D01*
X039618Y004136D02*
X039558Y004136D01*
X039558Y004235D02*
X039618Y004235D01*
X039810Y004235D02*
X041024Y004235D01*
X041024Y004333D02*
X038280Y004333D01*
X038280Y004235D02*
X038422Y004235D01*
X038434Y004248D02*
X038218Y004031D01*
X038218Y003725D01*
X038434Y003508D01*
X038741Y003508D01*
X038958Y003725D01*
X038958Y004031D01*
X038741Y004248D01*
X038434Y004248D01*
X038323Y004136D02*
X038255Y004136D01*
X038225Y004038D02*
X038200Y004038D01*
X038218Y003939D02*
X038076Y003939D01*
X038218Y003841D02*
X037165Y003841D01*
X037067Y003742D02*
X038218Y003742D01*
X038298Y003644D02*
X036968Y003644D01*
X036870Y003545D02*
X037661Y003545D01*
X037583Y003447D02*
X035281Y003447D01*
X035313Y003348D02*
X037542Y003348D01*
X037540Y003250D02*
X034940Y003250D01*
X034550Y003492D02*
X034750Y003692D01*
X036790Y003692D01*
X037750Y004652D01*
X038070Y004652D01*
X038350Y004932D01*
X038350Y005975D01*
X038773Y006397D01*
X039180Y006402D02*
X043347Y006402D01*
X043347Y006500D02*
X039170Y006500D01*
X039130Y006599D02*
X043347Y006599D01*
X043347Y006697D02*
X039048Y006697D01*
X038874Y006796D02*
X043347Y006796D01*
X043347Y006894D02*
X033230Y006894D01*
X033230Y006796D02*
X038672Y006796D01*
X038668Y006946D02*
X038601Y006968D01*
X038538Y007000D01*
X038482Y007041D01*
X038432Y007091D01*
X038390Y007148D01*
X038359Y007210D01*
X038337Y007277D01*
X038328Y007333D01*
X038724Y007333D01*
X038821Y007333D01*
X038821Y006937D01*
X038877Y006946D01*
X038944Y006968D01*
X039007Y007000D01*
X039064Y007041D01*
X039114Y007091D01*
X043347Y007091D01*
X043347Y006993D02*
X038994Y006993D01*
X039114Y007091D02*
X039155Y007148D01*
X039187Y007210D01*
X039209Y007277D01*
X039217Y007333D01*
X038821Y007333D01*
X038821Y007430D01*
X039217Y007430D01*
X039209Y007486D01*
X039187Y007553D01*
X039155Y007616D01*
X039114Y007673D01*
X039064Y007723D01*
X039007Y007764D01*
X038944Y007796D01*
X038877Y007818D01*
X038821Y007826D01*
X038821Y007430D01*
X038724Y007430D01*
X038724Y007333D01*
X038724Y006937D01*
X038668Y006946D01*
X038724Y006993D02*
X038821Y006993D01*
X038821Y007091D02*
X038724Y007091D01*
X038724Y007190D02*
X038821Y007190D01*
X038821Y007288D02*
X038724Y007288D01*
X038724Y007387D02*
X038263Y007387D01*
X038280Y007345D02*
X038224Y007481D01*
X038120Y007585D01*
X037984Y007641D01*
X037837Y007641D01*
X037787Y007621D01*
X036149Y009259D01*
X036055Y009353D01*
X035083Y009353D01*
X035063Y009402D01*
X034959Y009506D01*
X034823Y009563D01*
X034675Y009563D01*
X034539Y009506D01*
X034435Y009402D01*
X034379Y009266D01*
X034379Y009119D01*
X034435Y008983D01*
X034539Y008879D01*
X034675Y008823D01*
X034823Y008823D01*
X034959Y008879D01*
X035063Y008983D01*
X035083Y009033D01*
X035923Y009033D01*
X037561Y007395D01*
X037540Y007345D01*
X037540Y007198D01*
X037597Y007062D01*
X037701Y006958D01*
X037837Y006901D01*
X037984Y006901D01*
X038120Y006958D01*
X038224Y007062D01*
X038280Y007198D01*
X038280Y007345D01*
X038280Y007288D02*
X038335Y007288D01*
X038369Y007190D02*
X038277Y007190D01*
X038236Y007091D02*
X038431Y007091D01*
X038551Y006993D02*
X038155Y006993D01*
X037666Y006993D02*
X035155Y006993D01*
X035120Y006958D02*
X035224Y007062D01*
X035280Y007198D01*
X035280Y007345D01*
X035224Y007481D01*
X035120Y007585D01*
X034984Y007641D01*
X034837Y007641D01*
X034701Y007585D01*
X034597Y007481D01*
X034540Y007345D01*
X034540Y007198D01*
X034597Y007062D01*
X034701Y006958D01*
X034837Y006901D01*
X034984Y006901D01*
X035120Y006958D01*
X035236Y007091D02*
X037585Y007091D01*
X037544Y007190D02*
X035277Y007190D01*
X035280Y007288D02*
X037540Y007288D01*
X037558Y007387D02*
X035263Y007387D01*
X035220Y007485D02*
X037470Y007485D01*
X037372Y007584D02*
X035121Y007584D01*
X034700Y007584D02*
X033230Y007584D01*
X033230Y007682D02*
X037273Y007682D01*
X037175Y007781D02*
X033230Y007781D01*
X033230Y007879D02*
X037076Y007879D01*
X036978Y007978D02*
X033230Y007978D01*
X033230Y008076D02*
X036879Y008076D01*
X036781Y008175D02*
X033230Y008175D01*
X033230Y008273D02*
X036682Y008273D01*
X036584Y008372D02*
X033230Y008372D01*
X033230Y008470D02*
X036485Y008470D01*
X036387Y008569D02*
X033230Y008569D01*
X033230Y008667D02*
X036288Y008667D01*
X036190Y008766D02*
X033230Y008766D01*
X033164Y008864D02*
X034575Y008864D01*
X034456Y008963D02*
X033065Y008963D01*
X032967Y009061D02*
X034403Y009061D01*
X034379Y009160D02*
X032868Y009160D01*
X032770Y009258D02*
X034379Y009258D01*
X034417Y009357D02*
X032671Y009357D01*
X032573Y009455D02*
X034489Y009455D01*
X034654Y009554D02*
X032474Y009554D01*
X032460Y009652D02*
X037033Y009652D01*
X037044Y009641D02*
X037367Y009641D01*
X037596Y009870D01*
X037596Y010193D01*
X037428Y010361D01*
X037428Y010702D01*
X037596Y010870D01*
X037596Y011193D01*
X037367Y011421D01*
X037044Y011421D01*
X036816Y011193D01*
X036816Y010870D01*
X036968Y010718D01*
X036968Y010345D01*
X036816Y010193D01*
X036816Y009870D01*
X037044Y009641D01*
X036935Y009751D02*
X032376Y009751D01*
X032084Y009751D02*
X031656Y009751D01*
X031558Y009849D02*
X036836Y009849D01*
X036816Y009948D02*
X031459Y009948D01*
X031361Y010046D02*
X036816Y010046D01*
X036816Y010145D02*
X031262Y010145D01*
X031164Y010243D02*
X036866Y010243D01*
X036965Y010342D02*
X030863Y010342D01*
X030915Y010440D02*
X031061Y010440D01*
X031225Y010440D02*
X034667Y010440D01*
X034675Y010437D02*
X034823Y010437D01*
X034959Y010493D01*
X035063Y010597D01*
X035119Y010733D01*
X035119Y010881D01*
X035063Y011017D01*
X034959Y011121D01*
X034823Y011177D01*
X034675Y011177D01*
X034539Y011121D01*
X034435Y011017D01*
X034379Y010881D01*
X034379Y010733D01*
X034435Y010597D01*
X034539Y010493D01*
X034675Y010437D01*
X034831Y010440D02*
X036968Y010440D01*
X036968Y010539D02*
X035004Y010539D01*
X035079Y010637D02*
X036968Y010637D01*
X036950Y010736D02*
X035119Y010736D01*
X035119Y010834D02*
X036851Y010834D01*
X036816Y010933D02*
X035097Y010933D01*
X035048Y011031D02*
X036816Y011031D01*
X036816Y011130D02*
X034936Y011130D01*
X034562Y011130D02*
X031330Y011130D01*
X031441Y011031D02*
X034450Y011031D01*
X034401Y010933D02*
X031491Y010933D01*
X031513Y010834D02*
X034379Y010834D01*
X034379Y010736D02*
X031513Y010736D01*
X031473Y010637D02*
X034419Y010637D01*
X034494Y010539D02*
X031398Y010539D01*
X030155Y010342D02*
X027863Y010342D01*
X027915Y010440D02*
X030103Y010440D01*
X030069Y010539D02*
X027949Y010539D01*
X027949Y010637D02*
X030069Y010637D01*
X030085Y010736D02*
X027933Y010736D01*
X027892Y010834D02*
X030126Y010834D01*
X030210Y010933D02*
X027808Y010933D01*
X027641Y011031D02*
X030377Y011031D01*
X030641Y011031D02*
X030844Y011031D01*
X030956Y011130D02*
X027073Y011130D01*
X027135Y011031D02*
X027377Y011031D01*
X027210Y010933D02*
X027135Y010933D01*
X026755Y010933D02*
X026695Y010933D01*
X026695Y011031D02*
X026755Y011031D01*
X026755Y011130D02*
X026695Y011130D01*
X026695Y011228D02*
X026755Y011228D01*
X026974Y011228D02*
X036851Y011228D01*
X036950Y011327D02*
X030633Y011327D01*
X030805Y011425D02*
X031059Y011425D01*
X031227Y011425D02*
X034665Y011425D01*
X034833Y011425D02*
X037992Y011425D01*
X038028Y011461D02*
X037776Y011209D01*
X037776Y011071D01*
X038166Y011071D01*
X038166Y010991D01*
X038246Y010991D01*
X038246Y011071D01*
X038636Y011071D01*
X038636Y011209D01*
X038384Y011461D01*
X038246Y011461D01*
X038246Y011071D01*
X038166Y011071D01*
X038166Y011461D01*
X038028Y011461D01*
X038166Y011425D02*
X038246Y011425D01*
X038246Y011327D02*
X038166Y011327D01*
X038166Y011228D02*
X038246Y011228D01*
X038246Y011130D02*
X038166Y011130D01*
X038166Y011031D02*
X037596Y011031D01*
X037596Y010933D02*
X037776Y010933D01*
X037776Y010991D02*
X037776Y010853D01*
X038028Y010601D01*
X038166Y010601D01*
X038166Y010991D01*
X037776Y010991D01*
X037776Y011130D02*
X037596Y011130D01*
X037560Y011228D02*
X037795Y011228D01*
X037893Y011327D02*
X037462Y011327D01*
X038246Y011031D02*
X039166Y011031D01*
X039166Y011071D02*
X039166Y010991D01*
X039246Y010991D01*
X039246Y011071D01*
X039636Y011071D01*
X039636Y011209D01*
X039384Y011461D01*
X039246Y011461D01*
X039246Y011071D01*
X039166Y011071D01*
X038776Y011071D01*
X038776Y011209D01*
X039028Y011461D01*
X039166Y011461D01*
X039166Y011071D01*
X039166Y011130D02*
X039246Y011130D01*
X039246Y011228D02*
X039166Y011228D01*
X039166Y011327D02*
X039246Y011327D01*
X039246Y011425D02*
X039166Y011425D01*
X038992Y011425D02*
X038420Y011425D01*
X038518Y011327D02*
X038893Y011327D01*
X038795Y011228D02*
X038617Y011228D01*
X038636Y011130D02*
X038776Y011130D01*
X038776Y010991D02*
X038776Y010853D01*
X039028Y010601D01*
X039166Y010601D01*
X039166Y010991D01*
X038776Y010991D01*
X038776Y010933D02*
X038636Y010933D01*
X038636Y010991D02*
X038246Y010991D01*
X038246Y010601D01*
X038384Y010601D01*
X038636Y010853D01*
X038636Y010991D01*
X038617Y010834D02*
X038794Y010834D01*
X038893Y010736D02*
X038519Y010736D01*
X038420Y010637D02*
X038991Y010637D01*
X039166Y010637D02*
X039246Y010637D01*
X039246Y010601D02*
X039384Y010601D01*
X039636Y010853D01*
X039636Y010991D01*
X039246Y010991D01*
X039246Y010601D01*
X039246Y010736D02*
X039166Y010736D01*
X039166Y010834D02*
X039246Y010834D01*
X039246Y010933D02*
X039166Y010933D01*
X039246Y011031D02*
X040166Y011031D01*
X040166Y011071D02*
X040166Y010991D01*
X040246Y010991D01*
X040246Y011071D01*
X040636Y011071D01*
X040636Y011209D01*
X040384Y011461D01*
X040246Y011461D01*
X040246Y011071D01*
X040166Y011071D01*
X039776Y011071D01*
X039776Y011209D01*
X040028Y011461D01*
X040166Y011461D01*
X040166Y011071D01*
X040166Y011130D02*
X040246Y011130D01*
X040246Y011228D02*
X040166Y011228D01*
X040166Y011327D02*
X040246Y011327D01*
X040246Y011425D02*
X040166Y011425D01*
X039992Y011425D02*
X039420Y011425D01*
X039518Y011327D02*
X039893Y011327D01*
X039795Y011228D02*
X039617Y011228D01*
X039636Y011130D02*
X039776Y011130D01*
X039776Y010991D02*
X039776Y010853D01*
X040028Y010601D01*
X040166Y010601D01*
X040166Y010991D01*
X039776Y010991D01*
X039776Y010933D02*
X039636Y010933D01*
X039617Y010834D02*
X039794Y010834D01*
X039893Y010736D02*
X039519Y010736D01*
X039420Y010637D02*
X039991Y010637D01*
X040166Y010637D02*
X040246Y010637D01*
X040246Y010601D02*
X040384Y010601D01*
X040636Y010853D01*
X040636Y010991D01*
X040246Y010991D01*
X040246Y010601D01*
X040246Y010736D02*
X040166Y010736D01*
X040166Y010834D02*
X040246Y010834D01*
X040246Y010933D02*
X040166Y010933D01*
X040246Y011031D02*
X040816Y011031D01*
X040816Y010933D02*
X040636Y010933D01*
X040617Y010834D02*
X040851Y010834D01*
X040816Y010870D02*
X040984Y010702D01*
X040984Y010361D01*
X040875Y010252D01*
X040816Y010109D01*
X040816Y009954D01*
X040875Y009810D01*
X040985Y009701D01*
X041128Y009641D01*
X041283Y009641D01*
X041427Y009701D01*
X041536Y009810D01*
X041596Y009954D01*
X041596Y010109D01*
X041536Y010252D01*
X041444Y010345D01*
X041444Y010718D01*
X041596Y010870D01*
X041596Y011193D01*
X041367Y011421D01*
X041044Y011421D01*
X040816Y011193D01*
X040816Y010870D01*
X040950Y010736D02*
X040519Y010736D01*
X040420Y010637D02*
X040984Y010637D01*
X040984Y010539D02*
X037428Y010539D01*
X037428Y010637D02*
X037991Y010637D01*
X037893Y010736D02*
X037462Y010736D01*
X037560Y010834D02*
X037794Y010834D01*
X038166Y010834D02*
X038246Y010834D01*
X038246Y010736D02*
X038166Y010736D01*
X038166Y010637D02*
X038246Y010637D01*
X038246Y010461D02*
X038384Y010461D01*
X038636Y010209D01*
X038636Y010071D01*
X038246Y010071D01*
X038246Y009991D01*
X038636Y009991D01*
X038636Y009853D01*
X038384Y009601D01*
X038246Y009601D01*
X038246Y009991D01*
X038166Y009991D01*
X038166Y009601D01*
X038028Y009601D01*
X037776Y009853D01*
X037776Y009991D01*
X038166Y009991D01*
X038166Y010071D01*
X037776Y010071D01*
X037776Y010209D01*
X038028Y010461D01*
X038166Y010461D01*
X038166Y010071D01*
X038246Y010071D01*
X038246Y010461D01*
X038246Y010440D02*
X038166Y010440D01*
X038166Y010342D02*
X038246Y010342D01*
X038246Y010243D02*
X038166Y010243D01*
X038166Y010145D02*
X038246Y010145D01*
X038246Y010046D02*
X039166Y010046D01*
X039166Y010071D02*
X039166Y009991D01*
X039246Y009991D01*
X039246Y010071D01*
X039636Y010071D01*
X039636Y010209D01*
X039384Y010461D01*
X039246Y010461D01*
X039246Y010071D01*
X039166Y010071D01*
X038776Y010071D01*
X038776Y010209D01*
X039028Y010461D01*
X039166Y010461D01*
X039166Y010071D01*
X039166Y010145D02*
X039246Y010145D01*
X039246Y010243D02*
X039166Y010243D01*
X039166Y010342D02*
X039246Y010342D01*
X039246Y010440D02*
X039166Y010440D01*
X039007Y010440D02*
X038405Y010440D01*
X038503Y010342D02*
X038908Y010342D01*
X038810Y010243D02*
X038602Y010243D01*
X038636Y010145D02*
X038776Y010145D01*
X038776Y009991D02*
X038776Y009853D01*
X039028Y009601D01*
X039166Y009601D01*
X039166Y009991D01*
X038776Y009991D01*
X038776Y009948D02*
X038636Y009948D01*
X038632Y009849D02*
X038779Y009849D01*
X038878Y009751D02*
X038534Y009751D01*
X038435Y009652D02*
X038976Y009652D01*
X039166Y009652D02*
X039246Y009652D01*
X039246Y009601D02*
X039384Y009601D01*
X039636Y009853D01*
X039636Y009991D01*
X039246Y009991D01*
X039246Y009601D01*
X039246Y009751D02*
X039166Y009751D01*
X039166Y009849D02*
X039246Y009849D01*
X039246Y009948D02*
X039166Y009948D01*
X039246Y010046D02*
X040166Y010046D01*
X040166Y010071D02*
X040166Y009991D01*
X040246Y009991D01*
X040246Y010071D01*
X040636Y010071D01*
X040636Y010209D01*
X040384Y010461D01*
X040246Y010461D01*
X040246Y010071D01*
X040166Y010071D01*
X039776Y010071D01*
X039776Y010209D01*
X040028Y010461D01*
X040166Y010461D01*
X040166Y010071D01*
X040166Y010145D02*
X040246Y010145D01*
X040246Y010243D02*
X040166Y010243D01*
X040166Y010342D02*
X040246Y010342D01*
X040246Y010440D02*
X040166Y010440D01*
X040007Y010440D02*
X039405Y010440D01*
X039503Y010342D02*
X039908Y010342D01*
X039810Y010243D02*
X039602Y010243D01*
X039636Y010145D02*
X039776Y010145D01*
X039776Y009991D02*
X039776Y009853D01*
X040028Y009601D01*
X040166Y009601D01*
X040166Y009991D01*
X039776Y009991D01*
X039776Y009948D02*
X039636Y009948D01*
X039632Y009849D02*
X039779Y009849D01*
X039878Y009751D02*
X039534Y009751D01*
X039435Y009652D02*
X039976Y009652D01*
X040166Y009652D02*
X040246Y009652D01*
X040246Y009601D02*
X040384Y009601D01*
X040636Y009853D01*
X040636Y009991D01*
X040246Y009991D01*
X040246Y009601D01*
X040246Y009751D02*
X040166Y009751D01*
X040166Y009849D02*
X040246Y009849D01*
X040246Y009948D02*
X040166Y009948D01*
X040246Y010046D02*
X040816Y010046D01*
X040818Y009948D02*
X040636Y009948D01*
X040632Y009849D02*
X040859Y009849D01*
X040935Y009751D02*
X040534Y009751D01*
X040435Y009652D02*
X041101Y009652D01*
X041310Y009652D02*
X043347Y009652D01*
X043347Y009554D02*
X034844Y009554D01*
X035010Y009455D02*
X043347Y009455D01*
X043347Y009357D02*
X035082Y009357D01*
X034749Y009193D02*
X035989Y009193D01*
X037910Y007271D01*
X038328Y007430D02*
X038724Y007430D01*
X038724Y007826D01*
X038668Y007818D01*
X038601Y007796D01*
X038538Y007764D01*
X038482Y007723D01*
X038432Y007673D01*
X038390Y007616D01*
X038359Y007553D01*
X038337Y007486D01*
X038328Y007430D01*
X038337Y007485D02*
X038220Y007485D01*
X038121Y007584D02*
X038374Y007584D01*
X038441Y007682D02*
X037726Y007682D01*
X037627Y007781D02*
X038572Y007781D01*
X038724Y007781D02*
X038821Y007781D01*
X038821Y007682D02*
X038724Y007682D01*
X038724Y007584D02*
X038821Y007584D01*
X038821Y007485D02*
X038724Y007485D01*
X038821Y007387D02*
X043347Y007387D01*
X043347Y007485D02*
X039209Y007485D01*
X039171Y007584D02*
X043347Y007584D01*
X043347Y007682D02*
X039104Y007682D01*
X038973Y007781D02*
X043347Y007781D01*
X043347Y007879D02*
X041954Y007879D01*
X041941Y007872D02*
X041975Y007892D01*
X042003Y007920D01*
X042023Y007954D01*
X042033Y007992D01*
X042033Y008316D01*
X041579Y008316D01*
X041579Y008416D01*
X042033Y008416D01*
X042033Y008740D01*
X042023Y008778D01*
X042003Y008812D01*
X041975Y008840D01*
X041941Y008860D01*
X041903Y008870D01*
X041579Y008870D01*
X041579Y008416D01*
X041479Y008416D01*
X041479Y008870D01*
X041155Y008870D01*
X041116Y008860D01*
X041082Y008840D01*
X041054Y008812D01*
X041034Y008778D01*
X041024Y008740D01*
X041024Y008416D01*
X041479Y008416D01*
X041479Y008316D01*
X041579Y008316D01*
X041579Y007862D01*
X041903Y007862D01*
X041941Y007872D01*
X042029Y007978D02*
X043347Y007978D01*
X043347Y008076D02*
X042033Y008076D01*
X042033Y008175D02*
X043347Y008175D01*
X043347Y008273D02*
X042033Y008273D01*
X041579Y008273D02*
X041479Y008273D01*
X041479Y008316D02*
X041479Y007862D01*
X041155Y007862D01*
X041116Y007872D01*
X041082Y007892D01*
X041054Y007920D01*
X041034Y007954D01*
X041024Y007992D01*
X041024Y008316D01*
X041479Y008316D01*
X041479Y008372D02*
X037036Y008372D01*
X036938Y008470D02*
X041024Y008470D01*
X041024Y008569D02*
X036839Y008569D01*
X036741Y008667D02*
X041024Y008667D01*
X041031Y008766D02*
X036642Y008766D01*
X036544Y008864D02*
X041133Y008864D01*
X041479Y008864D02*
X041579Y008864D01*
X041579Y008766D02*
X041479Y008766D01*
X041479Y008667D02*
X041579Y008667D01*
X041579Y008569D02*
X041479Y008569D01*
X041479Y008470D02*
X041579Y008470D01*
X041579Y008372D02*
X043347Y008372D01*
X043347Y008470D02*
X042033Y008470D01*
X042033Y008569D02*
X043347Y008569D01*
X043347Y008667D02*
X042033Y008667D01*
X042026Y008766D02*
X043347Y008766D01*
X043347Y008864D02*
X041924Y008864D01*
X043347Y008963D02*
X036445Y008963D01*
X036347Y009061D02*
X043347Y009061D01*
X043347Y009160D02*
X036248Y009160D01*
X036150Y009258D02*
X043347Y009258D01*
X043347Y009751D02*
X041477Y009751D01*
X041553Y009849D02*
X043347Y009849D01*
X043347Y009948D02*
X041593Y009948D01*
X041596Y010046D02*
X043347Y010046D01*
X043347Y010145D02*
X041581Y010145D01*
X041540Y010243D02*
X043347Y010243D01*
X043347Y010342D02*
X041447Y010342D01*
X041444Y010440D02*
X043347Y010440D01*
X043347Y010539D02*
X041444Y010539D01*
X041444Y010637D02*
X043347Y010637D01*
X043347Y010736D02*
X041462Y010736D01*
X041560Y010834D02*
X043347Y010834D01*
X043347Y010933D02*
X041596Y010933D01*
X041596Y011031D02*
X043347Y011031D01*
X043347Y011130D02*
X041596Y011130D01*
X041560Y011228D02*
X043347Y011228D01*
X043347Y011327D02*
X041462Y011327D01*
X040950Y011327D02*
X040518Y011327D01*
X040420Y011425D02*
X043347Y011425D01*
X043347Y011524D02*
X035005Y011524D01*
X035080Y011622D02*
X043347Y011622D01*
X043347Y011721D02*
X035119Y011721D01*
X035119Y011819D02*
X043347Y011819D01*
X043347Y011918D02*
X035097Y011918D01*
X035047Y012016D02*
X043347Y012016D01*
X043347Y012115D02*
X034934Y012115D01*
X034564Y012115D02*
X031328Y012115D01*
X031441Y012016D02*
X034451Y012016D01*
X034401Y011918D02*
X031491Y011918D01*
X031513Y011819D02*
X034379Y011819D01*
X034379Y011721D02*
X031513Y011721D01*
X031473Y011622D02*
X034418Y011622D01*
X034493Y011524D02*
X031399Y011524D01*
X030385Y011327D02*
X027633Y011327D01*
X027805Y011425D02*
X030213Y011425D01*
X030127Y011524D02*
X027891Y011524D01*
X027932Y011622D02*
X030086Y011622D01*
X030069Y011721D02*
X027949Y011721D01*
X027949Y011819D02*
X030069Y011819D01*
X030101Y011918D02*
X027916Y011918D01*
X027866Y012016D02*
X030151Y012016D01*
X030250Y012115D02*
X027768Y012115D01*
X027086Y011622D02*
X026974Y011622D01*
X027127Y011524D02*
X025560Y011524D01*
X025560Y011622D02*
X026477Y011622D01*
X026379Y011721D02*
X025560Y011721D01*
X025494Y011819D02*
X026355Y011819D01*
X026355Y011918D02*
X025396Y011918D01*
X024984Y011918D02*
X023685Y011918D01*
X023625Y011918D02*
X022382Y011918D01*
X022289Y012011D02*
X022149Y012011D01*
X022149Y011631D01*
X022089Y011631D01*
X022089Y012011D01*
X021949Y012011D01*
X021709Y011770D01*
X021709Y011631D01*
X022089Y011631D01*
X022089Y011571D01*
X021709Y011571D01*
X021709Y011431D01*
X021949Y011191D01*
X022089Y011191D01*
X022089Y011571D01*
X022149Y011571D01*
X022149Y011631D01*
X022529Y011631D01*
X022529Y011770D01*
X022289Y012011D01*
X022149Y011918D02*
X022089Y011918D01*
X022089Y011819D02*
X022149Y011819D01*
X022149Y011721D02*
X022089Y011721D01*
X022089Y011622D02*
X018852Y011622D01*
X018922Y011721D02*
X021709Y011721D01*
X021758Y011819D02*
X018922Y011819D01*
X018922Y011918D02*
X021857Y011918D01*
X022480Y011819D02*
X023245Y011819D01*
X023251Y011721D02*
X022529Y011721D01*
X022529Y011571D02*
X022149Y011571D01*
X022149Y011191D01*
X022289Y011191D01*
X022529Y011431D01*
X022529Y011571D01*
X022529Y011524D02*
X023448Y011524D01*
X023350Y011622D02*
X022149Y011622D01*
X022149Y011524D02*
X022089Y011524D01*
X022089Y011425D02*
X022149Y011425D01*
X022149Y011327D02*
X022089Y011327D01*
X022089Y011228D02*
X022149Y011228D01*
X022193Y011171D02*
X022046Y011171D01*
X021910Y011114D01*
X021805Y011010D01*
X021749Y010874D01*
X021749Y010727D01*
X021805Y010591D01*
X021910Y010487D01*
X022046Y010431D01*
X022193Y010431D01*
X022329Y010487D01*
X022433Y010591D01*
X022489Y010727D01*
X022489Y010874D01*
X022433Y011010D01*
X022329Y011114D01*
X022193Y011171D01*
X022291Y011130D02*
X023364Y011130D01*
X023285Y011031D02*
X022412Y011031D01*
X022465Y010933D02*
X023285Y010933D01*
X023285Y010834D02*
X022489Y010834D01*
X022489Y010736D02*
X023293Y010736D01*
X023250Y010637D02*
X022452Y010637D01*
X022381Y010539D02*
X023160Y010539D01*
X023152Y010440D02*
X022217Y010440D01*
X022022Y010440D02*
X021548Y010440D01*
X021646Y010342D02*
X023054Y010342D01*
X022955Y010243D02*
X021745Y010243D01*
X021843Y010145D02*
X022857Y010145D01*
X023820Y009849D02*
X026507Y009849D01*
X026409Y009948D02*
X023863Y009948D01*
X023961Y010046D02*
X026310Y010046D01*
X026212Y010145D02*
X024060Y010145D01*
X024158Y010243D02*
X026113Y010243D01*
X026015Y010342D02*
X024257Y010342D01*
X024355Y010440D02*
X024994Y010440D01*
X024873Y010539D02*
X024454Y010539D01*
X024552Y010637D02*
X024813Y010637D01*
X024785Y010736D02*
X024651Y010736D01*
X024749Y010834D02*
X024780Y010834D01*
X025160Y010736D02*
X025220Y010736D01*
X025220Y010637D02*
X025160Y010637D01*
X025160Y010539D02*
X025220Y010539D01*
X025220Y010440D02*
X025160Y010440D01*
X025386Y010440D02*
X025916Y010440D01*
X025818Y010539D02*
X025507Y010539D01*
X025567Y010637D02*
X025719Y010637D01*
X025621Y010736D02*
X025595Y010736D01*
X026074Y010933D02*
X026315Y010933D01*
X026315Y011031D02*
X025976Y011031D01*
X025877Y011130D02*
X026378Y011130D01*
X026477Y011228D02*
X025779Y011228D01*
X025680Y011327D02*
X027385Y011327D01*
X027213Y011425D02*
X025582Y011425D01*
X024820Y011622D02*
X023959Y011622D01*
X023861Y011524D02*
X024788Y011524D01*
X024690Y011425D02*
X022524Y011425D01*
X022425Y011327D02*
X024591Y011327D01*
X024493Y011228D02*
X023847Y011228D01*
X023945Y011130D02*
X024394Y011130D01*
X024296Y011031D02*
X024025Y011031D01*
X024025Y010933D02*
X024197Y010933D01*
X024099Y010834D02*
X024025Y010834D01*
X023462Y011228D02*
X022327Y011228D01*
X021947Y011130D02*
X020858Y011130D01*
X020760Y011228D02*
X021911Y011228D01*
X021813Y011327D02*
X020661Y011327D01*
X020563Y011425D02*
X021714Y011425D01*
X021709Y011524D02*
X020464Y011524D01*
X020138Y011228D02*
X016593Y011228D01*
X016792Y011130D02*
X019096Y011130D01*
X018998Y011031D02*
X016890Y011031D01*
X016552Y010846D02*
X019336Y010846D01*
X019706Y010834D02*
X020306Y010834D01*
X020306Y010816D02*
X019926Y010816D01*
X019926Y010676D01*
X020166Y010436D01*
X020306Y010436D01*
X020306Y010816D01*
X020306Y010736D02*
X020366Y010736D01*
X020366Y010637D02*
X020306Y010637D01*
X020306Y010539D02*
X020366Y010539D01*
X020366Y010440D02*
X020306Y010440D01*
X020162Y010440D02*
X016373Y010440D01*
X016274Y010342D02*
X021194Y010342D01*
X021292Y010243D02*
X016176Y010243D01*
X016077Y010145D02*
X017328Y010145D01*
X017399Y010216D02*
X017182Y010000D01*
X017182Y009693D01*
X017399Y009476D01*
X017463Y009476D01*
X017421Y009459D01*
X017317Y009355D01*
X017261Y009219D01*
X017261Y009072D01*
X017317Y008936D01*
X017421Y008832D01*
X017557Y008775D01*
X017705Y008775D01*
X017841Y008832D01*
X017945Y008936D01*
X018001Y009072D01*
X018001Y009219D01*
X017945Y009355D01*
X017841Y009459D01*
X017733Y009504D01*
X017922Y009693D01*
X017922Y010000D01*
X017705Y010216D01*
X017399Y010216D01*
X017229Y010046D02*
X015979Y010046D01*
X015972Y009948D02*
X017182Y009948D01*
X017182Y009849D02*
X016070Y009849D01*
X016154Y009751D02*
X017182Y009751D01*
X017223Y009652D02*
X016195Y009652D01*
X016236Y009554D02*
X017321Y009554D01*
X017418Y009455D02*
X016860Y009455D01*
X016856Y009459D02*
X016720Y009515D01*
X016573Y009515D01*
X016437Y009459D01*
X016333Y009355D01*
X016277Y009219D01*
X016277Y009072D01*
X016333Y008936D01*
X016437Y008832D01*
X016573Y008775D01*
X016720Y008775D01*
X016856Y008832D01*
X016960Y008936D01*
X017017Y009072D01*
X017017Y009219D01*
X016960Y009355D01*
X016856Y009459D01*
X016958Y009357D02*
X017319Y009357D01*
X017277Y009258D02*
X017000Y009258D01*
X017017Y009160D02*
X017261Y009160D01*
X017265Y009061D02*
X017012Y009061D01*
X016972Y008963D02*
X017306Y008963D01*
X017389Y008864D02*
X016889Y008864D01*
X016404Y008864D02*
X016217Y008864D01*
X016160Y008963D02*
X016322Y008963D01*
X016281Y009061D02*
X016200Y009061D01*
X016241Y009160D02*
X016277Y009160D01*
X016258Y009258D02*
X016293Y009258D01*
X016258Y009357D02*
X016335Y009357D01*
X016258Y009455D02*
X016433Y009455D01*
X015505Y009350D02*
X018221Y006634D01*
X018221Y003620D01*
X019590Y002252D01*
X020390Y002252D01*
X020990Y001652D01*
X032470Y001652D01*
X033470Y002652D01*
X032310Y002532D02*
X032224Y002618D01*
X021744Y002618D01*
X021270Y003092D01*
X019270Y003092D01*
X019040Y003053D02*
X019015Y003053D01*
X019040Y003151D02*
X018917Y003151D01*
X018818Y003250D02*
X019103Y003250D01*
X018720Y003348D02*
X019979Y003348D01*
X019933Y003367D02*
X020069Y003311D01*
X020216Y003311D01*
X020352Y003367D01*
X020456Y003471D01*
X020513Y003607D01*
X020513Y003755D01*
X020456Y003891D01*
X020352Y003995D01*
X020216Y004051D01*
X020069Y004051D01*
X019933Y003995D01*
X019829Y003891D01*
X019773Y003755D01*
X019773Y003607D01*
X019829Y003471D01*
X019933Y003367D01*
X019853Y003447D02*
X018621Y003447D01*
X018523Y003545D02*
X019798Y003545D01*
X019773Y003644D02*
X018424Y003644D01*
X018381Y003742D02*
X019773Y003742D01*
X019809Y003841D02*
X018381Y003841D01*
X018381Y003939D02*
X019878Y003939D01*
X020038Y004038D02*
X018381Y004038D01*
X018381Y004136D02*
X021339Y004136D01*
X021339Y004055D02*
X021349Y004017D01*
X021369Y003983D01*
X021397Y003955D01*
X021431Y003935D01*
X021469Y003925D01*
X021794Y003925D01*
X021794Y004379D01*
X021894Y004379D01*
X021894Y004479D01*
X022348Y004479D01*
X022348Y004803D01*
X022338Y004841D01*
X022318Y004875D01*
X022290Y004903D01*
X022256Y004923D01*
X022218Y004933D01*
X021894Y004933D01*
X021894Y004479D01*
X021794Y004479D01*
X021794Y004933D01*
X021469Y004933D01*
X021431Y004923D01*
X021397Y004903D01*
X021369Y004875D01*
X021349Y004841D01*
X021339Y004803D01*
X021339Y004479D01*
X021794Y004479D01*
X021794Y004379D01*
X021339Y004379D01*
X021339Y004055D01*
X021344Y004038D02*
X020248Y004038D01*
X020407Y003939D02*
X021423Y003939D01*
X021794Y003939D02*
X021894Y003939D01*
X021894Y003925D02*
X022218Y003925D01*
X022256Y003935D01*
X022290Y003955D01*
X022318Y003983D01*
X022338Y004017D01*
X022348Y004055D01*
X022348Y004379D01*
X021894Y004379D01*
X021894Y003925D01*
X021894Y004038D02*
X021794Y004038D01*
X021794Y004136D02*
X021894Y004136D01*
X021894Y004235D02*
X021794Y004235D01*
X021794Y004333D02*
X021894Y004333D01*
X021894Y004432D02*
X025026Y004432D01*
X025016Y004428D02*
X024912Y004324D01*
X024855Y004188D01*
X024855Y004094D01*
X024702Y004248D01*
X024395Y004248D01*
X024178Y004031D01*
X024178Y003725D01*
X024395Y003508D01*
X024702Y003508D01*
X024918Y003725D01*
X024918Y003898D01*
X025016Y003800D01*
X025152Y003744D01*
X025299Y003744D01*
X025435Y003800D01*
X025539Y003904D01*
X025595Y004040D01*
X025595Y004188D01*
X025539Y004324D01*
X025435Y004428D01*
X025299Y004484D01*
X025152Y004484D01*
X025016Y004428D01*
X024922Y004333D02*
X022348Y004333D01*
X022348Y004235D02*
X023326Y004235D01*
X023378Y004288D02*
X023138Y004048D01*
X023138Y003908D01*
X023518Y003908D01*
X023518Y003848D01*
X023138Y003848D01*
X023138Y003708D01*
X023378Y003468D01*
X023518Y003468D01*
X023518Y003848D01*
X023578Y003848D01*
X023578Y003468D01*
X023718Y003468D01*
X023958Y003708D01*
X023958Y003848D01*
X023578Y003848D01*
X023578Y003908D01*
X023518Y003908D01*
X023518Y004288D01*
X023378Y004288D01*
X023518Y004235D02*
X023578Y004235D01*
X023578Y004288D02*
X023718Y004288D01*
X023958Y004048D01*
X023958Y003908D01*
X023578Y003908D01*
X023578Y004288D01*
X023578Y004136D02*
X023518Y004136D01*
X023518Y004038D02*
X023578Y004038D01*
X023578Y003939D02*
X023518Y003939D01*
X023518Y003841D02*
X023578Y003841D01*
X023578Y003742D02*
X023518Y003742D01*
X023518Y003644D02*
X023578Y003644D01*
X023578Y003545D02*
X023518Y003545D01*
X023301Y003545D02*
X020487Y003545D01*
X020513Y003644D02*
X023202Y003644D01*
X023138Y003742D02*
X020513Y003742D01*
X020477Y003841D02*
X023138Y003841D01*
X023138Y003939D02*
X022264Y003939D01*
X022343Y004038D02*
X023138Y004038D01*
X023227Y004136D02*
X022348Y004136D01*
X021794Y004432D02*
X018381Y004432D01*
X018381Y004530D02*
X021339Y004530D01*
X021339Y004629D02*
X018381Y004629D01*
X018381Y004727D02*
X021339Y004727D01*
X021345Y004826D02*
X018381Y004826D01*
X018381Y004924D02*
X021437Y004924D01*
X021794Y004924D02*
X021894Y004924D01*
X021894Y004826D02*
X021794Y004826D01*
X021794Y004727D02*
X021894Y004727D01*
X021894Y004629D02*
X021794Y004629D01*
X021794Y004530D02*
X021894Y004530D01*
X022348Y004530D02*
X028706Y004530D01*
X028830Y004732D02*
X025070Y004732D01*
X024630Y005172D01*
X019329Y005172D01*
X019088Y005413D01*
X018387Y006114D01*
X018387Y009193D01*
X018733Y009061D02*
X021647Y009061D01*
X021623Y009160D02*
X018757Y009160D01*
X018757Y009258D02*
X021623Y009258D01*
X021661Y009357D02*
X018719Y009357D01*
X018647Y009455D02*
X021733Y009455D01*
X021898Y009554D02*
X018783Y009554D01*
X018922Y009849D02*
X021686Y009849D01*
X021588Y009948D02*
X018922Y009948D01*
X018875Y010046D02*
X021489Y010046D01*
X021391Y010145D02*
X018777Y010145D01*
X018328Y010145D02*
X017777Y010145D01*
X017875Y010046D02*
X018229Y010046D01*
X018182Y009948D02*
X017922Y009948D01*
X017922Y009849D02*
X018182Y009849D01*
X018182Y009751D02*
X017922Y009751D01*
X017882Y009652D02*
X018223Y009652D01*
X018292Y009554D02*
X017783Y009554D01*
X017844Y009455D02*
X018126Y009455D01*
X018054Y009357D02*
X017943Y009357D01*
X017985Y009258D02*
X018017Y009258D01*
X018017Y009160D02*
X018001Y009160D01*
X017997Y009061D02*
X018041Y009061D01*
X018093Y008963D02*
X017956Y008963D01*
X017873Y008864D02*
X018212Y008864D01*
X018227Y008766D02*
X016315Y008766D01*
X016414Y008667D02*
X018227Y008667D01*
X018227Y008569D02*
X016512Y008569D01*
X016611Y008470D02*
X018227Y008470D01*
X018227Y008372D02*
X016709Y008372D01*
X016808Y008273D02*
X018227Y008273D01*
X018227Y008175D02*
X016906Y008175D01*
X017005Y008076D02*
X018227Y008076D01*
X018227Y007978D02*
X017103Y007978D01*
X017202Y007879D02*
X018227Y007879D01*
X018227Y007781D02*
X017300Y007781D01*
X017399Y007682D02*
X018227Y007682D01*
X018227Y007584D02*
X017497Y007584D01*
X017596Y007485D02*
X018227Y007485D01*
X018227Y007387D02*
X017694Y007387D01*
X017793Y007288D02*
X018227Y007288D01*
X018227Y007190D02*
X017891Y007190D01*
X017990Y007091D02*
X018227Y007091D01*
X018227Y006993D02*
X018088Y006993D01*
X018187Y006894D02*
X018227Y006894D01*
X018547Y006894D02*
X023910Y006894D01*
X023910Y006796D02*
X019189Y006796D01*
X019192Y006946D02*
X019259Y006968D01*
X019322Y007000D01*
X019379Y007041D01*
X019428Y007091D01*
X019470Y007148D01*
X019502Y007210D01*
X019523Y007277D01*
X019532Y007333D01*
X019136Y007333D01*
X019136Y006937D01*
X019192Y006946D01*
X019136Y006993D02*
X019039Y006993D01*
X019039Y006937D02*
X019039Y007333D01*
X019136Y007333D01*
X019136Y007430D01*
X019532Y007430D01*
X019523Y007486D01*
X019502Y007553D01*
X019470Y007616D01*
X019428Y007673D01*
X019379Y007723D01*
X019322Y007764D01*
X019259Y007796D01*
X019192Y007818D01*
X019136Y007826D01*
X019136Y007430D01*
X019039Y007430D01*
X019039Y007333D01*
X018643Y007333D01*
X018652Y007277D01*
X018674Y007210D01*
X018705Y007148D01*
X018747Y007091D01*
X018797Y007041D01*
X018853Y007000D01*
X018916Y006968D01*
X018983Y006946D01*
X019039Y006937D01*
X018987Y006796D02*
X018547Y006796D01*
X018547Y006697D02*
X018812Y006697D01*
X018731Y006599D02*
X018547Y006599D01*
X018547Y006500D02*
X018690Y006500D01*
X018681Y006402D02*
X018547Y006402D01*
X018547Y006303D02*
X018686Y006303D01*
X018727Y006205D02*
X018547Y006205D01*
X018621Y006106D02*
X018803Y006106D01*
X018719Y006008D02*
X018965Y006008D01*
X018818Y005909D02*
X019346Y005909D01*
X019445Y005811D02*
X019191Y005811D01*
X019210Y006008D02*
X019248Y006008D01*
X018985Y005811D02*
X018916Y005811D01*
X018562Y005712D02*
X018381Y005712D01*
X018381Y005614D02*
X018661Y005614D01*
X018690Y005515D02*
X018381Y005515D01*
X018381Y005417D02*
X018681Y005417D01*
X018687Y005318D02*
X018381Y005318D01*
X018381Y005220D02*
X018727Y005220D01*
X018804Y005121D02*
X018381Y005121D01*
X018381Y005023D02*
X018967Y005023D01*
X019209Y005023D02*
X019252Y005023D01*
X020150Y005332D02*
X025007Y005332D01*
X025225Y005114D01*
X025595Y005121D02*
X027855Y005121D01*
X027863Y005023D02*
X025588Y005023D01*
X025547Y004924D02*
X027903Y004924D01*
X028547Y004924D02*
X028697Y004924D01*
X028588Y005023D02*
X028809Y005023D01*
X028963Y004924D02*
X031279Y004924D01*
X031274Y004923D02*
X031240Y004903D01*
X031212Y004875D01*
X031192Y004841D01*
X031182Y004803D01*
X031182Y004479D01*
X031636Y004479D01*
X031636Y004379D01*
X031182Y004379D01*
X031182Y004055D01*
X031192Y004017D01*
X031212Y003983D01*
X031240Y003955D01*
X031274Y003935D01*
X031312Y003925D01*
X031636Y003925D01*
X031636Y004379D01*
X031736Y004379D01*
X031736Y003925D01*
X032060Y003925D01*
X032098Y003935D01*
X032132Y003955D01*
X032160Y003983D01*
X032180Y004017D01*
X032190Y004055D01*
X032190Y004379D01*
X031736Y004379D01*
X031736Y004479D01*
X031636Y004479D01*
X031636Y004933D01*
X031312Y004933D01*
X031274Y004923D01*
X031188Y004826D02*
X029060Y004826D01*
X029060Y004727D02*
X031182Y004727D01*
X031182Y004629D02*
X029052Y004629D01*
X028954Y004530D02*
X031182Y004530D01*
X031636Y004530D02*
X031736Y004530D01*
X031736Y004479D02*
X031736Y004933D01*
X032060Y004933D01*
X032098Y004923D01*
X032132Y004903D01*
X032160Y004875D01*
X032180Y004841D01*
X032190Y004803D01*
X032190Y004479D01*
X031736Y004479D01*
X031736Y004432D02*
X033354Y004432D01*
X033452Y004333D02*
X032190Y004333D01*
X032190Y004235D02*
X033011Y004235D01*
X033063Y004288D02*
X032823Y004048D01*
X032823Y003908D01*
X033203Y003908D01*
X033203Y004288D01*
X033063Y004288D01*
X033203Y004235D02*
X033263Y004235D01*
X033263Y004288D02*
X033263Y003908D01*
X033643Y003908D01*
X033643Y004048D01*
X033403Y004288D01*
X033263Y004288D01*
X033263Y004136D02*
X033203Y004136D01*
X033203Y004038D02*
X033263Y004038D01*
X033263Y003939D02*
X033203Y003939D01*
X032823Y003939D02*
X032106Y003939D01*
X032186Y004038D02*
X032823Y004038D01*
X032912Y004136D02*
X032190Y004136D01*
X031736Y004136D02*
X031636Y004136D01*
X031636Y004038D02*
X031736Y004038D01*
X031736Y003939D02*
X031636Y003939D01*
X031266Y003939D02*
X030313Y003939D01*
X030313Y003841D02*
X032823Y003841D01*
X032823Y003742D02*
X030313Y003742D01*
X029933Y003939D02*
X029873Y003939D01*
X029873Y004038D02*
X029933Y004038D01*
X029933Y004136D02*
X029873Y004136D01*
X029873Y004235D02*
X029933Y004235D01*
X030125Y004235D02*
X031182Y004235D01*
X031182Y004333D02*
X028529Y004333D01*
X028576Y004235D02*
X028737Y004235D01*
X028638Y004136D02*
X028595Y004136D01*
X029069Y004235D02*
X029680Y004235D01*
X029581Y004136D02*
X029167Y004136D01*
X029266Y004038D02*
X029493Y004038D01*
X029493Y003939D02*
X029273Y003939D01*
X029273Y003841D02*
X029493Y003841D01*
X029493Y003742D02*
X029273Y003742D01*
X028603Y003492D02*
X034550Y003492D01*
X033863Y003742D02*
X033643Y003742D01*
X033643Y003841D02*
X033863Y003841D01*
X033846Y003939D02*
X033643Y003939D01*
X033643Y004038D02*
X033748Y004038D01*
X033649Y004136D02*
X033554Y004136D01*
X033551Y004235D02*
X033456Y004235D01*
X034004Y004432D02*
X034576Y004432D01*
X034540Y004333D02*
X034103Y004333D01*
X034399Y004235D02*
X034540Y004235D01*
X034566Y004136D02*
X034498Y004136D01*
X034596Y004038D02*
X034621Y004038D01*
X034603Y003939D02*
X034745Y003939D01*
X034673Y003841D02*
X034603Y003841D01*
X035076Y003939D02*
X035297Y003939D01*
X035563Y003939D02*
X036811Y003939D01*
X036910Y004038D02*
X035660Y004038D01*
X035661Y004136D02*
X037008Y004136D01*
X037107Y004235D02*
X035759Y004235D01*
X035858Y004333D02*
X037205Y004333D01*
X037304Y004432D02*
X035956Y004432D01*
X036055Y004530D02*
X037402Y004530D01*
X037501Y004629D02*
X036153Y004629D01*
X036252Y004727D02*
X037599Y004727D01*
X037781Y004924D02*
X036449Y004924D01*
X036350Y004826D02*
X038018Y004826D01*
X038040Y004924D02*
X038116Y004924D01*
X038185Y005023D02*
X038190Y005023D01*
X038510Y005023D02*
X038652Y005023D01*
X038510Y004924D02*
X041122Y004924D01*
X041116Y004923D02*
X041082Y004903D01*
X041054Y004875D01*
X041034Y004841D01*
X041024Y004803D01*
X041024Y004479D01*
X041479Y004479D01*
X041479Y004933D01*
X041155Y004933D01*
X041116Y004923D01*
X041030Y004826D02*
X038470Y004826D01*
X038372Y004727D02*
X041024Y004727D01*
X041024Y004629D02*
X038273Y004629D01*
X038175Y004530D02*
X041024Y004530D01*
X041024Y004379D02*
X041024Y004055D01*
X041034Y004017D01*
X041054Y003983D01*
X041082Y003955D01*
X041116Y003935D01*
X041155Y003925D01*
X041479Y003925D01*
X041479Y004379D01*
X041579Y004379D01*
X041579Y004479D01*
X042033Y004479D01*
X042033Y004803D01*
X042023Y004841D01*
X042003Y004875D01*
X041975Y004903D01*
X041941Y004923D01*
X041903Y004933D01*
X041579Y004933D01*
X041579Y004479D01*
X041479Y004479D01*
X041479Y004379D01*
X041024Y004379D01*
X041024Y004136D02*
X039909Y004136D01*
X039998Y004038D02*
X041029Y004038D01*
X041108Y003939D02*
X039998Y003939D01*
X039998Y003841D02*
X043347Y003841D01*
X043347Y003939D02*
X041949Y003939D01*
X041941Y003935D02*
X041975Y003955D01*
X042003Y003983D01*
X042023Y004017D01*
X042033Y004055D01*
X042033Y004379D01*
X041579Y004379D01*
X041579Y003925D01*
X041903Y003925D01*
X041941Y003935D01*
X042028Y004038D02*
X043347Y004038D01*
X043347Y004136D02*
X042033Y004136D01*
X042033Y004235D02*
X043347Y004235D01*
X043347Y004333D02*
X042033Y004333D01*
X041579Y004333D02*
X041479Y004333D01*
X041479Y004235D02*
X041579Y004235D01*
X041579Y004136D02*
X041479Y004136D01*
X041479Y004038D02*
X041579Y004038D01*
X041579Y003939D02*
X041479Y003939D01*
X041479Y004432D02*
X038244Y004432D01*
X038754Y004235D02*
X039365Y004235D01*
X039266Y004136D02*
X038852Y004136D01*
X038951Y004038D02*
X039178Y004038D01*
X039178Y003939D02*
X038958Y003939D01*
X038958Y003841D02*
X039178Y003841D01*
X039178Y003742D02*
X038958Y003742D01*
X038877Y003644D02*
X039242Y003644D01*
X039340Y003545D02*
X038779Y003545D01*
X038397Y003545D02*
X038160Y003545D01*
X037745Y003939D02*
X037264Y003939D01*
X037362Y004038D02*
X037621Y004038D01*
X037566Y004136D02*
X037461Y004136D01*
X036570Y005271D02*
X035430Y004132D01*
X035306Y004333D02*
X035280Y004333D01*
X035244Y004432D02*
X035504Y004432D01*
X035602Y004530D02*
X035175Y004530D01*
X035014Y004629D02*
X035701Y004629D01*
X035799Y004727D02*
X033709Y004727D01*
X033807Y004629D02*
X034807Y004629D01*
X034646Y004530D02*
X033906Y004530D01*
X033255Y004530D02*
X032190Y004530D01*
X032190Y004629D02*
X033157Y004629D01*
X033058Y004727D02*
X032190Y004727D01*
X032184Y004826D02*
X032960Y004826D01*
X032861Y004924D02*
X032093Y004924D01*
X031736Y004924D02*
X031636Y004924D01*
X031636Y004826D02*
X031736Y004826D01*
X031736Y004727D02*
X031636Y004727D01*
X031636Y004629D02*
X031736Y004629D01*
X031636Y004432D02*
X028425Y004432D01*
X028026Y004432D02*
X025425Y004432D01*
X025529Y004333D02*
X027922Y004333D01*
X027875Y004235D02*
X025576Y004235D01*
X025595Y004136D02*
X027855Y004136D01*
X027856Y004038D02*
X025594Y004038D01*
X025554Y003939D02*
X027897Y003939D01*
X027975Y003841D02*
X025476Y003841D01*
X024975Y003841D02*
X024918Y003841D01*
X024918Y003742D02*
X028533Y003742D01*
X028529Y003644D02*
X024838Y003644D01*
X024739Y003545D02*
X028431Y003545D01*
X028603Y003492D02*
X028225Y003114D01*
X027881Y003250D02*
X025612Y003250D01*
X025605Y003271D02*
X025576Y003329D01*
X025538Y003381D01*
X025493Y003427D01*
X025440Y003465D01*
X025383Y003494D01*
X025321Y003514D01*
X025258Y003524D01*
X025255Y003524D01*
X025255Y003144D01*
X025635Y003144D01*
X025635Y003146D01*
X025625Y003210D01*
X025605Y003271D01*
X025562Y003348D02*
X027937Y003348D01*
X028062Y003447D02*
X025465Y003447D01*
X025255Y003447D02*
X025195Y003447D01*
X025195Y003524D02*
X025193Y003524D01*
X025129Y003514D01*
X025068Y003494D01*
X025011Y003465D01*
X024958Y003427D01*
X024913Y003381D01*
X024875Y003329D01*
X024845Y003271D01*
X024826Y003210D01*
X024815Y003146D01*
X024815Y003144D01*
X025195Y003144D01*
X025195Y003524D01*
X025195Y003348D02*
X025255Y003348D01*
X025255Y003250D02*
X025195Y003250D01*
X025195Y003151D02*
X025255Y003151D01*
X025635Y003151D02*
X027855Y003151D01*
X027855Y003053D02*
X025631Y003053D01*
X025604Y002954D02*
X027891Y002954D01*
X027960Y002856D02*
X025545Y002856D01*
X024906Y002856D02*
X021732Y002856D01*
X021634Y002954D02*
X024847Y002954D01*
X024820Y003053D02*
X021535Y003053D01*
X021437Y003151D02*
X024816Y003151D01*
X024839Y003250D02*
X021338Y003250D01*
X020432Y003447D02*
X024986Y003447D01*
X024889Y003348D02*
X020307Y003348D01*
X018618Y002757D02*
X016906Y002757D01*
X016906Y002770D02*
X016850Y002906D01*
X016746Y003010D01*
X016610Y003067D01*
X016463Y003067D01*
X016327Y003010D01*
X016223Y002906D01*
X016184Y002812D01*
X015937Y002812D01*
X016143Y003018D01*
X016258Y003295D01*
X016258Y003436D01*
X016327Y003367D01*
X016463Y003311D01*
X016610Y003311D01*
X016746Y003367D01*
X016850Y003471D01*
X016906Y003607D01*
X016906Y003755D01*
X016850Y003891D01*
X016746Y003995D01*
X016610Y004051D01*
X016463Y004051D01*
X016327Y003995D01*
X016223Y003891D01*
X016179Y003785D01*
X016143Y003871D01*
X015931Y004083D01*
X015655Y004198D01*
X015355Y004198D01*
X015078Y004083D01*
X014867Y003871D01*
X014752Y003594D01*
X014752Y003295D01*
X014867Y003018D01*
X015073Y002812D01*
X013136Y002812D01*
X012919Y003028D01*
X013030Y003295D01*
X013030Y003594D01*
X012915Y003871D01*
X012703Y004083D01*
X012426Y004198D01*
X012127Y004198D01*
X011850Y004083D01*
X011638Y003871D01*
X011524Y003594D01*
X011524Y003295D01*
X011638Y003018D01*
X011850Y002806D01*
X012127Y002692D01*
X012426Y002692D01*
X012693Y002802D01*
X012843Y002652D01*
X007784Y002652D01*
X007407Y003028D01*
X007518Y003295D01*
X007518Y003594D01*
X007403Y003871D01*
X007191Y004083D01*
X006915Y004198D01*
X006615Y004198D01*
X006338Y004083D01*
X006127Y003871D01*
X006012Y003594D01*
X006012Y003295D01*
X006127Y003018D01*
X006338Y002806D01*
X006615Y002692D01*
X006915Y002692D01*
X007181Y002802D01*
X007651Y002332D01*
X015691Y002332D01*
X016187Y001836D01*
X016166Y001786D01*
X016166Y001639D01*
X016223Y001503D01*
X016327Y001399D01*
X016463Y001342D01*
X016610Y001342D01*
X016746Y001399D01*
X016850Y001503D01*
X016906Y001639D01*
X016906Y001786D01*
X016850Y001922D01*
X016746Y002026D01*
X016610Y002082D01*
X016463Y002082D01*
X016413Y002062D01*
X015983Y002492D01*
X016221Y002492D01*
X016223Y002487D01*
X016327Y002383D01*
X016463Y002327D01*
X016610Y002327D01*
X016746Y002383D01*
X016850Y002487D01*
X016906Y002623D01*
X016906Y002770D01*
X016871Y002856D02*
X018520Y002856D01*
X018421Y002954D02*
X016802Y002954D01*
X016643Y003053D02*
X018323Y003053D01*
X018224Y003151D02*
X016198Y003151D01*
X016158Y003053D02*
X016430Y003053D01*
X016271Y002954D02*
X016079Y002954D01*
X015981Y002856D02*
X016202Y002856D01*
X016492Y002652D02*
X016536Y002697D01*
X016492Y002652D02*
X013069Y002652D01*
X012277Y003445D01*
X013030Y003447D02*
X014752Y003447D01*
X014752Y003545D02*
X013030Y003545D01*
X013009Y003644D02*
X014773Y003644D01*
X014813Y003742D02*
X012968Y003742D01*
X012927Y003841D02*
X014854Y003841D01*
X014935Y003939D02*
X012847Y003939D01*
X012748Y004038D02*
X015033Y004038D01*
X015208Y004136D02*
X012574Y004136D01*
X011979Y004136D02*
X010291Y004136D01*
X010420Y004083D02*
X010143Y004198D01*
X009843Y004198D01*
X009567Y004083D01*
X009355Y003871D01*
X009240Y003594D01*
X009240Y003295D01*
X009355Y003018D01*
X009567Y002806D01*
X009843Y002692D01*
X010143Y002692D01*
X010420Y002806D01*
X010631Y003018D01*
X010746Y003295D01*
X010746Y003594D01*
X010631Y003871D01*
X010420Y004083D01*
X010465Y004038D02*
X011805Y004038D01*
X011707Y003939D02*
X010563Y003939D01*
X010644Y003841D02*
X011626Y003841D01*
X011585Y003742D02*
X010685Y003742D01*
X010726Y003644D02*
X011544Y003644D01*
X011524Y003545D02*
X010746Y003545D01*
X010746Y003447D02*
X011524Y003447D01*
X011524Y003348D02*
X010746Y003348D01*
X010727Y003250D02*
X011542Y003250D01*
X011583Y003151D02*
X010687Y003151D01*
X010646Y003053D02*
X011624Y003053D01*
X011702Y002954D02*
X010568Y002954D01*
X010469Y002856D02*
X011801Y002856D01*
X011968Y002757D02*
X010301Y002757D01*
X009685Y002757D02*
X007678Y002757D01*
X007777Y002659D02*
X012836Y002659D01*
X012738Y002757D02*
X012585Y002757D01*
X012993Y002954D02*
X014930Y002954D01*
X014852Y003053D02*
X012929Y003053D01*
X012970Y003151D02*
X014811Y003151D01*
X014771Y003250D02*
X013011Y003250D01*
X013030Y003348D02*
X014752Y003348D01*
X015029Y002856D02*
X013092Y002856D01*
X013371Y002089D02*
X013451Y002115D01*
X013526Y002127D01*
X013526Y001644D01*
X013526Y001544D01*
X013626Y001544D01*
X013626Y001062D01*
X013701Y001074D01*
X013781Y001100D01*
X013856Y001138D01*
X013924Y001187D01*
X013983Y001247D01*
X014032Y001315D01*
X014071Y001389D01*
X014097Y001469D01*
X014108Y001544D01*
X013626Y001544D01*
X013626Y001644D01*
X014108Y001644D01*
X014097Y001719D01*
X014071Y001799D01*
X014032Y001874D01*
X013983Y001942D01*
X013924Y002002D01*
X013856Y002051D01*
X013781Y002089D01*
X013701Y002115D01*
X013626Y002127D01*
X013626Y001644D01*
X013526Y001644D01*
X013043Y001644D01*
X013055Y001719D01*
X013081Y001799D01*
X013119Y001874D01*
X013169Y001942D01*
X013228Y002002D01*
X013296Y002051D01*
X013371Y002089D01*
X013329Y002068D02*
X008310Y002068D01*
X008344Y002051D02*
X008269Y002089D01*
X008189Y002115D01*
X008114Y002127D01*
X008114Y001644D01*
X008597Y001644D01*
X008585Y001719D01*
X008559Y001799D01*
X008521Y001874D01*
X008471Y001942D01*
X008412Y002002D01*
X008344Y002051D01*
X008444Y001969D02*
X013196Y001969D01*
X013118Y001871D02*
X008522Y001871D01*
X008567Y001772D02*
X013072Y001772D01*
X013048Y001674D02*
X008592Y001674D01*
X008597Y001544D02*
X008114Y001544D01*
X008114Y001062D01*
X008189Y001074D01*
X008269Y001100D01*
X008344Y001138D01*
X008412Y001187D01*
X008471Y001247D01*
X008521Y001315D01*
X008559Y001389D01*
X008585Y001469D01*
X008597Y001544D01*
X008586Y001477D02*
X013054Y001477D01*
X013055Y001469D02*
X013081Y001389D01*
X013119Y001315D01*
X013169Y001247D01*
X013228Y001187D01*
X013296Y001138D01*
X013371Y001100D01*
X013451Y001074D01*
X013526Y001062D01*
X013526Y001544D01*
X013043Y001544D01*
X013055Y001469D01*
X013087Y001378D02*
X008553Y001378D01*
X008496Y001280D02*
X013144Y001280D01*
X013236Y001181D02*
X008404Y001181D01*
X008218Y001083D02*
X013422Y001083D01*
X013526Y001083D02*
X013626Y001083D01*
X013626Y001181D02*
X013526Y001181D01*
X013526Y001280D02*
X013626Y001280D01*
X013626Y001378D02*
X013526Y001378D01*
X013526Y001477D02*
X013626Y001477D01*
X013626Y001575D02*
X016193Y001575D01*
X016166Y001674D02*
X014104Y001674D01*
X014079Y001772D02*
X016166Y001772D01*
X016152Y001871D02*
X014034Y001871D01*
X013956Y001969D02*
X016053Y001969D01*
X015955Y002068D02*
X013822Y002068D01*
X013626Y002068D02*
X013526Y002068D01*
X013526Y001969D02*
X013626Y001969D01*
X013626Y001871D02*
X013526Y001871D01*
X013526Y001772D02*
X013626Y001772D01*
X013626Y001674D02*
X013526Y001674D01*
X013526Y001575D02*
X008114Y001575D01*
X008114Y001544D02*
X008114Y001644D01*
X008014Y001644D01*
X008014Y001544D01*
X008114Y001544D01*
X008114Y001477D02*
X008014Y001477D01*
X008014Y001544D02*
X008014Y001062D01*
X007939Y001074D01*
X007859Y001100D01*
X007784Y001138D01*
X007716Y001187D01*
X007657Y001247D01*
X007607Y001315D01*
X007569Y001389D01*
X007543Y001469D01*
X007531Y001544D01*
X008014Y001544D01*
X008014Y001575D02*
X002602Y001575D01*
X002602Y001544D02*
X002602Y001644D01*
X003085Y001644D01*
X003073Y001719D01*
X003047Y001799D01*
X003009Y001874D01*
X002959Y001942D01*
X002900Y002002D01*
X002832Y002051D01*
X002757Y002089D01*
X002677Y002115D01*
X002602Y002127D01*
X002602Y001644D01*
X002502Y001644D01*
X002502Y001544D01*
X002602Y001544D01*
X002602Y001062D01*
X002677Y001074D01*
X002757Y001100D01*
X002832Y001138D01*
X002900Y001187D01*
X002959Y001247D01*
X003009Y001315D01*
X003047Y001389D01*
X003073Y001469D01*
X003085Y001544D01*
X002602Y001544D01*
X002602Y001477D02*
X002502Y001477D01*
X002502Y001544D02*
X002502Y001062D01*
X002427Y001074D01*
X002347Y001100D01*
X002272Y001138D01*
X002204Y001187D01*
X002145Y001247D01*
X002096Y001315D01*
X002057Y001389D01*
X002031Y001469D01*
X002020Y001544D01*
X002502Y001544D01*
X002502Y001575D02*
X000340Y001575D01*
X000340Y001477D02*
X002030Y001477D01*
X002063Y001378D02*
X000340Y001378D01*
X000340Y001280D02*
X002121Y001280D01*
X002212Y001181D02*
X000340Y001181D01*
X000340Y001083D02*
X002398Y001083D01*
X002502Y001083D02*
X002602Y001083D01*
X002602Y001181D02*
X002502Y001181D01*
X002502Y001280D02*
X002602Y001280D01*
X002602Y001378D02*
X002502Y001378D01*
X002892Y001181D02*
X007724Y001181D01*
X007633Y001280D02*
X002984Y001280D01*
X003041Y001378D02*
X007575Y001378D01*
X007542Y001477D02*
X003074Y001477D01*
X003080Y001674D02*
X007536Y001674D01*
X007531Y001644D02*
X008014Y001644D01*
X008014Y002127D01*
X007939Y002115D01*
X007859Y002089D01*
X007784Y002051D01*
X007716Y002002D01*
X007657Y001942D01*
X007607Y001874D01*
X007569Y001799D01*
X007543Y001719D01*
X007531Y001644D01*
X007561Y001772D02*
X003056Y001772D01*
X003010Y001871D02*
X007606Y001871D01*
X007684Y001969D02*
X002932Y001969D01*
X002799Y002068D02*
X007818Y002068D01*
X008014Y002068D02*
X008114Y002068D01*
X008114Y001969D02*
X008014Y001969D01*
X008014Y001871D02*
X008114Y001871D01*
X008114Y001772D02*
X008014Y001772D01*
X008014Y001674D02*
X008114Y001674D01*
X008114Y001378D02*
X008014Y001378D01*
X008014Y001280D02*
X008114Y001280D01*
X008114Y001181D02*
X008014Y001181D01*
X008014Y001083D02*
X008114Y001083D01*
X007910Y001083D02*
X002706Y001083D01*
X002502Y001644D02*
X002020Y001644D01*
X002031Y001719D01*
X002057Y001799D01*
X002096Y001874D01*
X002145Y001942D01*
X002204Y002002D01*
X002272Y002051D01*
X002347Y002089D01*
X002427Y002115D01*
X002502Y002127D01*
X002502Y001644D01*
X002502Y001674D02*
X002602Y001674D01*
X002602Y001772D02*
X002502Y001772D01*
X002502Y001871D02*
X002602Y001871D01*
X002602Y001969D02*
X002502Y001969D01*
X002502Y002068D02*
X002602Y002068D01*
X002306Y002068D02*
X000340Y002068D01*
X000340Y002166D02*
X015856Y002166D01*
X015758Y002265D02*
X000340Y002265D01*
X000340Y002363D02*
X007620Y002363D01*
X007521Y002462D02*
X000340Y002462D01*
X000340Y002560D02*
X007423Y002560D01*
X007324Y002659D02*
X000340Y002659D01*
X000340Y002757D02*
X000945Y002757D01*
X000827Y002806D02*
X001103Y002692D01*
X001403Y002692D01*
X001679Y002806D01*
X001891Y003018D01*
X002006Y003295D01*
X002006Y003594D01*
X001891Y003871D01*
X001679Y004083D01*
X001403Y004198D01*
X001103Y004198D01*
X000827Y004083D01*
X000615Y003871D01*
X000500Y003594D01*
X000500Y003295D01*
X000615Y003018D01*
X000827Y002806D01*
X000777Y002856D02*
X000340Y002856D01*
X000340Y002954D02*
X000678Y002954D01*
X000600Y003053D02*
X000340Y003053D01*
X000340Y003151D02*
X000560Y003151D01*
X000519Y003250D02*
X000340Y003250D01*
X000340Y003348D02*
X000500Y003348D01*
X000500Y003447D02*
X000340Y003447D01*
X000340Y003545D02*
X000500Y003545D01*
X000521Y003644D02*
X000340Y003644D01*
X000340Y003742D02*
X000561Y003742D01*
X000602Y003841D02*
X000340Y003841D01*
X000340Y003939D02*
X000683Y003939D01*
X000781Y004038D02*
X000340Y004038D01*
X000340Y004136D02*
X000956Y004136D01*
X001550Y004136D02*
X004184Y004136D01*
X004055Y004083D02*
X004332Y004198D01*
X004631Y004198D01*
X004908Y004083D01*
X005120Y003871D01*
X005234Y003594D01*
X005234Y003295D01*
X005120Y003018D01*
X004908Y002806D01*
X004631Y002692D01*
X004332Y002692D01*
X004055Y002806D01*
X003843Y003018D01*
X003728Y003295D01*
X003728Y003594D01*
X003843Y003871D01*
X004055Y004083D01*
X004010Y004038D02*
X001725Y004038D01*
X001823Y003939D02*
X003911Y003939D01*
X003831Y003841D02*
X001904Y003841D01*
X001945Y003742D02*
X003790Y003742D01*
X003749Y003644D02*
X001985Y003644D01*
X002006Y003545D02*
X003728Y003545D01*
X003728Y003447D02*
X002006Y003447D01*
X002006Y003348D02*
X003728Y003348D01*
X003747Y003250D02*
X001987Y003250D01*
X001946Y003151D02*
X003788Y003151D01*
X003829Y003053D02*
X001906Y003053D01*
X001828Y002954D02*
X003907Y002954D01*
X004005Y002856D02*
X001729Y002856D01*
X001561Y002757D02*
X004173Y002757D01*
X004790Y002757D02*
X006457Y002757D01*
X006289Y002856D02*
X004957Y002856D01*
X005056Y002954D02*
X006190Y002954D01*
X006112Y003053D02*
X005134Y003053D01*
X005175Y003151D02*
X006071Y003151D01*
X006031Y003250D02*
X005216Y003250D01*
X005234Y003348D02*
X006012Y003348D01*
X006012Y003447D02*
X005234Y003447D01*
X005234Y003545D02*
X006012Y003545D01*
X006032Y003644D02*
X005214Y003644D01*
X005173Y003742D02*
X006073Y003742D01*
X006114Y003841D02*
X005132Y003841D01*
X005051Y003939D02*
X006195Y003939D01*
X006293Y004038D02*
X004953Y004038D01*
X004779Y004136D02*
X006467Y004136D01*
X007062Y004136D02*
X009696Y004136D01*
X009522Y004038D02*
X007236Y004038D01*
X007335Y003939D02*
X009423Y003939D01*
X009342Y003841D02*
X007416Y003841D01*
X007456Y003742D02*
X009302Y003742D01*
X009261Y003644D02*
X007497Y003644D01*
X007518Y003545D02*
X009240Y003545D01*
X009240Y003447D02*
X007518Y003447D01*
X007518Y003348D02*
X009240Y003348D01*
X009259Y003250D02*
X007499Y003250D01*
X007458Y003151D02*
X009300Y003151D01*
X009340Y003053D02*
X007417Y003053D01*
X007481Y002954D02*
X009419Y002954D01*
X009517Y002856D02*
X007580Y002856D01*
X007226Y002757D02*
X007073Y002757D01*
X007718Y002492D02*
X006765Y003445D01*
X007718Y002492D02*
X015757Y002492D01*
X016536Y001712D01*
X016880Y001575D02*
X019799Y001575D01*
X019773Y001674D02*
X016906Y001674D01*
X016906Y001772D02*
X019773Y001772D01*
X019808Y001871D02*
X016871Y001871D01*
X016803Y001969D02*
X019406Y001969D01*
X019308Y002068D02*
X016645Y002068D01*
X016428Y002068D02*
X016407Y002068D01*
X016309Y002166D02*
X019209Y002166D01*
X019111Y002265D02*
X016210Y002265D01*
X016112Y002363D02*
X016374Y002363D01*
X016248Y002462D02*
X016013Y002462D01*
X016699Y002363D02*
X019012Y002363D01*
X018914Y002462D02*
X016825Y002462D01*
X016881Y002560D02*
X018815Y002560D01*
X018717Y002659D02*
X016906Y002659D01*
X016701Y003348D02*
X018027Y003348D01*
X018126Y003250D02*
X016239Y003250D01*
X016258Y003348D02*
X016372Y003348D01*
X016826Y003447D02*
X017929Y003447D01*
X017830Y003545D02*
X016881Y003545D01*
X016906Y003644D02*
X017732Y003644D01*
X017633Y003742D02*
X016906Y003742D01*
X016871Y003841D02*
X017535Y003841D01*
X017436Y003939D02*
X016801Y003939D01*
X016641Y004038D02*
X017338Y004038D01*
X017239Y004136D02*
X015802Y004136D01*
X015976Y004038D02*
X016432Y004038D01*
X016272Y003939D02*
X016075Y003939D01*
X016156Y003841D02*
X016202Y003841D01*
X017042Y004333D02*
X000340Y004333D01*
X000340Y004235D02*
X017141Y004235D01*
X016944Y004432D02*
X000340Y004432D01*
X000340Y004530D02*
X002304Y004530D01*
X002294Y004533D02*
X002395Y004506D01*
X002500Y004492D01*
X002502Y004492D01*
X002502Y005245D01*
X001749Y005245D01*
X001749Y005242D01*
X001763Y005138D01*
X001790Y005037D01*
X001831Y004939D01*
X001883Y004848D01*
X001947Y004765D01*
X002022Y004690D01*
X002105Y004626D01*
X002196Y004574D01*
X002294Y004533D01*
X002502Y004530D02*
X002602Y004530D01*
X002602Y004492D02*
X002605Y004492D01*
X002709Y004506D01*
X002811Y004533D01*
X002908Y004574D01*
X002999Y004626D01*
X003083Y004690D01*
X003157Y004765D01*
X003221Y004848D01*
X003274Y004939D01*
X003314Y005037D01*
X003341Y005138D01*
X003355Y005242D01*
X003355Y005245D01*
X002602Y005245D01*
X002602Y004492D01*
X002602Y004629D02*
X002502Y004629D01*
X002502Y004727D02*
X002602Y004727D01*
X002602Y004826D02*
X002502Y004826D01*
X002502Y004924D02*
X002602Y004924D01*
X002602Y005023D02*
X002502Y005023D01*
X002502Y005121D02*
X002602Y005121D01*
X002602Y005220D02*
X002502Y005220D01*
X002502Y005245D02*
X002602Y005245D01*
X002602Y005345D01*
X002502Y005345D01*
X002502Y005245D01*
X002502Y005318D02*
X000340Y005318D01*
X000340Y005220D02*
X001752Y005220D01*
X001768Y005121D02*
X000340Y005121D01*
X000340Y005023D02*
X001796Y005023D01*
X001839Y004924D02*
X000340Y004924D01*
X000340Y004826D02*
X001900Y004826D01*
X001985Y004727D02*
X000340Y004727D01*
X000340Y004629D02*
X002102Y004629D01*
X002800Y004530D02*
X007816Y004530D01*
X007805Y004533D02*
X007907Y004506D01*
X008011Y004492D01*
X008014Y004492D01*
X008014Y005245D01*
X008114Y005245D01*
X008114Y004492D01*
X008117Y004492D01*
X008221Y004506D01*
X008323Y004533D01*
X008420Y004574D01*
X008511Y004626D01*
X008594Y004690D01*
X008669Y004765D01*
X008733Y004848D01*
X008786Y004939D01*
X008826Y005037D01*
X008853Y005138D01*
X008867Y005242D01*
X008867Y005245D01*
X008114Y005245D01*
X008114Y005345D01*
X008867Y005345D01*
X008867Y005348D01*
X008853Y005452D01*
X008826Y005554D01*
X008786Y005651D01*
X008733Y005742D01*
X008669Y005826D01*
X008594Y005900D01*
X008511Y005964D01*
X008420Y006017D01*
X008323Y006057D01*
X008221Y006084D01*
X008117Y006098D01*
X008114Y006098D01*
X008114Y005345D01*
X008014Y005345D01*
X008014Y005245D01*
X007261Y005245D01*
X007261Y005242D01*
X007275Y005138D01*
X007302Y005037D01*
X007343Y004939D01*
X007395Y004848D01*
X007459Y004765D01*
X007534Y004690D01*
X007617Y004626D01*
X007708Y004574D01*
X007805Y004533D01*
X008014Y004530D02*
X008114Y004530D01*
X008114Y004629D02*
X008014Y004629D01*
X008014Y004727D02*
X008114Y004727D01*
X008114Y004826D02*
X008014Y004826D01*
X008014Y004924D02*
X008114Y004924D01*
X008114Y005023D02*
X008014Y005023D01*
X008014Y005121D02*
X008114Y005121D01*
X008114Y005220D02*
X008014Y005220D01*
X008014Y005318D02*
X002602Y005318D01*
X002602Y005345D02*
X003355Y005345D01*
X003355Y005348D01*
X003341Y005452D01*
X003314Y005554D01*
X003274Y005651D01*
X003221Y005742D01*
X003157Y005826D01*
X003083Y005900D01*
X002999Y005964D01*
X002908Y006017D01*
X002811Y006057D01*
X002709Y006084D01*
X002605Y006098D01*
X002602Y006098D01*
X002602Y005345D01*
X002602Y005417D02*
X002502Y005417D01*
X002502Y005345D02*
X002502Y006098D01*
X002500Y006098D01*
X002395Y006084D01*
X002294Y006057D01*
X002196Y006017D01*
X002105Y005964D01*
X002022Y005900D01*
X001947Y005826D01*
X001883Y005742D01*
X001831Y005651D01*
X001790Y005554D01*
X001763Y005452D01*
X001749Y005348D01*
X001749Y005345D01*
X002502Y005345D01*
X001759Y005417D02*
X000340Y005417D01*
X000340Y005515D02*
X001780Y005515D01*
X001815Y005614D02*
X000340Y005614D01*
X000340Y005712D02*
X001866Y005712D01*
X001936Y005811D02*
X000340Y005811D01*
X000340Y005909D02*
X002034Y005909D01*
X002181Y006008D02*
X000340Y006008D01*
X000340Y006106D02*
X000517Y006106D01*
X000428Y006205D02*
X000340Y006205D01*
X000340Y006303D02*
X000388Y006303D01*
X000379Y006402D02*
X000340Y006402D01*
X000340Y006500D02*
X000391Y006500D01*
X000432Y006599D02*
X000340Y006599D01*
X000340Y006697D02*
X000526Y006697D01*
X000340Y006796D02*
X017833Y006796D01*
X017734Y006894D02*
X000340Y006894D01*
X000972Y006697D02*
X004132Y006697D01*
X004038Y006599D02*
X001066Y006599D01*
X002502Y006008D02*
X002602Y006008D01*
X002602Y005909D02*
X002502Y005909D01*
X002502Y005811D02*
X002602Y005811D01*
X002602Y005712D02*
X002502Y005712D01*
X002502Y005614D02*
X002602Y005614D01*
X002602Y005515D02*
X002502Y005515D01*
X003070Y005909D02*
X007546Y005909D01*
X007534Y005900D02*
X007459Y005826D01*
X007395Y005742D01*
X007343Y005651D01*
X007302Y005554D01*
X007275Y005452D01*
X007261Y005348D01*
X007261Y005345D01*
X008014Y005345D01*
X008014Y006098D01*
X008011Y006098D01*
X007907Y006084D01*
X007805Y006057D01*
X007708Y006017D01*
X007617Y005964D01*
X007534Y005900D01*
X007448Y005811D02*
X003168Y005811D01*
X003238Y005712D02*
X007378Y005712D01*
X007327Y005614D02*
X003289Y005614D01*
X003324Y005515D02*
X007292Y005515D01*
X007270Y005417D02*
X003346Y005417D01*
X003352Y005220D02*
X007264Y005220D01*
X007279Y005121D02*
X003337Y005121D01*
X003308Y005023D02*
X007308Y005023D01*
X007351Y004924D02*
X003265Y004924D01*
X003204Y004826D02*
X007412Y004826D01*
X007496Y004727D02*
X003120Y004727D01*
X003003Y004629D02*
X007613Y004629D01*
X008312Y004530D02*
X013328Y004530D01*
X013125Y004629D02*
X008515Y004629D01*
X008632Y004727D02*
X013008Y004727D01*
X012924Y004826D02*
X008716Y004826D01*
X008777Y004924D02*
X012863Y004924D01*
X012820Y005023D02*
X008820Y005023D01*
X008849Y005121D02*
X012791Y005121D01*
X012776Y005220D02*
X008864Y005220D01*
X008858Y005417D02*
X012782Y005417D01*
X012804Y005515D02*
X008836Y005515D01*
X008801Y005614D02*
X012839Y005614D01*
X012890Y005712D02*
X008750Y005712D01*
X008680Y005811D02*
X012960Y005811D01*
X013058Y005909D02*
X008582Y005909D01*
X008435Y006008D02*
X013205Y006008D01*
X013526Y006008D02*
X013626Y006008D01*
X013626Y005909D02*
X013526Y005909D01*
X013526Y005811D02*
X013626Y005811D01*
X013626Y005712D02*
X013526Y005712D01*
X013526Y005614D02*
X013626Y005614D01*
X013626Y005515D02*
X013526Y005515D01*
X013526Y005417D02*
X013626Y005417D01*
X013526Y005318D02*
X008114Y005318D01*
X008114Y005417D02*
X008014Y005417D01*
X008014Y005515D02*
X008114Y005515D01*
X008114Y005614D02*
X008014Y005614D01*
X008014Y005712D02*
X008114Y005712D01*
X008114Y005811D02*
X008014Y005811D01*
X008014Y005909D02*
X008114Y005909D01*
X008114Y006008D02*
X008014Y006008D01*
X007693Y006008D02*
X002923Y006008D01*
X002025Y007584D02*
X000340Y007584D01*
X000340Y007682D02*
X002050Y007682D01*
X002097Y007781D02*
X000340Y007781D01*
X000340Y007879D02*
X002177Y007879D01*
X002790Y007978D02*
X007827Y007978D01*
X007689Y007879D02*
X002928Y007879D01*
X003008Y007781D02*
X007608Y007781D01*
X008014Y007288D02*
X008114Y007288D01*
X008114Y007190D02*
X008014Y007190D01*
X008014Y007091D02*
X008114Y007091D01*
X008114Y006993D02*
X008014Y006993D01*
X008232Y006993D02*
X013408Y006993D01*
X013526Y007584D02*
X013626Y007584D01*
X013626Y007682D02*
X013526Y007682D01*
X013526Y007781D02*
X013626Y007781D01*
X013626Y007879D02*
X013526Y007879D01*
X013526Y007978D02*
X013626Y007978D01*
X013813Y007978D02*
X016651Y007978D01*
X016749Y007879D02*
X013951Y007879D01*
X014031Y007781D02*
X016848Y007781D01*
X016946Y007682D02*
X014078Y007682D01*
X014103Y007584D02*
X017045Y007584D01*
X018547Y007584D02*
X018689Y007584D01*
X018674Y007553D02*
X018652Y007486D01*
X018643Y007430D01*
X019039Y007430D01*
X019039Y007826D01*
X018983Y007818D01*
X018916Y007796D01*
X018853Y007764D01*
X018797Y007723D01*
X018747Y007673D01*
X018705Y007616D01*
X018674Y007553D01*
X018652Y007485D02*
X018547Y007485D01*
X018547Y007387D02*
X019039Y007387D01*
X019136Y007387D02*
X023573Y007387D01*
X023671Y007288D02*
X019525Y007288D01*
X019491Y007190D02*
X023770Y007190D01*
X023868Y007091D02*
X019429Y007091D01*
X019309Y006993D02*
X023910Y006993D01*
X024070Y007116D02*
X021993Y009193D01*
X022639Y009193D02*
X022639Y008937D01*
X024442Y007134D01*
X024070Y007116D02*
X024070Y006506D01*
X024442Y006134D01*
X024072Y006106D02*
X021082Y006106D01*
X021180Y006008D02*
X024072Y006008D01*
X024143Y005909D02*
X021279Y005909D01*
X021377Y005811D02*
X024241Y005811D01*
X024344Y005712D02*
X021476Y005712D01*
X021220Y005515D02*
X020193Y005515D01*
X020094Y005614D02*
X021122Y005614D01*
X021023Y005712D02*
X019996Y005712D01*
X019897Y005811D02*
X020925Y005811D01*
X020826Y005909D02*
X019799Y005909D01*
X019700Y006008D02*
X020728Y006008D01*
X020629Y006106D02*
X019602Y006106D01*
X019503Y006205D02*
X020531Y006205D01*
X020333Y006303D02*
X019489Y006303D01*
X019494Y006402D02*
X020280Y006402D01*
X020280Y006500D02*
X019485Y006500D01*
X019445Y006599D02*
X020332Y006599D01*
X020510Y006452D02*
X021470Y005492D01*
X024350Y005492D01*
X024830Y005972D01*
X024830Y008332D01*
X026070Y009572D01*
X026512Y009572D01*
X026891Y009193D01*
X027225Y009193D01*
X028210Y008208D01*
X028580Y008175D02*
X031182Y008175D01*
X031182Y008273D02*
X028580Y008273D01*
X028569Y008372D02*
X031636Y008372D01*
X031636Y008470D02*
X031736Y008470D01*
X031736Y008372D02*
X032320Y008372D01*
X032320Y008273D02*
X032190Y008273D01*
X032190Y008175D02*
X032320Y008175D01*
X032320Y008076D02*
X032190Y008076D01*
X032187Y007978D02*
X032320Y007978D01*
X032320Y007879D02*
X032111Y007879D01*
X032320Y007781D02*
X029131Y007781D01*
X029102Y007796D02*
X029035Y007818D01*
X028979Y007826D01*
X028979Y007430D01*
X029375Y007430D01*
X029366Y007486D01*
X029344Y007553D01*
X029312Y007616D01*
X029271Y007673D01*
X029221Y007723D01*
X029164Y007764D01*
X029102Y007796D01*
X028979Y007781D02*
X028882Y007781D01*
X028882Y007826D02*
X028826Y007818D01*
X028759Y007796D01*
X028696Y007764D01*
X028639Y007723D01*
X028589Y007673D01*
X028548Y007616D01*
X028516Y007553D01*
X028494Y007486D01*
X028485Y007430D01*
X028882Y007430D01*
X028882Y007826D01*
X028882Y007682D02*
X028979Y007682D01*
X028979Y007584D02*
X028882Y007584D01*
X028882Y007485D02*
X028979Y007485D01*
X028979Y007430D02*
X028882Y007430D01*
X028882Y007333D01*
X028979Y007333D01*
X028979Y007430D01*
X028979Y007387D02*
X032320Y007387D01*
X032320Y007485D02*
X029366Y007485D01*
X029329Y007584D02*
X032320Y007584D01*
X032320Y007682D02*
X029261Y007682D01*
X029375Y007333D02*
X028979Y007333D01*
X028979Y006937D01*
X029035Y006946D01*
X029102Y006968D01*
X029164Y007000D01*
X029221Y007041D01*
X029271Y007091D01*
X029312Y007148D01*
X029344Y007210D01*
X029366Y007277D01*
X029375Y007333D01*
X029368Y007288D02*
X032320Y007288D01*
X032320Y007190D02*
X029334Y007190D01*
X029272Y007091D02*
X032320Y007091D01*
X032320Y006993D02*
X029151Y006993D01*
X028979Y006993D02*
X028882Y006993D01*
X028882Y006937D02*
X028882Y007333D01*
X028529Y007333D01*
X028435Y007428D01*
X028299Y007484D01*
X028152Y007484D01*
X028016Y007428D01*
X027912Y007324D01*
X027855Y007188D01*
X027855Y007040D01*
X027912Y006904D01*
X028016Y006800D01*
X028152Y006744D01*
X028299Y006744D01*
X028435Y006800D01*
X028539Y006904D01*
X028595Y007040D01*
X028595Y007085D01*
X028639Y007041D01*
X028696Y007000D01*
X028759Y006968D01*
X028826Y006946D01*
X028882Y006937D01*
X028849Y006804D02*
X028700Y006742D01*
X028585Y006628D01*
X028523Y006478D01*
X028523Y006339D01*
X028435Y006428D01*
X028299Y006484D01*
X028152Y006484D01*
X028016Y006428D01*
X027912Y006324D01*
X027855Y006188D01*
X027855Y006040D01*
X027912Y005904D01*
X028016Y005800D01*
X028152Y005744D01*
X028299Y005744D01*
X028435Y005800D01*
X028539Y005904D01*
X028595Y006040D01*
X028595Y006157D01*
X028700Y006053D01*
X028849Y005991D01*
X029011Y005991D01*
X029161Y006053D01*
X029275Y006167D01*
X029337Y006317D01*
X029337Y006478D01*
X029275Y006628D01*
X029161Y006742D01*
X029011Y006804D01*
X028849Y006804D01*
X028829Y006796D02*
X028424Y006796D01*
X028529Y006894D02*
X032320Y006894D01*
X032320Y006796D02*
X029031Y006796D01*
X029206Y006697D02*
X032320Y006697D01*
X032320Y006599D02*
X029287Y006599D01*
X029328Y006500D02*
X032320Y006500D01*
X032320Y006402D02*
X029337Y006402D01*
X029332Y006303D02*
X032320Y006303D01*
X032320Y006205D02*
X029291Y006205D01*
X029215Y006106D02*
X032320Y006106D01*
X032320Y006008D02*
X029053Y006008D01*
X029033Y005811D02*
X032320Y005811D01*
X032320Y005909D02*
X028541Y005909D01*
X028582Y006008D02*
X028807Y006008D01*
X028646Y006106D02*
X028595Y006106D01*
X028523Y006402D02*
X028461Y006402D01*
X028532Y006500D02*
X025838Y006500D01*
X025740Y006402D02*
X027990Y006402D01*
X027903Y006303D02*
X025641Y006303D01*
X025588Y006205D02*
X027863Y006205D01*
X027855Y006106D02*
X025595Y006106D01*
X025582Y006008D02*
X027869Y006008D01*
X027910Y005909D02*
X025541Y005909D01*
X025446Y005811D02*
X028005Y005811D01*
X028446Y005811D02*
X028827Y005811D01*
X028654Y005712D02*
X024797Y005712D01*
X024698Y005614D02*
X028573Y005614D01*
X028532Y005515D02*
X024600Y005515D01*
X024895Y005811D02*
X025005Y005811D01*
X025225Y006114D02*
X026245Y007134D01*
X026245Y009193D01*
X026539Y008963D02*
X026597Y008963D01*
X026716Y008864D02*
X026419Y008864D01*
X026405Y008766D02*
X027426Y008766D01*
X027524Y008667D02*
X026405Y008667D01*
X026405Y008569D02*
X027047Y008569D01*
X027056Y008578D02*
X026840Y008362D01*
X026840Y008055D01*
X027056Y007838D01*
X027363Y007838D01*
X027580Y008055D01*
X027580Y008362D01*
X027363Y008578D01*
X027056Y008578D01*
X026948Y008470D02*
X026405Y008470D01*
X026405Y008372D02*
X026850Y008372D01*
X026840Y008273D02*
X026405Y008273D01*
X026405Y008175D02*
X026840Y008175D01*
X026840Y008076D02*
X026405Y008076D01*
X026405Y007978D02*
X026917Y007978D01*
X027015Y007879D02*
X026405Y007879D01*
X026405Y007781D02*
X028729Y007781D01*
X028599Y007682D02*
X026405Y007682D01*
X026405Y007584D02*
X028532Y007584D01*
X028494Y007485D02*
X026405Y007485D01*
X026405Y007387D02*
X027975Y007387D01*
X027897Y007288D02*
X026405Y007288D01*
X026405Y007190D02*
X027856Y007190D01*
X027855Y007091D02*
X026405Y007091D01*
X026331Y006993D02*
X027875Y006993D01*
X027922Y006894D02*
X026232Y006894D01*
X026134Y006796D02*
X028026Y006796D01*
X028576Y006993D02*
X028709Y006993D01*
X028882Y007091D02*
X028979Y007091D01*
X028979Y007190D02*
X028882Y007190D01*
X028882Y007288D02*
X028979Y007288D01*
X028882Y007387D02*
X028476Y007387D01*
X028404Y007879D02*
X031261Y007879D01*
X031185Y007978D02*
X028502Y007978D01*
X028580Y008076D02*
X031182Y008076D01*
X031636Y008076D02*
X031736Y008076D01*
X031736Y007978D02*
X031636Y007978D01*
X031636Y007879D02*
X031736Y007879D01*
X031736Y008175D02*
X031636Y008175D01*
X031636Y008273D02*
X031736Y008273D01*
X031736Y008569D02*
X031636Y008569D01*
X031636Y008667D02*
X031736Y008667D01*
X031736Y008766D02*
X031636Y008766D01*
X031636Y008864D02*
X031736Y008864D01*
X031794Y008963D02*
X031436Y008963D01*
X031489Y009061D02*
X031695Y009061D01*
X031597Y009160D02*
X031513Y009160D01*
X032149Y009258D02*
X032317Y009258D01*
X032247Y009160D02*
X032416Y009160D01*
X032346Y009061D02*
X032514Y009061D01*
X032444Y008963D02*
X032613Y008963D01*
X032543Y008864D02*
X032711Y008864D01*
X032641Y008766D02*
X032810Y008766D01*
X032740Y008667D02*
X032908Y008667D01*
X032910Y008569D02*
X032780Y008569D01*
X032780Y008470D02*
X032910Y008470D01*
X032910Y008372D02*
X032780Y008372D01*
X032780Y008273D02*
X032910Y008273D01*
X032910Y008175D02*
X032780Y008175D01*
X032780Y008076D02*
X032910Y008076D01*
X032910Y007978D02*
X032780Y007978D01*
X032780Y007879D02*
X032910Y007879D01*
X032910Y007781D02*
X032780Y007781D01*
X032780Y007682D02*
X032910Y007682D01*
X032910Y007584D02*
X032780Y007584D01*
X032780Y007485D02*
X032910Y007485D01*
X032910Y007387D02*
X032780Y007387D01*
X032780Y007288D02*
X032910Y007288D01*
X032910Y007190D02*
X032780Y007190D01*
X032780Y007091D02*
X032910Y007091D01*
X032910Y006993D02*
X032780Y006993D01*
X032780Y006894D02*
X032910Y006894D01*
X032910Y006796D02*
X032780Y006796D01*
X032780Y006697D02*
X032910Y006697D01*
X032910Y006599D02*
X032780Y006599D01*
X032780Y006500D02*
X032910Y006500D01*
X032910Y006402D02*
X032780Y006402D01*
X032780Y006303D02*
X032910Y006303D01*
X032910Y006205D02*
X032780Y006205D01*
X032780Y006106D02*
X032910Y006106D01*
X032910Y006008D02*
X032780Y006008D01*
X032780Y005909D02*
X032910Y005909D01*
X032910Y005811D02*
X032780Y005811D01*
X032780Y005712D02*
X032910Y005712D01*
X032910Y005614D02*
X032822Y005614D01*
X033070Y005572D02*
X033070Y008732D01*
X032230Y009572D01*
X032000Y009554D02*
X031853Y009554D01*
X031755Y009652D02*
X032000Y009652D01*
X032021Y009455D02*
X031952Y009455D01*
X032050Y009357D02*
X032120Y009357D01*
X031104Y009652D02*
X026657Y009652D01*
X026756Y009554D02*
X026796Y009554D01*
X026986Y009554D02*
X030402Y009554D01*
X030592Y009554D02*
X031048Y009554D01*
X030882Y009455D02*
X030758Y009455D01*
X030237Y009455D02*
X027151Y009455D01*
X027223Y009357D02*
X030165Y009357D01*
X030127Y009258D02*
X027386Y009258D01*
X027484Y009160D02*
X030127Y009160D01*
X030151Y009061D02*
X027583Y009061D01*
X027681Y008963D02*
X030204Y008963D01*
X030323Y008864D02*
X027780Y008864D01*
X027878Y008766D02*
X031189Y008766D01*
X031182Y008667D02*
X027977Y008667D01*
X027721Y008470D02*
X027471Y008470D01*
X027569Y008372D02*
X027820Y008372D01*
X027840Y008273D02*
X027580Y008273D01*
X027580Y008175D02*
X027840Y008175D01*
X027840Y008076D02*
X027580Y008076D01*
X027502Y007978D02*
X027917Y007978D01*
X028015Y007879D02*
X027404Y007879D01*
X027372Y008569D02*
X027623Y008569D01*
X028372Y008569D02*
X031182Y008569D01*
X031182Y008470D02*
X028471Y008470D01*
X027327Y008864D02*
X027065Y008864D01*
X027184Y008963D02*
X027229Y008963D01*
X025826Y009554D02*
X023820Y009554D01*
X023820Y009652D02*
X025924Y009652D01*
X025727Y009455D02*
X023820Y009455D01*
X023820Y009357D02*
X025629Y009357D01*
X025530Y009258D02*
X023820Y009258D01*
X023820Y009160D02*
X025432Y009160D01*
X025333Y009061D02*
X023850Y009061D01*
X023880Y008963D02*
X025235Y008963D01*
X025136Y008864D02*
X023876Y008864D01*
X023834Y008766D02*
X025038Y008766D01*
X024939Y008667D02*
X023709Y008667D01*
X023471Y008667D02*
X023134Y008667D01*
X023233Y008569D02*
X024841Y008569D01*
X024742Y008470D02*
X023331Y008470D01*
X023430Y008372D02*
X024670Y008372D01*
X024670Y008273D02*
X023528Y008273D01*
X023627Y008175D02*
X024670Y008175D01*
X024670Y008076D02*
X023725Y008076D01*
X023824Y007978D02*
X024670Y007978D01*
X024670Y007879D02*
X023922Y007879D01*
X024021Y007781D02*
X024670Y007781D01*
X024670Y007682D02*
X024119Y007682D01*
X024218Y007584D02*
X024670Y007584D01*
X024670Y007485D02*
X024613Y007485D01*
X023474Y007485D02*
X019524Y007485D01*
X019486Y007584D02*
X023376Y007584D01*
X023277Y007682D02*
X019419Y007682D01*
X019288Y007781D02*
X023179Y007781D01*
X023080Y007879D02*
X022269Y007879D01*
X022256Y007872D02*
X022290Y007892D01*
X022318Y007920D01*
X022338Y007954D01*
X022348Y007992D01*
X022348Y008316D01*
X021894Y008316D01*
X021894Y008416D01*
X021794Y008416D01*
X021794Y008870D01*
X021469Y008870D01*
X021431Y008860D01*
X021397Y008840D01*
X021369Y008812D01*
X021349Y008778D01*
X021339Y008740D01*
X021339Y008416D01*
X021794Y008416D01*
X021794Y008316D01*
X021894Y008316D01*
X021894Y007862D01*
X022218Y007862D01*
X022256Y007872D01*
X022344Y007978D02*
X022982Y007978D01*
X022883Y008076D02*
X022348Y008076D01*
X022348Y008175D02*
X022785Y008175D01*
X022686Y008273D02*
X022348Y008273D01*
X022588Y008372D02*
X021894Y008372D01*
X021894Y008470D02*
X021794Y008470D01*
X021794Y008372D02*
X018547Y008372D01*
X018547Y008470D02*
X021339Y008470D01*
X021339Y008569D02*
X018547Y008569D01*
X018547Y008667D02*
X021339Y008667D01*
X021346Y008766D02*
X018547Y008766D01*
X018561Y008864D02*
X021448Y008864D01*
X021700Y008963D02*
X018680Y008963D01*
X018547Y008273D02*
X021339Y008273D01*
X021339Y008316D02*
X021339Y007992D01*
X021349Y007954D01*
X021369Y007920D01*
X021397Y007892D01*
X021431Y007872D01*
X021469Y007862D01*
X021794Y007862D01*
X021794Y008316D01*
X021339Y008316D01*
X021339Y008175D02*
X018547Y008175D01*
X018547Y008076D02*
X021339Y008076D01*
X021343Y007978D02*
X018547Y007978D01*
X018547Y007879D02*
X021418Y007879D01*
X021794Y007879D02*
X021894Y007879D01*
X021894Y007978D02*
X021794Y007978D01*
X021794Y008076D02*
X021894Y008076D01*
X021894Y008175D02*
X021794Y008175D01*
X021794Y008273D02*
X021894Y008273D01*
X021894Y008569D02*
X021794Y008569D01*
X021794Y008667D02*
X021894Y008667D01*
X021894Y008766D02*
X021794Y008766D01*
X021794Y008864D02*
X021819Y008864D01*
X022348Y008569D02*
X022391Y008569D01*
X022348Y008470D02*
X022489Y008470D01*
X022937Y008864D02*
X023304Y008864D01*
X023300Y008963D02*
X022932Y008963D01*
X023036Y008766D02*
X023346Y008766D01*
X022544Y009554D02*
X022088Y009554D01*
X022254Y009455D02*
X022378Y009455D01*
X023820Y009751D02*
X031006Y009751D01*
X030849Y008963D02*
X030791Y008963D01*
X030671Y008864D02*
X030968Y008864D01*
X032190Y008470D02*
X032286Y008470D01*
X034923Y008864D02*
X036091Y008864D01*
X035993Y008963D02*
X035043Y008963D01*
X037135Y008273D02*
X041024Y008273D01*
X041024Y008175D02*
X037233Y008175D01*
X037332Y008076D02*
X041024Y008076D01*
X041028Y007978D02*
X037430Y007978D01*
X037529Y007879D02*
X041103Y007879D01*
X041479Y007879D02*
X041579Y007879D01*
X041579Y007978D02*
X041479Y007978D01*
X041479Y008076D02*
X041579Y008076D01*
X041579Y008175D02*
X041479Y008175D01*
X043347Y007288D02*
X039210Y007288D01*
X039176Y007190D02*
X043347Y007190D01*
X043347Y006303D02*
X039174Y006303D01*
X039133Y006205D02*
X043347Y006205D01*
X043347Y006106D02*
X039057Y006106D01*
X038895Y006008D02*
X043347Y006008D01*
X043347Y005909D02*
X038511Y005909D01*
X038510Y005811D02*
X038670Y005811D01*
X038650Y006008D02*
X038609Y006008D01*
X038876Y005811D02*
X043347Y005811D01*
X043347Y005712D02*
X039049Y005712D01*
X039130Y005614D02*
X043347Y005614D01*
X043347Y005515D02*
X039171Y005515D01*
X039180Y005417D02*
X043347Y005417D01*
X043347Y005318D02*
X039174Y005318D01*
X039133Y005220D02*
X043347Y005220D01*
X043347Y005121D02*
X039056Y005121D01*
X038894Y005023D02*
X043347Y005023D01*
X043347Y004924D02*
X041936Y004924D01*
X042027Y004826D02*
X043347Y004826D01*
X043347Y004727D02*
X042033Y004727D01*
X042033Y004629D02*
X043347Y004629D01*
X043347Y004530D02*
X042033Y004530D01*
X041579Y004530D02*
X041479Y004530D01*
X041479Y004629D02*
X041579Y004629D01*
X041579Y004727D02*
X041479Y004727D01*
X041479Y004826D02*
X041579Y004826D01*
X041579Y004924D02*
X041479Y004924D01*
X041579Y004432D02*
X043347Y004432D01*
X043347Y003742D02*
X039998Y003742D01*
X039934Y003644D02*
X043347Y003644D01*
X037910Y005271D02*
X036570Y005271D01*
X036489Y005417D02*
X035251Y005417D01*
X035280Y005318D02*
X036390Y005318D01*
X036292Y005220D02*
X035280Y005220D01*
X035249Y005121D02*
X036193Y005121D01*
X036095Y005023D02*
X035185Y005023D01*
X035040Y004924D02*
X035996Y004924D01*
X035898Y004826D02*
X033610Y004826D01*
X033512Y004924D02*
X034781Y004924D01*
X034636Y005023D02*
X033413Y005023D01*
X032763Y005023D02*
X029051Y005023D01*
X029214Y005121D02*
X032664Y005121D01*
X032566Y005220D02*
X029290Y005220D01*
X029331Y005318D02*
X032467Y005318D01*
X032455Y005331D02*
X032455Y005331D01*
X032369Y005417D02*
X029337Y005417D01*
X029328Y005515D02*
X032320Y005515D01*
X032320Y005614D02*
X029287Y005614D01*
X029206Y005712D02*
X032320Y005712D01*
X033070Y005572D02*
X033370Y005271D01*
X034910Y005271D01*
X034770Y005614D02*
X033254Y005614D01*
X033230Y005712D02*
X038190Y005712D01*
X038190Y005614D02*
X038050Y005614D01*
X038190Y005515D02*
X038190Y005515D01*
X037770Y005614D02*
X035050Y005614D01*
X035190Y005515D02*
X037631Y005515D01*
X037818Y005909D02*
X035003Y005909D01*
X034984Y005901D02*
X035120Y005958D01*
X035224Y006062D01*
X035280Y006198D01*
X035280Y006345D01*
X035224Y006481D01*
X035120Y006585D01*
X034984Y006641D01*
X034837Y006641D01*
X034701Y006585D01*
X034597Y006481D01*
X034540Y006345D01*
X034540Y006198D01*
X034597Y006062D01*
X034701Y005958D01*
X034837Y005901D01*
X034984Y005901D01*
X034818Y005909D02*
X033230Y005909D01*
X033230Y005811D02*
X038190Y005811D01*
X038190Y005909D02*
X038003Y005909D01*
X038170Y006008D02*
X038190Y006008D01*
X038243Y006106D02*
X038255Y006106D01*
X038280Y006205D02*
X038354Y006205D01*
X038371Y006303D02*
X038280Y006303D01*
X038257Y006402D02*
X038366Y006402D01*
X038375Y006500D02*
X038205Y006500D01*
X038087Y006599D02*
X038416Y006599D01*
X038497Y006697D02*
X033230Y006697D01*
X033230Y006599D02*
X034734Y006599D01*
X034616Y006500D02*
X033230Y006500D01*
X033230Y006402D02*
X034564Y006402D01*
X034540Y006303D02*
X033230Y006303D01*
X033230Y006205D02*
X034540Y006205D01*
X034578Y006106D02*
X033230Y006106D01*
X033230Y006008D02*
X034651Y006008D01*
X035170Y006008D02*
X037651Y006008D01*
X037578Y006106D02*
X035243Y006106D01*
X035280Y006205D02*
X037540Y006205D01*
X037540Y006303D02*
X035280Y006303D01*
X035257Y006402D02*
X037564Y006402D01*
X037616Y006500D02*
X035205Y006500D01*
X035087Y006599D02*
X037734Y006599D01*
X034666Y006993D02*
X033230Y006993D01*
X033230Y007091D02*
X034585Y007091D01*
X034544Y007190D02*
X033230Y007190D01*
X033230Y007288D02*
X034540Y007288D01*
X034558Y007387D02*
X033230Y007387D01*
X033230Y007485D02*
X034601Y007485D01*
X034631Y005515D02*
X033353Y005515D01*
X036547Y005023D02*
X037636Y005023D01*
X031736Y004333D02*
X031636Y004333D01*
X031636Y004235D02*
X031736Y004235D01*
X031182Y004136D02*
X030224Y004136D01*
X030313Y004038D02*
X031186Y004038D01*
X028533Y003841D02*
X028476Y003841D01*
X024947Y004629D02*
X022348Y004629D01*
X022348Y004727D02*
X024848Y004727D01*
X024750Y004826D02*
X022342Y004826D01*
X022251Y004924D02*
X024651Y004924D01*
X025541Y005318D02*
X027910Y005318D01*
X027869Y005220D02*
X025582Y005220D01*
X025446Y005417D02*
X028005Y005417D01*
X028446Y005417D02*
X028523Y005417D01*
X028595Y005121D02*
X028647Y005121D01*
X024875Y004235D02*
X024714Y004235D01*
X024813Y004136D02*
X024855Y004136D01*
X024382Y004235D02*
X023771Y004235D01*
X023869Y004136D02*
X024284Y004136D01*
X024185Y004038D02*
X023958Y004038D01*
X023958Y003939D02*
X024178Y003939D01*
X024178Y003841D02*
X023958Y003841D01*
X023958Y003742D02*
X024178Y003742D01*
X024259Y003644D02*
X023894Y003644D01*
X023796Y003545D02*
X024357Y003545D01*
X021339Y004235D02*
X018381Y004235D01*
X018381Y004333D02*
X021339Y004333D01*
X020150Y005332D02*
X019088Y006394D01*
X019088Y006397D01*
X019363Y006697D02*
X023910Y006697D01*
X023910Y006599D02*
X020688Y006599D01*
X020740Y006500D02*
X023910Y006500D01*
X023947Y006402D02*
X020786Y006402D01*
X020885Y006303D02*
X024046Y006303D01*
X024072Y006205D02*
X020983Y006205D01*
X019543Y005712D02*
X019364Y005712D01*
X019445Y005614D02*
X019642Y005614D01*
X019740Y005515D02*
X019486Y005515D01*
X019494Y005417D02*
X019839Y005417D01*
X018464Y005811D02*
X018381Y005811D01*
X018061Y005811D02*
X017882Y005811D01*
X017841Y005853D02*
X017705Y005909D01*
X017557Y005909D01*
X017421Y005853D01*
X017317Y005749D01*
X017261Y005613D01*
X017261Y005466D01*
X017317Y005330D01*
X017421Y005226D01*
X017557Y005169D01*
X017705Y005169D01*
X017841Y005226D01*
X017945Y005330D01*
X018001Y005466D01*
X018001Y005613D01*
X017945Y005749D01*
X017841Y005853D01*
X017960Y005712D02*
X018061Y005712D01*
X018061Y005614D02*
X018000Y005614D01*
X018001Y005515D02*
X018061Y005515D01*
X018061Y005417D02*
X017981Y005417D01*
X017933Y005318D02*
X018061Y005318D01*
X018061Y005220D02*
X017827Y005220D01*
X018061Y005121D02*
X016707Y005121D01*
X016805Y005023D02*
X018061Y005023D01*
X018061Y004924D02*
X016904Y004924D01*
X017002Y004826D02*
X018061Y004826D01*
X018061Y004727D02*
X017101Y004727D01*
X017199Y004629D02*
X018061Y004629D01*
X018061Y004530D02*
X017298Y004530D01*
X017396Y004432D02*
X018061Y004432D01*
X018061Y004333D02*
X017495Y004333D01*
X017593Y004235D02*
X018061Y004235D01*
X018061Y004136D02*
X017692Y004136D01*
X017790Y004038D02*
X018061Y004038D01*
X018061Y003939D02*
X017889Y003939D01*
X017987Y003841D02*
X018061Y003841D01*
X017435Y005220D02*
X016905Y005220D01*
X016993Y005318D02*
X017328Y005318D01*
X017281Y005417D02*
X017038Y005417D01*
X017050Y005614D02*
X017261Y005614D01*
X017261Y005515D02*
X016677Y005515D01*
X016677Y005614D02*
X016617Y005614D01*
X016617Y005712D02*
X016677Y005712D01*
X016677Y005811D02*
X016617Y005811D01*
X016617Y005909D02*
X016677Y005909D01*
X016823Y005909D02*
X018061Y005909D01*
X017379Y005811D02*
X016955Y005811D01*
X017019Y005712D02*
X017302Y005712D01*
X018547Y006993D02*
X018866Y006993D01*
X018746Y007091D02*
X018547Y007091D01*
X018547Y007190D02*
X018684Y007190D01*
X018650Y007288D02*
X018547Y007288D01*
X019039Y007288D02*
X019136Y007288D01*
X019136Y007190D02*
X019039Y007190D01*
X019039Y007091D02*
X019136Y007091D01*
X019136Y007485D02*
X019039Y007485D01*
X019039Y007584D02*
X019136Y007584D01*
X019136Y007682D02*
X019039Y007682D01*
X019039Y007781D02*
X019136Y007781D01*
X018887Y007781D02*
X018547Y007781D01*
X018547Y007682D02*
X018756Y007682D01*
X015961Y008667D02*
X015824Y008667D01*
X015186Y008667D02*
X012596Y008667D01*
X012757Y008766D02*
X015024Y008766D01*
X014926Y008864D02*
X012856Y008864D01*
X012931Y008963D02*
X014850Y008963D01*
X014810Y009061D02*
X012972Y009061D01*
X013013Y009160D02*
X014769Y009160D01*
X014752Y009258D02*
X013030Y009258D01*
X013030Y009357D02*
X014752Y009357D01*
X014752Y009455D02*
X013030Y009455D01*
X013007Y009554D02*
X014774Y009554D01*
X014815Y009652D02*
X012966Y009652D01*
X012926Y009751D02*
X014856Y009751D01*
X014939Y009849D02*
X013002Y009849D01*
X013101Y009948D02*
X015038Y009948D01*
X015838Y010132D02*
X016552Y010846D01*
X016867Y010637D02*
X019021Y010637D01*
X019120Y010539D02*
X016768Y010539D01*
X015746Y010834D02*
X014291Y010834D01*
X014334Y010933D02*
X015845Y010933D01*
X015943Y011031D02*
X014362Y011031D01*
X014376Y011130D02*
X016042Y011130D01*
X016140Y011228D02*
X013626Y011228D01*
X013626Y011251D02*
X014379Y011251D01*
X014379Y011253D01*
X014365Y011358D01*
X014338Y011459D01*
X014297Y011556D01*
X014245Y011648D01*
X014181Y011731D01*
X014106Y011805D01*
X014023Y011870D01*
X013932Y011922D01*
X013834Y011962D01*
X013733Y011990D01*
X013628Y012003D01*
X013626Y012003D01*
X013626Y011251D01*
X013626Y011327D02*
X013526Y011327D01*
X013526Y011425D02*
X013626Y011425D01*
X013626Y011524D02*
X013526Y011524D01*
X013526Y011622D02*
X013626Y011622D01*
X013626Y011721D02*
X013526Y011721D01*
X013526Y011819D02*
X013626Y011819D01*
X013626Y011918D02*
X013526Y011918D01*
X013213Y011918D02*
X008427Y011918D01*
X008420Y011922D02*
X008323Y011962D01*
X008221Y011990D01*
X008117Y012003D01*
X008114Y012003D01*
X008114Y011251D01*
X008867Y011251D01*
X008867Y011253D01*
X008853Y011358D01*
X008826Y011459D01*
X008786Y011556D01*
X008733Y011648D01*
X008669Y011731D01*
X008594Y011805D01*
X008511Y011870D01*
X008420Y011922D01*
X008576Y011819D02*
X013064Y011819D01*
X012963Y011721D02*
X008677Y011721D01*
X008747Y011622D02*
X012892Y011622D01*
X012841Y011524D02*
X008799Y011524D01*
X008835Y011425D02*
X012805Y011425D01*
X012783Y011327D02*
X008857Y011327D01*
X008864Y011130D02*
X012775Y011130D01*
X012790Y011031D02*
X008850Y011031D01*
X008822Y010933D02*
X012818Y010933D01*
X012860Y010834D02*
X008780Y010834D01*
X008719Y010736D02*
X012921Y010736D01*
X013004Y010637D02*
X008636Y010637D01*
X008520Y010539D02*
X013119Y010539D01*
X014032Y010539D02*
X015451Y010539D01*
X015549Y010637D02*
X014148Y010637D01*
X014231Y010736D02*
X015648Y010736D01*
X016239Y011327D02*
X014369Y011327D01*
X014347Y011425D02*
X016337Y011425D01*
X016436Y011524D02*
X014311Y011524D01*
X014259Y011622D02*
X017253Y011622D01*
X017182Y011721D02*
X014188Y011721D01*
X014088Y011819D02*
X017182Y011819D01*
X017182Y011918D02*
X013939Y011918D01*
X013526Y011228D02*
X008114Y011228D01*
X008114Y011327D02*
X008014Y011327D01*
X008014Y011425D02*
X008114Y011425D01*
X008114Y011524D02*
X008014Y011524D01*
X008014Y011622D02*
X008114Y011622D01*
X008114Y011721D02*
X008014Y011721D01*
X008014Y011819D02*
X008114Y011819D01*
X008114Y011918D02*
X008014Y011918D01*
X007701Y011918D02*
X002915Y011918D01*
X002908Y011922D02*
X002811Y011962D01*
X002709Y011990D01*
X002605Y012003D01*
X002602Y012003D01*
X002602Y011251D01*
X002502Y011251D01*
X002502Y012003D01*
X002500Y012003D01*
X002395Y011990D01*
X002294Y011962D01*
X002196Y011922D01*
X002105Y011870D01*
X002022Y011805D01*
X001947Y011731D01*
X001883Y011648D01*
X001831Y011556D01*
X001790Y011459D01*
X001763Y011358D01*
X001749Y011253D01*
X001749Y011251D01*
X002502Y011251D01*
X002502Y011151D01*
X001749Y011151D01*
X001749Y011148D01*
X001763Y011044D01*
X001790Y010942D01*
X001831Y010845D01*
X001883Y010754D01*
X001947Y010670D01*
X002022Y010596D01*
X002105Y010532D01*
X002196Y010479D01*
X002294Y010439D01*
X002395Y010412D01*
X002500Y010398D01*
X002502Y010398D01*
X002502Y011151D01*
X002602Y011151D01*
X002602Y011251D01*
X003355Y011251D01*
X003355Y011253D01*
X003341Y011358D01*
X003314Y011459D01*
X003274Y011556D01*
X003221Y011648D01*
X003157Y011731D01*
X003083Y011805D01*
X002999Y011870D01*
X002908Y011922D01*
X003064Y011819D02*
X007552Y011819D01*
X007451Y011721D02*
X003165Y011721D01*
X003236Y011622D02*
X007381Y011622D01*
X007329Y011524D02*
X003287Y011524D01*
X003323Y011425D02*
X007293Y011425D01*
X007271Y011327D02*
X003345Y011327D01*
X003355Y011151D02*
X002602Y011151D01*
X002602Y010398D01*
X002605Y010398D01*
X002709Y010412D01*
X002811Y010439D01*
X002908Y010479D01*
X002999Y010532D01*
X003083Y010596D01*
X003157Y010670D01*
X003221Y010754D01*
X003274Y010845D01*
X003314Y010942D01*
X003341Y011044D01*
X003355Y011148D01*
X003355Y011151D01*
X003353Y011130D02*
X007264Y011130D01*
X007278Y011031D02*
X003338Y011031D01*
X003310Y010933D02*
X007306Y010933D01*
X007348Y010834D02*
X003268Y010834D01*
X003208Y010736D02*
X007409Y010736D01*
X007492Y010637D02*
X003124Y010637D01*
X003009Y010539D02*
X007608Y010539D01*
X006241Y009948D02*
X006167Y009874D01*
X006081Y009751D02*
X005130Y009751D01*
X005171Y009652D02*
X006032Y009652D01*
X005999Y009554D02*
X005212Y009554D01*
X005234Y009455D02*
X005979Y009455D01*
X005977Y009258D02*
X005234Y009258D01*
X005217Y009160D02*
X005995Y009160D01*
X006026Y009061D02*
X005177Y009061D01*
X005136Y008963D02*
X006073Y008963D01*
X006138Y008864D02*
X005060Y008864D01*
X004962Y008766D02*
X006228Y008766D01*
X006362Y008667D02*
X004800Y008667D01*
X006715Y008667D02*
X006815Y008667D01*
X006815Y008766D02*
X006715Y008766D01*
X006715Y008864D02*
X006815Y008864D01*
X006815Y008963D02*
X006715Y008963D01*
X006715Y009061D02*
X006815Y009061D01*
X006815Y009160D02*
X006715Y009160D01*
X007302Y008766D02*
X009513Y008766D01*
X009414Y008864D02*
X007392Y008864D01*
X007457Y008963D02*
X009339Y008963D01*
X009298Y009061D02*
X007503Y009061D01*
X007535Y009160D02*
X009257Y009160D01*
X009240Y009258D02*
X007552Y009258D01*
X007168Y008667D02*
X009674Y008667D01*
X010312Y008667D02*
X011957Y008667D01*
X011796Y008766D02*
X010474Y008766D01*
X010572Y008864D02*
X011698Y008864D01*
X011622Y008963D02*
X010648Y008963D01*
X010688Y009061D02*
X011581Y009061D01*
X011540Y009160D02*
X010729Y009160D01*
X010746Y009258D02*
X011524Y009258D01*
X011524Y009357D02*
X010746Y009357D01*
X010746Y009455D02*
X011524Y009455D01*
X011546Y009554D02*
X010724Y009554D01*
X010683Y009652D02*
X011587Y009652D01*
X011628Y009751D02*
X010642Y009751D01*
X010559Y009849D02*
X011711Y009849D01*
X011810Y009948D02*
X010460Y009948D01*
X010280Y010046D02*
X011990Y010046D01*
X012563Y010046D02*
X012747Y010046D01*
X013058Y010132D02*
X015838Y010132D01*
X013058Y010132D02*
X012277Y009350D01*
X008014Y011228D02*
X002602Y011228D01*
X002602Y011130D02*
X002502Y011130D01*
X002502Y011228D02*
X000340Y011228D01*
X000340Y011130D02*
X001752Y011130D01*
X001766Y011031D02*
X000340Y011031D01*
X000340Y010933D02*
X001794Y010933D01*
X001837Y010834D02*
X000340Y010834D01*
X000340Y010736D02*
X001897Y010736D01*
X001980Y010637D02*
X000340Y010637D01*
X000340Y010539D02*
X002096Y010539D01*
X002290Y010440D02*
X000340Y010440D01*
X000340Y010342D02*
X005247Y010342D01*
X005345Y010440D02*
X002815Y010440D01*
X002602Y010440D02*
X002502Y010440D01*
X002502Y010539D02*
X002602Y010539D01*
X002602Y010637D02*
X002502Y010637D01*
X002502Y010736D02*
X002602Y010736D01*
X002602Y010834D02*
X002502Y010834D01*
X002502Y010933D02*
X002602Y010933D01*
X002602Y011031D02*
X002502Y011031D01*
X002502Y011327D02*
X002602Y011327D01*
X002602Y011425D02*
X002502Y011425D01*
X002502Y011524D02*
X002602Y011524D01*
X002602Y011622D02*
X002502Y011622D01*
X002502Y011721D02*
X002602Y011721D01*
X002602Y011819D02*
X002502Y011819D01*
X002502Y011918D02*
X002602Y011918D01*
X002189Y011918D02*
X000340Y011918D01*
X000340Y012016D02*
X017199Y012016D01*
X017298Y012115D02*
X000340Y012115D01*
X000340Y011819D02*
X002040Y011819D01*
X001940Y011721D02*
X000340Y011721D01*
X000340Y011622D02*
X001869Y011622D01*
X001817Y011524D02*
X000340Y011524D01*
X000340Y011425D02*
X001781Y011425D01*
X001759Y011327D02*
X000340Y011327D01*
X018807Y012115D02*
X023292Y012115D01*
X023245Y012016D02*
X018905Y012016D01*
X019575Y011130D02*
X020040Y011130D01*
X019941Y011031D02*
X019674Y011031D01*
X019706Y010933D02*
X019926Y010933D01*
X019926Y010736D02*
X019706Y010736D01*
X019650Y010637D02*
X019965Y010637D01*
X020063Y010539D02*
X019552Y010539D01*
X020510Y010440D02*
X021095Y010440D01*
X020997Y010539D02*
X020608Y010539D01*
X020707Y010637D02*
X020898Y010637D01*
X020800Y010736D02*
X020746Y010736D01*
X021055Y010933D02*
X021773Y010933D01*
X021749Y010834D02*
X021154Y010834D01*
X021252Y010736D02*
X021749Y010736D01*
X021786Y010637D02*
X021351Y010637D01*
X021449Y010539D02*
X021858Y010539D01*
X021827Y011031D02*
X020957Y011031D01*
X023625Y011524D02*
X023685Y011524D01*
X023685Y011622D02*
X023625Y011622D01*
X023625Y011721D02*
X023685Y011721D01*
X023685Y011819D02*
X023625Y011819D01*
X024065Y011819D02*
X024886Y011819D01*
X024820Y011721D02*
X024058Y011721D01*
X024065Y012016D02*
X026355Y012016D01*
X026420Y012115D02*
X024017Y012115D01*
X026173Y010834D02*
X026315Y010834D01*
X026315Y010736D02*
X026271Y010736D01*
X026370Y010637D02*
X026406Y010637D01*
X026468Y010539D02*
X026504Y010539D01*
X026567Y010440D02*
X027103Y010440D01*
X027069Y010539D02*
X026947Y010539D01*
X027045Y010637D02*
X027069Y010637D01*
X026755Y010637D02*
X026695Y010637D01*
X026695Y010539D02*
X026755Y010539D01*
X026665Y010342D02*
X027155Y010342D01*
X026755Y010736D02*
X026695Y010736D01*
X026695Y010834D02*
X026755Y010834D01*
X037428Y010440D02*
X038007Y010440D01*
X037908Y010342D02*
X037447Y010342D01*
X037545Y010243D02*
X037810Y010243D01*
X037776Y010145D02*
X037596Y010145D01*
X037596Y010046D02*
X038166Y010046D01*
X038166Y009948D02*
X038246Y009948D01*
X038246Y009849D02*
X038166Y009849D01*
X038166Y009751D02*
X038246Y009751D01*
X038246Y009652D02*
X038166Y009652D01*
X037976Y009652D02*
X037378Y009652D01*
X037477Y009751D02*
X037878Y009751D01*
X037779Y009849D02*
X037575Y009849D01*
X037596Y009948D02*
X037776Y009948D01*
X040405Y010440D02*
X040984Y010440D01*
X040965Y010342D02*
X040503Y010342D01*
X040602Y010243D02*
X040871Y010243D01*
X040831Y010145D02*
X040636Y010145D01*
X038246Y010933D02*
X038166Y010933D01*
X040617Y011228D02*
X040851Y011228D01*
X040816Y011130D02*
X040636Y011130D01*
X028655Y006697D02*
X026035Y006697D01*
X025937Y006599D02*
X028573Y006599D01*
X033741Y002068D02*
X033788Y002068D01*
X033741Y001969D02*
X033886Y001969D01*
X033974Y001622D02*
X033757Y001405D01*
X033757Y001099D01*
X033974Y000882D01*
X034280Y000882D01*
X034497Y001099D01*
X034497Y001405D01*
X034280Y001622D01*
X033974Y001622D01*
X033927Y001575D02*
X033145Y001575D01*
X033047Y001477D02*
X033829Y001477D01*
X033757Y001378D02*
X033528Y001378D01*
X033658Y001280D02*
X033757Y001280D01*
X033757Y001181D02*
X033714Y001181D01*
X033741Y001083D02*
X033773Y001083D01*
X033741Y000984D02*
X033871Y000984D01*
X033970Y000886D02*
X033755Y000886D01*
X033762Y000652D02*
X033371Y001043D01*
X033028Y001181D02*
X030108Y001181D01*
X030135Y001083D02*
X033001Y001083D01*
X033001Y000984D02*
X030135Y000984D01*
X030100Y000886D02*
X033036Y000886D01*
X033104Y000787D02*
X030032Y000787D01*
X029877Y000689D02*
X033259Y000689D01*
X033483Y000689D02*
X033499Y000689D01*
X033762Y000652D02*
X037291Y000652D01*
X037910Y001271D01*
X037540Y001280D02*
X035280Y001280D01*
X035280Y001345D02*
X035224Y001481D01*
X035120Y001585D01*
X034984Y001641D01*
X034837Y001641D01*
X034701Y001585D01*
X034597Y001481D01*
X034540Y001345D01*
X034540Y001198D01*
X034597Y001062D01*
X034701Y000958D01*
X034837Y000901D01*
X034984Y000901D01*
X035120Y000958D01*
X035224Y001062D01*
X035280Y001198D01*
X035280Y001345D01*
X035267Y001378D02*
X037540Y001378D01*
X037540Y001477D02*
X035226Y001477D01*
X035130Y001575D02*
X035380Y001575D01*
X035282Y001674D02*
X033485Y001674D01*
X033258Y001674D02*
X033244Y001674D01*
X033214Y001378D02*
X032948Y001378D01*
X032850Y001280D02*
X033085Y001280D01*
X034284Y000886D02*
X037299Y000886D01*
X037397Y000984D02*
X035147Y000984D01*
X035233Y001083D02*
X037496Y001083D01*
X037540Y001181D02*
X035274Y001181D01*
X034588Y001083D02*
X034481Y001083D01*
X034497Y001181D02*
X034547Y001181D01*
X034540Y001280D02*
X034497Y001280D01*
X034497Y001378D02*
X034554Y001378D01*
X034595Y001477D02*
X034425Y001477D01*
X034327Y001575D02*
X034691Y001575D01*
X034674Y000984D02*
X034383Y000984D01*
X037554Y000689D02*
X043347Y000689D01*
X043347Y000787D02*
X037653Y000787D01*
X037751Y000886D02*
X043347Y000886D01*
X043347Y000984D02*
X042379Y000984D01*
X042470Y001083D02*
X043347Y001083D01*
X043347Y001181D02*
X042511Y001181D01*
X042521Y001280D02*
X043347Y001280D01*
X043347Y001378D02*
X042510Y001378D01*
X042469Y001477D02*
X043347Y001477D01*
X043347Y001575D02*
X042378Y001575D01*
X041791Y001181D02*
X038904Y001181D01*
X038863Y001083D02*
X041831Y001083D01*
X041922Y000984D02*
X038773Y000984D01*
X038316Y000984D02*
X038280Y000984D01*
X029653Y000689D02*
X000340Y000689D01*
X000340Y000787D02*
X019852Y000787D01*
X019761Y000886D02*
X000340Y000886D01*
X000340Y000984D02*
X019720Y000984D01*
X019710Y001083D02*
X013730Y001083D01*
X013916Y001181D02*
X019720Y001181D01*
X019761Y001280D02*
X014007Y001280D01*
X014065Y001378D02*
X016376Y001378D01*
X016249Y001477D02*
X014098Y001477D01*
X016697Y001378D02*
X019852Y001378D01*
X019855Y001477D02*
X016824Y001477D01*
X020307Y001378D02*
X020797Y001378D01*
X020699Y001477D02*
X020431Y001477D01*
X020487Y001575D02*
X020600Y001575D01*
X020398Y001280D02*
X023367Y001280D01*
X023327Y001181D02*
X020439Y001181D01*
X020450Y001083D02*
X023316Y001083D01*
X023326Y000984D02*
X020440Y000984D01*
X020399Y000886D02*
X023367Y000886D01*
X023458Y000787D02*
X020308Y000787D01*
X023914Y000787D02*
X024265Y000787D01*
X024166Y000886D02*
X024005Y000886D01*
X024046Y000984D02*
X024111Y000984D01*
X024111Y001083D02*
X024056Y001083D01*
X024046Y001181D02*
X024111Y001181D01*
X024144Y001280D02*
X024005Y001280D01*
X028574Y000787D02*
X028793Y000787D01*
X028694Y000886D02*
X028595Y000886D01*
X029009Y001094D02*
X029351Y001437D01*
X029379Y001181D02*
X029422Y001181D01*
X029395Y001083D02*
X029379Y001083D01*
X029379Y000984D02*
X029395Y000984D01*
X029429Y000886D02*
X029324Y000886D01*
X029225Y000787D02*
X029497Y000787D01*
X002172Y001969D02*
X000340Y001969D01*
X000340Y001871D02*
X002094Y001871D01*
X002049Y001772D02*
X000340Y001772D01*
X000340Y001674D02*
X002024Y001674D01*
D25*
X019270Y003092D03*
X028830Y004732D03*
X035430Y004132D03*
X032310Y002532D03*
X020510Y006452D03*
X032230Y009572D03*
X023390Y010452D03*
M02*
